G04 #@! TF.GenerationSoftware,KiCad,Pcbnew,(5.0.0-3-g5ebb6b6)*
G04 #@! TF.CreationDate,2019-02-06T10:52:08+00:00*
G04 #@! TF.ProjectId,AdjustablePSU,41646A75737461626C655053552E6B69,rev?*
G04 #@! TF.SameCoordinates,Original*
G04 #@! TF.FileFunction,Copper,L1,Top,Signal*
G04 #@! TF.FilePolarity,Positive*
%FSLAX46Y46*%
G04 Gerber Fmt 4.6, Leading zero omitted, Abs format (unit mm)*
G04 Created by KiCad (PCBNEW (5.0.0-3-g5ebb6b6)) date Wednesday, 06 February 2019 at 10:52:08*
%MOMM*%
%LPD*%
G01*
G04 APERTURE LIST*
G04 #@! TA.AperFunction,ComponentPad*
%ADD10R,1.905000X2.000000*%
G04 #@! TD*
G04 #@! TA.AperFunction,ComponentPad*
%ADD11O,1.905000X2.000000*%
G04 #@! TD*
G04 #@! TA.AperFunction,ComponentPad*
%ADD12R,1.700000X1.700000*%
G04 #@! TD*
G04 #@! TA.AperFunction,ComponentPad*
%ADD13O,1.700000X1.700000*%
G04 #@! TD*
G04 #@! TA.AperFunction,Conductor*
%ADD14C,0.100000*%
G04 #@! TD*
G04 #@! TA.AperFunction,SMDPad,CuDef*
%ADD15C,1.150000*%
G04 #@! TD*
G04 #@! TA.AperFunction,SMDPad,CuDef*
%ADD16R,9.600000X8.800000*%
G04 #@! TD*
G04 #@! TA.AperFunction,SMDPad,CuDef*
%ADD17C,1.425000*%
G04 #@! TD*
G04 #@! TA.AperFunction,SMDPad,CuDef*
%ADD18R,1.800000X3.500000*%
G04 #@! TD*
G04 #@! TA.AperFunction,SMDPad,CuDef*
%ADD19R,1.900000X4.400000*%
G04 #@! TD*
G04 #@! TA.AperFunction,ViaPad*
%ADD20C,0.800000*%
G04 #@! TD*
G04 #@! TA.AperFunction,Conductor*
%ADD21C,1.000000*%
G04 #@! TD*
G04 APERTURE END LIST*
D10*
G04 #@! TO.P,U_POSREG1,1*
G04 #@! TO.N,Net-(R_POSREG1-Pad2)*
X153035000Y-67310000D03*
D11*
G04 #@! TO.P,U_POSREG1,2*
G04 #@! TO.N,/12VDC_POS_REG*
X155575000Y-67310000D03*
G04 #@! TO.P,U_POSREG1,3*
G04 #@! TO.N,/DC_POS_IN*
X158115000Y-67310000D03*
G04 #@! TD*
D12*
G04 #@! TO.P,J_OUT1,1*
G04 #@! TO.N,/12VDC_POS_REG*
X141732000Y-80010000D03*
D13*
G04 #@! TO.P,J_OUT1,2*
X144272000Y-80010000D03*
G04 #@! TO.P,J_OUT1,3*
G04 #@! TO.N,GND*
X141732000Y-82550000D03*
G04 #@! TO.P,J_OUT1,4*
X144272000Y-82550000D03*
G04 #@! TO.P,J_OUT1,5*
X141732000Y-85090000D03*
G04 #@! TO.P,J_OUT1,6*
X144272000Y-85090000D03*
G04 #@! TO.P,J_OUT1,7*
X141732000Y-87630000D03*
G04 #@! TO.P,J_OUT1,8*
X144272000Y-87630000D03*
G04 #@! TO.P,J_OUT1,9*
G04 #@! TO.N,/12VDC_NEG_REG*
X141732000Y-90170000D03*
G04 #@! TO.P,J_OUT1,10*
X144272000Y-90170000D03*
G04 #@! TD*
D11*
G04 #@! TO.P,U_NEGREG1,3*
G04 #@! TO.N,/12VDC_NEG_REG*
X144780000Y-67310000D03*
G04 #@! TO.P,U_NEGREG1,2*
G04 #@! TO.N,/DC_NEG_IN*
X142240000Y-67310000D03*
D10*
G04 #@! TO.P,U_NEGREG1,1*
G04 #@! TO.N,Net-(R_NEGREG1-Pad2)*
X139700000Y-67310000D03*
G04 #@! TD*
D12*
G04 #@! TO.P,J_OUT2,1*
G04 #@! TO.N,/12VDC_POS_REG*
X153670000Y-80010000D03*
D13*
G04 #@! TO.P,J_OUT2,2*
X156210000Y-80010000D03*
G04 #@! TO.P,J_OUT2,3*
G04 #@! TO.N,GND*
X153670000Y-82550000D03*
G04 #@! TO.P,J_OUT2,4*
X156210000Y-82550000D03*
G04 #@! TO.P,J_OUT2,5*
X153670000Y-85090000D03*
G04 #@! TO.P,J_OUT2,6*
X156210000Y-85090000D03*
G04 #@! TO.P,J_OUT2,7*
X153670000Y-87630000D03*
G04 #@! TO.P,J_OUT2,8*
X156210000Y-87630000D03*
G04 #@! TO.P,J_OUT2,9*
G04 #@! TO.N,/12VDC_NEG_REG*
X153670000Y-90170000D03*
G04 #@! TO.P,J_OUT2,10*
X156210000Y-90170000D03*
G04 #@! TD*
D12*
G04 #@! TO.P,J_PWR1,1*
G04 #@! TO.N,GND*
X112395000Y-66294000D03*
D13*
G04 #@! TO.P,J_PWR1,2*
G04 #@! TO.N,/AC_IN*
X114935000Y-66294000D03*
G04 #@! TD*
D14*
G04 #@! TO.N,/DC_NEG_IN*
G04 #@! TO.C,C_NEG1*
G36*
X125707505Y-89471204D02*
X125731773Y-89474804D01*
X125755572Y-89480765D01*
X125778671Y-89489030D01*
X125800850Y-89499520D01*
X125821893Y-89512132D01*
X125841599Y-89526747D01*
X125859777Y-89543223D01*
X125876253Y-89561401D01*
X125890868Y-89581107D01*
X125903480Y-89602150D01*
X125913970Y-89624329D01*
X125922235Y-89647428D01*
X125928196Y-89671227D01*
X125931796Y-89695495D01*
X125933000Y-89719999D01*
X125933000Y-90620001D01*
X125931796Y-90644505D01*
X125928196Y-90668773D01*
X125922235Y-90692572D01*
X125913970Y-90715671D01*
X125903480Y-90737850D01*
X125890868Y-90758893D01*
X125876253Y-90778599D01*
X125859777Y-90796777D01*
X125841599Y-90813253D01*
X125821893Y-90827868D01*
X125800850Y-90840480D01*
X125778671Y-90850970D01*
X125755572Y-90859235D01*
X125731773Y-90865196D01*
X125707505Y-90868796D01*
X125683001Y-90870000D01*
X125032999Y-90870000D01*
X125008495Y-90868796D01*
X124984227Y-90865196D01*
X124960428Y-90859235D01*
X124937329Y-90850970D01*
X124915150Y-90840480D01*
X124894107Y-90827868D01*
X124874401Y-90813253D01*
X124856223Y-90796777D01*
X124839747Y-90778599D01*
X124825132Y-90758893D01*
X124812520Y-90737850D01*
X124802030Y-90715671D01*
X124793765Y-90692572D01*
X124787804Y-90668773D01*
X124784204Y-90644505D01*
X124783000Y-90620001D01*
X124783000Y-89719999D01*
X124784204Y-89695495D01*
X124787804Y-89671227D01*
X124793765Y-89647428D01*
X124802030Y-89624329D01*
X124812520Y-89602150D01*
X124825132Y-89581107D01*
X124839747Y-89561401D01*
X124856223Y-89543223D01*
X124874401Y-89526747D01*
X124894107Y-89512132D01*
X124915150Y-89499520D01*
X124937329Y-89489030D01*
X124960428Y-89480765D01*
X124984227Y-89474804D01*
X125008495Y-89471204D01*
X125032999Y-89470000D01*
X125683001Y-89470000D01*
X125707505Y-89471204D01*
X125707505Y-89471204D01*
G37*
D15*
G04 #@! TD*
G04 #@! TO.P,C_NEG1,1*
G04 #@! TO.N,/DC_NEG_IN*
X125358000Y-90170000D03*
D14*
G04 #@! TO.N,GND*
G04 #@! TO.C,C_NEG1*
G36*
X123657505Y-89471204D02*
X123681773Y-89474804D01*
X123705572Y-89480765D01*
X123728671Y-89489030D01*
X123750850Y-89499520D01*
X123771893Y-89512132D01*
X123791599Y-89526747D01*
X123809777Y-89543223D01*
X123826253Y-89561401D01*
X123840868Y-89581107D01*
X123853480Y-89602150D01*
X123863970Y-89624329D01*
X123872235Y-89647428D01*
X123878196Y-89671227D01*
X123881796Y-89695495D01*
X123883000Y-89719999D01*
X123883000Y-90620001D01*
X123881796Y-90644505D01*
X123878196Y-90668773D01*
X123872235Y-90692572D01*
X123863970Y-90715671D01*
X123853480Y-90737850D01*
X123840868Y-90758893D01*
X123826253Y-90778599D01*
X123809777Y-90796777D01*
X123791599Y-90813253D01*
X123771893Y-90827868D01*
X123750850Y-90840480D01*
X123728671Y-90850970D01*
X123705572Y-90859235D01*
X123681773Y-90865196D01*
X123657505Y-90868796D01*
X123633001Y-90870000D01*
X122982999Y-90870000D01*
X122958495Y-90868796D01*
X122934227Y-90865196D01*
X122910428Y-90859235D01*
X122887329Y-90850970D01*
X122865150Y-90840480D01*
X122844107Y-90827868D01*
X122824401Y-90813253D01*
X122806223Y-90796777D01*
X122789747Y-90778599D01*
X122775132Y-90758893D01*
X122762520Y-90737850D01*
X122752030Y-90715671D01*
X122743765Y-90692572D01*
X122737804Y-90668773D01*
X122734204Y-90644505D01*
X122733000Y-90620001D01*
X122733000Y-89719999D01*
X122734204Y-89695495D01*
X122737804Y-89671227D01*
X122743765Y-89647428D01*
X122752030Y-89624329D01*
X122762520Y-89602150D01*
X122775132Y-89581107D01*
X122789747Y-89561401D01*
X122806223Y-89543223D01*
X122824401Y-89526747D01*
X122844107Y-89512132D01*
X122865150Y-89499520D01*
X122887329Y-89489030D01*
X122910428Y-89480765D01*
X122934227Y-89474804D01*
X122958495Y-89471204D01*
X122982999Y-89470000D01*
X123633001Y-89470000D01*
X123657505Y-89471204D01*
X123657505Y-89471204D01*
G37*
D15*
G04 #@! TD*
G04 #@! TO.P,C_NEG1,2*
G04 #@! TO.N,GND*
X123308000Y-90170000D03*
D16*
G04 #@! TO.P,C_NEG2,1*
G04 #@! TO.N,GND*
X137795000Y-103486000D03*
G04 #@! TO.P,C_NEG2,2*
G04 #@! TO.N,/DC_NEG_IN*
X137795000Y-116986000D03*
G04 #@! TD*
G04 #@! TO.P,C_NEG3,2*
G04 #@! TO.N,/DC_NEG_IN*
X115570000Y-116986000D03*
G04 #@! TO.P,C_NEG3,1*
G04 #@! TO.N,GND*
X115570000Y-103486000D03*
G04 #@! TD*
G04 #@! TO.P,C_NEG4,1*
G04 #@! TO.N,GND*
X115570000Y-146450000D03*
G04 #@! TO.P,C_NEG4,2*
G04 #@! TO.N,/DC_NEG_IN*
X115570000Y-132950000D03*
G04 #@! TD*
G04 #@! TO.P,C_NEG5,2*
G04 #@! TO.N,/DC_NEG_IN*
X137795000Y-133204000D03*
G04 #@! TO.P,C_NEG5,1*
G04 #@! TO.N,GND*
X137795000Y-146704000D03*
G04 #@! TD*
D14*
G04 #@! TO.N,GND*
G04 #@! TO.C,C_POS1*
G36*
X174221505Y-89598204D02*
X174245773Y-89601804D01*
X174269572Y-89607765D01*
X174292671Y-89616030D01*
X174314850Y-89626520D01*
X174335893Y-89639132D01*
X174355599Y-89653747D01*
X174373777Y-89670223D01*
X174390253Y-89688401D01*
X174404868Y-89708107D01*
X174417480Y-89729150D01*
X174427970Y-89751329D01*
X174436235Y-89774428D01*
X174442196Y-89798227D01*
X174445796Y-89822495D01*
X174447000Y-89846999D01*
X174447000Y-90747001D01*
X174445796Y-90771505D01*
X174442196Y-90795773D01*
X174436235Y-90819572D01*
X174427970Y-90842671D01*
X174417480Y-90864850D01*
X174404868Y-90885893D01*
X174390253Y-90905599D01*
X174373777Y-90923777D01*
X174355599Y-90940253D01*
X174335893Y-90954868D01*
X174314850Y-90967480D01*
X174292671Y-90977970D01*
X174269572Y-90986235D01*
X174245773Y-90992196D01*
X174221505Y-90995796D01*
X174197001Y-90997000D01*
X173546999Y-90997000D01*
X173522495Y-90995796D01*
X173498227Y-90992196D01*
X173474428Y-90986235D01*
X173451329Y-90977970D01*
X173429150Y-90967480D01*
X173408107Y-90954868D01*
X173388401Y-90940253D01*
X173370223Y-90923777D01*
X173353747Y-90905599D01*
X173339132Y-90885893D01*
X173326520Y-90864850D01*
X173316030Y-90842671D01*
X173307765Y-90819572D01*
X173301804Y-90795773D01*
X173298204Y-90771505D01*
X173297000Y-90747001D01*
X173297000Y-89846999D01*
X173298204Y-89822495D01*
X173301804Y-89798227D01*
X173307765Y-89774428D01*
X173316030Y-89751329D01*
X173326520Y-89729150D01*
X173339132Y-89708107D01*
X173353747Y-89688401D01*
X173370223Y-89670223D01*
X173388401Y-89653747D01*
X173408107Y-89639132D01*
X173429150Y-89626520D01*
X173451329Y-89616030D01*
X173474428Y-89607765D01*
X173498227Y-89601804D01*
X173522495Y-89598204D01*
X173546999Y-89597000D01*
X174197001Y-89597000D01*
X174221505Y-89598204D01*
X174221505Y-89598204D01*
G37*
D15*
G04 #@! TD*
G04 #@! TO.P,C_POS1,2*
G04 #@! TO.N,GND*
X173872000Y-90297000D03*
D14*
G04 #@! TO.N,/DC_POS_IN*
G04 #@! TO.C,C_POS1*
G36*
X172171505Y-89598204D02*
X172195773Y-89601804D01*
X172219572Y-89607765D01*
X172242671Y-89616030D01*
X172264850Y-89626520D01*
X172285893Y-89639132D01*
X172305599Y-89653747D01*
X172323777Y-89670223D01*
X172340253Y-89688401D01*
X172354868Y-89708107D01*
X172367480Y-89729150D01*
X172377970Y-89751329D01*
X172386235Y-89774428D01*
X172392196Y-89798227D01*
X172395796Y-89822495D01*
X172397000Y-89846999D01*
X172397000Y-90747001D01*
X172395796Y-90771505D01*
X172392196Y-90795773D01*
X172386235Y-90819572D01*
X172377970Y-90842671D01*
X172367480Y-90864850D01*
X172354868Y-90885893D01*
X172340253Y-90905599D01*
X172323777Y-90923777D01*
X172305599Y-90940253D01*
X172285893Y-90954868D01*
X172264850Y-90967480D01*
X172242671Y-90977970D01*
X172219572Y-90986235D01*
X172195773Y-90992196D01*
X172171505Y-90995796D01*
X172147001Y-90997000D01*
X171496999Y-90997000D01*
X171472495Y-90995796D01*
X171448227Y-90992196D01*
X171424428Y-90986235D01*
X171401329Y-90977970D01*
X171379150Y-90967480D01*
X171358107Y-90954868D01*
X171338401Y-90940253D01*
X171320223Y-90923777D01*
X171303747Y-90905599D01*
X171289132Y-90885893D01*
X171276520Y-90864850D01*
X171266030Y-90842671D01*
X171257765Y-90819572D01*
X171251804Y-90795773D01*
X171248204Y-90771505D01*
X171247000Y-90747001D01*
X171247000Y-89846999D01*
X171248204Y-89822495D01*
X171251804Y-89798227D01*
X171257765Y-89774428D01*
X171266030Y-89751329D01*
X171276520Y-89729150D01*
X171289132Y-89708107D01*
X171303747Y-89688401D01*
X171320223Y-89670223D01*
X171338401Y-89653747D01*
X171358107Y-89639132D01*
X171379150Y-89626520D01*
X171401329Y-89616030D01*
X171424428Y-89607765D01*
X171448227Y-89601804D01*
X171472495Y-89598204D01*
X171496999Y-89597000D01*
X172147001Y-89597000D01*
X172171505Y-89598204D01*
X172171505Y-89598204D01*
G37*
D15*
G04 #@! TD*
G04 #@! TO.P,C_POS1,1*
G04 #@! TO.N,/DC_POS_IN*
X171822000Y-90297000D03*
D16*
G04 #@! TO.P,C_POS2,2*
G04 #@! TO.N,GND*
X160020000Y-146704000D03*
G04 #@! TO.P,C_POS2,1*
G04 #@! TO.N,/DC_POS_IN*
X160020000Y-133204000D03*
G04 #@! TD*
G04 #@! TO.P,C_POS3,1*
G04 #@! TO.N,/DC_POS_IN*
X160020000Y-116986000D03*
G04 #@! TO.P,C_POS3,2*
G04 #@! TO.N,GND*
X160020000Y-103486000D03*
G04 #@! TD*
G04 #@! TO.P,C_POS4,2*
G04 #@! TO.N,GND*
X181610000Y-146704000D03*
G04 #@! TO.P,C_POS4,1*
G04 #@! TO.N,/DC_POS_IN*
X181610000Y-133204000D03*
G04 #@! TD*
G04 #@! TO.P,C_POS5,1*
G04 #@! TO.N,/DC_POS_IN*
X181610000Y-116986000D03*
G04 #@! TO.P,C_POS5,2*
G04 #@! TO.N,GND*
X181610000Y-103486000D03*
G04 #@! TD*
D14*
G04 #@! TO.N,Net-(D_NEG4-Pad1)*
G04 #@! TO.C,D_NEG4*
G36*
X110124504Y-89296204D02*
X110148773Y-89299804D01*
X110172571Y-89305765D01*
X110195671Y-89314030D01*
X110217849Y-89324520D01*
X110238893Y-89337133D01*
X110258598Y-89351747D01*
X110276777Y-89368223D01*
X110293253Y-89386402D01*
X110307867Y-89406107D01*
X110320480Y-89427151D01*
X110330970Y-89449329D01*
X110339235Y-89472429D01*
X110345196Y-89496227D01*
X110348796Y-89520496D01*
X110350000Y-89545000D01*
X110350000Y-90795000D01*
X110348796Y-90819504D01*
X110345196Y-90843773D01*
X110339235Y-90867571D01*
X110330970Y-90890671D01*
X110320480Y-90912849D01*
X110307867Y-90933893D01*
X110293253Y-90953598D01*
X110276777Y-90971777D01*
X110258598Y-90988253D01*
X110238893Y-91002867D01*
X110217849Y-91015480D01*
X110195671Y-91025970D01*
X110172571Y-91034235D01*
X110148773Y-91040196D01*
X110124504Y-91043796D01*
X110100000Y-91045000D01*
X109175000Y-91045000D01*
X109150496Y-91043796D01*
X109126227Y-91040196D01*
X109102429Y-91034235D01*
X109079329Y-91025970D01*
X109057151Y-91015480D01*
X109036107Y-91002867D01*
X109016402Y-90988253D01*
X108998223Y-90971777D01*
X108981747Y-90953598D01*
X108967133Y-90933893D01*
X108954520Y-90912849D01*
X108944030Y-90890671D01*
X108935765Y-90867571D01*
X108929804Y-90843773D01*
X108926204Y-90819504D01*
X108925000Y-90795000D01*
X108925000Y-89545000D01*
X108926204Y-89520496D01*
X108929804Y-89496227D01*
X108935765Y-89472429D01*
X108944030Y-89449329D01*
X108954520Y-89427151D01*
X108967133Y-89406107D01*
X108981747Y-89386402D01*
X108998223Y-89368223D01*
X109016402Y-89351747D01*
X109036107Y-89337133D01*
X109057151Y-89324520D01*
X109079329Y-89314030D01*
X109102429Y-89305765D01*
X109126227Y-89299804D01*
X109150496Y-89296204D01*
X109175000Y-89295000D01*
X110100000Y-89295000D01*
X110124504Y-89296204D01*
X110124504Y-89296204D01*
G37*
D17*
G04 #@! TD*
G04 #@! TO.P,D_NEG4,1*
G04 #@! TO.N,Net-(D_NEG4-Pad1)*
X109637500Y-90170000D03*
D14*
G04 #@! TO.N,GND*
G04 #@! TO.C,D_NEG4*
G36*
X113099504Y-89296204D02*
X113123773Y-89299804D01*
X113147571Y-89305765D01*
X113170671Y-89314030D01*
X113192849Y-89324520D01*
X113213893Y-89337133D01*
X113233598Y-89351747D01*
X113251777Y-89368223D01*
X113268253Y-89386402D01*
X113282867Y-89406107D01*
X113295480Y-89427151D01*
X113305970Y-89449329D01*
X113314235Y-89472429D01*
X113320196Y-89496227D01*
X113323796Y-89520496D01*
X113325000Y-89545000D01*
X113325000Y-90795000D01*
X113323796Y-90819504D01*
X113320196Y-90843773D01*
X113314235Y-90867571D01*
X113305970Y-90890671D01*
X113295480Y-90912849D01*
X113282867Y-90933893D01*
X113268253Y-90953598D01*
X113251777Y-90971777D01*
X113233598Y-90988253D01*
X113213893Y-91002867D01*
X113192849Y-91015480D01*
X113170671Y-91025970D01*
X113147571Y-91034235D01*
X113123773Y-91040196D01*
X113099504Y-91043796D01*
X113075000Y-91045000D01*
X112150000Y-91045000D01*
X112125496Y-91043796D01*
X112101227Y-91040196D01*
X112077429Y-91034235D01*
X112054329Y-91025970D01*
X112032151Y-91015480D01*
X112011107Y-91002867D01*
X111991402Y-90988253D01*
X111973223Y-90971777D01*
X111956747Y-90953598D01*
X111942133Y-90933893D01*
X111929520Y-90912849D01*
X111919030Y-90890671D01*
X111910765Y-90867571D01*
X111904804Y-90843773D01*
X111901204Y-90819504D01*
X111900000Y-90795000D01*
X111900000Y-89545000D01*
X111901204Y-89520496D01*
X111904804Y-89496227D01*
X111910765Y-89472429D01*
X111919030Y-89449329D01*
X111929520Y-89427151D01*
X111942133Y-89406107D01*
X111956747Y-89386402D01*
X111973223Y-89368223D01*
X111991402Y-89351747D01*
X112011107Y-89337133D01*
X112032151Y-89324520D01*
X112054329Y-89314030D01*
X112077429Y-89305765D01*
X112101227Y-89299804D01*
X112125496Y-89296204D01*
X112150000Y-89295000D01*
X113075000Y-89295000D01*
X113099504Y-89296204D01*
X113099504Y-89296204D01*
G37*
D17*
G04 #@! TD*
G04 #@! TO.P,D_NEG4,2*
G04 #@! TO.N,GND*
X112612500Y-90170000D03*
D14*
G04 #@! TO.N,Net-(D_POS4-Pad2)*
G04 #@! TO.C,D_POS4*
G36*
X188474004Y-89423204D02*
X188498273Y-89426804D01*
X188522071Y-89432765D01*
X188545171Y-89441030D01*
X188567349Y-89451520D01*
X188588393Y-89464133D01*
X188608098Y-89478747D01*
X188626277Y-89495223D01*
X188642753Y-89513402D01*
X188657367Y-89533107D01*
X188669980Y-89554151D01*
X188680470Y-89576329D01*
X188688735Y-89599429D01*
X188694696Y-89623227D01*
X188698296Y-89647496D01*
X188699500Y-89672000D01*
X188699500Y-90922000D01*
X188698296Y-90946504D01*
X188694696Y-90970773D01*
X188688735Y-90994571D01*
X188680470Y-91017671D01*
X188669980Y-91039849D01*
X188657367Y-91060893D01*
X188642753Y-91080598D01*
X188626277Y-91098777D01*
X188608098Y-91115253D01*
X188588393Y-91129867D01*
X188567349Y-91142480D01*
X188545171Y-91152970D01*
X188522071Y-91161235D01*
X188498273Y-91167196D01*
X188474004Y-91170796D01*
X188449500Y-91172000D01*
X187524500Y-91172000D01*
X187499996Y-91170796D01*
X187475727Y-91167196D01*
X187451929Y-91161235D01*
X187428829Y-91152970D01*
X187406651Y-91142480D01*
X187385607Y-91129867D01*
X187365902Y-91115253D01*
X187347723Y-91098777D01*
X187331247Y-91080598D01*
X187316633Y-91060893D01*
X187304020Y-91039849D01*
X187293530Y-91017671D01*
X187285265Y-90994571D01*
X187279304Y-90970773D01*
X187275704Y-90946504D01*
X187274500Y-90922000D01*
X187274500Y-89672000D01*
X187275704Y-89647496D01*
X187279304Y-89623227D01*
X187285265Y-89599429D01*
X187293530Y-89576329D01*
X187304020Y-89554151D01*
X187316633Y-89533107D01*
X187331247Y-89513402D01*
X187347723Y-89495223D01*
X187365902Y-89478747D01*
X187385607Y-89464133D01*
X187406651Y-89451520D01*
X187428829Y-89441030D01*
X187451929Y-89432765D01*
X187475727Y-89426804D01*
X187499996Y-89423204D01*
X187524500Y-89422000D01*
X188449500Y-89422000D01*
X188474004Y-89423204D01*
X188474004Y-89423204D01*
G37*
D17*
G04 #@! TD*
G04 #@! TO.P,D_POS4,2*
G04 #@! TO.N,Net-(D_POS4-Pad2)*
X187987000Y-90297000D03*
D14*
G04 #@! TO.N,GND*
G04 #@! TO.C,D_POS4*
G36*
X185499004Y-89423204D02*
X185523273Y-89426804D01*
X185547071Y-89432765D01*
X185570171Y-89441030D01*
X185592349Y-89451520D01*
X185613393Y-89464133D01*
X185633098Y-89478747D01*
X185651277Y-89495223D01*
X185667753Y-89513402D01*
X185682367Y-89533107D01*
X185694980Y-89554151D01*
X185705470Y-89576329D01*
X185713735Y-89599429D01*
X185719696Y-89623227D01*
X185723296Y-89647496D01*
X185724500Y-89672000D01*
X185724500Y-90922000D01*
X185723296Y-90946504D01*
X185719696Y-90970773D01*
X185713735Y-90994571D01*
X185705470Y-91017671D01*
X185694980Y-91039849D01*
X185682367Y-91060893D01*
X185667753Y-91080598D01*
X185651277Y-91098777D01*
X185633098Y-91115253D01*
X185613393Y-91129867D01*
X185592349Y-91142480D01*
X185570171Y-91152970D01*
X185547071Y-91161235D01*
X185523273Y-91167196D01*
X185499004Y-91170796D01*
X185474500Y-91172000D01*
X184549500Y-91172000D01*
X184524996Y-91170796D01*
X184500727Y-91167196D01*
X184476929Y-91161235D01*
X184453829Y-91152970D01*
X184431651Y-91142480D01*
X184410607Y-91129867D01*
X184390902Y-91115253D01*
X184372723Y-91098777D01*
X184356247Y-91080598D01*
X184341633Y-91060893D01*
X184329020Y-91039849D01*
X184318530Y-91017671D01*
X184310265Y-90994571D01*
X184304304Y-90970773D01*
X184300704Y-90946504D01*
X184299500Y-90922000D01*
X184299500Y-89672000D01*
X184300704Y-89647496D01*
X184304304Y-89623227D01*
X184310265Y-89599429D01*
X184318530Y-89576329D01*
X184329020Y-89554151D01*
X184341633Y-89533107D01*
X184356247Y-89513402D01*
X184372723Y-89495223D01*
X184390902Y-89478747D01*
X184410607Y-89464133D01*
X184431651Y-89451520D01*
X184453829Y-89441030D01*
X184476929Y-89432765D01*
X184500727Y-89426804D01*
X184524996Y-89423204D01*
X184549500Y-89422000D01*
X185474500Y-89422000D01*
X185499004Y-89423204D01*
X185499004Y-89423204D01*
G37*
D17*
G04 #@! TD*
G04 #@! TO.P,D_POS4,1*
G04 #@! TO.N,GND*
X185012000Y-90297000D03*
D14*
G04 #@! TO.N,/12VDC_NEG_REG*
G04 #@! TO.C,R_NEG1*
G36*
X102575505Y-89471204D02*
X102599773Y-89474804D01*
X102623572Y-89480765D01*
X102646671Y-89489030D01*
X102668850Y-89499520D01*
X102689893Y-89512132D01*
X102709599Y-89526747D01*
X102727777Y-89543223D01*
X102744253Y-89561401D01*
X102758868Y-89581107D01*
X102771480Y-89602150D01*
X102781970Y-89624329D01*
X102790235Y-89647428D01*
X102796196Y-89671227D01*
X102799796Y-89695495D01*
X102801000Y-89719999D01*
X102801000Y-90620001D01*
X102799796Y-90644505D01*
X102796196Y-90668773D01*
X102790235Y-90692572D01*
X102781970Y-90715671D01*
X102771480Y-90737850D01*
X102758868Y-90758893D01*
X102744253Y-90778599D01*
X102727777Y-90796777D01*
X102709599Y-90813253D01*
X102689893Y-90827868D01*
X102668850Y-90840480D01*
X102646671Y-90850970D01*
X102623572Y-90859235D01*
X102599773Y-90865196D01*
X102575505Y-90868796D01*
X102551001Y-90870000D01*
X101900999Y-90870000D01*
X101876495Y-90868796D01*
X101852227Y-90865196D01*
X101828428Y-90859235D01*
X101805329Y-90850970D01*
X101783150Y-90840480D01*
X101762107Y-90827868D01*
X101742401Y-90813253D01*
X101724223Y-90796777D01*
X101707747Y-90778599D01*
X101693132Y-90758893D01*
X101680520Y-90737850D01*
X101670030Y-90715671D01*
X101661765Y-90692572D01*
X101655804Y-90668773D01*
X101652204Y-90644505D01*
X101651000Y-90620001D01*
X101651000Y-89719999D01*
X101652204Y-89695495D01*
X101655804Y-89671227D01*
X101661765Y-89647428D01*
X101670030Y-89624329D01*
X101680520Y-89602150D01*
X101693132Y-89581107D01*
X101707747Y-89561401D01*
X101724223Y-89543223D01*
X101742401Y-89526747D01*
X101762107Y-89512132D01*
X101783150Y-89499520D01*
X101805329Y-89489030D01*
X101828428Y-89480765D01*
X101852227Y-89474804D01*
X101876495Y-89471204D01*
X101900999Y-89470000D01*
X102551001Y-89470000D01*
X102575505Y-89471204D01*
X102575505Y-89471204D01*
G37*
D15*
G04 #@! TD*
G04 #@! TO.P,R_NEG1,1*
G04 #@! TO.N,/12VDC_NEG_REG*
X102226000Y-90170000D03*
D14*
G04 #@! TO.N,Net-(D_NEG4-Pad1)*
G04 #@! TO.C,R_NEG1*
G36*
X104625505Y-89471204D02*
X104649773Y-89474804D01*
X104673572Y-89480765D01*
X104696671Y-89489030D01*
X104718850Y-89499520D01*
X104739893Y-89512132D01*
X104759599Y-89526747D01*
X104777777Y-89543223D01*
X104794253Y-89561401D01*
X104808868Y-89581107D01*
X104821480Y-89602150D01*
X104831970Y-89624329D01*
X104840235Y-89647428D01*
X104846196Y-89671227D01*
X104849796Y-89695495D01*
X104851000Y-89719999D01*
X104851000Y-90620001D01*
X104849796Y-90644505D01*
X104846196Y-90668773D01*
X104840235Y-90692572D01*
X104831970Y-90715671D01*
X104821480Y-90737850D01*
X104808868Y-90758893D01*
X104794253Y-90778599D01*
X104777777Y-90796777D01*
X104759599Y-90813253D01*
X104739893Y-90827868D01*
X104718850Y-90840480D01*
X104696671Y-90850970D01*
X104673572Y-90859235D01*
X104649773Y-90865196D01*
X104625505Y-90868796D01*
X104601001Y-90870000D01*
X103950999Y-90870000D01*
X103926495Y-90868796D01*
X103902227Y-90865196D01*
X103878428Y-90859235D01*
X103855329Y-90850970D01*
X103833150Y-90840480D01*
X103812107Y-90827868D01*
X103792401Y-90813253D01*
X103774223Y-90796777D01*
X103757747Y-90778599D01*
X103743132Y-90758893D01*
X103730520Y-90737850D01*
X103720030Y-90715671D01*
X103711765Y-90692572D01*
X103705804Y-90668773D01*
X103702204Y-90644505D01*
X103701000Y-90620001D01*
X103701000Y-89719999D01*
X103702204Y-89695495D01*
X103705804Y-89671227D01*
X103711765Y-89647428D01*
X103720030Y-89624329D01*
X103730520Y-89602150D01*
X103743132Y-89581107D01*
X103757747Y-89561401D01*
X103774223Y-89543223D01*
X103792401Y-89526747D01*
X103812107Y-89512132D01*
X103833150Y-89499520D01*
X103855329Y-89489030D01*
X103878428Y-89480765D01*
X103902227Y-89474804D01*
X103926495Y-89471204D01*
X103950999Y-89470000D01*
X104601001Y-89470000D01*
X104625505Y-89471204D01*
X104625505Y-89471204D01*
G37*
D15*
G04 #@! TD*
G04 #@! TO.P,R_NEG1,2*
G04 #@! TO.N,Net-(D_NEG4-Pad1)*
X104276000Y-90170000D03*
D14*
G04 #@! TO.N,Net-(D_POS4-Pad2)*
G04 #@! TO.C,R_POS1*
G36*
X193253505Y-89598204D02*
X193277773Y-89601804D01*
X193301572Y-89607765D01*
X193324671Y-89616030D01*
X193346850Y-89626520D01*
X193367893Y-89639132D01*
X193387599Y-89653747D01*
X193405777Y-89670223D01*
X193422253Y-89688401D01*
X193436868Y-89708107D01*
X193449480Y-89729150D01*
X193459970Y-89751329D01*
X193468235Y-89774428D01*
X193474196Y-89798227D01*
X193477796Y-89822495D01*
X193479000Y-89846999D01*
X193479000Y-90747001D01*
X193477796Y-90771505D01*
X193474196Y-90795773D01*
X193468235Y-90819572D01*
X193459970Y-90842671D01*
X193449480Y-90864850D01*
X193436868Y-90885893D01*
X193422253Y-90905599D01*
X193405777Y-90923777D01*
X193387599Y-90940253D01*
X193367893Y-90954868D01*
X193346850Y-90967480D01*
X193324671Y-90977970D01*
X193301572Y-90986235D01*
X193277773Y-90992196D01*
X193253505Y-90995796D01*
X193229001Y-90997000D01*
X192578999Y-90997000D01*
X192554495Y-90995796D01*
X192530227Y-90992196D01*
X192506428Y-90986235D01*
X192483329Y-90977970D01*
X192461150Y-90967480D01*
X192440107Y-90954868D01*
X192420401Y-90940253D01*
X192402223Y-90923777D01*
X192385747Y-90905599D01*
X192371132Y-90885893D01*
X192358520Y-90864850D01*
X192348030Y-90842671D01*
X192339765Y-90819572D01*
X192333804Y-90795773D01*
X192330204Y-90771505D01*
X192329000Y-90747001D01*
X192329000Y-89846999D01*
X192330204Y-89822495D01*
X192333804Y-89798227D01*
X192339765Y-89774428D01*
X192348030Y-89751329D01*
X192358520Y-89729150D01*
X192371132Y-89708107D01*
X192385747Y-89688401D01*
X192402223Y-89670223D01*
X192420401Y-89653747D01*
X192440107Y-89639132D01*
X192461150Y-89626520D01*
X192483329Y-89616030D01*
X192506428Y-89607765D01*
X192530227Y-89601804D01*
X192554495Y-89598204D01*
X192578999Y-89597000D01*
X193229001Y-89597000D01*
X193253505Y-89598204D01*
X193253505Y-89598204D01*
G37*
D15*
G04 #@! TD*
G04 #@! TO.P,R_POS1,2*
G04 #@! TO.N,Net-(D_POS4-Pad2)*
X192904000Y-90297000D03*
D14*
G04 #@! TO.N,/12VDC_POS_REG*
G04 #@! TO.C,R_POS1*
G36*
X195303505Y-89598204D02*
X195327773Y-89601804D01*
X195351572Y-89607765D01*
X195374671Y-89616030D01*
X195396850Y-89626520D01*
X195417893Y-89639132D01*
X195437599Y-89653747D01*
X195455777Y-89670223D01*
X195472253Y-89688401D01*
X195486868Y-89708107D01*
X195499480Y-89729150D01*
X195509970Y-89751329D01*
X195518235Y-89774428D01*
X195524196Y-89798227D01*
X195527796Y-89822495D01*
X195529000Y-89846999D01*
X195529000Y-90747001D01*
X195527796Y-90771505D01*
X195524196Y-90795773D01*
X195518235Y-90819572D01*
X195509970Y-90842671D01*
X195499480Y-90864850D01*
X195486868Y-90885893D01*
X195472253Y-90905599D01*
X195455777Y-90923777D01*
X195437599Y-90940253D01*
X195417893Y-90954868D01*
X195396850Y-90967480D01*
X195374671Y-90977970D01*
X195351572Y-90986235D01*
X195327773Y-90992196D01*
X195303505Y-90995796D01*
X195279001Y-90997000D01*
X194628999Y-90997000D01*
X194604495Y-90995796D01*
X194580227Y-90992196D01*
X194556428Y-90986235D01*
X194533329Y-90977970D01*
X194511150Y-90967480D01*
X194490107Y-90954868D01*
X194470401Y-90940253D01*
X194452223Y-90923777D01*
X194435747Y-90905599D01*
X194421132Y-90885893D01*
X194408520Y-90864850D01*
X194398030Y-90842671D01*
X194389765Y-90819572D01*
X194383804Y-90795773D01*
X194380204Y-90771505D01*
X194379000Y-90747001D01*
X194379000Y-89846999D01*
X194380204Y-89822495D01*
X194383804Y-89798227D01*
X194389765Y-89774428D01*
X194398030Y-89751329D01*
X194408520Y-89729150D01*
X194421132Y-89708107D01*
X194435747Y-89688401D01*
X194452223Y-89670223D01*
X194470401Y-89653747D01*
X194490107Y-89639132D01*
X194511150Y-89626520D01*
X194533329Y-89616030D01*
X194556428Y-89607765D01*
X194580227Y-89601804D01*
X194604495Y-89598204D01*
X194628999Y-89597000D01*
X195279001Y-89597000D01*
X195303505Y-89598204D01*
X195303505Y-89598204D01*
G37*
D15*
G04 #@! TD*
G04 #@! TO.P,R_POS1,1*
G04 #@! TO.N,/12VDC_POS_REG*
X194954000Y-90297000D03*
D18*
G04 #@! TO.P,D_NEG1,2*
G04 #@! TO.N,/DC_NEG_IN*
X130556000Y-79970000D03*
G04 #@! TO.P,D_NEG1,1*
G04 #@! TO.N,/AC_IN*
X130556000Y-74970000D03*
G04 #@! TD*
G04 #@! TO.P,D_NEG2,1*
G04 #@! TO.N,/12VDC_NEG_REG*
X123291600Y-79970000D03*
G04 #@! TO.P,D_NEG2,2*
G04 #@! TO.N,/DC_NEG_IN*
X123291600Y-74970000D03*
G04 #@! TD*
G04 #@! TO.P,D_NEG3,1*
G04 #@! TO.N,GND*
X116078000Y-74970000D03*
G04 #@! TO.P,D_NEG3,2*
G04 #@! TO.N,/12VDC_NEG_REG*
X116078000Y-79970000D03*
G04 #@! TD*
G04 #@! TO.P,D_POS1,1*
G04 #@! TO.N,/DC_POS_IN*
X165557200Y-79335000D03*
G04 #@! TO.P,D_POS1,2*
G04 #@! TO.N,/AC_IN*
X165557200Y-74335000D03*
G04 #@! TD*
G04 #@! TO.P,D_POS2,2*
G04 #@! TO.N,/12VDC_POS_REG*
X173075600Y-79258800D03*
G04 #@! TO.P,D_POS2,1*
G04 #@! TO.N,/DC_POS_IN*
X173075600Y-74258800D03*
G04 #@! TD*
G04 #@! TO.P,D_POS3,2*
G04 #@! TO.N,GND*
X179578000Y-74208000D03*
G04 #@! TO.P,D_POS3,1*
G04 #@! TO.N,/12VDC_POS_REG*
X179578000Y-79208000D03*
G04 #@! TD*
D19*
G04 #@! TO.P,C_NEG6,2*
G04 #@! TO.N,/12VDC_NEG_REG*
X105410000Y-81820000D03*
G04 #@! TO.P,C_NEG6,1*
G04 #@! TO.N,GND*
X105410000Y-73120000D03*
G04 #@! TD*
G04 #@! TO.P,C_POS6,1*
G04 #@! TO.N,/12VDC_POS_REG*
X191008000Y-81185000D03*
G04 #@! TO.P,C_POS6,2*
G04 #@! TO.N,GND*
X191008000Y-72485000D03*
G04 #@! TD*
D20*
G04 #@! TO.N,GND*
X117856000Y-88773000D03*
X191008000Y-68376800D03*
X179578000Y-71755000D03*
X179324000Y-88963500D03*
X105410000Y-68580000D03*
X115570000Y-98086000D03*
X137795000Y-98086000D03*
X108839000Y-146431000D03*
X131464000Y-146704000D03*
X160020000Y-98086000D03*
X181610000Y-98086000D03*
X188068000Y-146704000D03*
X167113000Y-146704000D03*
G04 #@! TO.N,/12VDC_NEG_REG*
X102226000Y-92066000D03*
X126390400Y-80314800D03*
G04 #@! TO.N,/12VDC_POS_REG*
X194945000Y-92265500D03*
X180467000Y-83565998D03*
G04 #@! TD*
D21*
G04 #@! TO.N,GND*
X112612500Y-90170000D02*
X114935000Y-90170000D01*
X116268500Y-90170000D02*
X114545000Y-90170000D01*
X179324000Y-89529185D02*
X179324000Y-90297000D01*
X179324000Y-88963500D02*
X179324000Y-89529185D01*
X184721500Y-90297000D02*
X177165000Y-90297000D01*
X115570000Y-103486000D02*
X115570000Y-98086000D01*
X137795000Y-103486000D02*
X137795000Y-98086000D01*
X109770000Y-146450000D02*
X109751000Y-146431000D01*
X115570000Y-146450000D02*
X109770000Y-146450000D01*
X109751000Y-146431000D02*
X108839000Y-146431000D01*
X137795000Y-146704000D02*
X131464000Y-146704000D01*
X160020000Y-103486000D02*
X160020000Y-98086000D01*
X181610000Y-103486000D02*
X181610000Y-98086000D01*
X181610000Y-146704000D02*
X188068000Y-146704000D01*
X160020000Y-146704000D02*
X167113000Y-146704000D01*
X177165000Y-90297000D02*
X174135000Y-90297000D01*
X117856000Y-90170000D02*
X117856000Y-88773000D01*
X123308000Y-90170000D02*
X117856000Y-90170000D01*
X117856000Y-90170000D02*
X116268500Y-90170000D01*
X112395000Y-70231000D02*
X112395000Y-66294000D01*
X112395000Y-70696000D02*
X112395000Y-70231000D01*
X116078000Y-75184000D02*
X112395000Y-70696000D01*
X179578000Y-71755000D02*
X179578000Y-74208000D01*
X191008000Y-72485000D02*
X191008000Y-69285000D01*
X191008000Y-69285000D02*
X191008000Y-68376800D01*
X105410000Y-68580000D02*
X105410000Y-73120000D01*
G04 #@! TO.N,/DC_NEG_IN*
X115570000Y-118510000D02*
X115570000Y-132950000D01*
X137541000Y-132950000D02*
X137795000Y-133204000D01*
X137795000Y-127804000D02*
X137795000Y-118510000D01*
X137795000Y-133204000D02*
X137795000Y-127804000D01*
X126033000Y-90170000D02*
X130556000Y-90170000D01*
X125358000Y-90170000D02*
X126033000Y-90170000D01*
X130556000Y-80137000D02*
X130556000Y-90170000D01*
X115970000Y-118510000D02*
X115570000Y-118510000D01*
X115989000Y-118491000D02*
X115970000Y-118510000D01*
X125222000Y-118491000D02*
X115989000Y-118491000D01*
X130556000Y-90170000D02*
X130556000Y-94704000D01*
X125330000Y-118383000D02*
X125222000Y-118491000D01*
X125330000Y-99930000D02*
X125330000Y-118383000D01*
X130556000Y-94704000D02*
X125330000Y-99930000D01*
X125457000Y-118510000D02*
X137795000Y-118510000D01*
X125330000Y-118383000D02*
X125457000Y-118510000D01*
X125120400Y-74930000D02*
X123489000Y-74930000D01*
X132329000Y-79970000D02*
X130160400Y-79970000D01*
X130160400Y-79970000D02*
X125120400Y-74930000D01*
X142240000Y-70059000D02*
X132329000Y-79970000D01*
X142240000Y-67310000D02*
X142240000Y-70059000D01*
G04 #@! TO.N,/12VDC_NEG_REG*
X144145000Y-95250000D02*
X153670000Y-95250000D01*
X144780000Y-72390000D02*
X144780000Y-67310000D01*
X138430000Y-78740000D02*
X144780000Y-72390000D01*
X139700000Y-90170000D02*
X138430000Y-88900000D01*
X138430000Y-88900000D02*
X138430000Y-78740000D01*
X141732000Y-90170000D02*
X139700000Y-90170000D01*
X102226000Y-86360000D02*
X102226000Y-90097500D01*
X102226000Y-90170000D02*
X102226000Y-92066000D01*
X153670000Y-91372081D02*
X153670000Y-95250000D01*
X153670000Y-90170000D02*
X153670000Y-91372081D01*
X144272000Y-95123000D02*
X144145000Y-95250000D01*
X144272000Y-90170000D02*
X144272000Y-95123000D01*
X141732000Y-95250000D02*
X144145000Y-95250000D01*
X141732000Y-90170000D02*
X141732000Y-95250000D01*
X156210000Y-95250000D02*
X156210000Y-90170000D01*
X153670000Y-95250000D02*
X156210000Y-95250000D01*
X102235000Y-85166200D02*
X102235000Y-86115000D01*
X107086400Y-80314800D02*
X102235000Y-85166200D01*
X126390400Y-80314800D02*
X107086400Y-80314800D01*
G04 #@! TO.N,/DC_POS_IN*
X171850000Y-118510000D02*
X181610000Y-118510000D01*
X171831000Y-118491000D02*
X171850000Y-118510000D01*
X171831000Y-91106000D02*
X171831000Y-118491000D01*
X171822000Y-91097000D02*
X171831000Y-91106000D01*
X171822000Y-90297000D02*
X171822000Y-91097000D01*
X171812000Y-118510000D02*
X160020000Y-118510000D01*
X171831000Y-118491000D02*
X171812000Y-118510000D01*
X160020000Y-123910000D02*
X160020000Y-133204000D01*
X160020000Y-118510000D02*
X160020000Y-123910000D01*
X181610000Y-118510000D02*
X181610000Y-133204000D01*
X170205400Y-79375000D02*
X170332400Y-79248000D01*
X164211000Y-79375000D02*
X170205400Y-79375000D01*
X158115000Y-73279000D02*
X164211000Y-79375000D01*
X158115000Y-67310000D02*
X158115000Y-73279000D01*
X171856400Y-74422000D02*
X172669200Y-74422000D01*
X170332400Y-75946000D02*
X171856400Y-74422000D01*
X170332400Y-88950800D02*
X170332400Y-75946000D01*
X171678600Y-90297000D02*
X170332400Y-88950800D01*
X171958000Y-90297000D02*
X171678600Y-90297000D01*
G04 #@! TO.N,/12VDC_POS_REG*
X141732000Y-78160000D02*
X142422000Y-77470000D01*
X141732000Y-80010000D02*
X141732000Y-78160000D01*
X155575000Y-67310000D02*
X155575000Y-77470000D01*
X194945000Y-87004000D02*
X194945000Y-92265500D01*
X194954000Y-86995000D02*
X194945000Y-87004000D01*
X156210000Y-78105000D02*
X155575000Y-77470000D01*
X156210000Y-80010000D02*
X156210000Y-78105000D01*
X182753002Y-83565998D02*
X181032685Y-83565998D01*
X181032685Y-83565998D02*
X180467000Y-83565998D01*
X182880000Y-83439000D02*
X182753002Y-83565998D01*
X144272000Y-80010000D02*
X144272000Y-77470000D01*
X142422000Y-77470000D02*
X144272000Y-77470000D01*
X153670000Y-78160000D02*
X153670000Y-77470000D01*
X153670000Y-80010000D02*
X153670000Y-78160000D01*
X153670000Y-77470000D02*
X155575000Y-77470000D01*
X144272000Y-77470000D02*
X153670000Y-77470000D01*
X182981600Y-79502000D02*
X183007000Y-83439000D01*
X194945000Y-85471000D02*
X194945000Y-86868000D01*
X188925200Y-79451200D02*
X194945000Y-85471000D01*
X188874400Y-79451200D02*
X188925200Y-79451200D01*
X188863600Y-79462000D02*
X188874400Y-79451200D01*
X172963200Y-79462000D02*
X188863600Y-79462000D01*
X172872400Y-79552800D02*
X172963200Y-79462000D01*
G04 #@! TO.N,/AC_IN*
X125095000Y-63500000D02*
X125984000Y-63500000D01*
X117348000Y-63500000D02*
X125984000Y-63500000D01*
X114935000Y-65913000D02*
X117348000Y-63500000D01*
X114935000Y-66294000D02*
X114935000Y-65913000D01*
X130429000Y-72220000D02*
X130429000Y-63500000D01*
X130429000Y-74970000D02*
X130429000Y-72220000D01*
X125984000Y-63500000D02*
X130429000Y-63500000D01*
X165455600Y-65887600D02*
X165404800Y-65938400D01*
X163017200Y-63500000D02*
X165557200Y-66040000D01*
X165557200Y-66040000D02*
X165557200Y-74726800D01*
X130429000Y-63500000D02*
X163017200Y-63500000D01*
G04 #@! TO.N,Net-(D_NEG4-Pad1)*
X104530000Y-90170000D02*
X109637500Y-90170000D01*
G04 #@! TO.N,Net-(D_POS4-Pad2)*
X192659000Y-90297000D02*
X188087000Y-90297000D01*
G04 #@! TD*
M02*
