M48
;DRILL file {KiCad (5.0.0-3-g5ebb6b6)} date Wednesday, 06 February 2019 at 10:52:10
;FORMAT={-:-/ absolute / metric / decimal}
FMAT,2
METRIC,TZ
T1C0.400
T2C1.000
T3C1.200
%
G90
G05
M71
T1
X102.226Y-92.066
X105.41Y-68.58
X108.839Y-146.431
X115.57Y-98.086
X117.856Y-88.773
X126.39Y-80.315
X131.464Y-146.704
X137.795Y-98.086
X160.02Y-98.086
X167.113Y-146.704
X179.324Y-88.963
X179.578Y-71.755
X180.467Y-83.566
X181.61Y-98.086
X188.068Y-146.704
X191.008Y-68.377
X194.945Y-92.265
T2
X153.67Y-80.01
X153.67Y-82.55
X153.67Y-85.09
X153.67Y-87.63
X153.67Y-90.17
X156.21Y-80.01
X156.21Y-82.55
X156.21Y-85.09
X156.21Y-87.63
X156.21Y-90.17
X141.732Y-80.01
X141.732Y-82.55
X141.732Y-85.09
X141.732Y-87.63
X141.732Y-90.17
X144.272Y-80.01
X144.272Y-82.55
X144.272Y-85.09
X144.272Y-87.63
X144.272Y-90.17
X112.395Y-66.294
X114.935Y-66.294
T3
X139.7Y-67.31
X142.24Y-67.31
X144.78Y-67.31
X153.035Y-67.31
X155.575Y-67.31
X158.115Y-67.31
T0
M30
