G04 #@! TF.GenerationSoftware,KiCad,Pcbnew,(5.0.0-3-g5ebb6b6)*
G04 #@! TF.CreationDate,2019-02-06T10:52:08+00:00*
G04 #@! TF.ProjectId,AdjustablePSU,41646A75737461626C655053552E6B69,rev?*
G04 #@! TF.SameCoordinates,Original*
G04 #@! TF.FileFunction,Paste,Bot*
G04 #@! TF.FilePolarity,Positive*
%FSLAX46Y46*%
G04 Gerber Fmt 4.6, Leading zero omitted, Abs format (unit mm)*
G04 Created by KiCad (PCBNEW (5.0.0-3-g5ebb6b6)) date Wednesday, 06 February 2019 at 10:52:08*
%MOMM*%
%LPD*%
G01*
G04 APERTURE LIST*
%ADD10C,0.100000*%
%ADD11C,1.150000*%
G04 APERTURE END LIST*
D10*
G04 #@! TO.C,R_NEGREG1*
G36*
X104617798Y-93949204D02*
X104642066Y-93952804D01*
X104665865Y-93958765D01*
X104688964Y-93967030D01*
X104711143Y-93977520D01*
X104732186Y-93990132D01*
X104751892Y-94004747D01*
X104770070Y-94021223D01*
X104786546Y-94039401D01*
X104801161Y-94059107D01*
X104813773Y-94080150D01*
X104824263Y-94102329D01*
X104832528Y-94125428D01*
X104838489Y-94149227D01*
X104842089Y-94173495D01*
X104843293Y-94197999D01*
X104843293Y-95098001D01*
X104842089Y-95122505D01*
X104838489Y-95146773D01*
X104832528Y-95170572D01*
X104824263Y-95193671D01*
X104813773Y-95215850D01*
X104801161Y-95236893D01*
X104786546Y-95256599D01*
X104770070Y-95274777D01*
X104751892Y-95291253D01*
X104732186Y-95305868D01*
X104711143Y-95318480D01*
X104688964Y-95328970D01*
X104665865Y-95337235D01*
X104642066Y-95343196D01*
X104617798Y-95346796D01*
X104593294Y-95348000D01*
X103943292Y-95348000D01*
X103918788Y-95346796D01*
X103894520Y-95343196D01*
X103870721Y-95337235D01*
X103847622Y-95328970D01*
X103825443Y-95318480D01*
X103804400Y-95305868D01*
X103784694Y-95291253D01*
X103766516Y-95274777D01*
X103750040Y-95256599D01*
X103735425Y-95236893D01*
X103722813Y-95215850D01*
X103712323Y-95193671D01*
X103704058Y-95170572D01*
X103698097Y-95146773D01*
X103694497Y-95122505D01*
X103693293Y-95098001D01*
X103693293Y-94197999D01*
X103694497Y-94173495D01*
X103698097Y-94149227D01*
X103704058Y-94125428D01*
X103712323Y-94102329D01*
X103722813Y-94080150D01*
X103735425Y-94059107D01*
X103750040Y-94039401D01*
X103766516Y-94021223D01*
X103784694Y-94004747D01*
X103804400Y-93990132D01*
X103825443Y-93977520D01*
X103847622Y-93967030D01*
X103870721Y-93958765D01*
X103894520Y-93952804D01*
X103918788Y-93949204D01*
X103943292Y-93948000D01*
X104593294Y-93948000D01*
X104617798Y-93949204D01*
X104617798Y-93949204D01*
G37*
D11*
X104268293Y-94648000D03*
D10*
G36*
X102567798Y-93949204D02*
X102592066Y-93952804D01*
X102615865Y-93958765D01*
X102638964Y-93967030D01*
X102661143Y-93977520D01*
X102682186Y-93990132D01*
X102701892Y-94004747D01*
X102720070Y-94021223D01*
X102736546Y-94039401D01*
X102751161Y-94059107D01*
X102763773Y-94080150D01*
X102774263Y-94102329D01*
X102782528Y-94125428D01*
X102788489Y-94149227D01*
X102792089Y-94173495D01*
X102793293Y-94197999D01*
X102793293Y-95098001D01*
X102792089Y-95122505D01*
X102788489Y-95146773D01*
X102782528Y-95170572D01*
X102774263Y-95193671D01*
X102763773Y-95215850D01*
X102751161Y-95236893D01*
X102736546Y-95256599D01*
X102720070Y-95274777D01*
X102701892Y-95291253D01*
X102682186Y-95305868D01*
X102661143Y-95318480D01*
X102638964Y-95328970D01*
X102615865Y-95337235D01*
X102592066Y-95343196D01*
X102567798Y-95346796D01*
X102543294Y-95348000D01*
X101893292Y-95348000D01*
X101868788Y-95346796D01*
X101844520Y-95343196D01*
X101820721Y-95337235D01*
X101797622Y-95328970D01*
X101775443Y-95318480D01*
X101754400Y-95305868D01*
X101734694Y-95291253D01*
X101716516Y-95274777D01*
X101700040Y-95256599D01*
X101685425Y-95236893D01*
X101672813Y-95215850D01*
X101662323Y-95193671D01*
X101654058Y-95170572D01*
X101648097Y-95146773D01*
X101644497Y-95122505D01*
X101643293Y-95098001D01*
X101643293Y-94197999D01*
X101644497Y-94173495D01*
X101648097Y-94149227D01*
X101654058Y-94125428D01*
X101662323Y-94102329D01*
X101672813Y-94080150D01*
X101685425Y-94059107D01*
X101700040Y-94039401D01*
X101716516Y-94021223D01*
X101734694Y-94004747D01*
X101754400Y-93990132D01*
X101775443Y-93977520D01*
X101797622Y-93967030D01*
X101820721Y-93958765D01*
X101844520Y-93952804D01*
X101868788Y-93949204D01*
X101893292Y-93948000D01*
X102543294Y-93948000D01*
X102567798Y-93949204D01*
X102567798Y-93949204D01*
G37*
D11*
X102218293Y-94648000D03*
G04 #@! TD*
D10*
G04 #@! TO.C,R_NEGREG2*
G36*
X112473798Y-93949204D02*
X112498066Y-93952804D01*
X112521865Y-93958765D01*
X112544964Y-93967030D01*
X112567143Y-93977520D01*
X112588186Y-93990132D01*
X112607892Y-94004747D01*
X112626070Y-94021223D01*
X112642546Y-94039401D01*
X112657161Y-94059107D01*
X112669773Y-94080150D01*
X112680263Y-94102329D01*
X112688528Y-94125428D01*
X112694489Y-94149227D01*
X112698089Y-94173495D01*
X112699293Y-94197999D01*
X112699293Y-95098001D01*
X112698089Y-95122505D01*
X112694489Y-95146773D01*
X112688528Y-95170572D01*
X112680263Y-95193671D01*
X112669773Y-95215850D01*
X112657161Y-95236893D01*
X112642546Y-95256599D01*
X112626070Y-95274777D01*
X112607892Y-95291253D01*
X112588186Y-95305868D01*
X112567143Y-95318480D01*
X112544964Y-95328970D01*
X112521865Y-95337235D01*
X112498066Y-95343196D01*
X112473798Y-95346796D01*
X112449294Y-95348000D01*
X111799292Y-95348000D01*
X111774788Y-95346796D01*
X111750520Y-95343196D01*
X111726721Y-95337235D01*
X111703622Y-95328970D01*
X111681443Y-95318480D01*
X111660400Y-95305868D01*
X111640694Y-95291253D01*
X111622516Y-95274777D01*
X111606040Y-95256599D01*
X111591425Y-95236893D01*
X111578813Y-95215850D01*
X111568323Y-95193671D01*
X111560058Y-95170572D01*
X111554097Y-95146773D01*
X111550497Y-95122505D01*
X111549293Y-95098001D01*
X111549293Y-94197999D01*
X111550497Y-94173495D01*
X111554097Y-94149227D01*
X111560058Y-94125428D01*
X111568323Y-94102329D01*
X111578813Y-94080150D01*
X111591425Y-94059107D01*
X111606040Y-94039401D01*
X111622516Y-94021223D01*
X111640694Y-94004747D01*
X111660400Y-93990132D01*
X111681443Y-93977520D01*
X111703622Y-93967030D01*
X111726721Y-93958765D01*
X111750520Y-93952804D01*
X111774788Y-93949204D01*
X111799292Y-93948000D01*
X112449294Y-93948000D01*
X112473798Y-93949204D01*
X112473798Y-93949204D01*
G37*
D11*
X112124293Y-94648000D03*
D10*
G36*
X114523798Y-93949204D02*
X114548066Y-93952804D01*
X114571865Y-93958765D01*
X114594964Y-93967030D01*
X114617143Y-93977520D01*
X114638186Y-93990132D01*
X114657892Y-94004747D01*
X114676070Y-94021223D01*
X114692546Y-94039401D01*
X114707161Y-94059107D01*
X114719773Y-94080150D01*
X114730263Y-94102329D01*
X114738528Y-94125428D01*
X114744489Y-94149227D01*
X114748089Y-94173495D01*
X114749293Y-94197999D01*
X114749293Y-95098001D01*
X114748089Y-95122505D01*
X114744489Y-95146773D01*
X114738528Y-95170572D01*
X114730263Y-95193671D01*
X114719773Y-95215850D01*
X114707161Y-95236893D01*
X114692546Y-95256599D01*
X114676070Y-95274777D01*
X114657892Y-95291253D01*
X114638186Y-95305868D01*
X114617143Y-95318480D01*
X114594964Y-95328970D01*
X114571865Y-95337235D01*
X114548066Y-95343196D01*
X114523798Y-95346796D01*
X114499294Y-95348000D01*
X113849292Y-95348000D01*
X113824788Y-95346796D01*
X113800520Y-95343196D01*
X113776721Y-95337235D01*
X113753622Y-95328970D01*
X113731443Y-95318480D01*
X113710400Y-95305868D01*
X113690694Y-95291253D01*
X113672516Y-95274777D01*
X113656040Y-95256599D01*
X113641425Y-95236893D01*
X113628813Y-95215850D01*
X113618323Y-95193671D01*
X113610058Y-95170572D01*
X113604097Y-95146773D01*
X113600497Y-95122505D01*
X113599293Y-95098001D01*
X113599293Y-94197999D01*
X113600497Y-94173495D01*
X113604097Y-94149227D01*
X113610058Y-94125428D01*
X113618323Y-94102329D01*
X113628813Y-94080150D01*
X113641425Y-94059107D01*
X113656040Y-94039401D01*
X113672516Y-94021223D01*
X113690694Y-94004747D01*
X113710400Y-93990132D01*
X113731443Y-93977520D01*
X113753622Y-93967030D01*
X113776721Y-93958765D01*
X113800520Y-93952804D01*
X113824788Y-93949204D01*
X113849292Y-93948000D01*
X114499294Y-93948000D01*
X114523798Y-93949204D01*
X114523798Y-93949204D01*
G37*
D11*
X114174293Y-94648000D03*
G04 #@! TD*
D10*
G04 #@! TO.C,R_POSREG1*
G36*
X193253505Y-93599714D02*
X193277773Y-93603314D01*
X193301572Y-93609275D01*
X193324671Y-93617540D01*
X193346850Y-93628030D01*
X193367893Y-93640642D01*
X193387599Y-93655257D01*
X193405777Y-93671733D01*
X193422253Y-93689911D01*
X193436868Y-93709617D01*
X193449480Y-93730660D01*
X193459970Y-93752839D01*
X193468235Y-93775938D01*
X193474196Y-93799737D01*
X193477796Y-93824005D01*
X193479000Y-93848509D01*
X193479000Y-94748511D01*
X193477796Y-94773015D01*
X193474196Y-94797283D01*
X193468235Y-94821082D01*
X193459970Y-94844181D01*
X193449480Y-94866360D01*
X193436868Y-94887403D01*
X193422253Y-94907109D01*
X193405777Y-94925287D01*
X193387599Y-94941763D01*
X193367893Y-94956378D01*
X193346850Y-94968990D01*
X193324671Y-94979480D01*
X193301572Y-94987745D01*
X193277773Y-94993706D01*
X193253505Y-94997306D01*
X193229001Y-94998510D01*
X192578999Y-94998510D01*
X192554495Y-94997306D01*
X192530227Y-94993706D01*
X192506428Y-94987745D01*
X192483329Y-94979480D01*
X192461150Y-94968990D01*
X192440107Y-94956378D01*
X192420401Y-94941763D01*
X192402223Y-94925287D01*
X192385747Y-94907109D01*
X192371132Y-94887403D01*
X192358520Y-94866360D01*
X192348030Y-94844181D01*
X192339765Y-94821082D01*
X192333804Y-94797283D01*
X192330204Y-94773015D01*
X192329000Y-94748511D01*
X192329000Y-93848509D01*
X192330204Y-93824005D01*
X192333804Y-93799737D01*
X192339765Y-93775938D01*
X192348030Y-93752839D01*
X192358520Y-93730660D01*
X192371132Y-93709617D01*
X192385747Y-93689911D01*
X192402223Y-93671733D01*
X192420401Y-93655257D01*
X192440107Y-93640642D01*
X192461150Y-93628030D01*
X192483329Y-93617540D01*
X192506428Y-93609275D01*
X192530227Y-93603314D01*
X192554495Y-93599714D01*
X192578999Y-93598510D01*
X193229001Y-93598510D01*
X193253505Y-93599714D01*
X193253505Y-93599714D01*
G37*
D11*
X192904000Y-94298510D03*
D10*
G36*
X195303505Y-93599714D02*
X195327773Y-93603314D01*
X195351572Y-93609275D01*
X195374671Y-93617540D01*
X195396850Y-93628030D01*
X195417893Y-93640642D01*
X195437599Y-93655257D01*
X195455777Y-93671733D01*
X195472253Y-93689911D01*
X195486868Y-93709617D01*
X195499480Y-93730660D01*
X195509970Y-93752839D01*
X195518235Y-93775938D01*
X195524196Y-93799737D01*
X195527796Y-93824005D01*
X195529000Y-93848509D01*
X195529000Y-94748511D01*
X195527796Y-94773015D01*
X195524196Y-94797283D01*
X195518235Y-94821082D01*
X195509970Y-94844181D01*
X195499480Y-94866360D01*
X195486868Y-94887403D01*
X195472253Y-94907109D01*
X195455777Y-94925287D01*
X195437599Y-94941763D01*
X195417893Y-94956378D01*
X195396850Y-94968990D01*
X195374671Y-94979480D01*
X195351572Y-94987745D01*
X195327773Y-94993706D01*
X195303505Y-94997306D01*
X195279001Y-94998510D01*
X194628999Y-94998510D01*
X194604495Y-94997306D01*
X194580227Y-94993706D01*
X194556428Y-94987745D01*
X194533329Y-94979480D01*
X194511150Y-94968990D01*
X194490107Y-94956378D01*
X194470401Y-94941763D01*
X194452223Y-94925287D01*
X194435747Y-94907109D01*
X194421132Y-94887403D01*
X194408520Y-94866360D01*
X194398030Y-94844181D01*
X194389765Y-94821082D01*
X194383804Y-94797283D01*
X194380204Y-94773015D01*
X194379000Y-94748511D01*
X194379000Y-93848509D01*
X194380204Y-93824005D01*
X194383804Y-93799737D01*
X194389765Y-93775938D01*
X194398030Y-93752839D01*
X194408520Y-93730660D01*
X194421132Y-93709617D01*
X194435747Y-93689911D01*
X194452223Y-93671733D01*
X194470401Y-93655257D01*
X194490107Y-93640642D01*
X194511150Y-93628030D01*
X194533329Y-93617540D01*
X194556428Y-93609275D01*
X194580227Y-93603314D01*
X194604495Y-93599714D01*
X194628999Y-93598510D01*
X195279001Y-93598510D01*
X195303505Y-93599714D01*
X195303505Y-93599714D01*
G37*
D11*
X194954000Y-94298510D03*
G04 #@! TD*
D10*
G04 #@! TO.C,R_POSREG2*
G36*
X179047505Y-93599714D02*
X179071773Y-93603314D01*
X179095572Y-93609275D01*
X179118671Y-93617540D01*
X179140850Y-93628030D01*
X179161893Y-93640642D01*
X179181599Y-93655257D01*
X179199777Y-93671733D01*
X179216253Y-93689911D01*
X179230868Y-93709617D01*
X179243480Y-93730660D01*
X179253970Y-93752839D01*
X179262235Y-93775938D01*
X179268196Y-93799737D01*
X179271796Y-93824005D01*
X179273000Y-93848509D01*
X179273000Y-94748511D01*
X179271796Y-94773015D01*
X179268196Y-94797283D01*
X179262235Y-94821082D01*
X179253970Y-94844181D01*
X179243480Y-94866360D01*
X179230868Y-94887403D01*
X179216253Y-94907109D01*
X179199777Y-94925287D01*
X179181599Y-94941763D01*
X179161893Y-94956378D01*
X179140850Y-94968990D01*
X179118671Y-94979480D01*
X179095572Y-94987745D01*
X179071773Y-94993706D01*
X179047505Y-94997306D01*
X179023001Y-94998510D01*
X178372999Y-94998510D01*
X178348495Y-94997306D01*
X178324227Y-94993706D01*
X178300428Y-94987745D01*
X178277329Y-94979480D01*
X178255150Y-94968990D01*
X178234107Y-94956378D01*
X178214401Y-94941763D01*
X178196223Y-94925287D01*
X178179747Y-94907109D01*
X178165132Y-94887403D01*
X178152520Y-94866360D01*
X178142030Y-94844181D01*
X178133765Y-94821082D01*
X178127804Y-94797283D01*
X178124204Y-94773015D01*
X178123000Y-94748511D01*
X178123000Y-93848509D01*
X178124204Y-93824005D01*
X178127804Y-93799737D01*
X178133765Y-93775938D01*
X178142030Y-93752839D01*
X178152520Y-93730660D01*
X178165132Y-93709617D01*
X178179747Y-93689911D01*
X178196223Y-93671733D01*
X178214401Y-93655257D01*
X178234107Y-93640642D01*
X178255150Y-93628030D01*
X178277329Y-93617540D01*
X178300428Y-93609275D01*
X178324227Y-93603314D01*
X178348495Y-93599714D01*
X178372999Y-93598510D01*
X179023001Y-93598510D01*
X179047505Y-93599714D01*
X179047505Y-93599714D01*
G37*
D11*
X178698000Y-94298510D03*
D10*
G36*
X176997505Y-93599714D02*
X177021773Y-93603314D01*
X177045572Y-93609275D01*
X177068671Y-93617540D01*
X177090850Y-93628030D01*
X177111893Y-93640642D01*
X177131599Y-93655257D01*
X177149777Y-93671733D01*
X177166253Y-93689911D01*
X177180868Y-93709617D01*
X177193480Y-93730660D01*
X177203970Y-93752839D01*
X177212235Y-93775938D01*
X177218196Y-93799737D01*
X177221796Y-93824005D01*
X177223000Y-93848509D01*
X177223000Y-94748511D01*
X177221796Y-94773015D01*
X177218196Y-94797283D01*
X177212235Y-94821082D01*
X177203970Y-94844181D01*
X177193480Y-94866360D01*
X177180868Y-94887403D01*
X177166253Y-94907109D01*
X177149777Y-94925287D01*
X177131599Y-94941763D01*
X177111893Y-94956378D01*
X177090850Y-94968990D01*
X177068671Y-94979480D01*
X177045572Y-94987745D01*
X177021773Y-94993706D01*
X176997505Y-94997306D01*
X176973001Y-94998510D01*
X176322999Y-94998510D01*
X176298495Y-94997306D01*
X176274227Y-94993706D01*
X176250428Y-94987745D01*
X176227329Y-94979480D01*
X176205150Y-94968990D01*
X176184107Y-94956378D01*
X176164401Y-94941763D01*
X176146223Y-94925287D01*
X176129747Y-94907109D01*
X176115132Y-94887403D01*
X176102520Y-94866360D01*
X176092030Y-94844181D01*
X176083765Y-94821082D01*
X176077804Y-94797283D01*
X176074204Y-94773015D01*
X176073000Y-94748511D01*
X176073000Y-93848509D01*
X176074204Y-93824005D01*
X176077804Y-93799737D01*
X176083765Y-93775938D01*
X176092030Y-93752839D01*
X176102520Y-93730660D01*
X176115132Y-93709617D01*
X176129747Y-93689911D01*
X176146223Y-93671733D01*
X176164401Y-93655257D01*
X176184107Y-93640642D01*
X176205150Y-93628030D01*
X176227329Y-93617540D01*
X176250428Y-93609275D01*
X176274227Y-93603314D01*
X176298495Y-93599714D01*
X176322999Y-93598510D01*
X176973001Y-93598510D01*
X176997505Y-93599714D01*
X176997505Y-93599714D01*
G37*
D11*
X176648000Y-94298510D03*
G04 #@! TD*
M02*
