G04 #@! TF.GenerationSoftware,KiCad,Pcbnew,(5.0.0-3-g5ebb6b6)*
G04 #@! TF.CreationDate,2019-02-06T10:52:08+00:00*
G04 #@! TF.ProjectId,AdjustablePSU,41646A75737461626C655053552E6B69,rev?*
G04 #@! TF.SameCoordinates,Original*
G04 #@! TF.FileFunction,Soldermask,Top*
G04 #@! TF.FilePolarity,Negative*
%FSLAX46Y46*%
G04 Gerber Fmt 4.6, Leading zero omitted, Abs format (unit mm)*
G04 Created by KiCad (PCBNEW (5.0.0-3-g5ebb6b6)) date Wednesday, 06 February 2019 at 10:52:08*
%MOMM*%
%LPD*%
G01*
G04 APERTURE LIST*
%ADD10R,2.305000X2.400000*%
%ADD11O,2.305000X2.400000*%
%ADD12R,2.100000X2.100000*%
%ADD13O,2.100000X2.100000*%
%ADD14C,0.100000*%
%ADD15C,1.550000*%
%ADD16R,10.000000X9.200000*%
%ADD17C,1.825000*%
%ADD18R,2.200000X3.900000*%
%ADD19C,3.600000*%
%ADD20R,2.300000X4.800000*%
G04 APERTURE END LIST*
D10*
G04 #@! TO.C,U_POSREG1*
X153035000Y-67310000D03*
D11*
X155575000Y-67310000D03*
X158115000Y-67310000D03*
G04 #@! TD*
D12*
G04 #@! TO.C,J_OUT1*
X141732000Y-80010000D03*
D13*
X144272000Y-80010000D03*
X141732000Y-82550000D03*
X144272000Y-82550000D03*
X141732000Y-85090000D03*
X144272000Y-85090000D03*
X141732000Y-87630000D03*
X144272000Y-87630000D03*
X141732000Y-90170000D03*
X144272000Y-90170000D03*
G04 #@! TD*
D11*
G04 #@! TO.C,U_NEGREG1*
X144780000Y-67310000D03*
X142240000Y-67310000D03*
D10*
X139700000Y-67310000D03*
G04 #@! TD*
D12*
G04 #@! TO.C,J_OUT2*
X153670000Y-80010000D03*
D13*
X156210000Y-80010000D03*
X153670000Y-82550000D03*
X156210000Y-82550000D03*
X153670000Y-85090000D03*
X156210000Y-85090000D03*
X153670000Y-87630000D03*
X156210000Y-87630000D03*
X153670000Y-90170000D03*
X156210000Y-90170000D03*
G04 #@! TD*
D12*
G04 #@! TO.C,J_PWR1*
X112395000Y-66294000D03*
D13*
X114935000Y-66294000D03*
G04 #@! TD*
D14*
G04 #@! TO.C,C_NEG1*
G36*
X125829071Y-89271623D02*
X125861781Y-89276475D01*
X125893857Y-89284509D01*
X125924991Y-89295649D01*
X125954884Y-89309787D01*
X125983247Y-89326787D01*
X126009807Y-89346485D01*
X126034308Y-89368692D01*
X126056515Y-89393193D01*
X126076213Y-89419753D01*
X126093213Y-89448116D01*
X126107351Y-89478009D01*
X126118491Y-89509143D01*
X126126525Y-89541219D01*
X126131377Y-89573929D01*
X126133000Y-89606956D01*
X126133000Y-90733044D01*
X126131377Y-90766071D01*
X126126525Y-90798781D01*
X126118491Y-90830857D01*
X126107351Y-90861991D01*
X126093213Y-90891884D01*
X126076213Y-90920247D01*
X126056515Y-90946807D01*
X126034308Y-90971308D01*
X126009807Y-90993515D01*
X125983247Y-91013213D01*
X125954884Y-91030213D01*
X125924991Y-91044351D01*
X125893857Y-91055491D01*
X125861781Y-91063525D01*
X125829071Y-91068377D01*
X125796044Y-91070000D01*
X124919956Y-91070000D01*
X124886929Y-91068377D01*
X124854219Y-91063525D01*
X124822143Y-91055491D01*
X124791009Y-91044351D01*
X124761116Y-91030213D01*
X124732753Y-91013213D01*
X124706193Y-90993515D01*
X124681692Y-90971308D01*
X124659485Y-90946807D01*
X124639787Y-90920247D01*
X124622787Y-90891884D01*
X124608649Y-90861991D01*
X124597509Y-90830857D01*
X124589475Y-90798781D01*
X124584623Y-90766071D01*
X124583000Y-90733044D01*
X124583000Y-89606956D01*
X124584623Y-89573929D01*
X124589475Y-89541219D01*
X124597509Y-89509143D01*
X124608649Y-89478009D01*
X124622787Y-89448116D01*
X124639787Y-89419753D01*
X124659485Y-89393193D01*
X124681692Y-89368692D01*
X124706193Y-89346485D01*
X124732753Y-89326787D01*
X124761116Y-89309787D01*
X124791009Y-89295649D01*
X124822143Y-89284509D01*
X124854219Y-89276475D01*
X124886929Y-89271623D01*
X124919956Y-89270000D01*
X125796044Y-89270000D01*
X125829071Y-89271623D01*
X125829071Y-89271623D01*
G37*
D15*
X125358000Y-90170000D03*
D14*
G36*
X123779071Y-89271623D02*
X123811781Y-89276475D01*
X123843857Y-89284509D01*
X123874991Y-89295649D01*
X123904884Y-89309787D01*
X123933247Y-89326787D01*
X123959807Y-89346485D01*
X123984308Y-89368692D01*
X124006515Y-89393193D01*
X124026213Y-89419753D01*
X124043213Y-89448116D01*
X124057351Y-89478009D01*
X124068491Y-89509143D01*
X124076525Y-89541219D01*
X124081377Y-89573929D01*
X124083000Y-89606956D01*
X124083000Y-90733044D01*
X124081377Y-90766071D01*
X124076525Y-90798781D01*
X124068491Y-90830857D01*
X124057351Y-90861991D01*
X124043213Y-90891884D01*
X124026213Y-90920247D01*
X124006515Y-90946807D01*
X123984308Y-90971308D01*
X123959807Y-90993515D01*
X123933247Y-91013213D01*
X123904884Y-91030213D01*
X123874991Y-91044351D01*
X123843857Y-91055491D01*
X123811781Y-91063525D01*
X123779071Y-91068377D01*
X123746044Y-91070000D01*
X122869956Y-91070000D01*
X122836929Y-91068377D01*
X122804219Y-91063525D01*
X122772143Y-91055491D01*
X122741009Y-91044351D01*
X122711116Y-91030213D01*
X122682753Y-91013213D01*
X122656193Y-90993515D01*
X122631692Y-90971308D01*
X122609485Y-90946807D01*
X122589787Y-90920247D01*
X122572787Y-90891884D01*
X122558649Y-90861991D01*
X122547509Y-90830857D01*
X122539475Y-90798781D01*
X122534623Y-90766071D01*
X122533000Y-90733044D01*
X122533000Y-89606956D01*
X122534623Y-89573929D01*
X122539475Y-89541219D01*
X122547509Y-89509143D01*
X122558649Y-89478009D01*
X122572787Y-89448116D01*
X122589787Y-89419753D01*
X122609485Y-89393193D01*
X122631692Y-89368692D01*
X122656193Y-89346485D01*
X122682753Y-89326787D01*
X122711116Y-89309787D01*
X122741009Y-89295649D01*
X122772143Y-89284509D01*
X122804219Y-89276475D01*
X122836929Y-89271623D01*
X122869956Y-89270000D01*
X123746044Y-89270000D01*
X123779071Y-89271623D01*
X123779071Y-89271623D01*
G37*
D15*
X123308000Y-90170000D03*
G04 #@! TD*
D16*
G04 #@! TO.C,C_NEG2*
X137795000Y-103486000D03*
X137795000Y-116986000D03*
G04 #@! TD*
G04 #@! TO.C,C_NEG3*
X115570000Y-116986000D03*
X115570000Y-103486000D03*
G04 #@! TD*
G04 #@! TO.C,C_NEG4*
X115570000Y-146450000D03*
X115570000Y-132950000D03*
G04 #@! TD*
G04 #@! TO.C,C_NEG5*
X137795000Y-133204000D03*
X137795000Y-146704000D03*
G04 #@! TD*
D14*
G04 #@! TO.C,C_POS1*
G36*
X174343071Y-89398623D02*
X174375781Y-89403475D01*
X174407857Y-89411509D01*
X174438991Y-89422649D01*
X174468884Y-89436787D01*
X174497247Y-89453787D01*
X174523807Y-89473485D01*
X174548308Y-89495692D01*
X174570515Y-89520193D01*
X174590213Y-89546753D01*
X174607213Y-89575116D01*
X174621351Y-89605009D01*
X174632491Y-89636143D01*
X174640525Y-89668219D01*
X174645377Y-89700929D01*
X174647000Y-89733956D01*
X174647000Y-90860044D01*
X174645377Y-90893071D01*
X174640525Y-90925781D01*
X174632491Y-90957857D01*
X174621351Y-90988991D01*
X174607213Y-91018884D01*
X174590213Y-91047247D01*
X174570515Y-91073807D01*
X174548308Y-91098308D01*
X174523807Y-91120515D01*
X174497247Y-91140213D01*
X174468884Y-91157213D01*
X174438991Y-91171351D01*
X174407857Y-91182491D01*
X174375781Y-91190525D01*
X174343071Y-91195377D01*
X174310044Y-91197000D01*
X173433956Y-91197000D01*
X173400929Y-91195377D01*
X173368219Y-91190525D01*
X173336143Y-91182491D01*
X173305009Y-91171351D01*
X173275116Y-91157213D01*
X173246753Y-91140213D01*
X173220193Y-91120515D01*
X173195692Y-91098308D01*
X173173485Y-91073807D01*
X173153787Y-91047247D01*
X173136787Y-91018884D01*
X173122649Y-90988991D01*
X173111509Y-90957857D01*
X173103475Y-90925781D01*
X173098623Y-90893071D01*
X173097000Y-90860044D01*
X173097000Y-89733956D01*
X173098623Y-89700929D01*
X173103475Y-89668219D01*
X173111509Y-89636143D01*
X173122649Y-89605009D01*
X173136787Y-89575116D01*
X173153787Y-89546753D01*
X173173485Y-89520193D01*
X173195692Y-89495692D01*
X173220193Y-89473485D01*
X173246753Y-89453787D01*
X173275116Y-89436787D01*
X173305009Y-89422649D01*
X173336143Y-89411509D01*
X173368219Y-89403475D01*
X173400929Y-89398623D01*
X173433956Y-89397000D01*
X174310044Y-89397000D01*
X174343071Y-89398623D01*
X174343071Y-89398623D01*
G37*
D15*
X173872000Y-90297000D03*
D14*
G36*
X172293071Y-89398623D02*
X172325781Y-89403475D01*
X172357857Y-89411509D01*
X172388991Y-89422649D01*
X172418884Y-89436787D01*
X172447247Y-89453787D01*
X172473807Y-89473485D01*
X172498308Y-89495692D01*
X172520515Y-89520193D01*
X172540213Y-89546753D01*
X172557213Y-89575116D01*
X172571351Y-89605009D01*
X172582491Y-89636143D01*
X172590525Y-89668219D01*
X172595377Y-89700929D01*
X172597000Y-89733956D01*
X172597000Y-90860044D01*
X172595377Y-90893071D01*
X172590525Y-90925781D01*
X172582491Y-90957857D01*
X172571351Y-90988991D01*
X172557213Y-91018884D01*
X172540213Y-91047247D01*
X172520515Y-91073807D01*
X172498308Y-91098308D01*
X172473807Y-91120515D01*
X172447247Y-91140213D01*
X172418884Y-91157213D01*
X172388991Y-91171351D01*
X172357857Y-91182491D01*
X172325781Y-91190525D01*
X172293071Y-91195377D01*
X172260044Y-91197000D01*
X171383956Y-91197000D01*
X171350929Y-91195377D01*
X171318219Y-91190525D01*
X171286143Y-91182491D01*
X171255009Y-91171351D01*
X171225116Y-91157213D01*
X171196753Y-91140213D01*
X171170193Y-91120515D01*
X171145692Y-91098308D01*
X171123485Y-91073807D01*
X171103787Y-91047247D01*
X171086787Y-91018884D01*
X171072649Y-90988991D01*
X171061509Y-90957857D01*
X171053475Y-90925781D01*
X171048623Y-90893071D01*
X171047000Y-90860044D01*
X171047000Y-89733956D01*
X171048623Y-89700929D01*
X171053475Y-89668219D01*
X171061509Y-89636143D01*
X171072649Y-89605009D01*
X171086787Y-89575116D01*
X171103787Y-89546753D01*
X171123485Y-89520193D01*
X171145692Y-89495692D01*
X171170193Y-89473485D01*
X171196753Y-89453787D01*
X171225116Y-89436787D01*
X171255009Y-89422649D01*
X171286143Y-89411509D01*
X171318219Y-89403475D01*
X171350929Y-89398623D01*
X171383956Y-89397000D01*
X172260044Y-89397000D01*
X172293071Y-89398623D01*
X172293071Y-89398623D01*
G37*
D15*
X171822000Y-90297000D03*
G04 #@! TD*
D16*
G04 #@! TO.C,C_POS2*
X160020000Y-146704000D03*
X160020000Y-133204000D03*
G04 #@! TD*
G04 #@! TO.C,C_POS3*
X160020000Y-116986000D03*
X160020000Y-103486000D03*
G04 #@! TD*
G04 #@! TO.C,C_POS4*
X181610000Y-146704000D03*
X181610000Y-133204000D03*
G04 #@! TD*
G04 #@! TO.C,C_POS5*
X181610000Y-116986000D03*
X181610000Y-103486000D03*
G04 #@! TD*
D14*
G04 #@! TO.C,D_NEG4*
G36*
X110261207Y-89096542D02*
X110292287Y-89101152D01*
X110322766Y-89108787D01*
X110352350Y-89119372D01*
X110380754Y-89132806D01*
X110407704Y-89148959D01*
X110432942Y-89167677D01*
X110456223Y-89188777D01*
X110477323Y-89212058D01*
X110496041Y-89237296D01*
X110512194Y-89264246D01*
X110525628Y-89292650D01*
X110536213Y-89322234D01*
X110543848Y-89352713D01*
X110548458Y-89383793D01*
X110550000Y-89415176D01*
X110550000Y-90924824D01*
X110548458Y-90956207D01*
X110543848Y-90987287D01*
X110536213Y-91017766D01*
X110525628Y-91047350D01*
X110512194Y-91075754D01*
X110496041Y-91102704D01*
X110477323Y-91127942D01*
X110456223Y-91151223D01*
X110432942Y-91172323D01*
X110407704Y-91191041D01*
X110380754Y-91207194D01*
X110352350Y-91220628D01*
X110322766Y-91231213D01*
X110292287Y-91238848D01*
X110261207Y-91243458D01*
X110229824Y-91245000D01*
X109045176Y-91245000D01*
X109013793Y-91243458D01*
X108982713Y-91238848D01*
X108952234Y-91231213D01*
X108922650Y-91220628D01*
X108894246Y-91207194D01*
X108867296Y-91191041D01*
X108842058Y-91172323D01*
X108818777Y-91151223D01*
X108797677Y-91127942D01*
X108778959Y-91102704D01*
X108762806Y-91075754D01*
X108749372Y-91047350D01*
X108738787Y-91017766D01*
X108731152Y-90987287D01*
X108726542Y-90956207D01*
X108725000Y-90924824D01*
X108725000Y-89415176D01*
X108726542Y-89383793D01*
X108731152Y-89352713D01*
X108738787Y-89322234D01*
X108749372Y-89292650D01*
X108762806Y-89264246D01*
X108778959Y-89237296D01*
X108797677Y-89212058D01*
X108818777Y-89188777D01*
X108842058Y-89167677D01*
X108867296Y-89148959D01*
X108894246Y-89132806D01*
X108922650Y-89119372D01*
X108952234Y-89108787D01*
X108982713Y-89101152D01*
X109013793Y-89096542D01*
X109045176Y-89095000D01*
X110229824Y-89095000D01*
X110261207Y-89096542D01*
X110261207Y-89096542D01*
G37*
D17*
X109637500Y-90170000D03*
D14*
G36*
X113236207Y-89096542D02*
X113267287Y-89101152D01*
X113297766Y-89108787D01*
X113327350Y-89119372D01*
X113355754Y-89132806D01*
X113382704Y-89148959D01*
X113407942Y-89167677D01*
X113431223Y-89188777D01*
X113452323Y-89212058D01*
X113471041Y-89237296D01*
X113487194Y-89264246D01*
X113500628Y-89292650D01*
X113511213Y-89322234D01*
X113518848Y-89352713D01*
X113523458Y-89383793D01*
X113525000Y-89415176D01*
X113525000Y-90924824D01*
X113523458Y-90956207D01*
X113518848Y-90987287D01*
X113511213Y-91017766D01*
X113500628Y-91047350D01*
X113487194Y-91075754D01*
X113471041Y-91102704D01*
X113452323Y-91127942D01*
X113431223Y-91151223D01*
X113407942Y-91172323D01*
X113382704Y-91191041D01*
X113355754Y-91207194D01*
X113327350Y-91220628D01*
X113297766Y-91231213D01*
X113267287Y-91238848D01*
X113236207Y-91243458D01*
X113204824Y-91245000D01*
X112020176Y-91245000D01*
X111988793Y-91243458D01*
X111957713Y-91238848D01*
X111927234Y-91231213D01*
X111897650Y-91220628D01*
X111869246Y-91207194D01*
X111842296Y-91191041D01*
X111817058Y-91172323D01*
X111793777Y-91151223D01*
X111772677Y-91127942D01*
X111753959Y-91102704D01*
X111737806Y-91075754D01*
X111724372Y-91047350D01*
X111713787Y-91017766D01*
X111706152Y-90987287D01*
X111701542Y-90956207D01*
X111700000Y-90924824D01*
X111700000Y-89415176D01*
X111701542Y-89383793D01*
X111706152Y-89352713D01*
X111713787Y-89322234D01*
X111724372Y-89292650D01*
X111737806Y-89264246D01*
X111753959Y-89237296D01*
X111772677Y-89212058D01*
X111793777Y-89188777D01*
X111817058Y-89167677D01*
X111842296Y-89148959D01*
X111869246Y-89132806D01*
X111897650Y-89119372D01*
X111927234Y-89108787D01*
X111957713Y-89101152D01*
X111988793Y-89096542D01*
X112020176Y-89095000D01*
X113204824Y-89095000D01*
X113236207Y-89096542D01*
X113236207Y-89096542D01*
G37*
D17*
X112612500Y-90170000D03*
G04 #@! TD*
D14*
G04 #@! TO.C,D_POS4*
G36*
X188610707Y-89223542D02*
X188641787Y-89228152D01*
X188672266Y-89235787D01*
X188701850Y-89246372D01*
X188730254Y-89259806D01*
X188757204Y-89275959D01*
X188782442Y-89294677D01*
X188805723Y-89315777D01*
X188826823Y-89339058D01*
X188845541Y-89364296D01*
X188861694Y-89391246D01*
X188875128Y-89419650D01*
X188885713Y-89449234D01*
X188893348Y-89479713D01*
X188897958Y-89510793D01*
X188899500Y-89542176D01*
X188899500Y-91051824D01*
X188897958Y-91083207D01*
X188893348Y-91114287D01*
X188885713Y-91144766D01*
X188875128Y-91174350D01*
X188861694Y-91202754D01*
X188845541Y-91229704D01*
X188826823Y-91254942D01*
X188805723Y-91278223D01*
X188782442Y-91299323D01*
X188757204Y-91318041D01*
X188730254Y-91334194D01*
X188701850Y-91347628D01*
X188672266Y-91358213D01*
X188641787Y-91365848D01*
X188610707Y-91370458D01*
X188579324Y-91372000D01*
X187394676Y-91372000D01*
X187363293Y-91370458D01*
X187332213Y-91365848D01*
X187301734Y-91358213D01*
X187272150Y-91347628D01*
X187243746Y-91334194D01*
X187216796Y-91318041D01*
X187191558Y-91299323D01*
X187168277Y-91278223D01*
X187147177Y-91254942D01*
X187128459Y-91229704D01*
X187112306Y-91202754D01*
X187098872Y-91174350D01*
X187088287Y-91144766D01*
X187080652Y-91114287D01*
X187076042Y-91083207D01*
X187074500Y-91051824D01*
X187074500Y-89542176D01*
X187076042Y-89510793D01*
X187080652Y-89479713D01*
X187088287Y-89449234D01*
X187098872Y-89419650D01*
X187112306Y-89391246D01*
X187128459Y-89364296D01*
X187147177Y-89339058D01*
X187168277Y-89315777D01*
X187191558Y-89294677D01*
X187216796Y-89275959D01*
X187243746Y-89259806D01*
X187272150Y-89246372D01*
X187301734Y-89235787D01*
X187332213Y-89228152D01*
X187363293Y-89223542D01*
X187394676Y-89222000D01*
X188579324Y-89222000D01*
X188610707Y-89223542D01*
X188610707Y-89223542D01*
G37*
D17*
X187987000Y-90297000D03*
D14*
G36*
X185635707Y-89223542D02*
X185666787Y-89228152D01*
X185697266Y-89235787D01*
X185726850Y-89246372D01*
X185755254Y-89259806D01*
X185782204Y-89275959D01*
X185807442Y-89294677D01*
X185830723Y-89315777D01*
X185851823Y-89339058D01*
X185870541Y-89364296D01*
X185886694Y-89391246D01*
X185900128Y-89419650D01*
X185910713Y-89449234D01*
X185918348Y-89479713D01*
X185922958Y-89510793D01*
X185924500Y-89542176D01*
X185924500Y-91051824D01*
X185922958Y-91083207D01*
X185918348Y-91114287D01*
X185910713Y-91144766D01*
X185900128Y-91174350D01*
X185886694Y-91202754D01*
X185870541Y-91229704D01*
X185851823Y-91254942D01*
X185830723Y-91278223D01*
X185807442Y-91299323D01*
X185782204Y-91318041D01*
X185755254Y-91334194D01*
X185726850Y-91347628D01*
X185697266Y-91358213D01*
X185666787Y-91365848D01*
X185635707Y-91370458D01*
X185604324Y-91372000D01*
X184419676Y-91372000D01*
X184388293Y-91370458D01*
X184357213Y-91365848D01*
X184326734Y-91358213D01*
X184297150Y-91347628D01*
X184268746Y-91334194D01*
X184241796Y-91318041D01*
X184216558Y-91299323D01*
X184193277Y-91278223D01*
X184172177Y-91254942D01*
X184153459Y-91229704D01*
X184137306Y-91202754D01*
X184123872Y-91174350D01*
X184113287Y-91144766D01*
X184105652Y-91114287D01*
X184101042Y-91083207D01*
X184099500Y-91051824D01*
X184099500Y-89542176D01*
X184101042Y-89510793D01*
X184105652Y-89479713D01*
X184113287Y-89449234D01*
X184123872Y-89419650D01*
X184137306Y-89391246D01*
X184153459Y-89364296D01*
X184172177Y-89339058D01*
X184193277Y-89315777D01*
X184216558Y-89294677D01*
X184241796Y-89275959D01*
X184268746Y-89259806D01*
X184297150Y-89246372D01*
X184326734Y-89235787D01*
X184357213Y-89228152D01*
X184388293Y-89223542D01*
X184419676Y-89222000D01*
X185604324Y-89222000D01*
X185635707Y-89223542D01*
X185635707Y-89223542D01*
G37*
D17*
X185012000Y-90297000D03*
G04 #@! TD*
D14*
G04 #@! TO.C,R_NEG1*
G36*
X102697071Y-89271623D02*
X102729781Y-89276475D01*
X102761857Y-89284509D01*
X102792991Y-89295649D01*
X102822884Y-89309787D01*
X102851247Y-89326787D01*
X102877807Y-89346485D01*
X102902308Y-89368692D01*
X102924515Y-89393193D01*
X102944213Y-89419753D01*
X102961213Y-89448116D01*
X102975351Y-89478009D01*
X102986491Y-89509143D01*
X102994525Y-89541219D01*
X102999377Y-89573929D01*
X103001000Y-89606956D01*
X103001000Y-90733044D01*
X102999377Y-90766071D01*
X102994525Y-90798781D01*
X102986491Y-90830857D01*
X102975351Y-90861991D01*
X102961213Y-90891884D01*
X102944213Y-90920247D01*
X102924515Y-90946807D01*
X102902308Y-90971308D01*
X102877807Y-90993515D01*
X102851247Y-91013213D01*
X102822884Y-91030213D01*
X102792991Y-91044351D01*
X102761857Y-91055491D01*
X102729781Y-91063525D01*
X102697071Y-91068377D01*
X102664044Y-91070000D01*
X101787956Y-91070000D01*
X101754929Y-91068377D01*
X101722219Y-91063525D01*
X101690143Y-91055491D01*
X101659009Y-91044351D01*
X101629116Y-91030213D01*
X101600753Y-91013213D01*
X101574193Y-90993515D01*
X101549692Y-90971308D01*
X101527485Y-90946807D01*
X101507787Y-90920247D01*
X101490787Y-90891884D01*
X101476649Y-90861991D01*
X101465509Y-90830857D01*
X101457475Y-90798781D01*
X101452623Y-90766071D01*
X101451000Y-90733044D01*
X101451000Y-89606956D01*
X101452623Y-89573929D01*
X101457475Y-89541219D01*
X101465509Y-89509143D01*
X101476649Y-89478009D01*
X101490787Y-89448116D01*
X101507787Y-89419753D01*
X101527485Y-89393193D01*
X101549692Y-89368692D01*
X101574193Y-89346485D01*
X101600753Y-89326787D01*
X101629116Y-89309787D01*
X101659009Y-89295649D01*
X101690143Y-89284509D01*
X101722219Y-89276475D01*
X101754929Y-89271623D01*
X101787956Y-89270000D01*
X102664044Y-89270000D01*
X102697071Y-89271623D01*
X102697071Y-89271623D01*
G37*
D15*
X102226000Y-90170000D03*
D14*
G36*
X104747071Y-89271623D02*
X104779781Y-89276475D01*
X104811857Y-89284509D01*
X104842991Y-89295649D01*
X104872884Y-89309787D01*
X104901247Y-89326787D01*
X104927807Y-89346485D01*
X104952308Y-89368692D01*
X104974515Y-89393193D01*
X104994213Y-89419753D01*
X105011213Y-89448116D01*
X105025351Y-89478009D01*
X105036491Y-89509143D01*
X105044525Y-89541219D01*
X105049377Y-89573929D01*
X105051000Y-89606956D01*
X105051000Y-90733044D01*
X105049377Y-90766071D01*
X105044525Y-90798781D01*
X105036491Y-90830857D01*
X105025351Y-90861991D01*
X105011213Y-90891884D01*
X104994213Y-90920247D01*
X104974515Y-90946807D01*
X104952308Y-90971308D01*
X104927807Y-90993515D01*
X104901247Y-91013213D01*
X104872884Y-91030213D01*
X104842991Y-91044351D01*
X104811857Y-91055491D01*
X104779781Y-91063525D01*
X104747071Y-91068377D01*
X104714044Y-91070000D01*
X103837956Y-91070000D01*
X103804929Y-91068377D01*
X103772219Y-91063525D01*
X103740143Y-91055491D01*
X103709009Y-91044351D01*
X103679116Y-91030213D01*
X103650753Y-91013213D01*
X103624193Y-90993515D01*
X103599692Y-90971308D01*
X103577485Y-90946807D01*
X103557787Y-90920247D01*
X103540787Y-90891884D01*
X103526649Y-90861991D01*
X103515509Y-90830857D01*
X103507475Y-90798781D01*
X103502623Y-90766071D01*
X103501000Y-90733044D01*
X103501000Y-89606956D01*
X103502623Y-89573929D01*
X103507475Y-89541219D01*
X103515509Y-89509143D01*
X103526649Y-89478009D01*
X103540787Y-89448116D01*
X103557787Y-89419753D01*
X103577485Y-89393193D01*
X103599692Y-89368692D01*
X103624193Y-89346485D01*
X103650753Y-89326787D01*
X103679116Y-89309787D01*
X103709009Y-89295649D01*
X103740143Y-89284509D01*
X103772219Y-89276475D01*
X103804929Y-89271623D01*
X103837956Y-89270000D01*
X104714044Y-89270000D01*
X104747071Y-89271623D01*
X104747071Y-89271623D01*
G37*
D15*
X104276000Y-90170000D03*
G04 #@! TD*
D14*
G04 #@! TO.C,R_POS1*
G36*
X193375071Y-89398623D02*
X193407781Y-89403475D01*
X193439857Y-89411509D01*
X193470991Y-89422649D01*
X193500884Y-89436787D01*
X193529247Y-89453787D01*
X193555807Y-89473485D01*
X193580308Y-89495692D01*
X193602515Y-89520193D01*
X193622213Y-89546753D01*
X193639213Y-89575116D01*
X193653351Y-89605009D01*
X193664491Y-89636143D01*
X193672525Y-89668219D01*
X193677377Y-89700929D01*
X193679000Y-89733956D01*
X193679000Y-90860044D01*
X193677377Y-90893071D01*
X193672525Y-90925781D01*
X193664491Y-90957857D01*
X193653351Y-90988991D01*
X193639213Y-91018884D01*
X193622213Y-91047247D01*
X193602515Y-91073807D01*
X193580308Y-91098308D01*
X193555807Y-91120515D01*
X193529247Y-91140213D01*
X193500884Y-91157213D01*
X193470991Y-91171351D01*
X193439857Y-91182491D01*
X193407781Y-91190525D01*
X193375071Y-91195377D01*
X193342044Y-91197000D01*
X192465956Y-91197000D01*
X192432929Y-91195377D01*
X192400219Y-91190525D01*
X192368143Y-91182491D01*
X192337009Y-91171351D01*
X192307116Y-91157213D01*
X192278753Y-91140213D01*
X192252193Y-91120515D01*
X192227692Y-91098308D01*
X192205485Y-91073807D01*
X192185787Y-91047247D01*
X192168787Y-91018884D01*
X192154649Y-90988991D01*
X192143509Y-90957857D01*
X192135475Y-90925781D01*
X192130623Y-90893071D01*
X192129000Y-90860044D01*
X192129000Y-89733956D01*
X192130623Y-89700929D01*
X192135475Y-89668219D01*
X192143509Y-89636143D01*
X192154649Y-89605009D01*
X192168787Y-89575116D01*
X192185787Y-89546753D01*
X192205485Y-89520193D01*
X192227692Y-89495692D01*
X192252193Y-89473485D01*
X192278753Y-89453787D01*
X192307116Y-89436787D01*
X192337009Y-89422649D01*
X192368143Y-89411509D01*
X192400219Y-89403475D01*
X192432929Y-89398623D01*
X192465956Y-89397000D01*
X193342044Y-89397000D01*
X193375071Y-89398623D01*
X193375071Y-89398623D01*
G37*
D15*
X192904000Y-90297000D03*
D14*
G36*
X195425071Y-89398623D02*
X195457781Y-89403475D01*
X195489857Y-89411509D01*
X195520991Y-89422649D01*
X195550884Y-89436787D01*
X195579247Y-89453787D01*
X195605807Y-89473485D01*
X195630308Y-89495692D01*
X195652515Y-89520193D01*
X195672213Y-89546753D01*
X195689213Y-89575116D01*
X195703351Y-89605009D01*
X195714491Y-89636143D01*
X195722525Y-89668219D01*
X195727377Y-89700929D01*
X195729000Y-89733956D01*
X195729000Y-90860044D01*
X195727377Y-90893071D01*
X195722525Y-90925781D01*
X195714491Y-90957857D01*
X195703351Y-90988991D01*
X195689213Y-91018884D01*
X195672213Y-91047247D01*
X195652515Y-91073807D01*
X195630308Y-91098308D01*
X195605807Y-91120515D01*
X195579247Y-91140213D01*
X195550884Y-91157213D01*
X195520991Y-91171351D01*
X195489857Y-91182491D01*
X195457781Y-91190525D01*
X195425071Y-91195377D01*
X195392044Y-91197000D01*
X194515956Y-91197000D01*
X194482929Y-91195377D01*
X194450219Y-91190525D01*
X194418143Y-91182491D01*
X194387009Y-91171351D01*
X194357116Y-91157213D01*
X194328753Y-91140213D01*
X194302193Y-91120515D01*
X194277692Y-91098308D01*
X194255485Y-91073807D01*
X194235787Y-91047247D01*
X194218787Y-91018884D01*
X194204649Y-90988991D01*
X194193509Y-90957857D01*
X194185475Y-90925781D01*
X194180623Y-90893071D01*
X194179000Y-90860044D01*
X194179000Y-89733956D01*
X194180623Y-89700929D01*
X194185475Y-89668219D01*
X194193509Y-89636143D01*
X194204649Y-89605009D01*
X194218787Y-89575116D01*
X194235787Y-89546753D01*
X194255485Y-89520193D01*
X194277692Y-89495692D01*
X194302193Y-89473485D01*
X194328753Y-89453787D01*
X194357116Y-89436787D01*
X194387009Y-89422649D01*
X194418143Y-89411509D01*
X194450219Y-89403475D01*
X194482929Y-89398623D01*
X194515956Y-89397000D01*
X195392044Y-89397000D01*
X195425071Y-89398623D01*
X195425071Y-89398623D01*
G37*
D15*
X194954000Y-90297000D03*
G04 #@! TD*
D18*
G04 #@! TO.C,D_NEG1*
X130556000Y-79970000D03*
X130556000Y-74970000D03*
G04 #@! TD*
G04 #@! TO.C,D_NEG2*
X123291600Y-79970000D03*
X123291600Y-74970000D03*
G04 #@! TD*
G04 #@! TO.C,D_NEG3*
X116078000Y-74970000D03*
X116078000Y-79970000D03*
G04 #@! TD*
G04 #@! TO.C,D_POS1*
X165557200Y-79335000D03*
X165557200Y-74335000D03*
G04 #@! TD*
G04 #@! TO.C,D_POS2*
X173075600Y-79258800D03*
X173075600Y-74258800D03*
G04 #@! TD*
G04 #@! TO.C,D_POS3*
X179578000Y-74208000D03*
X179578000Y-79208000D03*
G04 #@! TD*
D19*
G04 #@! TO.C,REF\002A\002A*
X171831000Y-59817000D03*
G04 #@! TD*
G04 #@! TO.C,REF\002A\002A*
X126619000Y-59690000D03*
G04 #@! TD*
G04 #@! TO.C,REF\002A\002A*
X102743000Y-59690000D03*
G04 #@! TD*
G04 #@! TO.C,REF\002A\002A*
X194691000Y-59309000D03*
G04 #@! TD*
G04 #@! TO.C,REF\002A\002A*
X193675000Y-125730000D03*
G04 #@! TD*
G04 #@! TO.C,REF\002A\002A*
X103505000Y-125730000D03*
G04 #@! TD*
G04 #@! TO.C,REF\002A\002A*
X142240000Y-59690000D03*
G04 #@! TD*
G04 #@! TO.C,REF\002A\002A*
X155575000Y-59690000D03*
G04 #@! TD*
D20*
G04 #@! TO.C,C_NEG6*
X105410000Y-81820000D03*
X105410000Y-73120000D03*
G04 #@! TD*
G04 #@! TO.C,C_POS6*
X191008000Y-81185000D03*
X191008000Y-72485000D03*
G04 #@! TD*
M02*
