G04 #@! TF.GenerationSoftware,KiCad,Pcbnew,(5.0.0-3-g5ebb6b6)*
G04 #@! TF.CreationDate,2019-02-06T10:52:08+00:00*
G04 #@! TF.ProjectId,AdjustablePSU,41646A75737461626C655053552E6B69,rev?*
G04 #@! TF.SameCoordinates,Original*
G04 #@! TF.FileFunction,Soldermask,Bot*
G04 #@! TF.FilePolarity,Negative*
%FSLAX46Y46*%
G04 Gerber Fmt 4.6, Leading zero omitted, Abs format (unit mm)*
G04 Created by KiCad (PCBNEW (5.0.0-3-g5ebb6b6)) date Wednesday, 06 February 2019 at 10:52:08*
%MOMM*%
%LPD*%
G01*
G04 APERTURE LIST*
%ADD10R,2.305000X2.400000*%
%ADD11O,2.305000X2.400000*%
%ADD12R,2.100000X2.100000*%
%ADD13O,2.100000X2.100000*%
%ADD14C,0.100000*%
%ADD15C,1.550000*%
%ADD16C,3.600000*%
G04 APERTURE END LIST*
D10*
G04 #@! TO.C,U_POSREG1*
X153035000Y-67310000D03*
D11*
X155575000Y-67310000D03*
X158115000Y-67310000D03*
G04 #@! TD*
D12*
G04 #@! TO.C,J_OUT1*
X141732000Y-80010000D03*
D13*
X144272000Y-80010000D03*
X141732000Y-82550000D03*
X144272000Y-82550000D03*
X141732000Y-85090000D03*
X144272000Y-85090000D03*
X141732000Y-87630000D03*
X144272000Y-87630000D03*
X141732000Y-90170000D03*
X144272000Y-90170000D03*
G04 #@! TD*
D11*
G04 #@! TO.C,U_NEGREG1*
X144780000Y-67310000D03*
X142240000Y-67310000D03*
D10*
X139700000Y-67310000D03*
G04 #@! TD*
D12*
G04 #@! TO.C,J_OUT2*
X153670000Y-80010000D03*
D13*
X156210000Y-80010000D03*
X153670000Y-82550000D03*
X156210000Y-82550000D03*
X153670000Y-85090000D03*
X156210000Y-85090000D03*
X153670000Y-87630000D03*
X156210000Y-87630000D03*
X153670000Y-90170000D03*
X156210000Y-90170000D03*
G04 #@! TD*
D12*
G04 #@! TO.C,J_PWR1*
X112395000Y-66294000D03*
D13*
X114935000Y-66294000D03*
G04 #@! TD*
D14*
G04 #@! TO.C,R_NEGREG1*
G36*
X104739364Y-93749623D02*
X104772074Y-93754475D01*
X104804150Y-93762509D01*
X104835284Y-93773649D01*
X104865177Y-93787787D01*
X104893540Y-93804787D01*
X104920100Y-93824485D01*
X104944601Y-93846692D01*
X104966808Y-93871193D01*
X104986506Y-93897753D01*
X105003506Y-93926116D01*
X105017644Y-93956009D01*
X105028784Y-93987143D01*
X105036818Y-94019219D01*
X105041670Y-94051929D01*
X105043293Y-94084956D01*
X105043293Y-95211044D01*
X105041670Y-95244071D01*
X105036818Y-95276781D01*
X105028784Y-95308857D01*
X105017644Y-95339991D01*
X105003506Y-95369884D01*
X104986506Y-95398247D01*
X104966808Y-95424807D01*
X104944601Y-95449308D01*
X104920100Y-95471515D01*
X104893540Y-95491213D01*
X104865177Y-95508213D01*
X104835284Y-95522351D01*
X104804150Y-95533491D01*
X104772074Y-95541525D01*
X104739364Y-95546377D01*
X104706337Y-95548000D01*
X103830249Y-95548000D01*
X103797222Y-95546377D01*
X103764512Y-95541525D01*
X103732436Y-95533491D01*
X103701302Y-95522351D01*
X103671409Y-95508213D01*
X103643046Y-95491213D01*
X103616486Y-95471515D01*
X103591985Y-95449308D01*
X103569778Y-95424807D01*
X103550080Y-95398247D01*
X103533080Y-95369884D01*
X103518942Y-95339991D01*
X103507802Y-95308857D01*
X103499768Y-95276781D01*
X103494916Y-95244071D01*
X103493293Y-95211044D01*
X103493293Y-94084956D01*
X103494916Y-94051929D01*
X103499768Y-94019219D01*
X103507802Y-93987143D01*
X103518942Y-93956009D01*
X103533080Y-93926116D01*
X103550080Y-93897753D01*
X103569778Y-93871193D01*
X103591985Y-93846692D01*
X103616486Y-93824485D01*
X103643046Y-93804787D01*
X103671409Y-93787787D01*
X103701302Y-93773649D01*
X103732436Y-93762509D01*
X103764512Y-93754475D01*
X103797222Y-93749623D01*
X103830249Y-93748000D01*
X104706337Y-93748000D01*
X104739364Y-93749623D01*
X104739364Y-93749623D01*
G37*
D15*
X104268293Y-94648000D03*
D14*
G36*
X102689364Y-93749623D02*
X102722074Y-93754475D01*
X102754150Y-93762509D01*
X102785284Y-93773649D01*
X102815177Y-93787787D01*
X102843540Y-93804787D01*
X102870100Y-93824485D01*
X102894601Y-93846692D01*
X102916808Y-93871193D01*
X102936506Y-93897753D01*
X102953506Y-93926116D01*
X102967644Y-93956009D01*
X102978784Y-93987143D01*
X102986818Y-94019219D01*
X102991670Y-94051929D01*
X102993293Y-94084956D01*
X102993293Y-95211044D01*
X102991670Y-95244071D01*
X102986818Y-95276781D01*
X102978784Y-95308857D01*
X102967644Y-95339991D01*
X102953506Y-95369884D01*
X102936506Y-95398247D01*
X102916808Y-95424807D01*
X102894601Y-95449308D01*
X102870100Y-95471515D01*
X102843540Y-95491213D01*
X102815177Y-95508213D01*
X102785284Y-95522351D01*
X102754150Y-95533491D01*
X102722074Y-95541525D01*
X102689364Y-95546377D01*
X102656337Y-95548000D01*
X101780249Y-95548000D01*
X101747222Y-95546377D01*
X101714512Y-95541525D01*
X101682436Y-95533491D01*
X101651302Y-95522351D01*
X101621409Y-95508213D01*
X101593046Y-95491213D01*
X101566486Y-95471515D01*
X101541985Y-95449308D01*
X101519778Y-95424807D01*
X101500080Y-95398247D01*
X101483080Y-95369884D01*
X101468942Y-95339991D01*
X101457802Y-95308857D01*
X101449768Y-95276781D01*
X101444916Y-95244071D01*
X101443293Y-95211044D01*
X101443293Y-94084956D01*
X101444916Y-94051929D01*
X101449768Y-94019219D01*
X101457802Y-93987143D01*
X101468942Y-93956009D01*
X101483080Y-93926116D01*
X101500080Y-93897753D01*
X101519778Y-93871193D01*
X101541985Y-93846692D01*
X101566486Y-93824485D01*
X101593046Y-93804787D01*
X101621409Y-93787787D01*
X101651302Y-93773649D01*
X101682436Y-93762509D01*
X101714512Y-93754475D01*
X101747222Y-93749623D01*
X101780249Y-93748000D01*
X102656337Y-93748000D01*
X102689364Y-93749623D01*
X102689364Y-93749623D01*
G37*
D15*
X102218293Y-94648000D03*
G04 #@! TD*
D14*
G04 #@! TO.C,R_NEGREG2*
G36*
X112595364Y-93749623D02*
X112628074Y-93754475D01*
X112660150Y-93762509D01*
X112691284Y-93773649D01*
X112721177Y-93787787D01*
X112749540Y-93804787D01*
X112776100Y-93824485D01*
X112800601Y-93846692D01*
X112822808Y-93871193D01*
X112842506Y-93897753D01*
X112859506Y-93926116D01*
X112873644Y-93956009D01*
X112884784Y-93987143D01*
X112892818Y-94019219D01*
X112897670Y-94051929D01*
X112899293Y-94084956D01*
X112899293Y-95211044D01*
X112897670Y-95244071D01*
X112892818Y-95276781D01*
X112884784Y-95308857D01*
X112873644Y-95339991D01*
X112859506Y-95369884D01*
X112842506Y-95398247D01*
X112822808Y-95424807D01*
X112800601Y-95449308D01*
X112776100Y-95471515D01*
X112749540Y-95491213D01*
X112721177Y-95508213D01*
X112691284Y-95522351D01*
X112660150Y-95533491D01*
X112628074Y-95541525D01*
X112595364Y-95546377D01*
X112562337Y-95548000D01*
X111686249Y-95548000D01*
X111653222Y-95546377D01*
X111620512Y-95541525D01*
X111588436Y-95533491D01*
X111557302Y-95522351D01*
X111527409Y-95508213D01*
X111499046Y-95491213D01*
X111472486Y-95471515D01*
X111447985Y-95449308D01*
X111425778Y-95424807D01*
X111406080Y-95398247D01*
X111389080Y-95369884D01*
X111374942Y-95339991D01*
X111363802Y-95308857D01*
X111355768Y-95276781D01*
X111350916Y-95244071D01*
X111349293Y-95211044D01*
X111349293Y-94084956D01*
X111350916Y-94051929D01*
X111355768Y-94019219D01*
X111363802Y-93987143D01*
X111374942Y-93956009D01*
X111389080Y-93926116D01*
X111406080Y-93897753D01*
X111425778Y-93871193D01*
X111447985Y-93846692D01*
X111472486Y-93824485D01*
X111499046Y-93804787D01*
X111527409Y-93787787D01*
X111557302Y-93773649D01*
X111588436Y-93762509D01*
X111620512Y-93754475D01*
X111653222Y-93749623D01*
X111686249Y-93748000D01*
X112562337Y-93748000D01*
X112595364Y-93749623D01*
X112595364Y-93749623D01*
G37*
D15*
X112124293Y-94648000D03*
D14*
G36*
X114645364Y-93749623D02*
X114678074Y-93754475D01*
X114710150Y-93762509D01*
X114741284Y-93773649D01*
X114771177Y-93787787D01*
X114799540Y-93804787D01*
X114826100Y-93824485D01*
X114850601Y-93846692D01*
X114872808Y-93871193D01*
X114892506Y-93897753D01*
X114909506Y-93926116D01*
X114923644Y-93956009D01*
X114934784Y-93987143D01*
X114942818Y-94019219D01*
X114947670Y-94051929D01*
X114949293Y-94084956D01*
X114949293Y-95211044D01*
X114947670Y-95244071D01*
X114942818Y-95276781D01*
X114934784Y-95308857D01*
X114923644Y-95339991D01*
X114909506Y-95369884D01*
X114892506Y-95398247D01*
X114872808Y-95424807D01*
X114850601Y-95449308D01*
X114826100Y-95471515D01*
X114799540Y-95491213D01*
X114771177Y-95508213D01*
X114741284Y-95522351D01*
X114710150Y-95533491D01*
X114678074Y-95541525D01*
X114645364Y-95546377D01*
X114612337Y-95548000D01*
X113736249Y-95548000D01*
X113703222Y-95546377D01*
X113670512Y-95541525D01*
X113638436Y-95533491D01*
X113607302Y-95522351D01*
X113577409Y-95508213D01*
X113549046Y-95491213D01*
X113522486Y-95471515D01*
X113497985Y-95449308D01*
X113475778Y-95424807D01*
X113456080Y-95398247D01*
X113439080Y-95369884D01*
X113424942Y-95339991D01*
X113413802Y-95308857D01*
X113405768Y-95276781D01*
X113400916Y-95244071D01*
X113399293Y-95211044D01*
X113399293Y-94084956D01*
X113400916Y-94051929D01*
X113405768Y-94019219D01*
X113413802Y-93987143D01*
X113424942Y-93956009D01*
X113439080Y-93926116D01*
X113456080Y-93897753D01*
X113475778Y-93871193D01*
X113497985Y-93846692D01*
X113522486Y-93824485D01*
X113549046Y-93804787D01*
X113577409Y-93787787D01*
X113607302Y-93773649D01*
X113638436Y-93762509D01*
X113670512Y-93754475D01*
X113703222Y-93749623D01*
X113736249Y-93748000D01*
X114612337Y-93748000D01*
X114645364Y-93749623D01*
X114645364Y-93749623D01*
G37*
D15*
X114174293Y-94648000D03*
G04 #@! TD*
D14*
G04 #@! TO.C,R_POSREG1*
G36*
X193375071Y-93400133D02*
X193407781Y-93404985D01*
X193439857Y-93413019D01*
X193470991Y-93424159D01*
X193500884Y-93438297D01*
X193529247Y-93455297D01*
X193555807Y-93474995D01*
X193580308Y-93497202D01*
X193602515Y-93521703D01*
X193622213Y-93548263D01*
X193639213Y-93576626D01*
X193653351Y-93606519D01*
X193664491Y-93637653D01*
X193672525Y-93669729D01*
X193677377Y-93702439D01*
X193679000Y-93735466D01*
X193679000Y-94861554D01*
X193677377Y-94894581D01*
X193672525Y-94927291D01*
X193664491Y-94959367D01*
X193653351Y-94990501D01*
X193639213Y-95020394D01*
X193622213Y-95048757D01*
X193602515Y-95075317D01*
X193580308Y-95099818D01*
X193555807Y-95122025D01*
X193529247Y-95141723D01*
X193500884Y-95158723D01*
X193470991Y-95172861D01*
X193439857Y-95184001D01*
X193407781Y-95192035D01*
X193375071Y-95196887D01*
X193342044Y-95198510D01*
X192465956Y-95198510D01*
X192432929Y-95196887D01*
X192400219Y-95192035D01*
X192368143Y-95184001D01*
X192337009Y-95172861D01*
X192307116Y-95158723D01*
X192278753Y-95141723D01*
X192252193Y-95122025D01*
X192227692Y-95099818D01*
X192205485Y-95075317D01*
X192185787Y-95048757D01*
X192168787Y-95020394D01*
X192154649Y-94990501D01*
X192143509Y-94959367D01*
X192135475Y-94927291D01*
X192130623Y-94894581D01*
X192129000Y-94861554D01*
X192129000Y-93735466D01*
X192130623Y-93702439D01*
X192135475Y-93669729D01*
X192143509Y-93637653D01*
X192154649Y-93606519D01*
X192168787Y-93576626D01*
X192185787Y-93548263D01*
X192205485Y-93521703D01*
X192227692Y-93497202D01*
X192252193Y-93474995D01*
X192278753Y-93455297D01*
X192307116Y-93438297D01*
X192337009Y-93424159D01*
X192368143Y-93413019D01*
X192400219Y-93404985D01*
X192432929Y-93400133D01*
X192465956Y-93398510D01*
X193342044Y-93398510D01*
X193375071Y-93400133D01*
X193375071Y-93400133D01*
G37*
D15*
X192904000Y-94298510D03*
D14*
G36*
X195425071Y-93400133D02*
X195457781Y-93404985D01*
X195489857Y-93413019D01*
X195520991Y-93424159D01*
X195550884Y-93438297D01*
X195579247Y-93455297D01*
X195605807Y-93474995D01*
X195630308Y-93497202D01*
X195652515Y-93521703D01*
X195672213Y-93548263D01*
X195689213Y-93576626D01*
X195703351Y-93606519D01*
X195714491Y-93637653D01*
X195722525Y-93669729D01*
X195727377Y-93702439D01*
X195729000Y-93735466D01*
X195729000Y-94861554D01*
X195727377Y-94894581D01*
X195722525Y-94927291D01*
X195714491Y-94959367D01*
X195703351Y-94990501D01*
X195689213Y-95020394D01*
X195672213Y-95048757D01*
X195652515Y-95075317D01*
X195630308Y-95099818D01*
X195605807Y-95122025D01*
X195579247Y-95141723D01*
X195550884Y-95158723D01*
X195520991Y-95172861D01*
X195489857Y-95184001D01*
X195457781Y-95192035D01*
X195425071Y-95196887D01*
X195392044Y-95198510D01*
X194515956Y-95198510D01*
X194482929Y-95196887D01*
X194450219Y-95192035D01*
X194418143Y-95184001D01*
X194387009Y-95172861D01*
X194357116Y-95158723D01*
X194328753Y-95141723D01*
X194302193Y-95122025D01*
X194277692Y-95099818D01*
X194255485Y-95075317D01*
X194235787Y-95048757D01*
X194218787Y-95020394D01*
X194204649Y-94990501D01*
X194193509Y-94959367D01*
X194185475Y-94927291D01*
X194180623Y-94894581D01*
X194179000Y-94861554D01*
X194179000Y-93735466D01*
X194180623Y-93702439D01*
X194185475Y-93669729D01*
X194193509Y-93637653D01*
X194204649Y-93606519D01*
X194218787Y-93576626D01*
X194235787Y-93548263D01*
X194255485Y-93521703D01*
X194277692Y-93497202D01*
X194302193Y-93474995D01*
X194328753Y-93455297D01*
X194357116Y-93438297D01*
X194387009Y-93424159D01*
X194418143Y-93413019D01*
X194450219Y-93404985D01*
X194482929Y-93400133D01*
X194515956Y-93398510D01*
X195392044Y-93398510D01*
X195425071Y-93400133D01*
X195425071Y-93400133D01*
G37*
D15*
X194954000Y-94298510D03*
G04 #@! TD*
D14*
G04 #@! TO.C,R_POSREG2*
G36*
X179169071Y-93400133D02*
X179201781Y-93404985D01*
X179233857Y-93413019D01*
X179264991Y-93424159D01*
X179294884Y-93438297D01*
X179323247Y-93455297D01*
X179349807Y-93474995D01*
X179374308Y-93497202D01*
X179396515Y-93521703D01*
X179416213Y-93548263D01*
X179433213Y-93576626D01*
X179447351Y-93606519D01*
X179458491Y-93637653D01*
X179466525Y-93669729D01*
X179471377Y-93702439D01*
X179473000Y-93735466D01*
X179473000Y-94861554D01*
X179471377Y-94894581D01*
X179466525Y-94927291D01*
X179458491Y-94959367D01*
X179447351Y-94990501D01*
X179433213Y-95020394D01*
X179416213Y-95048757D01*
X179396515Y-95075317D01*
X179374308Y-95099818D01*
X179349807Y-95122025D01*
X179323247Y-95141723D01*
X179294884Y-95158723D01*
X179264991Y-95172861D01*
X179233857Y-95184001D01*
X179201781Y-95192035D01*
X179169071Y-95196887D01*
X179136044Y-95198510D01*
X178259956Y-95198510D01*
X178226929Y-95196887D01*
X178194219Y-95192035D01*
X178162143Y-95184001D01*
X178131009Y-95172861D01*
X178101116Y-95158723D01*
X178072753Y-95141723D01*
X178046193Y-95122025D01*
X178021692Y-95099818D01*
X177999485Y-95075317D01*
X177979787Y-95048757D01*
X177962787Y-95020394D01*
X177948649Y-94990501D01*
X177937509Y-94959367D01*
X177929475Y-94927291D01*
X177924623Y-94894581D01*
X177923000Y-94861554D01*
X177923000Y-93735466D01*
X177924623Y-93702439D01*
X177929475Y-93669729D01*
X177937509Y-93637653D01*
X177948649Y-93606519D01*
X177962787Y-93576626D01*
X177979787Y-93548263D01*
X177999485Y-93521703D01*
X178021692Y-93497202D01*
X178046193Y-93474995D01*
X178072753Y-93455297D01*
X178101116Y-93438297D01*
X178131009Y-93424159D01*
X178162143Y-93413019D01*
X178194219Y-93404985D01*
X178226929Y-93400133D01*
X178259956Y-93398510D01*
X179136044Y-93398510D01*
X179169071Y-93400133D01*
X179169071Y-93400133D01*
G37*
D15*
X178698000Y-94298510D03*
D14*
G36*
X177119071Y-93400133D02*
X177151781Y-93404985D01*
X177183857Y-93413019D01*
X177214991Y-93424159D01*
X177244884Y-93438297D01*
X177273247Y-93455297D01*
X177299807Y-93474995D01*
X177324308Y-93497202D01*
X177346515Y-93521703D01*
X177366213Y-93548263D01*
X177383213Y-93576626D01*
X177397351Y-93606519D01*
X177408491Y-93637653D01*
X177416525Y-93669729D01*
X177421377Y-93702439D01*
X177423000Y-93735466D01*
X177423000Y-94861554D01*
X177421377Y-94894581D01*
X177416525Y-94927291D01*
X177408491Y-94959367D01*
X177397351Y-94990501D01*
X177383213Y-95020394D01*
X177366213Y-95048757D01*
X177346515Y-95075317D01*
X177324308Y-95099818D01*
X177299807Y-95122025D01*
X177273247Y-95141723D01*
X177244884Y-95158723D01*
X177214991Y-95172861D01*
X177183857Y-95184001D01*
X177151781Y-95192035D01*
X177119071Y-95196887D01*
X177086044Y-95198510D01*
X176209956Y-95198510D01*
X176176929Y-95196887D01*
X176144219Y-95192035D01*
X176112143Y-95184001D01*
X176081009Y-95172861D01*
X176051116Y-95158723D01*
X176022753Y-95141723D01*
X175996193Y-95122025D01*
X175971692Y-95099818D01*
X175949485Y-95075317D01*
X175929787Y-95048757D01*
X175912787Y-95020394D01*
X175898649Y-94990501D01*
X175887509Y-94959367D01*
X175879475Y-94927291D01*
X175874623Y-94894581D01*
X175873000Y-94861554D01*
X175873000Y-93735466D01*
X175874623Y-93702439D01*
X175879475Y-93669729D01*
X175887509Y-93637653D01*
X175898649Y-93606519D01*
X175912787Y-93576626D01*
X175929787Y-93548263D01*
X175949485Y-93521703D01*
X175971692Y-93497202D01*
X175996193Y-93474995D01*
X176022753Y-93455297D01*
X176051116Y-93438297D01*
X176081009Y-93424159D01*
X176112143Y-93413019D01*
X176144219Y-93404985D01*
X176176929Y-93400133D01*
X176209956Y-93398510D01*
X177086044Y-93398510D01*
X177119071Y-93400133D01*
X177119071Y-93400133D01*
G37*
D15*
X176648000Y-94298510D03*
G04 #@! TD*
D16*
G04 #@! TO.C,REF\002A\002A*
X171831000Y-59817000D03*
G04 #@! TD*
G04 #@! TO.C,REF\002A\002A*
X126619000Y-59690000D03*
G04 #@! TD*
G04 #@! TO.C,REF\002A\002A*
X102743000Y-59690000D03*
G04 #@! TD*
G04 #@! TO.C,REF\002A\002A*
X194691000Y-59309000D03*
G04 #@! TD*
G04 #@! TO.C,REF\002A\002A*
X193675000Y-125730000D03*
G04 #@! TD*
G04 #@! TO.C,REF\002A\002A*
X103505000Y-125730000D03*
G04 #@! TD*
G04 #@! TO.C,REF\002A\002A*
X142240000Y-59690000D03*
G04 #@! TD*
G04 #@! TO.C,REF\002A\002A*
X155575000Y-59690000D03*
G04 #@! TD*
M02*
