G04 #@! TF.GenerationSoftware,KiCad,Pcbnew,(5.0.0-3-g5ebb6b6)*
G04 #@! TF.CreationDate,2019-02-06T10:52:08+00:00*
G04 #@! TF.ProjectId,AdjustablePSU,41646A75737461626C655053552E6B69,rev?*
G04 #@! TF.SameCoordinates,Original*
G04 #@! TF.FileFunction,Legend,Top*
G04 #@! TF.FilePolarity,Positive*
%FSLAX46Y46*%
G04 Gerber Fmt 4.6, Leading zero omitted, Abs format (unit mm)*
G04 Created by KiCad (PCBNEW (5.0.0-3-g5ebb6b6)) date Wednesday, 06 February 2019 at 10:52:08*
%MOMM*%
%LPD*%
G01*
G04 APERTURE LIST*
%ADD10C,0.250000*%
%ADD11C,0.125000*%
%ADD12C,0.100000*%
%ADD13C,0.200000*%
%ADD14C,0.300000*%
%ADD15C,1.000000*%
%ADD16C,0.120000*%
%ADD17C,0.075000*%
%ADD18C,0.150000*%
G04 APERTURE END LIST*
D10*
X182616647Y-58595580D02*
X182283314Y-58119390D01*
X182045219Y-58595580D02*
X182045219Y-57595580D01*
X182426171Y-57595580D01*
X182521409Y-57643200D01*
X182569028Y-57690819D01*
X182616647Y-57786057D01*
X182616647Y-57928914D01*
X182569028Y-58024152D01*
X182521409Y-58071771D01*
X182426171Y-58119390D01*
X182045219Y-58119390D01*
X183426171Y-58547961D02*
X183330933Y-58595580D01*
X183140457Y-58595580D01*
X183045219Y-58547961D01*
X182997600Y-58452723D01*
X182997600Y-58071771D01*
X183045219Y-57976533D01*
X183140457Y-57928914D01*
X183330933Y-57928914D01*
X183426171Y-57976533D01*
X183473790Y-58071771D01*
X183473790Y-58167009D01*
X182997600Y-58262247D01*
X183807123Y-57928914D02*
X184045219Y-58595580D01*
X184283314Y-57928914D01*
X185997600Y-58500342D02*
X185949980Y-58547961D01*
X185807123Y-58595580D01*
X185711885Y-58595580D01*
X185569028Y-58547961D01*
X185473790Y-58452723D01*
X185426171Y-58357485D01*
X185378552Y-58167009D01*
X185378552Y-58024152D01*
X185426171Y-57833676D01*
X185473790Y-57738438D01*
X185569028Y-57643200D01*
X185711885Y-57595580D01*
X185807123Y-57595580D01*
X185949980Y-57643200D01*
X185997600Y-57690819D01*
X179735695Y-60250342D02*
X179688076Y-60297961D01*
X179545219Y-60345580D01*
X179449980Y-60345580D01*
X179307123Y-60297961D01*
X179211885Y-60202723D01*
X179164266Y-60107485D01*
X179116647Y-59917009D01*
X179116647Y-59774152D01*
X179164266Y-59583676D01*
X179211885Y-59488438D01*
X179307123Y-59393200D01*
X179449980Y-59345580D01*
X179545219Y-59345580D01*
X179688076Y-59393200D01*
X179735695Y-59440819D01*
X180164266Y-60345580D02*
X180164266Y-59345580D01*
X180592838Y-60345580D02*
X180592838Y-59821771D01*
X180545219Y-59726533D01*
X180449980Y-59678914D01*
X180307123Y-59678914D01*
X180211885Y-59726533D01*
X180164266Y-59774152D01*
X181069028Y-60345580D02*
X181069028Y-59678914D01*
X181069028Y-59869390D02*
X181116647Y-59774152D01*
X181164266Y-59726533D01*
X181259504Y-59678914D01*
X181354742Y-59678914D01*
X181688076Y-60345580D02*
X181688076Y-59678914D01*
X181688076Y-59345580D02*
X181640457Y-59393200D01*
X181688076Y-59440819D01*
X181735695Y-59393200D01*
X181688076Y-59345580D01*
X181688076Y-59440819D01*
X182116647Y-60297961D02*
X182211885Y-60345580D01*
X182402361Y-60345580D01*
X182497600Y-60297961D01*
X182545219Y-60202723D01*
X182545219Y-60155104D01*
X182497600Y-60059866D01*
X182402361Y-60012247D01*
X182259504Y-60012247D01*
X182164266Y-59964628D01*
X182116647Y-59869390D01*
X182116647Y-59821771D01*
X182164266Y-59726533D01*
X182259504Y-59678914D01*
X182402361Y-59678914D01*
X182497600Y-59726533D01*
X183688076Y-60297961D02*
X183830933Y-60345580D01*
X184069028Y-60345580D01*
X184164266Y-60297961D01*
X184211885Y-60250342D01*
X184259504Y-60155104D01*
X184259504Y-60059866D01*
X184211885Y-59964628D01*
X184164266Y-59917009D01*
X184069028Y-59869390D01*
X183878552Y-59821771D01*
X183783314Y-59774152D01*
X183735695Y-59726533D01*
X183688076Y-59631295D01*
X183688076Y-59536057D01*
X183735695Y-59440819D01*
X183783314Y-59393200D01*
X183878552Y-59345580D01*
X184116647Y-59345580D01*
X184259504Y-59393200D01*
X185116647Y-59678914D02*
X185116647Y-60345580D01*
X184688076Y-59678914D02*
X184688076Y-60202723D01*
X184735695Y-60297961D01*
X184830933Y-60345580D01*
X184973790Y-60345580D01*
X185069028Y-60297961D01*
X185116647Y-60250342D01*
X185449980Y-59678914D02*
X185830933Y-59678914D01*
X185592838Y-59345580D02*
X185592838Y-60202723D01*
X185640457Y-60297961D01*
X185735695Y-60345580D01*
X185830933Y-60345580D01*
X186021409Y-59678914D02*
X186402361Y-59678914D01*
X186164266Y-59345580D02*
X186164266Y-60202723D01*
X186211885Y-60297961D01*
X186307123Y-60345580D01*
X186402361Y-60345580D01*
X186878552Y-60345580D02*
X186783314Y-60297961D01*
X186735695Y-60250342D01*
X186688076Y-60155104D01*
X186688076Y-59869390D01*
X186735695Y-59774152D01*
X186783314Y-59726533D01*
X186878552Y-59678914D01*
X187021409Y-59678914D01*
X187116647Y-59726533D01*
X187164266Y-59774152D01*
X187211885Y-59869390D01*
X187211885Y-60155104D01*
X187164266Y-60250342D01*
X187116647Y-60297961D01*
X187021409Y-60345580D01*
X186878552Y-60345580D01*
X187640457Y-59678914D02*
X187640457Y-60345580D01*
X187640457Y-59774152D02*
X187688076Y-59726533D01*
X187783314Y-59678914D01*
X187926171Y-59678914D01*
X188021409Y-59726533D01*
X188069028Y-59821771D01*
X188069028Y-60345580D01*
X182521409Y-61095580D02*
X182616647Y-61095580D01*
X182711885Y-61143200D01*
X182759504Y-61190819D01*
X182807123Y-61286057D01*
X182854742Y-61476533D01*
X182854742Y-61714628D01*
X182807123Y-61905104D01*
X182759504Y-62000342D01*
X182711885Y-62047961D01*
X182616647Y-62095580D01*
X182521409Y-62095580D01*
X182426171Y-62047961D01*
X182378552Y-62000342D01*
X182330933Y-61905104D01*
X182283314Y-61714628D01*
X182283314Y-61476533D01*
X182330933Y-61286057D01*
X182378552Y-61190819D01*
X182426171Y-61143200D01*
X182521409Y-61095580D01*
X183711885Y-61095580D02*
X183521409Y-61095580D01*
X183426171Y-61143200D01*
X183378552Y-61190819D01*
X183283314Y-61333676D01*
X183235695Y-61524152D01*
X183235695Y-61905104D01*
X183283314Y-62000342D01*
X183330933Y-62047961D01*
X183426171Y-62095580D01*
X183616647Y-62095580D01*
X183711885Y-62047961D01*
X183759504Y-62000342D01*
X183807123Y-61905104D01*
X183807123Y-61667009D01*
X183759504Y-61571771D01*
X183711885Y-61524152D01*
X183616647Y-61476533D01*
X183426171Y-61476533D01*
X183330933Y-61524152D01*
X183283314Y-61571771D01*
X183235695Y-61667009D01*
X184759504Y-62095580D02*
X184188076Y-62095580D01*
X184473790Y-62095580D02*
X184473790Y-61095580D01*
X184378552Y-61238438D01*
X184283314Y-61333676D01*
X184188076Y-61381295D01*
X185235695Y-62095580D02*
X185426171Y-62095580D01*
X185521409Y-62047961D01*
X185569028Y-62000342D01*
X185664266Y-61857485D01*
X185711885Y-61667009D01*
X185711885Y-61286057D01*
X185664266Y-61190819D01*
X185616647Y-61143200D01*
X185521409Y-61095580D01*
X185330933Y-61095580D01*
X185235695Y-61143200D01*
X185188076Y-61190819D01*
X185140457Y-61286057D01*
X185140457Y-61524152D01*
X185188076Y-61619390D01*
X185235695Y-61667009D01*
X185330933Y-61714628D01*
X185521409Y-61714628D01*
X185616647Y-61667009D01*
X185664266Y-61619390D01*
X185711885Y-61524152D01*
D11*
X166592619Y-65502380D02*
X166592619Y-64502380D01*
X166592619Y-64978571D02*
X167164047Y-64978571D01*
X167164047Y-65502380D02*
X167164047Y-64502380D01*
X168021190Y-65454761D02*
X167925952Y-65502380D01*
X167735476Y-65502380D01*
X167640238Y-65454761D01*
X167592619Y-65359523D01*
X167592619Y-64978571D01*
X167640238Y-64883333D01*
X167735476Y-64835714D01*
X167925952Y-64835714D01*
X168021190Y-64883333D01*
X168068809Y-64978571D01*
X168068809Y-65073809D01*
X167592619Y-65169047D01*
X168925952Y-65502380D02*
X168925952Y-64978571D01*
X168878333Y-64883333D01*
X168783095Y-64835714D01*
X168592619Y-64835714D01*
X168497380Y-64883333D01*
X168925952Y-65454761D02*
X168830714Y-65502380D01*
X168592619Y-65502380D01*
X168497380Y-65454761D01*
X168449761Y-65359523D01*
X168449761Y-65264285D01*
X168497380Y-65169047D01*
X168592619Y-65121428D01*
X168830714Y-65121428D01*
X168925952Y-65073809D01*
X169259285Y-64835714D02*
X169640238Y-64835714D01*
X169402142Y-64502380D02*
X169402142Y-65359523D01*
X169449761Y-65454761D01*
X169545000Y-65502380D01*
X169640238Y-65502380D01*
X169925952Y-65454761D02*
X170021190Y-65502380D01*
X170211666Y-65502380D01*
X170306904Y-65454761D01*
X170354523Y-65359523D01*
X170354523Y-65311904D01*
X170306904Y-65216666D01*
X170211666Y-65169047D01*
X170068809Y-65169047D01*
X169973571Y-65121428D01*
X169925952Y-65026190D01*
X169925952Y-64978571D01*
X169973571Y-64883333D01*
X170068809Y-64835714D01*
X170211666Y-64835714D01*
X170306904Y-64883333D01*
X170783095Y-65502380D02*
X170783095Y-64835714D01*
X170783095Y-64502380D02*
X170735476Y-64550000D01*
X170783095Y-64597619D01*
X170830714Y-64550000D01*
X170783095Y-64502380D01*
X170783095Y-64597619D01*
X171259285Y-64835714D02*
X171259285Y-65502380D01*
X171259285Y-64930952D02*
X171306904Y-64883333D01*
X171402142Y-64835714D01*
X171545000Y-64835714D01*
X171640238Y-64883333D01*
X171687857Y-64978571D01*
X171687857Y-65502380D01*
X172164047Y-65502380D02*
X172164047Y-64502380D01*
X172259285Y-65121428D02*
X172545000Y-65502380D01*
X172545000Y-64835714D02*
X172164047Y-65216666D01*
X165354523Y-66127380D02*
X165925952Y-66127380D01*
X165640238Y-67127380D02*
X165640238Y-66127380D01*
X166259285Y-67127380D02*
X166259285Y-66127380D01*
X166687857Y-67127380D02*
X166687857Y-66603571D01*
X166640238Y-66508333D01*
X166545000Y-66460714D01*
X166402142Y-66460714D01*
X166306904Y-66508333D01*
X166259285Y-66555952D01*
X167545000Y-67079761D02*
X167449761Y-67127380D01*
X167259285Y-67127380D01*
X167164047Y-67079761D01*
X167116428Y-66984523D01*
X167116428Y-66603571D01*
X167164047Y-66508333D01*
X167259285Y-66460714D01*
X167449761Y-66460714D01*
X167545000Y-66508333D01*
X167592619Y-66603571D01*
X167592619Y-66698809D01*
X167116428Y-66794047D01*
X168021190Y-67127380D02*
X168021190Y-66460714D01*
X168021190Y-66651190D02*
X168068809Y-66555952D01*
X168116428Y-66508333D01*
X168211666Y-66460714D01*
X168306904Y-66460714D01*
X168640238Y-67127380D02*
X168640238Y-66460714D01*
X168640238Y-66555952D02*
X168687857Y-66508333D01*
X168783095Y-66460714D01*
X168925952Y-66460714D01*
X169021190Y-66508333D01*
X169068809Y-66603571D01*
X169068809Y-67127380D01*
X169068809Y-66603571D02*
X169116428Y-66508333D01*
X169211666Y-66460714D01*
X169354523Y-66460714D01*
X169449761Y-66508333D01*
X169497380Y-66603571D01*
X169497380Y-67127380D01*
X170402142Y-67127380D02*
X170402142Y-66603571D01*
X170354523Y-66508333D01*
X170259285Y-66460714D01*
X170068809Y-66460714D01*
X169973571Y-66508333D01*
X170402142Y-67079761D02*
X170306904Y-67127380D01*
X170068809Y-67127380D01*
X169973571Y-67079761D01*
X169925952Y-66984523D01*
X169925952Y-66889285D01*
X169973571Y-66794047D01*
X170068809Y-66746428D01*
X170306904Y-66746428D01*
X170402142Y-66698809D01*
X171021190Y-67127380D02*
X170925952Y-67079761D01*
X170878333Y-66984523D01*
X170878333Y-66127380D01*
X172116428Y-67127380D02*
X172354523Y-67127380D01*
X172354523Y-66936904D01*
X172259285Y-66889285D01*
X172164047Y-66794047D01*
X172116428Y-66651190D01*
X172116428Y-66413095D01*
X172164047Y-66270238D01*
X172259285Y-66175000D01*
X172402142Y-66127380D01*
X172592619Y-66127380D01*
X172735476Y-66175000D01*
X172830714Y-66270238D01*
X172878333Y-66413095D01*
X172878333Y-66651190D01*
X172830714Y-66794047D01*
X172735476Y-66889285D01*
X172640238Y-66936904D01*
X172640238Y-67127380D01*
X172878333Y-67127380D01*
X166616428Y-68085714D02*
X165854523Y-68371428D01*
X166616428Y-68657142D01*
X168378333Y-68752380D02*
X167806904Y-68752380D01*
X168092619Y-68752380D02*
X168092619Y-67752380D01*
X167997380Y-67895238D01*
X167902142Y-67990476D01*
X167806904Y-68038095D01*
X168997380Y-67752380D02*
X169092619Y-67752380D01*
X169187857Y-67800000D01*
X169235476Y-67847619D01*
X169283095Y-67942857D01*
X169330714Y-68133333D01*
X169330714Y-68371428D01*
X169283095Y-68561904D01*
X169235476Y-68657142D01*
X169187857Y-68704761D01*
X169092619Y-68752380D01*
X168997380Y-68752380D01*
X168902142Y-68704761D01*
X168854523Y-68657142D01*
X168806904Y-68561904D01*
X168759285Y-68371428D01*
X168759285Y-68133333D01*
X168806904Y-67942857D01*
X168854523Y-67847619D01*
X168902142Y-67800000D01*
X168997380Y-67752380D01*
X170521190Y-68752380D02*
X170521190Y-67752380D01*
X171092619Y-68752380D02*
X170664047Y-68180952D01*
X171092619Y-67752380D02*
X170521190Y-68323809D01*
X172235476Y-67704761D02*
X171378333Y-68990476D01*
X172473571Y-67752380D02*
X172711666Y-68752380D01*
X172902142Y-68038095D01*
X173092619Y-68752380D01*
X173330714Y-67752380D01*
D12*
X161111714Y-60029285D02*
X161111714Y-59279285D01*
X161111714Y-59636428D02*
X161540285Y-59636428D01*
X161540285Y-60029285D02*
X161540285Y-59279285D01*
X161897428Y-59636428D02*
X162147428Y-59636428D01*
X162254571Y-60029285D02*
X161897428Y-60029285D01*
X161897428Y-59279285D01*
X162254571Y-59279285D01*
X162540285Y-59815000D02*
X162897428Y-59815000D01*
X162468857Y-60029285D02*
X162718857Y-59279285D01*
X162968857Y-60029285D01*
X163111714Y-59279285D02*
X163540285Y-59279285D01*
X163326000Y-60029285D02*
X163326000Y-59279285D01*
X163754571Y-59993571D02*
X163861714Y-60029285D01*
X164040285Y-60029285D01*
X164111714Y-59993571D01*
X164147428Y-59957857D01*
X164183142Y-59886428D01*
X164183142Y-59815000D01*
X164147428Y-59743571D01*
X164111714Y-59707857D01*
X164040285Y-59672142D01*
X163897428Y-59636428D01*
X163826000Y-59600714D01*
X163790285Y-59565000D01*
X163754571Y-59493571D01*
X163754571Y-59422142D01*
X163790285Y-59350714D01*
X163826000Y-59315000D01*
X163897428Y-59279285D01*
X164076000Y-59279285D01*
X164183142Y-59315000D01*
X164504571Y-60029285D02*
X164504571Y-59279285D01*
X164861714Y-60029285D02*
X164861714Y-59279285D01*
X165290285Y-60029285D01*
X165290285Y-59279285D01*
X165647428Y-60029285D02*
X165647428Y-59279285D01*
X166076000Y-60029285D02*
X165754571Y-59600714D01*
X166076000Y-59279285D02*
X165647428Y-59707857D01*
D13*
X119606571Y-65700000D02*
X120320857Y-65700000D01*
X119463714Y-66128571D02*
X119963714Y-64628571D01*
X120463714Y-66128571D01*
X121820857Y-65985714D02*
X121749428Y-66057142D01*
X121535142Y-66128571D01*
X121392285Y-66128571D01*
X121178000Y-66057142D01*
X121035142Y-65914285D01*
X120963714Y-65771428D01*
X120892285Y-65485714D01*
X120892285Y-65271428D01*
X120963714Y-64985714D01*
X121035142Y-64842857D01*
X121178000Y-64700000D01*
X121392285Y-64628571D01*
X121535142Y-64628571D01*
X121749428Y-64700000D01*
X121820857Y-64771428D01*
X123606571Y-66128571D02*
X123606571Y-64628571D01*
X124320857Y-66128571D02*
X124320857Y-64628571D01*
X125178000Y-66128571D01*
X125178000Y-64628571D01*
X118570857Y-67078571D02*
X119499428Y-67078571D01*
X118999428Y-67650000D01*
X119213714Y-67650000D01*
X119356571Y-67721428D01*
X119428000Y-67792857D01*
X119499428Y-67935714D01*
X119499428Y-68292857D01*
X119428000Y-68435714D01*
X119356571Y-68507142D01*
X119213714Y-68578571D01*
X118785142Y-68578571D01*
X118642285Y-68507142D01*
X118570857Y-68435714D01*
X120070857Y-68150000D02*
X120785142Y-68150000D01*
X119928000Y-68578571D02*
X120428000Y-67078571D01*
X120928000Y-68578571D01*
X122570857Y-68578571D02*
X122570857Y-67078571D01*
X123070857Y-68150000D01*
X123570857Y-67078571D01*
X123570857Y-68578571D01*
X124928000Y-68578571D02*
X124928000Y-67792857D01*
X124856571Y-67650000D01*
X124713714Y-67578571D01*
X124428000Y-67578571D01*
X124285142Y-67650000D01*
X124928000Y-68507142D02*
X124785142Y-68578571D01*
X124428000Y-68578571D01*
X124285142Y-68507142D01*
X124213714Y-68364285D01*
X124213714Y-68221428D01*
X124285142Y-68078571D01*
X124428000Y-68007142D01*
X124785142Y-68007142D01*
X124928000Y-67935714D01*
X125499428Y-68578571D02*
X126285142Y-67578571D01*
X125499428Y-67578571D02*
X126285142Y-68578571D01*
D14*
X174625000Y-56515000D02*
X174625000Y-62865000D01*
X123825000Y-56515000D02*
X123825000Y-62865000D01*
X174625000Y-56515000D02*
X123825000Y-56515000D01*
X174625000Y-62865000D02*
X123825000Y-62865000D01*
D13*
X147701142Y-84543571D02*
X147701142Y-83043571D01*
X148058285Y-83043571D01*
X148272571Y-83115000D01*
X148415428Y-83257857D01*
X148486857Y-83400714D01*
X148558285Y-83686428D01*
X148558285Y-83900714D01*
X148486857Y-84186428D01*
X148415428Y-84329285D01*
X148272571Y-84472142D01*
X148058285Y-84543571D01*
X147701142Y-84543571D01*
X150058285Y-84400714D02*
X149986857Y-84472142D01*
X149772571Y-84543571D01*
X149629714Y-84543571D01*
X149415428Y-84472142D01*
X149272571Y-84329285D01*
X149201142Y-84186428D01*
X149129714Y-83900714D01*
X149129714Y-83686428D01*
X149201142Y-83400714D01*
X149272571Y-83257857D01*
X149415428Y-83115000D01*
X149629714Y-83043571D01*
X149772571Y-83043571D01*
X149986857Y-83115000D01*
X150058285Y-83186428D01*
X147344000Y-85493571D02*
X147629714Y-85493571D01*
X147772571Y-85565000D01*
X147915428Y-85707857D01*
X147986857Y-85993571D01*
X147986857Y-86493571D01*
X147915428Y-86779285D01*
X147772571Y-86922142D01*
X147629714Y-86993571D01*
X147344000Y-86993571D01*
X147201142Y-86922142D01*
X147058285Y-86779285D01*
X146986857Y-86493571D01*
X146986857Y-85993571D01*
X147058285Y-85707857D01*
X147201142Y-85565000D01*
X147344000Y-85493571D01*
X148629714Y-85493571D02*
X148629714Y-86707857D01*
X148701142Y-86850714D01*
X148772571Y-86922142D01*
X148915428Y-86993571D01*
X149201142Y-86993571D01*
X149344000Y-86922142D01*
X149415428Y-86850714D01*
X149486857Y-86707857D01*
X149486857Y-85493571D01*
X149986857Y-85493571D02*
X150844000Y-85493571D01*
X150415428Y-86993571D02*
X150415428Y-85493571D01*
D15*
X152400000Y-93345000D02*
X157480000Y-93345000D01*
X140462000Y-93345000D02*
X145542000Y-93345000D01*
D12*
X146379714Y-59775285D02*
X146379714Y-59025285D01*
X146379714Y-59382428D02*
X146808285Y-59382428D01*
X146808285Y-59775285D02*
X146808285Y-59025285D01*
X147165428Y-59382428D02*
X147415428Y-59382428D01*
X147522571Y-59775285D02*
X147165428Y-59775285D01*
X147165428Y-59025285D01*
X147522571Y-59025285D01*
X147808285Y-59561000D02*
X148165428Y-59561000D01*
X147736857Y-59775285D02*
X147986857Y-59025285D01*
X148236857Y-59775285D01*
X148379714Y-59025285D02*
X148808285Y-59025285D01*
X148594000Y-59775285D02*
X148594000Y-59025285D01*
X149022571Y-59739571D02*
X149129714Y-59775285D01*
X149308285Y-59775285D01*
X149379714Y-59739571D01*
X149415428Y-59703857D01*
X149451142Y-59632428D01*
X149451142Y-59561000D01*
X149415428Y-59489571D01*
X149379714Y-59453857D01*
X149308285Y-59418142D01*
X149165428Y-59382428D01*
X149094000Y-59346714D01*
X149058285Y-59311000D01*
X149022571Y-59239571D01*
X149022571Y-59168142D01*
X149058285Y-59096714D01*
X149094000Y-59061000D01*
X149165428Y-59025285D01*
X149344000Y-59025285D01*
X149451142Y-59061000D01*
X149772571Y-59775285D02*
X149772571Y-59025285D01*
X150129714Y-59775285D02*
X150129714Y-59025285D01*
X150558285Y-59775285D01*
X150558285Y-59025285D01*
X150915428Y-59775285D02*
X150915428Y-59025285D01*
X151344000Y-59775285D02*
X151022571Y-59346714D01*
X151344000Y-59025285D02*
X150915428Y-59453857D01*
X132028714Y-59775285D02*
X132028714Y-59025285D01*
X132028714Y-59382428D02*
X132457285Y-59382428D01*
X132457285Y-59775285D02*
X132457285Y-59025285D01*
X132814428Y-59382428D02*
X133064428Y-59382428D01*
X133171571Y-59775285D02*
X132814428Y-59775285D01*
X132814428Y-59025285D01*
X133171571Y-59025285D01*
X133457285Y-59561000D02*
X133814428Y-59561000D01*
X133385857Y-59775285D02*
X133635857Y-59025285D01*
X133885857Y-59775285D01*
X134028714Y-59025285D02*
X134457285Y-59025285D01*
X134243000Y-59775285D02*
X134243000Y-59025285D01*
X134671571Y-59739571D02*
X134778714Y-59775285D01*
X134957285Y-59775285D01*
X135028714Y-59739571D01*
X135064428Y-59703857D01*
X135100142Y-59632428D01*
X135100142Y-59561000D01*
X135064428Y-59489571D01*
X135028714Y-59453857D01*
X134957285Y-59418142D01*
X134814428Y-59382428D01*
X134743000Y-59346714D01*
X134707285Y-59311000D01*
X134671571Y-59239571D01*
X134671571Y-59168142D01*
X134707285Y-59096714D01*
X134743000Y-59061000D01*
X134814428Y-59025285D01*
X134993000Y-59025285D01*
X135100142Y-59061000D01*
X135421571Y-59775285D02*
X135421571Y-59025285D01*
X135778714Y-59775285D02*
X135778714Y-59025285D01*
X136207285Y-59775285D01*
X136207285Y-59025285D01*
X136564428Y-59775285D02*
X136564428Y-59025285D01*
X136993000Y-59775285D02*
X136671571Y-59346714D01*
X136993000Y-59025285D02*
X136564428Y-59453857D01*
D16*
G04 #@! TO.C,U_POSREG1*
X150325000Y-64142000D02*
X160825000Y-64142000D01*
X150325000Y-69083000D02*
X160825000Y-69083000D01*
X150325000Y-64142000D02*
X150325000Y-69083000D01*
X160825000Y-64142000D02*
X160825000Y-69083000D01*
X150325000Y-66902000D02*
X151932000Y-66902000D01*
X154138000Y-66902000D02*
X154473000Y-66902000D01*
X156678000Y-66902000D02*
X157013000Y-66902000D01*
X159218000Y-66902000D02*
X160825000Y-66902000D01*
X153725000Y-64142000D02*
X153725000Y-66160000D01*
X157426000Y-64142000D02*
X157426000Y-66160000D01*
G04 #@! TO.C,J_OUT1*
X140402000Y-91500000D02*
X145602000Y-91500000D01*
X140402000Y-81280000D02*
X140402000Y-91500000D01*
X145602000Y-78680000D02*
X145602000Y-91500000D01*
X140402000Y-81280000D02*
X143002000Y-81280000D01*
X143002000Y-81280000D02*
X143002000Y-78680000D01*
X143002000Y-78680000D02*
X145602000Y-78680000D01*
X140402000Y-80010000D02*
X140402000Y-78680000D01*
X140402000Y-78680000D02*
X141732000Y-78680000D01*
G04 #@! TO.C,U_NEGREG1*
X144091000Y-64142000D02*
X144091000Y-66160000D01*
X140390000Y-64142000D02*
X140390000Y-66160000D01*
X145883000Y-66902000D02*
X147490000Y-66902000D01*
X143343000Y-66902000D02*
X143678000Y-66902000D01*
X140803000Y-66902000D02*
X141138000Y-66902000D01*
X136990000Y-66902000D02*
X138597000Y-66902000D01*
X147490000Y-64142000D02*
X147490000Y-69083000D01*
X136990000Y-64142000D02*
X136990000Y-69083000D01*
X136990000Y-69083000D02*
X147490000Y-69083000D01*
X136990000Y-64142000D02*
X147490000Y-64142000D01*
G04 #@! TO.C,J_OUT2*
X152340000Y-91500000D02*
X157540000Y-91500000D01*
X152340000Y-81280000D02*
X152340000Y-91500000D01*
X157540000Y-78680000D02*
X157540000Y-91500000D01*
X152340000Y-81280000D02*
X154940000Y-81280000D01*
X154940000Y-81280000D02*
X154940000Y-78680000D01*
X154940000Y-78680000D02*
X157540000Y-78680000D01*
X152340000Y-80010000D02*
X152340000Y-78680000D01*
X152340000Y-78680000D02*
X153670000Y-78680000D01*
G04 #@! TO.C,J_PWR1*
X116265000Y-67624000D02*
X116265000Y-64964000D01*
X113665000Y-67624000D02*
X116265000Y-67624000D01*
X113665000Y-64964000D02*
X116265000Y-64964000D01*
X113665000Y-67624000D02*
X113665000Y-64964000D01*
X112395000Y-67624000D02*
X111065000Y-67624000D01*
X111065000Y-67624000D02*
X111065000Y-66294000D01*
G04 #@! TO.C,C_NEG1*
X124594252Y-90880000D02*
X124071748Y-90880000D01*
X124594252Y-89460000D02*
X124071748Y-89460000D01*
G04 #@! TO.C,C_NEG2*
X128185000Y-119846000D02*
X132735000Y-119846000D01*
X147405000Y-119846000D02*
X142855000Y-119846000D01*
X147405000Y-101690437D02*
X147405000Y-119846000D01*
X128185000Y-101690437D02*
X128185000Y-119846000D01*
X129249437Y-100626000D02*
X132735000Y-100626000D01*
X146340563Y-100626000D02*
X142855000Y-100626000D01*
X146340563Y-100626000D02*
X147405000Y-101690437D01*
X129249437Y-100626000D02*
X128185000Y-101690437D01*
X145105000Y-98136000D02*
X145105000Y-100386000D01*
X146230000Y-99261000D02*
X143980000Y-99261000D01*
G04 #@! TO.C,C_NEG3*
X124005000Y-99261000D02*
X121755000Y-99261000D01*
X122880000Y-98136000D02*
X122880000Y-100386000D01*
X107024437Y-100626000D02*
X105960000Y-101690437D01*
X124115563Y-100626000D02*
X125180000Y-101690437D01*
X124115563Y-100626000D02*
X120630000Y-100626000D01*
X107024437Y-100626000D02*
X110510000Y-100626000D01*
X105960000Y-101690437D02*
X105960000Y-119846000D01*
X125180000Y-101690437D02*
X125180000Y-119846000D01*
X125180000Y-119846000D02*
X120630000Y-119846000D01*
X105960000Y-119846000D02*
X110510000Y-119846000D01*
G04 #@! TO.C,C_NEG4*
X125180000Y-130090000D02*
X120630000Y-130090000D01*
X105960000Y-130090000D02*
X110510000Y-130090000D01*
X105960000Y-148245563D02*
X105960000Y-130090000D01*
X125180000Y-148245563D02*
X125180000Y-130090000D01*
X124115563Y-149310000D02*
X120630000Y-149310000D01*
X107024437Y-149310000D02*
X110510000Y-149310000D01*
X107024437Y-149310000D02*
X105960000Y-148245563D01*
X124115563Y-149310000D02*
X125180000Y-148245563D01*
X108260000Y-151800000D02*
X108260000Y-149550000D01*
X107135000Y-150675000D02*
X109385000Y-150675000D01*
G04 #@! TO.C,C_NEG5*
X129360000Y-150929000D02*
X131610000Y-150929000D01*
X130485000Y-152054000D02*
X130485000Y-149804000D01*
X146340563Y-149564000D02*
X147405000Y-148499563D01*
X129249437Y-149564000D02*
X128185000Y-148499563D01*
X129249437Y-149564000D02*
X132735000Y-149564000D01*
X146340563Y-149564000D02*
X142855000Y-149564000D01*
X147405000Y-148499563D02*
X147405000Y-130344000D01*
X128185000Y-148499563D02*
X128185000Y-130344000D01*
X128185000Y-130344000D02*
X132735000Y-130344000D01*
X147405000Y-130344000D02*
X142855000Y-130344000D01*
G04 #@! TO.C,C_POS1*
X172585748Y-91007000D02*
X173108252Y-91007000D01*
X172585748Y-89587000D02*
X173108252Y-89587000D01*
G04 #@! TO.C,C_POS2*
X168455000Y-128979000D02*
X166205000Y-128979000D01*
X167330000Y-127854000D02*
X167330000Y-130104000D01*
X151474437Y-130344000D02*
X150410000Y-131408437D01*
X168565563Y-130344000D02*
X169630000Y-131408437D01*
X168565563Y-130344000D02*
X165080000Y-130344000D01*
X151474437Y-130344000D02*
X154960000Y-130344000D01*
X150410000Y-131408437D02*
X150410000Y-149564000D01*
X169630000Y-131408437D02*
X169630000Y-149564000D01*
X169630000Y-149564000D02*
X165080000Y-149564000D01*
X150410000Y-149564000D02*
X154960000Y-149564000D01*
G04 #@! TO.C,C_POS3*
X169630000Y-100626000D02*
X165080000Y-100626000D01*
X150410000Y-100626000D02*
X154960000Y-100626000D01*
X150410000Y-118781563D02*
X150410000Y-100626000D01*
X169630000Y-118781563D02*
X169630000Y-100626000D01*
X168565563Y-119846000D02*
X165080000Y-119846000D01*
X151474437Y-119846000D02*
X154960000Y-119846000D01*
X151474437Y-119846000D02*
X150410000Y-118781563D01*
X168565563Y-119846000D02*
X169630000Y-118781563D01*
X152710000Y-122336000D02*
X152710000Y-120086000D01*
X151585000Y-121211000D02*
X153835000Y-121211000D01*
G04 #@! TO.C,C_POS4*
X190045000Y-128979000D02*
X187795000Y-128979000D01*
X188920000Y-127854000D02*
X188920000Y-130104000D01*
X173064437Y-130344000D02*
X172000000Y-131408437D01*
X190155563Y-130344000D02*
X191220000Y-131408437D01*
X190155563Y-130344000D02*
X186670000Y-130344000D01*
X173064437Y-130344000D02*
X176550000Y-130344000D01*
X172000000Y-131408437D02*
X172000000Y-149564000D01*
X191220000Y-131408437D02*
X191220000Y-149564000D01*
X191220000Y-149564000D02*
X186670000Y-149564000D01*
X172000000Y-149564000D02*
X176550000Y-149564000D01*
G04 #@! TO.C,C_POS5*
X191220000Y-100626000D02*
X186670000Y-100626000D01*
X172000000Y-100626000D02*
X176550000Y-100626000D01*
X172000000Y-118781563D02*
X172000000Y-100626000D01*
X191220000Y-118781563D02*
X191220000Y-100626000D01*
X190155563Y-119846000D02*
X186670000Y-119846000D01*
X173064437Y-119846000D02*
X176550000Y-119846000D01*
X173064437Y-119846000D02*
X172000000Y-118781563D01*
X190155563Y-119846000D02*
X191220000Y-118781563D01*
X174300000Y-122336000D02*
X174300000Y-120086000D01*
X173175000Y-121211000D02*
X175425000Y-121211000D01*
G04 #@! TO.C,D_NEG4*
X112725000Y-89035000D02*
X108665000Y-89035000D01*
X108665000Y-89035000D02*
X108665000Y-91305000D01*
X108665000Y-91305000D02*
X112725000Y-91305000D01*
G04 #@! TO.C,D_POS4*
X184039500Y-91432000D02*
X188099500Y-91432000D01*
X184039500Y-89162000D02*
X184039500Y-91432000D01*
X188099500Y-89162000D02*
X184039500Y-89162000D01*
G04 #@! TO.C,R_NEG1*
X102989748Y-89460000D02*
X103512252Y-89460000D01*
X102989748Y-90880000D02*
X103512252Y-90880000D01*
G04 #@! TO.C,R_POS1*
X194190252Y-89587000D02*
X193667748Y-89587000D01*
X194190252Y-91007000D02*
X193667748Y-91007000D01*
G04 #@! TO.C,D_NEG1*
X132206000Y-73070000D02*
X132206000Y-79970000D01*
X128906000Y-73070000D02*
X128906000Y-79970000D01*
X132206000Y-73070000D02*
X128906000Y-73070000D01*
G04 #@! TO.C,D_NEG2*
X121641600Y-81870000D02*
X124941600Y-81870000D01*
X124941600Y-81870000D02*
X124941600Y-74970000D01*
X121641600Y-81870000D02*
X121641600Y-74970000D01*
G04 #@! TO.C,D_NEG3*
X117728000Y-73070000D02*
X114428000Y-73070000D01*
X114428000Y-73070000D02*
X114428000Y-79970000D01*
X117728000Y-73070000D02*
X117728000Y-79970000D01*
G04 #@! TO.C,D_POS1*
X163907200Y-81235000D02*
X167207200Y-81235000D01*
X167207200Y-81235000D02*
X167207200Y-74335000D01*
X163907200Y-81235000D02*
X163907200Y-74335000D01*
G04 #@! TO.C,D_POS2*
X174725600Y-72358800D02*
X174725600Y-79258800D01*
X171425600Y-72358800D02*
X171425600Y-79258800D01*
X174725600Y-72358800D02*
X171425600Y-72358800D01*
G04 #@! TO.C,D_POS3*
X177928000Y-81108000D02*
X177928000Y-74208000D01*
X181228000Y-81108000D02*
X181228000Y-74208000D01*
X177928000Y-81108000D02*
X181228000Y-81108000D01*
G04 #@! TO.C,C_NEG6*
X108495000Y-71345000D02*
X107245000Y-71345000D01*
X107870000Y-70720000D02*
X107870000Y-71970000D01*
X101214437Y-72210000D02*
X100150000Y-73274437D01*
X109605563Y-72210000D02*
X110670000Y-73274437D01*
X109605563Y-72210000D02*
X106620000Y-72210000D01*
X101214437Y-72210000D02*
X104200000Y-72210000D01*
X100150000Y-73274437D02*
X100150000Y-82730000D01*
X110670000Y-73274437D02*
X110670000Y-82730000D01*
X110670000Y-82730000D02*
X106620000Y-82730000D01*
X100150000Y-82730000D02*
X104200000Y-82730000D01*
G04 #@! TO.C,C_POS6*
X196268000Y-71575000D02*
X192218000Y-71575000D01*
X185748000Y-71575000D02*
X189798000Y-71575000D01*
X185748000Y-81030563D02*
X185748000Y-71575000D01*
X196268000Y-81030563D02*
X196268000Y-71575000D01*
X195203563Y-82095000D02*
X192218000Y-82095000D01*
X186812437Y-82095000D02*
X189798000Y-82095000D01*
X186812437Y-82095000D02*
X185748000Y-81030563D01*
X195203563Y-82095000D02*
X196268000Y-81030563D01*
X188548000Y-83585000D02*
X188548000Y-82335000D01*
X187923000Y-82960000D02*
X189173000Y-82960000D01*
G04 #@! TO.C,U_POSREG1*
D17*
X153936904Y-69630952D02*
X153936904Y-69954761D01*
X153955952Y-69992857D01*
X153975000Y-70011904D01*
X154013095Y-70030952D01*
X154089285Y-70030952D01*
X154127380Y-70011904D01*
X154146428Y-69992857D01*
X154165476Y-69954761D01*
X154165476Y-69630952D01*
X154260714Y-70069047D02*
X154565476Y-70069047D01*
X154660714Y-70030952D02*
X154660714Y-69630952D01*
X154813095Y-69630952D01*
X154851190Y-69650000D01*
X154870238Y-69669047D01*
X154889285Y-69707142D01*
X154889285Y-69764285D01*
X154870238Y-69802380D01*
X154851190Y-69821428D01*
X154813095Y-69840476D01*
X154660714Y-69840476D01*
X155136904Y-69630952D02*
X155213095Y-69630952D01*
X155251190Y-69650000D01*
X155289285Y-69688095D01*
X155308333Y-69764285D01*
X155308333Y-69897619D01*
X155289285Y-69973809D01*
X155251190Y-70011904D01*
X155213095Y-70030952D01*
X155136904Y-70030952D01*
X155098809Y-70011904D01*
X155060714Y-69973809D01*
X155041666Y-69897619D01*
X155041666Y-69764285D01*
X155060714Y-69688095D01*
X155098809Y-69650000D01*
X155136904Y-69630952D01*
X155460714Y-70011904D02*
X155517857Y-70030952D01*
X155613095Y-70030952D01*
X155651190Y-70011904D01*
X155670238Y-69992857D01*
X155689285Y-69954761D01*
X155689285Y-69916666D01*
X155670238Y-69878571D01*
X155651190Y-69859523D01*
X155613095Y-69840476D01*
X155536904Y-69821428D01*
X155498809Y-69802380D01*
X155479761Y-69783333D01*
X155460714Y-69745238D01*
X155460714Y-69707142D01*
X155479761Y-69669047D01*
X155498809Y-69650000D01*
X155536904Y-69630952D01*
X155632142Y-69630952D01*
X155689285Y-69650000D01*
X156089285Y-70030952D02*
X155955952Y-69840476D01*
X155860714Y-70030952D02*
X155860714Y-69630952D01*
X156013095Y-69630952D01*
X156051190Y-69650000D01*
X156070238Y-69669047D01*
X156089285Y-69707142D01*
X156089285Y-69764285D01*
X156070238Y-69802380D01*
X156051190Y-69821428D01*
X156013095Y-69840476D01*
X155860714Y-69840476D01*
X156260714Y-69821428D02*
X156394047Y-69821428D01*
X156451190Y-70030952D02*
X156260714Y-70030952D01*
X156260714Y-69630952D01*
X156451190Y-69630952D01*
X156832142Y-69650000D02*
X156794047Y-69630952D01*
X156736904Y-69630952D01*
X156679761Y-69650000D01*
X156641666Y-69688095D01*
X156622619Y-69726190D01*
X156603571Y-69802380D01*
X156603571Y-69859523D01*
X156622619Y-69935714D01*
X156641666Y-69973809D01*
X156679761Y-70011904D01*
X156736904Y-70030952D01*
X156775000Y-70030952D01*
X156832142Y-70011904D01*
X156851190Y-69992857D01*
X156851190Y-69859523D01*
X156775000Y-69859523D01*
X157232142Y-70030952D02*
X157003571Y-70030952D01*
X157117857Y-70030952D02*
X157117857Y-69630952D01*
X157079761Y-69688095D01*
X157041666Y-69726190D01*
X157003571Y-69745238D01*
G04 #@! TO.C,J_OUT1*
X142144857Y-77250952D02*
X142144857Y-77536666D01*
X142125809Y-77593809D01*
X142087714Y-77631904D01*
X142030571Y-77650952D01*
X141992476Y-77650952D01*
X142240095Y-77689047D02*
X142544857Y-77689047D01*
X142716285Y-77250952D02*
X142792476Y-77250952D01*
X142830571Y-77270000D01*
X142868666Y-77308095D01*
X142887714Y-77384285D01*
X142887714Y-77517619D01*
X142868666Y-77593809D01*
X142830571Y-77631904D01*
X142792476Y-77650952D01*
X142716285Y-77650952D01*
X142678190Y-77631904D01*
X142640095Y-77593809D01*
X142621047Y-77517619D01*
X142621047Y-77384285D01*
X142640095Y-77308095D01*
X142678190Y-77270000D01*
X142716285Y-77250952D01*
X143059142Y-77250952D02*
X143059142Y-77574761D01*
X143078190Y-77612857D01*
X143097238Y-77631904D01*
X143135333Y-77650952D01*
X143211523Y-77650952D01*
X143249619Y-77631904D01*
X143268666Y-77612857D01*
X143287714Y-77574761D01*
X143287714Y-77250952D01*
X143421047Y-77250952D02*
X143649619Y-77250952D01*
X143535333Y-77650952D02*
X143535333Y-77250952D01*
X143992476Y-77650952D02*
X143763904Y-77650952D01*
X143878190Y-77650952D02*
X143878190Y-77250952D01*
X143840095Y-77308095D01*
X143802000Y-77346190D01*
X143763904Y-77365238D01*
G04 #@! TO.C,U_NEGREG1*
X140357428Y-69630952D02*
X140357428Y-69954761D01*
X140376476Y-69992857D01*
X140395523Y-70011904D01*
X140433619Y-70030952D01*
X140509809Y-70030952D01*
X140547904Y-70011904D01*
X140566952Y-69992857D01*
X140586000Y-69954761D01*
X140586000Y-69630952D01*
X140681238Y-70069047D02*
X140986000Y-70069047D01*
X141081238Y-70030952D02*
X141081238Y-69630952D01*
X141309809Y-70030952D01*
X141309809Y-69630952D01*
X141500285Y-69821428D02*
X141633619Y-69821428D01*
X141690761Y-70030952D02*
X141500285Y-70030952D01*
X141500285Y-69630952D01*
X141690761Y-69630952D01*
X142071714Y-69650000D02*
X142033619Y-69630952D01*
X141976476Y-69630952D01*
X141919333Y-69650000D01*
X141881238Y-69688095D01*
X141862190Y-69726190D01*
X141843142Y-69802380D01*
X141843142Y-69859523D01*
X141862190Y-69935714D01*
X141881238Y-69973809D01*
X141919333Y-70011904D01*
X141976476Y-70030952D01*
X142014571Y-70030952D01*
X142071714Y-70011904D01*
X142090761Y-69992857D01*
X142090761Y-69859523D01*
X142014571Y-69859523D01*
X142490761Y-70030952D02*
X142357428Y-69840476D01*
X142262190Y-70030952D02*
X142262190Y-69630952D01*
X142414571Y-69630952D01*
X142452666Y-69650000D01*
X142471714Y-69669047D01*
X142490761Y-69707142D01*
X142490761Y-69764285D01*
X142471714Y-69802380D01*
X142452666Y-69821428D01*
X142414571Y-69840476D01*
X142262190Y-69840476D01*
X142662190Y-69821428D02*
X142795523Y-69821428D01*
X142852666Y-70030952D02*
X142662190Y-70030952D01*
X142662190Y-69630952D01*
X142852666Y-69630952D01*
X143233619Y-69650000D02*
X143195523Y-69630952D01*
X143138380Y-69630952D01*
X143081238Y-69650000D01*
X143043142Y-69688095D01*
X143024095Y-69726190D01*
X143005047Y-69802380D01*
X143005047Y-69859523D01*
X143024095Y-69935714D01*
X143043142Y-69973809D01*
X143081238Y-70011904D01*
X143138380Y-70030952D01*
X143176476Y-70030952D01*
X143233619Y-70011904D01*
X143252666Y-69992857D01*
X143252666Y-69859523D01*
X143176476Y-69859523D01*
X143633619Y-70030952D02*
X143405047Y-70030952D01*
X143519333Y-70030952D02*
X143519333Y-69630952D01*
X143481238Y-69688095D01*
X143443142Y-69726190D01*
X143405047Y-69745238D01*
G04 #@! TO.C,J_OUT2*
X154082857Y-77250952D02*
X154082857Y-77536666D01*
X154063809Y-77593809D01*
X154025714Y-77631904D01*
X153968571Y-77650952D01*
X153930476Y-77650952D01*
X154178095Y-77689047D02*
X154482857Y-77689047D01*
X154654285Y-77250952D02*
X154730476Y-77250952D01*
X154768571Y-77270000D01*
X154806666Y-77308095D01*
X154825714Y-77384285D01*
X154825714Y-77517619D01*
X154806666Y-77593809D01*
X154768571Y-77631904D01*
X154730476Y-77650952D01*
X154654285Y-77650952D01*
X154616190Y-77631904D01*
X154578095Y-77593809D01*
X154559047Y-77517619D01*
X154559047Y-77384285D01*
X154578095Y-77308095D01*
X154616190Y-77270000D01*
X154654285Y-77250952D01*
X154997142Y-77250952D02*
X154997142Y-77574761D01*
X155016190Y-77612857D01*
X155035238Y-77631904D01*
X155073333Y-77650952D01*
X155149523Y-77650952D01*
X155187619Y-77631904D01*
X155206666Y-77612857D01*
X155225714Y-77574761D01*
X155225714Y-77250952D01*
X155359047Y-77250952D02*
X155587619Y-77250952D01*
X155473333Y-77650952D02*
X155473333Y-77250952D01*
X155701904Y-77289047D02*
X155720952Y-77270000D01*
X155759047Y-77250952D01*
X155854285Y-77250952D01*
X155892380Y-77270000D01*
X155911428Y-77289047D01*
X155930476Y-77327142D01*
X155930476Y-77365238D01*
X155911428Y-77422380D01*
X155682857Y-77650952D01*
X155930476Y-77650952D01*
G04 #@! TO.C,J_PWR1*
X111607714Y-63153952D02*
X111607714Y-63439666D01*
X111588666Y-63496809D01*
X111550571Y-63534904D01*
X111493428Y-63553952D01*
X111455333Y-63553952D01*
X111702952Y-63592047D02*
X112007714Y-63592047D01*
X112102952Y-63553952D02*
X112102952Y-63153952D01*
X112255333Y-63153952D01*
X112293428Y-63173000D01*
X112312476Y-63192047D01*
X112331523Y-63230142D01*
X112331523Y-63287285D01*
X112312476Y-63325380D01*
X112293428Y-63344428D01*
X112255333Y-63363476D01*
X112102952Y-63363476D01*
X112464857Y-63153952D02*
X112560095Y-63553952D01*
X112636285Y-63268238D01*
X112712476Y-63553952D01*
X112807714Y-63153952D01*
X113188666Y-63553952D02*
X113055333Y-63363476D01*
X112960095Y-63553952D02*
X112960095Y-63153952D01*
X113112476Y-63153952D01*
X113150571Y-63173000D01*
X113169619Y-63192047D01*
X113188666Y-63230142D01*
X113188666Y-63287285D01*
X113169619Y-63325380D01*
X113150571Y-63344428D01*
X113112476Y-63363476D01*
X112960095Y-63363476D01*
X113569619Y-63553952D02*
X113341047Y-63553952D01*
X113455333Y-63553952D02*
X113455333Y-63153952D01*
X113417238Y-63211095D01*
X113379142Y-63249190D01*
X113341047Y-63268238D01*
G04 #@! TO.C,C_NEG1*
X123523476Y-88534857D02*
X123504428Y-88553904D01*
X123447285Y-88572952D01*
X123409190Y-88572952D01*
X123352047Y-88553904D01*
X123313952Y-88515809D01*
X123294904Y-88477714D01*
X123275857Y-88401523D01*
X123275857Y-88344380D01*
X123294904Y-88268190D01*
X123313952Y-88230095D01*
X123352047Y-88192000D01*
X123409190Y-88172952D01*
X123447285Y-88172952D01*
X123504428Y-88192000D01*
X123523476Y-88211047D01*
X123599666Y-88611047D02*
X123904428Y-88611047D01*
X123999666Y-88572952D02*
X123999666Y-88172952D01*
X124228238Y-88572952D01*
X124228238Y-88172952D01*
X124418714Y-88363428D02*
X124552047Y-88363428D01*
X124609190Y-88572952D02*
X124418714Y-88572952D01*
X124418714Y-88172952D01*
X124609190Y-88172952D01*
X124990142Y-88192000D02*
X124952047Y-88172952D01*
X124894904Y-88172952D01*
X124837761Y-88192000D01*
X124799666Y-88230095D01*
X124780619Y-88268190D01*
X124761571Y-88344380D01*
X124761571Y-88401523D01*
X124780619Y-88477714D01*
X124799666Y-88515809D01*
X124837761Y-88553904D01*
X124894904Y-88572952D01*
X124933000Y-88572952D01*
X124990142Y-88553904D01*
X125009190Y-88534857D01*
X125009190Y-88401523D01*
X124933000Y-88401523D01*
X125390142Y-88572952D02*
X125161571Y-88572952D01*
X125275857Y-88572952D02*
X125275857Y-88172952D01*
X125237761Y-88230095D01*
X125199666Y-88268190D01*
X125161571Y-88287238D01*
G04 #@! TO.C,C_NEG2*
X129746476Y-99583857D02*
X129727428Y-99602904D01*
X129670285Y-99621952D01*
X129632190Y-99621952D01*
X129575047Y-99602904D01*
X129536952Y-99564809D01*
X129517904Y-99526714D01*
X129498857Y-99450523D01*
X129498857Y-99393380D01*
X129517904Y-99317190D01*
X129536952Y-99279095D01*
X129575047Y-99241000D01*
X129632190Y-99221952D01*
X129670285Y-99221952D01*
X129727428Y-99241000D01*
X129746476Y-99260047D01*
X129822666Y-99660047D02*
X130127428Y-99660047D01*
X130222666Y-99621952D02*
X130222666Y-99221952D01*
X130451238Y-99621952D01*
X130451238Y-99221952D01*
X130641714Y-99412428D02*
X130775047Y-99412428D01*
X130832190Y-99621952D02*
X130641714Y-99621952D01*
X130641714Y-99221952D01*
X130832190Y-99221952D01*
X131213142Y-99241000D02*
X131175047Y-99221952D01*
X131117904Y-99221952D01*
X131060761Y-99241000D01*
X131022666Y-99279095D01*
X131003619Y-99317190D01*
X130984571Y-99393380D01*
X130984571Y-99450523D01*
X131003619Y-99526714D01*
X131022666Y-99564809D01*
X131060761Y-99602904D01*
X131117904Y-99621952D01*
X131156000Y-99621952D01*
X131213142Y-99602904D01*
X131232190Y-99583857D01*
X131232190Y-99450523D01*
X131156000Y-99450523D01*
X131384571Y-99260047D02*
X131403619Y-99241000D01*
X131441714Y-99221952D01*
X131536952Y-99221952D01*
X131575047Y-99241000D01*
X131594095Y-99260047D01*
X131613142Y-99298142D01*
X131613142Y-99336238D01*
X131594095Y-99393380D01*
X131365523Y-99621952D01*
X131613142Y-99621952D01*
G04 #@! TO.C,C_NEG3*
X106886476Y-99583857D02*
X106867428Y-99602904D01*
X106810285Y-99621952D01*
X106772190Y-99621952D01*
X106715047Y-99602904D01*
X106676952Y-99564809D01*
X106657904Y-99526714D01*
X106638857Y-99450523D01*
X106638857Y-99393380D01*
X106657904Y-99317190D01*
X106676952Y-99279095D01*
X106715047Y-99241000D01*
X106772190Y-99221952D01*
X106810285Y-99221952D01*
X106867428Y-99241000D01*
X106886476Y-99260047D01*
X106962666Y-99660047D02*
X107267428Y-99660047D01*
X107362666Y-99621952D02*
X107362666Y-99221952D01*
X107591238Y-99621952D01*
X107591238Y-99221952D01*
X107781714Y-99412428D02*
X107915047Y-99412428D01*
X107972190Y-99621952D02*
X107781714Y-99621952D01*
X107781714Y-99221952D01*
X107972190Y-99221952D01*
X108353142Y-99241000D02*
X108315047Y-99221952D01*
X108257904Y-99221952D01*
X108200761Y-99241000D01*
X108162666Y-99279095D01*
X108143619Y-99317190D01*
X108124571Y-99393380D01*
X108124571Y-99450523D01*
X108143619Y-99526714D01*
X108162666Y-99564809D01*
X108200761Y-99602904D01*
X108257904Y-99621952D01*
X108296000Y-99621952D01*
X108353142Y-99602904D01*
X108372190Y-99583857D01*
X108372190Y-99450523D01*
X108296000Y-99450523D01*
X108505523Y-99221952D02*
X108753142Y-99221952D01*
X108619809Y-99374333D01*
X108676952Y-99374333D01*
X108715047Y-99393380D01*
X108734095Y-99412428D01*
X108753142Y-99450523D01*
X108753142Y-99545761D01*
X108734095Y-99583857D01*
X108715047Y-99602904D01*
X108676952Y-99621952D01*
X108562666Y-99621952D01*
X108524571Y-99602904D01*
X108505523Y-99583857D01*
G04 #@! TO.C,C_NEG4*
X122253476Y-150510857D02*
X122234428Y-150529904D01*
X122177285Y-150548952D01*
X122139190Y-150548952D01*
X122082047Y-150529904D01*
X122043952Y-150491809D01*
X122024904Y-150453714D01*
X122005857Y-150377523D01*
X122005857Y-150320380D01*
X122024904Y-150244190D01*
X122043952Y-150206095D01*
X122082047Y-150168000D01*
X122139190Y-150148952D01*
X122177285Y-150148952D01*
X122234428Y-150168000D01*
X122253476Y-150187047D01*
X122329666Y-150587047D02*
X122634428Y-150587047D01*
X122729666Y-150548952D02*
X122729666Y-150148952D01*
X122958238Y-150548952D01*
X122958238Y-150148952D01*
X123148714Y-150339428D02*
X123282047Y-150339428D01*
X123339190Y-150548952D02*
X123148714Y-150548952D01*
X123148714Y-150148952D01*
X123339190Y-150148952D01*
X123720142Y-150168000D02*
X123682047Y-150148952D01*
X123624904Y-150148952D01*
X123567761Y-150168000D01*
X123529666Y-150206095D01*
X123510619Y-150244190D01*
X123491571Y-150320380D01*
X123491571Y-150377523D01*
X123510619Y-150453714D01*
X123529666Y-150491809D01*
X123567761Y-150529904D01*
X123624904Y-150548952D01*
X123663000Y-150548952D01*
X123720142Y-150529904D01*
X123739190Y-150510857D01*
X123739190Y-150377523D01*
X123663000Y-150377523D01*
X124082047Y-150282285D02*
X124082047Y-150548952D01*
X123986809Y-150129904D02*
X123891571Y-150415619D01*
X124139190Y-150415619D01*
G04 #@! TO.C,C_NEG5*
X144605476Y-150764857D02*
X144586428Y-150783904D01*
X144529285Y-150802952D01*
X144491190Y-150802952D01*
X144434047Y-150783904D01*
X144395952Y-150745809D01*
X144376904Y-150707714D01*
X144357857Y-150631523D01*
X144357857Y-150574380D01*
X144376904Y-150498190D01*
X144395952Y-150460095D01*
X144434047Y-150422000D01*
X144491190Y-150402952D01*
X144529285Y-150402952D01*
X144586428Y-150422000D01*
X144605476Y-150441047D01*
X144681666Y-150841047D02*
X144986428Y-150841047D01*
X145081666Y-150802952D02*
X145081666Y-150402952D01*
X145310238Y-150802952D01*
X145310238Y-150402952D01*
X145500714Y-150593428D02*
X145634047Y-150593428D01*
X145691190Y-150802952D02*
X145500714Y-150802952D01*
X145500714Y-150402952D01*
X145691190Y-150402952D01*
X146072142Y-150422000D02*
X146034047Y-150402952D01*
X145976904Y-150402952D01*
X145919761Y-150422000D01*
X145881666Y-150460095D01*
X145862619Y-150498190D01*
X145843571Y-150574380D01*
X145843571Y-150631523D01*
X145862619Y-150707714D01*
X145881666Y-150745809D01*
X145919761Y-150783904D01*
X145976904Y-150802952D01*
X146015000Y-150802952D01*
X146072142Y-150783904D01*
X146091190Y-150764857D01*
X146091190Y-150631523D01*
X146015000Y-150631523D01*
X146453095Y-150402952D02*
X146262619Y-150402952D01*
X146243571Y-150593428D01*
X146262619Y-150574380D01*
X146300714Y-150555333D01*
X146395952Y-150555333D01*
X146434047Y-150574380D01*
X146453095Y-150593428D01*
X146472142Y-150631523D01*
X146472142Y-150726761D01*
X146453095Y-150764857D01*
X146434047Y-150783904D01*
X146395952Y-150802952D01*
X146300714Y-150802952D01*
X146262619Y-150783904D01*
X146243571Y-150764857D01*
G04 #@! TO.C,C_POS1*
X172027952Y-88789857D02*
X172008904Y-88808904D01*
X171951761Y-88827952D01*
X171913666Y-88827952D01*
X171856523Y-88808904D01*
X171818428Y-88770809D01*
X171799380Y-88732714D01*
X171780333Y-88656523D01*
X171780333Y-88599380D01*
X171799380Y-88523190D01*
X171818428Y-88485095D01*
X171856523Y-88447000D01*
X171913666Y-88427952D01*
X171951761Y-88427952D01*
X172008904Y-88447000D01*
X172027952Y-88466047D01*
X172104142Y-88866047D02*
X172408904Y-88866047D01*
X172504142Y-88827952D02*
X172504142Y-88427952D01*
X172656523Y-88427952D01*
X172694619Y-88447000D01*
X172713666Y-88466047D01*
X172732714Y-88504142D01*
X172732714Y-88561285D01*
X172713666Y-88599380D01*
X172694619Y-88618428D01*
X172656523Y-88637476D01*
X172504142Y-88637476D01*
X172980333Y-88427952D02*
X173056523Y-88427952D01*
X173094619Y-88447000D01*
X173132714Y-88485095D01*
X173151761Y-88561285D01*
X173151761Y-88694619D01*
X173132714Y-88770809D01*
X173094619Y-88808904D01*
X173056523Y-88827952D01*
X172980333Y-88827952D01*
X172942238Y-88808904D01*
X172904142Y-88770809D01*
X172885095Y-88694619D01*
X172885095Y-88561285D01*
X172904142Y-88485095D01*
X172942238Y-88447000D01*
X172980333Y-88427952D01*
X173304142Y-88808904D02*
X173361285Y-88827952D01*
X173456523Y-88827952D01*
X173494619Y-88808904D01*
X173513666Y-88789857D01*
X173532714Y-88751761D01*
X173532714Y-88713666D01*
X173513666Y-88675571D01*
X173494619Y-88656523D01*
X173456523Y-88637476D01*
X173380333Y-88618428D01*
X173342238Y-88599380D01*
X173323190Y-88580333D01*
X173304142Y-88542238D01*
X173304142Y-88504142D01*
X173323190Y-88466047D01*
X173342238Y-88447000D01*
X173380333Y-88427952D01*
X173475571Y-88427952D01*
X173532714Y-88447000D01*
X173913666Y-88827952D02*
X173685095Y-88827952D01*
X173799380Y-88827952D02*
X173799380Y-88427952D01*
X173761285Y-88485095D01*
X173723190Y-88523190D01*
X173685095Y-88542238D01*
G04 #@! TO.C,C_POS2*
X166820952Y-150764857D02*
X166801904Y-150783904D01*
X166744761Y-150802952D01*
X166706666Y-150802952D01*
X166649523Y-150783904D01*
X166611428Y-150745809D01*
X166592380Y-150707714D01*
X166573333Y-150631523D01*
X166573333Y-150574380D01*
X166592380Y-150498190D01*
X166611428Y-150460095D01*
X166649523Y-150422000D01*
X166706666Y-150402952D01*
X166744761Y-150402952D01*
X166801904Y-150422000D01*
X166820952Y-150441047D01*
X166897142Y-150841047D02*
X167201904Y-150841047D01*
X167297142Y-150802952D02*
X167297142Y-150402952D01*
X167449523Y-150402952D01*
X167487619Y-150422000D01*
X167506666Y-150441047D01*
X167525714Y-150479142D01*
X167525714Y-150536285D01*
X167506666Y-150574380D01*
X167487619Y-150593428D01*
X167449523Y-150612476D01*
X167297142Y-150612476D01*
X167773333Y-150402952D02*
X167849523Y-150402952D01*
X167887619Y-150422000D01*
X167925714Y-150460095D01*
X167944761Y-150536285D01*
X167944761Y-150669619D01*
X167925714Y-150745809D01*
X167887619Y-150783904D01*
X167849523Y-150802952D01*
X167773333Y-150802952D01*
X167735238Y-150783904D01*
X167697142Y-150745809D01*
X167678095Y-150669619D01*
X167678095Y-150536285D01*
X167697142Y-150460095D01*
X167735238Y-150422000D01*
X167773333Y-150402952D01*
X168097142Y-150783904D02*
X168154285Y-150802952D01*
X168249523Y-150802952D01*
X168287619Y-150783904D01*
X168306666Y-150764857D01*
X168325714Y-150726761D01*
X168325714Y-150688666D01*
X168306666Y-150650571D01*
X168287619Y-150631523D01*
X168249523Y-150612476D01*
X168173333Y-150593428D01*
X168135238Y-150574380D01*
X168116190Y-150555333D01*
X168097142Y-150517238D01*
X168097142Y-150479142D01*
X168116190Y-150441047D01*
X168135238Y-150422000D01*
X168173333Y-150402952D01*
X168268571Y-150402952D01*
X168325714Y-150422000D01*
X168478095Y-150441047D02*
X168497142Y-150422000D01*
X168535238Y-150402952D01*
X168630476Y-150402952D01*
X168668571Y-150422000D01*
X168687619Y-150441047D01*
X168706666Y-150479142D01*
X168706666Y-150517238D01*
X168687619Y-150574380D01*
X168459047Y-150802952D01*
X168706666Y-150802952D01*
G04 #@! TO.C,C_POS3*
X166439952Y-99837857D02*
X166420904Y-99856904D01*
X166363761Y-99875952D01*
X166325666Y-99875952D01*
X166268523Y-99856904D01*
X166230428Y-99818809D01*
X166211380Y-99780714D01*
X166192333Y-99704523D01*
X166192333Y-99647380D01*
X166211380Y-99571190D01*
X166230428Y-99533095D01*
X166268523Y-99495000D01*
X166325666Y-99475952D01*
X166363761Y-99475952D01*
X166420904Y-99495000D01*
X166439952Y-99514047D01*
X166516142Y-99914047D02*
X166820904Y-99914047D01*
X166916142Y-99875952D02*
X166916142Y-99475952D01*
X167068523Y-99475952D01*
X167106619Y-99495000D01*
X167125666Y-99514047D01*
X167144714Y-99552142D01*
X167144714Y-99609285D01*
X167125666Y-99647380D01*
X167106619Y-99666428D01*
X167068523Y-99685476D01*
X166916142Y-99685476D01*
X167392333Y-99475952D02*
X167468523Y-99475952D01*
X167506619Y-99495000D01*
X167544714Y-99533095D01*
X167563761Y-99609285D01*
X167563761Y-99742619D01*
X167544714Y-99818809D01*
X167506619Y-99856904D01*
X167468523Y-99875952D01*
X167392333Y-99875952D01*
X167354238Y-99856904D01*
X167316142Y-99818809D01*
X167297095Y-99742619D01*
X167297095Y-99609285D01*
X167316142Y-99533095D01*
X167354238Y-99495000D01*
X167392333Y-99475952D01*
X167716142Y-99856904D02*
X167773285Y-99875952D01*
X167868523Y-99875952D01*
X167906619Y-99856904D01*
X167925666Y-99837857D01*
X167944714Y-99799761D01*
X167944714Y-99761666D01*
X167925666Y-99723571D01*
X167906619Y-99704523D01*
X167868523Y-99685476D01*
X167792333Y-99666428D01*
X167754238Y-99647380D01*
X167735190Y-99628333D01*
X167716142Y-99590238D01*
X167716142Y-99552142D01*
X167735190Y-99514047D01*
X167754238Y-99495000D01*
X167792333Y-99475952D01*
X167887571Y-99475952D01*
X167944714Y-99495000D01*
X168078047Y-99475952D02*
X168325666Y-99475952D01*
X168192333Y-99628333D01*
X168249476Y-99628333D01*
X168287571Y-99647380D01*
X168306619Y-99666428D01*
X168325666Y-99704523D01*
X168325666Y-99799761D01*
X168306619Y-99837857D01*
X168287571Y-99856904D01*
X168249476Y-99875952D01*
X168135190Y-99875952D01*
X168097095Y-99856904D01*
X168078047Y-99837857D01*
G04 #@! TO.C,C_POS4*
X188664952Y-150764857D02*
X188645904Y-150783904D01*
X188588761Y-150802952D01*
X188550666Y-150802952D01*
X188493523Y-150783904D01*
X188455428Y-150745809D01*
X188436380Y-150707714D01*
X188417333Y-150631523D01*
X188417333Y-150574380D01*
X188436380Y-150498190D01*
X188455428Y-150460095D01*
X188493523Y-150422000D01*
X188550666Y-150402952D01*
X188588761Y-150402952D01*
X188645904Y-150422000D01*
X188664952Y-150441047D01*
X188741142Y-150841047D02*
X189045904Y-150841047D01*
X189141142Y-150802952D02*
X189141142Y-150402952D01*
X189293523Y-150402952D01*
X189331619Y-150422000D01*
X189350666Y-150441047D01*
X189369714Y-150479142D01*
X189369714Y-150536285D01*
X189350666Y-150574380D01*
X189331619Y-150593428D01*
X189293523Y-150612476D01*
X189141142Y-150612476D01*
X189617333Y-150402952D02*
X189693523Y-150402952D01*
X189731619Y-150422000D01*
X189769714Y-150460095D01*
X189788761Y-150536285D01*
X189788761Y-150669619D01*
X189769714Y-150745809D01*
X189731619Y-150783904D01*
X189693523Y-150802952D01*
X189617333Y-150802952D01*
X189579238Y-150783904D01*
X189541142Y-150745809D01*
X189522095Y-150669619D01*
X189522095Y-150536285D01*
X189541142Y-150460095D01*
X189579238Y-150422000D01*
X189617333Y-150402952D01*
X189941142Y-150783904D02*
X189998285Y-150802952D01*
X190093523Y-150802952D01*
X190131619Y-150783904D01*
X190150666Y-150764857D01*
X190169714Y-150726761D01*
X190169714Y-150688666D01*
X190150666Y-150650571D01*
X190131619Y-150631523D01*
X190093523Y-150612476D01*
X190017333Y-150593428D01*
X189979238Y-150574380D01*
X189960190Y-150555333D01*
X189941142Y-150517238D01*
X189941142Y-150479142D01*
X189960190Y-150441047D01*
X189979238Y-150422000D01*
X190017333Y-150402952D01*
X190112571Y-150402952D01*
X190169714Y-150422000D01*
X190512571Y-150536285D02*
X190512571Y-150802952D01*
X190417333Y-150383904D02*
X190322095Y-150669619D01*
X190569714Y-150669619D01*
G04 #@! TO.C,C_POS5*
X188029952Y-99456857D02*
X188010904Y-99475904D01*
X187953761Y-99494952D01*
X187915666Y-99494952D01*
X187858523Y-99475904D01*
X187820428Y-99437809D01*
X187801380Y-99399714D01*
X187782333Y-99323523D01*
X187782333Y-99266380D01*
X187801380Y-99190190D01*
X187820428Y-99152095D01*
X187858523Y-99114000D01*
X187915666Y-99094952D01*
X187953761Y-99094952D01*
X188010904Y-99114000D01*
X188029952Y-99133047D01*
X188106142Y-99533047D02*
X188410904Y-99533047D01*
X188506142Y-99494952D02*
X188506142Y-99094952D01*
X188658523Y-99094952D01*
X188696619Y-99114000D01*
X188715666Y-99133047D01*
X188734714Y-99171142D01*
X188734714Y-99228285D01*
X188715666Y-99266380D01*
X188696619Y-99285428D01*
X188658523Y-99304476D01*
X188506142Y-99304476D01*
X188982333Y-99094952D02*
X189058523Y-99094952D01*
X189096619Y-99114000D01*
X189134714Y-99152095D01*
X189153761Y-99228285D01*
X189153761Y-99361619D01*
X189134714Y-99437809D01*
X189096619Y-99475904D01*
X189058523Y-99494952D01*
X188982333Y-99494952D01*
X188944238Y-99475904D01*
X188906142Y-99437809D01*
X188887095Y-99361619D01*
X188887095Y-99228285D01*
X188906142Y-99152095D01*
X188944238Y-99114000D01*
X188982333Y-99094952D01*
X189306142Y-99475904D02*
X189363285Y-99494952D01*
X189458523Y-99494952D01*
X189496619Y-99475904D01*
X189515666Y-99456857D01*
X189534714Y-99418761D01*
X189534714Y-99380666D01*
X189515666Y-99342571D01*
X189496619Y-99323523D01*
X189458523Y-99304476D01*
X189382333Y-99285428D01*
X189344238Y-99266380D01*
X189325190Y-99247333D01*
X189306142Y-99209238D01*
X189306142Y-99171142D01*
X189325190Y-99133047D01*
X189344238Y-99114000D01*
X189382333Y-99094952D01*
X189477571Y-99094952D01*
X189534714Y-99114000D01*
X189896619Y-99094952D02*
X189706142Y-99094952D01*
X189687095Y-99285428D01*
X189706142Y-99266380D01*
X189744238Y-99247333D01*
X189839476Y-99247333D01*
X189877571Y-99266380D01*
X189896619Y-99285428D01*
X189915666Y-99323523D01*
X189915666Y-99418761D01*
X189896619Y-99456857D01*
X189877571Y-99475904D01*
X189839476Y-99494952D01*
X189744238Y-99494952D01*
X189706142Y-99475904D01*
X189687095Y-99456857D01*
G04 #@! TO.C,D_NEG4*
X110086904Y-88530952D02*
X110086904Y-88130952D01*
X110182142Y-88130952D01*
X110239285Y-88150000D01*
X110277380Y-88188095D01*
X110296428Y-88226190D01*
X110315476Y-88302380D01*
X110315476Y-88359523D01*
X110296428Y-88435714D01*
X110277380Y-88473809D01*
X110239285Y-88511904D01*
X110182142Y-88530952D01*
X110086904Y-88530952D01*
X110391666Y-88569047D02*
X110696428Y-88569047D01*
X110791666Y-88530952D02*
X110791666Y-88130952D01*
X111020238Y-88530952D01*
X111020238Y-88130952D01*
X111210714Y-88321428D02*
X111344047Y-88321428D01*
X111401190Y-88530952D02*
X111210714Y-88530952D01*
X111210714Y-88130952D01*
X111401190Y-88130952D01*
X111782142Y-88150000D02*
X111744047Y-88130952D01*
X111686904Y-88130952D01*
X111629761Y-88150000D01*
X111591666Y-88188095D01*
X111572619Y-88226190D01*
X111553571Y-88302380D01*
X111553571Y-88359523D01*
X111572619Y-88435714D01*
X111591666Y-88473809D01*
X111629761Y-88511904D01*
X111686904Y-88530952D01*
X111725000Y-88530952D01*
X111782142Y-88511904D01*
X111801190Y-88492857D01*
X111801190Y-88359523D01*
X111725000Y-88359523D01*
X112144047Y-88264285D02*
X112144047Y-88530952D01*
X112048809Y-88111904D02*
X111953571Y-88397619D01*
X112201190Y-88397619D01*
G04 #@! TO.C,D_POS4*
X185451880Y-88657952D02*
X185451880Y-88257952D01*
X185547119Y-88257952D01*
X185604261Y-88277000D01*
X185642357Y-88315095D01*
X185661404Y-88353190D01*
X185680452Y-88429380D01*
X185680452Y-88486523D01*
X185661404Y-88562714D01*
X185642357Y-88600809D01*
X185604261Y-88638904D01*
X185547119Y-88657952D01*
X185451880Y-88657952D01*
X185756642Y-88696047D02*
X186061404Y-88696047D01*
X186156642Y-88657952D02*
X186156642Y-88257952D01*
X186309023Y-88257952D01*
X186347119Y-88277000D01*
X186366166Y-88296047D01*
X186385214Y-88334142D01*
X186385214Y-88391285D01*
X186366166Y-88429380D01*
X186347119Y-88448428D01*
X186309023Y-88467476D01*
X186156642Y-88467476D01*
X186632833Y-88257952D02*
X186709023Y-88257952D01*
X186747119Y-88277000D01*
X186785214Y-88315095D01*
X186804261Y-88391285D01*
X186804261Y-88524619D01*
X186785214Y-88600809D01*
X186747119Y-88638904D01*
X186709023Y-88657952D01*
X186632833Y-88657952D01*
X186594738Y-88638904D01*
X186556642Y-88600809D01*
X186537595Y-88524619D01*
X186537595Y-88391285D01*
X186556642Y-88315095D01*
X186594738Y-88277000D01*
X186632833Y-88257952D01*
X186956642Y-88638904D02*
X187013785Y-88657952D01*
X187109023Y-88657952D01*
X187147119Y-88638904D01*
X187166166Y-88619857D01*
X187185214Y-88581761D01*
X187185214Y-88543666D01*
X187166166Y-88505571D01*
X187147119Y-88486523D01*
X187109023Y-88467476D01*
X187032833Y-88448428D01*
X186994738Y-88429380D01*
X186975690Y-88410333D01*
X186956642Y-88372238D01*
X186956642Y-88334142D01*
X186975690Y-88296047D01*
X186994738Y-88277000D01*
X187032833Y-88257952D01*
X187128071Y-88257952D01*
X187185214Y-88277000D01*
X187528071Y-88391285D02*
X187528071Y-88657952D01*
X187432833Y-88238904D02*
X187337595Y-88524619D01*
X187585214Y-88524619D01*
G04 #@! TO.C,R_NEG1*
X102441476Y-88572952D02*
X102308142Y-88382476D01*
X102212904Y-88572952D02*
X102212904Y-88172952D01*
X102365285Y-88172952D01*
X102403380Y-88192000D01*
X102422428Y-88211047D01*
X102441476Y-88249142D01*
X102441476Y-88306285D01*
X102422428Y-88344380D01*
X102403380Y-88363428D01*
X102365285Y-88382476D01*
X102212904Y-88382476D01*
X102517666Y-88611047D02*
X102822428Y-88611047D01*
X102917666Y-88572952D02*
X102917666Y-88172952D01*
X103146238Y-88572952D01*
X103146238Y-88172952D01*
X103336714Y-88363428D02*
X103470047Y-88363428D01*
X103527190Y-88572952D02*
X103336714Y-88572952D01*
X103336714Y-88172952D01*
X103527190Y-88172952D01*
X103908142Y-88192000D02*
X103870047Y-88172952D01*
X103812904Y-88172952D01*
X103755761Y-88192000D01*
X103717666Y-88230095D01*
X103698619Y-88268190D01*
X103679571Y-88344380D01*
X103679571Y-88401523D01*
X103698619Y-88477714D01*
X103717666Y-88515809D01*
X103755761Y-88553904D01*
X103812904Y-88572952D01*
X103851000Y-88572952D01*
X103908142Y-88553904D01*
X103927190Y-88534857D01*
X103927190Y-88401523D01*
X103851000Y-88401523D01*
X104308142Y-88572952D02*
X104079571Y-88572952D01*
X104193857Y-88572952D02*
X104193857Y-88172952D01*
X104155761Y-88230095D01*
X104117666Y-88268190D01*
X104079571Y-88287238D01*
G04 #@! TO.C,R_POS1*
X193109952Y-88572952D02*
X192976619Y-88382476D01*
X192881380Y-88572952D02*
X192881380Y-88172952D01*
X193033761Y-88172952D01*
X193071857Y-88192000D01*
X193090904Y-88211047D01*
X193109952Y-88249142D01*
X193109952Y-88306285D01*
X193090904Y-88344380D01*
X193071857Y-88363428D01*
X193033761Y-88382476D01*
X192881380Y-88382476D01*
X193186142Y-88611047D02*
X193490904Y-88611047D01*
X193586142Y-88572952D02*
X193586142Y-88172952D01*
X193738523Y-88172952D01*
X193776619Y-88192000D01*
X193795666Y-88211047D01*
X193814714Y-88249142D01*
X193814714Y-88306285D01*
X193795666Y-88344380D01*
X193776619Y-88363428D01*
X193738523Y-88382476D01*
X193586142Y-88382476D01*
X194062333Y-88172952D02*
X194138523Y-88172952D01*
X194176619Y-88192000D01*
X194214714Y-88230095D01*
X194233761Y-88306285D01*
X194233761Y-88439619D01*
X194214714Y-88515809D01*
X194176619Y-88553904D01*
X194138523Y-88572952D01*
X194062333Y-88572952D01*
X194024238Y-88553904D01*
X193986142Y-88515809D01*
X193967095Y-88439619D01*
X193967095Y-88306285D01*
X193986142Y-88230095D01*
X194024238Y-88192000D01*
X194062333Y-88172952D01*
X194386142Y-88553904D02*
X194443285Y-88572952D01*
X194538523Y-88572952D01*
X194576619Y-88553904D01*
X194595666Y-88534857D01*
X194614714Y-88496761D01*
X194614714Y-88458666D01*
X194595666Y-88420571D01*
X194576619Y-88401523D01*
X194538523Y-88382476D01*
X194462333Y-88363428D01*
X194424238Y-88344380D01*
X194405190Y-88325333D01*
X194386142Y-88287238D01*
X194386142Y-88249142D01*
X194405190Y-88211047D01*
X194424238Y-88192000D01*
X194462333Y-88172952D01*
X194557571Y-88172952D01*
X194614714Y-88192000D01*
X194995666Y-88572952D02*
X194767095Y-88572952D01*
X194881380Y-88572952D02*
X194881380Y-88172952D01*
X194843285Y-88230095D01*
X194805190Y-88268190D01*
X194767095Y-88287238D01*
G04 #@! TO.C,D_NEG1*
X129644904Y-82730952D02*
X129644904Y-82330952D01*
X129740142Y-82330952D01*
X129797285Y-82350000D01*
X129835380Y-82388095D01*
X129854428Y-82426190D01*
X129873476Y-82502380D01*
X129873476Y-82559523D01*
X129854428Y-82635714D01*
X129835380Y-82673809D01*
X129797285Y-82711904D01*
X129740142Y-82730952D01*
X129644904Y-82730952D01*
X129949666Y-82769047D02*
X130254428Y-82769047D01*
X130349666Y-82730952D02*
X130349666Y-82330952D01*
X130578238Y-82730952D01*
X130578238Y-82330952D01*
X130768714Y-82521428D02*
X130902047Y-82521428D01*
X130959190Y-82730952D02*
X130768714Y-82730952D01*
X130768714Y-82330952D01*
X130959190Y-82330952D01*
X131340142Y-82350000D02*
X131302047Y-82330952D01*
X131244904Y-82330952D01*
X131187761Y-82350000D01*
X131149666Y-82388095D01*
X131130619Y-82426190D01*
X131111571Y-82502380D01*
X131111571Y-82559523D01*
X131130619Y-82635714D01*
X131149666Y-82673809D01*
X131187761Y-82711904D01*
X131244904Y-82730952D01*
X131283000Y-82730952D01*
X131340142Y-82711904D01*
X131359190Y-82692857D01*
X131359190Y-82559523D01*
X131283000Y-82559523D01*
X131740142Y-82730952D02*
X131511571Y-82730952D01*
X131625857Y-82730952D02*
X131625857Y-82330952D01*
X131587761Y-82388095D01*
X131549666Y-82426190D01*
X131511571Y-82445238D01*
G04 #@! TO.C,D_NEG2*
X122253504Y-82730952D02*
X122253504Y-82330952D01*
X122348742Y-82330952D01*
X122405885Y-82350000D01*
X122443980Y-82388095D01*
X122463028Y-82426190D01*
X122482076Y-82502380D01*
X122482076Y-82559523D01*
X122463028Y-82635714D01*
X122443980Y-82673809D01*
X122405885Y-82711904D01*
X122348742Y-82730952D01*
X122253504Y-82730952D01*
X122558266Y-82769047D02*
X122863028Y-82769047D01*
X122958266Y-82730952D02*
X122958266Y-82330952D01*
X123186838Y-82730952D01*
X123186838Y-82330952D01*
X123377314Y-82521428D02*
X123510647Y-82521428D01*
X123567790Y-82730952D02*
X123377314Y-82730952D01*
X123377314Y-82330952D01*
X123567790Y-82330952D01*
X123948742Y-82350000D02*
X123910647Y-82330952D01*
X123853504Y-82330952D01*
X123796361Y-82350000D01*
X123758266Y-82388095D01*
X123739219Y-82426190D01*
X123720171Y-82502380D01*
X123720171Y-82559523D01*
X123739219Y-82635714D01*
X123758266Y-82673809D01*
X123796361Y-82711904D01*
X123853504Y-82730952D01*
X123891600Y-82730952D01*
X123948742Y-82711904D01*
X123967790Y-82692857D01*
X123967790Y-82559523D01*
X123891600Y-82559523D01*
X124120171Y-82369047D02*
X124139219Y-82350000D01*
X124177314Y-82330952D01*
X124272552Y-82330952D01*
X124310647Y-82350000D01*
X124329695Y-82369047D01*
X124348742Y-82407142D01*
X124348742Y-82445238D01*
X124329695Y-82502380D01*
X124101123Y-82730952D01*
X124348742Y-82730952D01*
G04 #@! TO.C,D_NEG3*
X115039904Y-82730952D02*
X115039904Y-82330952D01*
X115135142Y-82330952D01*
X115192285Y-82350000D01*
X115230380Y-82388095D01*
X115249428Y-82426190D01*
X115268476Y-82502380D01*
X115268476Y-82559523D01*
X115249428Y-82635714D01*
X115230380Y-82673809D01*
X115192285Y-82711904D01*
X115135142Y-82730952D01*
X115039904Y-82730952D01*
X115344666Y-82769047D02*
X115649428Y-82769047D01*
X115744666Y-82730952D02*
X115744666Y-82330952D01*
X115973238Y-82730952D01*
X115973238Y-82330952D01*
X116163714Y-82521428D02*
X116297047Y-82521428D01*
X116354190Y-82730952D02*
X116163714Y-82730952D01*
X116163714Y-82330952D01*
X116354190Y-82330952D01*
X116735142Y-82350000D02*
X116697047Y-82330952D01*
X116639904Y-82330952D01*
X116582761Y-82350000D01*
X116544666Y-82388095D01*
X116525619Y-82426190D01*
X116506571Y-82502380D01*
X116506571Y-82559523D01*
X116525619Y-82635714D01*
X116544666Y-82673809D01*
X116582761Y-82711904D01*
X116639904Y-82730952D01*
X116678000Y-82730952D01*
X116735142Y-82711904D01*
X116754190Y-82692857D01*
X116754190Y-82559523D01*
X116678000Y-82559523D01*
X116887523Y-82330952D02*
X117135142Y-82330952D01*
X117001809Y-82483333D01*
X117058952Y-82483333D01*
X117097047Y-82502380D01*
X117116095Y-82521428D01*
X117135142Y-82559523D01*
X117135142Y-82654761D01*
X117116095Y-82692857D01*
X117097047Y-82711904D01*
X117058952Y-82730952D01*
X116944666Y-82730952D01*
X116906571Y-82711904D01*
X116887523Y-82692857D01*
G04 #@! TO.C,D_POS1*
X164382580Y-82730952D02*
X164382580Y-82330952D01*
X164477819Y-82330952D01*
X164534961Y-82350000D01*
X164573057Y-82388095D01*
X164592104Y-82426190D01*
X164611152Y-82502380D01*
X164611152Y-82559523D01*
X164592104Y-82635714D01*
X164573057Y-82673809D01*
X164534961Y-82711904D01*
X164477819Y-82730952D01*
X164382580Y-82730952D01*
X164687342Y-82769047D02*
X164992104Y-82769047D01*
X165087342Y-82730952D02*
X165087342Y-82330952D01*
X165239723Y-82330952D01*
X165277819Y-82350000D01*
X165296866Y-82369047D01*
X165315914Y-82407142D01*
X165315914Y-82464285D01*
X165296866Y-82502380D01*
X165277819Y-82521428D01*
X165239723Y-82540476D01*
X165087342Y-82540476D01*
X165563533Y-82330952D02*
X165639723Y-82330952D01*
X165677819Y-82350000D01*
X165715914Y-82388095D01*
X165734961Y-82464285D01*
X165734961Y-82597619D01*
X165715914Y-82673809D01*
X165677819Y-82711904D01*
X165639723Y-82730952D01*
X165563533Y-82730952D01*
X165525438Y-82711904D01*
X165487342Y-82673809D01*
X165468295Y-82597619D01*
X165468295Y-82464285D01*
X165487342Y-82388095D01*
X165525438Y-82350000D01*
X165563533Y-82330952D01*
X165887342Y-82711904D02*
X165944485Y-82730952D01*
X166039723Y-82730952D01*
X166077819Y-82711904D01*
X166096866Y-82692857D01*
X166115914Y-82654761D01*
X166115914Y-82616666D01*
X166096866Y-82578571D01*
X166077819Y-82559523D01*
X166039723Y-82540476D01*
X165963533Y-82521428D01*
X165925438Y-82502380D01*
X165906390Y-82483333D01*
X165887342Y-82445238D01*
X165887342Y-82407142D01*
X165906390Y-82369047D01*
X165925438Y-82350000D01*
X165963533Y-82330952D01*
X166058771Y-82330952D01*
X166115914Y-82350000D01*
X166496866Y-82730952D02*
X166268295Y-82730952D01*
X166382580Y-82730952D02*
X166382580Y-82330952D01*
X166344485Y-82388095D01*
X166306390Y-82426190D01*
X166268295Y-82445238D01*
G04 #@! TO.C,D_POS2*
X172027980Y-82654752D02*
X172027980Y-82254752D01*
X172123219Y-82254752D01*
X172180361Y-82273800D01*
X172218457Y-82311895D01*
X172237504Y-82349990D01*
X172256552Y-82426180D01*
X172256552Y-82483323D01*
X172237504Y-82559514D01*
X172218457Y-82597609D01*
X172180361Y-82635704D01*
X172123219Y-82654752D01*
X172027980Y-82654752D01*
X172332742Y-82692847D02*
X172637504Y-82692847D01*
X172732742Y-82654752D02*
X172732742Y-82254752D01*
X172885123Y-82254752D01*
X172923219Y-82273800D01*
X172942266Y-82292847D01*
X172961314Y-82330942D01*
X172961314Y-82388085D01*
X172942266Y-82426180D01*
X172923219Y-82445228D01*
X172885123Y-82464276D01*
X172732742Y-82464276D01*
X173208933Y-82254752D02*
X173285123Y-82254752D01*
X173323219Y-82273800D01*
X173361314Y-82311895D01*
X173380361Y-82388085D01*
X173380361Y-82521419D01*
X173361314Y-82597609D01*
X173323219Y-82635704D01*
X173285123Y-82654752D01*
X173208933Y-82654752D01*
X173170838Y-82635704D01*
X173132742Y-82597609D01*
X173113695Y-82521419D01*
X173113695Y-82388085D01*
X173132742Y-82311895D01*
X173170838Y-82273800D01*
X173208933Y-82254752D01*
X173532742Y-82635704D02*
X173589885Y-82654752D01*
X173685123Y-82654752D01*
X173723219Y-82635704D01*
X173742266Y-82616657D01*
X173761314Y-82578561D01*
X173761314Y-82540466D01*
X173742266Y-82502371D01*
X173723219Y-82483323D01*
X173685123Y-82464276D01*
X173608933Y-82445228D01*
X173570838Y-82426180D01*
X173551790Y-82407133D01*
X173532742Y-82369038D01*
X173532742Y-82330942D01*
X173551790Y-82292847D01*
X173570838Y-82273800D01*
X173608933Y-82254752D01*
X173704171Y-82254752D01*
X173761314Y-82273800D01*
X173913695Y-82292847D02*
X173932742Y-82273800D01*
X173970838Y-82254752D01*
X174066076Y-82254752D01*
X174104171Y-82273800D01*
X174123219Y-82292847D01*
X174142266Y-82330942D01*
X174142266Y-82369038D01*
X174123219Y-82426180D01*
X173894647Y-82654752D01*
X174142266Y-82654752D01*
G04 #@! TO.C,D_POS3*
X178530380Y-82603952D02*
X178530380Y-82203952D01*
X178625619Y-82203952D01*
X178682761Y-82223000D01*
X178720857Y-82261095D01*
X178739904Y-82299190D01*
X178758952Y-82375380D01*
X178758952Y-82432523D01*
X178739904Y-82508714D01*
X178720857Y-82546809D01*
X178682761Y-82584904D01*
X178625619Y-82603952D01*
X178530380Y-82603952D01*
X178835142Y-82642047D02*
X179139904Y-82642047D01*
X179235142Y-82603952D02*
X179235142Y-82203952D01*
X179387523Y-82203952D01*
X179425619Y-82223000D01*
X179444666Y-82242047D01*
X179463714Y-82280142D01*
X179463714Y-82337285D01*
X179444666Y-82375380D01*
X179425619Y-82394428D01*
X179387523Y-82413476D01*
X179235142Y-82413476D01*
X179711333Y-82203952D02*
X179787523Y-82203952D01*
X179825619Y-82223000D01*
X179863714Y-82261095D01*
X179882761Y-82337285D01*
X179882761Y-82470619D01*
X179863714Y-82546809D01*
X179825619Y-82584904D01*
X179787523Y-82603952D01*
X179711333Y-82603952D01*
X179673238Y-82584904D01*
X179635142Y-82546809D01*
X179616095Y-82470619D01*
X179616095Y-82337285D01*
X179635142Y-82261095D01*
X179673238Y-82223000D01*
X179711333Y-82203952D01*
X180035142Y-82584904D02*
X180092285Y-82603952D01*
X180187523Y-82603952D01*
X180225619Y-82584904D01*
X180244666Y-82565857D01*
X180263714Y-82527761D01*
X180263714Y-82489666D01*
X180244666Y-82451571D01*
X180225619Y-82432523D01*
X180187523Y-82413476D01*
X180111333Y-82394428D01*
X180073238Y-82375380D01*
X180054190Y-82356333D01*
X180035142Y-82318238D01*
X180035142Y-82280142D01*
X180054190Y-82242047D01*
X180073238Y-82223000D01*
X180111333Y-82203952D01*
X180206571Y-82203952D01*
X180263714Y-82223000D01*
X180397047Y-82203952D02*
X180644666Y-82203952D01*
X180511333Y-82356333D01*
X180568476Y-82356333D01*
X180606571Y-82375380D01*
X180625619Y-82394428D01*
X180644666Y-82432523D01*
X180644666Y-82527761D01*
X180625619Y-82565857D01*
X180606571Y-82584904D01*
X180568476Y-82603952D01*
X180454190Y-82603952D01*
X180416095Y-82584904D01*
X180397047Y-82565857D01*
G04 #@! TO.C,C_NEG6*
D18*
X111967142Y-79493809D02*
X112014761Y-79541428D01*
X112062380Y-79684285D01*
X112062380Y-79779523D01*
X112014761Y-79922380D01*
X111919523Y-80017619D01*
X111824285Y-80065238D01*
X111633809Y-80112857D01*
X111490952Y-80112857D01*
X111300476Y-80065238D01*
X111205238Y-80017619D01*
X111110000Y-79922380D01*
X111062380Y-79779523D01*
X111062380Y-79684285D01*
X111110000Y-79541428D01*
X111157619Y-79493809D01*
X112157619Y-79303333D02*
X112157619Y-78541428D01*
X112062380Y-78303333D02*
X111062380Y-78303333D01*
X112062380Y-77731904D01*
X111062380Y-77731904D01*
X111538571Y-77255714D02*
X111538571Y-76922380D01*
X112062380Y-76779523D02*
X112062380Y-77255714D01*
X111062380Y-77255714D01*
X111062380Y-76779523D01*
X111110000Y-75827142D02*
X111062380Y-75922380D01*
X111062380Y-76065238D01*
X111110000Y-76208095D01*
X111205238Y-76303333D01*
X111300476Y-76350952D01*
X111490952Y-76398571D01*
X111633809Y-76398571D01*
X111824285Y-76350952D01*
X111919523Y-76303333D01*
X112014761Y-76208095D01*
X112062380Y-76065238D01*
X112062380Y-75970000D01*
X112014761Y-75827142D01*
X111967142Y-75779523D01*
X111633809Y-75779523D01*
X111633809Y-75970000D01*
X111062380Y-74922380D02*
X111062380Y-75112857D01*
X111110000Y-75208095D01*
X111157619Y-75255714D01*
X111300476Y-75350952D01*
X111490952Y-75398571D01*
X111871904Y-75398571D01*
X111967142Y-75350952D01*
X112014761Y-75303333D01*
X112062380Y-75208095D01*
X112062380Y-75017619D01*
X112014761Y-74922380D01*
X111967142Y-74874761D01*
X111871904Y-74827142D01*
X111633809Y-74827142D01*
X111538571Y-74874761D01*
X111490952Y-74922380D01*
X111443333Y-75017619D01*
X111443333Y-75208095D01*
X111490952Y-75303333D01*
X111538571Y-75350952D01*
X111633809Y-75398571D01*
G04 #@! TO.C,C_POS6*
X185165142Y-78882619D02*
X185212761Y-78930238D01*
X185260380Y-79073095D01*
X185260380Y-79168333D01*
X185212761Y-79311190D01*
X185117523Y-79406428D01*
X185022285Y-79454047D01*
X184831809Y-79501666D01*
X184688952Y-79501666D01*
X184498476Y-79454047D01*
X184403238Y-79406428D01*
X184308000Y-79311190D01*
X184260380Y-79168333D01*
X184260380Y-79073095D01*
X184308000Y-78930238D01*
X184355619Y-78882619D01*
X185355619Y-78692142D02*
X185355619Y-77930238D01*
X185260380Y-77692142D02*
X184260380Y-77692142D01*
X184260380Y-77311190D01*
X184308000Y-77215952D01*
X184355619Y-77168333D01*
X184450857Y-77120714D01*
X184593714Y-77120714D01*
X184688952Y-77168333D01*
X184736571Y-77215952D01*
X184784190Y-77311190D01*
X184784190Y-77692142D01*
X184260380Y-76501666D02*
X184260380Y-76311190D01*
X184308000Y-76215952D01*
X184403238Y-76120714D01*
X184593714Y-76073095D01*
X184927047Y-76073095D01*
X185117523Y-76120714D01*
X185212761Y-76215952D01*
X185260380Y-76311190D01*
X185260380Y-76501666D01*
X185212761Y-76596904D01*
X185117523Y-76692142D01*
X184927047Y-76739761D01*
X184593714Y-76739761D01*
X184403238Y-76692142D01*
X184308000Y-76596904D01*
X184260380Y-76501666D01*
X185212761Y-75692142D02*
X185260380Y-75549285D01*
X185260380Y-75311190D01*
X185212761Y-75215952D01*
X185165142Y-75168333D01*
X185069904Y-75120714D01*
X184974666Y-75120714D01*
X184879428Y-75168333D01*
X184831809Y-75215952D01*
X184784190Y-75311190D01*
X184736571Y-75501666D01*
X184688952Y-75596904D01*
X184641333Y-75644523D01*
X184546095Y-75692142D01*
X184450857Y-75692142D01*
X184355619Y-75644523D01*
X184308000Y-75596904D01*
X184260380Y-75501666D01*
X184260380Y-75263571D01*
X184308000Y-75120714D01*
X184260380Y-74263571D02*
X184260380Y-74454047D01*
X184308000Y-74549285D01*
X184355619Y-74596904D01*
X184498476Y-74692142D01*
X184688952Y-74739761D01*
X185069904Y-74739761D01*
X185165142Y-74692142D01*
X185212761Y-74644523D01*
X185260380Y-74549285D01*
X185260380Y-74358809D01*
X185212761Y-74263571D01*
X185165142Y-74215952D01*
X185069904Y-74168333D01*
X184831809Y-74168333D01*
X184736571Y-74215952D01*
X184688952Y-74263571D01*
X184641333Y-74358809D01*
X184641333Y-74549285D01*
X184688952Y-74644523D01*
X184736571Y-74692142D01*
X184831809Y-74739761D01*
G04 #@! TD*
M02*
