G04 #@! TF.GenerationSoftware,KiCad,Pcbnew,(5.1.6-0-10_14)*
G04 #@! TF.CreationDate,2020-09-27T23:01:40+01:00*
G04 #@! TF.ProjectId,PSUExtensionBoard,50535545-7874-4656-9e73-696f6e426f61,rev?*
G04 #@! TF.SameCoordinates,Original*
G04 #@! TF.FileFunction,Copper,L1,Top*
G04 #@! TF.FilePolarity,Positive*
%FSLAX46Y46*%
G04 Gerber Fmt 4.6, Leading zero omitted, Abs format (unit mm)*
G04 Created by KiCad (PCBNEW (5.1.6-0-10_14)) date 2020-09-27 23:01:40*
%MOMM*%
%LPD*%
G01*
G04 APERTURE LIST*
G04 #@! TA.AperFunction,SMDPad,CuDef*
%ADD10R,4.600000X1.100000*%
G04 #@! TD*
G04 #@! TA.AperFunction,SMDPad,CuDef*
%ADD11R,9.400000X10.800000*%
G04 #@! TD*
G04 #@! TA.AperFunction,ComponentPad*
%ADD12R,1.700000X1.700000*%
G04 #@! TD*
G04 #@! TA.AperFunction,ComponentPad*
%ADD13O,1.700000X1.700000*%
G04 #@! TD*
G04 #@! TA.AperFunction,ViaPad*
%ADD14C,0.800000*%
G04 #@! TD*
G04 #@! TA.AperFunction,Conductor*
%ADD15C,1.000000*%
G04 #@! TD*
G04 #@! TA.AperFunction,Conductor*
%ADD16C,0.254000*%
G04 #@! TD*
G04 APERTURE END LIST*
D10*
X66735000Y-92392500D03*
X66735000Y-89852500D03*
X66735000Y-87312500D03*
D11*
X57585000Y-89852500D03*
G04 #@! TA.AperFunction,SMDPad,CuDef*
G36*
G01*
X72568000Y-92906001D02*
X72568000Y-92005999D01*
G75*
G02*
X72817999Y-91756000I249999J0D01*
G01*
X73468001Y-91756000D01*
G75*
G02*
X73718000Y-92005999I0J-249999D01*
G01*
X73718000Y-92906001D01*
G75*
G02*
X73468001Y-93156000I-249999J0D01*
G01*
X72817999Y-93156000D01*
G75*
G02*
X72568000Y-92906001I0J249999D01*
G01*
G37*
G04 #@! TD.AperFunction*
G04 #@! TA.AperFunction,SMDPad,CuDef*
G36*
G01*
X74618000Y-92906001D02*
X74618000Y-92005999D01*
G75*
G02*
X74867999Y-91756000I249999J0D01*
G01*
X75518001Y-91756000D01*
G75*
G02*
X75768000Y-92005999I0J-249999D01*
G01*
X75768000Y-92906001D01*
G75*
G02*
X75518001Y-93156000I-249999J0D01*
G01*
X74867999Y-93156000D01*
G75*
G02*
X74618000Y-92906001I0J249999D01*
G01*
G37*
G04 #@! TD.AperFunction*
G04 #@! TA.AperFunction,SMDPad,CuDef*
G36*
G01*
X73718000Y-87179999D02*
X73718000Y-88080001D01*
G75*
G02*
X73468001Y-88330000I-249999J0D01*
G01*
X72817999Y-88330000D01*
G75*
G02*
X72568000Y-88080001I0J249999D01*
G01*
X72568000Y-87179999D01*
G75*
G02*
X72817999Y-86930000I249999J0D01*
G01*
X73468001Y-86930000D01*
G75*
G02*
X73718000Y-87179999I0J-249999D01*
G01*
G37*
G04 #@! TD.AperFunction*
G04 #@! TA.AperFunction,SMDPad,CuDef*
G36*
G01*
X75768000Y-87179999D02*
X75768000Y-88080001D01*
G75*
G02*
X75518001Y-88330000I-249999J0D01*
G01*
X74867999Y-88330000D01*
G75*
G02*
X74618000Y-88080001I0J249999D01*
G01*
X74618000Y-87179999D01*
G75*
G02*
X74867999Y-86930000I249999J0D01*
G01*
X75518001Y-86930000D01*
G75*
G02*
X75768000Y-87179999I0J-249999D01*
G01*
G37*
G04 #@! TD.AperFunction*
G04 #@! TA.AperFunction,SMDPad,CuDef*
G36*
G01*
X56820000Y-105860001D02*
X56820000Y-104959999D01*
G75*
G02*
X57069999Y-104710000I249999J0D01*
G01*
X57720001Y-104710000D01*
G75*
G02*
X57970000Y-104959999I0J-249999D01*
G01*
X57970000Y-105860001D01*
G75*
G02*
X57720001Y-106110000I-249999J0D01*
G01*
X57069999Y-106110000D01*
G75*
G02*
X56820000Y-105860001I0J249999D01*
G01*
G37*
G04 #@! TD.AperFunction*
G04 #@! TA.AperFunction,SMDPad,CuDef*
G36*
G01*
X58870000Y-105860001D02*
X58870000Y-104959999D01*
G75*
G02*
X59119999Y-104710000I249999J0D01*
G01*
X59770001Y-104710000D01*
G75*
G02*
X60020000Y-104959999I0J-249999D01*
G01*
X60020000Y-105860001D01*
G75*
G02*
X59770001Y-106110000I-249999J0D01*
G01*
X59119999Y-106110000D01*
G75*
G02*
X58870000Y-105860001I0J249999D01*
G01*
G37*
G04 #@! TD.AperFunction*
G04 #@! TA.AperFunction,SMDPad,CuDef*
G36*
G01*
X57970000Y-110039999D02*
X57970000Y-110940001D01*
G75*
G02*
X57720001Y-111190000I-249999J0D01*
G01*
X57069999Y-111190000D01*
G75*
G02*
X56820000Y-110940001I0J249999D01*
G01*
X56820000Y-110039999D01*
G75*
G02*
X57069999Y-109790000I249999J0D01*
G01*
X57720001Y-109790000D01*
G75*
G02*
X57970000Y-110039999I0J-249999D01*
G01*
G37*
G04 #@! TD.AperFunction*
G04 #@! TA.AperFunction,SMDPad,CuDef*
G36*
G01*
X60020000Y-110039999D02*
X60020000Y-110940001D01*
G75*
G02*
X59770001Y-111190000I-249999J0D01*
G01*
X59119999Y-111190000D01*
G75*
G02*
X58870000Y-110940001I0J249999D01*
G01*
X58870000Y-110039999D01*
G75*
G02*
X59119999Y-109790000I249999J0D01*
G01*
X59770001Y-109790000D01*
G75*
G02*
X60020000Y-110039999I0J-249999D01*
G01*
G37*
G04 #@! TD.AperFunction*
G04 #@! TA.AperFunction,SMDPad,CuDef*
G36*
G01*
X56820000Y-100780001D02*
X56820000Y-99879999D01*
G75*
G02*
X57069999Y-99630000I249999J0D01*
G01*
X57720001Y-99630000D01*
G75*
G02*
X57970000Y-99879999I0J-249999D01*
G01*
X57970000Y-100780001D01*
G75*
G02*
X57720001Y-101030000I-249999J0D01*
G01*
X57069999Y-101030000D01*
G75*
G02*
X56820000Y-100780001I0J249999D01*
G01*
G37*
G04 #@! TD.AperFunction*
G04 #@! TA.AperFunction,SMDPad,CuDef*
G36*
G01*
X58870000Y-100780001D02*
X58870000Y-99879999D01*
G75*
G02*
X59119999Y-99630000I249999J0D01*
G01*
X59770001Y-99630000D01*
G75*
G02*
X60020000Y-99879999I0J-249999D01*
G01*
X60020000Y-100780001D01*
G75*
G02*
X59770001Y-101030000I-249999J0D01*
G01*
X59119999Y-101030000D01*
G75*
G02*
X58870000Y-100780001I0J249999D01*
G01*
G37*
G04 #@! TD.AperFunction*
D12*
X68580000Y-100330000D03*
D13*
X71120000Y-100330000D03*
X68580000Y-102870000D03*
X71120000Y-102870000D03*
X68580000Y-105410000D03*
X71120000Y-105410000D03*
X68580000Y-107950000D03*
X71120000Y-107950000D03*
X68580000Y-110490000D03*
X71120000Y-110490000D03*
D12*
X83820000Y-92710000D03*
D13*
X86360000Y-92710000D03*
X83820000Y-95250000D03*
X86360000Y-95250000D03*
X83820000Y-97790000D03*
X86360000Y-97790000D03*
X83820000Y-100330000D03*
X86360000Y-100330000D03*
X83820000Y-102870000D03*
X86360000Y-102870000D03*
X83820000Y-105410000D03*
X86360000Y-105410000D03*
X83820000Y-107950000D03*
X86360000Y-107950000D03*
X83820000Y-110490000D03*
X86360000Y-110490000D03*
X101600000Y-110490000D03*
X99060000Y-110490000D03*
X101600000Y-107950000D03*
X99060000Y-107950000D03*
X101600000Y-105410000D03*
X99060000Y-105410000D03*
X101600000Y-102870000D03*
X99060000Y-102870000D03*
X101600000Y-100330000D03*
X99060000Y-100330000D03*
X101600000Y-97790000D03*
X99060000Y-97790000D03*
X101600000Y-95250000D03*
X99060000Y-95250000D03*
X101600000Y-92710000D03*
D12*
X99060000Y-92710000D03*
X114300000Y-92710000D03*
D13*
X116840000Y-92710000D03*
X114300000Y-95250000D03*
X116840000Y-95250000D03*
X114300000Y-97790000D03*
X116840000Y-97790000D03*
X114300000Y-100330000D03*
X116840000Y-100330000D03*
X114300000Y-102870000D03*
X116840000Y-102870000D03*
X114300000Y-105410000D03*
X116840000Y-105410000D03*
X114300000Y-107950000D03*
X116840000Y-107950000D03*
X114300000Y-110490000D03*
X116840000Y-110490000D03*
X132080000Y-110490000D03*
X129540000Y-110490000D03*
X132080000Y-107950000D03*
X129540000Y-107950000D03*
X132080000Y-105410000D03*
X129540000Y-105410000D03*
X132080000Y-102870000D03*
X129540000Y-102870000D03*
X132080000Y-100330000D03*
X129540000Y-100330000D03*
X132080000Y-97790000D03*
X129540000Y-97790000D03*
X132080000Y-95250000D03*
X129540000Y-95250000D03*
X132080000Y-92710000D03*
D12*
X129540000Y-92710000D03*
X144780000Y-92710000D03*
D13*
X147320000Y-92710000D03*
X144780000Y-95250000D03*
X147320000Y-95250000D03*
X144780000Y-97790000D03*
X147320000Y-97790000D03*
X144780000Y-100330000D03*
X147320000Y-100330000D03*
X144780000Y-102870000D03*
X147320000Y-102870000D03*
X144780000Y-105410000D03*
X147320000Y-105410000D03*
X144780000Y-107950000D03*
X147320000Y-107950000D03*
X144780000Y-110490000D03*
X147320000Y-110490000D03*
X162560000Y-110490000D03*
X160020000Y-110490000D03*
X162560000Y-107950000D03*
X160020000Y-107950000D03*
X162560000Y-105410000D03*
X160020000Y-105410000D03*
X162560000Y-102870000D03*
X160020000Y-102870000D03*
X162560000Y-100330000D03*
X160020000Y-100330000D03*
X162560000Y-97790000D03*
X160020000Y-97790000D03*
X162560000Y-95250000D03*
X160020000Y-95250000D03*
X162560000Y-92710000D03*
D12*
X160020000Y-92710000D03*
X175260000Y-92710000D03*
D13*
X177800000Y-92710000D03*
X175260000Y-95250000D03*
X177800000Y-95250000D03*
X175260000Y-97790000D03*
X177800000Y-97790000D03*
X175260000Y-100330000D03*
X177800000Y-100330000D03*
X175260000Y-102870000D03*
X177800000Y-102870000D03*
X175260000Y-105410000D03*
X177800000Y-105410000D03*
X175260000Y-107950000D03*
X177800000Y-107950000D03*
X175260000Y-110490000D03*
X177800000Y-110490000D03*
X193040000Y-110490000D03*
X190500000Y-110490000D03*
X193040000Y-107950000D03*
X190500000Y-107950000D03*
X193040000Y-105410000D03*
X190500000Y-105410000D03*
X193040000Y-102870000D03*
X190500000Y-102870000D03*
X193040000Y-100330000D03*
X190500000Y-100330000D03*
X193040000Y-97790000D03*
X190500000Y-97790000D03*
X193040000Y-95250000D03*
X190500000Y-95250000D03*
X193040000Y-92710000D03*
D12*
X190500000Y-92710000D03*
G04 #@! TA.AperFunction,SMDPad,CuDef*
G36*
G01*
X61900000Y-105860001D02*
X61900000Y-104959999D01*
G75*
G02*
X62149999Y-104710000I249999J0D01*
G01*
X62800001Y-104710000D01*
G75*
G02*
X63050000Y-104959999I0J-249999D01*
G01*
X63050000Y-105860001D01*
G75*
G02*
X62800001Y-106110000I-249999J0D01*
G01*
X62149999Y-106110000D01*
G75*
G02*
X61900000Y-105860001I0J249999D01*
G01*
G37*
G04 #@! TD.AperFunction*
G04 #@! TA.AperFunction,SMDPad,CuDef*
G36*
G01*
X63950000Y-105860001D02*
X63950000Y-104959999D01*
G75*
G02*
X64199999Y-104710000I249999J0D01*
G01*
X64850001Y-104710000D01*
G75*
G02*
X65100000Y-104959999I0J-249999D01*
G01*
X65100000Y-105860001D01*
G75*
G02*
X64850001Y-106110000I-249999J0D01*
G01*
X64199999Y-106110000D01*
G75*
G02*
X63950000Y-105860001I0J249999D01*
G01*
G37*
G04 #@! TD.AperFunction*
G04 #@! TA.AperFunction,SMDPad,CuDef*
G36*
G01*
X61900000Y-110940001D02*
X61900000Y-110039999D01*
G75*
G02*
X62149999Y-109790000I249999J0D01*
G01*
X62800001Y-109790000D01*
G75*
G02*
X63050000Y-110039999I0J-249999D01*
G01*
X63050000Y-110940001D01*
G75*
G02*
X62800001Y-111190000I-249999J0D01*
G01*
X62149999Y-111190000D01*
G75*
G02*
X61900000Y-110940001I0J249999D01*
G01*
G37*
G04 #@! TD.AperFunction*
G04 #@! TA.AperFunction,SMDPad,CuDef*
G36*
G01*
X63950000Y-110940001D02*
X63950000Y-110039999D01*
G75*
G02*
X64199999Y-109790000I249999J0D01*
G01*
X64850001Y-109790000D01*
G75*
G02*
X65100000Y-110039999I0J-249999D01*
G01*
X65100000Y-110940001D01*
G75*
G02*
X64850001Y-111190000I-249999J0D01*
G01*
X64199999Y-111190000D01*
G75*
G02*
X63950000Y-110940001I0J249999D01*
G01*
G37*
G04 #@! TD.AperFunction*
G04 #@! TA.AperFunction,SMDPad,CuDef*
G36*
G01*
X63050000Y-99879999D02*
X63050000Y-100780001D01*
G75*
G02*
X62800001Y-101030000I-249999J0D01*
G01*
X62149999Y-101030000D01*
G75*
G02*
X61900000Y-100780001I0J249999D01*
G01*
X61900000Y-99879999D01*
G75*
G02*
X62149999Y-99630000I249999J0D01*
G01*
X62800001Y-99630000D01*
G75*
G02*
X63050000Y-99879999I0J-249999D01*
G01*
G37*
G04 #@! TD.AperFunction*
G04 #@! TA.AperFunction,SMDPad,CuDef*
G36*
G01*
X65100000Y-99879999D02*
X65100000Y-100780001D01*
G75*
G02*
X64850001Y-101030000I-249999J0D01*
G01*
X64199999Y-101030000D01*
G75*
G02*
X63950000Y-100780001I0J249999D01*
G01*
X63950000Y-99879999D01*
G75*
G02*
X64199999Y-99630000I249999J0D01*
G01*
X64850001Y-99630000D01*
G75*
G02*
X65100000Y-99879999I0J-249999D01*
G01*
G37*
G04 #@! TD.AperFunction*
D14*
X74295000Y-90170000D03*
X70035000Y-90170000D03*
X50800000Y-96901000D03*
X50800000Y-83883500D03*
X52350000Y-83883500D03*
X53900000Y-83883500D03*
X55450000Y-83883500D03*
X57000000Y-83883500D03*
X58550000Y-83883500D03*
X60100000Y-83883500D03*
X61650000Y-83883500D03*
X63200000Y-83883500D03*
X52350000Y-96901000D03*
X53900000Y-96901000D03*
X55450000Y-96901000D03*
X57000000Y-96901000D03*
X58550000Y-96901000D03*
X60100000Y-96901000D03*
X61650000Y-96901000D03*
X63200000Y-96901000D03*
X50800000Y-85333500D03*
X50800000Y-86783500D03*
X50800000Y-88233500D03*
X50800000Y-89683500D03*
X50800000Y-91133500D03*
X50800000Y-92583500D03*
X50800000Y-94033500D03*
X50800000Y-95483500D03*
X57404000Y-111760000D03*
X57395000Y-101591000D03*
X57404000Y-106680000D03*
X52350000Y-85333500D03*
X52350000Y-86783500D03*
X52350000Y-88233500D03*
X52350000Y-89683500D03*
X52350000Y-91133500D03*
X52350000Y-92583500D03*
X52350000Y-94033500D03*
X52350000Y-95483500D03*
X53900000Y-95483500D03*
X55450000Y-95483500D03*
X57000000Y-95483500D03*
X58550000Y-95483500D03*
X60100000Y-95483500D03*
X61650000Y-95483500D03*
X63200000Y-95483500D03*
D15*
X73143000Y-87630000D02*
X73143000Y-89018000D01*
X73143000Y-89018000D02*
X74295000Y-90170000D01*
X75193000Y-91068000D02*
X74295000Y-90170000D01*
X75193000Y-92710000D02*
X75193000Y-91068000D01*
X66735000Y-90170000D02*
X70035000Y-90170000D01*
X66735000Y-90170000D02*
X57585000Y-90170000D01*
X57404000Y-110499000D02*
X57404000Y-111760000D01*
X57395000Y-100330000D02*
X57395000Y-101591000D01*
X57404000Y-105165000D02*
X57404000Y-106680000D01*
X59445000Y-110490000D02*
X62230000Y-110490000D01*
X59690000Y-100330000D02*
X62230000Y-100330000D01*
X66735000Y-95310000D02*
X66738500Y-92392500D01*
X68580000Y-97155000D02*
X66735000Y-95310000D01*
X68580000Y-100330000D02*
X68580000Y-97155000D01*
X72825500Y-92392500D02*
X73143000Y-92710000D01*
X66735000Y-92392500D02*
X72825500Y-92392500D01*
X64643000Y-100330000D02*
X193040000Y-100330000D01*
X83820000Y-97790000D02*
X193040000Y-97790000D01*
X75193000Y-87630000D02*
X78740000Y-87630000D01*
X78740000Y-87630000D02*
X78740000Y-97790000D01*
X78740000Y-97790000D02*
X83820000Y-97790000D01*
X75193000Y-84083000D02*
X75193000Y-87630000D01*
X73240010Y-82130010D02*
X75193000Y-84083000D01*
X66675000Y-82130010D02*
X73240010Y-82130010D01*
X66735000Y-82130010D02*
X66738500Y-87312500D01*
X49110010Y-82130010D02*
X66735000Y-82130010D01*
X49110010Y-101815010D02*
X49110010Y-82130010D01*
X50410000Y-103115000D02*
X49110010Y-101815010D01*
X56896000Y-103124000D02*
X50410000Y-103115000D01*
X63500000Y-103124000D02*
X56896000Y-103124000D01*
X64525000Y-104149000D02*
X63500000Y-103124000D01*
X64525000Y-105410000D02*
X64525000Y-104149000D01*
X59445000Y-105410000D02*
X62475000Y-105410000D01*
X64579500Y-110490000D02*
X193040000Y-110490000D01*
X83820000Y-92710000D02*
X193040000Y-92710000D01*
X193040000Y-95250000D02*
X83820000Y-95250000D01*
D16*
G36*
X63881000Y-86451901D02*
G01*
X63845498Y-86518320D01*
X63809188Y-86638018D01*
X63796928Y-86762500D01*
X63796928Y-87862500D01*
X63809188Y-87986982D01*
X63845498Y-88106680D01*
X63904463Y-88216994D01*
X63983815Y-88313685D01*
X64080506Y-88393037D01*
X64190820Y-88452002D01*
X64310518Y-88488312D01*
X64435000Y-88500572D01*
X69035000Y-88500572D01*
X69159482Y-88488312D01*
X69215000Y-88471471D01*
X69215000Y-91233529D01*
X69159482Y-91216688D01*
X69035000Y-91204428D01*
X64435000Y-91204428D01*
X64310518Y-91216688D01*
X64190820Y-91252998D01*
X64080506Y-91311963D01*
X63983815Y-91391315D01*
X63904463Y-91488006D01*
X63845498Y-91598320D01*
X63809188Y-91718018D01*
X63796928Y-91842500D01*
X63796928Y-92942500D01*
X63809188Y-93066982D01*
X63845498Y-93186680D01*
X63904463Y-93296994D01*
X63983815Y-93393685D01*
X64079242Y-93472000D01*
X64008000Y-93472000D01*
X63983224Y-93474440D01*
X63959399Y-93481667D01*
X63937443Y-93493403D01*
X63918197Y-93509197D01*
X63902403Y-93528443D01*
X63890667Y-93550399D01*
X63883440Y-93574224D01*
X63881000Y-93599000D01*
X63881000Y-97536000D01*
X50245010Y-97536000D01*
X50245010Y-83265010D01*
X63881000Y-83265010D01*
X63881000Y-86451901D01*
G37*
X63881000Y-86451901D02*
X63845498Y-86518320D01*
X63809188Y-86638018D01*
X63796928Y-86762500D01*
X63796928Y-87862500D01*
X63809188Y-87986982D01*
X63845498Y-88106680D01*
X63904463Y-88216994D01*
X63983815Y-88313685D01*
X64080506Y-88393037D01*
X64190820Y-88452002D01*
X64310518Y-88488312D01*
X64435000Y-88500572D01*
X69035000Y-88500572D01*
X69159482Y-88488312D01*
X69215000Y-88471471D01*
X69215000Y-91233529D01*
X69159482Y-91216688D01*
X69035000Y-91204428D01*
X64435000Y-91204428D01*
X64310518Y-91216688D01*
X64190820Y-91252998D01*
X64080506Y-91311963D01*
X63983815Y-91391315D01*
X63904463Y-91488006D01*
X63845498Y-91598320D01*
X63809188Y-91718018D01*
X63796928Y-91842500D01*
X63796928Y-92942500D01*
X63809188Y-93066982D01*
X63845498Y-93186680D01*
X63904463Y-93296994D01*
X63983815Y-93393685D01*
X64079242Y-93472000D01*
X64008000Y-93472000D01*
X63983224Y-93474440D01*
X63959399Y-93481667D01*
X63937443Y-93493403D01*
X63918197Y-93509197D01*
X63902403Y-93528443D01*
X63890667Y-93550399D01*
X63883440Y-93574224D01*
X63881000Y-93599000D01*
X63881000Y-97536000D01*
X50245010Y-97536000D01*
X50245010Y-83265010D01*
X63881000Y-83265010D01*
X63881000Y-86451901D01*
M02*
