G04 #@! TF.GenerationSoftware,KiCad,Pcbnew,(5.1.6-0-10_14)*
G04 #@! TF.CreationDate,2020-09-27T23:01:40+01:00*
G04 #@! TF.ProjectId,PSUExtensionBoard,50535545-7874-4656-9e73-696f6e426f61,rev?*
G04 #@! TF.SameCoordinates,Original*
G04 #@! TF.FileFunction,Paste,Top*
G04 #@! TF.FilePolarity,Positive*
%FSLAX46Y46*%
G04 Gerber Fmt 4.6, Leading zero omitted, Abs format (unit mm)*
G04 Created by KiCad (PCBNEW (5.1.6-0-10_14)) date 2020-09-27 23:01:40*
%MOMM*%
%LPD*%
G01*
G04 APERTURE LIST*
%ADD10R,4.600000X1.100000*%
%ADD11R,4.550000X5.250000*%
G04 APERTURE END LIST*
D10*
X66735000Y-92392500D03*
X66735000Y-89852500D03*
X66735000Y-87312500D03*
D11*
X55160000Y-87077500D03*
X60010000Y-92627500D03*
X55160000Y-92627500D03*
X60010000Y-87077500D03*
G36*
G01*
X72568000Y-92906001D02*
X72568000Y-92005999D01*
G75*
G02*
X72817999Y-91756000I249999J0D01*
G01*
X73468001Y-91756000D01*
G75*
G02*
X73718000Y-92005999I0J-249999D01*
G01*
X73718000Y-92906001D01*
G75*
G02*
X73468001Y-93156000I-249999J0D01*
G01*
X72817999Y-93156000D01*
G75*
G02*
X72568000Y-92906001I0J249999D01*
G01*
G37*
G36*
G01*
X74618000Y-92906001D02*
X74618000Y-92005999D01*
G75*
G02*
X74867999Y-91756000I249999J0D01*
G01*
X75518001Y-91756000D01*
G75*
G02*
X75768000Y-92005999I0J-249999D01*
G01*
X75768000Y-92906001D01*
G75*
G02*
X75518001Y-93156000I-249999J0D01*
G01*
X74867999Y-93156000D01*
G75*
G02*
X74618000Y-92906001I0J249999D01*
G01*
G37*
G36*
G01*
X73718000Y-87179999D02*
X73718000Y-88080001D01*
G75*
G02*
X73468001Y-88330000I-249999J0D01*
G01*
X72817999Y-88330000D01*
G75*
G02*
X72568000Y-88080001I0J249999D01*
G01*
X72568000Y-87179999D01*
G75*
G02*
X72817999Y-86930000I249999J0D01*
G01*
X73468001Y-86930000D01*
G75*
G02*
X73718000Y-87179999I0J-249999D01*
G01*
G37*
G36*
G01*
X75768000Y-87179999D02*
X75768000Y-88080001D01*
G75*
G02*
X75518001Y-88330000I-249999J0D01*
G01*
X74867999Y-88330000D01*
G75*
G02*
X74618000Y-88080001I0J249999D01*
G01*
X74618000Y-87179999D01*
G75*
G02*
X74867999Y-86930000I249999J0D01*
G01*
X75518001Y-86930000D01*
G75*
G02*
X75768000Y-87179999I0J-249999D01*
G01*
G37*
G36*
G01*
X56820000Y-105860001D02*
X56820000Y-104959999D01*
G75*
G02*
X57069999Y-104710000I249999J0D01*
G01*
X57720001Y-104710000D01*
G75*
G02*
X57970000Y-104959999I0J-249999D01*
G01*
X57970000Y-105860001D01*
G75*
G02*
X57720001Y-106110000I-249999J0D01*
G01*
X57069999Y-106110000D01*
G75*
G02*
X56820000Y-105860001I0J249999D01*
G01*
G37*
G36*
G01*
X58870000Y-105860001D02*
X58870000Y-104959999D01*
G75*
G02*
X59119999Y-104710000I249999J0D01*
G01*
X59770001Y-104710000D01*
G75*
G02*
X60020000Y-104959999I0J-249999D01*
G01*
X60020000Y-105860001D01*
G75*
G02*
X59770001Y-106110000I-249999J0D01*
G01*
X59119999Y-106110000D01*
G75*
G02*
X58870000Y-105860001I0J249999D01*
G01*
G37*
G36*
G01*
X57970000Y-110039999D02*
X57970000Y-110940001D01*
G75*
G02*
X57720001Y-111190000I-249999J0D01*
G01*
X57069999Y-111190000D01*
G75*
G02*
X56820000Y-110940001I0J249999D01*
G01*
X56820000Y-110039999D01*
G75*
G02*
X57069999Y-109790000I249999J0D01*
G01*
X57720001Y-109790000D01*
G75*
G02*
X57970000Y-110039999I0J-249999D01*
G01*
G37*
G36*
G01*
X60020000Y-110039999D02*
X60020000Y-110940001D01*
G75*
G02*
X59770001Y-111190000I-249999J0D01*
G01*
X59119999Y-111190000D01*
G75*
G02*
X58870000Y-110940001I0J249999D01*
G01*
X58870000Y-110039999D01*
G75*
G02*
X59119999Y-109790000I249999J0D01*
G01*
X59770001Y-109790000D01*
G75*
G02*
X60020000Y-110039999I0J-249999D01*
G01*
G37*
G36*
G01*
X56820000Y-100780001D02*
X56820000Y-99879999D01*
G75*
G02*
X57069999Y-99630000I249999J0D01*
G01*
X57720001Y-99630000D01*
G75*
G02*
X57970000Y-99879999I0J-249999D01*
G01*
X57970000Y-100780001D01*
G75*
G02*
X57720001Y-101030000I-249999J0D01*
G01*
X57069999Y-101030000D01*
G75*
G02*
X56820000Y-100780001I0J249999D01*
G01*
G37*
G36*
G01*
X58870000Y-100780001D02*
X58870000Y-99879999D01*
G75*
G02*
X59119999Y-99630000I249999J0D01*
G01*
X59770001Y-99630000D01*
G75*
G02*
X60020000Y-99879999I0J-249999D01*
G01*
X60020000Y-100780001D01*
G75*
G02*
X59770001Y-101030000I-249999J0D01*
G01*
X59119999Y-101030000D01*
G75*
G02*
X58870000Y-100780001I0J249999D01*
G01*
G37*
G36*
G01*
X61900000Y-105860001D02*
X61900000Y-104959999D01*
G75*
G02*
X62149999Y-104710000I249999J0D01*
G01*
X62800001Y-104710000D01*
G75*
G02*
X63050000Y-104959999I0J-249999D01*
G01*
X63050000Y-105860001D01*
G75*
G02*
X62800001Y-106110000I-249999J0D01*
G01*
X62149999Y-106110000D01*
G75*
G02*
X61900000Y-105860001I0J249999D01*
G01*
G37*
G36*
G01*
X63950000Y-105860001D02*
X63950000Y-104959999D01*
G75*
G02*
X64199999Y-104710000I249999J0D01*
G01*
X64850001Y-104710000D01*
G75*
G02*
X65100000Y-104959999I0J-249999D01*
G01*
X65100000Y-105860001D01*
G75*
G02*
X64850001Y-106110000I-249999J0D01*
G01*
X64199999Y-106110000D01*
G75*
G02*
X63950000Y-105860001I0J249999D01*
G01*
G37*
G36*
G01*
X61900000Y-110940001D02*
X61900000Y-110039999D01*
G75*
G02*
X62149999Y-109790000I249999J0D01*
G01*
X62800001Y-109790000D01*
G75*
G02*
X63050000Y-110039999I0J-249999D01*
G01*
X63050000Y-110940001D01*
G75*
G02*
X62800001Y-111190000I-249999J0D01*
G01*
X62149999Y-111190000D01*
G75*
G02*
X61900000Y-110940001I0J249999D01*
G01*
G37*
G36*
G01*
X63950000Y-110940001D02*
X63950000Y-110039999D01*
G75*
G02*
X64199999Y-109790000I249999J0D01*
G01*
X64850001Y-109790000D01*
G75*
G02*
X65100000Y-110039999I0J-249999D01*
G01*
X65100000Y-110940001D01*
G75*
G02*
X64850001Y-111190000I-249999J0D01*
G01*
X64199999Y-111190000D01*
G75*
G02*
X63950000Y-110940001I0J249999D01*
G01*
G37*
G36*
G01*
X63050000Y-99879999D02*
X63050000Y-100780001D01*
G75*
G02*
X62800001Y-101030000I-249999J0D01*
G01*
X62149999Y-101030000D01*
G75*
G02*
X61900000Y-100780001I0J249999D01*
G01*
X61900000Y-99879999D01*
G75*
G02*
X62149999Y-99630000I249999J0D01*
G01*
X62800001Y-99630000D01*
G75*
G02*
X63050000Y-99879999I0J-249999D01*
G01*
G37*
G36*
G01*
X65100000Y-99879999D02*
X65100000Y-100780001D01*
G75*
G02*
X64850001Y-101030000I-249999J0D01*
G01*
X64199999Y-101030000D01*
G75*
G02*
X63950000Y-100780001I0J249999D01*
G01*
X63950000Y-99879999D01*
G75*
G02*
X64199999Y-99630000I249999J0D01*
G01*
X64850001Y-99630000D01*
G75*
G02*
X65100000Y-99879999I0J-249999D01*
G01*
G37*
M02*
