M48
;DRILL file {KiCad (5.0.0-3-g5ebb6b6)} date Wednesday, 12 December 2018 at 10:23:02
;FORMAT={-:-/ absolute / metric / decimal}
FMAT,2
METRIC,TZ
T1C0.400
T2C1.000
%
G90
G05
M71
T1
X50.8Y-83.883
X50.8Y-85.334
X50.8Y-86.783
X50.8Y-88.233
X50.8Y-89.683
X50.8Y-91.133
X50.8Y-92.584
X50.8Y-94.033
X50.8Y-95.483
X50.8Y-96.901
X52.35Y-83.883
X52.35Y-85.334
X52.35Y-86.783
X52.35Y-88.233
X52.35Y-89.683
X52.35Y-91.133
X52.35Y-92.584
X52.35Y-94.033
X52.35Y-95.483
X52.35Y-96.901
X53.9Y-83.883
X53.9Y-95.483
X53.9Y-96.901
X55.45Y-83.883
X55.45Y-95.483
X55.45Y-96.901
X57.Y-83.883
X57.Y-95.483
X57.Y-96.901
X57.395Y-101.591
X57.404Y-106.68
X57.404Y-111.76
X58.55Y-83.883
X58.55Y-95.483
X58.55Y-96.901
X60.1Y-83.883
X60.1Y-95.483
X60.1Y-96.901
X61.65Y-83.883
X61.65Y-95.483
X61.65Y-96.901
X63.2Y-83.883
X63.2Y-95.483
X63.2Y-96.901
X70.035Y-90.17
X74.295Y-90.17
T2
X99.06Y-92.71
X99.06Y-95.25
X99.06Y-97.79
X99.06Y-100.33
X99.06Y-102.87
X99.06Y-105.41
X99.06Y-107.95
X99.06Y-110.49
X101.6Y-92.71
X101.6Y-95.25
X101.6Y-97.79
X101.6Y-100.33
X101.6Y-102.87
X101.6Y-105.41
X101.6Y-107.95
X101.6Y-110.49
X129.54Y-92.71
X129.54Y-95.25
X129.54Y-97.79
X129.54Y-100.33
X129.54Y-102.87
X129.54Y-105.41
X129.54Y-107.95
X129.54Y-110.49
X132.08Y-92.71
X132.08Y-95.25
X132.08Y-97.79
X132.08Y-100.33
X132.08Y-102.87
X132.08Y-105.41
X132.08Y-107.95
X132.08Y-110.49
X144.78Y-92.71
X144.78Y-95.25
X144.78Y-97.79
X144.78Y-100.33
X144.78Y-102.87
X144.78Y-105.41
X144.78Y-107.95
X144.78Y-110.49
X147.32Y-92.71
X147.32Y-95.25
X147.32Y-97.79
X147.32Y-100.33
X147.32Y-102.87
X147.32Y-105.41
X147.32Y-107.95
X147.32Y-110.49
X190.5Y-92.71
X190.5Y-95.25
X190.5Y-97.79
X190.5Y-100.33
X190.5Y-102.87
X190.5Y-105.41
X190.5Y-107.95
X190.5Y-110.49
X193.04Y-92.71
X193.04Y-95.25
X193.04Y-97.79
X193.04Y-100.33
X193.04Y-102.87
X193.04Y-105.41
X193.04Y-107.95
X193.04Y-110.49
X160.02Y-92.71
X160.02Y-95.25
X160.02Y-97.79
X160.02Y-100.33
X160.02Y-102.87
X160.02Y-105.41
X160.02Y-107.95
X160.02Y-110.49
X162.56Y-92.71
X162.56Y-95.25
X162.56Y-97.79
X162.56Y-100.33
X162.56Y-102.87
X162.56Y-105.41
X162.56Y-107.95
X162.56Y-110.49
X83.82Y-92.71
X83.82Y-95.25
X83.82Y-97.79
X83.82Y-100.33
X83.82Y-102.87
X83.82Y-105.41
X83.82Y-107.95
X83.82Y-110.49
X86.36Y-92.71
X86.36Y-95.25
X86.36Y-97.79
X86.36Y-100.33
X86.36Y-102.87
X86.36Y-105.41
X86.36Y-107.95
X86.36Y-110.49
X68.58Y-100.33
X68.58Y-102.87
X68.58Y-105.41
X68.58Y-107.95
X68.58Y-110.49
X71.12Y-100.33
X71.12Y-102.87
X71.12Y-105.41
X71.12Y-107.95
X71.12Y-110.49
X114.3Y-92.71
X114.3Y-95.25
X114.3Y-97.79
X114.3Y-100.33
X114.3Y-102.87
X114.3Y-105.41
X114.3Y-107.95
X114.3Y-110.49
X116.84Y-92.71
X116.84Y-95.25
X116.84Y-97.79
X116.84Y-100.33
X116.84Y-102.87
X116.84Y-105.41
X116.84Y-107.95
X116.84Y-110.49
X175.26Y-92.71
X175.26Y-95.25
X175.26Y-97.79
X175.26Y-100.33
X175.26Y-102.87
X175.26Y-105.41
X175.26Y-107.95
X175.26Y-110.49
X177.8Y-92.71
X177.8Y-95.25
X177.8Y-97.79
X177.8Y-100.33
X177.8Y-102.87
X177.8Y-105.41
X177.8Y-107.95
X177.8Y-110.49
T0
M30
