G04 #@! TF.GenerationSoftware,KiCad,Pcbnew,(5.0.0-3-g5ebb6b6)*
G04 #@! TF.CreationDate,2018-12-12T10:22:58+00:00*
G04 #@! TF.ProjectId,PSUExtensionBoard,505355457874656E73696F6E426F6172,rev?*
G04 #@! TF.SameCoordinates,Original*
G04 #@! TF.FileFunction,Soldermask,Top*
G04 #@! TF.FilePolarity,Negative*
%FSLAX46Y46*%
G04 Gerber Fmt 4.6, Leading zero omitted, Abs format (unit mm)*
G04 Created by KiCad (PCBNEW (5.0.0-3-g5ebb6b6)) date Wednesday, 12 December 2018 at 10:22:58*
%MOMM*%
%LPD*%
G01*
G04 APERTURE LIST*
%ADD10R,5.000000X1.500000*%
%ADD11R,9.800000X11.200000*%
%ADD12C,0.100000*%
%ADD13C,1.550000*%
%ADD14R,2.100000X2.100000*%
%ADD15O,2.100000X2.100000*%
%ADD16C,0.254000*%
G04 APERTURE END LIST*
D10*
G04 #@! TO.C,U_REG1*
X66735000Y-92392500D03*
X66735000Y-89852500D03*
X66735000Y-87312500D03*
D11*
X57585000Y-89852500D03*
G04 #@! TD*
D12*
G04 #@! TO.C,C1*
G36*
X73614071Y-91557623D02*
X73646781Y-91562475D01*
X73678857Y-91570509D01*
X73709991Y-91581649D01*
X73739884Y-91595787D01*
X73768247Y-91612787D01*
X73794807Y-91632485D01*
X73819308Y-91654692D01*
X73841515Y-91679193D01*
X73861213Y-91705753D01*
X73878213Y-91734116D01*
X73892351Y-91764009D01*
X73903491Y-91795143D01*
X73911525Y-91827219D01*
X73916377Y-91859929D01*
X73918000Y-91892956D01*
X73918000Y-93019044D01*
X73916377Y-93052071D01*
X73911525Y-93084781D01*
X73903491Y-93116857D01*
X73892351Y-93147991D01*
X73878213Y-93177884D01*
X73861213Y-93206247D01*
X73841515Y-93232807D01*
X73819308Y-93257308D01*
X73794807Y-93279515D01*
X73768247Y-93299213D01*
X73739884Y-93316213D01*
X73709991Y-93330351D01*
X73678857Y-93341491D01*
X73646781Y-93349525D01*
X73614071Y-93354377D01*
X73581044Y-93356000D01*
X72704956Y-93356000D01*
X72671929Y-93354377D01*
X72639219Y-93349525D01*
X72607143Y-93341491D01*
X72576009Y-93330351D01*
X72546116Y-93316213D01*
X72517753Y-93299213D01*
X72491193Y-93279515D01*
X72466692Y-93257308D01*
X72444485Y-93232807D01*
X72424787Y-93206247D01*
X72407787Y-93177884D01*
X72393649Y-93147991D01*
X72382509Y-93116857D01*
X72374475Y-93084781D01*
X72369623Y-93052071D01*
X72368000Y-93019044D01*
X72368000Y-91892956D01*
X72369623Y-91859929D01*
X72374475Y-91827219D01*
X72382509Y-91795143D01*
X72393649Y-91764009D01*
X72407787Y-91734116D01*
X72424787Y-91705753D01*
X72444485Y-91679193D01*
X72466692Y-91654692D01*
X72491193Y-91632485D01*
X72517753Y-91612787D01*
X72546116Y-91595787D01*
X72576009Y-91581649D01*
X72607143Y-91570509D01*
X72639219Y-91562475D01*
X72671929Y-91557623D01*
X72704956Y-91556000D01*
X73581044Y-91556000D01*
X73614071Y-91557623D01*
X73614071Y-91557623D01*
G37*
D13*
X73143000Y-92456000D03*
D12*
G36*
X75664071Y-91557623D02*
X75696781Y-91562475D01*
X75728857Y-91570509D01*
X75759991Y-91581649D01*
X75789884Y-91595787D01*
X75818247Y-91612787D01*
X75844807Y-91632485D01*
X75869308Y-91654692D01*
X75891515Y-91679193D01*
X75911213Y-91705753D01*
X75928213Y-91734116D01*
X75942351Y-91764009D01*
X75953491Y-91795143D01*
X75961525Y-91827219D01*
X75966377Y-91859929D01*
X75968000Y-91892956D01*
X75968000Y-93019044D01*
X75966377Y-93052071D01*
X75961525Y-93084781D01*
X75953491Y-93116857D01*
X75942351Y-93147991D01*
X75928213Y-93177884D01*
X75911213Y-93206247D01*
X75891515Y-93232807D01*
X75869308Y-93257308D01*
X75844807Y-93279515D01*
X75818247Y-93299213D01*
X75789884Y-93316213D01*
X75759991Y-93330351D01*
X75728857Y-93341491D01*
X75696781Y-93349525D01*
X75664071Y-93354377D01*
X75631044Y-93356000D01*
X74754956Y-93356000D01*
X74721929Y-93354377D01*
X74689219Y-93349525D01*
X74657143Y-93341491D01*
X74626009Y-93330351D01*
X74596116Y-93316213D01*
X74567753Y-93299213D01*
X74541193Y-93279515D01*
X74516692Y-93257308D01*
X74494485Y-93232807D01*
X74474787Y-93206247D01*
X74457787Y-93177884D01*
X74443649Y-93147991D01*
X74432509Y-93116857D01*
X74424475Y-93084781D01*
X74419623Y-93052071D01*
X74418000Y-93019044D01*
X74418000Y-91892956D01*
X74419623Y-91859929D01*
X74424475Y-91827219D01*
X74432509Y-91795143D01*
X74443649Y-91764009D01*
X74457787Y-91734116D01*
X74474787Y-91705753D01*
X74494485Y-91679193D01*
X74516692Y-91654692D01*
X74541193Y-91632485D01*
X74567753Y-91612787D01*
X74596116Y-91595787D01*
X74626009Y-91581649D01*
X74657143Y-91570509D01*
X74689219Y-91562475D01*
X74721929Y-91557623D01*
X74754956Y-91556000D01*
X75631044Y-91556000D01*
X75664071Y-91557623D01*
X75664071Y-91557623D01*
G37*
D13*
X75193000Y-92456000D03*
G04 #@! TD*
D12*
G04 #@! TO.C,C2*
G36*
X73614071Y-86731623D02*
X73646781Y-86736475D01*
X73678857Y-86744509D01*
X73709991Y-86755649D01*
X73739884Y-86769787D01*
X73768247Y-86786787D01*
X73794807Y-86806485D01*
X73819308Y-86828692D01*
X73841515Y-86853193D01*
X73861213Y-86879753D01*
X73878213Y-86908116D01*
X73892351Y-86938009D01*
X73903491Y-86969143D01*
X73911525Y-87001219D01*
X73916377Y-87033929D01*
X73918000Y-87066956D01*
X73918000Y-88193044D01*
X73916377Y-88226071D01*
X73911525Y-88258781D01*
X73903491Y-88290857D01*
X73892351Y-88321991D01*
X73878213Y-88351884D01*
X73861213Y-88380247D01*
X73841515Y-88406807D01*
X73819308Y-88431308D01*
X73794807Y-88453515D01*
X73768247Y-88473213D01*
X73739884Y-88490213D01*
X73709991Y-88504351D01*
X73678857Y-88515491D01*
X73646781Y-88523525D01*
X73614071Y-88528377D01*
X73581044Y-88530000D01*
X72704956Y-88530000D01*
X72671929Y-88528377D01*
X72639219Y-88523525D01*
X72607143Y-88515491D01*
X72576009Y-88504351D01*
X72546116Y-88490213D01*
X72517753Y-88473213D01*
X72491193Y-88453515D01*
X72466692Y-88431308D01*
X72444485Y-88406807D01*
X72424787Y-88380247D01*
X72407787Y-88351884D01*
X72393649Y-88321991D01*
X72382509Y-88290857D01*
X72374475Y-88258781D01*
X72369623Y-88226071D01*
X72368000Y-88193044D01*
X72368000Y-87066956D01*
X72369623Y-87033929D01*
X72374475Y-87001219D01*
X72382509Y-86969143D01*
X72393649Y-86938009D01*
X72407787Y-86908116D01*
X72424787Y-86879753D01*
X72444485Y-86853193D01*
X72466692Y-86828692D01*
X72491193Y-86806485D01*
X72517753Y-86786787D01*
X72546116Y-86769787D01*
X72576009Y-86755649D01*
X72607143Y-86744509D01*
X72639219Y-86736475D01*
X72671929Y-86731623D01*
X72704956Y-86730000D01*
X73581044Y-86730000D01*
X73614071Y-86731623D01*
X73614071Y-86731623D01*
G37*
D13*
X73143000Y-87630000D03*
D12*
G36*
X75664071Y-86731623D02*
X75696781Y-86736475D01*
X75728857Y-86744509D01*
X75759991Y-86755649D01*
X75789884Y-86769787D01*
X75818247Y-86786787D01*
X75844807Y-86806485D01*
X75869308Y-86828692D01*
X75891515Y-86853193D01*
X75911213Y-86879753D01*
X75928213Y-86908116D01*
X75942351Y-86938009D01*
X75953491Y-86969143D01*
X75961525Y-87001219D01*
X75966377Y-87033929D01*
X75968000Y-87066956D01*
X75968000Y-88193044D01*
X75966377Y-88226071D01*
X75961525Y-88258781D01*
X75953491Y-88290857D01*
X75942351Y-88321991D01*
X75928213Y-88351884D01*
X75911213Y-88380247D01*
X75891515Y-88406807D01*
X75869308Y-88431308D01*
X75844807Y-88453515D01*
X75818247Y-88473213D01*
X75789884Y-88490213D01*
X75759991Y-88504351D01*
X75728857Y-88515491D01*
X75696781Y-88523525D01*
X75664071Y-88528377D01*
X75631044Y-88530000D01*
X74754956Y-88530000D01*
X74721929Y-88528377D01*
X74689219Y-88523525D01*
X74657143Y-88515491D01*
X74626009Y-88504351D01*
X74596116Y-88490213D01*
X74567753Y-88473213D01*
X74541193Y-88453515D01*
X74516692Y-88431308D01*
X74494485Y-88406807D01*
X74474787Y-88380247D01*
X74457787Y-88351884D01*
X74443649Y-88321991D01*
X74432509Y-88290857D01*
X74424475Y-88258781D01*
X74419623Y-88226071D01*
X74418000Y-88193044D01*
X74418000Y-87066956D01*
X74419623Y-87033929D01*
X74424475Y-87001219D01*
X74432509Y-86969143D01*
X74443649Y-86938009D01*
X74457787Y-86908116D01*
X74474787Y-86879753D01*
X74494485Y-86853193D01*
X74516692Y-86828692D01*
X74541193Y-86806485D01*
X74567753Y-86786787D01*
X74596116Y-86769787D01*
X74626009Y-86755649D01*
X74657143Y-86744509D01*
X74689219Y-86736475D01*
X74721929Y-86731623D01*
X74754956Y-86730000D01*
X75631044Y-86730000D01*
X75664071Y-86731623D01*
X75664071Y-86731623D01*
G37*
D13*
X75193000Y-87630000D03*
G04 #@! TD*
D12*
G04 #@! TO.C,D_5VPP1*
G36*
X57866071Y-104511623D02*
X57898781Y-104516475D01*
X57930857Y-104524509D01*
X57961991Y-104535649D01*
X57991884Y-104549787D01*
X58020247Y-104566787D01*
X58046807Y-104586485D01*
X58071308Y-104608692D01*
X58093515Y-104633193D01*
X58113213Y-104659753D01*
X58130213Y-104688116D01*
X58144351Y-104718009D01*
X58155491Y-104749143D01*
X58163525Y-104781219D01*
X58168377Y-104813929D01*
X58170000Y-104846956D01*
X58170000Y-105973044D01*
X58168377Y-106006071D01*
X58163525Y-106038781D01*
X58155491Y-106070857D01*
X58144351Y-106101991D01*
X58130213Y-106131884D01*
X58113213Y-106160247D01*
X58093515Y-106186807D01*
X58071308Y-106211308D01*
X58046807Y-106233515D01*
X58020247Y-106253213D01*
X57991884Y-106270213D01*
X57961991Y-106284351D01*
X57930857Y-106295491D01*
X57898781Y-106303525D01*
X57866071Y-106308377D01*
X57833044Y-106310000D01*
X56956956Y-106310000D01*
X56923929Y-106308377D01*
X56891219Y-106303525D01*
X56859143Y-106295491D01*
X56828009Y-106284351D01*
X56798116Y-106270213D01*
X56769753Y-106253213D01*
X56743193Y-106233515D01*
X56718692Y-106211308D01*
X56696485Y-106186807D01*
X56676787Y-106160247D01*
X56659787Y-106131884D01*
X56645649Y-106101991D01*
X56634509Y-106070857D01*
X56626475Y-106038781D01*
X56621623Y-106006071D01*
X56620000Y-105973044D01*
X56620000Y-104846956D01*
X56621623Y-104813929D01*
X56626475Y-104781219D01*
X56634509Y-104749143D01*
X56645649Y-104718009D01*
X56659787Y-104688116D01*
X56676787Y-104659753D01*
X56696485Y-104633193D01*
X56718692Y-104608692D01*
X56743193Y-104586485D01*
X56769753Y-104566787D01*
X56798116Y-104549787D01*
X56828009Y-104535649D01*
X56859143Y-104524509D01*
X56891219Y-104516475D01*
X56923929Y-104511623D01*
X56956956Y-104510000D01*
X57833044Y-104510000D01*
X57866071Y-104511623D01*
X57866071Y-104511623D01*
G37*
D13*
X57395000Y-105410000D03*
D12*
G36*
X59916071Y-104511623D02*
X59948781Y-104516475D01*
X59980857Y-104524509D01*
X60011991Y-104535649D01*
X60041884Y-104549787D01*
X60070247Y-104566787D01*
X60096807Y-104586485D01*
X60121308Y-104608692D01*
X60143515Y-104633193D01*
X60163213Y-104659753D01*
X60180213Y-104688116D01*
X60194351Y-104718009D01*
X60205491Y-104749143D01*
X60213525Y-104781219D01*
X60218377Y-104813929D01*
X60220000Y-104846956D01*
X60220000Y-105973044D01*
X60218377Y-106006071D01*
X60213525Y-106038781D01*
X60205491Y-106070857D01*
X60194351Y-106101991D01*
X60180213Y-106131884D01*
X60163213Y-106160247D01*
X60143515Y-106186807D01*
X60121308Y-106211308D01*
X60096807Y-106233515D01*
X60070247Y-106253213D01*
X60041884Y-106270213D01*
X60011991Y-106284351D01*
X59980857Y-106295491D01*
X59948781Y-106303525D01*
X59916071Y-106308377D01*
X59883044Y-106310000D01*
X59006956Y-106310000D01*
X58973929Y-106308377D01*
X58941219Y-106303525D01*
X58909143Y-106295491D01*
X58878009Y-106284351D01*
X58848116Y-106270213D01*
X58819753Y-106253213D01*
X58793193Y-106233515D01*
X58768692Y-106211308D01*
X58746485Y-106186807D01*
X58726787Y-106160247D01*
X58709787Y-106131884D01*
X58695649Y-106101991D01*
X58684509Y-106070857D01*
X58676475Y-106038781D01*
X58671623Y-106006071D01*
X58670000Y-105973044D01*
X58670000Y-104846956D01*
X58671623Y-104813929D01*
X58676475Y-104781219D01*
X58684509Y-104749143D01*
X58695649Y-104718009D01*
X58709787Y-104688116D01*
X58726787Y-104659753D01*
X58746485Y-104633193D01*
X58768692Y-104608692D01*
X58793193Y-104586485D01*
X58819753Y-104566787D01*
X58848116Y-104549787D01*
X58878009Y-104535649D01*
X58909143Y-104524509D01*
X58941219Y-104516475D01*
X58973929Y-104511623D01*
X59006956Y-104510000D01*
X59883044Y-104510000D01*
X59916071Y-104511623D01*
X59916071Y-104511623D01*
G37*
D13*
X59445000Y-105410000D03*
G04 #@! TD*
D12*
G04 #@! TO.C,D_NEG1*
G36*
X57866071Y-109591623D02*
X57898781Y-109596475D01*
X57930857Y-109604509D01*
X57961991Y-109615649D01*
X57991884Y-109629787D01*
X58020247Y-109646787D01*
X58046807Y-109666485D01*
X58071308Y-109688692D01*
X58093515Y-109713193D01*
X58113213Y-109739753D01*
X58130213Y-109768116D01*
X58144351Y-109798009D01*
X58155491Y-109829143D01*
X58163525Y-109861219D01*
X58168377Y-109893929D01*
X58170000Y-109926956D01*
X58170000Y-111053044D01*
X58168377Y-111086071D01*
X58163525Y-111118781D01*
X58155491Y-111150857D01*
X58144351Y-111181991D01*
X58130213Y-111211884D01*
X58113213Y-111240247D01*
X58093515Y-111266807D01*
X58071308Y-111291308D01*
X58046807Y-111313515D01*
X58020247Y-111333213D01*
X57991884Y-111350213D01*
X57961991Y-111364351D01*
X57930857Y-111375491D01*
X57898781Y-111383525D01*
X57866071Y-111388377D01*
X57833044Y-111390000D01*
X56956956Y-111390000D01*
X56923929Y-111388377D01*
X56891219Y-111383525D01*
X56859143Y-111375491D01*
X56828009Y-111364351D01*
X56798116Y-111350213D01*
X56769753Y-111333213D01*
X56743193Y-111313515D01*
X56718692Y-111291308D01*
X56696485Y-111266807D01*
X56676787Y-111240247D01*
X56659787Y-111211884D01*
X56645649Y-111181991D01*
X56634509Y-111150857D01*
X56626475Y-111118781D01*
X56621623Y-111086071D01*
X56620000Y-111053044D01*
X56620000Y-109926956D01*
X56621623Y-109893929D01*
X56626475Y-109861219D01*
X56634509Y-109829143D01*
X56645649Y-109798009D01*
X56659787Y-109768116D01*
X56676787Y-109739753D01*
X56696485Y-109713193D01*
X56718692Y-109688692D01*
X56743193Y-109666485D01*
X56769753Y-109646787D01*
X56798116Y-109629787D01*
X56828009Y-109615649D01*
X56859143Y-109604509D01*
X56891219Y-109596475D01*
X56923929Y-109591623D01*
X56956956Y-109590000D01*
X57833044Y-109590000D01*
X57866071Y-109591623D01*
X57866071Y-109591623D01*
G37*
D13*
X57395000Y-110490000D03*
D12*
G36*
X59916071Y-109591623D02*
X59948781Y-109596475D01*
X59980857Y-109604509D01*
X60011991Y-109615649D01*
X60041884Y-109629787D01*
X60070247Y-109646787D01*
X60096807Y-109666485D01*
X60121308Y-109688692D01*
X60143515Y-109713193D01*
X60163213Y-109739753D01*
X60180213Y-109768116D01*
X60194351Y-109798009D01*
X60205491Y-109829143D01*
X60213525Y-109861219D01*
X60218377Y-109893929D01*
X60220000Y-109926956D01*
X60220000Y-111053044D01*
X60218377Y-111086071D01*
X60213525Y-111118781D01*
X60205491Y-111150857D01*
X60194351Y-111181991D01*
X60180213Y-111211884D01*
X60163213Y-111240247D01*
X60143515Y-111266807D01*
X60121308Y-111291308D01*
X60096807Y-111313515D01*
X60070247Y-111333213D01*
X60041884Y-111350213D01*
X60011991Y-111364351D01*
X59980857Y-111375491D01*
X59948781Y-111383525D01*
X59916071Y-111388377D01*
X59883044Y-111390000D01*
X59006956Y-111390000D01*
X58973929Y-111388377D01*
X58941219Y-111383525D01*
X58909143Y-111375491D01*
X58878009Y-111364351D01*
X58848116Y-111350213D01*
X58819753Y-111333213D01*
X58793193Y-111313515D01*
X58768692Y-111291308D01*
X58746485Y-111266807D01*
X58726787Y-111240247D01*
X58709787Y-111211884D01*
X58695649Y-111181991D01*
X58684509Y-111150857D01*
X58676475Y-111118781D01*
X58671623Y-111086071D01*
X58670000Y-111053044D01*
X58670000Y-109926956D01*
X58671623Y-109893929D01*
X58676475Y-109861219D01*
X58684509Y-109829143D01*
X58695649Y-109798009D01*
X58709787Y-109768116D01*
X58726787Y-109739753D01*
X58746485Y-109713193D01*
X58768692Y-109688692D01*
X58793193Y-109666485D01*
X58819753Y-109646787D01*
X58848116Y-109629787D01*
X58878009Y-109615649D01*
X58909143Y-109604509D01*
X58941219Y-109596475D01*
X58973929Y-109591623D01*
X59006956Y-109590000D01*
X59883044Y-109590000D01*
X59916071Y-109591623D01*
X59916071Y-109591623D01*
G37*
D13*
X59445000Y-110490000D03*
G04 #@! TD*
D12*
G04 #@! TO.C,D_POS1*
G36*
X57866071Y-99431623D02*
X57898781Y-99436475D01*
X57930857Y-99444509D01*
X57961991Y-99455649D01*
X57991884Y-99469787D01*
X58020247Y-99486787D01*
X58046807Y-99506485D01*
X58071308Y-99528692D01*
X58093515Y-99553193D01*
X58113213Y-99579753D01*
X58130213Y-99608116D01*
X58144351Y-99638009D01*
X58155491Y-99669143D01*
X58163525Y-99701219D01*
X58168377Y-99733929D01*
X58170000Y-99766956D01*
X58170000Y-100893044D01*
X58168377Y-100926071D01*
X58163525Y-100958781D01*
X58155491Y-100990857D01*
X58144351Y-101021991D01*
X58130213Y-101051884D01*
X58113213Y-101080247D01*
X58093515Y-101106807D01*
X58071308Y-101131308D01*
X58046807Y-101153515D01*
X58020247Y-101173213D01*
X57991884Y-101190213D01*
X57961991Y-101204351D01*
X57930857Y-101215491D01*
X57898781Y-101223525D01*
X57866071Y-101228377D01*
X57833044Y-101230000D01*
X56956956Y-101230000D01*
X56923929Y-101228377D01*
X56891219Y-101223525D01*
X56859143Y-101215491D01*
X56828009Y-101204351D01*
X56798116Y-101190213D01*
X56769753Y-101173213D01*
X56743193Y-101153515D01*
X56718692Y-101131308D01*
X56696485Y-101106807D01*
X56676787Y-101080247D01*
X56659787Y-101051884D01*
X56645649Y-101021991D01*
X56634509Y-100990857D01*
X56626475Y-100958781D01*
X56621623Y-100926071D01*
X56620000Y-100893044D01*
X56620000Y-99766956D01*
X56621623Y-99733929D01*
X56626475Y-99701219D01*
X56634509Y-99669143D01*
X56645649Y-99638009D01*
X56659787Y-99608116D01*
X56676787Y-99579753D01*
X56696485Y-99553193D01*
X56718692Y-99528692D01*
X56743193Y-99506485D01*
X56769753Y-99486787D01*
X56798116Y-99469787D01*
X56828009Y-99455649D01*
X56859143Y-99444509D01*
X56891219Y-99436475D01*
X56923929Y-99431623D01*
X56956956Y-99430000D01*
X57833044Y-99430000D01*
X57866071Y-99431623D01*
X57866071Y-99431623D01*
G37*
D13*
X57395000Y-100330000D03*
D12*
G36*
X59916071Y-99431623D02*
X59948781Y-99436475D01*
X59980857Y-99444509D01*
X60011991Y-99455649D01*
X60041884Y-99469787D01*
X60070247Y-99486787D01*
X60096807Y-99506485D01*
X60121308Y-99528692D01*
X60143515Y-99553193D01*
X60163213Y-99579753D01*
X60180213Y-99608116D01*
X60194351Y-99638009D01*
X60205491Y-99669143D01*
X60213525Y-99701219D01*
X60218377Y-99733929D01*
X60220000Y-99766956D01*
X60220000Y-100893044D01*
X60218377Y-100926071D01*
X60213525Y-100958781D01*
X60205491Y-100990857D01*
X60194351Y-101021991D01*
X60180213Y-101051884D01*
X60163213Y-101080247D01*
X60143515Y-101106807D01*
X60121308Y-101131308D01*
X60096807Y-101153515D01*
X60070247Y-101173213D01*
X60041884Y-101190213D01*
X60011991Y-101204351D01*
X59980857Y-101215491D01*
X59948781Y-101223525D01*
X59916071Y-101228377D01*
X59883044Y-101230000D01*
X59006956Y-101230000D01*
X58973929Y-101228377D01*
X58941219Y-101223525D01*
X58909143Y-101215491D01*
X58878009Y-101204351D01*
X58848116Y-101190213D01*
X58819753Y-101173213D01*
X58793193Y-101153515D01*
X58768692Y-101131308D01*
X58746485Y-101106807D01*
X58726787Y-101080247D01*
X58709787Y-101051884D01*
X58695649Y-101021991D01*
X58684509Y-100990857D01*
X58676475Y-100958781D01*
X58671623Y-100926071D01*
X58670000Y-100893044D01*
X58670000Y-99766956D01*
X58671623Y-99733929D01*
X58676475Y-99701219D01*
X58684509Y-99669143D01*
X58695649Y-99638009D01*
X58709787Y-99608116D01*
X58726787Y-99579753D01*
X58746485Y-99553193D01*
X58768692Y-99528692D01*
X58793193Y-99506485D01*
X58819753Y-99486787D01*
X58848116Y-99469787D01*
X58878009Y-99455649D01*
X58909143Y-99444509D01*
X58941219Y-99436475D01*
X58973929Y-99431623D01*
X59006956Y-99430000D01*
X59883044Y-99430000D01*
X59916071Y-99431623D01*
X59916071Y-99431623D01*
G37*
D13*
X59445000Y-100330000D03*
G04 #@! TD*
D14*
G04 #@! TO.C,J_IN1*
X68580000Y-100330000D03*
D15*
X71120000Y-100330000D03*
X68580000Y-102870000D03*
X71120000Y-102870000D03*
X68580000Y-105410000D03*
X71120000Y-105410000D03*
X68580000Y-107950000D03*
X71120000Y-107950000D03*
X68580000Y-110490000D03*
X71120000Y-110490000D03*
G04 #@! TD*
D14*
G04 #@! TO.C,J_OUT1*
X83820000Y-92710000D03*
D15*
X86360000Y-92710000D03*
X83820000Y-95250000D03*
X86360000Y-95250000D03*
X83820000Y-97790000D03*
X86360000Y-97790000D03*
X83820000Y-100330000D03*
X86360000Y-100330000D03*
X83820000Y-102870000D03*
X86360000Y-102870000D03*
X83820000Y-105410000D03*
X86360000Y-105410000D03*
X83820000Y-107950000D03*
X86360000Y-107950000D03*
X83820000Y-110490000D03*
X86360000Y-110490000D03*
G04 #@! TD*
G04 #@! TO.C,J_OUT2*
X101600000Y-110490000D03*
X99060000Y-110490000D03*
X101600000Y-107950000D03*
X99060000Y-107950000D03*
X101600000Y-105410000D03*
X99060000Y-105410000D03*
X101600000Y-102870000D03*
X99060000Y-102870000D03*
X101600000Y-100330000D03*
X99060000Y-100330000D03*
X101600000Y-97790000D03*
X99060000Y-97790000D03*
X101600000Y-95250000D03*
X99060000Y-95250000D03*
X101600000Y-92710000D03*
D14*
X99060000Y-92710000D03*
G04 #@! TD*
G04 #@! TO.C,J_OUT3*
X114300000Y-92710000D03*
D15*
X116840000Y-92710000D03*
X114300000Y-95250000D03*
X116840000Y-95250000D03*
X114300000Y-97790000D03*
X116840000Y-97790000D03*
X114300000Y-100330000D03*
X116840000Y-100330000D03*
X114300000Y-102870000D03*
X116840000Y-102870000D03*
X114300000Y-105410000D03*
X116840000Y-105410000D03*
X114300000Y-107950000D03*
X116840000Y-107950000D03*
X114300000Y-110490000D03*
X116840000Y-110490000D03*
G04 #@! TD*
G04 #@! TO.C,J_OUT4*
X132080000Y-110490000D03*
X129540000Y-110490000D03*
X132080000Y-107950000D03*
X129540000Y-107950000D03*
X132080000Y-105410000D03*
X129540000Y-105410000D03*
X132080000Y-102870000D03*
X129540000Y-102870000D03*
X132080000Y-100330000D03*
X129540000Y-100330000D03*
X132080000Y-97790000D03*
X129540000Y-97790000D03*
X132080000Y-95250000D03*
X129540000Y-95250000D03*
X132080000Y-92710000D03*
D14*
X129540000Y-92710000D03*
G04 #@! TD*
G04 #@! TO.C,J_OUT5*
X144780000Y-92710000D03*
D15*
X147320000Y-92710000D03*
X144780000Y-95250000D03*
X147320000Y-95250000D03*
X144780000Y-97790000D03*
X147320000Y-97790000D03*
X144780000Y-100330000D03*
X147320000Y-100330000D03*
X144780000Y-102870000D03*
X147320000Y-102870000D03*
X144780000Y-105410000D03*
X147320000Y-105410000D03*
X144780000Y-107950000D03*
X147320000Y-107950000D03*
X144780000Y-110490000D03*
X147320000Y-110490000D03*
G04 #@! TD*
G04 #@! TO.C,J_OUT6*
X162560000Y-110490000D03*
X160020000Y-110490000D03*
X162560000Y-107950000D03*
X160020000Y-107950000D03*
X162560000Y-105410000D03*
X160020000Y-105410000D03*
X162560000Y-102870000D03*
X160020000Y-102870000D03*
X162560000Y-100330000D03*
X160020000Y-100330000D03*
X162560000Y-97790000D03*
X160020000Y-97790000D03*
X162560000Y-95250000D03*
X160020000Y-95250000D03*
X162560000Y-92710000D03*
D14*
X160020000Y-92710000D03*
G04 #@! TD*
G04 #@! TO.C,J_OUT7*
X175260000Y-92710000D03*
D15*
X177800000Y-92710000D03*
X175260000Y-95250000D03*
X177800000Y-95250000D03*
X175260000Y-97790000D03*
X177800000Y-97790000D03*
X175260000Y-100330000D03*
X177800000Y-100330000D03*
X175260000Y-102870000D03*
X177800000Y-102870000D03*
X175260000Y-105410000D03*
X177800000Y-105410000D03*
X175260000Y-107950000D03*
X177800000Y-107950000D03*
X175260000Y-110490000D03*
X177800000Y-110490000D03*
G04 #@! TD*
G04 #@! TO.C,J_OUT8*
X193040000Y-110490000D03*
X190500000Y-110490000D03*
X193040000Y-107950000D03*
X190500000Y-107950000D03*
X193040000Y-105410000D03*
X190500000Y-105410000D03*
X193040000Y-102870000D03*
X190500000Y-102870000D03*
X193040000Y-100330000D03*
X190500000Y-100330000D03*
X193040000Y-97790000D03*
X190500000Y-97790000D03*
X193040000Y-95250000D03*
X190500000Y-95250000D03*
X193040000Y-92710000D03*
D14*
X190500000Y-92710000D03*
G04 #@! TD*
D12*
G04 #@! TO.C,R_5VPP1*
G36*
X62946071Y-104511623D02*
X62978781Y-104516475D01*
X63010857Y-104524509D01*
X63041991Y-104535649D01*
X63071884Y-104549787D01*
X63100247Y-104566787D01*
X63126807Y-104586485D01*
X63151308Y-104608692D01*
X63173515Y-104633193D01*
X63193213Y-104659753D01*
X63210213Y-104688116D01*
X63224351Y-104718009D01*
X63235491Y-104749143D01*
X63243525Y-104781219D01*
X63248377Y-104813929D01*
X63250000Y-104846956D01*
X63250000Y-105973044D01*
X63248377Y-106006071D01*
X63243525Y-106038781D01*
X63235491Y-106070857D01*
X63224351Y-106101991D01*
X63210213Y-106131884D01*
X63193213Y-106160247D01*
X63173515Y-106186807D01*
X63151308Y-106211308D01*
X63126807Y-106233515D01*
X63100247Y-106253213D01*
X63071884Y-106270213D01*
X63041991Y-106284351D01*
X63010857Y-106295491D01*
X62978781Y-106303525D01*
X62946071Y-106308377D01*
X62913044Y-106310000D01*
X62036956Y-106310000D01*
X62003929Y-106308377D01*
X61971219Y-106303525D01*
X61939143Y-106295491D01*
X61908009Y-106284351D01*
X61878116Y-106270213D01*
X61849753Y-106253213D01*
X61823193Y-106233515D01*
X61798692Y-106211308D01*
X61776485Y-106186807D01*
X61756787Y-106160247D01*
X61739787Y-106131884D01*
X61725649Y-106101991D01*
X61714509Y-106070857D01*
X61706475Y-106038781D01*
X61701623Y-106006071D01*
X61700000Y-105973044D01*
X61700000Y-104846956D01*
X61701623Y-104813929D01*
X61706475Y-104781219D01*
X61714509Y-104749143D01*
X61725649Y-104718009D01*
X61739787Y-104688116D01*
X61756787Y-104659753D01*
X61776485Y-104633193D01*
X61798692Y-104608692D01*
X61823193Y-104586485D01*
X61849753Y-104566787D01*
X61878116Y-104549787D01*
X61908009Y-104535649D01*
X61939143Y-104524509D01*
X61971219Y-104516475D01*
X62003929Y-104511623D01*
X62036956Y-104510000D01*
X62913044Y-104510000D01*
X62946071Y-104511623D01*
X62946071Y-104511623D01*
G37*
D13*
X62475000Y-105410000D03*
D12*
G36*
X64996071Y-104511623D02*
X65028781Y-104516475D01*
X65060857Y-104524509D01*
X65091991Y-104535649D01*
X65121884Y-104549787D01*
X65150247Y-104566787D01*
X65176807Y-104586485D01*
X65201308Y-104608692D01*
X65223515Y-104633193D01*
X65243213Y-104659753D01*
X65260213Y-104688116D01*
X65274351Y-104718009D01*
X65285491Y-104749143D01*
X65293525Y-104781219D01*
X65298377Y-104813929D01*
X65300000Y-104846956D01*
X65300000Y-105973044D01*
X65298377Y-106006071D01*
X65293525Y-106038781D01*
X65285491Y-106070857D01*
X65274351Y-106101991D01*
X65260213Y-106131884D01*
X65243213Y-106160247D01*
X65223515Y-106186807D01*
X65201308Y-106211308D01*
X65176807Y-106233515D01*
X65150247Y-106253213D01*
X65121884Y-106270213D01*
X65091991Y-106284351D01*
X65060857Y-106295491D01*
X65028781Y-106303525D01*
X64996071Y-106308377D01*
X64963044Y-106310000D01*
X64086956Y-106310000D01*
X64053929Y-106308377D01*
X64021219Y-106303525D01*
X63989143Y-106295491D01*
X63958009Y-106284351D01*
X63928116Y-106270213D01*
X63899753Y-106253213D01*
X63873193Y-106233515D01*
X63848692Y-106211308D01*
X63826485Y-106186807D01*
X63806787Y-106160247D01*
X63789787Y-106131884D01*
X63775649Y-106101991D01*
X63764509Y-106070857D01*
X63756475Y-106038781D01*
X63751623Y-106006071D01*
X63750000Y-105973044D01*
X63750000Y-104846956D01*
X63751623Y-104813929D01*
X63756475Y-104781219D01*
X63764509Y-104749143D01*
X63775649Y-104718009D01*
X63789787Y-104688116D01*
X63806787Y-104659753D01*
X63826485Y-104633193D01*
X63848692Y-104608692D01*
X63873193Y-104586485D01*
X63899753Y-104566787D01*
X63928116Y-104549787D01*
X63958009Y-104535649D01*
X63989143Y-104524509D01*
X64021219Y-104516475D01*
X64053929Y-104511623D01*
X64086956Y-104510000D01*
X64963044Y-104510000D01*
X64996071Y-104511623D01*
X64996071Y-104511623D01*
G37*
D13*
X64525000Y-105410000D03*
G04 #@! TD*
D12*
G04 #@! TO.C,R_NEG1*
G36*
X62946071Y-109591623D02*
X62978781Y-109596475D01*
X63010857Y-109604509D01*
X63041991Y-109615649D01*
X63071884Y-109629787D01*
X63100247Y-109646787D01*
X63126807Y-109666485D01*
X63151308Y-109688692D01*
X63173515Y-109713193D01*
X63193213Y-109739753D01*
X63210213Y-109768116D01*
X63224351Y-109798009D01*
X63235491Y-109829143D01*
X63243525Y-109861219D01*
X63248377Y-109893929D01*
X63250000Y-109926956D01*
X63250000Y-111053044D01*
X63248377Y-111086071D01*
X63243525Y-111118781D01*
X63235491Y-111150857D01*
X63224351Y-111181991D01*
X63210213Y-111211884D01*
X63193213Y-111240247D01*
X63173515Y-111266807D01*
X63151308Y-111291308D01*
X63126807Y-111313515D01*
X63100247Y-111333213D01*
X63071884Y-111350213D01*
X63041991Y-111364351D01*
X63010857Y-111375491D01*
X62978781Y-111383525D01*
X62946071Y-111388377D01*
X62913044Y-111390000D01*
X62036956Y-111390000D01*
X62003929Y-111388377D01*
X61971219Y-111383525D01*
X61939143Y-111375491D01*
X61908009Y-111364351D01*
X61878116Y-111350213D01*
X61849753Y-111333213D01*
X61823193Y-111313515D01*
X61798692Y-111291308D01*
X61776485Y-111266807D01*
X61756787Y-111240247D01*
X61739787Y-111211884D01*
X61725649Y-111181991D01*
X61714509Y-111150857D01*
X61706475Y-111118781D01*
X61701623Y-111086071D01*
X61700000Y-111053044D01*
X61700000Y-109926956D01*
X61701623Y-109893929D01*
X61706475Y-109861219D01*
X61714509Y-109829143D01*
X61725649Y-109798009D01*
X61739787Y-109768116D01*
X61756787Y-109739753D01*
X61776485Y-109713193D01*
X61798692Y-109688692D01*
X61823193Y-109666485D01*
X61849753Y-109646787D01*
X61878116Y-109629787D01*
X61908009Y-109615649D01*
X61939143Y-109604509D01*
X61971219Y-109596475D01*
X62003929Y-109591623D01*
X62036956Y-109590000D01*
X62913044Y-109590000D01*
X62946071Y-109591623D01*
X62946071Y-109591623D01*
G37*
D13*
X62475000Y-110490000D03*
D12*
G36*
X64996071Y-109591623D02*
X65028781Y-109596475D01*
X65060857Y-109604509D01*
X65091991Y-109615649D01*
X65121884Y-109629787D01*
X65150247Y-109646787D01*
X65176807Y-109666485D01*
X65201308Y-109688692D01*
X65223515Y-109713193D01*
X65243213Y-109739753D01*
X65260213Y-109768116D01*
X65274351Y-109798009D01*
X65285491Y-109829143D01*
X65293525Y-109861219D01*
X65298377Y-109893929D01*
X65300000Y-109926956D01*
X65300000Y-111053044D01*
X65298377Y-111086071D01*
X65293525Y-111118781D01*
X65285491Y-111150857D01*
X65274351Y-111181991D01*
X65260213Y-111211884D01*
X65243213Y-111240247D01*
X65223515Y-111266807D01*
X65201308Y-111291308D01*
X65176807Y-111313515D01*
X65150247Y-111333213D01*
X65121884Y-111350213D01*
X65091991Y-111364351D01*
X65060857Y-111375491D01*
X65028781Y-111383525D01*
X64996071Y-111388377D01*
X64963044Y-111390000D01*
X64086956Y-111390000D01*
X64053929Y-111388377D01*
X64021219Y-111383525D01*
X63989143Y-111375491D01*
X63958009Y-111364351D01*
X63928116Y-111350213D01*
X63899753Y-111333213D01*
X63873193Y-111313515D01*
X63848692Y-111291308D01*
X63826485Y-111266807D01*
X63806787Y-111240247D01*
X63789787Y-111211884D01*
X63775649Y-111181991D01*
X63764509Y-111150857D01*
X63756475Y-111118781D01*
X63751623Y-111086071D01*
X63750000Y-111053044D01*
X63750000Y-109926956D01*
X63751623Y-109893929D01*
X63756475Y-109861219D01*
X63764509Y-109829143D01*
X63775649Y-109798009D01*
X63789787Y-109768116D01*
X63806787Y-109739753D01*
X63826485Y-109713193D01*
X63848692Y-109688692D01*
X63873193Y-109666485D01*
X63899753Y-109646787D01*
X63928116Y-109629787D01*
X63958009Y-109615649D01*
X63989143Y-109604509D01*
X64021219Y-109596475D01*
X64053929Y-109591623D01*
X64086956Y-109590000D01*
X64963044Y-109590000D01*
X64996071Y-109591623D01*
X64996071Y-109591623D01*
G37*
D13*
X64525000Y-110490000D03*
G04 #@! TD*
D12*
G04 #@! TO.C,R_POS1*
G36*
X62946071Y-99431623D02*
X62978781Y-99436475D01*
X63010857Y-99444509D01*
X63041991Y-99455649D01*
X63071884Y-99469787D01*
X63100247Y-99486787D01*
X63126807Y-99506485D01*
X63151308Y-99528692D01*
X63173515Y-99553193D01*
X63193213Y-99579753D01*
X63210213Y-99608116D01*
X63224351Y-99638009D01*
X63235491Y-99669143D01*
X63243525Y-99701219D01*
X63248377Y-99733929D01*
X63250000Y-99766956D01*
X63250000Y-100893044D01*
X63248377Y-100926071D01*
X63243525Y-100958781D01*
X63235491Y-100990857D01*
X63224351Y-101021991D01*
X63210213Y-101051884D01*
X63193213Y-101080247D01*
X63173515Y-101106807D01*
X63151308Y-101131308D01*
X63126807Y-101153515D01*
X63100247Y-101173213D01*
X63071884Y-101190213D01*
X63041991Y-101204351D01*
X63010857Y-101215491D01*
X62978781Y-101223525D01*
X62946071Y-101228377D01*
X62913044Y-101230000D01*
X62036956Y-101230000D01*
X62003929Y-101228377D01*
X61971219Y-101223525D01*
X61939143Y-101215491D01*
X61908009Y-101204351D01*
X61878116Y-101190213D01*
X61849753Y-101173213D01*
X61823193Y-101153515D01*
X61798692Y-101131308D01*
X61776485Y-101106807D01*
X61756787Y-101080247D01*
X61739787Y-101051884D01*
X61725649Y-101021991D01*
X61714509Y-100990857D01*
X61706475Y-100958781D01*
X61701623Y-100926071D01*
X61700000Y-100893044D01*
X61700000Y-99766956D01*
X61701623Y-99733929D01*
X61706475Y-99701219D01*
X61714509Y-99669143D01*
X61725649Y-99638009D01*
X61739787Y-99608116D01*
X61756787Y-99579753D01*
X61776485Y-99553193D01*
X61798692Y-99528692D01*
X61823193Y-99506485D01*
X61849753Y-99486787D01*
X61878116Y-99469787D01*
X61908009Y-99455649D01*
X61939143Y-99444509D01*
X61971219Y-99436475D01*
X62003929Y-99431623D01*
X62036956Y-99430000D01*
X62913044Y-99430000D01*
X62946071Y-99431623D01*
X62946071Y-99431623D01*
G37*
D13*
X62475000Y-100330000D03*
D12*
G36*
X64996071Y-99431623D02*
X65028781Y-99436475D01*
X65060857Y-99444509D01*
X65091991Y-99455649D01*
X65121884Y-99469787D01*
X65150247Y-99486787D01*
X65176807Y-99506485D01*
X65201308Y-99528692D01*
X65223515Y-99553193D01*
X65243213Y-99579753D01*
X65260213Y-99608116D01*
X65274351Y-99638009D01*
X65285491Y-99669143D01*
X65293525Y-99701219D01*
X65298377Y-99733929D01*
X65300000Y-99766956D01*
X65300000Y-100893044D01*
X65298377Y-100926071D01*
X65293525Y-100958781D01*
X65285491Y-100990857D01*
X65274351Y-101021991D01*
X65260213Y-101051884D01*
X65243213Y-101080247D01*
X65223515Y-101106807D01*
X65201308Y-101131308D01*
X65176807Y-101153515D01*
X65150247Y-101173213D01*
X65121884Y-101190213D01*
X65091991Y-101204351D01*
X65060857Y-101215491D01*
X65028781Y-101223525D01*
X64996071Y-101228377D01*
X64963044Y-101230000D01*
X64086956Y-101230000D01*
X64053929Y-101228377D01*
X64021219Y-101223525D01*
X63989143Y-101215491D01*
X63958009Y-101204351D01*
X63928116Y-101190213D01*
X63899753Y-101173213D01*
X63873193Y-101153515D01*
X63848692Y-101131308D01*
X63826485Y-101106807D01*
X63806787Y-101080247D01*
X63789787Y-101051884D01*
X63775649Y-101021991D01*
X63764509Y-100990857D01*
X63756475Y-100958781D01*
X63751623Y-100926071D01*
X63750000Y-100893044D01*
X63750000Y-99766956D01*
X63751623Y-99733929D01*
X63756475Y-99701219D01*
X63764509Y-99669143D01*
X63775649Y-99638009D01*
X63789787Y-99608116D01*
X63806787Y-99579753D01*
X63826485Y-99553193D01*
X63848692Y-99528692D01*
X63873193Y-99506485D01*
X63899753Y-99486787D01*
X63928116Y-99469787D01*
X63958009Y-99455649D01*
X63989143Y-99444509D01*
X64021219Y-99436475D01*
X64053929Y-99431623D01*
X64086956Y-99430000D01*
X64963044Y-99430000D01*
X64996071Y-99431623D01*
X64996071Y-99431623D01*
G37*
D13*
X64525000Y-100330000D03*
G04 #@! TD*
D16*
G36*
X63881000Y-97410149D02*
X50165000Y-97534840D01*
X50165000Y-83312000D01*
X63881000Y-83312000D01*
X63881000Y-97410149D01*
X63881000Y-97410149D01*
G37*
X63881000Y-97410149D02*
X50165000Y-97534840D01*
X50165000Y-83312000D01*
X63881000Y-83312000D01*
X63881000Y-97410149D01*
M02*
