M48
; DRILL file {KiCad (5.1.6-0-10_14)} date Sunday, September 27, 2020 at 11:01:43 PM
; FORMAT={-:-/ absolute / inch / decimal}
; #@! TF.CreationDate,2020-09-27T23:01:43+01:00
; #@! TF.GenerationSoftware,Kicad,Pcbnew,(5.1.6-0-10_14)
; #@! TF.FileFunction,Plated,1,2,PTH
FMAT,2
INCH
T1C0.0157
T2C0.0394
%
G90
G05
T1
X2.0Y-3.3025
X2.0Y-3.3596
X2.0Y-3.4167
X2.0Y-3.4738
X2.0Y-3.5308
X2.0Y-3.5879
X2.0Y-3.645
X2.0Y-3.7021
X2.0Y-3.7592
X2.0Y-3.815
X2.061Y-3.3025
X2.061Y-3.3596
X2.061Y-3.4167
X2.061Y-3.4738
X2.061Y-3.5308
X2.061Y-3.5879
X2.061Y-3.645
X2.061Y-3.7021
X2.061Y-3.7592
X2.061Y-3.815
X2.122Y-3.3025
X2.122Y-3.7592
X2.122Y-3.815
X2.1831Y-3.3025
X2.1831Y-3.7592
X2.1831Y-3.815
X2.2441Y-3.3025
X2.2441Y-3.7592
X2.2441Y-3.815
X2.2596Y-3.9996
X2.26Y-4.2
X2.26Y-4.4
X2.3051Y-3.3025
X2.3051Y-3.7592
X2.3051Y-3.815
X2.3661Y-3.3025
X2.3661Y-3.7592
X2.3661Y-3.815
X2.4272Y-3.3025
X2.4272Y-3.7592
X2.4272Y-3.815
X2.4882Y-3.3025
X2.4882Y-3.7592
X2.4882Y-3.815
X2.7573Y-3.55
X2.925Y-3.55
T2
X2.7Y-3.95
X2.7Y-4.05
X2.7Y-4.15
X2.7Y-4.25
X2.7Y-4.35
X2.8Y-3.95
X2.8Y-4.05
X2.8Y-4.15
X2.8Y-4.25
X2.8Y-4.35
X5.7Y-3.65
X5.7Y-3.75
X5.7Y-3.85
X5.7Y-3.95
X5.7Y-4.05
X5.7Y-4.15
X5.7Y-4.25
X5.7Y-4.35
X5.8Y-3.65
X5.8Y-3.75
X5.8Y-3.85
X5.8Y-3.95
X5.8Y-4.05
X5.8Y-4.15
X5.8Y-4.25
X5.8Y-4.35
X3.3Y-3.65
X3.3Y-3.75
X3.3Y-3.85
X3.3Y-3.95
X3.3Y-4.05
X3.3Y-4.15
X3.3Y-4.25
X3.3Y-4.35
X3.4Y-3.65
X3.4Y-3.75
X3.4Y-3.85
X3.4Y-3.95
X3.4Y-4.05
X3.4Y-4.15
X3.4Y-4.25
X3.4Y-4.35
X6.9Y-3.65
X6.9Y-3.75
X6.9Y-3.85
X6.9Y-3.95
X6.9Y-4.05
X6.9Y-4.15
X6.9Y-4.25
X6.9Y-4.35
X7.0Y-3.65
X7.0Y-3.75
X7.0Y-3.85
X7.0Y-3.95
X7.0Y-4.05
X7.0Y-4.15
X7.0Y-4.25
X7.0Y-4.35
X4.5Y-3.65
X4.5Y-3.75
X4.5Y-3.85
X4.5Y-3.95
X4.5Y-4.05
X4.5Y-4.15
X4.5Y-4.25
X4.5Y-4.35
X4.6Y-3.65
X4.6Y-3.75
X4.6Y-3.85
X4.6Y-3.95
X4.6Y-4.05
X4.6Y-4.15
X4.6Y-4.25
X4.6Y-4.35
X7.5Y-3.65
X7.5Y-3.75
X7.5Y-3.85
X7.5Y-3.95
X7.5Y-4.05
X7.5Y-4.15
X7.5Y-4.25
X7.5Y-4.35
X7.6Y-3.65
X7.6Y-3.75
X7.6Y-3.85
X7.6Y-3.95
X7.6Y-4.05
X7.6Y-4.15
X7.6Y-4.25
X7.6Y-4.35
X3.9Y-3.65
X3.9Y-3.75
X3.9Y-3.85
X3.9Y-3.95
X3.9Y-4.05
X3.9Y-4.15
X3.9Y-4.25
X3.9Y-4.35
X4.0Y-3.65
X4.0Y-3.75
X4.0Y-3.85
X4.0Y-3.95
X4.0Y-4.05
X4.0Y-4.15
X4.0Y-4.25
X4.0Y-4.35
X6.3Y-3.65
X6.3Y-3.75
X6.3Y-3.85
X6.3Y-3.95
X6.3Y-4.05
X6.3Y-4.15
X6.3Y-4.25
X6.3Y-4.35
X6.4Y-3.65
X6.4Y-3.75
X6.4Y-3.85
X6.4Y-3.95
X6.4Y-4.05
X6.4Y-4.15
X6.4Y-4.25
X6.4Y-4.35
X5.1Y-3.65
X5.1Y-3.75
X5.1Y-3.85
X5.1Y-3.95
X5.1Y-4.05
X5.1Y-4.15
X5.1Y-4.25
X5.1Y-4.35
X5.2Y-3.65
X5.2Y-3.75
X5.2Y-3.85
X5.2Y-3.95
X5.2Y-4.05
X5.2Y-4.15
X5.2Y-4.25
X5.2Y-4.35
T0
M30
