G04 #@! TF.GenerationSoftware,KiCad,Pcbnew,(5.0.0-3-g5ebb6b6)*
G04 #@! TF.CreationDate,2018-12-12T10:22:58+00:00*
G04 #@! TF.ProjectId,PSUExtensionBoard,505355457874656E73696F6E426F6172,rev?*
G04 #@! TF.SameCoordinates,Original*
G04 #@! TF.FileFunction,Copper,L2,Bot,Signal*
G04 #@! TF.FilePolarity,Positive*
%FSLAX46Y46*%
G04 Gerber Fmt 4.6, Leading zero omitted, Abs format (unit mm)*
G04 Created by KiCad (PCBNEW (5.0.0-3-g5ebb6b6)) date Wednesday, 12 December 2018 at 10:22:58*
%MOMM*%
%LPD*%
G01*
G04 APERTURE LIST*
G04 #@! TA.AperFunction,ComponentPad*
%ADD10R,1.700000X1.700000*%
G04 #@! TD*
G04 #@! TA.AperFunction,ComponentPad*
%ADD11O,1.700000X1.700000*%
G04 #@! TD*
G04 #@! TA.AperFunction,ViaPad*
%ADD12C,0.800000*%
G04 #@! TD*
G04 #@! TA.AperFunction,Conductor*
%ADD13C,0.254000*%
G04 #@! TD*
G04 APERTURE END LIST*
D10*
G04 #@! TO.P,J_IN1,1*
G04 #@! TO.N,/12V*
X68580000Y-100330000D03*
D11*
G04 #@! TO.P,J_IN1,2*
X71120000Y-100330000D03*
G04 #@! TO.P,J_IN1,3*
G04 #@! TO.N,GND*
X68580000Y-102870000D03*
G04 #@! TO.P,J_IN1,4*
X71120000Y-102870000D03*
G04 #@! TO.P,J_IN1,5*
X68580000Y-105410000D03*
G04 #@! TO.P,J_IN1,6*
X71120000Y-105410000D03*
G04 #@! TO.P,J_IN1,7*
X68580000Y-107950000D03*
G04 #@! TO.P,J_IN1,8*
X71120000Y-107950000D03*
G04 #@! TO.P,J_IN1,9*
G04 #@! TO.N,/-12V*
X68580000Y-110490000D03*
G04 #@! TO.P,J_IN1,10*
X71120000Y-110490000D03*
G04 #@! TD*
D10*
G04 #@! TO.P,J_OUT1,1*
G04 #@! TO.N,/GATE*
X83820000Y-92710000D03*
D11*
G04 #@! TO.P,J_OUT1,2*
X86360000Y-92710000D03*
G04 #@! TO.P,J_OUT1,3*
G04 #@! TO.N,/CV*
X83820000Y-95250000D03*
G04 #@! TO.P,J_OUT1,4*
X86360000Y-95250000D03*
G04 #@! TO.P,J_OUT1,5*
G04 #@! TO.N,/5V*
X83820000Y-97790000D03*
G04 #@! TO.P,J_OUT1,6*
X86360000Y-97790000D03*
G04 #@! TO.P,J_OUT1,7*
G04 #@! TO.N,/12V*
X83820000Y-100330000D03*
G04 #@! TO.P,J_OUT1,8*
X86360000Y-100330000D03*
G04 #@! TO.P,J_OUT1,9*
G04 #@! TO.N,GND*
X83820000Y-102870000D03*
G04 #@! TO.P,J_OUT1,10*
X86360000Y-102870000D03*
G04 #@! TO.P,J_OUT1,11*
X83820000Y-105410000D03*
G04 #@! TO.P,J_OUT1,12*
X86360000Y-105410000D03*
G04 #@! TO.P,J_OUT1,13*
X83820000Y-107950000D03*
G04 #@! TO.P,J_OUT1,14*
X86360000Y-107950000D03*
G04 #@! TO.P,J_OUT1,15*
G04 #@! TO.N,/-12V*
X83820000Y-110490000D03*
G04 #@! TO.P,J_OUT1,16*
X86360000Y-110490000D03*
G04 #@! TD*
G04 #@! TO.P,J_OUT2,16*
G04 #@! TO.N,/-12V*
X101600000Y-110490000D03*
G04 #@! TO.P,J_OUT2,15*
X99060000Y-110490000D03*
G04 #@! TO.P,J_OUT2,14*
G04 #@! TO.N,GND*
X101600000Y-107950000D03*
G04 #@! TO.P,J_OUT2,13*
X99060000Y-107950000D03*
G04 #@! TO.P,J_OUT2,12*
X101600000Y-105410000D03*
G04 #@! TO.P,J_OUT2,11*
X99060000Y-105410000D03*
G04 #@! TO.P,J_OUT2,10*
X101600000Y-102870000D03*
G04 #@! TO.P,J_OUT2,9*
X99060000Y-102870000D03*
G04 #@! TO.P,J_OUT2,8*
G04 #@! TO.N,/12V*
X101600000Y-100330000D03*
G04 #@! TO.P,J_OUT2,7*
X99060000Y-100330000D03*
G04 #@! TO.P,J_OUT2,6*
G04 #@! TO.N,/5V*
X101600000Y-97790000D03*
G04 #@! TO.P,J_OUT2,5*
X99060000Y-97790000D03*
G04 #@! TO.P,J_OUT2,4*
G04 #@! TO.N,/CV*
X101600000Y-95250000D03*
G04 #@! TO.P,J_OUT2,3*
X99060000Y-95250000D03*
G04 #@! TO.P,J_OUT2,2*
G04 #@! TO.N,/GATE*
X101600000Y-92710000D03*
D10*
G04 #@! TO.P,J_OUT2,1*
X99060000Y-92710000D03*
G04 #@! TD*
G04 #@! TO.P,J_OUT3,1*
G04 #@! TO.N,/GATE*
X114300000Y-92710000D03*
D11*
G04 #@! TO.P,J_OUT3,2*
X116840000Y-92710000D03*
G04 #@! TO.P,J_OUT3,3*
G04 #@! TO.N,/CV*
X114300000Y-95250000D03*
G04 #@! TO.P,J_OUT3,4*
X116840000Y-95250000D03*
G04 #@! TO.P,J_OUT3,5*
G04 #@! TO.N,/5V*
X114300000Y-97790000D03*
G04 #@! TO.P,J_OUT3,6*
X116840000Y-97790000D03*
G04 #@! TO.P,J_OUT3,7*
G04 #@! TO.N,/12V*
X114300000Y-100330000D03*
G04 #@! TO.P,J_OUT3,8*
X116840000Y-100330000D03*
G04 #@! TO.P,J_OUT3,9*
G04 #@! TO.N,GND*
X114300000Y-102870000D03*
G04 #@! TO.P,J_OUT3,10*
X116840000Y-102870000D03*
G04 #@! TO.P,J_OUT3,11*
X114300000Y-105410000D03*
G04 #@! TO.P,J_OUT3,12*
X116840000Y-105410000D03*
G04 #@! TO.P,J_OUT3,13*
X114300000Y-107950000D03*
G04 #@! TO.P,J_OUT3,14*
X116840000Y-107950000D03*
G04 #@! TO.P,J_OUT3,15*
G04 #@! TO.N,/-12V*
X114300000Y-110490000D03*
G04 #@! TO.P,J_OUT3,16*
X116840000Y-110490000D03*
G04 #@! TD*
G04 #@! TO.P,J_OUT4,16*
G04 #@! TO.N,/-12V*
X132080000Y-110490000D03*
G04 #@! TO.P,J_OUT4,15*
X129540000Y-110490000D03*
G04 #@! TO.P,J_OUT4,14*
G04 #@! TO.N,GND*
X132080000Y-107950000D03*
G04 #@! TO.P,J_OUT4,13*
X129540000Y-107950000D03*
G04 #@! TO.P,J_OUT4,12*
X132080000Y-105410000D03*
G04 #@! TO.P,J_OUT4,11*
X129540000Y-105410000D03*
G04 #@! TO.P,J_OUT4,10*
X132080000Y-102870000D03*
G04 #@! TO.P,J_OUT4,9*
X129540000Y-102870000D03*
G04 #@! TO.P,J_OUT4,8*
G04 #@! TO.N,/12V*
X132080000Y-100330000D03*
G04 #@! TO.P,J_OUT4,7*
X129540000Y-100330000D03*
G04 #@! TO.P,J_OUT4,6*
G04 #@! TO.N,/5V*
X132080000Y-97790000D03*
G04 #@! TO.P,J_OUT4,5*
X129540000Y-97790000D03*
G04 #@! TO.P,J_OUT4,4*
G04 #@! TO.N,/CV*
X132080000Y-95250000D03*
G04 #@! TO.P,J_OUT4,3*
X129540000Y-95250000D03*
G04 #@! TO.P,J_OUT4,2*
G04 #@! TO.N,/GATE*
X132080000Y-92710000D03*
D10*
G04 #@! TO.P,J_OUT4,1*
X129540000Y-92710000D03*
G04 #@! TD*
G04 #@! TO.P,J_OUT5,1*
G04 #@! TO.N,/GATE*
X144780000Y-92710000D03*
D11*
G04 #@! TO.P,J_OUT5,2*
X147320000Y-92710000D03*
G04 #@! TO.P,J_OUT5,3*
G04 #@! TO.N,/CV*
X144780000Y-95250000D03*
G04 #@! TO.P,J_OUT5,4*
X147320000Y-95250000D03*
G04 #@! TO.P,J_OUT5,5*
G04 #@! TO.N,/5V*
X144780000Y-97790000D03*
G04 #@! TO.P,J_OUT5,6*
X147320000Y-97790000D03*
G04 #@! TO.P,J_OUT5,7*
G04 #@! TO.N,/12V*
X144780000Y-100330000D03*
G04 #@! TO.P,J_OUT5,8*
X147320000Y-100330000D03*
G04 #@! TO.P,J_OUT5,9*
G04 #@! TO.N,GND*
X144780000Y-102870000D03*
G04 #@! TO.P,J_OUT5,10*
X147320000Y-102870000D03*
G04 #@! TO.P,J_OUT5,11*
X144780000Y-105410000D03*
G04 #@! TO.P,J_OUT5,12*
X147320000Y-105410000D03*
G04 #@! TO.P,J_OUT5,13*
X144780000Y-107950000D03*
G04 #@! TO.P,J_OUT5,14*
X147320000Y-107950000D03*
G04 #@! TO.P,J_OUT5,15*
G04 #@! TO.N,/-12V*
X144780000Y-110490000D03*
G04 #@! TO.P,J_OUT5,16*
X147320000Y-110490000D03*
G04 #@! TD*
G04 #@! TO.P,J_OUT6,16*
G04 #@! TO.N,/-12V*
X162560000Y-110490000D03*
G04 #@! TO.P,J_OUT6,15*
X160020000Y-110490000D03*
G04 #@! TO.P,J_OUT6,14*
G04 #@! TO.N,GND*
X162560000Y-107950000D03*
G04 #@! TO.P,J_OUT6,13*
X160020000Y-107950000D03*
G04 #@! TO.P,J_OUT6,12*
X162560000Y-105410000D03*
G04 #@! TO.P,J_OUT6,11*
X160020000Y-105410000D03*
G04 #@! TO.P,J_OUT6,10*
X162560000Y-102870000D03*
G04 #@! TO.P,J_OUT6,9*
X160020000Y-102870000D03*
G04 #@! TO.P,J_OUT6,8*
G04 #@! TO.N,/12V*
X162560000Y-100330000D03*
G04 #@! TO.P,J_OUT6,7*
X160020000Y-100330000D03*
G04 #@! TO.P,J_OUT6,6*
G04 #@! TO.N,/5V*
X162560000Y-97790000D03*
G04 #@! TO.P,J_OUT6,5*
X160020000Y-97790000D03*
G04 #@! TO.P,J_OUT6,4*
G04 #@! TO.N,/CV*
X162560000Y-95250000D03*
G04 #@! TO.P,J_OUT6,3*
X160020000Y-95250000D03*
G04 #@! TO.P,J_OUT6,2*
G04 #@! TO.N,/GATE*
X162560000Y-92710000D03*
D10*
G04 #@! TO.P,J_OUT6,1*
X160020000Y-92710000D03*
G04 #@! TD*
G04 #@! TO.P,J_OUT7,1*
G04 #@! TO.N,/GATE*
X175260000Y-92710000D03*
D11*
G04 #@! TO.P,J_OUT7,2*
X177800000Y-92710000D03*
G04 #@! TO.P,J_OUT7,3*
G04 #@! TO.N,/CV*
X175260000Y-95250000D03*
G04 #@! TO.P,J_OUT7,4*
X177800000Y-95250000D03*
G04 #@! TO.P,J_OUT7,5*
G04 #@! TO.N,/5V*
X175260000Y-97790000D03*
G04 #@! TO.P,J_OUT7,6*
X177800000Y-97790000D03*
G04 #@! TO.P,J_OUT7,7*
G04 #@! TO.N,/12V*
X175260000Y-100330000D03*
G04 #@! TO.P,J_OUT7,8*
X177800000Y-100330000D03*
G04 #@! TO.P,J_OUT7,9*
G04 #@! TO.N,GND*
X175260000Y-102870000D03*
G04 #@! TO.P,J_OUT7,10*
X177800000Y-102870000D03*
G04 #@! TO.P,J_OUT7,11*
X175260000Y-105410000D03*
G04 #@! TO.P,J_OUT7,12*
X177800000Y-105410000D03*
G04 #@! TO.P,J_OUT7,13*
X175260000Y-107950000D03*
G04 #@! TO.P,J_OUT7,14*
X177800000Y-107950000D03*
G04 #@! TO.P,J_OUT7,15*
G04 #@! TO.N,/-12V*
X175260000Y-110490000D03*
G04 #@! TO.P,J_OUT7,16*
X177800000Y-110490000D03*
G04 #@! TD*
G04 #@! TO.P,J_OUT8,16*
G04 #@! TO.N,/-12V*
X193040000Y-110490000D03*
G04 #@! TO.P,J_OUT8,15*
X190500000Y-110490000D03*
G04 #@! TO.P,J_OUT8,14*
G04 #@! TO.N,GND*
X193040000Y-107950000D03*
G04 #@! TO.P,J_OUT8,13*
X190500000Y-107950000D03*
G04 #@! TO.P,J_OUT8,12*
X193040000Y-105410000D03*
G04 #@! TO.P,J_OUT8,11*
X190500000Y-105410000D03*
G04 #@! TO.P,J_OUT8,10*
X193040000Y-102870000D03*
G04 #@! TO.P,J_OUT8,9*
X190500000Y-102870000D03*
G04 #@! TO.P,J_OUT8,8*
G04 #@! TO.N,/12V*
X193040000Y-100330000D03*
G04 #@! TO.P,J_OUT8,7*
X190500000Y-100330000D03*
G04 #@! TO.P,J_OUT8,6*
G04 #@! TO.N,/5V*
X193040000Y-97790000D03*
G04 #@! TO.P,J_OUT8,5*
X190500000Y-97790000D03*
G04 #@! TO.P,J_OUT8,4*
G04 #@! TO.N,/CV*
X193040000Y-95250000D03*
G04 #@! TO.P,J_OUT8,3*
X190500000Y-95250000D03*
G04 #@! TO.P,J_OUT8,2*
G04 #@! TO.N,/GATE*
X193040000Y-92710000D03*
D10*
G04 #@! TO.P,J_OUT8,1*
X190500000Y-92710000D03*
G04 #@! TD*
D12*
G04 #@! TO.N,GND*
X74295000Y-90170000D03*
X70035000Y-90170000D03*
X50800000Y-96901000D03*
X50800000Y-83883500D03*
X52350000Y-83883500D03*
X53900000Y-83883500D03*
X55450000Y-83883500D03*
X57000000Y-83883500D03*
X58550000Y-83883500D03*
X60100000Y-83883500D03*
X61650000Y-83883500D03*
X63200000Y-83883500D03*
X52350000Y-96901000D03*
X53900000Y-96901000D03*
X55450000Y-96901000D03*
X57000000Y-96901000D03*
X58550000Y-96901000D03*
X60100000Y-96901000D03*
X61650000Y-96901000D03*
X63200000Y-96901000D03*
X50800000Y-85333500D03*
X50800000Y-86783500D03*
X50800000Y-88233500D03*
X50800000Y-89683500D03*
X50800000Y-91133500D03*
X50800000Y-92583500D03*
X50800000Y-94033500D03*
X50800000Y-95483500D03*
X57404000Y-111760000D03*
X57395000Y-101591000D03*
X57404000Y-106680000D03*
X52350000Y-85333500D03*
X52350000Y-86783500D03*
X52350000Y-88233500D03*
X52350000Y-89683500D03*
X52350000Y-91133500D03*
X52350000Y-92583500D03*
X52350000Y-94033500D03*
X52350000Y-95483500D03*
X53900000Y-95483500D03*
X55450000Y-95483500D03*
X57000000Y-95483500D03*
X58550000Y-95483500D03*
X60100000Y-95483500D03*
X61650000Y-95483500D03*
X63200000Y-95483500D03*
G04 #@! TD*
D13*
G04 #@! TO.N,GND*
G36*
X78013262Y-82256567D02*
X78015042Y-82269823D01*
X78015346Y-82283201D01*
X78026615Y-82360446D01*
X78239889Y-83442515D01*
X78244594Y-83459714D01*
X78247568Y-83477297D01*
X78269870Y-83552106D01*
X78637114Y-84592053D01*
X78644251Y-84608389D01*
X78649733Y-84625362D01*
X78682601Y-84696168D01*
X79196121Y-85672208D01*
X79205543Y-85687346D01*
X79213416Y-85703345D01*
X79256160Y-85768665D01*
X79905198Y-86660353D01*
X79916708Y-86673973D01*
X79926808Y-86688669D01*
X79978512Y-86747109D01*
X79978533Y-86747134D01*
X79978540Y-86747141D01*
X80749495Y-87535789D01*
X80762844Y-87547599D01*
X80774965Y-87560689D01*
X80834543Y-87611034D01*
X80834589Y-87611075D01*
X80834605Y-87611086D01*
X81711323Y-88280176D01*
X81726246Y-88289942D01*
X81740121Y-88301137D01*
X81806363Y-88342369D01*
X81806394Y-88342389D01*
X81806405Y-88342394D01*
X82770533Y-88877919D01*
X82786704Y-88885425D01*
X82802055Y-88894504D01*
X82873568Y-88925747D01*
X82873589Y-88925757D01*
X82873597Y-88925759D01*
X83904937Y-89316499D01*
X83922023Y-89321593D01*
X83938523Y-89328360D01*
X84013789Y-89348950D01*
X84013819Y-89348959D01*
X84013829Y-89348961D01*
X85090769Y-89586727D01*
X85108408Y-89589300D01*
X85125717Y-89593616D01*
X85203192Y-89603128D01*
X85203197Y-89603129D01*
X85203198Y-89603129D01*
X86254620Y-89679418D01*
X86282684Y-89685000D01*
X197335000Y-89685000D01*
X197335001Y-113515000D01*
X49045000Y-113515000D01*
X49045000Y-110490000D01*
X67065908Y-110490000D01*
X67181161Y-111069418D01*
X67509375Y-111560625D01*
X68000582Y-111888839D01*
X68433744Y-111975000D01*
X68726256Y-111975000D01*
X69159418Y-111888839D01*
X69650625Y-111560625D01*
X69850000Y-111262239D01*
X70049375Y-111560625D01*
X70540582Y-111888839D01*
X70973744Y-111975000D01*
X71266256Y-111975000D01*
X71699418Y-111888839D01*
X72190625Y-111560625D01*
X72518839Y-111069418D01*
X72634092Y-110490000D01*
X82305908Y-110490000D01*
X82421161Y-111069418D01*
X82749375Y-111560625D01*
X83240582Y-111888839D01*
X83673744Y-111975000D01*
X83966256Y-111975000D01*
X84399418Y-111888839D01*
X84890625Y-111560625D01*
X85090000Y-111262239D01*
X85289375Y-111560625D01*
X85780582Y-111888839D01*
X86213744Y-111975000D01*
X86506256Y-111975000D01*
X86939418Y-111888839D01*
X87430625Y-111560625D01*
X87758839Y-111069418D01*
X87874092Y-110490000D01*
X97545908Y-110490000D01*
X97661161Y-111069418D01*
X97989375Y-111560625D01*
X98480582Y-111888839D01*
X98913744Y-111975000D01*
X99206256Y-111975000D01*
X99639418Y-111888839D01*
X100130625Y-111560625D01*
X100330000Y-111262239D01*
X100529375Y-111560625D01*
X101020582Y-111888839D01*
X101453744Y-111975000D01*
X101746256Y-111975000D01*
X102179418Y-111888839D01*
X102670625Y-111560625D01*
X102998839Y-111069418D01*
X103114092Y-110490000D01*
X112785908Y-110490000D01*
X112901161Y-111069418D01*
X113229375Y-111560625D01*
X113720582Y-111888839D01*
X114153744Y-111975000D01*
X114446256Y-111975000D01*
X114879418Y-111888839D01*
X115370625Y-111560625D01*
X115570000Y-111262239D01*
X115769375Y-111560625D01*
X116260582Y-111888839D01*
X116693744Y-111975000D01*
X116986256Y-111975000D01*
X117419418Y-111888839D01*
X117910625Y-111560625D01*
X118238839Y-111069418D01*
X118354092Y-110490000D01*
X128025908Y-110490000D01*
X128141161Y-111069418D01*
X128469375Y-111560625D01*
X128960582Y-111888839D01*
X129393744Y-111975000D01*
X129686256Y-111975000D01*
X130119418Y-111888839D01*
X130610625Y-111560625D01*
X130810000Y-111262239D01*
X131009375Y-111560625D01*
X131500582Y-111888839D01*
X131933744Y-111975000D01*
X132226256Y-111975000D01*
X132659418Y-111888839D01*
X133150625Y-111560625D01*
X133478839Y-111069418D01*
X133594092Y-110490000D01*
X143265908Y-110490000D01*
X143381161Y-111069418D01*
X143709375Y-111560625D01*
X144200582Y-111888839D01*
X144633744Y-111975000D01*
X144926256Y-111975000D01*
X145359418Y-111888839D01*
X145850625Y-111560625D01*
X146050000Y-111262239D01*
X146249375Y-111560625D01*
X146740582Y-111888839D01*
X147173744Y-111975000D01*
X147466256Y-111975000D01*
X147899418Y-111888839D01*
X148390625Y-111560625D01*
X148718839Y-111069418D01*
X148834092Y-110490000D01*
X158505908Y-110490000D01*
X158621161Y-111069418D01*
X158949375Y-111560625D01*
X159440582Y-111888839D01*
X159873744Y-111975000D01*
X160166256Y-111975000D01*
X160599418Y-111888839D01*
X161090625Y-111560625D01*
X161290000Y-111262239D01*
X161489375Y-111560625D01*
X161980582Y-111888839D01*
X162413744Y-111975000D01*
X162706256Y-111975000D01*
X163139418Y-111888839D01*
X163630625Y-111560625D01*
X163958839Y-111069418D01*
X164074092Y-110490000D01*
X173745908Y-110490000D01*
X173861161Y-111069418D01*
X174189375Y-111560625D01*
X174680582Y-111888839D01*
X175113744Y-111975000D01*
X175406256Y-111975000D01*
X175839418Y-111888839D01*
X176330625Y-111560625D01*
X176530000Y-111262239D01*
X176729375Y-111560625D01*
X177220582Y-111888839D01*
X177653744Y-111975000D01*
X177946256Y-111975000D01*
X178379418Y-111888839D01*
X178870625Y-111560625D01*
X179198839Y-111069418D01*
X179314092Y-110490000D01*
X188985908Y-110490000D01*
X189101161Y-111069418D01*
X189429375Y-111560625D01*
X189920582Y-111888839D01*
X190353744Y-111975000D01*
X190646256Y-111975000D01*
X191079418Y-111888839D01*
X191570625Y-111560625D01*
X191770000Y-111262239D01*
X191969375Y-111560625D01*
X192460582Y-111888839D01*
X192893744Y-111975000D01*
X193186256Y-111975000D01*
X193619418Y-111888839D01*
X194110625Y-111560625D01*
X194438839Y-111069418D01*
X194554092Y-110490000D01*
X194438839Y-109910582D01*
X194110625Y-109419375D01*
X193791522Y-109206157D01*
X193921358Y-109145183D01*
X194311645Y-108716924D01*
X194481476Y-108306890D01*
X194360155Y-108077000D01*
X193167000Y-108077000D01*
X193167000Y-108097000D01*
X192913000Y-108097000D01*
X192913000Y-108077000D01*
X190627000Y-108077000D01*
X190627000Y-108097000D01*
X190373000Y-108097000D01*
X190373000Y-108077000D01*
X189179845Y-108077000D01*
X189058524Y-108306890D01*
X189228355Y-108716924D01*
X189618642Y-109145183D01*
X189748478Y-109206157D01*
X189429375Y-109419375D01*
X189101161Y-109910582D01*
X188985908Y-110490000D01*
X179314092Y-110490000D01*
X179198839Y-109910582D01*
X178870625Y-109419375D01*
X178551522Y-109206157D01*
X178681358Y-109145183D01*
X179071645Y-108716924D01*
X179241476Y-108306890D01*
X179120155Y-108077000D01*
X177927000Y-108077000D01*
X177927000Y-108097000D01*
X177673000Y-108097000D01*
X177673000Y-108077000D01*
X175387000Y-108077000D01*
X175387000Y-108097000D01*
X175133000Y-108097000D01*
X175133000Y-108077000D01*
X173939845Y-108077000D01*
X173818524Y-108306890D01*
X173988355Y-108716924D01*
X174378642Y-109145183D01*
X174508478Y-109206157D01*
X174189375Y-109419375D01*
X173861161Y-109910582D01*
X173745908Y-110490000D01*
X164074092Y-110490000D01*
X163958839Y-109910582D01*
X163630625Y-109419375D01*
X163311522Y-109206157D01*
X163441358Y-109145183D01*
X163831645Y-108716924D01*
X164001476Y-108306890D01*
X163880155Y-108077000D01*
X162687000Y-108077000D01*
X162687000Y-108097000D01*
X162433000Y-108097000D01*
X162433000Y-108077000D01*
X160147000Y-108077000D01*
X160147000Y-108097000D01*
X159893000Y-108097000D01*
X159893000Y-108077000D01*
X158699845Y-108077000D01*
X158578524Y-108306890D01*
X158748355Y-108716924D01*
X159138642Y-109145183D01*
X159268478Y-109206157D01*
X158949375Y-109419375D01*
X158621161Y-109910582D01*
X158505908Y-110490000D01*
X148834092Y-110490000D01*
X148718839Y-109910582D01*
X148390625Y-109419375D01*
X148071522Y-109206157D01*
X148201358Y-109145183D01*
X148591645Y-108716924D01*
X148761476Y-108306890D01*
X148640155Y-108077000D01*
X147447000Y-108077000D01*
X147447000Y-108097000D01*
X147193000Y-108097000D01*
X147193000Y-108077000D01*
X144907000Y-108077000D01*
X144907000Y-108097000D01*
X144653000Y-108097000D01*
X144653000Y-108077000D01*
X143459845Y-108077000D01*
X143338524Y-108306890D01*
X143508355Y-108716924D01*
X143898642Y-109145183D01*
X144028478Y-109206157D01*
X143709375Y-109419375D01*
X143381161Y-109910582D01*
X143265908Y-110490000D01*
X133594092Y-110490000D01*
X133478839Y-109910582D01*
X133150625Y-109419375D01*
X132831522Y-109206157D01*
X132961358Y-109145183D01*
X133351645Y-108716924D01*
X133521476Y-108306890D01*
X133400155Y-108077000D01*
X132207000Y-108077000D01*
X132207000Y-108097000D01*
X131953000Y-108097000D01*
X131953000Y-108077000D01*
X129667000Y-108077000D01*
X129667000Y-108097000D01*
X129413000Y-108097000D01*
X129413000Y-108077000D01*
X128219845Y-108077000D01*
X128098524Y-108306890D01*
X128268355Y-108716924D01*
X128658642Y-109145183D01*
X128788478Y-109206157D01*
X128469375Y-109419375D01*
X128141161Y-109910582D01*
X128025908Y-110490000D01*
X118354092Y-110490000D01*
X118238839Y-109910582D01*
X117910625Y-109419375D01*
X117591522Y-109206157D01*
X117721358Y-109145183D01*
X118111645Y-108716924D01*
X118281476Y-108306890D01*
X118160155Y-108077000D01*
X116967000Y-108077000D01*
X116967000Y-108097000D01*
X116713000Y-108097000D01*
X116713000Y-108077000D01*
X114427000Y-108077000D01*
X114427000Y-108097000D01*
X114173000Y-108097000D01*
X114173000Y-108077000D01*
X112979845Y-108077000D01*
X112858524Y-108306890D01*
X113028355Y-108716924D01*
X113418642Y-109145183D01*
X113548478Y-109206157D01*
X113229375Y-109419375D01*
X112901161Y-109910582D01*
X112785908Y-110490000D01*
X103114092Y-110490000D01*
X102998839Y-109910582D01*
X102670625Y-109419375D01*
X102351522Y-109206157D01*
X102481358Y-109145183D01*
X102871645Y-108716924D01*
X103041476Y-108306890D01*
X102920155Y-108077000D01*
X101727000Y-108077000D01*
X101727000Y-108097000D01*
X101473000Y-108097000D01*
X101473000Y-108077000D01*
X99187000Y-108077000D01*
X99187000Y-108097000D01*
X98933000Y-108097000D01*
X98933000Y-108077000D01*
X97739845Y-108077000D01*
X97618524Y-108306890D01*
X97788355Y-108716924D01*
X98178642Y-109145183D01*
X98308478Y-109206157D01*
X97989375Y-109419375D01*
X97661161Y-109910582D01*
X97545908Y-110490000D01*
X87874092Y-110490000D01*
X87758839Y-109910582D01*
X87430625Y-109419375D01*
X87111522Y-109206157D01*
X87241358Y-109145183D01*
X87631645Y-108716924D01*
X87801476Y-108306890D01*
X87680155Y-108077000D01*
X86487000Y-108077000D01*
X86487000Y-108097000D01*
X86233000Y-108097000D01*
X86233000Y-108077000D01*
X83947000Y-108077000D01*
X83947000Y-108097000D01*
X83693000Y-108097000D01*
X83693000Y-108077000D01*
X82499845Y-108077000D01*
X82378524Y-108306890D01*
X82548355Y-108716924D01*
X82938642Y-109145183D01*
X83068478Y-109206157D01*
X82749375Y-109419375D01*
X82421161Y-109910582D01*
X82305908Y-110490000D01*
X72634092Y-110490000D01*
X72518839Y-109910582D01*
X72190625Y-109419375D01*
X71871522Y-109206157D01*
X72001358Y-109145183D01*
X72391645Y-108716924D01*
X72561476Y-108306890D01*
X72440155Y-108077000D01*
X71247000Y-108077000D01*
X71247000Y-108097000D01*
X70993000Y-108097000D01*
X70993000Y-108077000D01*
X68707000Y-108077000D01*
X68707000Y-108097000D01*
X68453000Y-108097000D01*
X68453000Y-108077000D01*
X67259845Y-108077000D01*
X67138524Y-108306890D01*
X67308355Y-108716924D01*
X67698642Y-109145183D01*
X67828478Y-109206157D01*
X67509375Y-109419375D01*
X67181161Y-109910582D01*
X67065908Y-110490000D01*
X49045000Y-110490000D01*
X49045000Y-105766890D01*
X67138524Y-105766890D01*
X67308355Y-106176924D01*
X67698642Y-106605183D01*
X67857954Y-106680000D01*
X67698642Y-106754817D01*
X67308355Y-107183076D01*
X67138524Y-107593110D01*
X67259845Y-107823000D01*
X68453000Y-107823000D01*
X68453000Y-105537000D01*
X68707000Y-105537000D01*
X68707000Y-107823000D01*
X70993000Y-107823000D01*
X70993000Y-105537000D01*
X71247000Y-105537000D01*
X71247000Y-107823000D01*
X72440155Y-107823000D01*
X72561476Y-107593110D01*
X72391645Y-107183076D01*
X72001358Y-106754817D01*
X71842046Y-106680000D01*
X72001358Y-106605183D01*
X72391645Y-106176924D01*
X72561476Y-105766890D01*
X82378524Y-105766890D01*
X82548355Y-106176924D01*
X82938642Y-106605183D01*
X83097954Y-106680000D01*
X82938642Y-106754817D01*
X82548355Y-107183076D01*
X82378524Y-107593110D01*
X82499845Y-107823000D01*
X83693000Y-107823000D01*
X83693000Y-105537000D01*
X83947000Y-105537000D01*
X83947000Y-107823000D01*
X86233000Y-107823000D01*
X86233000Y-105537000D01*
X86487000Y-105537000D01*
X86487000Y-107823000D01*
X87680155Y-107823000D01*
X87801476Y-107593110D01*
X87631645Y-107183076D01*
X87241358Y-106754817D01*
X87082046Y-106680000D01*
X87241358Y-106605183D01*
X87631645Y-106176924D01*
X87801476Y-105766890D01*
X97618524Y-105766890D01*
X97788355Y-106176924D01*
X98178642Y-106605183D01*
X98337954Y-106680000D01*
X98178642Y-106754817D01*
X97788355Y-107183076D01*
X97618524Y-107593110D01*
X97739845Y-107823000D01*
X98933000Y-107823000D01*
X98933000Y-105537000D01*
X99187000Y-105537000D01*
X99187000Y-107823000D01*
X101473000Y-107823000D01*
X101473000Y-105537000D01*
X101727000Y-105537000D01*
X101727000Y-107823000D01*
X102920155Y-107823000D01*
X103041476Y-107593110D01*
X102871645Y-107183076D01*
X102481358Y-106754817D01*
X102322046Y-106680000D01*
X102481358Y-106605183D01*
X102871645Y-106176924D01*
X103041476Y-105766890D01*
X112858524Y-105766890D01*
X113028355Y-106176924D01*
X113418642Y-106605183D01*
X113577954Y-106680000D01*
X113418642Y-106754817D01*
X113028355Y-107183076D01*
X112858524Y-107593110D01*
X112979845Y-107823000D01*
X114173000Y-107823000D01*
X114173000Y-105537000D01*
X114427000Y-105537000D01*
X114427000Y-107823000D01*
X116713000Y-107823000D01*
X116713000Y-105537000D01*
X116967000Y-105537000D01*
X116967000Y-107823000D01*
X118160155Y-107823000D01*
X118281476Y-107593110D01*
X118111645Y-107183076D01*
X117721358Y-106754817D01*
X117562046Y-106680000D01*
X117721358Y-106605183D01*
X118111645Y-106176924D01*
X118281476Y-105766890D01*
X128098524Y-105766890D01*
X128268355Y-106176924D01*
X128658642Y-106605183D01*
X128817954Y-106680000D01*
X128658642Y-106754817D01*
X128268355Y-107183076D01*
X128098524Y-107593110D01*
X128219845Y-107823000D01*
X129413000Y-107823000D01*
X129413000Y-105537000D01*
X129667000Y-105537000D01*
X129667000Y-107823000D01*
X131953000Y-107823000D01*
X131953000Y-105537000D01*
X132207000Y-105537000D01*
X132207000Y-107823000D01*
X133400155Y-107823000D01*
X133521476Y-107593110D01*
X133351645Y-107183076D01*
X132961358Y-106754817D01*
X132802046Y-106680000D01*
X132961358Y-106605183D01*
X133351645Y-106176924D01*
X133521476Y-105766890D01*
X143338524Y-105766890D01*
X143508355Y-106176924D01*
X143898642Y-106605183D01*
X144057954Y-106680000D01*
X143898642Y-106754817D01*
X143508355Y-107183076D01*
X143338524Y-107593110D01*
X143459845Y-107823000D01*
X144653000Y-107823000D01*
X144653000Y-105537000D01*
X144907000Y-105537000D01*
X144907000Y-107823000D01*
X147193000Y-107823000D01*
X147193000Y-105537000D01*
X147447000Y-105537000D01*
X147447000Y-107823000D01*
X148640155Y-107823000D01*
X148761476Y-107593110D01*
X148591645Y-107183076D01*
X148201358Y-106754817D01*
X148042046Y-106680000D01*
X148201358Y-106605183D01*
X148591645Y-106176924D01*
X148761476Y-105766890D01*
X158578524Y-105766890D01*
X158748355Y-106176924D01*
X159138642Y-106605183D01*
X159297954Y-106680000D01*
X159138642Y-106754817D01*
X158748355Y-107183076D01*
X158578524Y-107593110D01*
X158699845Y-107823000D01*
X159893000Y-107823000D01*
X159893000Y-105537000D01*
X160147000Y-105537000D01*
X160147000Y-107823000D01*
X162433000Y-107823000D01*
X162433000Y-105537000D01*
X162687000Y-105537000D01*
X162687000Y-107823000D01*
X163880155Y-107823000D01*
X164001476Y-107593110D01*
X163831645Y-107183076D01*
X163441358Y-106754817D01*
X163282046Y-106680000D01*
X163441358Y-106605183D01*
X163831645Y-106176924D01*
X164001476Y-105766890D01*
X173818524Y-105766890D01*
X173988355Y-106176924D01*
X174378642Y-106605183D01*
X174537954Y-106680000D01*
X174378642Y-106754817D01*
X173988355Y-107183076D01*
X173818524Y-107593110D01*
X173939845Y-107823000D01*
X175133000Y-107823000D01*
X175133000Y-105537000D01*
X175387000Y-105537000D01*
X175387000Y-107823000D01*
X177673000Y-107823000D01*
X177673000Y-105537000D01*
X177927000Y-105537000D01*
X177927000Y-107823000D01*
X179120155Y-107823000D01*
X179241476Y-107593110D01*
X179071645Y-107183076D01*
X178681358Y-106754817D01*
X178522046Y-106680000D01*
X178681358Y-106605183D01*
X179071645Y-106176924D01*
X179241476Y-105766890D01*
X189058524Y-105766890D01*
X189228355Y-106176924D01*
X189618642Y-106605183D01*
X189777954Y-106680000D01*
X189618642Y-106754817D01*
X189228355Y-107183076D01*
X189058524Y-107593110D01*
X189179845Y-107823000D01*
X190373000Y-107823000D01*
X190373000Y-105537000D01*
X190627000Y-105537000D01*
X190627000Y-107823000D01*
X192913000Y-107823000D01*
X192913000Y-105537000D01*
X193167000Y-105537000D01*
X193167000Y-107823000D01*
X194360155Y-107823000D01*
X194481476Y-107593110D01*
X194311645Y-107183076D01*
X193921358Y-106754817D01*
X193762046Y-106680000D01*
X193921358Y-106605183D01*
X194311645Y-106176924D01*
X194481476Y-105766890D01*
X194360155Y-105537000D01*
X193167000Y-105537000D01*
X192913000Y-105537000D01*
X190627000Y-105537000D01*
X190373000Y-105537000D01*
X189179845Y-105537000D01*
X189058524Y-105766890D01*
X179241476Y-105766890D01*
X179120155Y-105537000D01*
X177927000Y-105537000D01*
X177673000Y-105537000D01*
X175387000Y-105537000D01*
X175133000Y-105537000D01*
X173939845Y-105537000D01*
X173818524Y-105766890D01*
X164001476Y-105766890D01*
X163880155Y-105537000D01*
X162687000Y-105537000D01*
X162433000Y-105537000D01*
X160147000Y-105537000D01*
X159893000Y-105537000D01*
X158699845Y-105537000D01*
X158578524Y-105766890D01*
X148761476Y-105766890D01*
X148640155Y-105537000D01*
X147447000Y-105537000D01*
X147193000Y-105537000D01*
X144907000Y-105537000D01*
X144653000Y-105537000D01*
X143459845Y-105537000D01*
X143338524Y-105766890D01*
X133521476Y-105766890D01*
X133400155Y-105537000D01*
X132207000Y-105537000D01*
X131953000Y-105537000D01*
X129667000Y-105537000D01*
X129413000Y-105537000D01*
X128219845Y-105537000D01*
X128098524Y-105766890D01*
X118281476Y-105766890D01*
X118160155Y-105537000D01*
X116967000Y-105537000D01*
X116713000Y-105537000D01*
X114427000Y-105537000D01*
X114173000Y-105537000D01*
X112979845Y-105537000D01*
X112858524Y-105766890D01*
X103041476Y-105766890D01*
X102920155Y-105537000D01*
X101727000Y-105537000D01*
X101473000Y-105537000D01*
X99187000Y-105537000D01*
X98933000Y-105537000D01*
X97739845Y-105537000D01*
X97618524Y-105766890D01*
X87801476Y-105766890D01*
X87680155Y-105537000D01*
X86487000Y-105537000D01*
X86233000Y-105537000D01*
X83947000Y-105537000D01*
X83693000Y-105537000D01*
X82499845Y-105537000D01*
X82378524Y-105766890D01*
X72561476Y-105766890D01*
X72440155Y-105537000D01*
X71247000Y-105537000D01*
X70993000Y-105537000D01*
X68707000Y-105537000D01*
X68453000Y-105537000D01*
X67259845Y-105537000D01*
X67138524Y-105766890D01*
X49045000Y-105766890D01*
X49045000Y-103226890D01*
X67138524Y-103226890D01*
X67308355Y-103636924D01*
X67698642Y-104065183D01*
X67857954Y-104140000D01*
X67698642Y-104214817D01*
X67308355Y-104643076D01*
X67138524Y-105053110D01*
X67259845Y-105283000D01*
X68453000Y-105283000D01*
X68453000Y-102997000D01*
X68707000Y-102997000D01*
X68707000Y-105283000D01*
X70993000Y-105283000D01*
X70993000Y-102997000D01*
X71247000Y-102997000D01*
X71247000Y-105283000D01*
X72440155Y-105283000D01*
X72561476Y-105053110D01*
X72391645Y-104643076D01*
X72001358Y-104214817D01*
X71842046Y-104140000D01*
X72001358Y-104065183D01*
X72391645Y-103636924D01*
X72561476Y-103226890D01*
X82378524Y-103226890D01*
X82548355Y-103636924D01*
X82938642Y-104065183D01*
X83097954Y-104140000D01*
X82938642Y-104214817D01*
X82548355Y-104643076D01*
X82378524Y-105053110D01*
X82499845Y-105283000D01*
X83693000Y-105283000D01*
X83693000Y-102997000D01*
X83947000Y-102997000D01*
X83947000Y-105283000D01*
X86233000Y-105283000D01*
X86233000Y-102997000D01*
X86487000Y-102997000D01*
X86487000Y-105283000D01*
X87680155Y-105283000D01*
X87801476Y-105053110D01*
X87631645Y-104643076D01*
X87241358Y-104214817D01*
X87082046Y-104140000D01*
X87241358Y-104065183D01*
X87631645Y-103636924D01*
X87801476Y-103226890D01*
X97618524Y-103226890D01*
X97788355Y-103636924D01*
X98178642Y-104065183D01*
X98337954Y-104140000D01*
X98178642Y-104214817D01*
X97788355Y-104643076D01*
X97618524Y-105053110D01*
X97739845Y-105283000D01*
X98933000Y-105283000D01*
X98933000Y-102997000D01*
X99187000Y-102997000D01*
X99187000Y-105283000D01*
X101473000Y-105283000D01*
X101473000Y-102997000D01*
X101727000Y-102997000D01*
X101727000Y-105283000D01*
X102920155Y-105283000D01*
X103041476Y-105053110D01*
X102871645Y-104643076D01*
X102481358Y-104214817D01*
X102322046Y-104140000D01*
X102481358Y-104065183D01*
X102871645Y-103636924D01*
X103041476Y-103226890D01*
X112858524Y-103226890D01*
X113028355Y-103636924D01*
X113418642Y-104065183D01*
X113577954Y-104140000D01*
X113418642Y-104214817D01*
X113028355Y-104643076D01*
X112858524Y-105053110D01*
X112979845Y-105283000D01*
X114173000Y-105283000D01*
X114173000Y-102997000D01*
X114427000Y-102997000D01*
X114427000Y-105283000D01*
X116713000Y-105283000D01*
X116713000Y-102997000D01*
X116967000Y-102997000D01*
X116967000Y-105283000D01*
X118160155Y-105283000D01*
X118281476Y-105053110D01*
X118111645Y-104643076D01*
X117721358Y-104214817D01*
X117562046Y-104140000D01*
X117721358Y-104065183D01*
X118111645Y-103636924D01*
X118281476Y-103226890D01*
X128098524Y-103226890D01*
X128268355Y-103636924D01*
X128658642Y-104065183D01*
X128817954Y-104140000D01*
X128658642Y-104214817D01*
X128268355Y-104643076D01*
X128098524Y-105053110D01*
X128219845Y-105283000D01*
X129413000Y-105283000D01*
X129413000Y-102997000D01*
X129667000Y-102997000D01*
X129667000Y-105283000D01*
X131953000Y-105283000D01*
X131953000Y-102997000D01*
X132207000Y-102997000D01*
X132207000Y-105283000D01*
X133400155Y-105283000D01*
X133521476Y-105053110D01*
X133351645Y-104643076D01*
X132961358Y-104214817D01*
X132802046Y-104140000D01*
X132961358Y-104065183D01*
X133351645Y-103636924D01*
X133521476Y-103226890D01*
X143338524Y-103226890D01*
X143508355Y-103636924D01*
X143898642Y-104065183D01*
X144057954Y-104140000D01*
X143898642Y-104214817D01*
X143508355Y-104643076D01*
X143338524Y-105053110D01*
X143459845Y-105283000D01*
X144653000Y-105283000D01*
X144653000Y-102997000D01*
X144907000Y-102997000D01*
X144907000Y-105283000D01*
X147193000Y-105283000D01*
X147193000Y-102997000D01*
X147447000Y-102997000D01*
X147447000Y-105283000D01*
X148640155Y-105283000D01*
X148761476Y-105053110D01*
X148591645Y-104643076D01*
X148201358Y-104214817D01*
X148042046Y-104140000D01*
X148201358Y-104065183D01*
X148591645Y-103636924D01*
X148761476Y-103226890D01*
X158578524Y-103226890D01*
X158748355Y-103636924D01*
X159138642Y-104065183D01*
X159297954Y-104140000D01*
X159138642Y-104214817D01*
X158748355Y-104643076D01*
X158578524Y-105053110D01*
X158699845Y-105283000D01*
X159893000Y-105283000D01*
X159893000Y-102997000D01*
X160147000Y-102997000D01*
X160147000Y-105283000D01*
X162433000Y-105283000D01*
X162433000Y-102997000D01*
X162687000Y-102997000D01*
X162687000Y-105283000D01*
X163880155Y-105283000D01*
X164001476Y-105053110D01*
X163831645Y-104643076D01*
X163441358Y-104214817D01*
X163282046Y-104140000D01*
X163441358Y-104065183D01*
X163831645Y-103636924D01*
X164001476Y-103226890D01*
X173818524Y-103226890D01*
X173988355Y-103636924D01*
X174378642Y-104065183D01*
X174537954Y-104140000D01*
X174378642Y-104214817D01*
X173988355Y-104643076D01*
X173818524Y-105053110D01*
X173939845Y-105283000D01*
X175133000Y-105283000D01*
X175133000Y-102997000D01*
X175387000Y-102997000D01*
X175387000Y-105283000D01*
X177673000Y-105283000D01*
X177673000Y-102997000D01*
X177927000Y-102997000D01*
X177927000Y-105283000D01*
X179120155Y-105283000D01*
X179241476Y-105053110D01*
X179071645Y-104643076D01*
X178681358Y-104214817D01*
X178522046Y-104140000D01*
X178681358Y-104065183D01*
X179071645Y-103636924D01*
X179241476Y-103226890D01*
X189058524Y-103226890D01*
X189228355Y-103636924D01*
X189618642Y-104065183D01*
X189777954Y-104140000D01*
X189618642Y-104214817D01*
X189228355Y-104643076D01*
X189058524Y-105053110D01*
X189179845Y-105283000D01*
X190373000Y-105283000D01*
X190373000Y-102997000D01*
X190627000Y-102997000D01*
X190627000Y-105283000D01*
X192913000Y-105283000D01*
X192913000Y-102997000D01*
X193167000Y-102997000D01*
X193167000Y-105283000D01*
X194360155Y-105283000D01*
X194481476Y-105053110D01*
X194311645Y-104643076D01*
X193921358Y-104214817D01*
X193762046Y-104140000D01*
X193921358Y-104065183D01*
X194311645Y-103636924D01*
X194481476Y-103226890D01*
X194360155Y-102997000D01*
X193167000Y-102997000D01*
X192913000Y-102997000D01*
X190627000Y-102997000D01*
X190373000Y-102997000D01*
X189179845Y-102997000D01*
X189058524Y-103226890D01*
X179241476Y-103226890D01*
X179120155Y-102997000D01*
X177927000Y-102997000D01*
X177673000Y-102997000D01*
X175387000Y-102997000D01*
X175133000Y-102997000D01*
X173939845Y-102997000D01*
X173818524Y-103226890D01*
X164001476Y-103226890D01*
X163880155Y-102997000D01*
X162687000Y-102997000D01*
X162433000Y-102997000D01*
X160147000Y-102997000D01*
X159893000Y-102997000D01*
X158699845Y-102997000D01*
X158578524Y-103226890D01*
X148761476Y-103226890D01*
X148640155Y-102997000D01*
X147447000Y-102997000D01*
X147193000Y-102997000D01*
X144907000Y-102997000D01*
X144653000Y-102997000D01*
X143459845Y-102997000D01*
X143338524Y-103226890D01*
X133521476Y-103226890D01*
X133400155Y-102997000D01*
X132207000Y-102997000D01*
X131953000Y-102997000D01*
X129667000Y-102997000D01*
X129413000Y-102997000D01*
X128219845Y-102997000D01*
X128098524Y-103226890D01*
X118281476Y-103226890D01*
X118160155Y-102997000D01*
X116967000Y-102997000D01*
X116713000Y-102997000D01*
X114427000Y-102997000D01*
X114173000Y-102997000D01*
X112979845Y-102997000D01*
X112858524Y-103226890D01*
X103041476Y-103226890D01*
X102920155Y-102997000D01*
X101727000Y-102997000D01*
X101473000Y-102997000D01*
X99187000Y-102997000D01*
X98933000Y-102997000D01*
X97739845Y-102997000D01*
X97618524Y-103226890D01*
X87801476Y-103226890D01*
X87680155Y-102997000D01*
X86487000Y-102997000D01*
X86233000Y-102997000D01*
X83947000Y-102997000D01*
X83693000Y-102997000D01*
X82499845Y-102997000D01*
X82378524Y-103226890D01*
X72561476Y-103226890D01*
X72440155Y-102997000D01*
X71247000Y-102997000D01*
X70993000Y-102997000D01*
X68707000Y-102997000D01*
X68453000Y-102997000D01*
X67259845Y-102997000D01*
X67138524Y-103226890D01*
X49045000Y-103226890D01*
X49045000Y-99480000D01*
X67082560Y-99480000D01*
X67082560Y-101180000D01*
X67131843Y-101427765D01*
X67272191Y-101637809D01*
X67482235Y-101778157D01*
X67585708Y-101798739D01*
X67308355Y-102103076D01*
X67138524Y-102513110D01*
X67259845Y-102743000D01*
X68453000Y-102743000D01*
X68453000Y-102723000D01*
X68707000Y-102723000D01*
X68707000Y-102743000D01*
X70993000Y-102743000D01*
X70993000Y-102723000D01*
X71247000Y-102723000D01*
X71247000Y-102743000D01*
X72440155Y-102743000D01*
X72561476Y-102513110D01*
X72391645Y-102103076D01*
X72001358Y-101674817D01*
X71871522Y-101613843D01*
X72190625Y-101400625D01*
X72518839Y-100909418D01*
X72634092Y-100330000D01*
X72518839Y-99750582D01*
X72190625Y-99259375D01*
X71699418Y-98931161D01*
X71266256Y-98845000D01*
X70973744Y-98845000D01*
X70540582Y-98931161D01*
X70049375Y-99259375D01*
X70037184Y-99277619D01*
X70028157Y-99232235D01*
X69887809Y-99022191D01*
X69677765Y-98881843D01*
X69430000Y-98832560D01*
X67730000Y-98832560D01*
X67482235Y-98881843D01*
X67272191Y-99022191D01*
X67131843Y-99232235D01*
X67082560Y-99480000D01*
X49045000Y-99480000D01*
X49045000Y-95250000D01*
X82305908Y-95250000D01*
X82421161Y-95829418D01*
X82749375Y-96320625D01*
X83047761Y-96520000D01*
X82749375Y-96719375D01*
X82421161Y-97210582D01*
X82305908Y-97790000D01*
X82421161Y-98369418D01*
X82749375Y-98860625D01*
X83047761Y-99060000D01*
X82749375Y-99259375D01*
X82421161Y-99750582D01*
X82305908Y-100330000D01*
X82421161Y-100909418D01*
X82749375Y-101400625D01*
X83068478Y-101613843D01*
X82938642Y-101674817D01*
X82548355Y-102103076D01*
X82378524Y-102513110D01*
X82499845Y-102743000D01*
X83693000Y-102743000D01*
X83693000Y-102723000D01*
X83947000Y-102723000D01*
X83947000Y-102743000D01*
X86233000Y-102743000D01*
X86233000Y-102723000D01*
X86487000Y-102723000D01*
X86487000Y-102743000D01*
X87680155Y-102743000D01*
X87801476Y-102513110D01*
X87631645Y-102103076D01*
X87241358Y-101674817D01*
X87111522Y-101613843D01*
X87430625Y-101400625D01*
X87758839Y-100909418D01*
X87874092Y-100330000D01*
X87758839Y-99750582D01*
X87430625Y-99259375D01*
X87132239Y-99060000D01*
X87430625Y-98860625D01*
X87758839Y-98369418D01*
X87874092Y-97790000D01*
X87758839Y-97210582D01*
X87430625Y-96719375D01*
X87132239Y-96520000D01*
X87430625Y-96320625D01*
X87758839Y-95829418D01*
X87874092Y-95250000D01*
X97545908Y-95250000D01*
X97661161Y-95829418D01*
X97989375Y-96320625D01*
X98287761Y-96520000D01*
X97989375Y-96719375D01*
X97661161Y-97210582D01*
X97545908Y-97790000D01*
X97661161Y-98369418D01*
X97989375Y-98860625D01*
X98287761Y-99060000D01*
X97989375Y-99259375D01*
X97661161Y-99750582D01*
X97545908Y-100330000D01*
X97661161Y-100909418D01*
X97989375Y-101400625D01*
X98308478Y-101613843D01*
X98178642Y-101674817D01*
X97788355Y-102103076D01*
X97618524Y-102513110D01*
X97739845Y-102743000D01*
X98933000Y-102743000D01*
X98933000Y-102723000D01*
X99187000Y-102723000D01*
X99187000Y-102743000D01*
X101473000Y-102743000D01*
X101473000Y-102723000D01*
X101727000Y-102723000D01*
X101727000Y-102743000D01*
X102920155Y-102743000D01*
X103041476Y-102513110D01*
X102871645Y-102103076D01*
X102481358Y-101674817D01*
X102351522Y-101613843D01*
X102670625Y-101400625D01*
X102998839Y-100909418D01*
X103114092Y-100330000D01*
X102998839Y-99750582D01*
X102670625Y-99259375D01*
X102372239Y-99060000D01*
X102670625Y-98860625D01*
X102998839Y-98369418D01*
X103114092Y-97790000D01*
X102998839Y-97210582D01*
X102670625Y-96719375D01*
X102372239Y-96520000D01*
X102670625Y-96320625D01*
X102998839Y-95829418D01*
X103114092Y-95250000D01*
X112785908Y-95250000D01*
X112901161Y-95829418D01*
X113229375Y-96320625D01*
X113527761Y-96520000D01*
X113229375Y-96719375D01*
X112901161Y-97210582D01*
X112785908Y-97790000D01*
X112901161Y-98369418D01*
X113229375Y-98860625D01*
X113527761Y-99060000D01*
X113229375Y-99259375D01*
X112901161Y-99750582D01*
X112785908Y-100330000D01*
X112901161Y-100909418D01*
X113229375Y-101400625D01*
X113548478Y-101613843D01*
X113418642Y-101674817D01*
X113028355Y-102103076D01*
X112858524Y-102513110D01*
X112979845Y-102743000D01*
X114173000Y-102743000D01*
X114173000Y-102723000D01*
X114427000Y-102723000D01*
X114427000Y-102743000D01*
X116713000Y-102743000D01*
X116713000Y-102723000D01*
X116967000Y-102723000D01*
X116967000Y-102743000D01*
X118160155Y-102743000D01*
X118281476Y-102513110D01*
X118111645Y-102103076D01*
X117721358Y-101674817D01*
X117591522Y-101613843D01*
X117910625Y-101400625D01*
X118238839Y-100909418D01*
X118354092Y-100330000D01*
X118238839Y-99750582D01*
X117910625Y-99259375D01*
X117612239Y-99060000D01*
X117910625Y-98860625D01*
X118238839Y-98369418D01*
X118354092Y-97790000D01*
X118238839Y-97210582D01*
X117910625Y-96719375D01*
X117612239Y-96520000D01*
X117910625Y-96320625D01*
X118238839Y-95829418D01*
X118354092Y-95250000D01*
X128025908Y-95250000D01*
X128141161Y-95829418D01*
X128469375Y-96320625D01*
X128767761Y-96520000D01*
X128469375Y-96719375D01*
X128141161Y-97210582D01*
X128025908Y-97790000D01*
X128141161Y-98369418D01*
X128469375Y-98860625D01*
X128767761Y-99060000D01*
X128469375Y-99259375D01*
X128141161Y-99750582D01*
X128025908Y-100330000D01*
X128141161Y-100909418D01*
X128469375Y-101400625D01*
X128788478Y-101613843D01*
X128658642Y-101674817D01*
X128268355Y-102103076D01*
X128098524Y-102513110D01*
X128219845Y-102743000D01*
X129413000Y-102743000D01*
X129413000Y-102723000D01*
X129667000Y-102723000D01*
X129667000Y-102743000D01*
X131953000Y-102743000D01*
X131953000Y-102723000D01*
X132207000Y-102723000D01*
X132207000Y-102743000D01*
X133400155Y-102743000D01*
X133521476Y-102513110D01*
X133351645Y-102103076D01*
X132961358Y-101674817D01*
X132831522Y-101613843D01*
X133150625Y-101400625D01*
X133478839Y-100909418D01*
X133594092Y-100330000D01*
X133478839Y-99750582D01*
X133150625Y-99259375D01*
X132852239Y-99060000D01*
X133150625Y-98860625D01*
X133478839Y-98369418D01*
X133594092Y-97790000D01*
X133478839Y-97210582D01*
X133150625Y-96719375D01*
X132852239Y-96520000D01*
X133150625Y-96320625D01*
X133478839Y-95829418D01*
X133594092Y-95250000D01*
X143265908Y-95250000D01*
X143381161Y-95829418D01*
X143709375Y-96320625D01*
X144007761Y-96520000D01*
X143709375Y-96719375D01*
X143381161Y-97210582D01*
X143265908Y-97790000D01*
X143381161Y-98369418D01*
X143709375Y-98860625D01*
X144007761Y-99060000D01*
X143709375Y-99259375D01*
X143381161Y-99750582D01*
X143265908Y-100330000D01*
X143381161Y-100909418D01*
X143709375Y-101400625D01*
X144028478Y-101613843D01*
X143898642Y-101674817D01*
X143508355Y-102103076D01*
X143338524Y-102513110D01*
X143459845Y-102743000D01*
X144653000Y-102743000D01*
X144653000Y-102723000D01*
X144907000Y-102723000D01*
X144907000Y-102743000D01*
X147193000Y-102743000D01*
X147193000Y-102723000D01*
X147447000Y-102723000D01*
X147447000Y-102743000D01*
X148640155Y-102743000D01*
X148761476Y-102513110D01*
X148591645Y-102103076D01*
X148201358Y-101674817D01*
X148071522Y-101613843D01*
X148390625Y-101400625D01*
X148718839Y-100909418D01*
X148834092Y-100330000D01*
X148718839Y-99750582D01*
X148390625Y-99259375D01*
X148092239Y-99060000D01*
X148390625Y-98860625D01*
X148718839Y-98369418D01*
X148834092Y-97790000D01*
X148718839Y-97210582D01*
X148390625Y-96719375D01*
X148092239Y-96520000D01*
X148390625Y-96320625D01*
X148718839Y-95829418D01*
X148834092Y-95250000D01*
X158505908Y-95250000D01*
X158621161Y-95829418D01*
X158949375Y-96320625D01*
X159247761Y-96520000D01*
X158949375Y-96719375D01*
X158621161Y-97210582D01*
X158505908Y-97790000D01*
X158621161Y-98369418D01*
X158949375Y-98860625D01*
X159247761Y-99060000D01*
X158949375Y-99259375D01*
X158621161Y-99750582D01*
X158505908Y-100330000D01*
X158621161Y-100909418D01*
X158949375Y-101400625D01*
X159268478Y-101613843D01*
X159138642Y-101674817D01*
X158748355Y-102103076D01*
X158578524Y-102513110D01*
X158699845Y-102743000D01*
X159893000Y-102743000D01*
X159893000Y-102723000D01*
X160147000Y-102723000D01*
X160147000Y-102743000D01*
X162433000Y-102743000D01*
X162433000Y-102723000D01*
X162687000Y-102723000D01*
X162687000Y-102743000D01*
X163880155Y-102743000D01*
X164001476Y-102513110D01*
X163831645Y-102103076D01*
X163441358Y-101674817D01*
X163311522Y-101613843D01*
X163630625Y-101400625D01*
X163958839Y-100909418D01*
X164074092Y-100330000D01*
X163958839Y-99750582D01*
X163630625Y-99259375D01*
X163332239Y-99060000D01*
X163630625Y-98860625D01*
X163958839Y-98369418D01*
X164074092Y-97790000D01*
X163958839Y-97210582D01*
X163630625Y-96719375D01*
X163332239Y-96520000D01*
X163630625Y-96320625D01*
X163958839Y-95829418D01*
X164074092Y-95250000D01*
X173745908Y-95250000D01*
X173861161Y-95829418D01*
X174189375Y-96320625D01*
X174487761Y-96520000D01*
X174189375Y-96719375D01*
X173861161Y-97210582D01*
X173745908Y-97790000D01*
X173861161Y-98369418D01*
X174189375Y-98860625D01*
X174487761Y-99060000D01*
X174189375Y-99259375D01*
X173861161Y-99750582D01*
X173745908Y-100330000D01*
X173861161Y-100909418D01*
X174189375Y-101400625D01*
X174508478Y-101613843D01*
X174378642Y-101674817D01*
X173988355Y-102103076D01*
X173818524Y-102513110D01*
X173939845Y-102743000D01*
X175133000Y-102743000D01*
X175133000Y-102723000D01*
X175387000Y-102723000D01*
X175387000Y-102743000D01*
X177673000Y-102743000D01*
X177673000Y-102723000D01*
X177927000Y-102723000D01*
X177927000Y-102743000D01*
X179120155Y-102743000D01*
X179241476Y-102513110D01*
X179071645Y-102103076D01*
X178681358Y-101674817D01*
X178551522Y-101613843D01*
X178870625Y-101400625D01*
X179198839Y-100909418D01*
X179314092Y-100330000D01*
X179198839Y-99750582D01*
X178870625Y-99259375D01*
X178572239Y-99060000D01*
X178870625Y-98860625D01*
X179198839Y-98369418D01*
X179314092Y-97790000D01*
X179198839Y-97210582D01*
X178870625Y-96719375D01*
X178572239Y-96520000D01*
X178870625Y-96320625D01*
X179198839Y-95829418D01*
X179314092Y-95250000D01*
X188985908Y-95250000D01*
X189101161Y-95829418D01*
X189429375Y-96320625D01*
X189727761Y-96520000D01*
X189429375Y-96719375D01*
X189101161Y-97210582D01*
X188985908Y-97790000D01*
X189101161Y-98369418D01*
X189429375Y-98860625D01*
X189727761Y-99060000D01*
X189429375Y-99259375D01*
X189101161Y-99750582D01*
X188985908Y-100330000D01*
X189101161Y-100909418D01*
X189429375Y-101400625D01*
X189748478Y-101613843D01*
X189618642Y-101674817D01*
X189228355Y-102103076D01*
X189058524Y-102513110D01*
X189179845Y-102743000D01*
X190373000Y-102743000D01*
X190373000Y-102723000D01*
X190627000Y-102723000D01*
X190627000Y-102743000D01*
X192913000Y-102743000D01*
X192913000Y-102723000D01*
X193167000Y-102723000D01*
X193167000Y-102743000D01*
X194360155Y-102743000D01*
X194481476Y-102513110D01*
X194311645Y-102103076D01*
X193921358Y-101674817D01*
X193791522Y-101613843D01*
X194110625Y-101400625D01*
X194438839Y-100909418D01*
X194554092Y-100330000D01*
X194438839Y-99750582D01*
X194110625Y-99259375D01*
X193812239Y-99060000D01*
X194110625Y-98860625D01*
X194438839Y-98369418D01*
X194554092Y-97790000D01*
X194438839Y-97210582D01*
X194110625Y-96719375D01*
X193812239Y-96520000D01*
X194110625Y-96320625D01*
X194438839Y-95829418D01*
X194554092Y-95250000D01*
X194438839Y-94670582D01*
X194110625Y-94179375D01*
X193812239Y-93980000D01*
X194110625Y-93780625D01*
X194438839Y-93289418D01*
X194554092Y-92710000D01*
X194438839Y-92130582D01*
X194110625Y-91639375D01*
X193619418Y-91311161D01*
X193186256Y-91225000D01*
X192893744Y-91225000D01*
X192460582Y-91311161D01*
X191969375Y-91639375D01*
X191957184Y-91657619D01*
X191948157Y-91612235D01*
X191807809Y-91402191D01*
X191597765Y-91261843D01*
X191350000Y-91212560D01*
X189650000Y-91212560D01*
X189402235Y-91261843D01*
X189192191Y-91402191D01*
X189051843Y-91612235D01*
X189002560Y-91860000D01*
X189002560Y-93560000D01*
X189051843Y-93807765D01*
X189192191Y-94017809D01*
X189402235Y-94158157D01*
X189447619Y-94167184D01*
X189429375Y-94179375D01*
X189101161Y-94670582D01*
X188985908Y-95250000D01*
X179314092Y-95250000D01*
X179198839Y-94670582D01*
X178870625Y-94179375D01*
X178572239Y-93980000D01*
X178870625Y-93780625D01*
X179198839Y-93289418D01*
X179314092Y-92710000D01*
X179198839Y-92130582D01*
X178870625Y-91639375D01*
X178379418Y-91311161D01*
X177946256Y-91225000D01*
X177653744Y-91225000D01*
X177220582Y-91311161D01*
X176729375Y-91639375D01*
X176717184Y-91657619D01*
X176708157Y-91612235D01*
X176567809Y-91402191D01*
X176357765Y-91261843D01*
X176110000Y-91212560D01*
X174410000Y-91212560D01*
X174162235Y-91261843D01*
X173952191Y-91402191D01*
X173811843Y-91612235D01*
X173762560Y-91860000D01*
X173762560Y-93560000D01*
X173811843Y-93807765D01*
X173952191Y-94017809D01*
X174162235Y-94158157D01*
X174207619Y-94167184D01*
X174189375Y-94179375D01*
X173861161Y-94670582D01*
X173745908Y-95250000D01*
X164074092Y-95250000D01*
X163958839Y-94670582D01*
X163630625Y-94179375D01*
X163332239Y-93980000D01*
X163630625Y-93780625D01*
X163958839Y-93289418D01*
X164074092Y-92710000D01*
X163958839Y-92130582D01*
X163630625Y-91639375D01*
X163139418Y-91311161D01*
X162706256Y-91225000D01*
X162413744Y-91225000D01*
X161980582Y-91311161D01*
X161489375Y-91639375D01*
X161477184Y-91657619D01*
X161468157Y-91612235D01*
X161327809Y-91402191D01*
X161117765Y-91261843D01*
X160870000Y-91212560D01*
X159170000Y-91212560D01*
X158922235Y-91261843D01*
X158712191Y-91402191D01*
X158571843Y-91612235D01*
X158522560Y-91860000D01*
X158522560Y-93560000D01*
X158571843Y-93807765D01*
X158712191Y-94017809D01*
X158922235Y-94158157D01*
X158967619Y-94167184D01*
X158949375Y-94179375D01*
X158621161Y-94670582D01*
X158505908Y-95250000D01*
X148834092Y-95250000D01*
X148718839Y-94670582D01*
X148390625Y-94179375D01*
X148092239Y-93980000D01*
X148390625Y-93780625D01*
X148718839Y-93289418D01*
X148834092Y-92710000D01*
X148718839Y-92130582D01*
X148390625Y-91639375D01*
X147899418Y-91311161D01*
X147466256Y-91225000D01*
X147173744Y-91225000D01*
X146740582Y-91311161D01*
X146249375Y-91639375D01*
X146237184Y-91657619D01*
X146228157Y-91612235D01*
X146087809Y-91402191D01*
X145877765Y-91261843D01*
X145630000Y-91212560D01*
X143930000Y-91212560D01*
X143682235Y-91261843D01*
X143472191Y-91402191D01*
X143331843Y-91612235D01*
X143282560Y-91860000D01*
X143282560Y-93560000D01*
X143331843Y-93807765D01*
X143472191Y-94017809D01*
X143682235Y-94158157D01*
X143727619Y-94167184D01*
X143709375Y-94179375D01*
X143381161Y-94670582D01*
X143265908Y-95250000D01*
X133594092Y-95250000D01*
X133478839Y-94670582D01*
X133150625Y-94179375D01*
X132852239Y-93980000D01*
X133150625Y-93780625D01*
X133478839Y-93289418D01*
X133594092Y-92710000D01*
X133478839Y-92130582D01*
X133150625Y-91639375D01*
X132659418Y-91311161D01*
X132226256Y-91225000D01*
X131933744Y-91225000D01*
X131500582Y-91311161D01*
X131009375Y-91639375D01*
X130997184Y-91657619D01*
X130988157Y-91612235D01*
X130847809Y-91402191D01*
X130637765Y-91261843D01*
X130390000Y-91212560D01*
X128690000Y-91212560D01*
X128442235Y-91261843D01*
X128232191Y-91402191D01*
X128091843Y-91612235D01*
X128042560Y-91860000D01*
X128042560Y-93560000D01*
X128091843Y-93807765D01*
X128232191Y-94017809D01*
X128442235Y-94158157D01*
X128487619Y-94167184D01*
X128469375Y-94179375D01*
X128141161Y-94670582D01*
X128025908Y-95250000D01*
X118354092Y-95250000D01*
X118238839Y-94670582D01*
X117910625Y-94179375D01*
X117612239Y-93980000D01*
X117910625Y-93780625D01*
X118238839Y-93289418D01*
X118354092Y-92710000D01*
X118238839Y-92130582D01*
X117910625Y-91639375D01*
X117419418Y-91311161D01*
X116986256Y-91225000D01*
X116693744Y-91225000D01*
X116260582Y-91311161D01*
X115769375Y-91639375D01*
X115757184Y-91657619D01*
X115748157Y-91612235D01*
X115607809Y-91402191D01*
X115397765Y-91261843D01*
X115150000Y-91212560D01*
X113450000Y-91212560D01*
X113202235Y-91261843D01*
X112992191Y-91402191D01*
X112851843Y-91612235D01*
X112802560Y-91860000D01*
X112802560Y-93560000D01*
X112851843Y-93807765D01*
X112992191Y-94017809D01*
X113202235Y-94158157D01*
X113247619Y-94167184D01*
X113229375Y-94179375D01*
X112901161Y-94670582D01*
X112785908Y-95250000D01*
X103114092Y-95250000D01*
X102998839Y-94670582D01*
X102670625Y-94179375D01*
X102372239Y-93980000D01*
X102670625Y-93780625D01*
X102998839Y-93289418D01*
X103114092Y-92710000D01*
X102998839Y-92130582D01*
X102670625Y-91639375D01*
X102179418Y-91311161D01*
X101746256Y-91225000D01*
X101453744Y-91225000D01*
X101020582Y-91311161D01*
X100529375Y-91639375D01*
X100517184Y-91657619D01*
X100508157Y-91612235D01*
X100367809Y-91402191D01*
X100157765Y-91261843D01*
X99910000Y-91212560D01*
X98210000Y-91212560D01*
X97962235Y-91261843D01*
X97752191Y-91402191D01*
X97611843Y-91612235D01*
X97562560Y-91860000D01*
X97562560Y-93560000D01*
X97611843Y-93807765D01*
X97752191Y-94017809D01*
X97962235Y-94158157D01*
X98007619Y-94167184D01*
X97989375Y-94179375D01*
X97661161Y-94670582D01*
X97545908Y-95250000D01*
X87874092Y-95250000D01*
X87758839Y-94670582D01*
X87430625Y-94179375D01*
X87132239Y-93980000D01*
X87430625Y-93780625D01*
X87758839Y-93289418D01*
X87874092Y-92710000D01*
X87758839Y-92130582D01*
X87430625Y-91639375D01*
X86939418Y-91311161D01*
X86506256Y-91225000D01*
X86213744Y-91225000D01*
X85780582Y-91311161D01*
X85289375Y-91639375D01*
X85277184Y-91657619D01*
X85268157Y-91612235D01*
X85127809Y-91402191D01*
X84917765Y-91261843D01*
X84670000Y-91212560D01*
X82970000Y-91212560D01*
X82722235Y-91261843D01*
X82512191Y-91402191D01*
X82371843Y-91612235D01*
X82322560Y-91860000D01*
X82322560Y-93560000D01*
X82371843Y-93807765D01*
X82512191Y-94017809D01*
X82722235Y-94158157D01*
X82767619Y-94167184D01*
X82749375Y-94179375D01*
X82421161Y-94670582D01*
X82305908Y-95250000D01*
X49045000Y-95250000D01*
X49045000Y-82065000D01*
X78001545Y-82065000D01*
X78013262Y-82256567D01*
X78013262Y-82256567D01*
G37*
X78013262Y-82256567D02*
X78015042Y-82269823D01*
X78015346Y-82283201D01*
X78026615Y-82360446D01*
X78239889Y-83442515D01*
X78244594Y-83459714D01*
X78247568Y-83477297D01*
X78269870Y-83552106D01*
X78637114Y-84592053D01*
X78644251Y-84608389D01*
X78649733Y-84625362D01*
X78682601Y-84696168D01*
X79196121Y-85672208D01*
X79205543Y-85687346D01*
X79213416Y-85703345D01*
X79256160Y-85768665D01*
X79905198Y-86660353D01*
X79916708Y-86673973D01*
X79926808Y-86688669D01*
X79978512Y-86747109D01*
X79978533Y-86747134D01*
X79978540Y-86747141D01*
X80749495Y-87535789D01*
X80762844Y-87547599D01*
X80774965Y-87560689D01*
X80834543Y-87611034D01*
X80834589Y-87611075D01*
X80834605Y-87611086D01*
X81711323Y-88280176D01*
X81726246Y-88289942D01*
X81740121Y-88301137D01*
X81806363Y-88342369D01*
X81806394Y-88342389D01*
X81806405Y-88342394D01*
X82770533Y-88877919D01*
X82786704Y-88885425D01*
X82802055Y-88894504D01*
X82873568Y-88925747D01*
X82873589Y-88925757D01*
X82873597Y-88925759D01*
X83904937Y-89316499D01*
X83922023Y-89321593D01*
X83938523Y-89328360D01*
X84013789Y-89348950D01*
X84013819Y-89348959D01*
X84013829Y-89348961D01*
X85090769Y-89586727D01*
X85108408Y-89589300D01*
X85125717Y-89593616D01*
X85203192Y-89603128D01*
X85203197Y-89603129D01*
X85203198Y-89603129D01*
X86254620Y-89679418D01*
X86282684Y-89685000D01*
X197335000Y-89685000D01*
X197335001Y-113515000D01*
X49045000Y-113515000D01*
X49045000Y-110490000D01*
X67065908Y-110490000D01*
X67181161Y-111069418D01*
X67509375Y-111560625D01*
X68000582Y-111888839D01*
X68433744Y-111975000D01*
X68726256Y-111975000D01*
X69159418Y-111888839D01*
X69650625Y-111560625D01*
X69850000Y-111262239D01*
X70049375Y-111560625D01*
X70540582Y-111888839D01*
X70973744Y-111975000D01*
X71266256Y-111975000D01*
X71699418Y-111888839D01*
X72190625Y-111560625D01*
X72518839Y-111069418D01*
X72634092Y-110490000D01*
X82305908Y-110490000D01*
X82421161Y-111069418D01*
X82749375Y-111560625D01*
X83240582Y-111888839D01*
X83673744Y-111975000D01*
X83966256Y-111975000D01*
X84399418Y-111888839D01*
X84890625Y-111560625D01*
X85090000Y-111262239D01*
X85289375Y-111560625D01*
X85780582Y-111888839D01*
X86213744Y-111975000D01*
X86506256Y-111975000D01*
X86939418Y-111888839D01*
X87430625Y-111560625D01*
X87758839Y-111069418D01*
X87874092Y-110490000D01*
X97545908Y-110490000D01*
X97661161Y-111069418D01*
X97989375Y-111560625D01*
X98480582Y-111888839D01*
X98913744Y-111975000D01*
X99206256Y-111975000D01*
X99639418Y-111888839D01*
X100130625Y-111560625D01*
X100330000Y-111262239D01*
X100529375Y-111560625D01*
X101020582Y-111888839D01*
X101453744Y-111975000D01*
X101746256Y-111975000D01*
X102179418Y-111888839D01*
X102670625Y-111560625D01*
X102998839Y-111069418D01*
X103114092Y-110490000D01*
X112785908Y-110490000D01*
X112901161Y-111069418D01*
X113229375Y-111560625D01*
X113720582Y-111888839D01*
X114153744Y-111975000D01*
X114446256Y-111975000D01*
X114879418Y-111888839D01*
X115370625Y-111560625D01*
X115570000Y-111262239D01*
X115769375Y-111560625D01*
X116260582Y-111888839D01*
X116693744Y-111975000D01*
X116986256Y-111975000D01*
X117419418Y-111888839D01*
X117910625Y-111560625D01*
X118238839Y-111069418D01*
X118354092Y-110490000D01*
X128025908Y-110490000D01*
X128141161Y-111069418D01*
X128469375Y-111560625D01*
X128960582Y-111888839D01*
X129393744Y-111975000D01*
X129686256Y-111975000D01*
X130119418Y-111888839D01*
X130610625Y-111560625D01*
X130810000Y-111262239D01*
X131009375Y-111560625D01*
X131500582Y-111888839D01*
X131933744Y-111975000D01*
X132226256Y-111975000D01*
X132659418Y-111888839D01*
X133150625Y-111560625D01*
X133478839Y-111069418D01*
X133594092Y-110490000D01*
X143265908Y-110490000D01*
X143381161Y-111069418D01*
X143709375Y-111560625D01*
X144200582Y-111888839D01*
X144633744Y-111975000D01*
X144926256Y-111975000D01*
X145359418Y-111888839D01*
X145850625Y-111560625D01*
X146050000Y-111262239D01*
X146249375Y-111560625D01*
X146740582Y-111888839D01*
X147173744Y-111975000D01*
X147466256Y-111975000D01*
X147899418Y-111888839D01*
X148390625Y-111560625D01*
X148718839Y-111069418D01*
X148834092Y-110490000D01*
X158505908Y-110490000D01*
X158621161Y-111069418D01*
X158949375Y-111560625D01*
X159440582Y-111888839D01*
X159873744Y-111975000D01*
X160166256Y-111975000D01*
X160599418Y-111888839D01*
X161090625Y-111560625D01*
X161290000Y-111262239D01*
X161489375Y-111560625D01*
X161980582Y-111888839D01*
X162413744Y-111975000D01*
X162706256Y-111975000D01*
X163139418Y-111888839D01*
X163630625Y-111560625D01*
X163958839Y-111069418D01*
X164074092Y-110490000D01*
X173745908Y-110490000D01*
X173861161Y-111069418D01*
X174189375Y-111560625D01*
X174680582Y-111888839D01*
X175113744Y-111975000D01*
X175406256Y-111975000D01*
X175839418Y-111888839D01*
X176330625Y-111560625D01*
X176530000Y-111262239D01*
X176729375Y-111560625D01*
X177220582Y-111888839D01*
X177653744Y-111975000D01*
X177946256Y-111975000D01*
X178379418Y-111888839D01*
X178870625Y-111560625D01*
X179198839Y-111069418D01*
X179314092Y-110490000D01*
X188985908Y-110490000D01*
X189101161Y-111069418D01*
X189429375Y-111560625D01*
X189920582Y-111888839D01*
X190353744Y-111975000D01*
X190646256Y-111975000D01*
X191079418Y-111888839D01*
X191570625Y-111560625D01*
X191770000Y-111262239D01*
X191969375Y-111560625D01*
X192460582Y-111888839D01*
X192893744Y-111975000D01*
X193186256Y-111975000D01*
X193619418Y-111888839D01*
X194110625Y-111560625D01*
X194438839Y-111069418D01*
X194554092Y-110490000D01*
X194438839Y-109910582D01*
X194110625Y-109419375D01*
X193791522Y-109206157D01*
X193921358Y-109145183D01*
X194311645Y-108716924D01*
X194481476Y-108306890D01*
X194360155Y-108077000D01*
X193167000Y-108077000D01*
X193167000Y-108097000D01*
X192913000Y-108097000D01*
X192913000Y-108077000D01*
X190627000Y-108077000D01*
X190627000Y-108097000D01*
X190373000Y-108097000D01*
X190373000Y-108077000D01*
X189179845Y-108077000D01*
X189058524Y-108306890D01*
X189228355Y-108716924D01*
X189618642Y-109145183D01*
X189748478Y-109206157D01*
X189429375Y-109419375D01*
X189101161Y-109910582D01*
X188985908Y-110490000D01*
X179314092Y-110490000D01*
X179198839Y-109910582D01*
X178870625Y-109419375D01*
X178551522Y-109206157D01*
X178681358Y-109145183D01*
X179071645Y-108716924D01*
X179241476Y-108306890D01*
X179120155Y-108077000D01*
X177927000Y-108077000D01*
X177927000Y-108097000D01*
X177673000Y-108097000D01*
X177673000Y-108077000D01*
X175387000Y-108077000D01*
X175387000Y-108097000D01*
X175133000Y-108097000D01*
X175133000Y-108077000D01*
X173939845Y-108077000D01*
X173818524Y-108306890D01*
X173988355Y-108716924D01*
X174378642Y-109145183D01*
X174508478Y-109206157D01*
X174189375Y-109419375D01*
X173861161Y-109910582D01*
X173745908Y-110490000D01*
X164074092Y-110490000D01*
X163958839Y-109910582D01*
X163630625Y-109419375D01*
X163311522Y-109206157D01*
X163441358Y-109145183D01*
X163831645Y-108716924D01*
X164001476Y-108306890D01*
X163880155Y-108077000D01*
X162687000Y-108077000D01*
X162687000Y-108097000D01*
X162433000Y-108097000D01*
X162433000Y-108077000D01*
X160147000Y-108077000D01*
X160147000Y-108097000D01*
X159893000Y-108097000D01*
X159893000Y-108077000D01*
X158699845Y-108077000D01*
X158578524Y-108306890D01*
X158748355Y-108716924D01*
X159138642Y-109145183D01*
X159268478Y-109206157D01*
X158949375Y-109419375D01*
X158621161Y-109910582D01*
X158505908Y-110490000D01*
X148834092Y-110490000D01*
X148718839Y-109910582D01*
X148390625Y-109419375D01*
X148071522Y-109206157D01*
X148201358Y-109145183D01*
X148591645Y-108716924D01*
X148761476Y-108306890D01*
X148640155Y-108077000D01*
X147447000Y-108077000D01*
X147447000Y-108097000D01*
X147193000Y-108097000D01*
X147193000Y-108077000D01*
X144907000Y-108077000D01*
X144907000Y-108097000D01*
X144653000Y-108097000D01*
X144653000Y-108077000D01*
X143459845Y-108077000D01*
X143338524Y-108306890D01*
X143508355Y-108716924D01*
X143898642Y-109145183D01*
X144028478Y-109206157D01*
X143709375Y-109419375D01*
X143381161Y-109910582D01*
X143265908Y-110490000D01*
X133594092Y-110490000D01*
X133478839Y-109910582D01*
X133150625Y-109419375D01*
X132831522Y-109206157D01*
X132961358Y-109145183D01*
X133351645Y-108716924D01*
X133521476Y-108306890D01*
X133400155Y-108077000D01*
X132207000Y-108077000D01*
X132207000Y-108097000D01*
X131953000Y-108097000D01*
X131953000Y-108077000D01*
X129667000Y-108077000D01*
X129667000Y-108097000D01*
X129413000Y-108097000D01*
X129413000Y-108077000D01*
X128219845Y-108077000D01*
X128098524Y-108306890D01*
X128268355Y-108716924D01*
X128658642Y-109145183D01*
X128788478Y-109206157D01*
X128469375Y-109419375D01*
X128141161Y-109910582D01*
X128025908Y-110490000D01*
X118354092Y-110490000D01*
X118238839Y-109910582D01*
X117910625Y-109419375D01*
X117591522Y-109206157D01*
X117721358Y-109145183D01*
X118111645Y-108716924D01*
X118281476Y-108306890D01*
X118160155Y-108077000D01*
X116967000Y-108077000D01*
X116967000Y-108097000D01*
X116713000Y-108097000D01*
X116713000Y-108077000D01*
X114427000Y-108077000D01*
X114427000Y-108097000D01*
X114173000Y-108097000D01*
X114173000Y-108077000D01*
X112979845Y-108077000D01*
X112858524Y-108306890D01*
X113028355Y-108716924D01*
X113418642Y-109145183D01*
X113548478Y-109206157D01*
X113229375Y-109419375D01*
X112901161Y-109910582D01*
X112785908Y-110490000D01*
X103114092Y-110490000D01*
X102998839Y-109910582D01*
X102670625Y-109419375D01*
X102351522Y-109206157D01*
X102481358Y-109145183D01*
X102871645Y-108716924D01*
X103041476Y-108306890D01*
X102920155Y-108077000D01*
X101727000Y-108077000D01*
X101727000Y-108097000D01*
X101473000Y-108097000D01*
X101473000Y-108077000D01*
X99187000Y-108077000D01*
X99187000Y-108097000D01*
X98933000Y-108097000D01*
X98933000Y-108077000D01*
X97739845Y-108077000D01*
X97618524Y-108306890D01*
X97788355Y-108716924D01*
X98178642Y-109145183D01*
X98308478Y-109206157D01*
X97989375Y-109419375D01*
X97661161Y-109910582D01*
X97545908Y-110490000D01*
X87874092Y-110490000D01*
X87758839Y-109910582D01*
X87430625Y-109419375D01*
X87111522Y-109206157D01*
X87241358Y-109145183D01*
X87631645Y-108716924D01*
X87801476Y-108306890D01*
X87680155Y-108077000D01*
X86487000Y-108077000D01*
X86487000Y-108097000D01*
X86233000Y-108097000D01*
X86233000Y-108077000D01*
X83947000Y-108077000D01*
X83947000Y-108097000D01*
X83693000Y-108097000D01*
X83693000Y-108077000D01*
X82499845Y-108077000D01*
X82378524Y-108306890D01*
X82548355Y-108716924D01*
X82938642Y-109145183D01*
X83068478Y-109206157D01*
X82749375Y-109419375D01*
X82421161Y-109910582D01*
X82305908Y-110490000D01*
X72634092Y-110490000D01*
X72518839Y-109910582D01*
X72190625Y-109419375D01*
X71871522Y-109206157D01*
X72001358Y-109145183D01*
X72391645Y-108716924D01*
X72561476Y-108306890D01*
X72440155Y-108077000D01*
X71247000Y-108077000D01*
X71247000Y-108097000D01*
X70993000Y-108097000D01*
X70993000Y-108077000D01*
X68707000Y-108077000D01*
X68707000Y-108097000D01*
X68453000Y-108097000D01*
X68453000Y-108077000D01*
X67259845Y-108077000D01*
X67138524Y-108306890D01*
X67308355Y-108716924D01*
X67698642Y-109145183D01*
X67828478Y-109206157D01*
X67509375Y-109419375D01*
X67181161Y-109910582D01*
X67065908Y-110490000D01*
X49045000Y-110490000D01*
X49045000Y-105766890D01*
X67138524Y-105766890D01*
X67308355Y-106176924D01*
X67698642Y-106605183D01*
X67857954Y-106680000D01*
X67698642Y-106754817D01*
X67308355Y-107183076D01*
X67138524Y-107593110D01*
X67259845Y-107823000D01*
X68453000Y-107823000D01*
X68453000Y-105537000D01*
X68707000Y-105537000D01*
X68707000Y-107823000D01*
X70993000Y-107823000D01*
X70993000Y-105537000D01*
X71247000Y-105537000D01*
X71247000Y-107823000D01*
X72440155Y-107823000D01*
X72561476Y-107593110D01*
X72391645Y-107183076D01*
X72001358Y-106754817D01*
X71842046Y-106680000D01*
X72001358Y-106605183D01*
X72391645Y-106176924D01*
X72561476Y-105766890D01*
X82378524Y-105766890D01*
X82548355Y-106176924D01*
X82938642Y-106605183D01*
X83097954Y-106680000D01*
X82938642Y-106754817D01*
X82548355Y-107183076D01*
X82378524Y-107593110D01*
X82499845Y-107823000D01*
X83693000Y-107823000D01*
X83693000Y-105537000D01*
X83947000Y-105537000D01*
X83947000Y-107823000D01*
X86233000Y-107823000D01*
X86233000Y-105537000D01*
X86487000Y-105537000D01*
X86487000Y-107823000D01*
X87680155Y-107823000D01*
X87801476Y-107593110D01*
X87631645Y-107183076D01*
X87241358Y-106754817D01*
X87082046Y-106680000D01*
X87241358Y-106605183D01*
X87631645Y-106176924D01*
X87801476Y-105766890D01*
X97618524Y-105766890D01*
X97788355Y-106176924D01*
X98178642Y-106605183D01*
X98337954Y-106680000D01*
X98178642Y-106754817D01*
X97788355Y-107183076D01*
X97618524Y-107593110D01*
X97739845Y-107823000D01*
X98933000Y-107823000D01*
X98933000Y-105537000D01*
X99187000Y-105537000D01*
X99187000Y-107823000D01*
X101473000Y-107823000D01*
X101473000Y-105537000D01*
X101727000Y-105537000D01*
X101727000Y-107823000D01*
X102920155Y-107823000D01*
X103041476Y-107593110D01*
X102871645Y-107183076D01*
X102481358Y-106754817D01*
X102322046Y-106680000D01*
X102481358Y-106605183D01*
X102871645Y-106176924D01*
X103041476Y-105766890D01*
X112858524Y-105766890D01*
X113028355Y-106176924D01*
X113418642Y-106605183D01*
X113577954Y-106680000D01*
X113418642Y-106754817D01*
X113028355Y-107183076D01*
X112858524Y-107593110D01*
X112979845Y-107823000D01*
X114173000Y-107823000D01*
X114173000Y-105537000D01*
X114427000Y-105537000D01*
X114427000Y-107823000D01*
X116713000Y-107823000D01*
X116713000Y-105537000D01*
X116967000Y-105537000D01*
X116967000Y-107823000D01*
X118160155Y-107823000D01*
X118281476Y-107593110D01*
X118111645Y-107183076D01*
X117721358Y-106754817D01*
X117562046Y-106680000D01*
X117721358Y-106605183D01*
X118111645Y-106176924D01*
X118281476Y-105766890D01*
X128098524Y-105766890D01*
X128268355Y-106176924D01*
X128658642Y-106605183D01*
X128817954Y-106680000D01*
X128658642Y-106754817D01*
X128268355Y-107183076D01*
X128098524Y-107593110D01*
X128219845Y-107823000D01*
X129413000Y-107823000D01*
X129413000Y-105537000D01*
X129667000Y-105537000D01*
X129667000Y-107823000D01*
X131953000Y-107823000D01*
X131953000Y-105537000D01*
X132207000Y-105537000D01*
X132207000Y-107823000D01*
X133400155Y-107823000D01*
X133521476Y-107593110D01*
X133351645Y-107183076D01*
X132961358Y-106754817D01*
X132802046Y-106680000D01*
X132961358Y-106605183D01*
X133351645Y-106176924D01*
X133521476Y-105766890D01*
X143338524Y-105766890D01*
X143508355Y-106176924D01*
X143898642Y-106605183D01*
X144057954Y-106680000D01*
X143898642Y-106754817D01*
X143508355Y-107183076D01*
X143338524Y-107593110D01*
X143459845Y-107823000D01*
X144653000Y-107823000D01*
X144653000Y-105537000D01*
X144907000Y-105537000D01*
X144907000Y-107823000D01*
X147193000Y-107823000D01*
X147193000Y-105537000D01*
X147447000Y-105537000D01*
X147447000Y-107823000D01*
X148640155Y-107823000D01*
X148761476Y-107593110D01*
X148591645Y-107183076D01*
X148201358Y-106754817D01*
X148042046Y-106680000D01*
X148201358Y-106605183D01*
X148591645Y-106176924D01*
X148761476Y-105766890D01*
X158578524Y-105766890D01*
X158748355Y-106176924D01*
X159138642Y-106605183D01*
X159297954Y-106680000D01*
X159138642Y-106754817D01*
X158748355Y-107183076D01*
X158578524Y-107593110D01*
X158699845Y-107823000D01*
X159893000Y-107823000D01*
X159893000Y-105537000D01*
X160147000Y-105537000D01*
X160147000Y-107823000D01*
X162433000Y-107823000D01*
X162433000Y-105537000D01*
X162687000Y-105537000D01*
X162687000Y-107823000D01*
X163880155Y-107823000D01*
X164001476Y-107593110D01*
X163831645Y-107183076D01*
X163441358Y-106754817D01*
X163282046Y-106680000D01*
X163441358Y-106605183D01*
X163831645Y-106176924D01*
X164001476Y-105766890D01*
X173818524Y-105766890D01*
X173988355Y-106176924D01*
X174378642Y-106605183D01*
X174537954Y-106680000D01*
X174378642Y-106754817D01*
X173988355Y-107183076D01*
X173818524Y-107593110D01*
X173939845Y-107823000D01*
X175133000Y-107823000D01*
X175133000Y-105537000D01*
X175387000Y-105537000D01*
X175387000Y-107823000D01*
X177673000Y-107823000D01*
X177673000Y-105537000D01*
X177927000Y-105537000D01*
X177927000Y-107823000D01*
X179120155Y-107823000D01*
X179241476Y-107593110D01*
X179071645Y-107183076D01*
X178681358Y-106754817D01*
X178522046Y-106680000D01*
X178681358Y-106605183D01*
X179071645Y-106176924D01*
X179241476Y-105766890D01*
X189058524Y-105766890D01*
X189228355Y-106176924D01*
X189618642Y-106605183D01*
X189777954Y-106680000D01*
X189618642Y-106754817D01*
X189228355Y-107183076D01*
X189058524Y-107593110D01*
X189179845Y-107823000D01*
X190373000Y-107823000D01*
X190373000Y-105537000D01*
X190627000Y-105537000D01*
X190627000Y-107823000D01*
X192913000Y-107823000D01*
X192913000Y-105537000D01*
X193167000Y-105537000D01*
X193167000Y-107823000D01*
X194360155Y-107823000D01*
X194481476Y-107593110D01*
X194311645Y-107183076D01*
X193921358Y-106754817D01*
X193762046Y-106680000D01*
X193921358Y-106605183D01*
X194311645Y-106176924D01*
X194481476Y-105766890D01*
X194360155Y-105537000D01*
X193167000Y-105537000D01*
X192913000Y-105537000D01*
X190627000Y-105537000D01*
X190373000Y-105537000D01*
X189179845Y-105537000D01*
X189058524Y-105766890D01*
X179241476Y-105766890D01*
X179120155Y-105537000D01*
X177927000Y-105537000D01*
X177673000Y-105537000D01*
X175387000Y-105537000D01*
X175133000Y-105537000D01*
X173939845Y-105537000D01*
X173818524Y-105766890D01*
X164001476Y-105766890D01*
X163880155Y-105537000D01*
X162687000Y-105537000D01*
X162433000Y-105537000D01*
X160147000Y-105537000D01*
X159893000Y-105537000D01*
X158699845Y-105537000D01*
X158578524Y-105766890D01*
X148761476Y-105766890D01*
X148640155Y-105537000D01*
X147447000Y-105537000D01*
X147193000Y-105537000D01*
X144907000Y-105537000D01*
X144653000Y-105537000D01*
X143459845Y-105537000D01*
X143338524Y-105766890D01*
X133521476Y-105766890D01*
X133400155Y-105537000D01*
X132207000Y-105537000D01*
X131953000Y-105537000D01*
X129667000Y-105537000D01*
X129413000Y-105537000D01*
X128219845Y-105537000D01*
X128098524Y-105766890D01*
X118281476Y-105766890D01*
X118160155Y-105537000D01*
X116967000Y-105537000D01*
X116713000Y-105537000D01*
X114427000Y-105537000D01*
X114173000Y-105537000D01*
X112979845Y-105537000D01*
X112858524Y-105766890D01*
X103041476Y-105766890D01*
X102920155Y-105537000D01*
X101727000Y-105537000D01*
X101473000Y-105537000D01*
X99187000Y-105537000D01*
X98933000Y-105537000D01*
X97739845Y-105537000D01*
X97618524Y-105766890D01*
X87801476Y-105766890D01*
X87680155Y-105537000D01*
X86487000Y-105537000D01*
X86233000Y-105537000D01*
X83947000Y-105537000D01*
X83693000Y-105537000D01*
X82499845Y-105537000D01*
X82378524Y-105766890D01*
X72561476Y-105766890D01*
X72440155Y-105537000D01*
X71247000Y-105537000D01*
X70993000Y-105537000D01*
X68707000Y-105537000D01*
X68453000Y-105537000D01*
X67259845Y-105537000D01*
X67138524Y-105766890D01*
X49045000Y-105766890D01*
X49045000Y-103226890D01*
X67138524Y-103226890D01*
X67308355Y-103636924D01*
X67698642Y-104065183D01*
X67857954Y-104140000D01*
X67698642Y-104214817D01*
X67308355Y-104643076D01*
X67138524Y-105053110D01*
X67259845Y-105283000D01*
X68453000Y-105283000D01*
X68453000Y-102997000D01*
X68707000Y-102997000D01*
X68707000Y-105283000D01*
X70993000Y-105283000D01*
X70993000Y-102997000D01*
X71247000Y-102997000D01*
X71247000Y-105283000D01*
X72440155Y-105283000D01*
X72561476Y-105053110D01*
X72391645Y-104643076D01*
X72001358Y-104214817D01*
X71842046Y-104140000D01*
X72001358Y-104065183D01*
X72391645Y-103636924D01*
X72561476Y-103226890D01*
X82378524Y-103226890D01*
X82548355Y-103636924D01*
X82938642Y-104065183D01*
X83097954Y-104140000D01*
X82938642Y-104214817D01*
X82548355Y-104643076D01*
X82378524Y-105053110D01*
X82499845Y-105283000D01*
X83693000Y-105283000D01*
X83693000Y-102997000D01*
X83947000Y-102997000D01*
X83947000Y-105283000D01*
X86233000Y-105283000D01*
X86233000Y-102997000D01*
X86487000Y-102997000D01*
X86487000Y-105283000D01*
X87680155Y-105283000D01*
X87801476Y-105053110D01*
X87631645Y-104643076D01*
X87241358Y-104214817D01*
X87082046Y-104140000D01*
X87241358Y-104065183D01*
X87631645Y-103636924D01*
X87801476Y-103226890D01*
X97618524Y-103226890D01*
X97788355Y-103636924D01*
X98178642Y-104065183D01*
X98337954Y-104140000D01*
X98178642Y-104214817D01*
X97788355Y-104643076D01*
X97618524Y-105053110D01*
X97739845Y-105283000D01*
X98933000Y-105283000D01*
X98933000Y-102997000D01*
X99187000Y-102997000D01*
X99187000Y-105283000D01*
X101473000Y-105283000D01*
X101473000Y-102997000D01*
X101727000Y-102997000D01*
X101727000Y-105283000D01*
X102920155Y-105283000D01*
X103041476Y-105053110D01*
X102871645Y-104643076D01*
X102481358Y-104214817D01*
X102322046Y-104140000D01*
X102481358Y-104065183D01*
X102871645Y-103636924D01*
X103041476Y-103226890D01*
X112858524Y-103226890D01*
X113028355Y-103636924D01*
X113418642Y-104065183D01*
X113577954Y-104140000D01*
X113418642Y-104214817D01*
X113028355Y-104643076D01*
X112858524Y-105053110D01*
X112979845Y-105283000D01*
X114173000Y-105283000D01*
X114173000Y-102997000D01*
X114427000Y-102997000D01*
X114427000Y-105283000D01*
X116713000Y-105283000D01*
X116713000Y-102997000D01*
X116967000Y-102997000D01*
X116967000Y-105283000D01*
X118160155Y-105283000D01*
X118281476Y-105053110D01*
X118111645Y-104643076D01*
X117721358Y-104214817D01*
X117562046Y-104140000D01*
X117721358Y-104065183D01*
X118111645Y-103636924D01*
X118281476Y-103226890D01*
X128098524Y-103226890D01*
X128268355Y-103636924D01*
X128658642Y-104065183D01*
X128817954Y-104140000D01*
X128658642Y-104214817D01*
X128268355Y-104643076D01*
X128098524Y-105053110D01*
X128219845Y-105283000D01*
X129413000Y-105283000D01*
X129413000Y-102997000D01*
X129667000Y-102997000D01*
X129667000Y-105283000D01*
X131953000Y-105283000D01*
X131953000Y-102997000D01*
X132207000Y-102997000D01*
X132207000Y-105283000D01*
X133400155Y-105283000D01*
X133521476Y-105053110D01*
X133351645Y-104643076D01*
X132961358Y-104214817D01*
X132802046Y-104140000D01*
X132961358Y-104065183D01*
X133351645Y-103636924D01*
X133521476Y-103226890D01*
X143338524Y-103226890D01*
X143508355Y-103636924D01*
X143898642Y-104065183D01*
X144057954Y-104140000D01*
X143898642Y-104214817D01*
X143508355Y-104643076D01*
X143338524Y-105053110D01*
X143459845Y-105283000D01*
X144653000Y-105283000D01*
X144653000Y-102997000D01*
X144907000Y-102997000D01*
X144907000Y-105283000D01*
X147193000Y-105283000D01*
X147193000Y-102997000D01*
X147447000Y-102997000D01*
X147447000Y-105283000D01*
X148640155Y-105283000D01*
X148761476Y-105053110D01*
X148591645Y-104643076D01*
X148201358Y-104214817D01*
X148042046Y-104140000D01*
X148201358Y-104065183D01*
X148591645Y-103636924D01*
X148761476Y-103226890D01*
X158578524Y-103226890D01*
X158748355Y-103636924D01*
X159138642Y-104065183D01*
X159297954Y-104140000D01*
X159138642Y-104214817D01*
X158748355Y-104643076D01*
X158578524Y-105053110D01*
X158699845Y-105283000D01*
X159893000Y-105283000D01*
X159893000Y-102997000D01*
X160147000Y-102997000D01*
X160147000Y-105283000D01*
X162433000Y-105283000D01*
X162433000Y-102997000D01*
X162687000Y-102997000D01*
X162687000Y-105283000D01*
X163880155Y-105283000D01*
X164001476Y-105053110D01*
X163831645Y-104643076D01*
X163441358Y-104214817D01*
X163282046Y-104140000D01*
X163441358Y-104065183D01*
X163831645Y-103636924D01*
X164001476Y-103226890D01*
X173818524Y-103226890D01*
X173988355Y-103636924D01*
X174378642Y-104065183D01*
X174537954Y-104140000D01*
X174378642Y-104214817D01*
X173988355Y-104643076D01*
X173818524Y-105053110D01*
X173939845Y-105283000D01*
X175133000Y-105283000D01*
X175133000Y-102997000D01*
X175387000Y-102997000D01*
X175387000Y-105283000D01*
X177673000Y-105283000D01*
X177673000Y-102997000D01*
X177927000Y-102997000D01*
X177927000Y-105283000D01*
X179120155Y-105283000D01*
X179241476Y-105053110D01*
X179071645Y-104643076D01*
X178681358Y-104214817D01*
X178522046Y-104140000D01*
X178681358Y-104065183D01*
X179071645Y-103636924D01*
X179241476Y-103226890D01*
X189058524Y-103226890D01*
X189228355Y-103636924D01*
X189618642Y-104065183D01*
X189777954Y-104140000D01*
X189618642Y-104214817D01*
X189228355Y-104643076D01*
X189058524Y-105053110D01*
X189179845Y-105283000D01*
X190373000Y-105283000D01*
X190373000Y-102997000D01*
X190627000Y-102997000D01*
X190627000Y-105283000D01*
X192913000Y-105283000D01*
X192913000Y-102997000D01*
X193167000Y-102997000D01*
X193167000Y-105283000D01*
X194360155Y-105283000D01*
X194481476Y-105053110D01*
X194311645Y-104643076D01*
X193921358Y-104214817D01*
X193762046Y-104140000D01*
X193921358Y-104065183D01*
X194311645Y-103636924D01*
X194481476Y-103226890D01*
X194360155Y-102997000D01*
X193167000Y-102997000D01*
X192913000Y-102997000D01*
X190627000Y-102997000D01*
X190373000Y-102997000D01*
X189179845Y-102997000D01*
X189058524Y-103226890D01*
X179241476Y-103226890D01*
X179120155Y-102997000D01*
X177927000Y-102997000D01*
X177673000Y-102997000D01*
X175387000Y-102997000D01*
X175133000Y-102997000D01*
X173939845Y-102997000D01*
X173818524Y-103226890D01*
X164001476Y-103226890D01*
X163880155Y-102997000D01*
X162687000Y-102997000D01*
X162433000Y-102997000D01*
X160147000Y-102997000D01*
X159893000Y-102997000D01*
X158699845Y-102997000D01*
X158578524Y-103226890D01*
X148761476Y-103226890D01*
X148640155Y-102997000D01*
X147447000Y-102997000D01*
X147193000Y-102997000D01*
X144907000Y-102997000D01*
X144653000Y-102997000D01*
X143459845Y-102997000D01*
X143338524Y-103226890D01*
X133521476Y-103226890D01*
X133400155Y-102997000D01*
X132207000Y-102997000D01*
X131953000Y-102997000D01*
X129667000Y-102997000D01*
X129413000Y-102997000D01*
X128219845Y-102997000D01*
X128098524Y-103226890D01*
X118281476Y-103226890D01*
X118160155Y-102997000D01*
X116967000Y-102997000D01*
X116713000Y-102997000D01*
X114427000Y-102997000D01*
X114173000Y-102997000D01*
X112979845Y-102997000D01*
X112858524Y-103226890D01*
X103041476Y-103226890D01*
X102920155Y-102997000D01*
X101727000Y-102997000D01*
X101473000Y-102997000D01*
X99187000Y-102997000D01*
X98933000Y-102997000D01*
X97739845Y-102997000D01*
X97618524Y-103226890D01*
X87801476Y-103226890D01*
X87680155Y-102997000D01*
X86487000Y-102997000D01*
X86233000Y-102997000D01*
X83947000Y-102997000D01*
X83693000Y-102997000D01*
X82499845Y-102997000D01*
X82378524Y-103226890D01*
X72561476Y-103226890D01*
X72440155Y-102997000D01*
X71247000Y-102997000D01*
X70993000Y-102997000D01*
X68707000Y-102997000D01*
X68453000Y-102997000D01*
X67259845Y-102997000D01*
X67138524Y-103226890D01*
X49045000Y-103226890D01*
X49045000Y-99480000D01*
X67082560Y-99480000D01*
X67082560Y-101180000D01*
X67131843Y-101427765D01*
X67272191Y-101637809D01*
X67482235Y-101778157D01*
X67585708Y-101798739D01*
X67308355Y-102103076D01*
X67138524Y-102513110D01*
X67259845Y-102743000D01*
X68453000Y-102743000D01*
X68453000Y-102723000D01*
X68707000Y-102723000D01*
X68707000Y-102743000D01*
X70993000Y-102743000D01*
X70993000Y-102723000D01*
X71247000Y-102723000D01*
X71247000Y-102743000D01*
X72440155Y-102743000D01*
X72561476Y-102513110D01*
X72391645Y-102103076D01*
X72001358Y-101674817D01*
X71871522Y-101613843D01*
X72190625Y-101400625D01*
X72518839Y-100909418D01*
X72634092Y-100330000D01*
X72518839Y-99750582D01*
X72190625Y-99259375D01*
X71699418Y-98931161D01*
X71266256Y-98845000D01*
X70973744Y-98845000D01*
X70540582Y-98931161D01*
X70049375Y-99259375D01*
X70037184Y-99277619D01*
X70028157Y-99232235D01*
X69887809Y-99022191D01*
X69677765Y-98881843D01*
X69430000Y-98832560D01*
X67730000Y-98832560D01*
X67482235Y-98881843D01*
X67272191Y-99022191D01*
X67131843Y-99232235D01*
X67082560Y-99480000D01*
X49045000Y-99480000D01*
X49045000Y-95250000D01*
X82305908Y-95250000D01*
X82421161Y-95829418D01*
X82749375Y-96320625D01*
X83047761Y-96520000D01*
X82749375Y-96719375D01*
X82421161Y-97210582D01*
X82305908Y-97790000D01*
X82421161Y-98369418D01*
X82749375Y-98860625D01*
X83047761Y-99060000D01*
X82749375Y-99259375D01*
X82421161Y-99750582D01*
X82305908Y-100330000D01*
X82421161Y-100909418D01*
X82749375Y-101400625D01*
X83068478Y-101613843D01*
X82938642Y-101674817D01*
X82548355Y-102103076D01*
X82378524Y-102513110D01*
X82499845Y-102743000D01*
X83693000Y-102743000D01*
X83693000Y-102723000D01*
X83947000Y-102723000D01*
X83947000Y-102743000D01*
X86233000Y-102743000D01*
X86233000Y-102723000D01*
X86487000Y-102723000D01*
X86487000Y-102743000D01*
X87680155Y-102743000D01*
X87801476Y-102513110D01*
X87631645Y-102103076D01*
X87241358Y-101674817D01*
X87111522Y-101613843D01*
X87430625Y-101400625D01*
X87758839Y-100909418D01*
X87874092Y-100330000D01*
X87758839Y-99750582D01*
X87430625Y-99259375D01*
X87132239Y-99060000D01*
X87430625Y-98860625D01*
X87758839Y-98369418D01*
X87874092Y-97790000D01*
X87758839Y-97210582D01*
X87430625Y-96719375D01*
X87132239Y-96520000D01*
X87430625Y-96320625D01*
X87758839Y-95829418D01*
X87874092Y-95250000D01*
X97545908Y-95250000D01*
X97661161Y-95829418D01*
X97989375Y-96320625D01*
X98287761Y-96520000D01*
X97989375Y-96719375D01*
X97661161Y-97210582D01*
X97545908Y-97790000D01*
X97661161Y-98369418D01*
X97989375Y-98860625D01*
X98287761Y-99060000D01*
X97989375Y-99259375D01*
X97661161Y-99750582D01*
X97545908Y-100330000D01*
X97661161Y-100909418D01*
X97989375Y-101400625D01*
X98308478Y-101613843D01*
X98178642Y-101674817D01*
X97788355Y-102103076D01*
X97618524Y-102513110D01*
X97739845Y-102743000D01*
X98933000Y-102743000D01*
X98933000Y-102723000D01*
X99187000Y-102723000D01*
X99187000Y-102743000D01*
X101473000Y-102743000D01*
X101473000Y-102723000D01*
X101727000Y-102723000D01*
X101727000Y-102743000D01*
X102920155Y-102743000D01*
X103041476Y-102513110D01*
X102871645Y-102103076D01*
X102481358Y-101674817D01*
X102351522Y-101613843D01*
X102670625Y-101400625D01*
X102998839Y-100909418D01*
X103114092Y-100330000D01*
X102998839Y-99750582D01*
X102670625Y-99259375D01*
X102372239Y-99060000D01*
X102670625Y-98860625D01*
X102998839Y-98369418D01*
X103114092Y-97790000D01*
X102998839Y-97210582D01*
X102670625Y-96719375D01*
X102372239Y-96520000D01*
X102670625Y-96320625D01*
X102998839Y-95829418D01*
X103114092Y-95250000D01*
X112785908Y-95250000D01*
X112901161Y-95829418D01*
X113229375Y-96320625D01*
X113527761Y-96520000D01*
X113229375Y-96719375D01*
X112901161Y-97210582D01*
X112785908Y-97790000D01*
X112901161Y-98369418D01*
X113229375Y-98860625D01*
X113527761Y-99060000D01*
X113229375Y-99259375D01*
X112901161Y-99750582D01*
X112785908Y-100330000D01*
X112901161Y-100909418D01*
X113229375Y-101400625D01*
X113548478Y-101613843D01*
X113418642Y-101674817D01*
X113028355Y-102103076D01*
X112858524Y-102513110D01*
X112979845Y-102743000D01*
X114173000Y-102743000D01*
X114173000Y-102723000D01*
X114427000Y-102723000D01*
X114427000Y-102743000D01*
X116713000Y-102743000D01*
X116713000Y-102723000D01*
X116967000Y-102723000D01*
X116967000Y-102743000D01*
X118160155Y-102743000D01*
X118281476Y-102513110D01*
X118111645Y-102103076D01*
X117721358Y-101674817D01*
X117591522Y-101613843D01*
X117910625Y-101400625D01*
X118238839Y-100909418D01*
X118354092Y-100330000D01*
X118238839Y-99750582D01*
X117910625Y-99259375D01*
X117612239Y-99060000D01*
X117910625Y-98860625D01*
X118238839Y-98369418D01*
X118354092Y-97790000D01*
X118238839Y-97210582D01*
X117910625Y-96719375D01*
X117612239Y-96520000D01*
X117910625Y-96320625D01*
X118238839Y-95829418D01*
X118354092Y-95250000D01*
X128025908Y-95250000D01*
X128141161Y-95829418D01*
X128469375Y-96320625D01*
X128767761Y-96520000D01*
X128469375Y-96719375D01*
X128141161Y-97210582D01*
X128025908Y-97790000D01*
X128141161Y-98369418D01*
X128469375Y-98860625D01*
X128767761Y-99060000D01*
X128469375Y-99259375D01*
X128141161Y-99750582D01*
X128025908Y-100330000D01*
X128141161Y-100909418D01*
X128469375Y-101400625D01*
X128788478Y-101613843D01*
X128658642Y-101674817D01*
X128268355Y-102103076D01*
X128098524Y-102513110D01*
X128219845Y-102743000D01*
X129413000Y-102743000D01*
X129413000Y-102723000D01*
X129667000Y-102723000D01*
X129667000Y-102743000D01*
X131953000Y-102743000D01*
X131953000Y-102723000D01*
X132207000Y-102723000D01*
X132207000Y-102743000D01*
X133400155Y-102743000D01*
X133521476Y-102513110D01*
X133351645Y-102103076D01*
X132961358Y-101674817D01*
X132831522Y-101613843D01*
X133150625Y-101400625D01*
X133478839Y-100909418D01*
X133594092Y-100330000D01*
X133478839Y-99750582D01*
X133150625Y-99259375D01*
X132852239Y-99060000D01*
X133150625Y-98860625D01*
X133478839Y-98369418D01*
X133594092Y-97790000D01*
X133478839Y-97210582D01*
X133150625Y-96719375D01*
X132852239Y-96520000D01*
X133150625Y-96320625D01*
X133478839Y-95829418D01*
X133594092Y-95250000D01*
X143265908Y-95250000D01*
X143381161Y-95829418D01*
X143709375Y-96320625D01*
X144007761Y-96520000D01*
X143709375Y-96719375D01*
X143381161Y-97210582D01*
X143265908Y-97790000D01*
X143381161Y-98369418D01*
X143709375Y-98860625D01*
X144007761Y-99060000D01*
X143709375Y-99259375D01*
X143381161Y-99750582D01*
X143265908Y-100330000D01*
X143381161Y-100909418D01*
X143709375Y-101400625D01*
X144028478Y-101613843D01*
X143898642Y-101674817D01*
X143508355Y-102103076D01*
X143338524Y-102513110D01*
X143459845Y-102743000D01*
X144653000Y-102743000D01*
X144653000Y-102723000D01*
X144907000Y-102723000D01*
X144907000Y-102743000D01*
X147193000Y-102743000D01*
X147193000Y-102723000D01*
X147447000Y-102723000D01*
X147447000Y-102743000D01*
X148640155Y-102743000D01*
X148761476Y-102513110D01*
X148591645Y-102103076D01*
X148201358Y-101674817D01*
X148071522Y-101613843D01*
X148390625Y-101400625D01*
X148718839Y-100909418D01*
X148834092Y-100330000D01*
X148718839Y-99750582D01*
X148390625Y-99259375D01*
X148092239Y-99060000D01*
X148390625Y-98860625D01*
X148718839Y-98369418D01*
X148834092Y-97790000D01*
X148718839Y-97210582D01*
X148390625Y-96719375D01*
X148092239Y-96520000D01*
X148390625Y-96320625D01*
X148718839Y-95829418D01*
X148834092Y-95250000D01*
X158505908Y-95250000D01*
X158621161Y-95829418D01*
X158949375Y-96320625D01*
X159247761Y-96520000D01*
X158949375Y-96719375D01*
X158621161Y-97210582D01*
X158505908Y-97790000D01*
X158621161Y-98369418D01*
X158949375Y-98860625D01*
X159247761Y-99060000D01*
X158949375Y-99259375D01*
X158621161Y-99750582D01*
X158505908Y-100330000D01*
X158621161Y-100909418D01*
X158949375Y-101400625D01*
X159268478Y-101613843D01*
X159138642Y-101674817D01*
X158748355Y-102103076D01*
X158578524Y-102513110D01*
X158699845Y-102743000D01*
X159893000Y-102743000D01*
X159893000Y-102723000D01*
X160147000Y-102723000D01*
X160147000Y-102743000D01*
X162433000Y-102743000D01*
X162433000Y-102723000D01*
X162687000Y-102723000D01*
X162687000Y-102743000D01*
X163880155Y-102743000D01*
X164001476Y-102513110D01*
X163831645Y-102103076D01*
X163441358Y-101674817D01*
X163311522Y-101613843D01*
X163630625Y-101400625D01*
X163958839Y-100909418D01*
X164074092Y-100330000D01*
X163958839Y-99750582D01*
X163630625Y-99259375D01*
X163332239Y-99060000D01*
X163630625Y-98860625D01*
X163958839Y-98369418D01*
X164074092Y-97790000D01*
X163958839Y-97210582D01*
X163630625Y-96719375D01*
X163332239Y-96520000D01*
X163630625Y-96320625D01*
X163958839Y-95829418D01*
X164074092Y-95250000D01*
X173745908Y-95250000D01*
X173861161Y-95829418D01*
X174189375Y-96320625D01*
X174487761Y-96520000D01*
X174189375Y-96719375D01*
X173861161Y-97210582D01*
X173745908Y-97790000D01*
X173861161Y-98369418D01*
X174189375Y-98860625D01*
X174487761Y-99060000D01*
X174189375Y-99259375D01*
X173861161Y-99750582D01*
X173745908Y-100330000D01*
X173861161Y-100909418D01*
X174189375Y-101400625D01*
X174508478Y-101613843D01*
X174378642Y-101674817D01*
X173988355Y-102103076D01*
X173818524Y-102513110D01*
X173939845Y-102743000D01*
X175133000Y-102743000D01*
X175133000Y-102723000D01*
X175387000Y-102723000D01*
X175387000Y-102743000D01*
X177673000Y-102743000D01*
X177673000Y-102723000D01*
X177927000Y-102723000D01*
X177927000Y-102743000D01*
X179120155Y-102743000D01*
X179241476Y-102513110D01*
X179071645Y-102103076D01*
X178681358Y-101674817D01*
X178551522Y-101613843D01*
X178870625Y-101400625D01*
X179198839Y-100909418D01*
X179314092Y-100330000D01*
X179198839Y-99750582D01*
X178870625Y-99259375D01*
X178572239Y-99060000D01*
X178870625Y-98860625D01*
X179198839Y-98369418D01*
X179314092Y-97790000D01*
X179198839Y-97210582D01*
X178870625Y-96719375D01*
X178572239Y-96520000D01*
X178870625Y-96320625D01*
X179198839Y-95829418D01*
X179314092Y-95250000D01*
X188985908Y-95250000D01*
X189101161Y-95829418D01*
X189429375Y-96320625D01*
X189727761Y-96520000D01*
X189429375Y-96719375D01*
X189101161Y-97210582D01*
X188985908Y-97790000D01*
X189101161Y-98369418D01*
X189429375Y-98860625D01*
X189727761Y-99060000D01*
X189429375Y-99259375D01*
X189101161Y-99750582D01*
X188985908Y-100330000D01*
X189101161Y-100909418D01*
X189429375Y-101400625D01*
X189748478Y-101613843D01*
X189618642Y-101674817D01*
X189228355Y-102103076D01*
X189058524Y-102513110D01*
X189179845Y-102743000D01*
X190373000Y-102743000D01*
X190373000Y-102723000D01*
X190627000Y-102723000D01*
X190627000Y-102743000D01*
X192913000Y-102743000D01*
X192913000Y-102723000D01*
X193167000Y-102723000D01*
X193167000Y-102743000D01*
X194360155Y-102743000D01*
X194481476Y-102513110D01*
X194311645Y-102103076D01*
X193921358Y-101674817D01*
X193791522Y-101613843D01*
X194110625Y-101400625D01*
X194438839Y-100909418D01*
X194554092Y-100330000D01*
X194438839Y-99750582D01*
X194110625Y-99259375D01*
X193812239Y-99060000D01*
X194110625Y-98860625D01*
X194438839Y-98369418D01*
X194554092Y-97790000D01*
X194438839Y-97210582D01*
X194110625Y-96719375D01*
X193812239Y-96520000D01*
X194110625Y-96320625D01*
X194438839Y-95829418D01*
X194554092Y-95250000D01*
X194438839Y-94670582D01*
X194110625Y-94179375D01*
X193812239Y-93980000D01*
X194110625Y-93780625D01*
X194438839Y-93289418D01*
X194554092Y-92710000D01*
X194438839Y-92130582D01*
X194110625Y-91639375D01*
X193619418Y-91311161D01*
X193186256Y-91225000D01*
X192893744Y-91225000D01*
X192460582Y-91311161D01*
X191969375Y-91639375D01*
X191957184Y-91657619D01*
X191948157Y-91612235D01*
X191807809Y-91402191D01*
X191597765Y-91261843D01*
X191350000Y-91212560D01*
X189650000Y-91212560D01*
X189402235Y-91261843D01*
X189192191Y-91402191D01*
X189051843Y-91612235D01*
X189002560Y-91860000D01*
X189002560Y-93560000D01*
X189051843Y-93807765D01*
X189192191Y-94017809D01*
X189402235Y-94158157D01*
X189447619Y-94167184D01*
X189429375Y-94179375D01*
X189101161Y-94670582D01*
X188985908Y-95250000D01*
X179314092Y-95250000D01*
X179198839Y-94670582D01*
X178870625Y-94179375D01*
X178572239Y-93980000D01*
X178870625Y-93780625D01*
X179198839Y-93289418D01*
X179314092Y-92710000D01*
X179198839Y-92130582D01*
X178870625Y-91639375D01*
X178379418Y-91311161D01*
X177946256Y-91225000D01*
X177653744Y-91225000D01*
X177220582Y-91311161D01*
X176729375Y-91639375D01*
X176717184Y-91657619D01*
X176708157Y-91612235D01*
X176567809Y-91402191D01*
X176357765Y-91261843D01*
X176110000Y-91212560D01*
X174410000Y-91212560D01*
X174162235Y-91261843D01*
X173952191Y-91402191D01*
X173811843Y-91612235D01*
X173762560Y-91860000D01*
X173762560Y-93560000D01*
X173811843Y-93807765D01*
X173952191Y-94017809D01*
X174162235Y-94158157D01*
X174207619Y-94167184D01*
X174189375Y-94179375D01*
X173861161Y-94670582D01*
X173745908Y-95250000D01*
X164074092Y-95250000D01*
X163958839Y-94670582D01*
X163630625Y-94179375D01*
X163332239Y-93980000D01*
X163630625Y-93780625D01*
X163958839Y-93289418D01*
X164074092Y-92710000D01*
X163958839Y-92130582D01*
X163630625Y-91639375D01*
X163139418Y-91311161D01*
X162706256Y-91225000D01*
X162413744Y-91225000D01*
X161980582Y-91311161D01*
X161489375Y-91639375D01*
X161477184Y-91657619D01*
X161468157Y-91612235D01*
X161327809Y-91402191D01*
X161117765Y-91261843D01*
X160870000Y-91212560D01*
X159170000Y-91212560D01*
X158922235Y-91261843D01*
X158712191Y-91402191D01*
X158571843Y-91612235D01*
X158522560Y-91860000D01*
X158522560Y-93560000D01*
X158571843Y-93807765D01*
X158712191Y-94017809D01*
X158922235Y-94158157D01*
X158967619Y-94167184D01*
X158949375Y-94179375D01*
X158621161Y-94670582D01*
X158505908Y-95250000D01*
X148834092Y-95250000D01*
X148718839Y-94670582D01*
X148390625Y-94179375D01*
X148092239Y-93980000D01*
X148390625Y-93780625D01*
X148718839Y-93289418D01*
X148834092Y-92710000D01*
X148718839Y-92130582D01*
X148390625Y-91639375D01*
X147899418Y-91311161D01*
X147466256Y-91225000D01*
X147173744Y-91225000D01*
X146740582Y-91311161D01*
X146249375Y-91639375D01*
X146237184Y-91657619D01*
X146228157Y-91612235D01*
X146087809Y-91402191D01*
X145877765Y-91261843D01*
X145630000Y-91212560D01*
X143930000Y-91212560D01*
X143682235Y-91261843D01*
X143472191Y-91402191D01*
X143331843Y-91612235D01*
X143282560Y-91860000D01*
X143282560Y-93560000D01*
X143331843Y-93807765D01*
X143472191Y-94017809D01*
X143682235Y-94158157D01*
X143727619Y-94167184D01*
X143709375Y-94179375D01*
X143381161Y-94670582D01*
X143265908Y-95250000D01*
X133594092Y-95250000D01*
X133478839Y-94670582D01*
X133150625Y-94179375D01*
X132852239Y-93980000D01*
X133150625Y-93780625D01*
X133478839Y-93289418D01*
X133594092Y-92710000D01*
X133478839Y-92130582D01*
X133150625Y-91639375D01*
X132659418Y-91311161D01*
X132226256Y-91225000D01*
X131933744Y-91225000D01*
X131500582Y-91311161D01*
X131009375Y-91639375D01*
X130997184Y-91657619D01*
X130988157Y-91612235D01*
X130847809Y-91402191D01*
X130637765Y-91261843D01*
X130390000Y-91212560D01*
X128690000Y-91212560D01*
X128442235Y-91261843D01*
X128232191Y-91402191D01*
X128091843Y-91612235D01*
X128042560Y-91860000D01*
X128042560Y-93560000D01*
X128091843Y-93807765D01*
X128232191Y-94017809D01*
X128442235Y-94158157D01*
X128487619Y-94167184D01*
X128469375Y-94179375D01*
X128141161Y-94670582D01*
X128025908Y-95250000D01*
X118354092Y-95250000D01*
X118238839Y-94670582D01*
X117910625Y-94179375D01*
X117612239Y-93980000D01*
X117910625Y-93780625D01*
X118238839Y-93289418D01*
X118354092Y-92710000D01*
X118238839Y-92130582D01*
X117910625Y-91639375D01*
X117419418Y-91311161D01*
X116986256Y-91225000D01*
X116693744Y-91225000D01*
X116260582Y-91311161D01*
X115769375Y-91639375D01*
X115757184Y-91657619D01*
X115748157Y-91612235D01*
X115607809Y-91402191D01*
X115397765Y-91261843D01*
X115150000Y-91212560D01*
X113450000Y-91212560D01*
X113202235Y-91261843D01*
X112992191Y-91402191D01*
X112851843Y-91612235D01*
X112802560Y-91860000D01*
X112802560Y-93560000D01*
X112851843Y-93807765D01*
X112992191Y-94017809D01*
X113202235Y-94158157D01*
X113247619Y-94167184D01*
X113229375Y-94179375D01*
X112901161Y-94670582D01*
X112785908Y-95250000D01*
X103114092Y-95250000D01*
X102998839Y-94670582D01*
X102670625Y-94179375D01*
X102372239Y-93980000D01*
X102670625Y-93780625D01*
X102998839Y-93289418D01*
X103114092Y-92710000D01*
X102998839Y-92130582D01*
X102670625Y-91639375D01*
X102179418Y-91311161D01*
X101746256Y-91225000D01*
X101453744Y-91225000D01*
X101020582Y-91311161D01*
X100529375Y-91639375D01*
X100517184Y-91657619D01*
X100508157Y-91612235D01*
X100367809Y-91402191D01*
X100157765Y-91261843D01*
X99910000Y-91212560D01*
X98210000Y-91212560D01*
X97962235Y-91261843D01*
X97752191Y-91402191D01*
X97611843Y-91612235D01*
X97562560Y-91860000D01*
X97562560Y-93560000D01*
X97611843Y-93807765D01*
X97752191Y-94017809D01*
X97962235Y-94158157D01*
X98007619Y-94167184D01*
X97989375Y-94179375D01*
X97661161Y-94670582D01*
X97545908Y-95250000D01*
X87874092Y-95250000D01*
X87758839Y-94670582D01*
X87430625Y-94179375D01*
X87132239Y-93980000D01*
X87430625Y-93780625D01*
X87758839Y-93289418D01*
X87874092Y-92710000D01*
X87758839Y-92130582D01*
X87430625Y-91639375D01*
X86939418Y-91311161D01*
X86506256Y-91225000D01*
X86213744Y-91225000D01*
X85780582Y-91311161D01*
X85289375Y-91639375D01*
X85277184Y-91657619D01*
X85268157Y-91612235D01*
X85127809Y-91402191D01*
X84917765Y-91261843D01*
X84670000Y-91212560D01*
X82970000Y-91212560D01*
X82722235Y-91261843D01*
X82512191Y-91402191D01*
X82371843Y-91612235D01*
X82322560Y-91860000D01*
X82322560Y-93560000D01*
X82371843Y-93807765D01*
X82512191Y-94017809D01*
X82722235Y-94158157D01*
X82767619Y-94167184D01*
X82749375Y-94179375D01*
X82421161Y-94670582D01*
X82305908Y-95250000D01*
X49045000Y-95250000D01*
X49045000Y-82065000D01*
X78001545Y-82065000D01*
X78013262Y-82256567D01*
G04 #@! TD*
M02*
