G04 #@! TF.GenerationSoftware,KiCad,Pcbnew,(5.0.0-3-g5ebb6b6)*
G04 #@! TF.CreationDate,2018-12-12T10:22:58+00:00*
G04 #@! TF.ProjectId,PSUExtensionBoard,505355457874656E73696F6E426F6172,rev?*
G04 #@! TF.SameCoordinates,Original*
G04 #@! TF.FileFunction,Copper,L1,Top,Signal*
G04 #@! TF.FilePolarity,Positive*
%FSLAX46Y46*%
G04 Gerber Fmt 4.6, Leading zero omitted, Abs format (unit mm)*
G04 Created by KiCad (PCBNEW (5.0.0-3-g5ebb6b6)) date Wednesday, 12 December 2018 at 10:22:58*
%MOMM*%
%LPD*%
G01*
G04 APERTURE LIST*
G04 #@! TA.AperFunction,SMDPad,CuDef*
%ADD10R,4.600000X1.100000*%
G04 #@! TD*
G04 #@! TA.AperFunction,SMDPad,CuDef*
%ADD11R,9.400000X10.800000*%
G04 #@! TD*
G04 #@! TA.AperFunction,Conductor*
%ADD12C,0.100000*%
G04 #@! TD*
G04 #@! TA.AperFunction,SMDPad,CuDef*
%ADD13C,1.150000*%
G04 #@! TD*
G04 #@! TA.AperFunction,ComponentPad*
%ADD14R,1.700000X1.700000*%
G04 #@! TD*
G04 #@! TA.AperFunction,ComponentPad*
%ADD15O,1.700000X1.700000*%
G04 #@! TD*
G04 #@! TA.AperFunction,ViaPad*
%ADD16C,0.800000*%
G04 #@! TD*
G04 #@! TA.AperFunction,Conductor*
%ADD17C,1.000000*%
G04 #@! TD*
G04 #@! TA.AperFunction,Conductor*
%ADD18C,0.254000*%
G04 #@! TD*
G04 APERTURE END LIST*
D10*
G04 #@! TO.P,U_REG1,1*
G04 #@! TO.N,/12V*
X66735000Y-92392500D03*
G04 #@! TO.P,U_REG1,2*
G04 #@! TO.N,GND*
X66735000Y-89852500D03*
G04 #@! TO.P,U_REG1,3*
G04 #@! TO.N,/5V*
X66735000Y-87312500D03*
D11*
G04 #@! TO.P,U_REG1,2*
G04 #@! TO.N,GND*
X57585000Y-89852500D03*
G04 #@! TD*
D12*
G04 #@! TO.N,/12V*
G04 #@! TO.C,C1*
G36*
X73492505Y-91757204D02*
X73516773Y-91760804D01*
X73540572Y-91766765D01*
X73563671Y-91775030D01*
X73585850Y-91785520D01*
X73606893Y-91798132D01*
X73626599Y-91812747D01*
X73644777Y-91829223D01*
X73661253Y-91847401D01*
X73675868Y-91867107D01*
X73688480Y-91888150D01*
X73698970Y-91910329D01*
X73707235Y-91933428D01*
X73713196Y-91957227D01*
X73716796Y-91981495D01*
X73718000Y-92005999D01*
X73718000Y-92906001D01*
X73716796Y-92930505D01*
X73713196Y-92954773D01*
X73707235Y-92978572D01*
X73698970Y-93001671D01*
X73688480Y-93023850D01*
X73675868Y-93044893D01*
X73661253Y-93064599D01*
X73644777Y-93082777D01*
X73626599Y-93099253D01*
X73606893Y-93113868D01*
X73585850Y-93126480D01*
X73563671Y-93136970D01*
X73540572Y-93145235D01*
X73516773Y-93151196D01*
X73492505Y-93154796D01*
X73468001Y-93156000D01*
X72817999Y-93156000D01*
X72793495Y-93154796D01*
X72769227Y-93151196D01*
X72745428Y-93145235D01*
X72722329Y-93136970D01*
X72700150Y-93126480D01*
X72679107Y-93113868D01*
X72659401Y-93099253D01*
X72641223Y-93082777D01*
X72624747Y-93064599D01*
X72610132Y-93044893D01*
X72597520Y-93023850D01*
X72587030Y-93001671D01*
X72578765Y-92978572D01*
X72572804Y-92954773D01*
X72569204Y-92930505D01*
X72568000Y-92906001D01*
X72568000Y-92005999D01*
X72569204Y-91981495D01*
X72572804Y-91957227D01*
X72578765Y-91933428D01*
X72587030Y-91910329D01*
X72597520Y-91888150D01*
X72610132Y-91867107D01*
X72624747Y-91847401D01*
X72641223Y-91829223D01*
X72659401Y-91812747D01*
X72679107Y-91798132D01*
X72700150Y-91785520D01*
X72722329Y-91775030D01*
X72745428Y-91766765D01*
X72769227Y-91760804D01*
X72793495Y-91757204D01*
X72817999Y-91756000D01*
X73468001Y-91756000D01*
X73492505Y-91757204D01*
X73492505Y-91757204D01*
G37*
D13*
G04 #@! TD*
G04 #@! TO.P,C1,1*
G04 #@! TO.N,/12V*
X73143000Y-92456000D03*
D12*
G04 #@! TO.N,GND*
G04 #@! TO.C,C1*
G36*
X75542505Y-91757204D02*
X75566773Y-91760804D01*
X75590572Y-91766765D01*
X75613671Y-91775030D01*
X75635850Y-91785520D01*
X75656893Y-91798132D01*
X75676599Y-91812747D01*
X75694777Y-91829223D01*
X75711253Y-91847401D01*
X75725868Y-91867107D01*
X75738480Y-91888150D01*
X75748970Y-91910329D01*
X75757235Y-91933428D01*
X75763196Y-91957227D01*
X75766796Y-91981495D01*
X75768000Y-92005999D01*
X75768000Y-92906001D01*
X75766796Y-92930505D01*
X75763196Y-92954773D01*
X75757235Y-92978572D01*
X75748970Y-93001671D01*
X75738480Y-93023850D01*
X75725868Y-93044893D01*
X75711253Y-93064599D01*
X75694777Y-93082777D01*
X75676599Y-93099253D01*
X75656893Y-93113868D01*
X75635850Y-93126480D01*
X75613671Y-93136970D01*
X75590572Y-93145235D01*
X75566773Y-93151196D01*
X75542505Y-93154796D01*
X75518001Y-93156000D01*
X74867999Y-93156000D01*
X74843495Y-93154796D01*
X74819227Y-93151196D01*
X74795428Y-93145235D01*
X74772329Y-93136970D01*
X74750150Y-93126480D01*
X74729107Y-93113868D01*
X74709401Y-93099253D01*
X74691223Y-93082777D01*
X74674747Y-93064599D01*
X74660132Y-93044893D01*
X74647520Y-93023850D01*
X74637030Y-93001671D01*
X74628765Y-92978572D01*
X74622804Y-92954773D01*
X74619204Y-92930505D01*
X74618000Y-92906001D01*
X74618000Y-92005999D01*
X74619204Y-91981495D01*
X74622804Y-91957227D01*
X74628765Y-91933428D01*
X74637030Y-91910329D01*
X74647520Y-91888150D01*
X74660132Y-91867107D01*
X74674747Y-91847401D01*
X74691223Y-91829223D01*
X74709401Y-91812747D01*
X74729107Y-91798132D01*
X74750150Y-91785520D01*
X74772329Y-91775030D01*
X74795428Y-91766765D01*
X74819227Y-91760804D01*
X74843495Y-91757204D01*
X74867999Y-91756000D01*
X75518001Y-91756000D01*
X75542505Y-91757204D01*
X75542505Y-91757204D01*
G37*
D13*
G04 #@! TD*
G04 #@! TO.P,C1,2*
G04 #@! TO.N,GND*
X75193000Y-92456000D03*
D12*
G04 #@! TO.N,GND*
G04 #@! TO.C,C2*
G36*
X73492505Y-86931204D02*
X73516773Y-86934804D01*
X73540572Y-86940765D01*
X73563671Y-86949030D01*
X73585850Y-86959520D01*
X73606893Y-86972132D01*
X73626599Y-86986747D01*
X73644777Y-87003223D01*
X73661253Y-87021401D01*
X73675868Y-87041107D01*
X73688480Y-87062150D01*
X73698970Y-87084329D01*
X73707235Y-87107428D01*
X73713196Y-87131227D01*
X73716796Y-87155495D01*
X73718000Y-87179999D01*
X73718000Y-88080001D01*
X73716796Y-88104505D01*
X73713196Y-88128773D01*
X73707235Y-88152572D01*
X73698970Y-88175671D01*
X73688480Y-88197850D01*
X73675868Y-88218893D01*
X73661253Y-88238599D01*
X73644777Y-88256777D01*
X73626599Y-88273253D01*
X73606893Y-88287868D01*
X73585850Y-88300480D01*
X73563671Y-88310970D01*
X73540572Y-88319235D01*
X73516773Y-88325196D01*
X73492505Y-88328796D01*
X73468001Y-88330000D01*
X72817999Y-88330000D01*
X72793495Y-88328796D01*
X72769227Y-88325196D01*
X72745428Y-88319235D01*
X72722329Y-88310970D01*
X72700150Y-88300480D01*
X72679107Y-88287868D01*
X72659401Y-88273253D01*
X72641223Y-88256777D01*
X72624747Y-88238599D01*
X72610132Y-88218893D01*
X72597520Y-88197850D01*
X72587030Y-88175671D01*
X72578765Y-88152572D01*
X72572804Y-88128773D01*
X72569204Y-88104505D01*
X72568000Y-88080001D01*
X72568000Y-87179999D01*
X72569204Y-87155495D01*
X72572804Y-87131227D01*
X72578765Y-87107428D01*
X72587030Y-87084329D01*
X72597520Y-87062150D01*
X72610132Y-87041107D01*
X72624747Y-87021401D01*
X72641223Y-87003223D01*
X72659401Y-86986747D01*
X72679107Y-86972132D01*
X72700150Y-86959520D01*
X72722329Y-86949030D01*
X72745428Y-86940765D01*
X72769227Y-86934804D01*
X72793495Y-86931204D01*
X72817999Y-86930000D01*
X73468001Y-86930000D01*
X73492505Y-86931204D01*
X73492505Y-86931204D01*
G37*
D13*
G04 #@! TD*
G04 #@! TO.P,C2,2*
G04 #@! TO.N,GND*
X73143000Y-87630000D03*
D12*
G04 #@! TO.N,/5V*
G04 #@! TO.C,C2*
G36*
X75542505Y-86931204D02*
X75566773Y-86934804D01*
X75590572Y-86940765D01*
X75613671Y-86949030D01*
X75635850Y-86959520D01*
X75656893Y-86972132D01*
X75676599Y-86986747D01*
X75694777Y-87003223D01*
X75711253Y-87021401D01*
X75725868Y-87041107D01*
X75738480Y-87062150D01*
X75748970Y-87084329D01*
X75757235Y-87107428D01*
X75763196Y-87131227D01*
X75766796Y-87155495D01*
X75768000Y-87179999D01*
X75768000Y-88080001D01*
X75766796Y-88104505D01*
X75763196Y-88128773D01*
X75757235Y-88152572D01*
X75748970Y-88175671D01*
X75738480Y-88197850D01*
X75725868Y-88218893D01*
X75711253Y-88238599D01*
X75694777Y-88256777D01*
X75676599Y-88273253D01*
X75656893Y-88287868D01*
X75635850Y-88300480D01*
X75613671Y-88310970D01*
X75590572Y-88319235D01*
X75566773Y-88325196D01*
X75542505Y-88328796D01*
X75518001Y-88330000D01*
X74867999Y-88330000D01*
X74843495Y-88328796D01*
X74819227Y-88325196D01*
X74795428Y-88319235D01*
X74772329Y-88310970D01*
X74750150Y-88300480D01*
X74729107Y-88287868D01*
X74709401Y-88273253D01*
X74691223Y-88256777D01*
X74674747Y-88238599D01*
X74660132Y-88218893D01*
X74647520Y-88197850D01*
X74637030Y-88175671D01*
X74628765Y-88152572D01*
X74622804Y-88128773D01*
X74619204Y-88104505D01*
X74618000Y-88080001D01*
X74618000Y-87179999D01*
X74619204Y-87155495D01*
X74622804Y-87131227D01*
X74628765Y-87107428D01*
X74637030Y-87084329D01*
X74647520Y-87062150D01*
X74660132Y-87041107D01*
X74674747Y-87021401D01*
X74691223Y-87003223D01*
X74709401Y-86986747D01*
X74729107Y-86972132D01*
X74750150Y-86959520D01*
X74772329Y-86949030D01*
X74795428Y-86940765D01*
X74819227Y-86934804D01*
X74843495Y-86931204D01*
X74867999Y-86930000D01*
X75518001Y-86930000D01*
X75542505Y-86931204D01*
X75542505Y-86931204D01*
G37*
D13*
G04 #@! TD*
G04 #@! TO.P,C2,1*
G04 #@! TO.N,/5V*
X75193000Y-87630000D03*
D12*
G04 #@! TO.N,GND*
G04 #@! TO.C,D_5VPP1*
G36*
X57744505Y-104711204D02*
X57768773Y-104714804D01*
X57792572Y-104720765D01*
X57815671Y-104729030D01*
X57837850Y-104739520D01*
X57858893Y-104752132D01*
X57878599Y-104766747D01*
X57896777Y-104783223D01*
X57913253Y-104801401D01*
X57927868Y-104821107D01*
X57940480Y-104842150D01*
X57950970Y-104864329D01*
X57959235Y-104887428D01*
X57965196Y-104911227D01*
X57968796Y-104935495D01*
X57970000Y-104959999D01*
X57970000Y-105860001D01*
X57968796Y-105884505D01*
X57965196Y-105908773D01*
X57959235Y-105932572D01*
X57950970Y-105955671D01*
X57940480Y-105977850D01*
X57927868Y-105998893D01*
X57913253Y-106018599D01*
X57896777Y-106036777D01*
X57878599Y-106053253D01*
X57858893Y-106067868D01*
X57837850Y-106080480D01*
X57815671Y-106090970D01*
X57792572Y-106099235D01*
X57768773Y-106105196D01*
X57744505Y-106108796D01*
X57720001Y-106110000D01*
X57069999Y-106110000D01*
X57045495Y-106108796D01*
X57021227Y-106105196D01*
X56997428Y-106099235D01*
X56974329Y-106090970D01*
X56952150Y-106080480D01*
X56931107Y-106067868D01*
X56911401Y-106053253D01*
X56893223Y-106036777D01*
X56876747Y-106018599D01*
X56862132Y-105998893D01*
X56849520Y-105977850D01*
X56839030Y-105955671D01*
X56830765Y-105932572D01*
X56824804Y-105908773D01*
X56821204Y-105884505D01*
X56820000Y-105860001D01*
X56820000Y-104959999D01*
X56821204Y-104935495D01*
X56824804Y-104911227D01*
X56830765Y-104887428D01*
X56839030Y-104864329D01*
X56849520Y-104842150D01*
X56862132Y-104821107D01*
X56876747Y-104801401D01*
X56893223Y-104783223D01*
X56911401Y-104766747D01*
X56931107Y-104752132D01*
X56952150Y-104739520D01*
X56974329Y-104729030D01*
X56997428Y-104720765D01*
X57021227Y-104714804D01*
X57045495Y-104711204D01*
X57069999Y-104710000D01*
X57720001Y-104710000D01*
X57744505Y-104711204D01*
X57744505Y-104711204D01*
G37*
D13*
G04 #@! TD*
G04 #@! TO.P,D_5VPP1,1*
G04 #@! TO.N,GND*
X57395000Y-105410000D03*
D12*
G04 #@! TO.N,Net-(D_5VPP1-Pad2)*
G04 #@! TO.C,D_5VPP1*
G36*
X59794505Y-104711204D02*
X59818773Y-104714804D01*
X59842572Y-104720765D01*
X59865671Y-104729030D01*
X59887850Y-104739520D01*
X59908893Y-104752132D01*
X59928599Y-104766747D01*
X59946777Y-104783223D01*
X59963253Y-104801401D01*
X59977868Y-104821107D01*
X59990480Y-104842150D01*
X60000970Y-104864329D01*
X60009235Y-104887428D01*
X60015196Y-104911227D01*
X60018796Y-104935495D01*
X60020000Y-104959999D01*
X60020000Y-105860001D01*
X60018796Y-105884505D01*
X60015196Y-105908773D01*
X60009235Y-105932572D01*
X60000970Y-105955671D01*
X59990480Y-105977850D01*
X59977868Y-105998893D01*
X59963253Y-106018599D01*
X59946777Y-106036777D01*
X59928599Y-106053253D01*
X59908893Y-106067868D01*
X59887850Y-106080480D01*
X59865671Y-106090970D01*
X59842572Y-106099235D01*
X59818773Y-106105196D01*
X59794505Y-106108796D01*
X59770001Y-106110000D01*
X59119999Y-106110000D01*
X59095495Y-106108796D01*
X59071227Y-106105196D01*
X59047428Y-106099235D01*
X59024329Y-106090970D01*
X59002150Y-106080480D01*
X58981107Y-106067868D01*
X58961401Y-106053253D01*
X58943223Y-106036777D01*
X58926747Y-106018599D01*
X58912132Y-105998893D01*
X58899520Y-105977850D01*
X58889030Y-105955671D01*
X58880765Y-105932572D01*
X58874804Y-105908773D01*
X58871204Y-105884505D01*
X58870000Y-105860001D01*
X58870000Y-104959999D01*
X58871204Y-104935495D01*
X58874804Y-104911227D01*
X58880765Y-104887428D01*
X58889030Y-104864329D01*
X58899520Y-104842150D01*
X58912132Y-104821107D01*
X58926747Y-104801401D01*
X58943223Y-104783223D01*
X58961401Y-104766747D01*
X58981107Y-104752132D01*
X59002150Y-104739520D01*
X59024329Y-104729030D01*
X59047428Y-104720765D01*
X59071227Y-104714804D01*
X59095495Y-104711204D01*
X59119999Y-104710000D01*
X59770001Y-104710000D01*
X59794505Y-104711204D01*
X59794505Y-104711204D01*
G37*
D13*
G04 #@! TD*
G04 #@! TO.P,D_5VPP1,2*
G04 #@! TO.N,Net-(D_5VPP1-Pad2)*
X59445000Y-105410000D03*
D12*
G04 #@! TO.N,GND*
G04 #@! TO.C,D_NEG1*
G36*
X57744505Y-109791204D02*
X57768773Y-109794804D01*
X57792572Y-109800765D01*
X57815671Y-109809030D01*
X57837850Y-109819520D01*
X57858893Y-109832132D01*
X57878599Y-109846747D01*
X57896777Y-109863223D01*
X57913253Y-109881401D01*
X57927868Y-109901107D01*
X57940480Y-109922150D01*
X57950970Y-109944329D01*
X57959235Y-109967428D01*
X57965196Y-109991227D01*
X57968796Y-110015495D01*
X57970000Y-110039999D01*
X57970000Y-110940001D01*
X57968796Y-110964505D01*
X57965196Y-110988773D01*
X57959235Y-111012572D01*
X57950970Y-111035671D01*
X57940480Y-111057850D01*
X57927868Y-111078893D01*
X57913253Y-111098599D01*
X57896777Y-111116777D01*
X57878599Y-111133253D01*
X57858893Y-111147868D01*
X57837850Y-111160480D01*
X57815671Y-111170970D01*
X57792572Y-111179235D01*
X57768773Y-111185196D01*
X57744505Y-111188796D01*
X57720001Y-111190000D01*
X57069999Y-111190000D01*
X57045495Y-111188796D01*
X57021227Y-111185196D01*
X56997428Y-111179235D01*
X56974329Y-111170970D01*
X56952150Y-111160480D01*
X56931107Y-111147868D01*
X56911401Y-111133253D01*
X56893223Y-111116777D01*
X56876747Y-111098599D01*
X56862132Y-111078893D01*
X56849520Y-111057850D01*
X56839030Y-111035671D01*
X56830765Y-111012572D01*
X56824804Y-110988773D01*
X56821204Y-110964505D01*
X56820000Y-110940001D01*
X56820000Y-110039999D01*
X56821204Y-110015495D01*
X56824804Y-109991227D01*
X56830765Y-109967428D01*
X56839030Y-109944329D01*
X56849520Y-109922150D01*
X56862132Y-109901107D01*
X56876747Y-109881401D01*
X56893223Y-109863223D01*
X56911401Y-109846747D01*
X56931107Y-109832132D01*
X56952150Y-109819520D01*
X56974329Y-109809030D01*
X56997428Y-109800765D01*
X57021227Y-109794804D01*
X57045495Y-109791204D01*
X57069999Y-109790000D01*
X57720001Y-109790000D01*
X57744505Y-109791204D01*
X57744505Y-109791204D01*
G37*
D13*
G04 #@! TD*
G04 #@! TO.P,D_NEG1,2*
G04 #@! TO.N,GND*
X57395000Y-110490000D03*
D12*
G04 #@! TO.N,Net-(D_NEG1-Pad1)*
G04 #@! TO.C,D_NEG1*
G36*
X59794505Y-109791204D02*
X59818773Y-109794804D01*
X59842572Y-109800765D01*
X59865671Y-109809030D01*
X59887850Y-109819520D01*
X59908893Y-109832132D01*
X59928599Y-109846747D01*
X59946777Y-109863223D01*
X59963253Y-109881401D01*
X59977868Y-109901107D01*
X59990480Y-109922150D01*
X60000970Y-109944329D01*
X60009235Y-109967428D01*
X60015196Y-109991227D01*
X60018796Y-110015495D01*
X60020000Y-110039999D01*
X60020000Y-110940001D01*
X60018796Y-110964505D01*
X60015196Y-110988773D01*
X60009235Y-111012572D01*
X60000970Y-111035671D01*
X59990480Y-111057850D01*
X59977868Y-111078893D01*
X59963253Y-111098599D01*
X59946777Y-111116777D01*
X59928599Y-111133253D01*
X59908893Y-111147868D01*
X59887850Y-111160480D01*
X59865671Y-111170970D01*
X59842572Y-111179235D01*
X59818773Y-111185196D01*
X59794505Y-111188796D01*
X59770001Y-111190000D01*
X59119999Y-111190000D01*
X59095495Y-111188796D01*
X59071227Y-111185196D01*
X59047428Y-111179235D01*
X59024329Y-111170970D01*
X59002150Y-111160480D01*
X58981107Y-111147868D01*
X58961401Y-111133253D01*
X58943223Y-111116777D01*
X58926747Y-111098599D01*
X58912132Y-111078893D01*
X58899520Y-111057850D01*
X58889030Y-111035671D01*
X58880765Y-111012572D01*
X58874804Y-110988773D01*
X58871204Y-110964505D01*
X58870000Y-110940001D01*
X58870000Y-110039999D01*
X58871204Y-110015495D01*
X58874804Y-109991227D01*
X58880765Y-109967428D01*
X58889030Y-109944329D01*
X58899520Y-109922150D01*
X58912132Y-109901107D01*
X58926747Y-109881401D01*
X58943223Y-109863223D01*
X58961401Y-109846747D01*
X58981107Y-109832132D01*
X59002150Y-109819520D01*
X59024329Y-109809030D01*
X59047428Y-109800765D01*
X59071227Y-109794804D01*
X59095495Y-109791204D01*
X59119999Y-109790000D01*
X59770001Y-109790000D01*
X59794505Y-109791204D01*
X59794505Y-109791204D01*
G37*
D13*
G04 #@! TD*
G04 #@! TO.P,D_NEG1,1*
G04 #@! TO.N,Net-(D_NEG1-Pad1)*
X59445000Y-110490000D03*
D12*
G04 #@! TO.N,GND*
G04 #@! TO.C,D_POS1*
G36*
X57744505Y-99631204D02*
X57768773Y-99634804D01*
X57792572Y-99640765D01*
X57815671Y-99649030D01*
X57837850Y-99659520D01*
X57858893Y-99672132D01*
X57878599Y-99686747D01*
X57896777Y-99703223D01*
X57913253Y-99721401D01*
X57927868Y-99741107D01*
X57940480Y-99762150D01*
X57950970Y-99784329D01*
X57959235Y-99807428D01*
X57965196Y-99831227D01*
X57968796Y-99855495D01*
X57970000Y-99879999D01*
X57970000Y-100780001D01*
X57968796Y-100804505D01*
X57965196Y-100828773D01*
X57959235Y-100852572D01*
X57950970Y-100875671D01*
X57940480Y-100897850D01*
X57927868Y-100918893D01*
X57913253Y-100938599D01*
X57896777Y-100956777D01*
X57878599Y-100973253D01*
X57858893Y-100987868D01*
X57837850Y-101000480D01*
X57815671Y-101010970D01*
X57792572Y-101019235D01*
X57768773Y-101025196D01*
X57744505Y-101028796D01*
X57720001Y-101030000D01*
X57069999Y-101030000D01*
X57045495Y-101028796D01*
X57021227Y-101025196D01*
X56997428Y-101019235D01*
X56974329Y-101010970D01*
X56952150Y-101000480D01*
X56931107Y-100987868D01*
X56911401Y-100973253D01*
X56893223Y-100956777D01*
X56876747Y-100938599D01*
X56862132Y-100918893D01*
X56849520Y-100897850D01*
X56839030Y-100875671D01*
X56830765Y-100852572D01*
X56824804Y-100828773D01*
X56821204Y-100804505D01*
X56820000Y-100780001D01*
X56820000Y-99879999D01*
X56821204Y-99855495D01*
X56824804Y-99831227D01*
X56830765Y-99807428D01*
X56839030Y-99784329D01*
X56849520Y-99762150D01*
X56862132Y-99741107D01*
X56876747Y-99721401D01*
X56893223Y-99703223D01*
X56911401Y-99686747D01*
X56931107Y-99672132D01*
X56952150Y-99659520D01*
X56974329Y-99649030D01*
X56997428Y-99640765D01*
X57021227Y-99634804D01*
X57045495Y-99631204D01*
X57069999Y-99630000D01*
X57720001Y-99630000D01*
X57744505Y-99631204D01*
X57744505Y-99631204D01*
G37*
D13*
G04 #@! TD*
G04 #@! TO.P,D_POS1,1*
G04 #@! TO.N,GND*
X57395000Y-100330000D03*
D12*
G04 #@! TO.N,Net-(D_POS1-Pad2)*
G04 #@! TO.C,D_POS1*
G36*
X59794505Y-99631204D02*
X59818773Y-99634804D01*
X59842572Y-99640765D01*
X59865671Y-99649030D01*
X59887850Y-99659520D01*
X59908893Y-99672132D01*
X59928599Y-99686747D01*
X59946777Y-99703223D01*
X59963253Y-99721401D01*
X59977868Y-99741107D01*
X59990480Y-99762150D01*
X60000970Y-99784329D01*
X60009235Y-99807428D01*
X60015196Y-99831227D01*
X60018796Y-99855495D01*
X60020000Y-99879999D01*
X60020000Y-100780001D01*
X60018796Y-100804505D01*
X60015196Y-100828773D01*
X60009235Y-100852572D01*
X60000970Y-100875671D01*
X59990480Y-100897850D01*
X59977868Y-100918893D01*
X59963253Y-100938599D01*
X59946777Y-100956777D01*
X59928599Y-100973253D01*
X59908893Y-100987868D01*
X59887850Y-101000480D01*
X59865671Y-101010970D01*
X59842572Y-101019235D01*
X59818773Y-101025196D01*
X59794505Y-101028796D01*
X59770001Y-101030000D01*
X59119999Y-101030000D01*
X59095495Y-101028796D01*
X59071227Y-101025196D01*
X59047428Y-101019235D01*
X59024329Y-101010970D01*
X59002150Y-101000480D01*
X58981107Y-100987868D01*
X58961401Y-100973253D01*
X58943223Y-100956777D01*
X58926747Y-100938599D01*
X58912132Y-100918893D01*
X58899520Y-100897850D01*
X58889030Y-100875671D01*
X58880765Y-100852572D01*
X58874804Y-100828773D01*
X58871204Y-100804505D01*
X58870000Y-100780001D01*
X58870000Y-99879999D01*
X58871204Y-99855495D01*
X58874804Y-99831227D01*
X58880765Y-99807428D01*
X58889030Y-99784329D01*
X58899520Y-99762150D01*
X58912132Y-99741107D01*
X58926747Y-99721401D01*
X58943223Y-99703223D01*
X58961401Y-99686747D01*
X58981107Y-99672132D01*
X59002150Y-99659520D01*
X59024329Y-99649030D01*
X59047428Y-99640765D01*
X59071227Y-99634804D01*
X59095495Y-99631204D01*
X59119999Y-99630000D01*
X59770001Y-99630000D01*
X59794505Y-99631204D01*
X59794505Y-99631204D01*
G37*
D13*
G04 #@! TD*
G04 #@! TO.P,D_POS1,2*
G04 #@! TO.N,Net-(D_POS1-Pad2)*
X59445000Y-100330000D03*
D14*
G04 #@! TO.P,J_IN1,1*
G04 #@! TO.N,/12V*
X68580000Y-100330000D03*
D15*
G04 #@! TO.P,J_IN1,2*
X71120000Y-100330000D03*
G04 #@! TO.P,J_IN1,3*
G04 #@! TO.N,GND*
X68580000Y-102870000D03*
G04 #@! TO.P,J_IN1,4*
X71120000Y-102870000D03*
G04 #@! TO.P,J_IN1,5*
X68580000Y-105410000D03*
G04 #@! TO.P,J_IN1,6*
X71120000Y-105410000D03*
G04 #@! TO.P,J_IN1,7*
X68580000Y-107950000D03*
G04 #@! TO.P,J_IN1,8*
X71120000Y-107950000D03*
G04 #@! TO.P,J_IN1,9*
G04 #@! TO.N,/-12V*
X68580000Y-110490000D03*
G04 #@! TO.P,J_IN1,10*
X71120000Y-110490000D03*
G04 #@! TD*
D14*
G04 #@! TO.P,J_OUT1,1*
G04 #@! TO.N,/GATE*
X83820000Y-92710000D03*
D15*
G04 #@! TO.P,J_OUT1,2*
X86360000Y-92710000D03*
G04 #@! TO.P,J_OUT1,3*
G04 #@! TO.N,/CV*
X83820000Y-95250000D03*
G04 #@! TO.P,J_OUT1,4*
X86360000Y-95250000D03*
G04 #@! TO.P,J_OUT1,5*
G04 #@! TO.N,/5V*
X83820000Y-97790000D03*
G04 #@! TO.P,J_OUT1,6*
X86360000Y-97790000D03*
G04 #@! TO.P,J_OUT1,7*
G04 #@! TO.N,/12V*
X83820000Y-100330000D03*
G04 #@! TO.P,J_OUT1,8*
X86360000Y-100330000D03*
G04 #@! TO.P,J_OUT1,9*
G04 #@! TO.N,GND*
X83820000Y-102870000D03*
G04 #@! TO.P,J_OUT1,10*
X86360000Y-102870000D03*
G04 #@! TO.P,J_OUT1,11*
X83820000Y-105410000D03*
G04 #@! TO.P,J_OUT1,12*
X86360000Y-105410000D03*
G04 #@! TO.P,J_OUT1,13*
X83820000Y-107950000D03*
G04 #@! TO.P,J_OUT1,14*
X86360000Y-107950000D03*
G04 #@! TO.P,J_OUT1,15*
G04 #@! TO.N,/-12V*
X83820000Y-110490000D03*
G04 #@! TO.P,J_OUT1,16*
X86360000Y-110490000D03*
G04 #@! TD*
G04 #@! TO.P,J_OUT2,16*
G04 #@! TO.N,/-12V*
X101600000Y-110490000D03*
G04 #@! TO.P,J_OUT2,15*
X99060000Y-110490000D03*
G04 #@! TO.P,J_OUT2,14*
G04 #@! TO.N,GND*
X101600000Y-107950000D03*
G04 #@! TO.P,J_OUT2,13*
X99060000Y-107950000D03*
G04 #@! TO.P,J_OUT2,12*
X101600000Y-105410000D03*
G04 #@! TO.P,J_OUT2,11*
X99060000Y-105410000D03*
G04 #@! TO.P,J_OUT2,10*
X101600000Y-102870000D03*
G04 #@! TO.P,J_OUT2,9*
X99060000Y-102870000D03*
G04 #@! TO.P,J_OUT2,8*
G04 #@! TO.N,/12V*
X101600000Y-100330000D03*
G04 #@! TO.P,J_OUT2,7*
X99060000Y-100330000D03*
G04 #@! TO.P,J_OUT2,6*
G04 #@! TO.N,/5V*
X101600000Y-97790000D03*
G04 #@! TO.P,J_OUT2,5*
X99060000Y-97790000D03*
G04 #@! TO.P,J_OUT2,4*
G04 #@! TO.N,/CV*
X101600000Y-95250000D03*
G04 #@! TO.P,J_OUT2,3*
X99060000Y-95250000D03*
G04 #@! TO.P,J_OUT2,2*
G04 #@! TO.N,/GATE*
X101600000Y-92710000D03*
D14*
G04 #@! TO.P,J_OUT2,1*
X99060000Y-92710000D03*
G04 #@! TD*
G04 #@! TO.P,J_OUT3,1*
G04 #@! TO.N,/GATE*
X114300000Y-92710000D03*
D15*
G04 #@! TO.P,J_OUT3,2*
X116840000Y-92710000D03*
G04 #@! TO.P,J_OUT3,3*
G04 #@! TO.N,/CV*
X114300000Y-95250000D03*
G04 #@! TO.P,J_OUT3,4*
X116840000Y-95250000D03*
G04 #@! TO.P,J_OUT3,5*
G04 #@! TO.N,/5V*
X114300000Y-97790000D03*
G04 #@! TO.P,J_OUT3,6*
X116840000Y-97790000D03*
G04 #@! TO.P,J_OUT3,7*
G04 #@! TO.N,/12V*
X114300000Y-100330000D03*
G04 #@! TO.P,J_OUT3,8*
X116840000Y-100330000D03*
G04 #@! TO.P,J_OUT3,9*
G04 #@! TO.N,GND*
X114300000Y-102870000D03*
G04 #@! TO.P,J_OUT3,10*
X116840000Y-102870000D03*
G04 #@! TO.P,J_OUT3,11*
X114300000Y-105410000D03*
G04 #@! TO.P,J_OUT3,12*
X116840000Y-105410000D03*
G04 #@! TO.P,J_OUT3,13*
X114300000Y-107950000D03*
G04 #@! TO.P,J_OUT3,14*
X116840000Y-107950000D03*
G04 #@! TO.P,J_OUT3,15*
G04 #@! TO.N,/-12V*
X114300000Y-110490000D03*
G04 #@! TO.P,J_OUT3,16*
X116840000Y-110490000D03*
G04 #@! TD*
G04 #@! TO.P,J_OUT4,16*
G04 #@! TO.N,/-12V*
X132080000Y-110490000D03*
G04 #@! TO.P,J_OUT4,15*
X129540000Y-110490000D03*
G04 #@! TO.P,J_OUT4,14*
G04 #@! TO.N,GND*
X132080000Y-107950000D03*
G04 #@! TO.P,J_OUT4,13*
X129540000Y-107950000D03*
G04 #@! TO.P,J_OUT4,12*
X132080000Y-105410000D03*
G04 #@! TO.P,J_OUT4,11*
X129540000Y-105410000D03*
G04 #@! TO.P,J_OUT4,10*
X132080000Y-102870000D03*
G04 #@! TO.P,J_OUT4,9*
X129540000Y-102870000D03*
G04 #@! TO.P,J_OUT4,8*
G04 #@! TO.N,/12V*
X132080000Y-100330000D03*
G04 #@! TO.P,J_OUT4,7*
X129540000Y-100330000D03*
G04 #@! TO.P,J_OUT4,6*
G04 #@! TO.N,/5V*
X132080000Y-97790000D03*
G04 #@! TO.P,J_OUT4,5*
X129540000Y-97790000D03*
G04 #@! TO.P,J_OUT4,4*
G04 #@! TO.N,/CV*
X132080000Y-95250000D03*
G04 #@! TO.P,J_OUT4,3*
X129540000Y-95250000D03*
G04 #@! TO.P,J_OUT4,2*
G04 #@! TO.N,/GATE*
X132080000Y-92710000D03*
D14*
G04 #@! TO.P,J_OUT4,1*
X129540000Y-92710000D03*
G04 #@! TD*
G04 #@! TO.P,J_OUT5,1*
G04 #@! TO.N,/GATE*
X144780000Y-92710000D03*
D15*
G04 #@! TO.P,J_OUT5,2*
X147320000Y-92710000D03*
G04 #@! TO.P,J_OUT5,3*
G04 #@! TO.N,/CV*
X144780000Y-95250000D03*
G04 #@! TO.P,J_OUT5,4*
X147320000Y-95250000D03*
G04 #@! TO.P,J_OUT5,5*
G04 #@! TO.N,/5V*
X144780000Y-97790000D03*
G04 #@! TO.P,J_OUT5,6*
X147320000Y-97790000D03*
G04 #@! TO.P,J_OUT5,7*
G04 #@! TO.N,/12V*
X144780000Y-100330000D03*
G04 #@! TO.P,J_OUT5,8*
X147320000Y-100330000D03*
G04 #@! TO.P,J_OUT5,9*
G04 #@! TO.N,GND*
X144780000Y-102870000D03*
G04 #@! TO.P,J_OUT5,10*
X147320000Y-102870000D03*
G04 #@! TO.P,J_OUT5,11*
X144780000Y-105410000D03*
G04 #@! TO.P,J_OUT5,12*
X147320000Y-105410000D03*
G04 #@! TO.P,J_OUT5,13*
X144780000Y-107950000D03*
G04 #@! TO.P,J_OUT5,14*
X147320000Y-107950000D03*
G04 #@! TO.P,J_OUT5,15*
G04 #@! TO.N,/-12V*
X144780000Y-110490000D03*
G04 #@! TO.P,J_OUT5,16*
X147320000Y-110490000D03*
G04 #@! TD*
G04 #@! TO.P,J_OUT6,16*
G04 #@! TO.N,/-12V*
X162560000Y-110490000D03*
G04 #@! TO.P,J_OUT6,15*
X160020000Y-110490000D03*
G04 #@! TO.P,J_OUT6,14*
G04 #@! TO.N,GND*
X162560000Y-107950000D03*
G04 #@! TO.P,J_OUT6,13*
X160020000Y-107950000D03*
G04 #@! TO.P,J_OUT6,12*
X162560000Y-105410000D03*
G04 #@! TO.P,J_OUT6,11*
X160020000Y-105410000D03*
G04 #@! TO.P,J_OUT6,10*
X162560000Y-102870000D03*
G04 #@! TO.P,J_OUT6,9*
X160020000Y-102870000D03*
G04 #@! TO.P,J_OUT6,8*
G04 #@! TO.N,/12V*
X162560000Y-100330000D03*
G04 #@! TO.P,J_OUT6,7*
X160020000Y-100330000D03*
G04 #@! TO.P,J_OUT6,6*
G04 #@! TO.N,/5V*
X162560000Y-97790000D03*
G04 #@! TO.P,J_OUT6,5*
X160020000Y-97790000D03*
G04 #@! TO.P,J_OUT6,4*
G04 #@! TO.N,/CV*
X162560000Y-95250000D03*
G04 #@! TO.P,J_OUT6,3*
X160020000Y-95250000D03*
G04 #@! TO.P,J_OUT6,2*
G04 #@! TO.N,/GATE*
X162560000Y-92710000D03*
D14*
G04 #@! TO.P,J_OUT6,1*
X160020000Y-92710000D03*
G04 #@! TD*
G04 #@! TO.P,J_OUT7,1*
G04 #@! TO.N,/GATE*
X175260000Y-92710000D03*
D15*
G04 #@! TO.P,J_OUT7,2*
X177800000Y-92710000D03*
G04 #@! TO.P,J_OUT7,3*
G04 #@! TO.N,/CV*
X175260000Y-95250000D03*
G04 #@! TO.P,J_OUT7,4*
X177800000Y-95250000D03*
G04 #@! TO.P,J_OUT7,5*
G04 #@! TO.N,/5V*
X175260000Y-97790000D03*
G04 #@! TO.P,J_OUT7,6*
X177800000Y-97790000D03*
G04 #@! TO.P,J_OUT7,7*
G04 #@! TO.N,/12V*
X175260000Y-100330000D03*
G04 #@! TO.P,J_OUT7,8*
X177800000Y-100330000D03*
G04 #@! TO.P,J_OUT7,9*
G04 #@! TO.N,GND*
X175260000Y-102870000D03*
G04 #@! TO.P,J_OUT7,10*
X177800000Y-102870000D03*
G04 #@! TO.P,J_OUT7,11*
X175260000Y-105410000D03*
G04 #@! TO.P,J_OUT7,12*
X177800000Y-105410000D03*
G04 #@! TO.P,J_OUT7,13*
X175260000Y-107950000D03*
G04 #@! TO.P,J_OUT7,14*
X177800000Y-107950000D03*
G04 #@! TO.P,J_OUT7,15*
G04 #@! TO.N,/-12V*
X175260000Y-110490000D03*
G04 #@! TO.P,J_OUT7,16*
X177800000Y-110490000D03*
G04 #@! TD*
G04 #@! TO.P,J_OUT8,16*
G04 #@! TO.N,/-12V*
X193040000Y-110490000D03*
G04 #@! TO.P,J_OUT8,15*
X190500000Y-110490000D03*
G04 #@! TO.P,J_OUT8,14*
G04 #@! TO.N,GND*
X193040000Y-107950000D03*
G04 #@! TO.P,J_OUT8,13*
X190500000Y-107950000D03*
G04 #@! TO.P,J_OUT8,12*
X193040000Y-105410000D03*
G04 #@! TO.P,J_OUT8,11*
X190500000Y-105410000D03*
G04 #@! TO.P,J_OUT8,10*
X193040000Y-102870000D03*
G04 #@! TO.P,J_OUT8,9*
X190500000Y-102870000D03*
G04 #@! TO.P,J_OUT8,8*
G04 #@! TO.N,/12V*
X193040000Y-100330000D03*
G04 #@! TO.P,J_OUT8,7*
X190500000Y-100330000D03*
G04 #@! TO.P,J_OUT8,6*
G04 #@! TO.N,/5V*
X193040000Y-97790000D03*
G04 #@! TO.P,J_OUT8,5*
X190500000Y-97790000D03*
G04 #@! TO.P,J_OUT8,4*
G04 #@! TO.N,/CV*
X193040000Y-95250000D03*
G04 #@! TO.P,J_OUT8,3*
X190500000Y-95250000D03*
G04 #@! TO.P,J_OUT8,2*
G04 #@! TO.N,/GATE*
X193040000Y-92710000D03*
D14*
G04 #@! TO.P,J_OUT8,1*
X190500000Y-92710000D03*
G04 #@! TD*
D12*
G04 #@! TO.N,Net-(D_5VPP1-Pad2)*
G04 #@! TO.C,R_5VPP1*
G36*
X62824505Y-104711204D02*
X62848773Y-104714804D01*
X62872572Y-104720765D01*
X62895671Y-104729030D01*
X62917850Y-104739520D01*
X62938893Y-104752132D01*
X62958599Y-104766747D01*
X62976777Y-104783223D01*
X62993253Y-104801401D01*
X63007868Y-104821107D01*
X63020480Y-104842150D01*
X63030970Y-104864329D01*
X63039235Y-104887428D01*
X63045196Y-104911227D01*
X63048796Y-104935495D01*
X63050000Y-104959999D01*
X63050000Y-105860001D01*
X63048796Y-105884505D01*
X63045196Y-105908773D01*
X63039235Y-105932572D01*
X63030970Y-105955671D01*
X63020480Y-105977850D01*
X63007868Y-105998893D01*
X62993253Y-106018599D01*
X62976777Y-106036777D01*
X62958599Y-106053253D01*
X62938893Y-106067868D01*
X62917850Y-106080480D01*
X62895671Y-106090970D01*
X62872572Y-106099235D01*
X62848773Y-106105196D01*
X62824505Y-106108796D01*
X62800001Y-106110000D01*
X62149999Y-106110000D01*
X62125495Y-106108796D01*
X62101227Y-106105196D01*
X62077428Y-106099235D01*
X62054329Y-106090970D01*
X62032150Y-106080480D01*
X62011107Y-106067868D01*
X61991401Y-106053253D01*
X61973223Y-106036777D01*
X61956747Y-106018599D01*
X61942132Y-105998893D01*
X61929520Y-105977850D01*
X61919030Y-105955671D01*
X61910765Y-105932572D01*
X61904804Y-105908773D01*
X61901204Y-105884505D01*
X61900000Y-105860001D01*
X61900000Y-104959999D01*
X61901204Y-104935495D01*
X61904804Y-104911227D01*
X61910765Y-104887428D01*
X61919030Y-104864329D01*
X61929520Y-104842150D01*
X61942132Y-104821107D01*
X61956747Y-104801401D01*
X61973223Y-104783223D01*
X61991401Y-104766747D01*
X62011107Y-104752132D01*
X62032150Y-104739520D01*
X62054329Y-104729030D01*
X62077428Y-104720765D01*
X62101227Y-104714804D01*
X62125495Y-104711204D01*
X62149999Y-104710000D01*
X62800001Y-104710000D01*
X62824505Y-104711204D01*
X62824505Y-104711204D01*
G37*
D13*
G04 #@! TD*
G04 #@! TO.P,R_5VPP1,1*
G04 #@! TO.N,Net-(D_5VPP1-Pad2)*
X62475000Y-105410000D03*
D12*
G04 #@! TO.N,/5V*
G04 #@! TO.C,R_5VPP1*
G36*
X64874505Y-104711204D02*
X64898773Y-104714804D01*
X64922572Y-104720765D01*
X64945671Y-104729030D01*
X64967850Y-104739520D01*
X64988893Y-104752132D01*
X65008599Y-104766747D01*
X65026777Y-104783223D01*
X65043253Y-104801401D01*
X65057868Y-104821107D01*
X65070480Y-104842150D01*
X65080970Y-104864329D01*
X65089235Y-104887428D01*
X65095196Y-104911227D01*
X65098796Y-104935495D01*
X65100000Y-104959999D01*
X65100000Y-105860001D01*
X65098796Y-105884505D01*
X65095196Y-105908773D01*
X65089235Y-105932572D01*
X65080970Y-105955671D01*
X65070480Y-105977850D01*
X65057868Y-105998893D01*
X65043253Y-106018599D01*
X65026777Y-106036777D01*
X65008599Y-106053253D01*
X64988893Y-106067868D01*
X64967850Y-106080480D01*
X64945671Y-106090970D01*
X64922572Y-106099235D01*
X64898773Y-106105196D01*
X64874505Y-106108796D01*
X64850001Y-106110000D01*
X64199999Y-106110000D01*
X64175495Y-106108796D01*
X64151227Y-106105196D01*
X64127428Y-106099235D01*
X64104329Y-106090970D01*
X64082150Y-106080480D01*
X64061107Y-106067868D01*
X64041401Y-106053253D01*
X64023223Y-106036777D01*
X64006747Y-106018599D01*
X63992132Y-105998893D01*
X63979520Y-105977850D01*
X63969030Y-105955671D01*
X63960765Y-105932572D01*
X63954804Y-105908773D01*
X63951204Y-105884505D01*
X63950000Y-105860001D01*
X63950000Y-104959999D01*
X63951204Y-104935495D01*
X63954804Y-104911227D01*
X63960765Y-104887428D01*
X63969030Y-104864329D01*
X63979520Y-104842150D01*
X63992132Y-104821107D01*
X64006747Y-104801401D01*
X64023223Y-104783223D01*
X64041401Y-104766747D01*
X64061107Y-104752132D01*
X64082150Y-104739520D01*
X64104329Y-104729030D01*
X64127428Y-104720765D01*
X64151227Y-104714804D01*
X64175495Y-104711204D01*
X64199999Y-104710000D01*
X64850001Y-104710000D01*
X64874505Y-104711204D01*
X64874505Y-104711204D01*
G37*
D13*
G04 #@! TD*
G04 #@! TO.P,R_5VPP1,2*
G04 #@! TO.N,/5V*
X64525000Y-105410000D03*
D12*
G04 #@! TO.N,Net-(D_NEG1-Pad1)*
G04 #@! TO.C,R_NEG1*
G36*
X62824505Y-109791204D02*
X62848773Y-109794804D01*
X62872572Y-109800765D01*
X62895671Y-109809030D01*
X62917850Y-109819520D01*
X62938893Y-109832132D01*
X62958599Y-109846747D01*
X62976777Y-109863223D01*
X62993253Y-109881401D01*
X63007868Y-109901107D01*
X63020480Y-109922150D01*
X63030970Y-109944329D01*
X63039235Y-109967428D01*
X63045196Y-109991227D01*
X63048796Y-110015495D01*
X63050000Y-110039999D01*
X63050000Y-110940001D01*
X63048796Y-110964505D01*
X63045196Y-110988773D01*
X63039235Y-111012572D01*
X63030970Y-111035671D01*
X63020480Y-111057850D01*
X63007868Y-111078893D01*
X62993253Y-111098599D01*
X62976777Y-111116777D01*
X62958599Y-111133253D01*
X62938893Y-111147868D01*
X62917850Y-111160480D01*
X62895671Y-111170970D01*
X62872572Y-111179235D01*
X62848773Y-111185196D01*
X62824505Y-111188796D01*
X62800001Y-111190000D01*
X62149999Y-111190000D01*
X62125495Y-111188796D01*
X62101227Y-111185196D01*
X62077428Y-111179235D01*
X62054329Y-111170970D01*
X62032150Y-111160480D01*
X62011107Y-111147868D01*
X61991401Y-111133253D01*
X61973223Y-111116777D01*
X61956747Y-111098599D01*
X61942132Y-111078893D01*
X61929520Y-111057850D01*
X61919030Y-111035671D01*
X61910765Y-111012572D01*
X61904804Y-110988773D01*
X61901204Y-110964505D01*
X61900000Y-110940001D01*
X61900000Y-110039999D01*
X61901204Y-110015495D01*
X61904804Y-109991227D01*
X61910765Y-109967428D01*
X61919030Y-109944329D01*
X61929520Y-109922150D01*
X61942132Y-109901107D01*
X61956747Y-109881401D01*
X61973223Y-109863223D01*
X61991401Y-109846747D01*
X62011107Y-109832132D01*
X62032150Y-109819520D01*
X62054329Y-109809030D01*
X62077428Y-109800765D01*
X62101227Y-109794804D01*
X62125495Y-109791204D01*
X62149999Y-109790000D01*
X62800001Y-109790000D01*
X62824505Y-109791204D01*
X62824505Y-109791204D01*
G37*
D13*
G04 #@! TD*
G04 #@! TO.P,R_NEG1,1*
G04 #@! TO.N,Net-(D_NEG1-Pad1)*
X62475000Y-110490000D03*
D12*
G04 #@! TO.N,/-12V*
G04 #@! TO.C,R_NEG1*
G36*
X64874505Y-109791204D02*
X64898773Y-109794804D01*
X64922572Y-109800765D01*
X64945671Y-109809030D01*
X64967850Y-109819520D01*
X64988893Y-109832132D01*
X65008599Y-109846747D01*
X65026777Y-109863223D01*
X65043253Y-109881401D01*
X65057868Y-109901107D01*
X65070480Y-109922150D01*
X65080970Y-109944329D01*
X65089235Y-109967428D01*
X65095196Y-109991227D01*
X65098796Y-110015495D01*
X65100000Y-110039999D01*
X65100000Y-110940001D01*
X65098796Y-110964505D01*
X65095196Y-110988773D01*
X65089235Y-111012572D01*
X65080970Y-111035671D01*
X65070480Y-111057850D01*
X65057868Y-111078893D01*
X65043253Y-111098599D01*
X65026777Y-111116777D01*
X65008599Y-111133253D01*
X64988893Y-111147868D01*
X64967850Y-111160480D01*
X64945671Y-111170970D01*
X64922572Y-111179235D01*
X64898773Y-111185196D01*
X64874505Y-111188796D01*
X64850001Y-111190000D01*
X64199999Y-111190000D01*
X64175495Y-111188796D01*
X64151227Y-111185196D01*
X64127428Y-111179235D01*
X64104329Y-111170970D01*
X64082150Y-111160480D01*
X64061107Y-111147868D01*
X64041401Y-111133253D01*
X64023223Y-111116777D01*
X64006747Y-111098599D01*
X63992132Y-111078893D01*
X63979520Y-111057850D01*
X63969030Y-111035671D01*
X63960765Y-111012572D01*
X63954804Y-110988773D01*
X63951204Y-110964505D01*
X63950000Y-110940001D01*
X63950000Y-110039999D01*
X63951204Y-110015495D01*
X63954804Y-109991227D01*
X63960765Y-109967428D01*
X63969030Y-109944329D01*
X63979520Y-109922150D01*
X63992132Y-109901107D01*
X64006747Y-109881401D01*
X64023223Y-109863223D01*
X64041401Y-109846747D01*
X64061107Y-109832132D01*
X64082150Y-109819520D01*
X64104329Y-109809030D01*
X64127428Y-109800765D01*
X64151227Y-109794804D01*
X64175495Y-109791204D01*
X64199999Y-109790000D01*
X64850001Y-109790000D01*
X64874505Y-109791204D01*
X64874505Y-109791204D01*
G37*
D13*
G04 #@! TD*
G04 #@! TO.P,R_NEG1,2*
G04 #@! TO.N,/-12V*
X64525000Y-110490000D03*
D12*
G04 #@! TO.N,Net-(D_POS1-Pad2)*
G04 #@! TO.C,R_POS1*
G36*
X62824505Y-99631204D02*
X62848773Y-99634804D01*
X62872572Y-99640765D01*
X62895671Y-99649030D01*
X62917850Y-99659520D01*
X62938893Y-99672132D01*
X62958599Y-99686747D01*
X62976777Y-99703223D01*
X62993253Y-99721401D01*
X63007868Y-99741107D01*
X63020480Y-99762150D01*
X63030970Y-99784329D01*
X63039235Y-99807428D01*
X63045196Y-99831227D01*
X63048796Y-99855495D01*
X63050000Y-99879999D01*
X63050000Y-100780001D01*
X63048796Y-100804505D01*
X63045196Y-100828773D01*
X63039235Y-100852572D01*
X63030970Y-100875671D01*
X63020480Y-100897850D01*
X63007868Y-100918893D01*
X62993253Y-100938599D01*
X62976777Y-100956777D01*
X62958599Y-100973253D01*
X62938893Y-100987868D01*
X62917850Y-101000480D01*
X62895671Y-101010970D01*
X62872572Y-101019235D01*
X62848773Y-101025196D01*
X62824505Y-101028796D01*
X62800001Y-101030000D01*
X62149999Y-101030000D01*
X62125495Y-101028796D01*
X62101227Y-101025196D01*
X62077428Y-101019235D01*
X62054329Y-101010970D01*
X62032150Y-101000480D01*
X62011107Y-100987868D01*
X61991401Y-100973253D01*
X61973223Y-100956777D01*
X61956747Y-100938599D01*
X61942132Y-100918893D01*
X61929520Y-100897850D01*
X61919030Y-100875671D01*
X61910765Y-100852572D01*
X61904804Y-100828773D01*
X61901204Y-100804505D01*
X61900000Y-100780001D01*
X61900000Y-99879999D01*
X61901204Y-99855495D01*
X61904804Y-99831227D01*
X61910765Y-99807428D01*
X61919030Y-99784329D01*
X61929520Y-99762150D01*
X61942132Y-99741107D01*
X61956747Y-99721401D01*
X61973223Y-99703223D01*
X61991401Y-99686747D01*
X62011107Y-99672132D01*
X62032150Y-99659520D01*
X62054329Y-99649030D01*
X62077428Y-99640765D01*
X62101227Y-99634804D01*
X62125495Y-99631204D01*
X62149999Y-99630000D01*
X62800001Y-99630000D01*
X62824505Y-99631204D01*
X62824505Y-99631204D01*
G37*
D13*
G04 #@! TD*
G04 #@! TO.P,R_POS1,2*
G04 #@! TO.N,Net-(D_POS1-Pad2)*
X62475000Y-100330000D03*
D12*
G04 #@! TO.N,/12V*
G04 #@! TO.C,R_POS1*
G36*
X64874505Y-99631204D02*
X64898773Y-99634804D01*
X64922572Y-99640765D01*
X64945671Y-99649030D01*
X64967850Y-99659520D01*
X64988893Y-99672132D01*
X65008599Y-99686747D01*
X65026777Y-99703223D01*
X65043253Y-99721401D01*
X65057868Y-99741107D01*
X65070480Y-99762150D01*
X65080970Y-99784329D01*
X65089235Y-99807428D01*
X65095196Y-99831227D01*
X65098796Y-99855495D01*
X65100000Y-99879999D01*
X65100000Y-100780001D01*
X65098796Y-100804505D01*
X65095196Y-100828773D01*
X65089235Y-100852572D01*
X65080970Y-100875671D01*
X65070480Y-100897850D01*
X65057868Y-100918893D01*
X65043253Y-100938599D01*
X65026777Y-100956777D01*
X65008599Y-100973253D01*
X64988893Y-100987868D01*
X64967850Y-101000480D01*
X64945671Y-101010970D01*
X64922572Y-101019235D01*
X64898773Y-101025196D01*
X64874505Y-101028796D01*
X64850001Y-101030000D01*
X64199999Y-101030000D01*
X64175495Y-101028796D01*
X64151227Y-101025196D01*
X64127428Y-101019235D01*
X64104329Y-101010970D01*
X64082150Y-101000480D01*
X64061107Y-100987868D01*
X64041401Y-100973253D01*
X64023223Y-100956777D01*
X64006747Y-100938599D01*
X63992132Y-100918893D01*
X63979520Y-100897850D01*
X63969030Y-100875671D01*
X63960765Y-100852572D01*
X63954804Y-100828773D01*
X63951204Y-100804505D01*
X63950000Y-100780001D01*
X63950000Y-99879999D01*
X63951204Y-99855495D01*
X63954804Y-99831227D01*
X63960765Y-99807428D01*
X63969030Y-99784329D01*
X63979520Y-99762150D01*
X63992132Y-99741107D01*
X64006747Y-99721401D01*
X64023223Y-99703223D01*
X64041401Y-99686747D01*
X64061107Y-99672132D01*
X64082150Y-99659520D01*
X64104329Y-99649030D01*
X64127428Y-99640765D01*
X64151227Y-99634804D01*
X64175495Y-99631204D01*
X64199999Y-99630000D01*
X64850001Y-99630000D01*
X64874505Y-99631204D01*
X64874505Y-99631204D01*
G37*
D13*
G04 #@! TD*
G04 #@! TO.P,R_POS1,1*
G04 #@! TO.N,/12V*
X64525000Y-100330000D03*
D16*
G04 #@! TO.N,GND*
X74295000Y-90170000D03*
X70035000Y-90170000D03*
X50800000Y-96901000D03*
X50800000Y-83883500D03*
X52350000Y-83883500D03*
X53900000Y-83883500D03*
X55450000Y-83883500D03*
X57000000Y-83883500D03*
X58550000Y-83883500D03*
X60100000Y-83883500D03*
X61650000Y-83883500D03*
X63200000Y-83883500D03*
X52350000Y-96901000D03*
X53900000Y-96901000D03*
X55450000Y-96901000D03*
X57000000Y-96901000D03*
X58550000Y-96901000D03*
X60100000Y-96901000D03*
X61650000Y-96901000D03*
X63200000Y-96901000D03*
X50800000Y-85333500D03*
X50800000Y-86783500D03*
X50800000Y-88233500D03*
X50800000Y-89683500D03*
X50800000Y-91133500D03*
X50800000Y-92583500D03*
X50800000Y-94033500D03*
X50800000Y-95483500D03*
X57404000Y-111760000D03*
X57395000Y-101591000D03*
X57404000Y-106680000D03*
X52350000Y-85333500D03*
X52350000Y-86783500D03*
X52350000Y-88233500D03*
X52350000Y-89683500D03*
X52350000Y-91133500D03*
X52350000Y-92583500D03*
X52350000Y-94033500D03*
X52350000Y-95483500D03*
X53900000Y-95483500D03*
X55450000Y-95483500D03*
X57000000Y-95483500D03*
X58550000Y-95483500D03*
X60100000Y-95483500D03*
X61650000Y-95483500D03*
X63200000Y-95483500D03*
G04 #@! TD*
D17*
G04 #@! TO.N,GND*
X73143000Y-87630000D02*
X73143000Y-89018000D01*
X73143000Y-89018000D02*
X74295000Y-90170000D01*
X75193000Y-91068000D02*
X74295000Y-90170000D01*
X75193000Y-92710000D02*
X75193000Y-91068000D01*
X66735000Y-90170000D02*
X70035000Y-90170000D01*
X66735000Y-90170000D02*
X57585000Y-90170000D01*
X57404000Y-110499000D02*
X57404000Y-111760000D01*
X57395000Y-100330000D02*
X57395000Y-101591000D01*
X57404000Y-105165000D02*
X57404000Y-106680000D01*
G04 #@! TO.N,Net-(D_NEG1-Pad1)*
X59445000Y-110490000D02*
X62230000Y-110490000D01*
G04 #@! TO.N,Net-(D_POS1-Pad2)*
X59690000Y-100330000D02*
X62230000Y-100330000D01*
G04 #@! TO.N,/12V*
X66735000Y-95310000D02*
X66738500Y-92392500D01*
X68580000Y-97155000D02*
X66735000Y-95310000D01*
X68580000Y-100330000D02*
X68580000Y-97155000D01*
X72825500Y-92392500D02*
X73143000Y-92710000D01*
X66735000Y-92392500D02*
X72825500Y-92392500D01*
X64643000Y-100330000D02*
X193040000Y-100330000D01*
G04 #@! TO.N,/5V*
X83820000Y-97790000D02*
X193040000Y-97790000D01*
X75193000Y-87630000D02*
X78740000Y-87630000D01*
X78740000Y-87630000D02*
X78740000Y-97790000D01*
X78740000Y-97790000D02*
X83820000Y-97790000D01*
X75193000Y-84083000D02*
X75193000Y-87630000D01*
X73240010Y-82130010D02*
X75193000Y-84083000D01*
X66675000Y-82130010D02*
X73240010Y-82130010D01*
X66735000Y-82130010D02*
X66738500Y-87312500D01*
X49110010Y-82130010D02*
X66735000Y-82130010D01*
X49110010Y-101815010D02*
X49110010Y-82130010D01*
X50410000Y-103115000D02*
X49110010Y-101815010D01*
X56896000Y-103124000D02*
X50410000Y-103115000D01*
X63500000Y-103124000D02*
X56896000Y-103124000D01*
X64525000Y-104149000D02*
X63500000Y-103124000D01*
X64525000Y-105410000D02*
X64525000Y-104149000D01*
G04 #@! TO.N,Net-(D_5VPP1-Pad2)*
X59445000Y-105410000D02*
X62475000Y-105410000D01*
G04 #@! TO.N,/-12V*
X64579500Y-110490000D02*
X193040000Y-110490000D01*
G04 #@! TO.N,/GATE*
X83820000Y-92710000D02*
X193040000Y-92710000D01*
G04 #@! TO.N,/CV*
X193040000Y-95250000D02*
X83820000Y-95250000D01*
G04 #@! TD*
D18*
G04 #@! TO.N,GND*
G36*
X63881000Y-86448650D02*
X63836843Y-86514735D01*
X63787560Y-86762500D01*
X63787560Y-87862500D01*
X63836843Y-88110265D01*
X63977191Y-88320309D01*
X64187235Y-88460657D01*
X64435000Y-88509940D01*
X69035000Y-88509940D01*
X69215000Y-88474136D01*
X69215000Y-91230864D01*
X69035000Y-91195060D01*
X64435000Y-91195060D01*
X64187235Y-91244343D01*
X63977191Y-91384691D01*
X63836843Y-91594735D01*
X63787560Y-91842500D01*
X63787560Y-92942500D01*
X63836843Y-93190265D01*
X63977191Y-93400309D01*
X64084483Y-93472000D01*
X64008000Y-93472000D01*
X63959399Y-93481667D01*
X63918197Y-93509197D01*
X63890667Y-93550399D01*
X63881000Y-93599000D01*
X63881000Y-97536000D01*
X50245010Y-97536000D01*
X50245010Y-83265010D01*
X63881000Y-83265010D01*
X63881000Y-86448650D01*
X63881000Y-86448650D01*
G37*
X63881000Y-86448650D02*
X63836843Y-86514735D01*
X63787560Y-86762500D01*
X63787560Y-87862500D01*
X63836843Y-88110265D01*
X63977191Y-88320309D01*
X64187235Y-88460657D01*
X64435000Y-88509940D01*
X69035000Y-88509940D01*
X69215000Y-88474136D01*
X69215000Y-91230864D01*
X69035000Y-91195060D01*
X64435000Y-91195060D01*
X64187235Y-91244343D01*
X63977191Y-91384691D01*
X63836843Y-91594735D01*
X63787560Y-91842500D01*
X63787560Y-92942500D01*
X63836843Y-93190265D01*
X63977191Y-93400309D01*
X64084483Y-93472000D01*
X64008000Y-93472000D01*
X63959399Y-93481667D01*
X63918197Y-93509197D01*
X63890667Y-93550399D01*
X63881000Y-93599000D01*
X63881000Y-97536000D01*
X50245010Y-97536000D01*
X50245010Y-83265010D01*
X63881000Y-83265010D01*
X63881000Y-86448650D01*
G04 #@! TD*
M02*
