G04 #@! TF.GenerationSoftware,KiCad,Pcbnew,(5.1.6-0-10_14)*
G04 #@! TF.CreationDate,2020-09-28T00:01:53+01:00*
G04 #@! TF.ProjectId,AdjustablePSU,41646a75-7374-4616-926c-655053552e6b,rev?*
G04 #@! TF.SameCoordinates,Original*
G04 #@! TF.FileFunction,Copper,L2,Bot*
G04 #@! TF.FilePolarity,Positive*
%FSLAX46Y46*%
G04 Gerber Fmt 4.6, Leading zero omitted, Abs format (unit mm)*
G04 Created by KiCad (PCBNEW (5.1.6-0-10_14)) date 2020-09-28 00:01:53*
%MOMM*%
%LPD*%
G01*
G04 APERTURE LIST*
G04 #@! TA.AperFunction,ComponentPad*
%ADD10C,2.400000*%
G04 #@! TD*
G04 #@! TA.AperFunction,ComponentPad*
%ADD11R,2.400000X2.400000*%
G04 #@! TD*
G04 #@! TA.AperFunction,ComponentPad*
%ADD12C,5.001260*%
G04 #@! TD*
G04 #@! TA.AperFunction,ComponentPad*
%ADD13R,1.700000X1.700000*%
G04 #@! TD*
G04 #@! TA.AperFunction,ComponentPad*
%ADD14O,1.700000X1.700000*%
G04 #@! TD*
G04 #@! TA.AperFunction,ComponentPad*
%ADD15R,1.600000X1.600000*%
G04 #@! TD*
G04 #@! TA.AperFunction,ComponentPad*
%ADD16C,1.600000*%
G04 #@! TD*
G04 #@! TA.AperFunction,ComponentPad*
%ADD17O,1.905000X2.000000*%
G04 #@! TD*
G04 #@! TA.AperFunction,ComponentPad*
%ADD18R,1.905000X2.000000*%
G04 #@! TD*
G04 #@! TA.AperFunction,ViaPad*
%ADD19C,0.800000*%
G04 #@! TD*
G04 #@! TA.AperFunction,Conductor*
%ADD20C,1.000000*%
G04 #@! TD*
G04 #@! TA.AperFunction,Conductor*
%ADD21C,0.254000*%
G04 #@! TD*
G04 APERTURE END LIST*
D10*
X109982000Y-66160000D03*
D11*
X109982000Y-73660000D03*
D12*
X172466000Y-68580000D03*
X127254000Y-68580000D03*
D13*
X146558000Y-95504000D03*
D14*
X144018000Y-95504000D03*
X146558000Y-92964000D03*
X144018000Y-92964000D03*
X146558000Y-90424000D03*
X144018000Y-90424000D03*
X146558000Y-87884000D03*
X144018000Y-87884000D03*
X146558000Y-85344000D03*
X144018000Y-85344000D03*
D13*
X155448000Y-95504000D03*
D14*
X152908000Y-95504000D03*
X155448000Y-92964000D03*
X152908000Y-92964000D03*
X155448000Y-90424000D03*
X152908000Y-90424000D03*
X155448000Y-87884000D03*
X152908000Y-87884000D03*
X155448000Y-85344000D03*
X152908000Y-85344000D03*
D13*
X151130000Y-100965000D03*
D14*
X148590000Y-100965000D03*
D10*
X188595000Y-73540000D03*
D11*
X188595000Y-66040000D03*
X109982000Y-87630000D03*
D10*
X109982000Y-95130000D03*
D11*
X188595000Y-95250000D03*
D10*
X188595000Y-87750000D03*
D15*
X162052000Y-95504000D03*
D16*
X162052000Y-93004000D03*
X136438000Y-94234000D03*
D15*
X138938000Y-94234000D03*
G04 #@! TA.AperFunction,SMDPad,CuDef*
G36*
G01*
X160586000Y-86163999D02*
X160586000Y-87064001D01*
G75*
G02*
X160336001Y-87314000I-249999J0D01*
G01*
X159685999Y-87314000D01*
G75*
G02*
X159436000Y-87064001I0J249999D01*
G01*
X159436000Y-86163999D01*
G75*
G02*
X159685999Y-85914000I249999J0D01*
G01*
X160336001Y-85914000D01*
G75*
G02*
X160586000Y-86163999I0J-249999D01*
G01*
G37*
G04 #@! TD.AperFunction*
G04 #@! TA.AperFunction,SMDPad,CuDef*
G36*
G01*
X162636000Y-86163999D02*
X162636000Y-87064001D01*
G75*
G02*
X162386001Y-87314000I-249999J0D01*
G01*
X161735999Y-87314000D01*
G75*
G02*
X161486000Y-87064001I0J249999D01*
G01*
X161486000Y-86163999D01*
G75*
G02*
X161735999Y-85914000I249999J0D01*
G01*
X162386001Y-85914000D01*
G75*
G02*
X162636000Y-86163999I0J-249999D01*
G01*
G37*
G04 #@! TD.AperFunction*
G04 #@! TA.AperFunction,SMDPad,CuDef*
G36*
G01*
X159436000Y-83762001D02*
X159436000Y-82861999D01*
G75*
G02*
X159685999Y-82612000I249999J0D01*
G01*
X160336001Y-82612000D01*
G75*
G02*
X160586000Y-82861999I0J-249999D01*
G01*
X160586000Y-83762001D01*
G75*
G02*
X160336001Y-84012000I-249999J0D01*
G01*
X159685999Y-84012000D01*
G75*
G02*
X159436000Y-83762001I0J249999D01*
G01*
G37*
G04 #@! TD.AperFunction*
G04 #@! TA.AperFunction,SMDPad,CuDef*
G36*
G01*
X161486000Y-83762001D02*
X161486000Y-82861999D01*
G75*
G02*
X161735999Y-82612000I249999J0D01*
G01*
X162386001Y-82612000D01*
G75*
G02*
X162636000Y-82861999I0J-249999D01*
G01*
X162636000Y-83762001D01*
G75*
G02*
X162386001Y-84012000I-249999J0D01*
G01*
X161735999Y-84012000D01*
G75*
G02*
X161486000Y-83762001I0J249999D01*
G01*
G37*
G04 #@! TD.AperFunction*
G04 #@! TA.AperFunction,SMDPad,CuDef*
G36*
G01*
X130868000Y-86163999D02*
X130868000Y-87064001D01*
G75*
G02*
X130618001Y-87314000I-249999J0D01*
G01*
X129967999Y-87314000D01*
G75*
G02*
X129718000Y-87064001I0J249999D01*
G01*
X129718000Y-86163999D01*
G75*
G02*
X129967999Y-85914000I249999J0D01*
G01*
X130618001Y-85914000D01*
G75*
G02*
X130868000Y-86163999I0J-249999D01*
G01*
G37*
G04 #@! TD.AperFunction*
G04 #@! TA.AperFunction,SMDPad,CuDef*
G36*
G01*
X132918000Y-86163999D02*
X132918000Y-87064001D01*
G75*
G02*
X132668001Y-87314000I-249999J0D01*
G01*
X132017999Y-87314000D01*
G75*
G02*
X131768000Y-87064001I0J249999D01*
G01*
X131768000Y-86163999D01*
G75*
G02*
X132017999Y-85914000I249999J0D01*
G01*
X132668001Y-85914000D01*
G75*
G02*
X132918000Y-86163999I0J-249999D01*
G01*
G37*
G04 #@! TD.AperFunction*
G04 #@! TA.AperFunction,SMDPad,CuDef*
G36*
G01*
X129718000Y-90366001D02*
X129718000Y-89465999D01*
G75*
G02*
X129967999Y-89216000I249999J0D01*
G01*
X130618001Y-89216000D01*
G75*
G02*
X130868000Y-89465999I0J-249999D01*
G01*
X130868000Y-90366001D01*
G75*
G02*
X130618001Y-90616000I-249999J0D01*
G01*
X129967999Y-90616000D01*
G75*
G02*
X129718000Y-90366001I0J249999D01*
G01*
G37*
G04 #@! TD.AperFunction*
G04 #@! TA.AperFunction,SMDPad,CuDef*
G36*
G01*
X131768000Y-90366001D02*
X131768000Y-89465999D01*
G75*
G02*
X132017999Y-89216000I249999J0D01*
G01*
X132668001Y-89216000D01*
G75*
G02*
X132918000Y-89465999I0J-249999D01*
G01*
X132918000Y-90366001D01*
G75*
G02*
X132668001Y-90616000I-249999J0D01*
G01*
X132017999Y-90616000D01*
G75*
G02*
X131768000Y-90366001I0J249999D01*
G01*
G37*
G04 #@! TD.AperFunction*
D17*
X159512000Y-75184000D03*
X156972000Y-75184000D03*
D18*
X154432000Y-75184000D03*
X139954000Y-75184000D03*
D17*
X142494000Y-75184000D03*
X145034000Y-75184000D03*
D19*
X178308000Y-99568000D03*
X177800000Y-94488000D03*
X171704000Y-86614000D03*
X122682000Y-86614000D03*
X121242000Y-94488000D03*
X121158000Y-99568000D03*
X140208000Y-86614000D03*
X134366000Y-86614000D03*
X163576000Y-86614000D03*
D20*
X134366000Y-86614000D02*
X132343000Y-86614000D01*
X162061000Y-86614000D02*
X163576000Y-86614000D01*
X160011000Y-83321000D02*
X160020000Y-83312000D01*
X160011000Y-86614000D02*
X160011000Y-83321000D01*
X154432000Y-77733000D02*
X160011000Y-83312000D01*
X154432000Y-75184000D02*
X154432000Y-77733000D01*
X130293000Y-87893008D02*
X130293000Y-89916000D01*
X139192000Y-84328000D02*
X131064000Y-84328000D01*
X130293000Y-85099000D02*
X130293000Y-87893008D01*
X131064000Y-84328000D02*
X130293000Y-85099000D01*
X139954000Y-83566000D02*
X139192000Y-84328000D01*
X139954000Y-75184000D02*
X139954000Y-83566000D01*
D21*
G36*
X197385001Y-107215000D02*
G01*
X101065000Y-107215000D01*
X101065000Y-103284872D01*
X102540000Y-103284872D01*
X102540000Y-103725128D01*
X102625890Y-104156925D01*
X102794369Y-104563669D01*
X103038962Y-104929729D01*
X103350271Y-105241038D01*
X103716331Y-105485631D01*
X104123075Y-105654110D01*
X104554872Y-105740000D01*
X104995128Y-105740000D01*
X105426925Y-105654110D01*
X105833669Y-105485631D01*
X106199729Y-105241038D01*
X106511038Y-104929729D01*
X106755631Y-104563669D01*
X106924110Y-104156925D01*
X107010000Y-103725128D01*
X107010000Y-103284872D01*
X191440000Y-103284872D01*
X191440000Y-103725128D01*
X191525890Y-104156925D01*
X191694369Y-104563669D01*
X191938962Y-104929729D01*
X192250271Y-105241038D01*
X192616331Y-105485631D01*
X193023075Y-105654110D01*
X193454872Y-105740000D01*
X193895128Y-105740000D01*
X194326925Y-105654110D01*
X194733669Y-105485631D01*
X195099729Y-105241038D01*
X195411038Y-104929729D01*
X195655631Y-104563669D01*
X195824110Y-104156925D01*
X195910000Y-103725128D01*
X195910000Y-103284872D01*
X195824110Y-102853075D01*
X195655631Y-102446331D01*
X195411038Y-102080271D01*
X195099729Y-101768962D01*
X194733669Y-101524369D01*
X194326925Y-101355890D01*
X193895128Y-101270000D01*
X193454872Y-101270000D01*
X193023075Y-101355890D01*
X192616331Y-101524369D01*
X192250271Y-101768962D01*
X191938962Y-102080271D01*
X191694369Y-102446331D01*
X191525890Y-102853075D01*
X191440000Y-103284872D01*
X107010000Y-103284872D01*
X106924110Y-102853075D01*
X106755631Y-102446331D01*
X106511038Y-102080271D01*
X106199729Y-101768962D01*
X105833669Y-101524369D01*
X105426925Y-101355890D01*
X104995128Y-101270000D01*
X104554872Y-101270000D01*
X104123075Y-101355890D01*
X103716331Y-101524369D01*
X103350271Y-101768962D01*
X103038962Y-102080271D01*
X102794369Y-102446331D01*
X102625890Y-102853075D01*
X102540000Y-103284872D01*
X101065000Y-103284872D01*
X101065000Y-100818740D01*
X147105000Y-100818740D01*
X147105000Y-101111260D01*
X147162068Y-101398158D01*
X147274010Y-101668411D01*
X147436525Y-101911632D01*
X147643368Y-102118475D01*
X147886589Y-102280990D01*
X148156842Y-102392932D01*
X148443740Y-102450000D01*
X148736260Y-102450000D01*
X149023158Y-102392932D01*
X149293411Y-102280990D01*
X149536632Y-102118475D01*
X149743475Y-101911632D01*
X149905990Y-101668411D01*
X150017932Y-101398158D01*
X150075000Y-101111260D01*
X150075000Y-100818740D01*
X150017932Y-100531842D01*
X149905990Y-100261589D01*
X149743475Y-100018368D01*
X149536632Y-99811525D01*
X149293411Y-99649010D01*
X149023158Y-99537068D01*
X148736260Y-99480000D01*
X148443740Y-99480000D01*
X148156842Y-99537068D01*
X147886589Y-99649010D01*
X147643368Y-99811525D01*
X147436525Y-100018368D01*
X147274010Y-100261589D01*
X147162068Y-100531842D01*
X147105000Y-100818740D01*
X101065000Y-100818740D01*
X101065000Y-94949268D01*
X108147000Y-94949268D01*
X108147000Y-95310732D01*
X108217518Y-95665250D01*
X108355844Y-95999199D01*
X108556662Y-96299744D01*
X108812256Y-96555338D01*
X109112801Y-96756156D01*
X109446750Y-96894482D01*
X109801268Y-96965000D01*
X110162732Y-96965000D01*
X110517250Y-96894482D01*
X110851199Y-96756156D01*
X111151744Y-96555338D01*
X111407338Y-96299744D01*
X111608156Y-95999199D01*
X111746482Y-95665250D01*
X111817000Y-95310732D01*
X111817000Y-94949268D01*
X111746482Y-94594750D01*
X111608156Y-94260801D01*
X111495811Y-94092665D01*
X135003000Y-94092665D01*
X135003000Y-94375335D01*
X135058147Y-94652574D01*
X135166320Y-94913727D01*
X135323363Y-95148759D01*
X135523241Y-95348637D01*
X135758273Y-95505680D01*
X136019426Y-95613853D01*
X136296665Y-95669000D01*
X136579335Y-95669000D01*
X136856574Y-95613853D01*
X137117727Y-95505680D01*
X137339135Y-95357740D01*
X142533000Y-95357740D01*
X142533000Y-95650260D01*
X142590068Y-95937158D01*
X142702010Y-96207411D01*
X142864525Y-96450632D01*
X143071368Y-96657475D01*
X143314589Y-96819990D01*
X143584842Y-96931932D01*
X143871740Y-96989000D01*
X144164260Y-96989000D01*
X144451158Y-96931932D01*
X144721411Y-96819990D01*
X144964632Y-96657475D01*
X145096487Y-96525620D01*
X145118498Y-96598180D01*
X145177463Y-96708494D01*
X145256815Y-96805185D01*
X145353506Y-96884537D01*
X145463820Y-96943502D01*
X145583518Y-96979812D01*
X145708000Y-96992072D01*
X147408000Y-96992072D01*
X147532482Y-96979812D01*
X147652180Y-96943502D01*
X147762494Y-96884537D01*
X147859185Y-96805185D01*
X147938537Y-96708494D01*
X147997502Y-96598180D01*
X148033812Y-96478482D01*
X148046072Y-96354000D01*
X148046072Y-95357740D01*
X151423000Y-95357740D01*
X151423000Y-95650260D01*
X151480068Y-95937158D01*
X151592010Y-96207411D01*
X151754525Y-96450632D01*
X151961368Y-96657475D01*
X152204589Y-96819990D01*
X152474842Y-96931932D01*
X152761740Y-96989000D01*
X153054260Y-96989000D01*
X153341158Y-96931932D01*
X153611411Y-96819990D01*
X153854632Y-96657475D01*
X153986487Y-96525620D01*
X154008498Y-96598180D01*
X154067463Y-96708494D01*
X154146815Y-96805185D01*
X154243506Y-96884537D01*
X154353820Y-96943502D01*
X154473518Y-96979812D01*
X154598000Y-96992072D01*
X156298000Y-96992072D01*
X156422482Y-96979812D01*
X156542180Y-96943502D01*
X156652494Y-96884537D01*
X156749185Y-96805185D01*
X156828537Y-96708494D01*
X156887502Y-96598180D01*
X156923812Y-96478482D01*
X156936072Y-96354000D01*
X156936072Y-94704000D01*
X160613928Y-94704000D01*
X160613928Y-96304000D01*
X160626188Y-96428482D01*
X160662498Y-96548180D01*
X160721463Y-96658494D01*
X160800815Y-96755185D01*
X160897506Y-96834537D01*
X161007820Y-96893502D01*
X161127518Y-96929812D01*
X161252000Y-96942072D01*
X162852000Y-96942072D01*
X162976482Y-96929812D01*
X163096180Y-96893502D01*
X163206494Y-96834537D01*
X163303185Y-96755185D01*
X163382537Y-96658494D01*
X163441502Y-96548180D01*
X163477812Y-96428482D01*
X163490072Y-96304000D01*
X163490072Y-94704000D01*
X163477812Y-94579518D01*
X163441502Y-94459820D01*
X163382537Y-94349506D01*
X163303185Y-94252815D01*
X163206494Y-94173463D01*
X163096180Y-94114498D01*
X162976482Y-94078188D01*
X162852000Y-94065928D01*
X161252000Y-94065928D01*
X161127518Y-94078188D01*
X161007820Y-94114498D01*
X160897506Y-94173463D01*
X160800815Y-94252815D01*
X160721463Y-94349506D01*
X160662498Y-94459820D01*
X160626188Y-94579518D01*
X160613928Y-94704000D01*
X156936072Y-94704000D01*
X156936072Y-94654000D01*
X156923812Y-94529518D01*
X156887502Y-94409820D01*
X156828537Y-94299506D01*
X156749185Y-94202815D01*
X156652494Y-94123463D01*
X156542180Y-94064498D01*
X156494387Y-94050000D01*
X186756928Y-94050000D01*
X186756928Y-96450000D01*
X186769188Y-96574482D01*
X186805498Y-96694180D01*
X186864463Y-96804494D01*
X186943815Y-96901185D01*
X187040506Y-96980537D01*
X187150820Y-97039502D01*
X187270518Y-97075812D01*
X187395000Y-97088072D01*
X189795000Y-97088072D01*
X189919482Y-97075812D01*
X190039180Y-97039502D01*
X190149494Y-96980537D01*
X190246185Y-96901185D01*
X190325537Y-96804494D01*
X190384502Y-96694180D01*
X190420812Y-96574482D01*
X190433072Y-96450000D01*
X190433072Y-94050000D01*
X190420812Y-93925518D01*
X190384502Y-93805820D01*
X190325537Y-93695506D01*
X190246185Y-93598815D01*
X190149494Y-93519463D01*
X190039180Y-93460498D01*
X189919482Y-93424188D01*
X189795000Y-93411928D01*
X187395000Y-93411928D01*
X187270518Y-93424188D01*
X187150820Y-93460498D01*
X187040506Y-93519463D01*
X186943815Y-93598815D01*
X186864463Y-93695506D01*
X186805498Y-93805820D01*
X186769188Y-93925518D01*
X186756928Y-94050000D01*
X156494387Y-94050000D01*
X156422482Y-94028188D01*
X156298000Y-94015928D01*
X154598000Y-94015928D01*
X154473518Y-94028188D01*
X154353820Y-94064498D01*
X154243506Y-94123463D01*
X154146815Y-94202815D01*
X154067463Y-94299506D01*
X154008498Y-94409820D01*
X153986487Y-94482380D01*
X153854632Y-94350525D01*
X153611411Y-94188010D01*
X153341158Y-94076068D01*
X153054260Y-94019000D01*
X152761740Y-94019000D01*
X152474842Y-94076068D01*
X152204589Y-94188010D01*
X151961368Y-94350525D01*
X151754525Y-94557368D01*
X151592010Y-94800589D01*
X151480068Y-95070842D01*
X151423000Y-95357740D01*
X148046072Y-95357740D01*
X148046072Y-94654000D01*
X148033812Y-94529518D01*
X147997502Y-94409820D01*
X147938537Y-94299506D01*
X147859185Y-94202815D01*
X147762494Y-94123463D01*
X147652180Y-94064498D01*
X147532482Y-94028188D01*
X147408000Y-94015928D01*
X145708000Y-94015928D01*
X145583518Y-94028188D01*
X145463820Y-94064498D01*
X145353506Y-94123463D01*
X145256815Y-94202815D01*
X145177463Y-94299506D01*
X145118498Y-94409820D01*
X145096487Y-94482380D01*
X144964632Y-94350525D01*
X144721411Y-94188010D01*
X144451158Y-94076068D01*
X144164260Y-94019000D01*
X143871740Y-94019000D01*
X143584842Y-94076068D01*
X143314589Y-94188010D01*
X143071368Y-94350525D01*
X142864525Y-94557368D01*
X142702010Y-94800589D01*
X142590068Y-95070842D01*
X142533000Y-95357740D01*
X137339135Y-95357740D01*
X137352759Y-95348637D01*
X137552637Y-95148759D01*
X137709680Y-94913727D01*
X137817853Y-94652574D01*
X137873000Y-94375335D01*
X137873000Y-94092665D01*
X137817853Y-93815426D01*
X137709680Y-93554273D01*
X137552637Y-93319241D01*
X137352759Y-93119363D01*
X137117727Y-92962320D01*
X136856574Y-92854147D01*
X136579335Y-92799000D01*
X136296665Y-92799000D01*
X136019426Y-92854147D01*
X135758273Y-92962320D01*
X135523241Y-93119363D01*
X135323363Y-93319241D01*
X135166320Y-93554273D01*
X135058147Y-93815426D01*
X135003000Y-94092665D01*
X111495811Y-94092665D01*
X111407338Y-93960256D01*
X111151744Y-93704662D01*
X110851199Y-93503844D01*
X110517250Y-93365518D01*
X110162732Y-93295000D01*
X109801268Y-93295000D01*
X109446750Y-93365518D01*
X109112801Y-93503844D01*
X108812256Y-93704662D01*
X108556662Y-93960256D01*
X108355844Y-94260801D01*
X108217518Y-94594750D01*
X108147000Y-94949268D01*
X101065000Y-94949268D01*
X101065000Y-86163999D01*
X129079928Y-86163999D01*
X129079928Y-87064001D01*
X129096992Y-87237255D01*
X129147528Y-87403851D01*
X129158001Y-87423444D01*
X129158001Y-87837247D01*
X129158000Y-87837257D01*
X129158001Y-89106556D01*
X129147528Y-89126149D01*
X129096992Y-89292745D01*
X129079928Y-89465999D01*
X129079928Y-90366001D01*
X129096992Y-90539255D01*
X129147528Y-90705851D01*
X129229595Y-90859387D01*
X129340038Y-90993962D01*
X129474613Y-91104405D01*
X129628149Y-91186472D01*
X129794745Y-91237008D01*
X129967999Y-91254072D01*
X130618001Y-91254072D01*
X130791255Y-91237008D01*
X130957851Y-91186472D01*
X131111387Y-91104405D01*
X131245962Y-90993962D01*
X131356405Y-90859387D01*
X131438472Y-90705851D01*
X131489008Y-90539255D01*
X131506072Y-90366001D01*
X131506072Y-89465999D01*
X131489008Y-89292745D01*
X131438472Y-89126149D01*
X131428000Y-89106557D01*
X131428000Y-87723117D01*
X131524613Y-87802405D01*
X131678149Y-87884472D01*
X131844745Y-87935008D01*
X132017999Y-87952072D01*
X132668001Y-87952072D01*
X132841255Y-87935008D01*
X133007851Y-87884472D01*
X133161387Y-87802405D01*
X133226461Y-87749000D01*
X134421752Y-87749000D01*
X134588499Y-87732577D01*
X134802447Y-87667676D01*
X134999623Y-87562284D01*
X135172449Y-87420449D01*
X135314284Y-87247623D01*
X135419676Y-87050447D01*
X135484577Y-86836499D01*
X135506491Y-86614000D01*
X135484577Y-86391501D01*
X135419676Y-86177553D01*
X135314284Y-85980377D01*
X135172449Y-85807551D01*
X134999623Y-85665716D01*
X134802447Y-85560324D01*
X134588499Y-85495423D01*
X134421752Y-85479000D01*
X133226461Y-85479000D01*
X133206965Y-85463000D01*
X139136249Y-85463000D01*
X139192000Y-85468491D01*
X139247751Y-85463000D01*
X139247752Y-85463000D01*
X139414499Y-85446577D01*
X139628447Y-85381676D01*
X139825623Y-85276284D01*
X139921328Y-85197740D01*
X142533000Y-85197740D01*
X142533000Y-85490260D01*
X142590068Y-85777158D01*
X142702010Y-86047411D01*
X142864525Y-86290632D01*
X143071368Y-86497475D01*
X143314589Y-86659990D01*
X143584842Y-86771932D01*
X143871740Y-86829000D01*
X144164260Y-86829000D01*
X144451158Y-86771932D01*
X144721411Y-86659990D01*
X144964632Y-86497475D01*
X145171475Y-86290632D01*
X145288000Y-86116240D01*
X145404525Y-86290632D01*
X145611368Y-86497475D01*
X145854589Y-86659990D01*
X146124842Y-86771932D01*
X146411740Y-86829000D01*
X146704260Y-86829000D01*
X146991158Y-86771932D01*
X147261411Y-86659990D01*
X147504632Y-86497475D01*
X147711475Y-86290632D01*
X147873990Y-86047411D01*
X147985932Y-85777158D01*
X148043000Y-85490260D01*
X148043000Y-85197740D01*
X151423000Y-85197740D01*
X151423000Y-85490260D01*
X151480068Y-85777158D01*
X151592010Y-86047411D01*
X151754525Y-86290632D01*
X151961368Y-86497475D01*
X152204589Y-86659990D01*
X152474842Y-86771932D01*
X152761740Y-86829000D01*
X153054260Y-86829000D01*
X153341158Y-86771932D01*
X153611411Y-86659990D01*
X153854632Y-86497475D01*
X154061475Y-86290632D01*
X154178000Y-86116240D01*
X154294525Y-86290632D01*
X154501368Y-86497475D01*
X154744589Y-86659990D01*
X155014842Y-86771932D01*
X155301740Y-86829000D01*
X155594260Y-86829000D01*
X155881158Y-86771932D01*
X156151411Y-86659990D01*
X156394632Y-86497475D01*
X156601475Y-86290632D01*
X156763990Y-86047411D01*
X156875932Y-85777158D01*
X156933000Y-85490260D01*
X156933000Y-85197740D01*
X156875932Y-84910842D01*
X156763990Y-84640589D01*
X156601475Y-84397368D01*
X156394632Y-84190525D01*
X156151411Y-84028010D01*
X155881158Y-83916068D01*
X155594260Y-83859000D01*
X155301740Y-83859000D01*
X155014842Y-83916068D01*
X154744589Y-84028010D01*
X154501368Y-84190525D01*
X154294525Y-84397368D01*
X154178000Y-84571760D01*
X154061475Y-84397368D01*
X153854632Y-84190525D01*
X153611411Y-84028010D01*
X153341158Y-83916068D01*
X153054260Y-83859000D01*
X152761740Y-83859000D01*
X152474842Y-83916068D01*
X152204589Y-84028010D01*
X151961368Y-84190525D01*
X151754525Y-84397368D01*
X151592010Y-84640589D01*
X151480068Y-84910842D01*
X151423000Y-85197740D01*
X148043000Y-85197740D01*
X147985932Y-84910842D01*
X147873990Y-84640589D01*
X147711475Y-84397368D01*
X147504632Y-84190525D01*
X147261411Y-84028010D01*
X146991158Y-83916068D01*
X146704260Y-83859000D01*
X146411740Y-83859000D01*
X146124842Y-83916068D01*
X145854589Y-84028010D01*
X145611368Y-84190525D01*
X145404525Y-84397368D01*
X145288000Y-84571760D01*
X145171475Y-84397368D01*
X144964632Y-84190525D01*
X144721411Y-84028010D01*
X144451158Y-83916068D01*
X144164260Y-83859000D01*
X143871740Y-83859000D01*
X143584842Y-83916068D01*
X143314589Y-84028010D01*
X143071368Y-84190525D01*
X142864525Y-84397368D01*
X142702010Y-84640589D01*
X142590068Y-84910842D01*
X142533000Y-85197740D01*
X139921328Y-85197740D01*
X139998449Y-85134449D01*
X140033995Y-85091136D01*
X140717140Y-84407992D01*
X140760449Y-84372449D01*
X140902284Y-84199623D01*
X141007676Y-84002447D01*
X141072577Y-83788499D01*
X141089000Y-83621752D01*
X141094491Y-83566000D01*
X141089000Y-83510248D01*
X141089000Y-76792212D01*
X141150680Y-76773502D01*
X141260994Y-76714537D01*
X141357685Y-76635185D01*
X141437037Y-76538494D01*
X141481905Y-76454553D01*
X141607766Y-76557845D01*
X141883552Y-76705255D01*
X142182797Y-76796030D01*
X142494000Y-76826681D01*
X142805204Y-76796030D01*
X143104449Y-76705255D01*
X143380235Y-76557845D01*
X143621963Y-76359463D01*
X143764000Y-76186391D01*
X143906037Y-76359463D01*
X144147766Y-76557845D01*
X144423552Y-76705255D01*
X144722797Y-76796030D01*
X145034000Y-76826681D01*
X145345204Y-76796030D01*
X145644449Y-76705255D01*
X145920235Y-76557845D01*
X146161963Y-76359463D01*
X146360345Y-76117734D01*
X146507755Y-75841948D01*
X146598530Y-75542703D01*
X146621500Y-75309485D01*
X146621500Y-75058514D01*
X146598530Y-74825296D01*
X146507755Y-74526051D01*
X146360345Y-74250265D01*
X146305963Y-74184000D01*
X152841428Y-74184000D01*
X152841428Y-76184000D01*
X152853688Y-76308482D01*
X152889998Y-76428180D01*
X152948963Y-76538494D01*
X153028315Y-76635185D01*
X153125006Y-76714537D01*
X153235320Y-76773502D01*
X153297001Y-76792213D01*
X153297001Y-77677239D01*
X153291509Y-77733000D01*
X153313423Y-77955498D01*
X153378324Y-78169446D01*
X153378325Y-78169447D01*
X153483717Y-78366623D01*
X153625552Y-78539449D01*
X153668860Y-78574991D01*
X158797928Y-83704060D01*
X158797928Y-83762001D01*
X158814992Y-83935255D01*
X158865528Y-84101851D01*
X158876001Y-84121444D01*
X158876000Y-85804557D01*
X158865528Y-85824149D01*
X158814992Y-85990745D01*
X158797928Y-86163999D01*
X158797928Y-87064001D01*
X158814992Y-87237255D01*
X158865528Y-87403851D01*
X158947595Y-87557387D01*
X159058038Y-87691962D01*
X159192613Y-87802405D01*
X159346149Y-87884472D01*
X159512745Y-87935008D01*
X159685999Y-87952072D01*
X160336001Y-87952072D01*
X160509255Y-87935008D01*
X160675851Y-87884472D01*
X160829387Y-87802405D01*
X160963962Y-87691962D01*
X161036000Y-87604184D01*
X161108038Y-87691962D01*
X161242613Y-87802405D01*
X161396149Y-87884472D01*
X161562745Y-87935008D01*
X161735999Y-87952072D01*
X162386001Y-87952072D01*
X162559255Y-87935008D01*
X162725851Y-87884472D01*
X162879387Y-87802405D01*
X162944461Y-87749000D01*
X163631752Y-87749000D01*
X163798499Y-87732577D01*
X164012447Y-87667676D01*
X164209623Y-87562284D01*
X164382449Y-87420449D01*
X164524284Y-87247623D01*
X164629676Y-87050447D01*
X164694577Y-86836499D01*
X164716491Y-86614000D01*
X164694577Y-86391501D01*
X164629676Y-86177553D01*
X164524284Y-85980377D01*
X164382449Y-85807551D01*
X164209623Y-85665716D01*
X164012447Y-85560324D01*
X163798499Y-85495423D01*
X163631752Y-85479000D01*
X162944461Y-85479000D01*
X162879387Y-85425595D01*
X162725851Y-85343528D01*
X162559255Y-85292992D01*
X162386001Y-85275928D01*
X161735999Y-85275928D01*
X161562745Y-85292992D01*
X161396149Y-85343528D01*
X161242613Y-85425595D01*
X161146000Y-85504883D01*
X161146000Y-84121443D01*
X161156472Y-84101851D01*
X161207008Y-83935255D01*
X161224072Y-83762001D01*
X161224072Y-82861999D01*
X161207008Y-82688745D01*
X161156472Y-82522149D01*
X161074405Y-82368613D01*
X160963962Y-82234038D01*
X160829387Y-82123595D01*
X160675851Y-82041528D01*
X160509255Y-81990992D01*
X160336001Y-81973928D01*
X160278060Y-81973928D01*
X155567000Y-77262869D01*
X155567000Y-76792212D01*
X155628680Y-76773502D01*
X155738994Y-76714537D01*
X155835685Y-76635185D01*
X155915037Y-76538494D01*
X155959905Y-76454553D01*
X156085766Y-76557845D01*
X156361552Y-76705255D01*
X156660797Y-76796030D01*
X156972000Y-76826681D01*
X157283204Y-76796030D01*
X157582449Y-76705255D01*
X157858235Y-76557845D01*
X158099963Y-76359463D01*
X158242000Y-76186391D01*
X158384037Y-76359463D01*
X158625766Y-76557845D01*
X158901552Y-76705255D01*
X159200797Y-76796030D01*
X159512000Y-76826681D01*
X159823204Y-76796030D01*
X160122449Y-76705255D01*
X160398235Y-76557845D01*
X160639963Y-76359463D01*
X160838345Y-76117734D01*
X160985755Y-75841948D01*
X161076530Y-75542703D01*
X161099500Y-75309485D01*
X161099500Y-75058514D01*
X161076530Y-74825296D01*
X160985755Y-74526051D01*
X160838345Y-74250265D01*
X160639963Y-74008537D01*
X160398234Y-73810155D01*
X160122448Y-73662745D01*
X159823203Y-73571970D01*
X159512000Y-73541319D01*
X159200796Y-73571970D01*
X158901551Y-73662745D01*
X158625765Y-73810155D01*
X158384037Y-74008537D01*
X158242000Y-74181609D01*
X158099963Y-74008537D01*
X157858234Y-73810155D01*
X157582448Y-73662745D01*
X157283203Y-73571970D01*
X156972000Y-73541319D01*
X156660796Y-73571970D01*
X156361551Y-73662745D01*
X156085765Y-73810155D01*
X155959905Y-73913446D01*
X155915037Y-73829506D01*
X155835685Y-73732815D01*
X155738994Y-73653463D01*
X155628680Y-73594498D01*
X155508982Y-73558188D01*
X155384500Y-73545928D01*
X153479500Y-73545928D01*
X153355018Y-73558188D01*
X153235320Y-73594498D01*
X153125006Y-73653463D01*
X153028315Y-73732815D01*
X152948963Y-73829506D01*
X152889998Y-73939820D01*
X152853688Y-74059518D01*
X152841428Y-74184000D01*
X146305963Y-74184000D01*
X146161963Y-74008537D01*
X145920234Y-73810155D01*
X145644448Y-73662745D01*
X145345203Y-73571970D01*
X145034000Y-73541319D01*
X144722796Y-73571970D01*
X144423551Y-73662745D01*
X144147765Y-73810155D01*
X143906037Y-74008537D01*
X143764000Y-74181609D01*
X143621963Y-74008537D01*
X143380234Y-73810155D01*
X143104448Y-73662745D01*
X142805203Y-73571970D01*
X142494000Y-73541319D01*
X142182796Y-73571970D01*
X141883551Y-73662745D01*
X141607765Y-73810155D01*
X141481905Y-73913446D01*
X141437037Y-73829506D01*
X141357685Y-73732815D01*
X141260994Y-73653463D01*
X141150680Y-73594498D01*
X141030982Y-73558188D01*
X140906500Y-73545928D01*
X139001500Y-73545928D01*
X138877018Y-73558188D01*
X138757320Y-73594498D01*
X138647006Y-73653463D01*
X138550315Y-73732815D01*
X138470963Y-73829506D01*
X138411998Y-73939820D01*
X138375688Y-74059518D01*
X138363428Y-74184000D01*
X138363428Y-76184000D01*
X138375688Y-76308482D01*
X138411998Y-76428180D01*
X138470963Y-76538494D01*
X138550315Y-76635185D01*
X138647006Y-76714537D01*
X138757320Y-76773502D01*
X138819000Y-76792212D01*
X138819001Y-83095868D01*
X138721869Y-83193000D01*
X131119752Y-83193000D01*
X131064000Y-83187509D01*
X130841501Y-83209423D01*
X130627553Y-83274324D01*
X130430377Y-83379716D01*
X130300856Y-83486011D01*
X130300854Y-83486013D01*
X130257551Y-83521551D01*
X130222012Y-83564855D01*
X129529864Y-84257005D01*
X129486551Y-84292551D01*
X129344716Y-84465377D01*
X129245996Y-84650072D01*
X129239324Y-84662554D01*
X129174423Y-84876502D01*
X129152509Y-85099000D01*
X129158000Y-85154752D01*
X129158000Y-85804557D01*
X129147528Y-85824149D01*
X129096992Y-85990745D01*
X129079928Y-86163999D01*
X101065000Y-86163999D01*
X101065000Y-68271167D01*
X124118370Y-68271167D01*
X124118370Y-68888833D01*
X124238870Y-69494630D01*
X124475241Y-70065278D01*
X124818397Y-70578848D01*
X125255152Y-71015603D01*
X125768722Y-71358759D01*
X126339370Y-71595130D01*
X126945167Y-71715630D01*
X127562833Y-71715630D01*
X128168630Y-71595130D01*
X128739278Y-71358759D01*
X129252848Y-71015603D01*
X129689603Y-70578848D01*
X130032759Y-70065278D01*
X130269130Y-69494630D01*
X130389630Y-68888833D01*
X130389630Y-68359872D01*
X138735000Y-68359872D01*
X138735000Y-68800128D01*
X138820890Y-69231925D01*
X138989369Y-69638669D01*
X139233962Y-70004729D01*
X139545271Y-70316038D01*
X139911331Y-70560631D01*
X140318075Y-70729110D01*
X140749872Y-70815000D01*
X141190128Y-70815000D01*
X141621925Y-70729110D01*
X142028669Y-70560631D01*
X142394729Y-70316038D01*
X142706038Y-70004729D01*
X142950631Y-69638669D01*
X143119110Y-69231925D01*
X143205000Y-68800128D01*
X143205000Y-68359872D01*
X155245000Y-68359872D01*
X155245000Y-68800128D01*
X155330890Y-69231925D01*
X155499369Y-69638669D01*
X155743962Y-70004729D01*
X156055271Y-70316038D01*
X156421331Y-70560631D01*
X156828075Y-70729110D01*
X157259872Y-70815000D01*
X157700128Y-70815000D01*
X158131925Y-70729110D01*
X158538669Y-70560631D01*
X158904729Y-70316038D01*
X159216038Y-70004729D01*
X159460631Y-69638669D01*
X159629110Y-69231925D01*
X159715000Y-68800128D01*
X159715000Y-68359872D01*
X159697356Y-68271167D01*
X169330370Y-68271167D01*
X169330370Y-68888833D01*
X169450870Y-69494630D01*
X169687241Y-70065278D01*
X170030397Y-70578848D01*
X170467152Y-71015603D01*
X170980722Y-71358759D01*
X171551370Y-71595130D01*
X172157167Y-71715630D01*
X172774833Y-71715630D01*
X173380630Y-71595130D01*
X173951278Y-71358759D01*
X174464848Y-71015603D01*
X174901603Y-70578848D01*
X175244759Y-70065278D01*
X175481130Y-69494630D01*
X175601630Y-68888833D01*
X175601630Y-68271167D01*
X175481130Y-67665370D01*
X175244759Y-67094722D01*
X174901603Y-66581152D01*
X174464848Y-66144397D01*
X173951278Y-65801241D01*
X173380630Y-65564870D01*
X172774833Y-65444370D01*
X172157167Y-65444370D01*
X171551370Y-65564870D01*
X170980722Y-65801241D01*
X170467152Y-66144397D01*
X170030397Y-66581152D01*
X169687241Y-67094722D01*
X169450870Y-67665370D01*
X169330370Y-68271167D01*
X159697356Y-68271167D01*
X159629110Y-67928075D01*
X159460631Y-67521331D01*
X159216038Y-67155271D01*
X158904729Y-66843962D01*
X158538669Y-66599369D01*
X158131925Y-66430890D01*
X157700128Y-66345000D01*
X157259872Y-66345000D01*
X156828075Y-66430890D01*
X156421331Y-66599369D01*
X156055271Y-66843962D01*
X155743962Y-67155271D01*
X155499369Y-67521331D01*
X155330890Y-67928075D01*
X155245000Y-68359872D01*
X143205000Y-68359872D01*
X143119110Y-67928075D01*
X142950631Y-67521331D01*
X142706038Y-67155271D01*
X142394729Y-66843962D01*
X142028669Y-66599369D01*
X141621925Y-66430890D01*
X141190128Y-66345000D01*
X140749872Y-66345000D01*
X140318075Y-66430890D01*
X139911331Y-66599369D01*
X139545271Y-66843962D01*
X139233962Y-67155271D01*
X138989369Y-67521331D01*
X138820890Y-67928075D01*
X138735000Y-68359872D01*
X130389630Y-68359872D01*
X130389630Y-68271167D01*
X130269130Y-67665370D01*
X130032759Y-67094722D01*
X129689603Y-66581152D01*
X129252848Y-66144397D01*
X128739278Y-65801241D01*
X128168630Y-65564870D01*
X127562833Y-65444370D01*
X126945167Y-65444370D01*
X126339370Y-65564870D01*
X125768722Y-65801241D01*
X125255152Y-66144397D01*
X124818397Y-66581152D01*
X124475241Y-67094722D01*
X124238870Y-67665370D01*
X124118370Y-68271167D01*
X101065000Y-68271167D01*
X101065000Y-65979268D01*
X108147000Y-65979268D01*
X108147000Y-66340732D01*
X108217518Y-66695250D01*
X108355844Y-67029199D01*
X108556662Y-67329744D01*
X108812256Y-67585338D01*
X109112801Y-67786156D01*
X109446750Y-67924482D01*
X109801268Y-67995000D01*
X110162732Y-67995000D01*
X110517250Y-67924482D01*
X110851199Y-67786156D01*
X111151744Y-67585338D01*
X111407338Y-67329744D01*
X111608156Y-67029199D01*
X111746482Y-66695250D01*
X111817000Y-66340732D01*
X111817000Y-65979268D01*
X111746482Y-65624750D01*
X111608156Y-65290801D01*
X111407338Y-64990256D01*
X111257082Y-64840000D01*
X186756928Y-64840000D01*
X186756928Y-67240000D01*
X186769188Y-67364482D01*
X186805498Y-67484180D01*
X186864463Y-67594494D01*
X186943815Y-67691185D01*
X187040506Y-67770537D01*
X187150820Y-67829502D01*
X187270518Y-67865812D01*
X187395000Y-67878072D01*
X189795000Y-67878072D01*
X189919482Y-67865812D01*
X190039180Y-67829502D01*
X190149494Y-67770537D01*
X190246185Y-67691185D01*
X190325537Y-67594494D01*
X190384502Y-67484180D01*
X190420812Y-67364482D01*
X190433072Y-67240000D01*
X190433072Y-64840000D01*
X190420812Y-64715518D01*
X190384502Y-64595820D01*
X190325537Y-64485506D01*
X190246185Y-64388815D01*
X190149494Y-64309463D01*
X190039180Y-64250498D01*
X189919482Y-64214188D01*
X189795000Y-64201928D01*
X187395000Y-64201928D01*
X187270518Y-64214188D01*
X187150820Y-64250498D01*
X187040506Y-64309463D01*
X186943815Y-64388815D01*
X186864463Y-64485506D01*
X186805498Y-64595820D01*
X186769188Y-64715518D01*
X186756928Y-64840000D01*
X111257082Y-64840000D01*
X111151744Y-64734662D01*
X110851199Y-64533844D01*
X110517250Y-64395518D01*
X110162732Y-64325000D01*
X109801268Y-64325000D01*
X109446750Y-64395518D01*
X109112801Y-64533844D01*
X108812256Y-64734662D01*
X108556662Y-64990256D01*
X108355844Y-65290801D01*
X108217518Y-65624750D01*
X108147000Y-65979268D01*
X101065000Y-65979268D01*
X101065000Y-60104872D01*
X118415000Y-60104872D01*
X118415000Y-60545128D01*
X118500890Y-60976925D01*
X118669369Y-61383669D01*
X118913962Y-61749729D01*
X119225271Y-62061038D01*
X119591331Y-62305631D01*
X119998075Y-62474110D01*
X120429872Y-62560000D01*
X120870128Y-62560000D01*
X121301925Y-62474110D01*
X121708669Y-62305631D01*
X122074729Y-62061038D01*
X122386038Y-61749729D01*
X122630631Y-61383669D01*
X122799110Y-60976925D01*
X122885000Y-60545128D01*
X122885000Y-60104872D01*
X176835000Y-60104872D01*
X176835000Y-60545128D01*
X176920890Y-60976925D01*
X177089369Y-61383669D01*
X177333962Y-61749729D01*
X177645271Y-62061038D01*
X178011331Y-62305631D01*
X178418075Y-62474110D01*
X178849872Y-62560000D01*
X179290128Y-62560000D01*
X179721925Y-62474110D01*
X180128669Y-62305631D01*
X180494729Y-62061038D01*
X180806038Y-61749729D01*
X181050631Y-61383669D01*
X181219110Y-60976925D01*
X181305000Y-60545128D01*
X181305000Y-60104872D01*
X181219110Y-59673075D01*
X181050631Y-59266331D01*
X180806038Y-58900271D01*
X180494729Y-58588962D01*
X180128669Y-58344369D01*
X179721925Y-58175890D01*
X179290128Y-58090000D01*
X178849872Y-58090000D01*
X178418075Y-58175890D01*
X178011331Y-58344369D01*
X177645271Y-58588962D01*
X177333962Y-58900271D01*
X177089369Y-59266331D01*
X176920890Y-59673075D01*
X176835000Y-60104872D01*
X122885000Y-60104872D01*
X122799110Y-59673075D01*
X122630631Y-59266331D01*
X122386038Y-58900271D01*
X122074729Y-58588962D01*
X121708669Y-58344369D01*
X121301925Y-58175890D01*
X120870128Y-58090000D01*
X120429872Y-58090000D01*
X119998075Y-58175890D01*
X119591331Y-58344369D01*
X119225271Y-58588962D01*
X118913962Y-58900271D01*
X118669369Y-59266331D01*
X118500890Y-59673075D01*
X118415000Y-60104872D01*
X101065000Y-60104872D01*
X101065000Y-56615000D01*
X197385000Y-56615000D01*
X197385001Y-107215000D01*
G37*
X197385001Y-107215000D02*
X101065000Y-107215000D01*
X101065000Y-103284872D01*
X102540000Y-103284872D01*
X102540000Y-103725128D01*
X102625890Y-104156925D01*
X102794369Y-104563669D01*
X103038962Y-104929729D01*
X103350271Y-105241038D01*
X103716331Y-105485631D01*
X104123075Y-105654110D01*
X104554872Y-105740000D01*
X104995128Y-105740000D01*
X105426925Y-105654110D01*
X105833669Y-105485631D01*
X106199729Y-105241038D01*
X106511038Y-104929729D01*
X106755631Y-104563669D01*
X106924110Y-104156925D01*
X107010000Y-103725128D01*
X107010000Y-103284872D01*
X191440000Y-103284872D01*
X191440000Y-103725128D01*
X191525890Y-104156925D01*
X191694369Y-104563669D01*
X191938962Y-104929729D01*
X192250271Y-105241038D01*
X192616331Y-105485631D01*
X193023075Y-105654110D01*
X193454872Y-105740000D01*
X193895128Y-105740000D01*
X194326925Y-105654110D01*
X194733669Y-105485631D01*
X195099729Y-105241038D01*
X195411038Y-104929729D01*
X195655631Y-104563669D01*
X195824110Y-104156925D01*
X195910000Y-103725128D01*
X195910000Y-103284872D01*
X195824110Y-102853075D01*
X195655631Y-102446331D01*
X195411038Y-102080271D01*
X195099729Y-101768962D01*
X194733669Y-101524369D01*
X194326925Y-101355890D01*
X193895128Y-101270000D01*
X193454872Y-101270000D01*
X193023075Y-101355890D01*
X192616331Y-101524369D01*
X192250271Y-101768962D01*
X191938962Y-102080271D01*
X191694369Y-102446331D01*
X191525890Y-102853075D01*
X191440000Y-103284872D01*
X107010000Y-103284872D01*
X106924110Y-102853075D01*
X106755631Y-102446331D01*
X106511038Y-102080271D01*
X106199729Y-101768962D01*
X105833669Y-101524369D01*
X105426925Y-101355890D01*
X104995128Y-101270000D01*
X104554872Y-101270000D01*
X104123075Y-101355890D01*
X103716331Y-101524369D01*
X103350271Y-101768962D01*
X103038962Y-102080271D01*
X102794369Y-102446331D01*
X102625890Y-102853075D01*
X102540000Y-103284872D01*
X101065000Y-103284872D01*
X101065000Y-100818740D01*
X147105000Y-100818740D01*
X147105000Y-101111260D01*
X147162068Y-101398158D01*
X147274010Y-101668411D01*
X147436525Y-101911632D01*
X147643368Y-102118475D01*
X147886589Y-102280990D01*
X148156842Y-102392932D01*
X148443740Y-102450000D01*
X148736260Y-102450000D01*
X149023158Y-102392932D01*
X149293411Y-102280990D01*
X149536632Y-102118475D01*
X149743475Y-101911632D01*
X149905990Y-101668411D01*
X150017932Y-101398158D01*
X150075000Y-101111260D01*
X150075000Y-100818740D01*
X150017932Y-100531842D01*
X149905990Y-100261589D01*
X149743475Y-100018368D01*
X149536632Y-99811525D01*
X149293411Y-99649010D01*
X149023158Y-99537068D01*
X148736260Y-99480000D01*
X148443740Y-99480000D01*
X148156842Y-99537068D01*
X147886589Y-99649010D01*
X147643368Y-99811525D01*
X147436525Y-100018368D01*
X147274010Y-100261589D01*
X147162068Y-100531842D01*
X147105000Y-100818740D01*
X101065000Y-100818740D01*
X101065000Y-94949268D01*
X108147000Y-94949268D01*
X108147000Y-95310732D01*
X108217518Y-95665250D01*
X108355844Y-95999199D01*
X108556662Y-96299744D01*
X108812256Y-96555338D01*
X109112801Y-96756156D01*
X109446750Y-96894482D01*
X109801268Y-96965000D01*
X110162732Y-96965000D01*
X110517250Y-96894482D01*
X110851199Y-96756156D01*
X111151744Y-96555338D01*
X111407338Y-96299744D01*
X111608156Y-95999199D01*
X111746482Y-95665250D01*
X111817000Y-95310732D01*
X111817000Y-94949268D01*
X111746482Y-94594750D01*
X111608156Y-94260801D01*
X111495811Y-94092665D01*
X135003000Y-94092665D01*
X135003000Y-94375335D01*
X135058147Y-94652574D01*
X135166320Y-94913727D01*
X135323363Y-95148759D01*
X135523241Y-95348637D01*
X135758273Y-95505680D01*
X136019426Y-95613853D01*
X136296665Y-95669000D01*
X136579335Y-95669000D01*
X136856574Y-95613853D01*
X137117727Y-95505680D01*
X137339135Y-95357740D01*
X142533000Y-95357740D01*
X142533000Y-95650260D01*
X142590068Y-95937158D01*
X142702010Y-96207411D01*
X142864525Y-96450632D01*
X143071368Y-96657475D01*
X143314589Y-96819990D01*
X143584842Y-96931932D01*
X143871740Y-96989000D01*
X144164260Y-96989000D01*
X144451158Y-96931932D01*
X144721411Y-96819990D01*
X144964632Y-96657475D01*
X145096487Y-96525620D01*
X145118498Y-96598180D01*
X145177463Y-96708494D01*
X145256815Y-96805185D01*
X145353506Y-96884537D01*
X145463820Y-96943502D01*
X145583518Y-96979812D01*
X145708000Y-96992072D01*
X147408000Y-96992072D01*
X147532482Y-96979812D01*
X147652180Y-96943502D01*
X147762494Y-96884537D01*
X147859185Y-96805185D01*
X147938537Y-96708494D01*
X147997502Y-96598180D01*
X148033812Y-96478482D01*
X148046072Y-96354000D01*
X148046072Y-95357740D01*
X151423000Y-95357740D01*
X151423000Y-95650260D01*
X151480068Y-95937158D01*
X151592010Y-96207411D01*
X151754525Y-96450632D01*
X151961368Y-96657475D01*
X152204589Y-96819990D01*
X152474842Y-96931932D01*
X152761740Y-96989000D01*
X153054260Y-96989000D01*
X153341158Y-96931932D01*
X153611411Y-96819990D01*
X153854632Y-96657475D01*
X153986487Y-96525620D01*
X154008498Y-96598180D01*
X154067463Y-96708494D01*
X154146815Y-96805185D01*
X154243506Y-96884537D01*
X154353820Y-96943502D01*
X154473518Y-96979812D01*
X154598000Y-96992072D01*
X156298000Y-96992072D01*
X156422482Y-96979812D01*
X156542180Y-96943502D01*
X156652494Y-96884537D01*
X156749185Y-96805185D01*
X156828537Y-96708494D01*
X156887502Y-96598180D01*
X156923812Y-96478482D01*
X156936072Y-96354000D01*
X156936072Y-94704000D01*
X160613928Y-94704000D01*
X160613928Y-96304000D01*
X160626188Y-96428482D01*
X160662498Y-96548180D01*
X160721463Y-96658494D01*
X160800815Y-96755185D01*
X160897506Y-96834537D01*
X161007820Y-96893502D01*
X161127518Y-96929812D01*
X161252000Y-96942072D01*
X162852000Y-96942072D01*
X162976482Y-96929812D01*
X163096180Y-96893502D01*
X163206494Y-96834537D01*
X163303185Y-96755185D01*
X163382537Y-96658494D01*
X163441502Y-96548180D01*
X163477812Y-96428482D01*
X163490072Y-96304000D01*
X163490072Y-94704000D01*
X163477812Y-94579518D01*
X163441502Y-94459820D01*
X163382537Y-94349506D01*
X163303185Y-94252815D01*
X163206494Y-94173463D01*
X163096180Y-94114498D01*
X162976482Y-94078188D01*
X162852000Y-94065928D01*
X161252000Y-94065928D01*
X161127518Y-94078188D01*
X161007820Y-94114498D01*
X160897506Y-94173463D01*
X160800815Y-94252815D01*
X160721463Y-94349506D01*
X160662498Y-94459820D01*
X160626188Y-94579518D01*
X160613928Y-94704000D01*
X156936072Y-94704000D01*
X156936072Y-94654000D01*
X156923812Y-94529518D01*
X156887502Y-94409820D01*
X156828537Y-94299506D01*
X156749185Y-94202815D01*
X156652494Y-94123463D01*
X156542180Y-94064498D01*
X156494387Y-94050000D01*
X186756928Y-94050000D01*
X186756928Y-96450000D01*
X186769188Y-96574482D01*
X186805498Y-96694180D01*
X186864463Y-96804494D01*
X186943815Y-96901185D01*
X187040506Y-96980537D01*
X187150820Y-97039502D01*
X187270518Y-97075812D01*
X187395000Y-97088072D01*
X189795000Y-97088072D01*
X189919482Y-97075812D01*
X190039180Y-97039502D01*
X190149494Y-96980537D01*
X190246185Y-96901185D01*
X190325537Y-96804494D01*
X190384502Y-96694180D01*
X190420812Y-96574482D01*
X190433072Y-96450000D01*
X190433072Y-94050000D01*
X190420812Y-93925518D01*
X190384502Y-93805820D01*
X190325537Y-93695506D01*
X190246185Y-93598815D01*
X190149494Y-93519463D01*
X190039180Y-93460498D01*
X189919482Y-93424188D01*
X189795000Y-93411928D01*
X187395000Y-93411928D01*
X187270518Y-93424188D01*
X187150820Y-93460498D01*
X187040506Y-93519463D01*
X186943815Y-93598815D01*
X186864463Y-93695506D01*
X186805498Y-93805820D01*
X186769188Y-93925518D01*
X186756928Y-94050000D01*
X156494387Y-94050000D01*
X156422482Y-94028188D01*
X156298000Y-94015928D01*
X154598000Y-94015928D01*
X154473518Y-94028188D01*
X154353820Y-94064498D01*
X154243506Y-94123463D01*
X154146815Y-94202815D01*
X154067463Y-94299506D01*
X154008498Y-94409820D01*
X153986487Y-94482380D01*
X153854632Y-94350525D01*
X153611411Y-94188010D01*
X153341158Y-94076068D01*
X153054260Y-94019000D01*
X152761740Y-94019000D01*
X152474842Y-94076068D01*
X152204589Y-94188010D01*
X151961368Y-94350525D01*
X151754525Y-94557368D01*
X151592010Y-94800589D01*
X151480068Y-95070842D01*
X151423000Y-95357740D01*
X148046072Y-95357740D01*
X148046072Y-94654000D01*
X148033812Y-94529518D01*
X147997502Y-94409820D01*
X147938537Y-94299506D01*
X147859185Y-94202815D01*
X147762494Y-94123463D01*
X147652180Y-94064498D01*
X147532482Y-94028188D01*
X147408000Y-94015928D01*
X145708000Y-94015928D01*
X145583518Y-94028188D01*
X145463820Y-94064498D01*
X145353506Y-94123463D01*
X145256815Y-94202815D01*
X145177463Y-94299506D01*
X145118498Y-94409820D01*
X145096487Y-94482380D01*
X144964632Y-94350525D01*
X144721411Y-94188010D01*
X144451158Y-94076068D01*
X144164260Y-94019000D01*
X143871740Y-94019000D01*
X143584842Y-94076068D01*
X143314589Y-94188010D01*
X143071368Y-94350525D01*
X142864525Y-94557368D01*
X142702010Y-94800589D01*
X142590068Y-95070842D01*
X142533000Y-95357740D01*
X137339135Y-95357740D01*
X137352759Y-95348637D01*
X137552637Y-95148759D01*
X137709680Y-94913727D01*
X137817853Y-94652574D01*
X137873000Y-94375335D01*
X137873000Y-94092665D01*
X137817853Y-93815426D01*
X137709680Y-93554273D01*
X137552637Y-93319241D01*
X137352759Y-93119363D01*
X137117727Y-92962320D01*
X136856574Y-92854147D01*
X136579335Y-92799000D01*
X136296665Y-92799000D01*
X136019426Y-92854147D01*
X135758273Y-92962320D01*
X135523241Y-93119363D01*
X135323363Y-93319241D01*
X135166320Y-93554273D01*
X135058147Y-93815426D01*
X135003000Y-94092665D01*
X111495811Y-94092665D01*
X111407338Y-93960256D01*
X111151744Y-93704662D01*
X110851199Y-93503844D01*
X110517250Y-93365518D01*
X110162732Y-93295000D01*
X109801268Y-93295000D01*
X109446750Y-93365518D01*
X109112801Y-93503844D01*
X108812256Y-93704662D01*
X108556662Y-93960256D01*
X108355844Y-94260801D01*
X108217518Y-94594750D01*
X108147000Y-94949268D01*
X101065000Y-94949268D01*
X101065000Y-86163999D01*
X129079928Y-86163999D01*
X129079928Y-87064001D01*
X129096992Y-87237255D01*
X129147528Y-87403851D01*
X129158001Y-87423444D01*
X129158001Y-87837247D01*
X129158000Y-87837257D01*
X129158001Y-89106556D01*
X129147528Y-89126149D01*
X129096992Y-89292745D01*
X129079928Y-89465999D01*
X129079928Y-90366001D01*
X129096992Y-90539255D01*
X129147528Y-90705851D01*
X129229595Y-90859387D01*
X129340038Y-90993962D01*
X129474613Y-91104405D01*
X129628149Y-91186472D01*
X129794745Y-91237008D01*
X129967999Y-91254072D01*
X130618001Y-91254072D01*
X130791255Y-91237008D01*
X130957851Y-91186472D01*
X131111387Y-91104405D01*
X131245962Y-90993962D01*
X131356405Y-90859387D01*
X131438472Y-90705851D01*
X131489008Y-90539255D01*
X131506072Y-90366001D01*
X131506072Y-89465999D01*
X131489008Y-89292745D01*
X131438472Y-89126149D01*
X131428000Y-89106557D01*
X131428000Y-87723117D01*
X131524613Y-87802405D01*
X131678149Y-87884472D01*
X131844745Y-87935008D01*
X132017999Y-87952072D01*
X132668001Y-87952072D01*
X132841255Y-87935008D01*
X133007851Y-87884472D01*
X133161387Y-87802405D01*
X133226461Y-87749000D01*
X134421752Y-87749000D01*
X134588499Y-87732577D01*
X134802447Y-87667676D01*
X134999623Y-87562284D01*
X135172449Y-87420449D01*
X135314284Y-87247623D01*
X135419676Y-87050447D01*
X135484577Y-86836499D01*
X135506491Y-86614000D01*
X135484577Y-86391501D01*
X135419676Y-86177553D01*
X135314284Y-85980377D01*
X135172449Y-85807551D01*
X134999623Y-85665716D01*
X134802447Y-85560324D01*
X134588499Y-85495423D01*
X134421752Y-85479000D01*
X133226461Y-85479000D01*
X133206965Y-85463000D01*
X139136249Y-85463000D01*
X139192000Y-85468491D01*
X139247751Y-85463000D01*
X139247752Y-85463000D01*
X139414499Y-85446577D01*
X139628447Y-85381676D01*
X139825623Y-85276284D01*
X139921328Y-85197740D01*
X142533000Y-85197740D01*
X142533000Y-85490260D01*
X142590068Y-85777158D01*
X142702010Y-86047411D01*
X142864525Y-86290632D01*
X143071368Y-86497475D01*
X143314589Y-86659990D01*
X143584842Y-86771932D01*
X143871740Y-86829000D01*
X144164260Y-86829000D01*
X144451158Y-86771932D01*
X144721411Y-86659990D01*
X144964632Y-86497475D01*
X145171475Y-86290632D01*
X145288000Y-86116240D01*
X145404525Y-86290632D01*
X145611368Y-86497475D01*
X145854589Y-86659990D01*
X146124842Y-86771932D01*
X146411740Y-86829000D01*
X146704260Y-86829000D01*
X146991158Y-86771932D01*
X147261411Y-86659990D01*
X147504632Y-86497475D01*
X147711475Y-86290632D01*
X147873990Y-86047411D01*
X147985932Y-85777158D01*
X148043000Y-85490260D01*
X148043000Y-85197740D01*
X151423000Y-85197740D01*
X151423000Y-85490260D01*
X151480068Y-85777158D01*
X151592010Y-86047411D01*
X151754525Y-86290632D01*
X151961368Y-86497475D01*
X152204589Y-86659990D01*
X152474842Y-86771932D01*
X152761740Y-86829000D01*
X153054260Y-86829000D01*
X153341158Y-86771932D01*
X153611411Y-86659990D01*
X153854632Y-86497475D01*
X154061475Y-86290632D01*
X154178000Y-86116240D01*
X154294525Y-86290632D01*
X154501368Y-86497475D01*
X154744589Y-86659990D01*
X155014842Y-86771932D01*
X155301740Y-86829000D01*
X155594260Y-86829000D01*
X155881158Y-86771932D01*
X156151411Y-86659990D01*
X156394632Y-86497475D01*
X156601475Y-86290632D01*
X156763990Y-86047411D01*
X156875932Y-85777158D01*
X156933000Y-85490260D01*
X156933000Y-85197740D01*
X156875932Y-84910842D01*
X156763990Y-84640589D01*
X156601475Y-84397368D01*
X156394632Y-84190525D01*
X156151411Y-84028010D01*
X155881158Y-83916068D01*
X155594260Y-83859000D01*
X155301740Y-83859000D01*
X155014842Y-83916068D01*
X154744589Y-84028010D01*
X154501368Y-84190525D01*
X154294525Y-84397368D01*
X154178000Y-84571760D01*
X154061475Y-84397368D01*
X153854632Y-84190525D01*
X153611411Y-84028010D01*
X153341158Y-83916068D01*
X153054260Y-83859000D01*
X152761740Y-83859000D01*
X152474842Y-83916068D01*
X152204589Y-84028010D01*
X151961368Y-84190525D01*
X151754525Y-84397368D01*
X151592010Y-84640589D01*
X151480068Y-84910842D01*
X151423000Y-85197740D01*
X148043000Y-85197740D01*
X147985932Y-84910842D01*
X147873990Y-84640589D01*
X147711475Y-84397368D01*
X147504632Y-84190525D01*
X147261411Y-84028010D01*
X146991158Y-83916068D01*
X146704260Y-83859000D01*
X146411740Y-83859000D01*
X146124842Y-83916068D01*
X145854589Y-84028010D01*
X145611368Y-84190525D01*
X145404525Y-84397368D01*
X145288000Y-84571760D01*
X145171475Y-84397368D01*
X144964632Y-84190525D01*
X144721411Y-84028010D01*
X144451158Y-83916068D01*
X144164260Y-83859000D01*
X143871740Y-83859000D01*
X143584842Y-83916068D01*
X143314589Y-84028010D01*
X143071368Y-84190525D01*
X142864525Y-84397368D01*
X142702010Y-84640589D01*
X142590068Y-84910842D01*
X142533000Y-85197740D01*
X139921328Y-85197740D01*
X139998449Y-85134449D01*
X140033995Y-85091136D01*
X140717140Y-84407992D01*
X140760449Y-84372449D01*
X140902284Y-84199623D01*
X141007676Y-84002447D01*
X141072577Y-83788499D01*
X141089000Y-83621752D01*
X141094491Y-83566000D01*
X141089000Y-83510248D01*
X141089000Y-76792212D01*
X141150680Y-76773502D01*
X141260994Y-76714537D01*
X141357685Y-76635185D01*
X141437037Y-76538494D01*
X141481905Y-76454553D01*
X141607766Y-76557845D01*
X141883552Y-76705255D01*
X142182797Y-76796030D01*
X142494000Y-76826681D01*
X142805204Y-76796030D01*
X143104449Y-76705255D01*
X143380235Y-76557845D01*
X143621963Y-76359463D01*
X143764000Y-76186391D01*
X143906037Y-76359463D01*
X144147766Y-76557845D01*
X144423552Y-76705255D01*
X144722797Y-76796030D01*
X145034000Y-76826681D01*
X145345204Y-76796030D01*
X145644449Y-76705255D01*
X145920235Y-76557845D01*
X146161963Y-76359463D01*
X146360345Y-76117734D01*
X146507755Y-75841948D01*
X146598530Y-75542703D01*
X146621500Y-75309485D01*
X146621500Y-75058514D01*
X146598530Y-74825296D01*
X146507755Y-74526051D01*
X146360345Y-74250265D01*
X146305963Y-74184000D01*
X152841428Y-74184000D01*
X152841428Y-76184000D01*
X152853688Y-76308482D01*
X152889998Y-76428180D01*
X152948963Y-76538494D01*
X153028315Y-76635185D01*
X153125006Y-76714537D01*
X153235320Y-76773502D01*
X153297001Y-76792213D01*
X153297001Y-77677239D01*
X153291509Y-77733000D01*
X153313423Y-77955498D01*
X153378324Y-78169446D01*
X153378325Y-78169447D01*
X153483717Y-78366623D01*
X153625552Y-78539449D01*
X153668860Y-78574991D01*
X158797928Y-83704060D01*
X158797928Y-83762001D01*
X158814992Y-83935255D01*
X158865528Y-84101851D01*
X158876001Y-84121444D01*
X158876000Y-85804557D01*
X158865528Y-85824149D01*
X158814992Y-85990745D01*
X158797928Y-86163999D01*
X158797928Y-87064001D01*
X158814992Y-87237255D01*
X158865528Y-87403851D01*
X158947595Y-87557387D01*
X159058038Y-87691962D01*
X159192613Y-87802405D01*
X159346149Y-87884472D01*
X159512745Y-87935008D01*
X159685999Y-87952072D01*
X160336001Y-87952072D01*
X160509255Y-87935008D01*
X160675851Y-87884472D01*
X160829387Y-87802405D01*
X160963962Y-87691962D01*
X161036000Y-87604184D01*
X161108038Y-87691962D01*
X161242613Y-87802405D01*
X161396149Y-87884472D01*
X161562745Y-87935008D01*
X161735999Y-87952072D01*
X162386001Y-87952072D01*
X162559255Y-87935008D01*
X162725851Y-87884472D01*
X162879387Y-87802405D01*
X162944461Y-87749000D01*
X163631752Y-87749000D01*
X163798499Y-87732577D01*
X164012447Y-87667676D01*
X164209623Y-87562284D01*
X164382449Y-87420449D01*
X164524284Y-87247623D01*
X164629676Y-87050447D01*
X164694577Y-86836499D01*
X164716491Y-86614000D01*
X164694577Y-86391501D01*
X164629676Y-86177553D01*
X164524284Y-85980377D01*
X164382449Y-85807551D01*
X164209623Y-85665716D01*
X164012447Y-85560324D01*
X163798499Y-85495423D01*
X163631752Y-85479000D01*
X162944461Y-85479000D01*
X162879387Y-85425595D01*
X162725851Y-85343528D01*
X162559255Y-85292992D01*
X162386001Y-85275928D01*
X161735999Y-85275928D01*
X161562745Y-85292992D01*
X161396149Y-85343528D01*
X161242613Y-85425595D01*
X161146000Y-85504883D01*
X161146000Y-84121443D01*
X161156472Y-84101851D01*
X161207008Y-83935255D01*
X161224072Y-83762001D01*
X161224072Y-82861999D01*
X161207008Y-82688745D01*
X161156472Y-82522149D01*
X161074405Y-82368613D01*
X160963962Y-82234038D01*
X160829387Y-82123595D01*
X160675851Y-82041528D01*
X160509255Y-81990992D01*
X160336001Y-81973928D01*
X160278060Y-81973928D01*
X155567000Y-77262869D01*
X155567000Y-76792212D01*
X155628680Y-76773502D01*
X155738994Y-76714537D01*
X155835685Y-76635185D01*
X155915037Y-76538494D01*
X155959905Y-76454553D01*
X156085766Y-76557845D01*
X156361552Y-76705255D01*
X156660797Y-76796030D01*
X156972000Y-76826681D01*
X157283204Y-76796030D01*
X157582449Y-76705255D01*
X157858235Y-76557845D01*
X158099963Y-76359463D01*
X158242000Y-76186391D01*
X158384037Y-76359463D01*
X158625766Y-76557845D01*
X158901552Y-76705255D01*
X159200797Y-76796030D01*
X159512000Y-76826681D01*
X159823204Y-76796030D01*
X160122449Y-76705255D01*
X160398235Y-76557845D01*
X160639963Y-76359463D01*
X160838345Y-76117734D01*
X160985755Y-75841948D01*
X161076530Y-75542703D01*
X161099500Y-75309485D01*
X161099500Y-75058514D01*
X161076530Y-74825296D01*
X160985755Y-74526051D01*
X160838345Y-74250265D01*
X160639963Y-74008537D01*
X160398234Y-73810155D01*
X160122448Y-73662745D01*
X159823203Y-73571970D01*
X159512000Y-73541319D01*
X159200796Y-73571970D01*
X158901551Y-73662745D01*
X158625765Y-73810155D01*
X158384037Y-74008537D01*
X158242000Y-74181609D01*
X158099963Y-74008537D01*
X157858234Y-73810155D01*
X157582448Y-73662745D01*
X157283203Y-73571970D01*
X156972000Y-73541319D01*
X156660796Y-73571970D01*
X156361551Y-73662745D01*
X156085765Y-73810155D01*
X155959905Y-73913446D01*
X155915037Y-73829506D01*
X155835685Y-73732815D01*
X155738994Y-73653463D01*
X155628680Y-73594498D01*
X155508982Y-73558188D01*
X155384500Y-73545928D01*
X153479500Y-73545928D01*
X153355018Y-73558188D01*
X153235320Y-73594498D01*
X153125006Y-73653463D01*
X153028315Y-73732815D01*
X152948963Y-73829506D01*
X152889998Y-73939820D01*
X152853688Y-74059518D01*
X152841428Y-74184000D01*
X146305963Y-74184000D01*
X146161963Y-74008537D01*
X145920234Y-73810155D01*
X145644448Y-73662745D01*
X145345203Y-73571970D01*
X145034000Y-73541319D01*
X144722796Y-73571970D01*
X144423551Y-73662745D01*
X144147765Y-73810155D01*
X143906037Y-74008537D01*
X143764000Y-74181609D01*
X143621963Y-74008537D01*
X143380234Y-73810155D01*
X143104448Y-73662745D01*
X142805203Y-73571970D01*
X142494000Y-73541319D01*
X142182796Y-73571970D01*
X141883551Y-73662745D01*
X141607765Y-73810155D01*
X141481905Y-73913446D01*
X141437037Y-73829506D01*
X141357685Y-73732815D01*
X141260994Y-73653463D01*
X141150680Y-73594498D01*
X141030982Y-73558188D01*
X140906500Y-73545928D01*
X139001500Y-73545928D01*
X138877018Y-73558188D01*
X138757320Y-73594498D01*
X138647006Y-73653463D01*
X138550315Y-73732815D01*
X138470963Y-73829506D01*
X138411998Y-73939820D01*
X138375688Y-74059518D01*
X138363428Y-74184000D01*
X138363428Y-76184000D01*
X138375688Y-76308482D01*
X138411998Y-76428180D01*
X138470963Y-76538494D01*
X138550315Y-76635185D01*
X138647006Y-76714537D01*
X138757320Y-76773502D01*
X138819000Y-76792212D01*
X138819001Y-83095868D01*
X138721869Y-83193000D01*
X131119752Y-83193000D01*
X131064000Y-83187509D01*
X130841501Y-83209423D01*
X130627553Y-83274324D01*
X130430377Y-83379716D01*
X130300856Y-83486011D01*
X130300854Y-83486013D01*
X130257551Y-83521551D01*
X130222012Y-83564855D01*
X129529864Y-84257005D01*
X129486551Y-84292551D01*
X129344716Y-84465377D01*
X129245996Y-84650072D01*
X129239324Y-84662554D01*
X129174423Y-84876502D01*
X129152509Y-85099000D01*
X129158000Y-85154752D01*
X129158000Y-85804557D01*
X129147528Y-85824149D01*
X129096992Y-85990745D01*
X129079928Y-86163999D01*
X101065000Y-86163999D01*
X101065000Y-68271167D01*
X124118370Y-68271167D01*
X124118370Y-68888833D01*
X124238870Y-69494630D01*
X124475241Y-70065278D01*
X124818397Y-70578848D01*
X125255152Y-71015603D01*
X125768722Y-71358759D01*
X126339370Y-71595130D01*
X126945167Y-71715630D01*
X127562833Y-71715630D01*
X128168630Y-71595130D01*
X128739278Y-71358759D01*
X129252848Y-71015603D01*
X129689603Y-70578848D01*
X130032759Y-70065278D01*
X130269130Y-69494630D01*
X130389630Y-68888833D01*
X130389630Y-68359872D01*
X138735000Y-68359872D01*
X138735000Y-68800128D01*
X138820890Y-69231925D01*
X138989369Y-69638669D01*
X139233962Y-70004729D01*
X139545271Y-70316038D01*
X139911331Y-70560631D01*
X140318075Y-70729110D01*
X140749872Y-70815000D01*
X141190128Y-70815000D01*
X141621925Y-70729110D01*
X142028669Y-70560631D01*
X142394729Y-70316038D01*
X142706038Y-70004729D01*
X142950631Y-69638669D01*
X143119110Y-69231925D01*
X143205000Y-68800128D01*
X143205000Y-68359872D01*
X155245000Y-68359872D01*
X155245000Y-68800128D01*
X155330890Y-69231925D01*
X155499369Y-69638669D01*
X155743962Y-70004729D01*
X156055271Y-70316038D01*
X156421331Y-70560631D01*
X156828075Y-70729110D01*
X157259872Y-70815000D01*
X157700128Y-70815000D01*
X158131925Y-70729110D01*
X158538669Y-70560631D01*
X158904729Y-70316038D01*
X159216038Y-70004729D01*
X159460631Y-69638669D01*
X159629110Y-69231925D01*
X159715000Y-68800128D01*
X159715000Y-68359872D01*
X159697356Y-68271167D01*
X169330370Y-68271167D01*
X169330370Y-68888833D01*
X169450870Y-69494630D01*
X169687241Y-70065278D01*
X170030397Y-70578848D01*
X170467152Y-71015603D01*
X170980722Y-71358759D01*
X171551370Y-71595130D01*
X172157167Y-71715630D01*
X172774833Y-71715630D01*
X173380630Y-71595130D01*
X173951278Y-71358759D01*
X174464848Y-71015603D01*
X174901603Y-70578848D01*
X175244759Y-70065278D01*
X175481130Y-69494630D01*
X175601630Y-68888833D01*
X175601630Y-68271167D01*
X175481130Y-67665370D01*
X175244759Y-67094722D01*
X174901603Y-66581152D01*
X174464848Y-66144397D01*
X173951278Y-65801241D01*
X173380630Y-65564870D01*
X172774833Y-65444370D01*
X172157167Y-65444370D01*
X171551370Y-65564870D01*
X170980722Y-65801241D01*
X170467152Y-66144397D01*
X170030397Y-66581152D01*
X169687241Y-67094722D01*
X169450870Y-67665370D01*
X169330370Y-68271167D01*
X159697356Y-68271167D01*
X159629110Y-67928075D01*
X159460631Y-67521331D01*
X159216038Y-67155271D01*
X158904729Y-66843962D01*
X158538669Y-66599369D01*
X158131925Y-66430890D01*
X157700128Y-66345000D01*
X157259872Y-66345000D01*
X156828075Y-66430890D01*
X156421331Y-66599369D01*
X156055271Y-66843962D01*
X155743962Y-67155271D01*
X155499369Y-67521331D01*
X155330890Y-67928075D01*
X155245000Y-68359872D01*
X143205000Y-68359872D01*
X143119110Y-67928075D01*
X142950631Y-67521331D01*
X142706038Y-67155271D01*
X142394729Y-66843962D01*
X142028669Y-66599369D01*
X141621925Y-66430890D01*
X141190128Y-66345000D01*
X140749872Y-66345000D01*
X140318075Y-66430890D01*
X139911331Y-66599369D01*
X139545271Y-66843962D01*
X139233962Y-67155271D01*
X138989369Y-67521331D01*
X138820890Y-67928075D01*
X138735000Y-68359872D01*
X130389630Y-68359872D01*
X130389630Y-68271167D01*
X130269130Y-67665370D01*
X130032759Y-67094722D01*
X129689603Y-66581152D01*
X129252848Y-66144397D01*
X128739278Y-65801241D01*
X128168630Y-65564870D01*
X127562833Y-65444370D01*
X126945167Y-65444370D01*
X126339370Y-65564870D01*
X125768722Y-65801241D01*
X125255152Y-66144397D01*
X124818397Y-66581152D01*
X124475241Y-67094722D01*
X124238870Y-67665370D01*
X124118370Y-68271167D01*
X101065000Y-68271167D01*
X101065000Y-65979268D01*
X108147000Y-65979268D01*
X108147000Y-66340732D01*
X108217518Y-66695250D01*
X108355844Y-67029199D01*
X108556662Y-67329744D01*
X108812256Y-67585338D01*
X109112801Y-67786156D01*
X109446750Y-67924482D01*
X109801268Y-67995000D01*
X110162732Y-67995000D01*
X110517250Y-67924482D01*
X110851199Y-67786156D01*
X111151744Y-67585338D01*
X111407338Y-67329744D01*
X111608156Y-67029199D01*
X111746482Y-66695250D01*
X111817000Y-66340732D01*
X111817000Y-65979268D01*
X111746482Y-65624750D01*
X111608156Y-65290801D01*
X111407338Y-64990256D01*
X111257082Y-64840000D01*
X186756928Y-64840000D01*
X186756928Y-67240000D01*
X186769188Y-67364482D01*
X186805498Y-67484180D01*
X186864463Y-67594494D01*
X186943815Y-67691185D01*
X187040506Y-67770537D01*
X187150820Y-67829502D01*
X187270518Y-67865812D01*
X187395000Y-67878072D01*
X189795000Y-67878072D01*
X189919482Y-67865812D01*
X190039180Y-67829502D01*
X190149494Y-67770537D01*
X190246185Y-67691185D01*
X190325537Y-67594494D01*
X190384502Y-67484180D01*
X190420812Y-67364482D01*
X190433072Y-67240000D01*
X190433072Y-64840000D01*
X190420812Y-64715518D01*
X190384502Y-64595820D01*
X190325537Y-64485506D01*
X190246185Y-64388815D01*
X190149494Y-64309463D01*
X190039180Y-64250498D01*
X189919482Y-64214188D01*
X189795000Y-64201928D01*
X187395000Y-64201928D01*
X187270518Y-64214188D01*
X187150820Y-64250498D01*
X187040506Y-64309463D01*
X186943815Y-64388815D01*
X186864463Y-64485506D01*
X186805498Y-64595820D01*
X186769188Y-64715518D01*
X186756928Y-64840000D01*
X111257082Y-64840000D01*
X111151744Y-64734662D01*
X110851199Y-64533844D01*
X110517250Y-64395518D01*
X110162732Y-64325000D01*
X109801268Y-64325000D01*
X109446750Y-64395518D01*
X109112801Y-64533844D01*
X108812256Y-64734662D01*
X108556662Y-64990256D01*
X108355844Y-65290801D01*
X108217518Y-65624750D01*
X108147000Y-65979268D01*
X101065000Y-65979268D01*
X101065000Y-60104872D01*
X118415000Y-60104872D01*
X118415000Y-60545128D01*
X118500890Y-60976925D01*
X118669369Y-61383669D01*
X118913962Y-61749729D01*
X119225271Y-62061038D01*
X119591331Y-62305631D01*
X119998075Y-62474110D01*
X120429872Y-62560000D01*
X120870128Y-62560000D01*
X121301925Y-62474110D01*
X121708669Y-62305631D01*
X122074729Y-62061038D01*
X122386038Y-61749729D01*
X122630631Y-61383669D01*
X122799110Y-60976925D01*
X122885000Y-60545128D01*
X122885000Y-60104872D01*
X176835000Y-60104872D01*
X176835000Y-60545128D01*
X176920890Y-60976925D01*
X177089369Y-61383669D01*
X177333962Y-61749729D01*
X177645271Y-62061038D01*
X178011331Y-62305631D01*
X178418075Y-62474110D01*
X178849872Y-62560000D01*
X179290128Y-62560000D01*
X179721925Y-62474110D01*
X180128669Y-62305631D01*
X180494729Y-62061038D01*
X180806038Y-61749729D01*
X181050631Y-61383669D01*
X181219110Y-60976925D01*
X181305000Y-60545128D01*
X181305000Y-60104872D01*
X181219110Y-59673075D01*
X181050631Y-59266331D01*
X180806038Y-58900271D01*
X180494729Y-58588962D01*
X180128669Y-58344369D01*
X179721925Y-58175890D01*
X179290128Y-58090000D01*
X178849872Y-58090000D01*
X178418075Y-58175890D01*
X178011331Y-58344369D01*
X177645271Y-58588962D01*
X177333962Y-58900271D01*
X177089369Y-59266331D01*
X176920890Y-59673075D01*
X176835000Y-60104872D01*
X122885000Y-60104872D01*
X122799110Y-59673075D01*
X122630631Y-59266331D01*
X122386038Y-58900271D01*
X122074729Y-58588962D01*
X121708669Y-58344369D01*
X121301925Y-58175890D01*
X120870128Y-58090000D01*
X120429872Y-58090000D01*
X119998075Y-58175890D01*
X119591331Y-58344369D01*
X119225271Y-58588962D01*
X118913962Y-58900271D01*
X118669369Y-59266331D01*
X118500890Y-59673075D01*
X118415000Y-60104872D01*
X101065000Y-60104872D01*
X101065000Y-56615000D01*
X197385000Y-56615000D01*
X197385001Y-107215000D01*
M02*
