G04 #@! TF.GenerationSoftware,KiCad,Pcbnew,(5.1.6-0-10_14)*
G04 #@! TF.CreationDate,2020-09-28T00:01:53+01:00*
G04 #@! TF.ProjectId,AdjustablePSU,41646a75-7374-4616-926c-655053552e6b,rev?*
G04 #@! TF.SameCoordinates,Original*
G04 #@! TF.FileFunction,Paste,Top*
G04 #@! TF.FilePolarity,Positive*
%FSLAX46Y46*%
G04 Gerber Fmt 4.6, Leading zero omitted, Abs format (unit mm)*
G04 Created by KiCad (PCBNEW (5.1.6-0-10_14)) date 2020-09-28 00:01:53*
%MOMM*%
%LPD*%
G01*
G04 APERTURE LIST*
%ADD10R,3.500000X1.800000*%
G04 APERTURE END LIST*
G36*
G01*
X174302000Y-86163999D02*
X174302000Y-87064001D01*
G75*
G02*
X174052001Y-87314000I-249999J0D01*
G01*
X173401999Y-87314000D01*
G75*
G02*
X173152000Y-87064001I0J249999D01*
G01*
X173152000Y-86163999D01*
G75*
G02*
X173401999Y-85914000I249999J0D01*
G01*
X174052001Y-85914000D01*
G75*
G02*
X174302000Y-86163999I0J-249999D01*
G01*
G37*
G36*
G01*
X176352000Y-86163999D02*
X176352000Y-87064001D01*
G75*
G02*
X176102001Y-87314000I-249999J0D01*
G01*
X175451999Y-87314000D01*
G75*
G02*
X175202000Y-87064001I0J249999D01*
G01*
X175202000Y-86163999D01*
G75*
G02*
X175451999Y-85914000I249999J0D01*
G01*
X176102001Y-85914000D01*
G75*
G02*
X176352000Y-86163999I0J-249999D01*
G01*
G37*
G36*
G01*
X126822000Y-86163999D02*
X126822000Y-87064001D01*
G75*
G02*
X126572001Y-87314000I-249999J0D01*
G01*
X125921999Y-87314000D01*
G75*
G02*
X125672000Y-87064001I0J249999D01*
G01*
X125672000Y-86163999D01*
G75*
G02*
X125921999Y-85914000I249999J0D01*
G01*
X126572001Y-85914000D01*
G75*
G02*
X126822000Y-86163999I0J-249999D01*
G01*
G37*
G36*
G01*
X124772000Y-86163999D02*
X124772000Y-87064001D01*
G75*
G02*
X124522001Y-87314000I-249999J0D01*
G01*
X123871999Y-87314000D01*
G75*
G02*
X123622000Y-87064001I0J249999D01*
G01*
X123622000Y-86163999D01*
G75*
G02*
X123871999Y-85914000I249999J0D01*
G01*
X124522001Y-85914000D01*
G75*
G02*
X124772000Y-86163999I0J-249999D01*
G01*
G37*
G36*
G01*
X169623000Y-87064001D02*
X169623000Y-86163999D01*
G75*
G02*
X169872999Y-85914000I249999J0D01*
G01*
X170523001Y-85914000D01*
G75*
G02*
X170773000Y-86163999I0J-249999D01*
G01*
X170773000Y-87064001D01*
G75*
G02*
X170523001Y-87314000I-249999J0D01*
G01*
X169872999Y-87314000D01*
G75*
G02*
X169623000Y-87064001I0J249999D01*
G01*
G37*
G36*
G01*
X167573000Y-87064001D02*
X167573000Y-86163999D01*
G75*
G02*
X167822999Y-85914000I249999J0D01*
G01*
X168473001Y-85914000D01*
G75*
G02*
X168723000Y-86163999I0J-249999D01*
G01*
X168723000Y-87064001D01*
G75*
G02*
X168473001Y-87314000I-249999J0D01*
G01*
X167822999Y-87314000D01*
G75*
G02*
X167573000Y-87064001I0J249999D01*
G01*
G37*
G36*
G01*
X136068000Y-87064001D02*
X136068000Y-86163999D01*
G75*
G02*
X136317999Y-85914000I249999J0D01*
G01*
X136968001Y-85914000D01*
G75*
G02*
X137218000Y-86163999I0J-249999D01*
G01*
X137218000Y-87064001D01*
G75*
G02*
X136968001Y-87314000I-249999J0D01*
G01*
X136317999Y-87314000D01*
G75*
G02*
X136068000Y-87064001I0J249999D01*
G01*
G37*
G36*
G01*
X138118000Y-87064001D02*
X138118000Y-86163999D01*
G75*
G02*
X138367999Y-85914000I249999J0D01*
G01*
X139018001Y-85914000D01*
G75*
G02*
X139268000Y-86163999I0J-249999D01*
G01*
X139268000Y-87064001D01*
G75*
G02*
X139018001Y-87314000I-249999J0D01*
G01*
X138367999Y-87314000D01*
G75*
G02*
X138118000Y-87064001I0J249999D01*
G01*
G37*
D10*
X163155000Y-103505000D03*
X158155000Y-103505000D03*
X135422000Y-103505000D03*
X140422000Y-103505000D03*
X170728000Y-81280000D03*
X175728000Y-81280000D03*
X131278000Y-81534000D03*
X126278000Y-81534000D03*
X175220000Y-94488000D03*
X170220000Y-94488000D03*
X123992000Y-94488000D03*
X128992000Y-94488000D03*
G36*
G01*
X174485000Y-98943000D02*
X174485000Y-100193000D01*
G75*
G02*
X174235000Y-100443000I-250000J0D01*
G01*
X173310000Y-100443000D01*
G75*
G02*
X173060000Y-100193000I0J250000D01*
G01*
X173060000Y-98943000D01*
G75*
G02*
X173310000Y-98693000I250000J0D01*
G01*
X174235000Y-98693000D01*
G75*
G02*
X174485000Y-98943000I0J-250000D01*
G01*
G37*
G36*
G01*
X177460000Y-98943000D02*
X177460000Y-100193000D01*
G75*
G02*
X177210000Y-100443000I-250000J0D01*
G01*
X176285000Y-100443000D01*
G75*
G02*
X176035000Y-100193000I0J250000D01*
G01*
X176035000Y-98943000D01*
G75*
G02*
X176285000Y-98693000I250000J0D01*
G01*
X177210000Y-98693000D01*
G75*
G02*
X177460000Y-98943000I0J-250000D01*
G01*
G37*
G36*
G01*
X126660000Y-98943000D02*
X126660000Y-100193000D01*
G75*
G02*
X126410000Y-100443000I-250000J0D01*
G01*
X125485000Y-100443000D01*
G75*
G02*
X125235000Y-100193000I0J250000D01*
G01*
X125235000Y-98943000D01*
G75*
G02*
X125485000Y-98693000I250000J0D01*
G01*
X126410000Y-98693000D01*
G75*
G02*
X126660000Y-98943000I0J-250000D01*
G01*
G37*
G36*
G01*
X123685000Y-98943000D02*
X123685000Y-100193000D01*
G75*
G02*
X123435000Y-100443000I-250000J0D01*
G01*
X122510000Y-100443000D01*
G75*
G02*
X122260000Y-100193000I0J250000D01*
G01*
X122260000Y-98943000D01*
G75*
G02*
X122510000Y-98693000I250000J0D01*
G01*
X123435000Y-98693000D01*
G75*
G02*
X123685000Y-98943000I0J-250000D01*
G01*
G37*
G36*
G01*
X169106000Y-100018001D02*
X169106000Y-99117999D01*
G75*
G02*
X169355999Y-98868000I249999J0D01*
G01*
X170006001Y-98868000D01*
G75*
G02*
X170256000Y-99117999I0J-249999D01*
G01*
X170256000Y-100018001D01*
G75*
G02*
X170006001Y-100268000I-249999J0D01*
G01*
X169355999Y-100268000D01*
G75*
G02*
X169106000Y-100018001I0J249999D01*
G01*
G37*
G36*
G01*
X167056000Y-100018001D02*
X167056000Y-99117999D01*
G75*
G02*
X167305999Y-98868000I249999J0D01*
G01*
X167956001Y-98868000D01*
G75*
G02*
X168206000Y-99117999I0J-249999D01*
G01*
X168206000Y-100018001D01*
G75*
G02*
X167956001Y-100268000I-249999J0D01*
G01*
X167305999Y-100268000D01*
G75*
G02*
X167056000Y-100018001I0J249999D01*
G01*
G37*
G36*
G01*
X132410000Y-99117999D02*
X132410000Y-100018001D01*
G75*
G02*
X132160001Y-100268000I-249999J0D01*
G01*
X131509999Y-100268000D01*
G75*
G02*
X131260000Y-100018001I0J249999D01*
G01*
X131260000Y-99117999D01*
G75*
G02*
X131509999Y-98868000I249999J0D01*
G01*
X132160001Y-98868000D01*
G75*
G02*
X132410000Y-99117999I0J-249999D01*
G01*
G37*
G36*
G01*
X130360000Y-99117999D02*
X130360000Y-100018001D01*
G75*
G02*
X130110001Y-100268000I-249999J0D01*
G01*
X129459999Y-100268000D01*
G75*
G02*
X129210000Y-100018001I0J249999D01*
G01*
X129210000Y-99117999D01*
G75*
G02*
X129459999Y-98868000I249999J0D01*
G01*
X130110001Y-98868000D01*
G75*
G02*
X130360000Y-99117999I0J-249999D01*
G01*
G37*
M02*
