G04 #@! TF.GenerationSoftware,KiCad,Pcbnew,(5.1.6-0-10_14)*
G04 #@! TF.CreationDate,2020-09-28T00:01:53+01:00*
G04 #@! TF.ProjectId,AdjustablePSU,41646a75-7374-4616-926c-655053552e6b,rev?*
G04 #@! TF.SameCoordinates,Original*
G04 #@! TF.FileFunction,Soldermask,Top*
G04 #@! TF.FilePolarity,Negative*
%FSLAX46Y46*%
G04 Gerber Fmt 4.6, Leading zero omitted, Abs format (unit mm)*
G04 Created by KiCad (PCBNEW (5.1.6-0-10_14)) date 2020-09-28 00:01:53*
%MOMM*%
%LPD*%
G01*
G04 APERTURE LIST*
%ADD10C,2.800000*%
%ADD11R,2.800000X2.800000*%
%ADD12C,5.401260*%
%ADD13R,2.100000X2.100000*%
%ADD14O,2.100000X2.100000*%
%ADD15C,3.600000*%
%ADD16R,2.000000X2.000000*%
%ADD17C,2.000000*%
%ADD18R,3.900000X2.200000*%
%ADD19O,2.305000X2.400000*%
%ADD20R,2.305000X2.400000*%
G04 APERTURE END LIST*
D10*
X109982000Y-66160000D03*
D11*
X109982000Y-73660000D03*
D12*
X172466000Y-68580000D03*
X127254000Y-68580000D03*
D13*
X146558000Y-95504000D03*
D14*
X144018000Y-95504000D03*
X146558000Y-92964000D03*
X144018000Y-92964000D03*
X146558000Y-90424000D03*
X144018000Y-90424000D03*
X146558000Y-87884000D03*
X144018000Y-87884000D03*
X146558000Y-85344000D03*
X144018000Y-85344000D03*
D13*
X155448000Y-95504000D03*
D14*
X152908000Y-95504000D03*
X155448000Y-92964000D03*
X152908000Y-92964000D03*
X155448000Y-90424000D03*
X152908000Y-90424000D03*
X155448000Y-87884000D03*
X152908000Y-87884000D03*
X155448000Y-85344000D03*
X152908000Y-85344000D03*
D13*
X151130000Y-100965000D03*
D14*
X148590000Y-100965000D03*
D15*
X179070000Y-60325000D03*
X120650000Y-60325000D03*
X104775000Y-103505000D03*
X193675000Y-103505000D03*
X157480000Y-68580000D03*
X140970000Y-68580000D03*
D10*
X188595000Y-73540000D03*
D11*
X188595000Y-66040000D03*
X109982000Y-87630000D03*
D10*
X109982000Y-95130000D03*
D11*
X188595000Y-95250000D03*
D10*
X188595000Y-87750000D03*
G36*
G01*
X174502000Y-86050956D02*
X174502000Y-87177044D01*
G75*
G02*
X174165044Y-87514000I-336956J0D01*
G01*
X173288956Y-87514000D01*
G75*
G02*
X172952000Y-87177044I0J336956D01*
G01*
X172952000Y-86050956D01*
G75*
G02*
X173288956Y-85714000I336956J0D01*
G01*
X174165044Y-85714000D01*
G75*
G02*
X174502000Y-86050956I0J-336956D01*
G01*
G37*
G36*
G01*
X176552000Y-86050956D02*
X176552000Y-87177044D01*
G75*
G02*
X176215044Y-87514000I-336956J0D01*
G01*
X175338956Y-87514000D01*
G75*
G02*
X175002000Y-87177044I0J336956D01*
G01*
X175002000Y-86050956D01*
G75*
G02*
X175338956Y-85714000I336956J0D01*
G01*
X176215044Y-85714000D01*
G75*
G02*
X176552000Y-86050956I0J-336956D01*
G01*
G37*
G36*
G01*
X127022000Y-86050956D02*
X127022000Y-87177044D01*
G75*
G02*
X126685044Y-87514000I-336956J0D01*
G01*
X125808956Y-87514000D01*
G75*
G02*
X125472000Y-87177044I0J336956D01*
G01*
X125472000Y-86050956D01*
G75*
G02*
X125808956Y-85714000I336956J0D01*
G01*
X126685044Y-85714000D01*
G75*
G02*
X127022000Y-86050956I0J-336956D01*
G01*
G37*
G36*
G01*
X124972000Y-86050956D02*
X124972000Y-87177044D01*
G75*
G02*
X124635044Y-87514000I-336956J0D01*
G01*
X123758956Y-87514000D01*
G75*
G02*
X123422000Y-87177044I0J336956D01*
G01*
X123422000Y-86050956D01*
G75*
G02*
X123758956Y-85714000I336956J0D01*
G01*
X124635044Y-85714000D01*
G75*
G02*
X124972000Y-86050956I0J-336956D01*
G01*
G37*
G36*
G01*
X169423000Y-87177044D02*
X169423000Y-86050956D01*
G75*
G02*
X169759956Y-85714000I336956J0D01*
G01*
X170636044Y-85714000D01*
G75*
G02*
X170973000Y-86050956I0J-336956D01*
G01*
X170973000Y-87177044D01*
G75*
G02*
X170636044Y-87514000I-336956J0D01*
G01*
X169759956Y-87514000D01*
G75*
G02*
X169423000Y-87177044I0J336956D01*
G01*
G37*
G36*
G01*
X167373000Y-87177044D02*
X167373000Y-86050956D01*
G75*
G02*
X167709956Y-85714000I336956J0D01*
G01*
X168586044Y-85714000D01*
G75*
G02*
X168923000Y-86050956I0J-336956D01*
G01*
X168923000Y-87177044D01*
G75*
G02*
X168586044Y-87514000I-336956J0D01*
G01*
X167709956Y-87514000D01*
G75*
G02*
X167373000Y-87177044I0J336956D01*
G01*
G37*
G36*
G01*
X135868000Y-87177044D02*
X135868000Y-86050956D01*
G75*
G02*
X136204956Y-85714000I336956J0D01*
G01*
X137081044Y-85714000D01*
G75*
G02*
X137418000Y-86050956I0J-336956D01*
G01*
X137418000Y-87177044D01*
G75*
G02*
X137081044Y-87514000I-336956J0D01*
G01*
X136204956Y-87514000D01*
G75*
G02*
X135868000Y-87177044I0J336956D01*
G01*
G37*
G36*
G01*
X137918000Y-87177044D02*
X137918000Y-86050956D01*
G75*
G02*
X138254956Y-85714000I336956J0D01*
G01*
X139131044Y-85714000D01*
G75*
G02*
X139468000Y-86050956I0J-336956D01*
G01*
X139468000Y-87177044D01*
G75*
G02*
X139131044Y-87514000I-336956J0D01*
G01*
X138254956Y-87514000D01*
G75*
G02*
X137918000Y-87177044I0J336956D01*
G01*
G37*
D16*
X162052000Y-95504000D03*
D17*
X162052000Y-93004000D03*
X136438000Y-94234000D03*
D16*
X138938000Y-94234000D03*
D18*
X163155000Y-103505000D03*
X158155000Y-103505000D03*
X135422000Y-103505000D03*
X140422000Y-103505000D03*
X170728000Y-81280000D03*
X175728000Y-81280000D03*
X131278000Y-81534000D03*
X126278000Y-81534000D03*
X175220000Y-94488000D03*
X170220000Y-94488000D03*
X123992000Y-94488000D03*
X128992000Y-94488000D03*
G36*
G01*
X174685000Y-98813176D02*
X174685000Y-100322824D01*
G75*
G02*
X174364824Y-100643000I-320176J0D01*
G01*
X173180176Y-100643000D01*
G75*
G02*
X172860000Y-100322824I0J320176D01*
G01*
X172860000Y-98813176D01*
G75*
G02*
X173180176Y-98493000I320176J0D01*
G01*
X174364824Y-98493000D01*
G75*
G02*
X174685000Y-98813176I0J-320176D01*
G01*
G37*
G36*
G01*
X177660000Y-98813176D02*
X177660000Y-100322824D01*
G75*
G02*
X177339824Y-100643000I-320176J0D01*
G01*
X176155176Y-100643000D01*
G75*
G02*
X175835000Y-100322824I0J320176D01*
G01*
X175835000Y-98813176D01*
G75*
G02*
X176155176Y-98493000I320176J0D01*
G01*
X177339824Y-98493000D01*
G75*
G02*
X177660000Y-98813176I0J-320176D01*
G01*
G37*
G36*
G01*
X126860000Y-98813176D02*
X126860000Y-100322824D01*
G75*
G02*
X126539824Y-100643000I-320176J0D01*
G01*
X125355176Y-100643000D01*
G75*
G02*
X125035000Y-100322824I0J320176D01*
G01*
X125035000Y-98813176D01*
G75*
G02*
X125355176Y-98493000I320176J0D01*
G01*
X126539824Y-98493000D01*
G75*
G02*
X126860000Y-98813176I0J-320176D01*
G01*
G37*
G36*
G01*
X123885000Y-98813176D02*
X123885000Y-100322824D01*
G75*
G02*
X123564824Y-100643000I-320176J0D01*
G01*
X122380176Y-100643000D01*
G75*
G02*
X122060000Y-100322824I0J320176D01*
G01*
X122060000Y-98813176D01*
G75*
G02*
X122380176Y-98493000I320176J0D01*
G01*
X123564824Y-98493000D01*
G75*
G02*
X123885000Y-98813176I0J-320176D01*
G01*
G37*
G36*
G01*
X168906000Y-100131044D02*
X168906000Y-99004956D01*
G75*
G02*
X169242956Y-98668000I336956J0D01*
G01*
X170119044Y-98668000D01*
G75*
G02*
X170456000Y-99004956I0J-336956D01*
G01*
X170456000Y-100131044D01*
G75*
G02*
X170119044Y-100468000I-336956J0D01*
G01*
X169242956Y-100468000D01*
G75*
G02*
X168906000Y-100131044I0J336956D01*
G01*
G37*
G36*
G01*
X166856000Y-100131044D02*
X166856000Y-99004956D01*
G75*
G02*
X167192956Y-98668000I336956J0D01*
G01*
X168069044Y-98668000D01*
G75*
G02*
X168406000Y-99004956I0J-336956D01*
G01*
X168406000Y-100131044D01*
G75*
G02*
X168069044Y-100468000I-336956J0D01*
G01*
X167192956Y-100468000D01*
G75*
G02*
X166856000Y-100131044I0J336956D01*
G01*
G37*
G36*
G01*
X132610000Y-99004956D02*
X132610000Y-100131044D01*
G75*
G02*
X132273044Y-100468000I-336956J0D01*
G01*
X131396956Y-100468000D01*
G75*
G02*
X131060000Y-100131044I0J336956D01*
G01*
X131060000Y-99004956D01*
G75*
G02*
X131396956Y-98668000I336956J0D01*
G01*
X132273044Y-98668000D01*
G75*
G02*
X132610000Y-99004956I0J-336956D01*
G01*
G37*
G36*
G01*
X130560000Y-99004956D02*
X130560000Y-100131044D01*
G75*
G02*
X130223044Y-100468000I-336956J0D01*
G01*
X129346956Y-100468000D01*
G75*
G02*
X129010000Y-100131044I0J336956D01*
G01*
X129010000Y-99004956D01*
G75*
G02*
X129346956Y-98668000I336956J0D01*
G01*
X130223044Y-98668000D01*
G75*
G02*
X130560000Y-99004956I0J-336956D01*
G01*
G37*
D19*
X159512000Y-75184000D03*
X156972000Y-75184000D03*
D20*
X154432000Y-75184000D03*
X139954000Y-75184000D03*
D19*
X142494000Y-75184000D03*
X145034000Y-75184000D03*
M02*
