M48
; DRILL file {KiCad (5.1.6-0-10_14)} date Monday, September 28, 2020 at 12:01:55 AM
; FORMAT={-:-/ absolute / inch / decimal}
; #@! TF.CreationDate,2020-09-28T00:01:55+01:00
; #@! TF.GenerationSoftware,Kicad,Pcbnew,(5.1.6-0-10_14)
; #@! TF.FileFunction,Plated,1,2,PTH
FMAT,2
INCH
T1C0.0157
T2C0.0315
T3C0.0394
T4C0.0472
T5C0.0984
%
G90
G05
T1
X4.77Y-3.92
X4.7733Y-3.72
X4.83Y-3.41
X5.29Y-3.41
X5.52Y-3.41
X6.44Y-3.41
X6.76Y-3.41
X7.0Y-3.72
X7.02Y-3.92
T2
X5.3716Y-3.71
X5.47Y-3.71
X6.38Y-3.6616
X6.38Y-3.76
T3
X5.67Y-3.36
X5.67Y-3.46
X5.67Y-3.56
X5.67Y-3.66
X5.67Y-3.76
X5.77Y-3.36
X5.77Y-3.46
X5.77Y-3.56
X5.77Y-3.66
X5.77Y-3.76
X6.02Y-3.36
X6.02Y-3.46
X6.02Y-3.56
X6.02Y-3.66
X6.02Y-3.76
X6.12Y-3.36
X6.12Y-3.46
X6.12Y-3.56
X6.12Y-3.66
X6.12Y-3.76
X5.85Y-3.975
X5.95Y-3.975
T4
X7.425Y-3.4547
X7.425Y-3.75
X4.33Y-2.6047
X4.33Y-2.9
X5.51Y-2.96
X5.61Y-2.96
X5.71Y-2.96
X6.08Y-2.96
X6.18Y-2.96
X6.28Y-2.96
X7.425Y-2.6
X7.425Y-2.8953
X4.33Y-3.45
X4.33Y-3.7453
T5
X5.01Y-2.7
X6.79Y-2.7
T0
M30
