G04 #@! TF.GenerationSoftware,KiCad,Pcbnew,(5.1.6-0-10_14)*
G04 #@! TF.CreationDate,2020-09-28T00:01:53+01:00*
G04 #@! TF.ProjectId,AdjustablePSU,41646a75-7374-4616-926c-655053552e6b,rev?*
G04 #@! TF.SameCoordinates,Original*
G04 #@! TF.FileFunction,Copper,L1,Top*
G04 #@! TF.FilePolarity,Positive*
%FSLAX46Y46*%
G04 Gerber Fmt 4.6, Leading zero omitted, Abs format (unit mm)*
G04 Created by KiCad (PCBNEW (5.1.6-0-10_14)) date 2020-09-28 00:01:53*
%MOMM*%
%LPD*%
G01*
G04 APERTURE LIST*
G04 #@! TA.AperFunction,ComponentPad*
%ADD10C,2.400000*%
G04 #@! TD*
G04 #@! TA.AperFunction,ComponentPad*
%ADD11R,2.400000X2.400000*%
G04 #@! TD*
G04 #@! TA.AperFunction,ComponentPad*
%ADD12C,5.001260*%
G04 #@! TD*
G04 #@! TA.AperFunction,ComponentPad*
%ADD13R,1.700000X1.700000*%
G04 #@! TD*
G04 #@! TA.AperFunction,ComponentPad*
%ADD14O,1.700000X1.700000*%
G04 #@! TD*
G04 #@! TA.AperFunction,ComponentPad*
%ADD15R,1.600000X1.600000*%
G04 #@! TD*
G04 #@! TA.AperFunction,ComponentPad*
%ADD16C,1.600000*%
G04 #@! TD*
G04 #@! TA.AperFunction,SMDPad,CuDef*
%ADD17R,3.500000X1.800000*%
G04 #@! TD*
G04 #@! TA.AperFunction,ComponentPad*
%ADD18O,1.905000X2.000000*%
G04 #@! TD*
G04 #@! TA.AperFunction,ComponentPad*
%ADD19R,1.905000X2.000000*%
G04 #@! TD*
G04 #@! TA.AperFunction,ViaPad*
%ADD20C,0.800000*%
G04 #@! TD*
G04 #@! TA.AperFunction,Conductor*
%ADD21C,1.000000*%
G04 #@! TD*
G04 APERTURE END LIST*
D10*
X109982000Y-66160000D03*
D11*
X109982000Y-73660000D03*
D12*
X172466000Y-68580000D03*
X127254000Y-68580000D03*
D13*
X146558000Y-95504000D03*
D14*
X144018000Y-95504000D03*
X146558000Y-92964000D03*
X144018000Y-92964000D03*
X146558000Y-90424000D03*
X144018000Y-90424000D03*
X146558000Y-87884000D03*
X144018000Y-87884000D03*
X146558000Y-85344000D03*
X144018000Y-85344000D03*
D13*
X155448000Y-95504000D03*
D14*
X152908000Y-95504000D03*
X155448000Y-92964000D03*
X152908000Y-92964000D03*
X155448000Y-90424000D03*
X152908000Y-90424000D03*
X155448000Y-87884000D03*
X152908000Y-87884000D03*
X155448000Y-85344000D03*
X152908000Y-85344000D03*
D13*
X151130000Y-100965000D03*
D14*
X148590000Y-100965000D03*
D10*
X188595000Y-73540000D03*
D11*
X188595000Y-66040000D03*
X109982000Y-87630000D03*
D10*
X109982000Y-95130000D03*
D11*
X188595000Y-95250000D03*
D10*
X188595000Y-87750000D03*
G04 #@! TA.AperFunction,SMDPad,CuDef*
G36*
G01*
X174302000Y-86163999D02*
X174302000Y-87064001D01*
G75*
G02*
X174052001Y-87314000I-249999J0D01*
G01*
X173401999Y-87314000D01*
G75*
G02*
X173152000Y-87064001I0J249999D01*
G01*
X173152000Y-86163999D01*
G75*
G02*
X173401999Y-85914000I249999J0D01*
G01*
X174052001Y-85914000D01*
G75*
G02*
X174302000Y-86163999I0J-249999D01*
G01*
G37*
G04 #@! TD.AperFunction*
G04 #@! TA.AperFunction,SMDPad,CuDef*
G36*
G01*
X176352000Y-86163999D02*
X176352000Y-87064001D01*
G75*
G02*
X176102001Y-87314000I-249999J0D01*
G01*
X175451999Y-87314000D01*
G75*
G02*
X175202000Y-87064001I0J249999D01*
G01*
X175202000Y-86163999D01*
G75*
G02*
X175451999Y-85914000I249999J0D01*
G01*
X176102001Y-85914000D01*
G75*
G02*
X176352000Y-86163999I0J-249999D01*
G01*
G37*
G04 #@! TD.AperFunction*
G04 #@! TA.AperFunction,SMDPad,CuDef*
G36*
G01*
X126822000Y-86163999D02*
X126822000Y-87064001D01*
G75*
G02*
X126572001Y-87314000I-249999J0D01*
G01*
X125921999Y-87314000D01*
G75*
G02*
X125672000Y-87064001I0J249999D01*
G01*
X125672000Y-86163999D01*
G75*
G02*
X125921999Y-85914000I249999J0D01*
G01*
X126572001Y-85914000D01*
G75*
G02*
X126822000Y-86163999I0J-249999D01*
G01*
G37*
G04 #@! TD.AperFunction*
G04 #@! TA.AperFunction,SMDPad,CuDef*
G36*
G01*
X124772000Y-86163999D02*
X124772000Y-87064001D01*
G75*
G02*
X124522001Y-87314000I-249999J0D01*
G01*
X123871999Y-87314000D01*
G75*
G02*
X123622000Y-87064001I0J249999D01*
G01*
X123622000Y-86163999D01*
G75*
G02*
X123871999Y-85914000I249999J0D01*
G01*
X124522001Y-85914000D01*
G75*
G02*
X124772000Y-86163999I0J-249999D01*
G01*
G37*
G04 #@! TD.AperFunction*
G04 #@! TA.AperFunction,SMDPad,CuDef*
G36*
G01*
X169623000Y-87064001D02*
X169623000Y-86163999D01*
G75*
G02*
X169872999Y-85914000I249999J0D01*
G01*
X170523001Y-85914000D01*
G75*
G02*
X170773000Y-86163999I0J-249999D01*
G01*
X170773000Y-87064001D01*
G75*
G02*
X170523001Y-87314000I-249999J0D01*
G01*
X169872999Y-87314000D01*
G75*
G02*
X169623000Y-87064001I0J249999D01*
G01*
G37*
G04 #@! TD.AperFunction*
G04 #@! TA.AperFunction,SMDPad,CuDef*
G36*
G01*
X167573000Y-87064001D02*
X167573000Y-86163999D01*
G75*
G02*
X167822999Y-85914000I249999J0D01*
G01*
X168473001Y-85914000D01*
G75*
G02*
X168723000Y-86163999I0J-249999D01*
G01*
X168723000Y-87064001D01*
G75*
G02*
X168473001Y-87314000I-249999J0D01*
G01*
X167822999Y-87314000D01*
G75*
G02*
X167573000Y-87064001I0J249999D01*
G01*
G37*
G04 #@! TD.AperFunction*
G04 #@! TA.AperFunction,SMDPad,CuDef*
G36*
G01*
X136068000Y-87064001D02*
X136068000Y-86163999D01*
G75*
G02*
X136317999Y-85914000I249999J0D01*
G01*
X136968001Y-85914000D01*
G75*
G02*
X137218000Y-86163999I0J-249999D01*
G01*
X137218000Y-87064001D01*
G75*
G02*
X136968001Y-87314000I-249999J0D01*
G01*
X136317999Y-87314000D01*
G75*
G02*
X136068000Y-87064001I0J249999D01*
G01*
G37*
G04 #@! TD.AperFunction*
G04 #@! TA.AperFunction,SMDPad,CuDef*
G36*
G01*
X138118000Y-87064001D02*
X138118000Y-86163999D01*
G75*
G02*
X138367999Y-85914000I249999J0D01*
G01*
X139018001Y-85914000D01*
G75*
G02*
X139268000Y-86163999I0J-249999D01*
G01*
X139268000Y-87064001D01*
G75*
G02*
X139018001Y-87314000I-249999J0D01*
G01*
X138367999Y-87314000D01*
G75*
G02*
X138118000Y-87064001I0J249999D01*
G01*
G37*
G04 #@! TD.AperFunction*
D15*
X162052000Y-95504000D03*
D16*
X162052000Y-93004000D03*
X136438000Y-94234000D03*
D15*
X138938000Y-94234000D03*
D17*
X163155000Y-103505000D03*
X158155000Y-103505000D03*
X135422000Y-103505000D03*
X140422000Y-103505000D03*
X170728000Y-81280000D03*
X175728000Y-81280000D03*
X131278000Y-81534000D03*
X126278000Y-81534000D03*
X175220000Y-94488000D03*
X170220000Y-94488000D03*
X123992000Y-94488000D03*
X128992000Y-94488000D03*
G04 #@! TA.AperFunction,SMDPad,CuDef*
G36*
G01*
X174485000Y-98943000D02*
X174485000Y-100193000D01*
G75*
G02*
X174235000Y-100443000I-250000J0D01*
G01*
X173310000Y-100443000D01*
G75*
G02*
X173060000Y-100193000I0J250000D01*
G01*
X173060000Y-98943000D01*
G75*
G02*
X173310000Y-98693000I250000J0D01*
G01*
X174235000Y-98693000D01*
G75*
G02*
X174485000Y-98943000I0J-250000D01*
G01*
G37*
G04 #@! TD.AperFunction*
G04 #@! TA.AperFunction,SMDPad,CuDef*
G36*
G01*
X177460000Y-98943000D02*
X177460000Y-100193000D01*
G75*
G02*
X177210000Y-100443000I-250000J0D01*
G01*
X176285000Y-100443000D01*
G75*
G02*
X176035000Y-100193000I0J250000D01*
G01*
X176035000Y-98943000D01*
G75*
G02*
X176285000Y-98693000I250000J0D01*
G01*
X177210000Y-98693000D01*
G75*
G02*
X177460000Y-98943000I0J-250000D01*
G01*
G37*
G04 #@! TD.AperFunction*
G04 #@! TA.AperFunction,SMDPad,CuDef*
G36*
G01*
X126660000Y-98943000D02*
X126660000Y-100193000D01*
G75*
G02*
X126410000Y-100443000I-250000J0D01*
G01*
X125485000Y-100443000D01*
G75*
G02*
X125235000Y-100193000I0J250000D01*
G01*
X125235000Y-98943000D01*
G75*
G02*
X125485000Y-98693000I250000J0D01*
G01*
X126410000Y-98693000D01*
G75*
G02*
X126660000Y-98943000I0J-250000D01*
G01*
G37*
G04 #@! TD.AperFunction*
G04 #@! TA.AperFunction,SMDPad,CuDef*
G36*
G01*
X123685000Y-98943000D02*
X123685000Y-100193000D01*
G75*
G02*
X123435000Y-100443000I-250000J0D01*
G01*
X122510000Y-100443000D01*
G75*
G02*
X122260000Y-100193000I0J250000D01*
G01*
X122260000Y-98943000D01*
G75*
G02*
X122510000Y-98693000I250000J0D01*
G01*
X123435000Y-98693000D01*
G75*
G02*
X123685000Y-98943000I0J-250000D01*
G01*
G37*
G04 #@! TD.AperFunction*
G04 #@! TA.AperFunction,SMDPad,CuDef*
G36*
G01*
X169106000Y-100018001D02*
X169106000Y-99117999D01*
G75*
G02*
X169355999Y-98868000I249999J0D01*
G01*
X170006001Y-98868000D01*
G75*
G02*
X170256000Y-99117999I0J-249999D01*
G01*
X170256000Y-100018001D01*
G75*
G02*
X170006001Y-100268000I-249999J0D01*
G01*
X169355999Y-100268000D01*
G75*
G02*
X169106000Y-100018001I0J249999D01*
G01*
G37*
G04 #@! TD.AperFunction*
G04 #@! TA.AperFunction,SMDPad,CuDef*
G36*
G01*
X167056000Y-100018001D02*
X167056000Y-99117999D01*
G75*
G02*
X167305999Y-98868000I249999J0D01*
G01*
X167956001Y-98868000D01*
G75*
G02*
X168206000Y-99117999I0J-249999D01*
G01*
X168206000Y-100018001D01*
G75*
G02*
X167956001Y-100268000I-249999J0D01*
G01*
X167305999Y-100268000D01*
G75*
G02*
X167056000Y-100018001I0J249999D01*
G01*
G37*
G04 #@! TD.AperFunction*
G04 #@! TA.AperFunction,SMDPad,CuDef*
G36*
G01*
X132410000Y-99117999D02*
X132410000Y-100018001D01*
G75*
G02*
X132160001Y-100268000I-249999J0D01*
G01*
X131509999Y-100268000D01*
G75*
G02*
X131260000Y-100018001I0J249999D01*
G01*
X131260000Y-99117999D01*
G75*
G02*
X131509999Y-98868000I249999J0D01*
G01*
X132160001Y-98868000D01*
G75*
G02*
X132410000Y-99117999I0J-249999D01*
G01*
G37*
G04 #@! TD.AperFunction*
G04 #@! TA.AperFunction,SMDPad,CuDef*
G36*
G01*
X130360000Y-99117999D02*
X130360000Y-100018001D01*
G75*
G02*
X130110001Y-100268000I-249999J0D01*
G01*
X129459999Y-100268000D01*
G75*
G02*
X129210000Y-100018001I0J249999D01*
G01*
X129210000Y-99117999D01*
G75*
G02*
X129459999Y-98868000I249999J0D01*
G01*
X130110001Y-98868000D01*
G75*
G02*
X130360000Y-99117999I0J-249999D01*
G01*
G37*
G04 #@! TD.AperFunction*
D18*
X159512000Y-75184000D03*
X156972000Y-75184000D03*
D19*
X154432000Y-75184000D03*
X139954000Y-75184000D03*
D18*
X142494000Y-75184000D03*
X145034000Y-75184000D03*
D20*
X178308000Y-99568000D03*
X177800000Y-94488000D03*
X171704000Y-86614000D03*
X122682000Y-86614000D03*
X121242000Y-94488000D03*
X121158000Y-99568000D03*
X140208000Y-86614000D03*
X134366000Y-86614000D03*
X163576000Y-86614000D03*
D21*
X176747500Y-99568000D02*
X178308000Y-99568000D01*
X175220000Y-94488000D02*
X177800000Y-94488000D01*
X170198000Y-86614000D02*
X171704000Y-86614000D01*
X171704000Y-86614000D02*
X173473000Y-86614000D01*
X124197000Y-86614000D02*
X123522000Y-86614000D01*
X123522000Y-86614000D02*
X122682000Y-86614000D01*
X123992000Y-94488000D02*
X121242000Y-94488000D01*
X122972500Y-99568000D02*
X122160000Y-99568000D01*
X122160000Y-99568000D02*
X121158000Y-99568000D01*
X138693000Y-86614000D02*
X140208000Y-86614000D01*
X134246000Y-103378000D02*
X135422000Y-103378000D01*
X118230000Y-103378000D02*
X109982000Y-95130000D01*
X135422000Y-103378000D02*
X118230000Y-103378000D01*
X145279000Y-75429000D02*
X145034000Y-75184000D01*
X136643000Y-94029000D02*
X136438000Y-94234000D01*
X136643000Y-86614000D02*
X136643000Y-94029000D01*
X145034000Y-85344000D02*
X155448000Y-85344000D01*
X144018000Y-85344000D02*
X145034000Y-85344000D01*
X145034000Y-84328000D02*
X145034000Y-85344000D01*
X145034000Y-75184000D02*
X145034000Y-80264000D01*
X136184000Y-94488000D02*
X136438000Y-94234000D01*
X128992000Y-94488000D02*
X136184000Y-94488000D01*
X136438000Y-97750000D02*
X136438000Y-94234000D01*
X134620000Y-99568000D02*
X136438000Y-97750000D01*
X131835000Y-99568000D02*
X134620000Y-99568000D01*
X131278000Y-81534000D02*
X134366000Y-81534000D01*
X134366000Y-81534000D02*
X134366000Y-86614000D01*
X136643000Y-86614000D02*
X134366000Y-86614000D01*
X134366000Y-81534000D02*
X145034000Y-81534000D01*
X145034000Y-81534000D02*
X145034000Y-84328000D01*
X145034000Y-80264000D02*
X145034000Y-81534000D01*
X168148000Y-86614000D02*
X165608000Y-86614000D01*
X165608000Y-85099000D02*
X165608000Y-86614000D01*
X165608000Y-78994000D02*
X165608000Y-85099000D01*
X165608000Y-81280000D02*
X170728000Y-81280000D01*
X165608000Y-78994000D02*
X165608000Y-80264000D01*
X144018000Y-95504000D02*
X155448000Y-95504000D01*
X156972000Y-77184000D02*
X157258000Y-77470000D01*
X156972000Y-75184000D02*
X156972000Y-77184000D01*
X164084000Y-77470000D02*
X165608000Y-78994000D01*
X157258000Y-77470000D02*
X164084000Y-77470000D01*
X155448000Y-95504000D02*
X160528000Y-95504000D01*
X160528000Y-95504000D02*
X161925000Y-95504000D01*
X165608000Y-92964000D02*
X165608000Y-86614000D01*
X165608000Y-94764000D02*
X165608000Y-92964000D01*
X164868000Y-95504000D02*
X165608000Y-94764000D01*
X161925000Y-95504000D02*
X164868000Y-95504000D01*
X165884000Y-94488000D02*
X165608000Y-94764000D01*
X170220000Y-94488000D02*
X165884000Y-94488000D01*
X164084000Y-99568000D02*
X167631000Y-99568000D01*
X162052000Y-97536000D02*
X164084000Y-99568000D01*
X162052000Y-95504000D02*
X162052000Y-97536000D01*
X163576000Y-86614000D02*
X165608000Y-86614000D01*
X140422000Y-103505000D02*
X143172000Y-103505000D01*
X148590000Y-103505000D02*
X148590000Y-100965000D01*
X143172000Y-103505000D02*
X148590000Y-103505000D01*
X148590000Y-103505000D02*
X158155000Y-103505000D01*
X184159000Y-95250000D02*
X175523000Y-86614000D01*
X189230000Y-95250000D02*
X184159000Y-95250000D01*
X142494000Y-75184000D02*
X142494000Y-72644000D01*
X126278000Y-81534000D02*
X126278000Y-86329000D01*
X136144000Y-72644000D02*
X142494000Y-72644000D01*
X136144000Y-72644000D02*
X133604000Y-72644000D01*
X136144000Y-78994000D02*
X136144000Y-72644000D01*
X126918000Y-78994000D02*
X136144000Y-78994000D01*
X126278000Y-79634000D02*
X126918000Y-78994000D01*
X126278000Y-81534000D02*
X126278000Y-79634000D01*
X116466000Y-72644000D02*
X109982000Y-66160000D01*
X136144000Y-72644000D02*
X116466000Y-72644000D01*
X118110000Y-80772000D02*
X121412000Y-77470000D01*
X118110000Y-86360000D02*
X118110000Y-80772000D01*
X121412000Y-77470000D02*
X121412000Y-72644000D01*
X110102000Y-95250000D02*
X110102000Y-94368000D01*
X110102000Y-94368000D02*
X118110000Y-86360000D01*
X109982000Y-95130000D02*
X110102000Y-95250000D01*
X175728000Y-86409000D02*
X175523000Y-86614000D01*
X175728000Y-77684000D02*
X175728000Y-86409000D01*
X175728000Y-71668000D02*
X175728000Y-77684000D01*
X193040000Y-96266000D02*
X193040000Y-66040000D01*
X181356000Y-66040000D02*
X175728000Y-71668000D01*
X193040000Y-66040000D02*
X181356000Y-66040000D01*
X185674000Y-103632000D02*
X193040000Y-96266000D01*
X163282000Y-103632000D02*
X185674000Y-103632000D01*
X175728000Y-75224000D02*
X175728000Y-77684000D01*
X175688000Y-75184000D02*
X175728000Y-75224000D01*
X159512000Y-75184000D02*
X175688000Y-75184000D01*
X169681000Y-99568000D02*
X173772500Y-99568000D01*
X129785000Y-99568000D02*
X125947500Y-99568000D01*
M02*
