G04 #@! TF.GenerationSoftware,KiCad,Pcbnew,(5.1.6-0-10_14)*
G04 #@! TF.CreationDate,2020-09-28T00:01:53+01:00*
G04 #@! TF.ProjectId,AdjustablePSU,41646a75-7374-4616-926c-655053552e6b,rev?*
G04 #@! TF.SameCoordinates,Original*
G04 #@! TF.FileFunction,Legend,Top*
G04 #@! TF.FilePolarity,Positive*
%FSLAX46Y46*%
G04 Gerber Fmt 4.6, Leading zero omitted, Abs format (unit mm)*
G04 Created by KiCad (PCBNEW (5.1.6-0-10_14)) date 2020-09-28 00:01:53*
%MOMM*%
%LPD*%
G01*
G04 APERTURE LIST*
%ADD10C,0.125000*%
%ADD11C,0.200000*%
%ADD12C,1.000000*%
%ADD13C,0.100000*%
%ADD14C,0.300000*%
%ADD15C,0.120000*%
%ADD16C,0.150000*%
G04 APERTURE END LIST*
D10*
X157904761Y-78331190D02*
X157666666Y-78331190D01*
X157666666Y-77831190D01*
X158071428Y-78331190D02*
X158071428Y-77831190D01*
X158238095Y-78188333D01*
X158404761Y-77831190D01*
X158404761Y-78331190D01*
X158595238Y-77831190D02*
X158904761Y-77831190D01*
X158738095Y-78021666D01*
X158809523Y-78021666D01*
X158857142Y-78045476D01*
X158880952Y-78069285D01*
X158904761Y-78116904D01*
X158904761Y-78235952D01*
X158880952Y-78283571D01*
X158857142Y-78307380D01*
X158809523Y-78331190D01*
X158666666Y-78331190D01*
X158619047Y-78307380D01*
X158595238Y-78283571D01*
X159380952Y-78331190D02*
X159095238Y-78331190D01*
X159238095Y-78331190D02*
X159238095Y-77831190D01*
X159190476Y-77902619D01*
X159142857Y-77950238D01*
X159095238Y-77974047D01*
X159547619Y-77831190D02*
X159880952Y-77831190D01*
X159666666Y-78331190D01*
X142664761Y-78331190D02*
X142426666Y-78331190D01*
X142426666Y-77831190D01*
X142831428Y-78331190D02*
X142831428Y-77831190D01*
X142998095Y-78188333D01*
X143164761Y-77831190D01*
X143164761Y-78331190D01*
X143355238Y-77831190D02*
X143664761Y-77831190D01*
X143498095Y-78021666D01*
X143569523Y-78021666D01*
X143617142Y-78045476D01*
X143640952Y-78069285D01*
X143664761Y-78116904D01*
X143664761Y-78235952D01*
X143640952Y-78283571D01*
X143617142Y-78307380D01*
X143569523Y-78331190D01*
X143426666Y-78331190D01*
X143379047Y-78307380D01*
X143355238Y-78283571D01*
X143831428Y-77831190D02*
X144140952Y-77831190D01*
X143974285Y-78021666D01*
X144045714Y-78021666D01*
X144093333Y-78045476D01*
X144117142Y-78069285D01*
X144140952Y-78116904D01*
X144140952Y-78235952D01*
X144117142Y-78283571D01*
X144093333Y-78307380D01*
X144045714Y-78331190D01*
X143902857Y-78331190D01*
X143855238Y-78307380D01*
X143831428Y-78283571D01*
X144307619Y-77831190D02*
X144640952Y-77831190D01*
X144426666Y-78331190D01*
D11*
X145712333Y-104512333D02*
X144912333Y-104512333D01*
X145312333Y-104512333D02*
X145312333Y-103112333D01*
X145179000Y-103312333D01*
X145045666Y-103445666D01*
X144912333Y-103512333D01*
X146245666Y-103245666D02*
X146312333Y-103179000D01*
X146445666Y-103112333D01*
X146779000Y-103112333D01*
X146912333Y-103179000D01*
X146979000Y-103245666D01*
X147045666Y-103379000D01*
X147045666Y-103512333D01*
X146979000Y-103712333D01*
X146179000Y-104512333D01*
X147045666Y-104512333D01*
X147445666Y-103112333D02*
X147912333Y-104512333D01*
X148379000Y-103112333D01*
X148779000Y-104112333D02*
X149445666Y-104112333D01*
X148645666Y-104512333D02*
X149112333Y-103112333D01*
X149579000Y-104512333D01*
X150845666Y-104379000D02*
X150779000Y-104445666D01*
X150579000Y-104512333D01*
X150445666Y-104512333D01*
X150245666Y-104445666D01*
X150112333Y-104312333D01*
X150045666Y-104179000D01*
X149979000Y-103912333D01*
X149979000Y-103712333D01*
X150045666Y-103445666D01*
X150112333Y-103312333D01*
X150245666Y-103179000D01*
X150445666Y-103112333D01*
X150579000Y-103112333D01*
X150779000Y-103179000D01*
X150845666Y-103245666D01*
X152512333Y-104512333D02*
X152512333Y-103112333D01*
X153179000Y-104512333D02*
X153179000Y-103112333D01*
X153979000Y-104512333D01*
X153979000Y-103112333D01*
X145679000Y-106812333D02*
X144879000Y-106812333D01*
X145279000Y-106812333D02*
X145279000Y-105412333D01*
X145145666Y-105612333D01*
X145012333Y-105745666D01*
X144879000Y-105812333D01*
X146279000Y-106679000D02*
X146345666Y-106745666D01*
X146279000Y-106812333D01*
X146212333Y-106745666D01*
X146279000Y-106679000D01*
X146279000Y-106812333D01*
X147612333Y-105412333D02*
X146945666Y-105412333D01*
X146879000Y-106079000D01*
X146945666Y-106012333D01*
X147079000Y-105945666D01*
X147412333Y-105945666D01*
X147545666Y-106012333D01*
X147612333Y-106079000D01*
X147679000Y-106212333D01*
X147679000Y-106545666D01*
X147612333Y-106679000D01*
X147545666Y-106745666D01*
X147412333Y-106812333D01*
X147079000Y-106812333D01*
X146945666Y-106745666D01*
X146879000Y-106679000D01*
X148212333Y-106412333D02*
X148879000Y-106412333D01*
X148079000Y-106812333D02*
X148545666Y-105412333D01*
X149012333Y-106812333D01*
X150545666Y-106812333D02*
X150545666Y-105412333D01*
X151012333Y-106412333D01*
X151479000Y-105412333D01*
X151479000Y-106812333D01*
X152079000Y-106412333D02*
X152745666Y-106412333D01*
X151945666Y-106812333D02*
X152412333Y-105412333D01*
X152879000Y-106812333D01*
X153212333Y-105412333D02*
X154145666Y-106812333D01*
X154145666Y-105412333D02*
X153212333Y-106812333D01*
X149833000Y-96017666D02*
X149833000Y-94951000D01*
X150366333Y-95484333D02*
X149299666Y-95484333D01*
X148899666Y-93284333D02*
X150699666Y-94484333D01*
X149833000Y-92817666D02*
X149833000Y-91751000D01*
X150366333Y-90351000D02*
X150366333Y-91151000D01*
X150366333Y-90751000D02*
X148966333Y-90751000D01*
X149166333Y-90884333D01*
X149299666Y-91017666D01*
X149366333Y-91151000D01*
X149099666Y-89817666D02*
X149033000Y-89751000D01*
X148966333Y-89617666D01*
X148966333Y-89284333D01*
X149033000Y-89151000D01*
X149099666Y-89084333D01*
X149233000Y-89017666D01*
X149366333Y-89017666D01*
X149566333Y-89084333D01*
X150366333Y-89884333D01*
X150366333Y-89017666D01*
X148966333Y-88617666D02*
X150366333Y-88151000D01*
X148966333Y-87684333D01*
X150366333Y-87217666D02*
X148966333Y-87217666D01*
X148966333Y-86884333D01*
X149033000Y-86684333D01*
X149166333Y-86551000D01*
X149299666Y-86484333D01*
X149566333Y-86417666D01*
X149766333Y-86417666D01*
X150033000Y-86484333D01*
X150166333Y-86551000D01*
X150299666Y-86684333D01*
X150366333Y-86884333D01*
X150366333Y-87217666D01*
X150233000Y-85017666D02*
X150299666Y-85084333D01*
X150366333Y-85284333D01*
X150366333Y-85417666D01*
X150299666Y-85617666D01*
X150166333Y-85751000D01*
X150033000Y-85817666D01*
X149766333Y-85884333D01*
X149566333Y-85884333D01*
X149299666Y-85817666D01*
X149166333Y-85751000D01*
X149033000Y-85617666D01*
X148966333Y-85417666D01*
X148966333Y-85284333D01*
X149033000Y-85084333D01*
X149099666Y-85017666D01*
D12*
X142748000Y-82677000D02*
X147828000Y-82677000D01*
D13*
X161746714Y-68919285D02*
X161746714Y-68169285D01*
X161746714Y-68526428D02*
X162175285Y-68526428D01*
X162175285Y-68919285D02*
X162175285Y-68169285D01*
X162532428Y-68526428D02*
X162782428Y-68526428D01*
X162889571Y-68919285D02*
X162532428Y-68919285D01*
X162532428Y-68169285D01*
X162889571Y-68169285D01*
X163175285Y-68705000D02*
X163532428Y-68705000D01*
X163103857Y-68919285D02*
X163353857Y-68169285D01*
X163603857Y-68919285D01*
X163746714Y-68169285D02*
X164175285Y-68169285D01*
X163961000Y-68919285D02*
X163961000Y-68169285D01*
X164389571Y-68883571D02*
X164496714Y-68919285D01*
X164675285Y-68919285D01*
X164746714Y-68883571D01*
X164782428Y-68847857D01*
X164818142Y-68776428D01*
X164818142Y-68705000D01*
X164782428Y-68633571D01*
X164746714Y-68597857D01*
X164675285Y-68562142D01*
X164532428Y-68526428D01*
X164461000Y-68490714D01*
X164425285Y-68455000D01*
X164389571Y-68383571D01*
X164389571Y-68312142D01*
X164425285Y-68240714D01*
X164461000Y-68205000D01*
X164532428Y-68169285D01*
X164711000Y-68169285D01*
X164818142Y-68205000D01*
X165139571Y-68919285D02*
X165139571Y-68169285D01*
X165496714Y-68919285D02*
X165496714Y-68169285D01*
X165925285Y-68919285D01*
X165925285Y-68169285D01*
X166282428Y-68919285D02*
X166282428Y-68169285D01*
X166711000Y-68919285D02*
X166389571Y-68490714D01*
X166711000Y-68169285D02*
X166282428Y-68597857D01*
D14*
X175260000Y-65405000D02*
X175260000Y-71755000D01*
X124460000Y-65405000D02*
X124460000Y-71755000D01*
X175260000Y-65405000D02*
X124460000Y-65405000D01*
X175260000Y-71755000D02*
X124460000Y-71755000D01*
D12*
X151638000Y-82677000D02*
X156718000Y-82677000D01*
D13*
X147014714Y-68665285D02*
X147014714Y-67915285D01*
X147014714Y-68272428D02*
X147443285Y-68272428D01*
X147443285Y-68665285D02*
X147443285Y-67915285D01*
X147800428Y-68272428D02*
X148050428Y-68272428D01*
X148157571Y-68665285D02*
X147800428Y-68665285D01*
X147800428Y-67915285D01*
X148157571Y-67915285D01*
X148443285Y-68451000D02*
X148800428Y-68451000D01*
X148371857Y-68665285D02*
X148621857Y-67915285D01*
X148871857Y-68665285D01*
X149014714Y-67915285D02*
X149443285Y-67915285D01*
X149229000Y-68665285D02*
X149229000Y-67915285D01*
X149657571Y-68629571D02*
X149764714Y-68665285D01*
X149943285Y-68665285D01*
X150014714Y-68629571D01*
X150050428Y-68593857D01*
X150086142Y-68522428D01*
X150086142Y-68451000D01*
X150050428Y-68379571D01*
X150014714Y-68343857D01*
X149943285Y-68308142D01*
X149800428Y-68272428D01*
X149729000Y-68236714D01*
X149693285Y-68201000D01*
X149657571Y-68129571D01*
X149657571Y-68058142D01*
X149693285Y-67986714D01*
X149729000Y-67951000D01*
X149800428Y-67915285D01*
X149979000Y-67915285D01*
X150086142Y-67951000D01*
X150407571Y-68665285D02*
X150407571Y-67915285D01*
X150764714Y-68665285D02*
X150764714Y-67915285D01*
X151193285Y-68665285D01*
X151193285Y-67915285D01*
X151550428Y-68665285D02*
X151550428Y-67915285D01*
X151979000Y-68665285D02*
X151657571Y-68236714D01*
X151979000Y-67915285D02*
X151550428Y-68343857D01*
X132663714Y-68665285D02*
X132663714Y-67915285D01*
X132663714Y-68272428D02*
X133092285Y-68272428D01*
X133092285Y-68665285D02*
X133092285Y-67915285D01*
X133449428Y-68272428D02*
X133699428Y-68272428D01*
X133806571Y-68665285D02*
X133449428Y-68665285D01*
X133449428Y-67915285D01*
X133806571Y-67915285D01*
X134092285Y-68451000D02*
X134449428Y-68451000D01*
X134020857Y-68665285D02*
X134270857Y-67915285D01*
X134520857Y-68665285D01*
X134663714Y-67915285D02*
X135092285Y-67915285D01*
X134878000Y-68665285D02*
X134878000Y-67915285D01*
X135306571Y-68629571D02*
X135413714Y-68665285D01*
X135592285Y-68665285D01*
X135663714Y-68629571D01*
X135699428Y-68593857D01*
X135735142Y-68522428D01*
X135735142Y-68451000D01*
X135699428Y-68379571D01*
X135663714Y-68343857D01*
X135592285Y-68308142D01*
X135449428Y-68272428D01*
X135378000Y-68236714D01*
X135342285Y-68201000D01*
X135306571Y-68129571D01*
X135306571Y-68058142D01*
X135342285Y-67986714D01*
X135378000Y-67951000D01*
X135449428Y-67915285D01*
X135628000Y-67915285D01*
X135735142Y-67951000D01*
X136056571Y-68665285D02*
X136056571Y-67915285D01*
X136413714Y-68665285D02*
X136413714Y-67915285D01*
X136842285Y-68665285D01*
X136842285Y-67915285D01*
X137199428Y-68665285D02*
X137199428Y-67915285D01*
X137628000Y-68665285D02*
X137306571Y-68236714D01*
X137628000Y-67915285D02*
X137199428Y-68343857D01*
D15*
X119102000Y-69910000D02*
G75*
G03*
X119102000Y-69910000I-9120000J0D01*
G01*
X100901000Y-69910000D02*
X119063000Y-69910000D01*
X100902000Y-69870000D02*
X119062000Y-69870000D01*
X100902000Y-69830000D02*
X119062000Y-69830000D01*
X100902000Y-69790000D02*
X119062000Y-69790000D01*
X100903000Y-69750000D02*
X119061000Y-69750000D01*
X100904000Y-69710000D02*
X119060000Y-69710000D01*
X100905000Y-69670000D02*
X119059000Y-69670000D01*
X100906000Y-69630000D02*
X119058000Y-69630000D01*
X100907000Y-69590000D02*
X119057000Y-69590000D01*
X100909000Y-69550000D02*
X119055000Y-69550000D01*
X100910000Y-69510000D02*
X119054000Y-69510000D01*
X100912000Y-69470000D02*
X119052000Y-69470000D01*
X100914000Y-69430000D02*
X119050000Y-69430000D01*
X100916000Y-69390000D02*
X119048000Y-69390000D01*
X100919000Y-69350000D02*
X119045000Y-69350000D01*
X100921000Y-69310000D02*
X119043000Y-69310000D01*
X100924000Y-69270000D02*
X119040000Y-69270000D01*
X100927000Y-69230000D02*
X119037000Y-69230000D01*
X100930000Y-69189000D02*
X119034000Y-69189000D01*
X100933000Y-69149000D02*
X119031000Y-69149000D01*
X100937000Y-69109000D02*
X119027000Y-69109000D01*
X100940000Y-69069000D02*
X119024000Y-69069000D01*
X100944000Y-69029000D02*
X119020000Y-69029000D01*
X100948000Y-68989000D02*
X119016000Y-68989000D01*
X100952000Y-68949000D02*
X119012000Y-68949000D01*
X100956000Y-68909000D02*
X119008000Y-68909000D01*
X100961000Y-68869000D02*
X119003000Y-68869000D01*
X100966000Y-68829000D02*
X118998000Y-68829000D01*
X100971000Y-68789000D02*
X118993000Y-68789000D01*
X100976000Y-68749000D02*
X118988000Y-68749000D01*
X100981000Y-68709000D02*
X118983000Y-68709000D01*
X100986000Y-68669000D02*
X118978000Y-68669000D01*
X100992000Y-68629000D02*
X118972000Y-68629000D01*
X100998000Y-68589000D02*
X118966000Y-68589000D01*
X101003000Y-68549000D02*
X118961000Y-68549000D01*
X101010000Y-68509000D02*
X118954000Y-68509000D01*
X101016000Y-68469000D02*
X118948000Y-68469000D01*
X101022000Y-68429000D02*
X118942000Y-68429000D01*
X101029000Y-68389000D02*
X118935000Y-68389000D01*
X101036000Y-68349000D02*
X118928000Y-68349000D01*
X101043000Y-68309000D02*
X118921000Y-68309000D01*
X101050000Y-68269000D02*
X118914000Y-68269000D01*
X101058000Y-68229000D02*
X118906000Y-68229000D01*
X101065000Y-68189000D02*
X118899000Y-68189000D01*
X101073000Y-68149000D02*
X118891000Y-68149000D01*
X101081000Y-68109000D02*
X118883000Y-68109000D01*
X101089000Y-68069000D02*
X118875000Y-68069000D01*
X101097000Y-68029000D02*
X118867000Y-68029000D01*
X101106000Y-67989000D02*
X118858000Y-67989000D01*
X101115000Y-67949000D02*
X118849000Y-67949000D01*
X101124000Y-67909000D02*
X118840000Y-67909000D01*
X101133000Y-67869000D02*
X118831000Y-67869000D01*
X101142000Y-67829000D02*
X118822000Y-67829000D01*
X101151000Y-67789000D02*
X118813000Y-67789000D01*
X101161000Y-67749000D02*
X118803000Y-67749000D01*
X101171000Y-67709000D02*
X118793000Y-67709000D01*
X101181000Y-67669000D02*
X118783000Y-67669000D01*
X101191000Y-67629000D02*
X118773000Y-67629000D01*
X101202000Y-67589000D02*
X108542000Y-67589000D01*
X111422000Y-67589000D02*
X118762000Y-67589000D01*
X101212000Y-67549000D02*
X108542000Y-67549000D01*
X111422000Y-67549000D02*
X118752000Y-67549000D01*
X101223000Y-67509000D02*
X108542000Y-67509000D01*
X111422000Y-67509000D02*
X118741000Y-67509000D01*
X101234000Y-67469000D02*
X108542000Y-67469000D01*
X111422000Y-67469000D02*
X118730000Y-67469000D01*
X101245000Y-67429000D02*
X108542000Y-67429000D01*
X111422000Y-67429000D02*
X118719000Y-67429000D01*
X101257000Y-67389000D02*
X108542000Y-67389000D01*
X111422000Y-67389000D02*
X118707000Y-67389000D01*
X101268000Y-67349000D02*
X108542000Y-67349000D01*
X111422000Y-67349000D02*
X118696000Y-67349000D01*
X101280000Y-67309000D02*
X108542000Y-67309000D01*
X111422000Y-67309000D02*
X118684000Y-67309000D01*
X101292000Y-67269000D02*
X108542000Y-67269000D01*
X111422000Y-67269000D02*
X118672000Y-67269000D01*
X101304000Y-67229000D02*
X108542000Y-67229000D01*
X111422000Y-67229000D02*
X118660000Y-67229000D01*
X101317000Y-67189000D02*
X108542000Y-67189000D01*
X111422000Y-67189000D02*
X118647000Y-67189000D01*
X101329000Y-67149000D02*
X108542000Y-67149000D01*
X111422000Y-67149000D02*
X118635000Y-67149000D01*
X101342000Y-67109000D02*
X108542000Y-67109000D01*
X111422000Y-67109000D02*
X118622000Y-67109000D01*
X101355000Y-67069000D02*
X108542000Y-67069000D01*
X111422000Y-67069000D02*
X118609000Y-67069000D01*
X101368000Y-67029000D02*
X108542000Y-67029000D01*
X111422000Y-67029000D02*
X118596000Y-67029000D01*
X101382000Y-66989000D02*
X108542000Y-66989000D01*
X111422000Y-66989000D02*
X118582000Y-66989000D01*
X101395000Y-66949000D02*
X108542000Y-66949000D01*
X111422000Y-66949000D02*
X118569000Y-66949000D01*
X101409000Y-66909000D02*
X108542000Y-66909000D01*
X111422000Y-66909000D02*
X118555000Y-66909000D01*
X101423000Y-66869000D02*
X108542000Y-66869000D01*
X111422000Y-66869000D02*
X118541000Y-66869000D01*
X101437000Y-66829000D02*
X108542000Y-66829000D01*
X111422000Y-66829000D02*
X118527000Y-66829000D01*
X101452000Y-66789000D02*
X108542000Y-66789000D01*
X111422000Y-66789000D02*
X118512000Y-66789000D01*
X101466000Y-66749000D02*
X108542000Y-66749000D01*
X111422000Y-66749000D02*
X118498000Y-66749000D01*
X101481000Y-66709000D02*
X108542000Y-66709000D01*
X111422000Y-66709000D02*
X118483000Y-66709000D01*
X101496000Y-66669000D02*
X108542000Y-66669000D01*
X111422000Y-66669000D02*
X118468000Y-66669000D01*
X101512000Y-66629000D02*
X108542000Y-66629000D01*
X111422000Y-66629000D02*
X118452000Y-66629000D01*
X101527000Y-66589000D02*
X108542000Y-66589000D01*
X111422000Y-66589000D02*
X118437000Y-66589000D01*
X101543000Y-66549000D02*
X108542000Y-66549000D01*
X111422000Y-66549000D02*
X118421000Y-66549000D01*
X101559000Y-66509000D02*
X108542000Y-66509000D01*
X111422000Y-66509000D02*
X118405000Y-66509000D01*
X101575000Y-66469000D02*
X108542000Y-66469000D01*
X111422000Y-66469000D02*
X118389000Y-66469000D01*
X101592000Y-66429000D02*
X108542000Y-66429000D01*
X111422000Y-66429000D02*
X118372000Y-66429000D01*
X101608000Y-66389000D02*
X108542000Y-66389000D01*
X111422000Y-66389000D02*
X118356000Y-66389000D01*
X101625000Y-66349000D02*
X108542000Y-66349000D01*
X111422000Y-66349000D02*
X118339000Y-66349000D01*
X101642000Y-66309000D02*
X108542000Y-66309000D01*
X111422000Y-66309000D02*
X118322000Y-66309000D01*
X101659000Y-66269000D02*
X108542000Y-66269000D01*
X111422000Y-66269000D02*
X118305000Y-66269000D01*
X101677000Y-66229000D02*
X108542000Y-66229000D01*
X111422000Y-66229000D02*
X118287000Y-66229000D01*
X101695000Y-66189000D02*
X108542000Y-66189000D01*
X111422000Y-66189000D02*
X118269000Y-66189000D01*
X101713000Y-66149000D02*
X108542000Y-66149000D01*
X111422000Y-66149000D02*
X118251000Y-66149000D01*
X101731000Y-66109000D02*
X108542000Y-66109000D01*
X111422000Y-66109000D02*
X118233000Y-66109000D01*
X101749000Y-66069000D02*
X108542000Y-66069000D01*
X111422000Y-66069000D02*
X118215000Y-66069000D01*
X101768000Y-66029000D02*
X108542000Y-66029000D01*
X111422000Y-66029000D02*
X118196000Y-66029000D01*
X101787000Y-65989000D02*
X108542000Y-65989000D01*
X111422000Y-65989000D02*
X118177000Y-65989000D01*
X101806000Y-65949000D02*
X108542000Y-65949000D01*
X111422000Y-65949000D02*
X118158000Y-65949000D01*
X101826000Y-65909000D02*
X108542000Y-65909000D01*
X111422000Y-65909000D02*
X118138000Y-65909000D01*
X101845000Y-65869000D02*
X108542000Y-65869000D01*
X111422000Y-65869000D02*
X118119000Y-65869000D01*
X101865000Y-65829000D02*
X108542000Y-65829000D01*
X111422000Y-65829000D02*
X118099000Y-65829000D01*
X101885000Y-65789000D02*
X108542000Y-65789000D01*
X111422000Y-65789000D02*
X118079000Y-65789000D01*
X101906000Y-65749000D02*
X108542000Y-65749000D01*
X111422000Y-65749000D02*
X118058000Y-65749000D01*
X101926000Y-65709000D02*
X108542000Y-65709000D01*
X111422000Y-65709000D02*
X118038000Y-65709000D01*
X101947000Y-65669000D02*
X108542000Y-65669000D01*
X111422000Y-65669000D02*
X118017000Y-65669000D01*
X101968000Y-65629000D02*
X108542000Y-65629000D01*
X111422000Y-65629000D02*
X117996000Y-65629000D01*
X101990000Y-65589000D02*
X108542000Y-65589000D01*
X111422000Y-65589000D02*
X117974000Y-65589000D01*
X102011000Y-65549000D02*
X108542000Y-65549000D01*
X111422000Y-65549000D02*
X117953000Y-65549000D01*
X102033000Y-65509000D02*
X108542000Y-65509000D01*
X111422000Y-65509000D02*
X117931000Y-65509000D01*
X102055000Y-65469000D02*
X108542000Y-65469000D01*
X111422000Y-65469000D02*
X117909000Y-65469000D01*
X102078000Y-65429000D02*
X108542000Y-65429000D01*
X111422000Y-65429000D02*
X117886000Y-65429000D01*
X102100000Y-65389000D02*
X108542000Y-65389000D01*
X111422000Y-65389000D02*
X117864000Y-65389000D01*
X102123000Y-65349000D02*
X108542000Y-65349000D01*
X111422000Y-65349000D02*
X117841000Y-65349000D01*
X102147000Y-65309000D02*
X108542000Y-65309000D01*
X111422000Y-65309000D02*
X117817000Y-65309000D01*
X102170000Y-65269000D02*
X108542000Y-65269000D01*
X111422000Y-65269000D02*
X117794000Y-65269000D01*
X102194000Y-65229000D02*
X108542000Y-65229000D01*
X111422000Y-65229000D02*
X117770000Y-65229000D01*
X102218000Y-65189000D02*
X108542000Y-65189000D01*
X111422000Y-65189000D02*
X117746000Y-65189000D01*
X102242000Y-65149000D02*
X108542000Y-65149000D01*
X111422000Y-65149000D02*
X117722000Y-65149000D01*
X102267000Y-65109000D02*
X108542000Y-65109000D01*
X111422000Y-65109000D02*
X117697000Y-65109000D01*
X102292000Y-65069000D02*
X108542000Y-65069000D01*
X111422000Y-65069000D02*
X117672000Y-65069000D01*
X102317000Y-65029000D02*
X108542000Y-65029000D01*
X111422000Y-65029000D02*
X117647000Y-65029000D01*
X102342000Y-64989000D02*
X108542000Y-64989000D01*
X111422000Y-64989000D02*
X117622000Y-64989000D01*
X102368000Y-64949000D02*
X108542000Y-64949000D01*
X111422000Y-64949000D02*
X117596000Y-64949000D01*
X102394000Y-64909000D02*
X108542000Y-64909000D01*
X111422000Y-64909000D02*
X117570000Y-64909000D01*
X102421000Y-64869000D02*
X108542000Y-64869000D01*
X111422000Y-64869000D02*
X117543000Y-64869000D01*
X102447000Y-64829000D02*
X108542000Y-64829000D01*
X111422000Y-64829000D02*
X117517000Y-64829000D01*
X102474000Y-64789000D02*
X108542000Y-64789000D01*
X111422000Y-64789000D02*
X117490000Y-64789000D01*
X102502000Y-64749000D02*
X108542000Y-64749000D01*
X111422000Y-64749000D02*
X117462000Y-64749000D01*
X102529000Y-64709000D02*
X117435000Y-64709000D01*
X102557000Y-64669000D02*
X117407000Y-64669000D01*
X102585000Y-64629000D02*
X117379000Y-64629000D01*
X102614000Y-64589000D02*
X117350000Y-64589000D01*
X102643000Y-64549000D02*
X117321000Y-64549000D01*
X102672000Y-64509000D02*
X117292000Y-64509000D01*
X102702000Y-64469000D02*
X117262000Y-64469000D01*
X102732000Y-64429000D02*
X117232000Y-64429000D01*
X102762000Y-64389000D02*
X117202000Y-64389000D01*
X102792000Y-64349000D02*
X117172000Y-64349000D01*
X102823000Y-64309000D02*
X117141000Y-64309000D01*
X102855000Y-64269000D02*
X117109000Y-64269000D01*
X102886000Y-64229000D02*
X117078000Y-64229000D01*
X102918000Y-64189000D02*
X117046000Y-64189000D01*
X102951000Y-64149000D02*
X117013000Y-64149000D01*
X102983000Y-64109000D02*
X116981000Y-64109000D01*
X103017000Y-64069000D02*
X116947000Y-64069000D01*
X103050000Y-64029000D02*
X116914000Y-64029000D01*
X103084000Y-63989000D02*
X116880000Y-63989000D01*
X103118000Y-63949000D02*
X116846000Y-63949000D01*
X103153000Y-63909000D02*
X116811000Y-63909000D01*
X103188000Y-63869000D02*
X116776000Y-63869000D01*
X103224000Y-63829000D02*
X116740000Y-63829000D01*
X103260000Y-63789000D02*
X116704000Y-63789000D01*
X103296000Y-63749000D02*
X116668000Y-63749000D01*
X103333000Y-63709000D02*
X116631000Y-63709000D01*
X103370000Y-63669000D02*
X116594000Y-63669000D01*
X103408000Y-63629000D02*
X116556000Y-63629000D01*
X103446000Y-63589000D02*
X116518000Y-63589000D01*
X103485000Y-63549000D02*
X116479000Y-63549000D01*
X103524000Y-63509000D02*
X116440000Y-63509000D01*
X103564000Y-63469000D02*
X116400000Y-63469000D01*
X103604000Y-63429000D02*
X116360000Y-63429000D01*
X103645000Y-63389000D02*
X116319000Y-63389000D01*
X103686000Y-63349000D02*
X116278000Y-63349000D01*
X103728000Y-63309000D02*
X116236000Y-63309000D01*
X103770000Y-63269000D02*
X116194000Y-63269000D01*
X103812000Y-63229000D02*
X116152000Y-63229000D01*
X103856000Y-63189000D02*
X116108000Y-63189000D01*
X103900000Y-63149000D02*
X116064000Y-63149000D01*
X103944000Y-63109000D02*
X116020000Y-63109000D01*
X103989000Y-63069000D02*
X115975000Y-63069000D01*
X104035000Y-63029000D02*
X115929000Y-63029000D01*
X104081000Y-62989000D02*
X115883000Y-62989000D01*
X104128000Y-62949000D02*
X115836000Y-62949000D01*
X104176000Y-62909000D02*
X115788000Y-62909000D01*
X104224000Y-62869000D02*
X115740000Y-62869000D01*
X104273000Y-62829000D02*
X115691000Y-62829000D01*
X104322000Y-62789000D02*
X115642000Y-62789000D01*
X104373000Y-62749000D02*
X115591000Y-62749000D01*
X104424000Y-62709000D02*
X115540000Y-62709000D01*
X104476000Y-62669000D02*
X115488000Y-62669000D01*
X104528000Y-62629000D02*
X115436000Y-62629000D01*
X104582000Y-62589000D02*
X115382000Y-62589000D01*
X104636000Y-62549000D02*
X115328000Y-62549000D01*
X104691000Y-62509000D02*
X115273000Y-62509000D01*
X104747000Y-62469000D02*
X115217000Y-62469000D01*
X104804000Y-62429000D02*
X115160000Y-62429000D01*
X104862000Y-62389000D02*
X115102000Y-62389000D01*
X104920000Y-62349000D02*
X115044000Y-62349000D01*
X104980000Y-62309000D02*
X114984000Y-62309000D01*
X105041000Y-62269000D02*
X114923000Y-62269000D01*
X105103000Y-62229000D02*
X114861000Y-62229000D01*
X105166000Y-62189000D02*
X114798000Y-62189000D01*
X105230000Y-62149000D02*
X114734000Y-62149000D01*
X105296000Y-62109000D02*
X114668000Y-62109000D01*
X105362000Y-62069000D02*
X114602000Y-62069000D01*
X105430000Y-62029000D02*
X114534000Y-62029000D01*
X105500000Y-61989000D02*
X114464000Y-61989000D01*
X105570000Y-61949000D02*
X114394000Y-61949000D01*
X105643000Y-61909000D02*
X114321000Y-61909000D01*
X105717000Y-61869000D02*
X114247000Y-61869000D01*
X105792000Y-61829000D02*
X114172000Y-61829000D01*
X105869000Y-61789000D02*
X114095000Y-61789000D01*
X105949000Y-61749000D02*
X114015000Y-61749000D01*
X106030000Y-61710000D02*
X113934000Y-61710000D01*
X106113000Y-61670000D02*
X113851000Y-61670000D01*
X106198000Y-61630000D02*
X113766000Y-61630000D01*
X106286000Y-61590000D02*
X113678000Y-61590000D01*
X106377000Y-61550000D02*
X113587000Y-61550000D01*
X106470000Y-61510000D02*
X113494000Y-61510000D01*
X106566000Y-61470000D02*
X113398000Y-61470000D01*
X106665000Y-61430000D02*
X113299000Y-61430000D01*
X106768000Y-61390000D02*
X113196000Y-61390000D01*
X106875000Y-61350000D02*
X113089000Y-61350000D01*
X106986000Y-61310000D02*
X112978000Y-61310000D01*
X107102000Y-61270000D02*
X112862000Y-61270000D01*
X107223000Y-61230000D02*
X112741000Y-61230000D01*
X107350000Y-61190000D02*
X112614000Y-61190000D01*
X107484000Y-61150000D02*
X112480000Y-61150000D01*
X107627000Y-61110000D02*
X112337000Y-61110000D01*
X107779000Y-61070000D02*
X112185000Y-61070000D01*
X107943000Y-61030000D02*
X112021000Y-61030000D01*
X108122000Y-60990000D02*
X111842000Y-60990000D01*
X108321000Y-60950000D02*
X111643000Y-60950000D01*
X108547000Y-60910000D02*
X111417000Y-60910000D01*
X108816000Y-60870000D02*
X111148000Y-60870000D01*
X109168000Y-60830000D02*
X110796000Y-60830000D01*
X109942000Y-60790000D02*
X110022000Y-60790000D01*
X104867000Y-79669440D02*
X104867000Y-77869440D01*
X103967000Y-78769440D02*
X105767000Y-78769440D01*
D16*
X124460000Y-65230000D02*
X124460000Y-71180000D01*
X175260000Y-65230000D02*
X124460000Y-65230000D01*
X175260000Y-71180000D02*
X175260000Y-65230000D01*
X163810000Y-65230000D02*
X163810000Y-68580000D01*
X162433000Y-59690000D02*
X162433000Y-60579000D01*
X162433000Y-61468000D02*
X162433000Y-62484000D01*
X162433000Y-63627000D02*
X162433000Y-64770000D01*
X162433000Y-65913000D02*
X162433000Y-66929000D01*
X162433000Y-67818000D02*
X162433000Y-69469000D01*
X162433000Y-70231000D02*
X162433000Y-71247000D01*
X137287000Y-59563000D02*
X137287000Y-60198000D01*
X137287000Y-60833000D02*
X137287000Y-62103000D01*
X137287000Y-63119000D02*
X137287000Y-64135000D01*
X137287000Y-64643000D02*
X137287000Y-66040000D01*
X137287000Y-67056000D02*
X137287000Y-68199000D01*
X137287000Y-69088000D02*
X137287000Y-70231000D01*
X160910000Y-65230000D02*
X160910000Y-68580000D01*
X151960000Y-61480000D02*
X151960000Y-68580000D01*
X155760000Y-61480000D02*
X155760000Y-68580000D01*
X159710000Y-61480000D02*
X159710000Y-68580000D01*
X159710000Y-61480000D02*
X155760000Y-61480000D01*
X147760000Y-61480000D02*
X147760000Y-68580000D01*
X143960000Y-61480000D02*
X143960000Y-68580000D01*
X139760000Y-61480000D02*
X139760000Y-68580000D01*
X135760000Y-65230000D02*
X135763000Y-68580000D01*
X138810000Y-65230000D02*
X138811000Y-68580000D01*
X151960000Y-61480000D02*
X147760000Y-61480000D01*
X143960000Y-61480000D02*
X139760000Y-61480000D01*
X163830000Y-68580000D02*
X169291000Y-68580000D01*
X163830000Y-68580000D02*
X159766000Y-68580000D01*
X155760000Y-68580000D02*
X151960000Y-68580000D01*
X147760000Y-68580000D02*
X143960000Y-68580000D01*
X139827000Y-68580000D02*
X130302000Y-68580000D01*
D15*
X175260000Y-71180000D02*
X173410000Y-71180000D01*
X124460000Y-71180000D02*
X126310000Y-71180000D01*
X128210000Y-71180000D02*
X171460000Y-71180000D01*
X147888000Y-96834000D02*
X146558000Y-96834000D01*
X147888000Y-95504000D02*
X147888000Y-96834000D01*
X145288000Y-96834000D02*
X142688000Y-96834000D01*
X145288000Y-94234000D02*
X145288000Y-96834000D01*
X147888000Y-94234000D02*
X145288000Y-94234000D01*
X142688000Y-96834000D02*
X142688000Y-84014000D01*
X147888000Y-94234000D02*
X147888000Y-84014000D01*
X147888000Y-84014000D02*
X142688000Y-84014000D01*
X156778000Y-96834000D02*
X155448000Y-96834000D01*
X156778000Y-95504000D02*
X156778000Y-96834000D01*
X154178000Y-96834000D02*
X151578000Y-96834000D01*
X154178000Y-94234000D02*
X154178000Y-96834000D01*
X156778000Y-94234000D02*
X154178000Y-94234000D01*
X151578000Y-96834000D02*
X151578000Y-84014000D01*
X156778000Y-94234000D02*
X156778000Y-84014000D01*
X156778000Y-84014000D02*
X151578000Y-84014000D01*
X152460000Y-99635000D02*
X152460000Y-100965000D01*
X151130000Y-99635000D02*
X152460000Y-99635000D01*
X149860000Y-99635000D02*
X149860000Y-102295000D01*
X149860000Y-102295000D02*
X147260000Y-102295000D01*
X149860000Y-99635000D02*
X147260000Y-99635000D01*
X147260000Y-99635000D02*
X147260000Y-102295000D01*
X197715000Y-69790000D02*
G75*
G03*
X197715000Y-69790000I-9120000J0D01*
G01*
X197676000Y-69790000D02*
X179514000Y-69790000D01*
X197675000Y-69830000D02*
X179515000Y-69830000D01*
X197675000Y-69870000D02*
X179515000Y-69870000D01*
X197675000Y-69910000D02*
X179515000Y-69910000D01*
X197674000Y-69950000D02*
X179516000Y-69950000D01*
X197673000Y-69990000D02*
X179517000Y-69990000D01*
X197672000Y-70030000D02*
X179518000Y-70030000D01*
X197671000Y-70070000D02*
X179519000Y-70070000D01*
X197670000Y-70110000D02*
X179520000Y-70110000D01*
X197668000Y-70150000D02*
X179522000Y-70150000D01*
X197667000Y-70190000D02*
X179523000Y-70190000D01*
X197665000Y-70230000D02*
X179525000Y-70230000D01*
X197663000Y-70270000D02*
X179527000Y-70270000D01*
X197661000Y-70310000D02*
X179529000Y-70310000D01*
X197658000Y-70350000D02*
X179532000Y-70350000D01*
X197656000Y-70390000D02*
X179534000Y-70390000D01*
X197653000Y-70430000D02*
X179537000Y-70430000D01*
X197650000Y-70470000D02*
X179540000Y-70470000D01*
X197647000Y-70511000D02*
X179543000Y-70511000D01*
X197644000Y-70551000D02*
X179546000Y-70551000D01*
X197640000Y-70591000D02*
X179550000Y-70591000D01*
X197637000Y-70631000D02*
X179553000Y-70631000D01*
X197633000Y-70671000D02*
X179557000Y-70671000D01*
X197629000Y-70711000D02*
X179561000Y-70711000D01*
X197625000Y-70751000D02*
X179565000Y-70751000D01*
X197621000Y-70791000D02*
X179569000Y-70791000D01*
X197616000Y-70831000D02*
X179574000Y-70831000D01*
X197611000Y-70871000D02*
X179579000Y-70871000D01*
X197606000Y-70911000D02*
X179584000Y-70911000D01*
X197601000Y-70951000D02*
X179589000Y-70951000D01*
X197596000Y-70991000D02*
X179594000Y-70991000D01*
X197591000Y-71031000D02*
X179599000Y-71031000D01*
X197585000Y-71071000D02*
X179605000Y-71071000D01*
X197579000Y-71111000D02*
X179611000Y-71111000D01*
X197574000Y-71151000D02*
X179616000Y-71151000D01*
X197567000Y-71191000D02*
X179623000Y-71191000D01*
X197561000Y-71231000D02*
X179629000Y-71231000D01*
X197555000Y-71271000D02*
X179635000Y-71271000D01*
X197548000Y-71311000D02*
X179642000Y-71311000D01*
X197541000Y-71351000D02*
X179649000Y-71351000D01*
X197534000Y-71391000D02*
X179656000Y-71391000D01*
X197527000Y-71431000D02*
X179663000Y-71431000D01*
X197519000Y-71471000D02*
X179671000Y-71471000D01*
X197512000Y-71511000D02*
X179678000Y-71511000D01*
X197504000Y-71551000D02*
X179686000Y-71551000D01*
X197496000Y-71591000D02*
X179694000Y-71591000D01*
X197488000Y-71631000D02*
X179702000Y-71631000D01*
X197480000Y-71671000D02*
X179710000Y-71671000D01*
X197471000Y-71711000D02*
X179719000Y-71711000D01*
X197462000Y-71751000D02*
X179728000Y-71751000D01*
X197453000Y-71791000D02*
X179737000Y-71791000D01*
X197444000Y-71831000D02*
X179746000Y-71831000D01*
X197435000Y-71871000D02*
X179755000Y-71871000D01*
X197426000Y-71911000D02*
X179764000Y-71911000D01*
X197416000Y-71951000D02*
X179774000Y-71951000D01*
X197406000Y-71991000D02*
X179784000Y-71991000D01*
X197396000Y-72031000D02*
X179794000Y-72031000D01*
X197386000Y-72071000D02*
X179804000Y-72071000D01*
X197375000Y-72111000D02*
X190035000Y-72111000D01*
X187155000Y-72111000D02*
X179815000Y-72111000D01*
X197365000Y-72151000D02*
X190035000Y-72151000D01*
X187155000Y-72151000D02*
X179825000Y-72151000D01*
X197354000Y-72191000D02*
X190035000Y-72191000D01*
X187155000Y-72191000D02*
X179836000Y-72191000D01*
X197343000Y-72231000D02*
X190035000Y-72231000D01*
X187155000Y-72231000D02*
X179847000Y-72231000D01*
X197332000Y-72271000D02*
X190035000Y-72271000D01*
X187155000Y-72271000D02*
X179858000Y-72271000D01*
X197320000Y-72311000D02*
X190035000Y-72311000D01*
X187155000Y-72311000D02*
X179870000Y-72311000D01*
X197309000Y-72351000D02*
X190035000Y-72351000D01*
X187155000Y-72351000D02*
X179881000Y-72351000D01*
X197297000Y-72391000D02*
X190035000Y-72391000D01*
X187155000Y-72391000D02*
X179893000Y-72391000D01*
X197285000Y-72431000D02*
X190035000Y-72431000D01*
X187155000Y-72431000D02*
X179905000Y-72431000D01*
X197273000Y-72471000D02*
X190035000Y-72471000D01*
X187155000Y-72471000D02*
X179917000Y-72471000D01*
X197260000Y-72511000D02*
X190035000Y-72511000D01*
X187155000Y-72511000D02*
X179930000Y-72511000D01*
X197248000Y-72551000D02*
X190035000Y-72551000D01*
X187155000Y-72551000D02*
X179942000Y-72551000D01*
X197235000Y-72591000D02*
X190035000Y-72591000D01*
X187155000Y-72591000D02*
X179955000Y-72591000D01*
X197222000Y-72631000D02*
X190035000Y-72631000D01*
X187155000Y-72631000D02*
X179968000Y-72631000D01*
X197209000Y-72671000D02*
X190035000Y-72671000D01*
X187155000Y-72671000D02*
X179981000Y-72671000D01*
X197195000Y-72711000D02*
X190035000Y-72711000D01*
X187155000Y-72711000D02*
X179995000Y-72711000D01*
X197182000Y-72751000D02*
X190035000Y-72751000D01*
X187155000Y-72751000D02*
X180008000Y-72751000D01*
X197168000Y-72791000D02*
X190035000Y-72791000D01*
X187155000Y-72791000D02*
X180022000Y-72791000D01*
X197154000Y-72831000D02*
X190035000Y-72831000D01*
X187155000Y-72831000D02*
X180036000Y-72831000D01*
X197140000Y-72871000D02*
X190035000Y-72871000D01*
X187155000Y-72871000D02*
X180050000Y-72871000D01*
X197125000Y-72911000D02*
X190035000Y-72911000D01*
X187155000Y-72911000D02*
X180065000Y-72911000D01*
X197111000Y-72951000D02*
X190035000Y-72951000D01*
X187155000Y-72951000D02*
X180079000Y-72951000D01*
X197096000Y-72991000D02*
X190035000Y-72991000D01*
X187155000Y-72991000D02*
X180094000Y-72991000D01*
X197081000Y-73031000D02*
X190035000Y-73031000D01*
X187155000Y-73031000D02*
X180109000Y-73031000D01*
X197065000Y-73071000D02*
X190035000Y-73071000D01*
X187155000Y-73071000D02*
X180125000Y-73071000D01*
X197050000Y-73111000D02*
X190035000Y-73111000D01*
X187155000Y-73111000D02*
X180140000Y-73111000D01*
X197034000Y-73151000D02*
X190035000Y-73151000D01*
X187155000Y-73151000D02*
X180156000Y-73151000D01*
X197018000Y-73191000D02*
X190035000Y-73191000D01*
X187155000Y-73191000D02*
X180172000Y-73191000D01*
X197002000Y-73231000D02*
X190035000Y-73231000D01*
X187155000Y-73231000D02*
X180188000Y-73231000D01*
X196985000Y-73271000D02*
X190035000Y-73271000D01*
X187155000Y-73271000D02*
X180205000Y-73271000D01*
X196969000Y-73311000D02*
X190035000Y-73311000D01*
X187155000Y-73311000D02*
X180221000Y-73311000D01*
X196952000Y-73351000D02*
X190035000Y-73351000D01*
X187155000Y-73351000D02*
X180238000Y-73351000D01*
X196935000Y-73391000D02*
X190035000Y-73391000D01*
X187155000Y-73391000D02*
X180255000Y-73391000D01*
X196918000Y-73431000D02*
X190035000Y-73431000D01*
X187155000Y-73431000D02*
X180272000Y-73431000D01*
X196900000Y-73471000D02*
X190035000Y-73471000D01*
X187155000Y-73471000D02*
X180290000Y-73471000D01*
X196882000Y-73511000D02*
X190035000Y-73511000D01*
X187155000Y-73511000D02*
X180308000Y-73511000D01*
X196864000Y-73551000D02*
X190035000Y-73551000D01*
X187155000Y-73551000D02*
X180326000Y-73551000D01*
X196846000Y-73591000D02*
X190035000Y-73591000D01*
X187155000Y-73591000D02*
X180344000Y-73591000D01*
X196828000Y-73631000D02*
X190035000Y-73631000D01*
X187155000Y-73631000D02*
X180362000Y-73631000D01*
X196809000Y-73671000D02*
X190035000Y-73671000D01*
X187155000Y-73671000D02*
X180381000Y-73671000D01*
X196790000Y-73711000D02*
X190035000Y-73711000D01*
X187155000Y-73711000D02*
X180400000Y-73711000D01*
X196771000Y-73751000D02*
X190035000Y-73751000D01*
X187155000Y-73751000D02*
X180419000Y-73751000D01*
X196751000Y-73791000D02*
X190035000Y-73791000D01*
X187155000Y-73791000D02*
X180439000Y-73791000D01*
X196732000Y-73831000D02*
X190035000Y-73831000D01*
X187155000Y-73831000D02*
X180458000Y-73831000D01*
X196712000Y-73871000D02*
X190035000Y-73871000D01*
X187155000Y-73871000D02*
X180478000Y-73871000D01*
X196692000Y-73911000D02*
X190035000Y-73911000D01*
X187155000Y-73911000D02*
X180498000Y-73911000D01*
X196671000Y-73951000D02*
X190035000Y-73951000D01*
X187155000Y-73951000D02*
X180519000Y-73951000D01*
X196651000Y-73991000D02*
X190035000Y-73991000D01*
X187155000Y-73991000D02*
X180539000Y-73991000D01*
X196630000Y-74031000D02*
X190035000Y-74031000D01*
X187155000Y-74031000D02*
X180560000Y-74031000D01*
X196609000Y-74071000D02*
X190035000Y-74071000D01*
X187155000Y-74071000D02*
X180581000Y-74071000D01*
X196587000Y-74111000D02*
X190035000Y-74111000D01*
X187155000Y-74111000D02*
X180603000Y-74111000D01*
X196566000Y-74151000D02*
X190035000Y-74151000D01*
X187155000Y-74151000D02*
X180624000Y-74151000D01*
X196544000Y-74191000D02*
X190035000Y-74191000D01*
X187155000Y-74191000D02*
X180646000Y-74191000D01*
X196522000Y-74231000D02*
X190035000Y-74231000D01*
X187155000Y-74231000D02*
X180668000Y-74231000D01*
X196499000Y-74271000D02*
X190035000Y-74271000D01*
X187155000Y-74271000D02*
X180691000Y-74271000D01*
X196477000Y-74311000D02*
X190035000Y-74311000D01*
X187155000Y-74311000D02*
X180713000Y-74311000D01*
X196454000Y-74351000D02*
X190035000Y-74351000D01*
X187155000Y-74351000D02*
X180736000Y-74351000D01*
X196430000Y-74391000D02*
X190035000Y-74391000D01*
X187155000Y-74391000D02*
X180760000Y-74391000D01*
X196407000Y-74431000D02*
X190035000Y-74431000D01*
X187155000Y-74431000D02*
X180783000Y-74431000D01*
X196383000Y-74471000D02*
X190035000Y-74471000D01*
X187155000Y-74471000D02*
X180807000Y-74471000D01*
X196359000Y-74511000D02*
X190035000Y-74511000D01*
X187155000Y-74511000D02*
X180831000Y-74511000D01*
X196335000Y-74551000D02*
X190035000Y-74551000D01*
X187155000Y-74551000D02*
X180855000Y-74551000D01*
X196310000Y-74591000D02*
X190035000Y-74591000D01*
X187155000Y-74591000D02*
X180880000Y-74591000D01*
X196285000Y-74631000D02*
X190035000Y-74631000D01*
X187155000Y-74631000D02*
X180905000Y-74631000D01*
X196260000Y-74671000D02*
X190035000Y-74671000D01*
X187155000Y-74671000D02*
X180930000Y-74671000D01*
X196235000Y-74711000D02*
X190035000Y-74711000D01*
X187155000Y-74711000D02*
X180955000Y-74711000D01*
X196209000Y-74751000D02*
X190035000Y-74751000D01*
X187155000Y-74751000D02*
X180981000Y-74751000D01*
X196183000Y-74791000D02*
X190035000Y-74791000D01*
X187155000Y-74791000D02*
X181007000Y-74791000D01*
X196156000Y-74831000D02*
X190035000Y-74831000D01*
X187155000Y-74831000D02*
X181034000Y-74831000D01*
X196130000Y-74871000D02*
X190035000Y-74871000D01*
X187155000Y-74871000D02*
X181060000Y-74871000D01*
X196103000Y-74911000D02*
X190035000Y-74911000D01*
X187155000Y-74911000D02*
X181087000Y-74911000D01*
X196075000Y-74951000D02*
X190035000Y-74951000D01*
X187155000Y-74951000D02*
X181115000Y-74951000D01*
X196048000Y-74991000D02*
X181142000Y-74991000D01*
X196020000Y-75031000D02*
X181170000Y-75031000D01*
X195992000Y-75071000D02*
X181198000Y-75071000D01*
X195963000Y-75111000D02*
X181227000Y-75111000D01*
X195934000Y-75151000D02*
X181256000Y-75151000D01*
X195905000Y-75191000D02*
X181285000Y-75191000D01*
X195875000Y-75231000D02*
X181315000Y-75231000D01*
X195845000Y-75271000D02*
X181345000Y-75271000D01*
X195815000Y-75311000D02*
X181375000Y-75311000D01*
X195785000Y-75351000D02*
X181405000Y-75351000D01*
X195754000Y-75391000D02*
X181436000Y-75391000D01*
X195722000Y-75431000D02*
X181468000Y-75431000D01*
X195691000Y-75471000D02*
X181499000Y-75471000D01*
X195659000Y-75511000D02*
X181531000Y-75511000D01*
X195626000Y-75551000D02*
X181564000Y-75551000D01*
X195594000Y-75591000D02*
X181596000Y-75591000D01*
X195560000Y-75631000D02*
X181630000Y-75631000D01*
X195527000Y-75671000D02*
X181663000Y-75671000D01*
X195493000Y-75711000D02*
X181697000Y-75711000D01*
X195459000Y-75751000D02*
X181731000Y-75751000D01*
X195424000Y-75791000D02*
X181766000Y-75791000D01*
X195389000Y-75831000D02*
X181801000Y-75831000D01*
X195353000Y-75871000D02*
X181837000Y-75871000D01*
X195317000Y-75911000D02*
X181873000Y-75911000D01*
X195281000Y-75951000D02*
X181909000Y-75951000D01*
X195244000Y-75991000D02*
X181946000Y-75991000D01*
X195207000Y-76031000D02*
X181983000Y-76031000D01*
X195169000Y-76071000D02*
X182021000Y-76071000D01*
X195131000Y-76111000D02*
X182059000Y-76111000D01*
X195092000Y-76151000D02*
X182098000Y-76151000D01*
X195053000Y-76191000D02*
X182137000Y-76191000D01*
X195013000Y-76231000D02*
X182177000Y-76231000D01*
X194973000Y-76271000D02*
X182217000Y-76271000D01*
X194932000Y-76311000D02*
X182258000Y-76311000D01*
X194891000Y-76351000D02*
X182299000Y-76351000D01*
X194849000Y-76391000D02*
X182341000Y-76391000D01*
X194807000Y-76431000D02*
X182383000Y-76431000D01*
X194765000Y-76471000D02*
X182425000Y-76471000D01*
X194721000Y-76511000D02*
X182469000Y-76511000D01*
X194677000Y-76551000D02*
X182513000Y-76551000D01*
X194633000Y-76591000D02*
X182557000Y-76591000D01*
X194588000Y-76631000D02*
X182602000Y-76631000D01*
X194542000Y-76671000D02*
X182648000Y-76671000D01*
X194496000Y-76711000D02*
X182694000Y-76711000D01*
X194449000Y-76751000D02*
X182741000Y-76751000D01*
X194401000Y-76791000D02*
X182789000Y-76791000D01*
X194353000Y-76831000D02*
X182837000Y-76831000D01*
X194304000Y-76871000D02*
X182886000Y-76871000D01*
X194255000Y-76911000D02*
X182935000Y-76911000D01*
X194204000Y-76951000D02*
X182986000Y-76951000D01*
X194153000Y-76991000D02*
X183037000Y-76991000D01*
X194101000Y-77031000D02*
X183089000Y-77031000D01*
X194049000Y-77071000D02*
X183141000Y-77071000D01*
X193995000Y-77111000D02*
X183195000Y-77111000D01*
X193941000Y-77151000D02*
X183249000Y-77151000D01*
X193886000Y-77191000D02*
X183304000Y-77191000D01*
X193830000Y-77231000D02*
X183360000Y-77231000D01*
X193773000Y-77271000D02*
X183417000Y-77271000D01*
X193715000Y-77311000D02*
X183475000Y-77311000D01*
X193657000Y-77351000D02*
X183533000Y-77351000D01*
X193597000Y-77391000D02*
X183593000Y-77391000D01*
X193536000Y-77431000D02*
X183654000Y-77431000D01*
X193474000Y-77471000D02*
X183716000Y-77471000D01*
X193411000Y-77511000D02*
X183779000Y-77511000D01*
X193347000Y-77551000D02*
X183843000Y-77551000D01*
X193281000Y-77591000D02*
X183909000Y-77591000D01*
X193215000Y-77631000D02*
X183975000Y-77631000D01*
X193147000Y-77671000D02*
X184043000Y-77671000D01*
X193077000Y-77711000D02*
X184113000Y-77711000D01*
X193007000Y-77751000D02*
X184183000Y-77751000D01*
X192934000Y-77791000D02*
X184256000Y-77791000D01*
X192860000Y-77831000D02*
X184330000Y-77831000D01*
X192785000Y-77871000D02*
X184405000Y-77871000D01*
X192708000Y-77911000D02*
X184482000Y-77911000D01*
X192628000Y-77951000D02*
X184562000Y-77951000D01*
X192547000Y-77990000D02*
X184643000Y-77990000D01*
X192464000Y-78030000D02*
X184726000Y-78030000D01*
X192379000Y-78070000D02*
X184811000Y-78070000D01*
X192291000Y-78110000D02*
X184899000Y-78110000D01*
X192200000Y-78150000D02*
X184990000Y-78150000D01*
X192107000Y-78190000D02*
X185083000Y-78190000D01*
X192011000Y-78230000D02*
X185179000Y-78230000D01*
X191912000Y-78270000D02*
X185278000Y-78270000D01*
X191809000Y-78310000D02*
X185381000Y-78310000D01*
X191702000Y-78350000D02*
X185488000Y-78350000D01*
X191591000Y-78390000D02*
X185599000Y-78390000D01*
X191475000Y-78430000D02*
X185715000Y-78430000D01*
X191354000Y-78470000D02*
X185836000Y-78470000D01*
X191227000Y-78510000D02*
X185963000Y-78510000D01*
X191093000Y-78550000D02*
X186097000Y-78550000D01*
X190950000Y-78590000D02*
X186240000Y-78590000D01*
X190798000Y-78630000D02*
X186392000Y-78630000D01*
X190634000Y-78670000D02*
X186556000Y-78670000D01*
X190455000Y-78710000D02*
X186735000Y-78710000D01*
X190256000Y-78750000D02*
X186934000Y-78750000D01*
X190030000Y-78790000D02*
X187160000Y-78790000D01*
X189761000Y-78830000D02*
X187429000Y-78830000D01*
X189409000Y-78870000D02*
X187781000Y-78870000D01*
X188635000Y-78910000D02*
X188555000Y-78910000D01*
X193710000Y-60030560D02*
X193710000Y-61830560D01*
X194610000Y-60930560D02*
X192810000Y-60930560D01*
X115997000Y-82520560D02*
X114197000Y-82520560D01*
X115097000Y-81620560D02*
X115097000Y-83420560D01*
X110022000Y-100500000D02*
X109942000Y-100500000D01*
X110796000Y-100460000D02*
X109168000Y-100460000D01*
X111148000Y-100420000D02*
X108816000Y-100420000D01*
X111417000Y-100380000D02*
X108547000Y-100380000D01*
X111643000Y-100340000D02*
X108321000Y-100340000D01*
X111842000Y-100300000D02*
X108122000Y-100300000D01*
X112021000Y-100260000D02*
X107943000Y-100260000D01*
X112185000Y-100220000D02*
X107779000Y-100220000D01*
X112337000Y-100180000D02*
X107627000Y-100180000D01*
X112480000Y-100140000D02*
X107484000Y-100140000D01*
X112614000Y-100100000D02*
X107350000Y-100100000D01*
X112741000Y-100060000D02*
X107223000Y-100060000D01*
X112862000Y-100020000D02*
X107102000Y-100020000D01*
X112978000Y-99980000D02*
X106986000Y-99980000D01*
X113089000Y-99940000D02*
X106875000Y-99940000D01*
X113196000Y-99900000D02*
X106768000Y-99900000D01*
X113299000Y-99860000D02*
X106665000Y-99860000D01*
X113398000Y-99820000D02*
X106566000Y-99820000D01*
X113494000Y-99780000D02*
X106470000Y-99780000D01*
X113587000Y-99740000D02*
X106377000Y-99740000D01*
X113678000Y-99700000D02*
X106286000Y-99700000D01*
X113766000Y-99660000D02*
X106198000Y-99660000D01*
X113851000Y-99620000D02*
X106113000Y-99620000D01*
X113934000Y-99580000D02*
X106030000Y-99580000D01*
X114015000Y-99541000D02*
X105949000Y-99541000D01*
X114095000Y-99501000D02*
X105869000Y-99501000D01*
X114172000Y-99461000D02*
X105792000Y-99461000D01*
X114247000Y-99421000D02*
X105717000Y-99421000D01*
X114321000Y-99381000D02*
X105643000Y-99381000D01*
X114394000Y-99341000D02*
X105570000Y-99341000D01*
X114464000Y-99301000D02*
X105500000Y-99301000D01*
X114534000Y-99261000D02*
X105430000Y-99261000D01*
X114602000Y-99221000D02*
X105362000Y-99221000D01*
X114668000Y-99181000D02*
X105296000Y-99181000D01*
X114734000Y-99141000D02*
X105230000Y-99141000D01*
X114798000Y-99101000D02*
X105166000Y-99101000D01*
X114861000Y-99061000D02*
X105103000Y-99061000D01*
X114923000Y-99021000D02*
X105041000Y-99021000D01*
X114984000Y-98981000D02*
X104980000Y-98981000D01*
X115044000Y-98941000D02*
X104920000Y-98941000D01*
X115102000Y-98901000D02*
X104862000Y-98901000D01*
X115160000Y-98861000D02*
X104804000Y-98861000D01*
X115217000Y-98821000D02*
X104747000Y-98821000D01*
X115273000Y-98781000D02*
X104691000Y-98781000D01*
X115328000Y-98741000D02*
X104636000Y-98741000D01*
X115382000Y-98701000D02*
X104582000Y-98701000D01*
X115436000Y-98661000D02*
X104528000Y-98661000D01*
X115488000Y-98621000D02*
X104476000Y-98621000D01*
X115540000Y-98581000D02*
X104424000Y-98581000D01*
X115591000Y-98541000D02*
X104373000Y-98541000D01*
X115642000Y-98501000D02*
X104322000Y-98501000D01*
X115691000Y-98461000D02*
X104273000Y-98461000D01*
X115740000Y-98421000D02*
X104224000Y-98421000D01*
X115788000Y-98381000D02*
X104176000Y-98381000D01*
X115836000Y-98341000D02*
X104128000Y-98341000D01*
X115883000Y-98301000D02*
X104081000Y-98301000D01*
X115929000Y-98261000D02*
X104035000Y-98261000D01*
X115975000Y-98221000D02*
X103989000Y-98221000D01*
X116020000Y-98181000D02*
X103944000Y-98181000D01*
X116064000Y-98141000D02*
X103900000Y-98141000D01*
X116108000Y-98101000D02*
X103856000Y-98101000D01*
X116152000Y-98061000D02*
X103812000Y-98061000D01*
X116194000Y-98021000D02*
X103770000Y-98021000D01*
X116236000Y-97981000D02*
X103728000Y-97981000D01*
X116278000Y-97941000D02*
X103686000Y-97941000D01*
X116319000Y-97901000D02*
X103645000Y-97901000D01*
X116360000Y-97861000D02*
X103604000Y-97861000D01*
X116400000Y-97821000D02*
X103564000Y-97821000D01*
X116440000Y-97781000D02*
X103524000Y-97781000D01*
X116479000Y-97741000D02*
X103485000Y-97741000D01*
X116518000Y-97701000D02*
X103446000Y-97701000D01*
X116556000Y-97661000D02*
X103408000Y-97661000D01*
X116594000Y-97621000D02*
X103370000Y-97621000D01*
X116631000Y-97581000D02*
X103333000Y-97581000D01*
X116668000Y-97541000D02*
X103296000Y-97541000D01*
X116704000Y-97501000D02*
X103260000Y-97501000D01*
X116740000Y-97461000D02*
X103224000Y-97461000D01*
X116776000Y-97421000D02*
X103188000Y-97421000D01*
X116811000Y-97381000D02*
X103153000Y-97381000D01*
X116846000Y-97341000D02*
X103118000Y-97341000D01*
X116880000Y-97301000D02*
X103084000Y-97301000D01*
X116914000Y-97261000D02*
X103050000Y-97261000D01*
X116947000Y-97221000D02*
X103017000Y-97221000D01*
X116981000Y-97181000D02*
X102983000Y-97181000D01*
X117013000Y-97141000D02*
X102951000Y-97141000D01*
X117046000Y-97101000D02*
X102918000Y-97101000D01*
X117078000Y-97061000D02*
X102886000Y-97061000D01*
X117109000Y-97021000D02*
X102855000Y-97021000D01*
X117141000Y-96981000D02*
X102823000Y-96981000D01*
X117172000Y-96941000D02*
X102792000Y-96941000D01*
X117202000Y-96901000D02*
X102762000Y-96901000D01*
X117232000Y-96861000D02*
X102732000Y-96861000D01*
X117262000Y-96821000D02*
X102702000Y-96821000D01*
X117292000Y-96781000D02*
X102672000Y-96781000D01*
X117321000Y-96741000D02*
X102643000Y-96741000D01*
X117350000Y-96701000D02*
X102614000Y-96701000D01*
X117379000Y-96661000D02*
X102585000Y-96661000D01*
X117407000Y-96621000D02*
X102557000Y-96621000D01*
X117435000Y-96581000D02*
X102529000Y-96581000D01*
X108542000Y-96541000D02*
X102502000Y-96541000D01*
X117462000Y-96541000D02*
X111422000Y-96541000D01*
X108542000Y-96501000D02*
X102474000Y-96501000D01*
X117490000Y-96501000D02*
X111422000Y-96501000D01*
X108542000Y-96461000D02*
X102447000Y-96461000D01*
X117517000Y-96461000D02*
X111422000Y-96461000D01*
X108542000Y-96421000D02*
X102421000Y-96421000D01*
X117543000Y-96421000D02*
X111422000Y-96421000D01*
X108542000Y-96381000D02*
X102394000Y-96381000D01*
X117570000Y-96381000D02*
X111422000Y-96381000D01*
X108542000Y-96341000D02*
X102368000Y-96341000D01*
X117596000Y-96341000D02*
X111422000Y-96341000D01*
X108542000Y-96301000D02*
X102342000Y-96301000D01*
X117622000Y-96301000D02*
X111422000Y-96301000D01*
X108542000Y-96261000D02*
X102317000Y-96261000D01*
X117647000Y-96261000D02*
X111422000Y-96261000D01*
X108542000Y-96221000D02*
X102292000Y-96221000D01*
X117672000Y-96221000D02*
X111422000Y-96221000D01*
X108542000Y-96181000D02*
X102267000Y-96181000D01*
X117697000Y-96181000D02*
X111422000Y-96181000D01*
X108542000Y-96141000D02*
X102242000Y-96141000D01*
X117722000Y-96141000D02*
X111422000Y-96141000D01*
X108542000Y-96101000D02*
X102218000Y-96101000D01*
X117746000Y-96101000D02*
X111422000Y-96101000D01*
X108542000Y-96061000D02*
X102194000Y-96061000D01*
X117770000Y-96061000D02*
X111422000Y-96061000D01*
X108542000Y-96021000D02*
X102170000Y-96021000D01*
X117794000Y-96021000D02*
X111422000Y-96021000D01*
X108542000Y-95981000D02*
X102147000Y-95981000D01*
X117817000Y-95981000D02*
X111422000Y-95981000D01*
X108542000Y-95941000D02*
X102123000Y-95941000D01*
X117841000Y-95941000D02*
X111422000Y-95941000D01*
X108542000Y-95901000D02*
X102100000Y-95901000D01*
X117864000Y-95901000D02*
X111422000Y-95901000D01*
X108542000Y-95861000D02*
X102078000Y-95861000D01*
X117886000Y-95861000D02*
X111422000Y-95861000D01*
X108542000Y-95821000D02*
X102055000Y-95821000D01*
X117909000Y-95821000D02*
X111422000Y-95821000D01*
X108542000Y-95781000D02*
X102033000Y-95781000D01*
X117931000Y-95781000D02*
X111422000Y-95781000D01*
X108542000Y-95741000D02*
X102011000Y-95741000D01*
X117953000Y-95741000D02*
X111422000Y-95741000D01*
X108542000Y-95701000D02*
X101990000Y-95701000D01*
X117974000Y-95701000D02*
X111422000Y-95701000D01*
X108542000Y-95661000D02*
X101968000Y-95661000D01*
X117996000Y-95661000D02*
X111422000Y-95661000D01*
X108542000Y-95621000D02*
X101947000Y-95621000D01*
X118017000Y-95621000D02*
X111422000Y-95621000D01*
X108542000Y-95581000D02*
X101926000Y-95581000D01*
X118038000Y-95581000D02*
X111422000Y-95581000D01*
X108542000Y-95541000D02*
X101906000Y-95541000D01*
X118058000Y-95541000D02*
X111422000Y-95541000D01*
X108542000Y-95501000D02*
X101885000Y-95501000D01*
X118079000Y-95501000D02*
X111422000Y-95501000D01*
X108542000Y-95461000D02*
X101865000Y-95461000D01*
X118099000Y-95461000D02*
X111422000Y-95461000D01*
X108542000Y-95421000D02*
X101845000Y-95421000D01*
X118119000Y-95421000D02*
X111422000Y-95421000D01*
X108542000Y-95381000D02*
X101826000Y-95381000D01*
X118138000Y-95381000D02*
X111422000Y-95381000D01*
X108542000Y-95341000D02*
X101806000Y-95341000D01*
X118158000Y-95341000D02*
X111422000Y-95341000D01*
X108542000Y-95301000D02*
X101787000Y-95301000D01*
X118177000Y-95301000D02*
X111422000Y-95301000D01*
X108542000Y-95261000D02*
X101768000Y-95261000D01*
X118196000Y-95261000D02*
X111422000Y-95261000D01*
X108542000Y-95221000D02*
X101749000Y-95221000D01*
X118215000Y-95221000D02*
X111422000Y-95221000D01*
X108542000Y-95181000D02*
X101731000Y-95181000D01*
X118233000Y-95181000D02*
X111422000Y-95181000D01*
X108542000Y-95141000D02*
X101713000Y-95141000D01*
X118251000Y-95141000D02*
X111422000Y-95141000D01*
X108542000Y-95101000D02*
X101695000Y-95101000D01*
X118269000Y-95101000D02*
X111422000Y-95101000D01*
X108542000Y-95061000D02*
X101677000Y-95061000D01*
X118287000Y-95061000D02*
X111422000Y-95061000D01*
X108542000Y-95021000D02*
X101659000Y-95021000D01*
X118305000Y-95021000D02*
X111422000Y-95021000D01*
X108542000Y-94981000D02*
X101642000Y-94981000D01*
X118322000Y-94981000D02*
X111422000Y-94981000D01*
X108542000Y-94941000D02*
X101625000Y-94941000D01*
X118339000Y-94941000D02*
X111422000Y-94941000D01*
X108542000Y-94901000D02*
X101608000Y-94901000D01*
X118356000Y-94901000D02*
X111422000Y-94901000D01*
X108542000Y-94861000D02*
X101592000Y-94861000D01*
X118372000Y-94861000D02*
X111422000Y-94861000D01*
X108542000Y-94821000D02*
X101575000Y-94821000D01*
X118389000Y-94821000D02*
X111422000Y-94821000D01*
X108542000Y-94781000D02*
X101559000Y-94781000D01*
X118405000Y-94781000D02*
X111422000Y-94781000D01*
X108542000Y-94741000D02*
X101543000Y-94741000D01*
X118421000Y-94741000D02*
X111422000Y-94741000D01*
X108542000Y-94701000D02*
X101527000Y-94701000D01*
X118437000Y-94701000D02*
X111422000Y-94701000D01*
X108542000Y-94661000D02*
X101512000Y-94661000D01*
X118452000Y-94661000D02*
X111422000Y-94661000D01*
X108542000Y-94621000D02*
X101496000Y-94621000D01*
X118468000Y-94621000D02*
X111422000Y-94621000D01*
X108542000Y-94581000D02*
X101481000Y-94581000D01*
X118483000Y-94581000D02*
X111422000Y-94581000D01*
X108542000Y-94541000D02*
X101466000Y-94541000D01*
X118498000Y-94541000D02*
X111422000Y-94541000D01*
X108542000Y-94501000D02*
X101452000Y-94501000D01*
X118512000Y-94501000D02*
X111422000Y-94501000D01*
X108542000Y-94461000D02*
X101437000Y-94461000D01*
X118527000Y-94461000D02*
X111422000Y-94461000D01*
X108542000Y-94421000D02*
X101423000Y-94421000D01*
X118541000Y-94421000D02*
X111422000Y-94421000D01*
X108542000Y-94381000D02*
X101409000Y-94381000D01*
X118555000Y-94381000D02*
X111422000Y-94381000D01*
X108542000Y-94341000D02*
X101395000Y-94341000D01*
X118569000Y-94341000D02*
X111422000Y-94341000D01*
X108542000Y-94301000D02*
X101382000Y-94301000D01*
X118582000Y-94301000D02*
X111422000Y-94301000D01*
X108542000Y-94261000D02*
X101368000Y-94261000D01*
X118596000Y-94261000D02*
X111422000Y-94261000D01*
X108542000Y-94221000D02*
X101355000Y-94221000D01*
X118609000Y-94221000D02*
X111422000Y-94221000D01*
X108542000Y-94181000D02*
X101342000Y-94181000D01*
X118622000Y-94181000D02*
X111422000Y-94181000D01*
X108542000Y-94141000D02*
X101329000Y-94141000D01*
X118635000Y-94141000D02*
X111422000Y-94141000D01*
X108542000Y-94101000D02*
X101317000Y-94101000D01*
X118647000Y-94101000D02*
X111422000Y-94101000D01*
X108542000Y-94061000D02*
X101304000Y-94061000D01*
X118660000Y-94061000D02*
X111422000Y-94061000D01*
X108542000Y-94021000D02*
X101292000Y-94021000D01*
X118672000Y-94021000D02*
X111422000Y-94021000D01*
X108542000Y-93981000D02*
X101280000Y-93981000D01*
X118684000Y-93981000D02*
X111422000Y-93981000D01*
X108542000Y-93941000D02*
X101268000Y-93941000D01*
X118696000Y-93941000D02*
X111422000Y-93941000D01*
X108542000Y-93901000D02*
X101257000Y-93901000D01*
X118707000Y-93901000D02*
X111422000Y-93901000D01*
X108542000Y-93861000D02*
X101245000Y-93861000D01*
X118719000Y-93861000D02*
X111422000Y-93861000D01*
X108542000Y-93821000D02*
X101234000Y-93821000D01*
X118730000Y-93821000D02*
X111422000Y-93821000D01*
X108542000Y-93781000D02*
X101223000Y-93781000D01*
X118741000Y-93781000D02*
X111422000Y-93781000D01*
X108542000Y-93741000D02*
X101212000Y-93741000D01*
X118752000Y-93741000D02*
X111422000Y-93741000D01*
X108542000Y-93701000D02*
X101202000Y-93701000D01*
X118762000Y-93701000D02*
X111422000Y-93701000D01*
X118773000Y-93661000D02*
X101191000Y-93661000D01*
X118783000Y-93621000D02*
X101181000Y-93621000D01*
X118793000Y-93581000D02*
X101171000Y-93581000D01*
X118803000Y-93541000D02*
X101161000Y-93541000D01*
X118813000Y-93501000D02*
X101151000Y-93501000D01*
X118822000Y-93461000D02*
X101142000Y-93461000D01*
X118831000Y-93421000D02*
X101133000Y-93421000D01*
X118840000Y-93381000D02*
X101124000Y-93381000D01*
X118849000Y-93341000D02*
X101115000Y-93341000D01*
X118858000Y-93301000D02*
X101106000Y-93301000D01*
X118867000Y-93261000D02*
X101097000Y-93261000D01*
X118875000Y-93221000D02*
X101089000Y-93221000D01*
X118883000Y-93181000D02*
X101081000Y-93181000D01*
X118891000Y-93141000D02*
X101073000Y-93141000D01*
X118899000Y-93101000D02*
X101065000Y-93101000D01*
X118906000Y-93061000D02*
X101058000Y-93061000D01*
X118914000Y-93021000D02*
X101050000Y-93021000D01*
X118921000Y-92981000D02*
X101043000Y-92981000D01*
X118928000Y-92941000D02*
X101036000Y-92941000D01*
X118935000Y-92901000D02*
X101029000Y-92901000D01*
X118942000Y-92861000D02*
X101022000Y-92861000D01*
X118948000Y-92821000D02*
X101016000Y-92821000D01*
X118954000Y-92781000D02*
X101010000Y-92781000D01*
X118961000Y-92741000D02*
X101003000Y-92741000D01*
X118966000Y-92701000D02*
X100998000Y-92701000D01*
X118972000Y-92661000D02*
X100992000Y-92661000D01*
X118978000Y-92621000D02*
X100986000Y-92621000D01*
X118983000Y-92581000D02*
X100981000Y-92581000D01*
X118988000Y-92541000D02*
X100976000Y-92541000D01*
X118993000Y-92501000D02*
X100971000Y-92501000D01*
X118998000Y-92461000D02*
X100966000Y-92461000D01*
X119003000Y-92421000D02*
X100961000Y-92421000D01*
X119008000Y-92381000D02*
X100956000Y-92381000D01*
X119012000Y-92341000D02*
X100952000Y-92341000D01*
X119016000Y-92301000D02*
X100948000Y-92301000D01*
X119020000Y-92261000D02*
X100944000Y-92261000D01*
X119024000Y-92221000D02*
X100940000Y-92221000D01*
X119027000Y-92181000D02*
X100937000Y-92181000D01*
X119031000Y-92141000D02*
X100933000Y-92141000D01*
X119034000Y-92101000D02*
X100930000Y-92101000D01*
X119037000Y-92060000D02*
X100927000Y-92060000D01*
X119040000Y-92020000D02*
X100924000Y-92020000D01*
X119043000Y-91980000D02*
X100921000Y-91980000D01*
X119045000Y-91940000D02*
X100919000Y-91940000D01*
X119048000Y-91900000D02*
X100916000Y-91900000D01*
X119050000Y-91860000D02*
X100914000Y-91860000D01*
X119052000Y-91820000D02*
X100912000Y-91820000D01*
X119054000Y-91780000D02*
X100910000Y-91780000D01*
X119055000Y-91740000D02*
X100909000Y-91740000D01*
X119057000Y-91700000D02*
X100907000Y-91700000D01*
X119058000Y-91660000D02*
X100906000Y-91660000D01*
X119059000Y-91620000D02*
X100905000Y-91620000D01*
X119060000Y-91580000D02*
X100904000Y-91580000D01*
X119061000Y-91540000D02*
X100903000Y-91540000D01*
X119062000Y-91500000D02*
X100902000Y-91500000D01*
X119062000Y-91460000D02*
X100902000Y-91460000D01*
X119062000Y-91420000D02*
X100902000Y-91420000D01*
X119063000Y-91380000D02*
X100901000Y-91380000D01*
X119102000Y-91380000D02*
G75*
G03*
X119102000Y-91380000I-9120000J0D01*
G01*
X182580000Y-100359440D02*
X184380000Y-100359440D01*
X183480000Y-101259440D02*
X183480000Y-99459440D01*
X188555000Y-82380000D02*
X188635000Y-82380000D01*
X187781000Y-82420000D02*
X189409000Y-82420000D01*
X187429000Y-82460000D02*
X189761000Y-82460000D01*
X187160000Y-82500000D02*
X190030000Y-82500000D01*
X186934000Y-82540000D02*
X190256000Y-82540000D01*
X186735000Y-82580000D02*
X190455000Y-82580000D01*
X186556000Y-82620000D02*
X190634000Y-82620000D01*
X186392000Y-82660000D02*
X190798000Y-82660000D01*
X186240000Y-82700000D02*
X190950000Y-82700000D01*
X186097000Y-82740000D02*
X191093000Y-82740000D01*
X185963000Y-82780000D02*
X191227000Y-82780000D01*
X185836000Y-82820000D02*
X191354000Y-82820000D01*
X185715000Y-82860000D02*
X191475000Y-82860000D01*
X185599000Y-82900000D02*
X191591000Y-82900000D01*
X185488000Y-82940000D02*
X191702000Y-82940000D01*
X185381000Y-82980000D02*
X191809000Y-82980000D01*
X185278000Y-83020000D02*
X191912000Y-83020000D01*
X185179000Y-83060000D02*
X192011000Y-83060000D01*
X185083000Y-83100000D02*
X192107000Y-83100000D01*
X184990000Y-83140000D02*
X192200000Y-83140000D01*
X184899000Y-83180000D02*
X192291000Y-83180000D01*
X184811000Y-83220000D02*
X192379000Y-83220000D01*
X184726000Y-83260000D02*
X192464000Y-83260000D01*
X184643000Y-83300000D02*
X192547000Y-83300000D01*
X184562000Y-83339000D02*
X192628000Y-83339000D01*
X184482000Y-83379000D02*
X192708000Y-83379000D01*
X184405000Y-83419000D02*
X192785000Y-83419000D01*
X184330000Y-83459000D02*
X192860000Y-83459000D01*
X184256000Y-83499000D02*
X192934000Y-83499000D01*
X184183000Y-83539000D02*
X193007000Y-83539000D01*
X184113000Y-83579000D02*
X193077000Y-83579000D01*
X184043000Y-83619000D02*
X193147000Y-83619000D01*
X183975000Y-83659000D02*
X193215000Y-83659000D01*
X183909000Y-83699000D02*
X193281000Y-83699000D01*
X183843000Y-83739000D02*
X193347000Y-83739000D01*
X183779000Y-83779000D02*
X193411000Y-83779000D01*
X183716000Y-83819000D02*
X193474000Y-83819000D01*
X183654000Y-83859000D02*
X193536000Y-83859000D01*
X183593000Y-83899000D02*
X193597000Y-83899000D01*
X183533000Y-83939000D02*
X193657000Y-83939000D01*
X183475000Y-83979000D02*
X193715000Y-83979000D01*
X183417000Y-84019000D02*
X193773000Y-84019000D01*
X183360000Y-84059000D02*
X193830000Y-84059000D01*
X183304000Y-84099000D02*
X193886000Y-84099000D01*
X183249000Y-84139000D02*
X193941000Y-84139000D01*
X183195000Y-84179000D02*
X193995000Y-84179000D01*
X183141000Y-84219000D02*
X194049000Y-84219000D01*
X183089000Y-84259000D02*
X194101000Y-84259000D01*
X183037000Y-84299000D02*
X194153000Y-84299000D01*
X182986000Y-84339000D02*
X194204000Y-84339000D01*
X182935000Y-84379000D02*
X194255000Y-84379000D01*
X182886000Y-84419000D02*
X194304000Y-84419000D01*
X182837000Y-84459000D02*
X194353000Y-84459000D01*
X182789000Y-84499000D02*
X194401000Y-84499000D01*
X182741000Y-84539000D02*
X194449000Y-84539000D01*
X182694000Y-84579000D02*
X194496000Y-84579000D01*
X182648000Y-84619000D02*
X194542000Y-84619000D01*
X182602000Y-84659000D02*
X194588000Y-84659000D01*
X182557000Y-84699000D02*
X194633000Y-84699000D01*
X182513000Y-84739000D02*
X194677000Y-84739000D01*
X182469000Y-84779000D02*
X194721000Y-84779000D01*
X182425000Y-84819000D02*
X194765000Y-84819000D01*
X182383000Y-84859000D02*
X194807000Y-84859000D01*
X182341000Y-84899000D02*
X194849000Y-84899000D01*
X182299000Y-84939000D02*
X194891000Y-84939000D01*
X182258000Y-84979000D02*
X194932000Y-84979000D01*
X182217000Y-85019000D02*
X194973000Y-85019000D01*
X182177000Y-85059000D02*
X195013000Y-85059000D01*
X182137000Y-85099000D02*
X195053000Y-85099000D01*
X182098000Y-85139000D02*
X195092000Y-85139000D01*
X182059000Y-85179000D02*
X195131000Y-85179000D01*
X182021000Y-85219000D02*
X195169000Y-85219000D01*
X181983000Y-85259000D02*
X195207000Y-85259000D01*
X181946000Y-85299000D02*
X195244000Y-85299000D01*
X181909000Y-85339000D02*
X195281000Y-85339000D01*
X181873000Y-85379000D02*
X195317000Y-85379000D01*
X181837000Y-85419000D02*
X195353000Y-85419000D01*
X181801000Y-85459000D02*
X195389000Y-85459000D01*
X181766000Y-85499000D02*
X195424000Y-85499000D01*
X181731000Y-85539000D02*
X195459000Y-85539000D01*
X181697000Y-85579000D02*
X195493000Y-85579000D01*
X181663000Y-85619000D02*
X195527000Y-85619000D01*
X181630000Y-85659000D02*
X195560000Y-85659000D01*
X181596000Y-85699000D02*
X195594000Y-85699000D01*
X181564000Y-85739000D02*
X195626000Y-85739000D01*
X181531000Y-85779000D02*
X195659000Y-85779000D01*
X181499000Y-85819000D02*
X195691000Y-85819000D01*
X181468000Y-85859000D02*
X195722000Y-85859000D01*
X181436000Y-85899000D02*
X195754000Y-85899000D01*
X181405000Y-85939000D02*
X195785000Y-85939000D01*
X181375000Y-85979000D02*
X195815000Y-85979000D01*
X181345000Y-86019000D02*
X195845000Y-86019000D01*
X181315000Y-86059000D02*
X195875000Y-86059000D01*
X181285000Y-86099000D02*
X195905000Y-86099000D01*
X181256000Y-86139000D02*
X195934000Y-86139000D01*
X181227000Y-86179000D02*
X195963000Y-86179000D01*
X181198000Y-86219000D02*
X195992000Y-86219000D01*
X181170000Y-86259000D02*
X196020000Y-86259000D01*
X181142000Y-86299000D02*
X196048000Y-86299000D01*
X190035000Y-86339000D02*
X196075000Y-86339000D01*
X181115000Y-86339000D02*
X187155000Y-86339000D01*
X190035000Y-86379000D02*
X196103000Y-86379000D01*
X181087000Y-86379000D02*
X187155000Y-86379000D01*
X190035000Y-86419000D02*
X196130000Y-86419000D01*
X181060000Y-86419000D02*
X187155000Y-86419000D01*
X190035000Y-86459000D02*
X196156000Y-86459000D01*
X181034000Y-86459000D02*
X187155000Y-86459000D01*
X190035000Y-86499000D02*
X196183000Y-86499000D01*
X181007000Y-86499000D02*
X187155000Y-86499000D01*
X190035000Y-86539000D02*
X196209000Y-86539000D01*
X180981000Y-86539000D02*
X187155000Y-86539000D01*
X190035000Y-86579000D02*
X196235000Y-86579000D01*
X180955000Y-86579000D02*
X187155000Y-86579000D01*
X190035000Y-86619000D02*
X196260000Y-86619000D01*
X180930000Y-86619000D02*
X187155000Y-86619000D01*
X190035000Y-86659000D02*
X196285000Y-86659000D01*
X180905000Y-86659000D02*
X187155000Y-86659000D01*
X190035000Y-86699000D02*
X196310000Y-86699000D01*
X180880000Y-86699000D02*
X187155000Y-86699000D01*
X190035000Y-86739000D02*
X196335000Y-86739000D01*
X180855000Y-86739000D02*
X187155000Y-86739000D01*
X190035000Y-86779000D02*
X196359000Y-86779000D01*
X180831000Y-86779000D02*
X187155000Y-86779000D01*
X190035000Y-86819000D02*
X196383000Y-86819000D01*
X180807000Y-86819000D02*
X187155000Y-86819000D01*
X190035000Y-86859000D02*
X196407000Y-86859000D01*
X180783000Y-86859000D02*
X187155000Y-86859000D01*
X190035000Y-86899000D02*
X196430000Y-86899000D01*
X180760000Y-86899000D02*
X187155000Y-86899000D01*
X190035000Y-86939000D02*
X196454000Y-86939000D01*
X180736000Y-86939000D02*
X187155000Y-86939000D01*
X190035000Y-86979000D02*
X196477000Y-86979000D01*
X180713000Y-86979000D02*
X187155000Y-86979000D01*
X190035000Y-87019000D02*
X196499000Y-87019000D01*
X180691000Y-87019000D02*
X187155000Y-87019000D01*
X190035000Y-87059000D02*
X196522000Y-87059000D01*
X180668000Y-87059000D02*
X187155000Y-87059000D01*
X190035000Y-87099000D02*
X196544000Y-87099000D01*
X180646000Y-87099000D02*
X187155000Y-87099000D01*
X190035000Y-87139000D02*
X196566000Y-87139000D01*
X180624000Y-87139000D02*
X187155000Y-87139000D01*
X190035000Y-87179000D02*
X196587000Y-87179000D01*
X180603000Y-87179000D02*
X187155000Y-87179000D01*
X190035000Y-87219000D02*
X196609000Y-87219000D01*
X180581000Y-87219000D02*
X187155000Y-87219000D01*
X190035000Y-87259000D02*
X196630000Y-87259000D01*
X180560000Y-87259000D02*
X187155000Y-87259000D01*
X190035000Y-87299000D02*
X196651000Y-87299000D01*
X180539000Y-87299000D02*
X187155000Y-87299000D01*
X190035000Y-87339000D02*
X196671000Y-87339000D01*
X180519000Y-87339000D02*
X187155000Y-87339000D01*
X190035000Y-87379000D02*
X196692000Y-87379000D01*
X180498000Y-87379000D02*
X187155000Y-87379000D01*
X190035000Y-87419000D02*
X196712000Y-87419000D01*
X180478000Y-87419000D02*
X187155000Y-87419000D01*
X190035000Y-87459000D02*
X196732000Y-87459000D01*
X180458000Y-87459000D02*
X187155000Y-87459000D01*
X190035000Y-87499000D02*
X196751000Y-87499000D01*
X180439000Y-87499000D02*
X187155000Y-87499000D01*
X190035000Y-87539000D02*
X196771000Y-87539000D01*
X180419000Y-87539000D02*
X187155000Y-87539000D01*
X190035000Y-87579000D02*
X196790000Y-87579000D01*
X180400000Y-87579000D02*
X187155000Y-87579000D01*
X190035000Y-87619000D02*
X196809000Y-87619000D01*
X180381000Y-87619000D02*
X187155000Y-87619000D01*
X190035000Y-87659000D02*
X196828000Y-87659000D01*
X180362000Y-87659000D02*
X187155000Y-87659000D01*
X190035000Y-87699000D02*
X196846000Y-87699000D01*
X180344000Y-87699000D02*
X187155000Y-87699000D01*
X190035000Y-87739000D02*
X196864000Y-87739000D01*
X180326000Y-87739000D02*
X187155000Y-87739000D01*
X190035000Y-87779000D02*
X196882000Y-87779000D01*
X180308000Y-87779000D02*
X187155000Y-87779000D01*
X190035000Y-87819000D02*
X196900000Y-87819000D01*
X180290000Y-87819000D02*
X187155000Y-87819000D01*
X190035000Y-87859000D02*
X196918000Y-87859000D01*
X180272000Y-87859000D02*
X187155000Y-87859000D01*
X190035000Y-87899000D02*
X196935000Y-87899000D01*
X180255000Y-87899000D02*
X187155000Y-87899000D01*
X190035000Y-87939000D02*
X196952000Y-87939000D01*
X180238000Y-87939000D02*
X187155000Y-87939000D01*
X190035000Y-87979000D02*
X196969000Y-87979000D01*
X180221000Y-87979000D02*
X187155000Y-87979000D01*
X190035000Y-88019000D02*
X196985000Y-88019000D01*
X180205000Y-88019000D02*
X187155000Y-88019000D01*
X190035000Y-88059000D02*
X197002000Y-88059000D01*
X180188000Y-88059000D02*
X187155000Y-88059000D01*
X190035000Y-88099000D02*
X197018000Y-88099000D01*
X180172000Y-88099000D02*
X187155000Y-88099000D01*
X190035000Y-88139000D02*
X197034000Y-88139000D01*
X180156000Y-88139000D02*
X187155000Y-88139000D01*
X190035000Y-88179000D02*
X197050000Y-88179000D01*
X180140000Y-88179000D02*
X187155000Y-88179000D01*
X190035000Y-88219000D02*
X197065000Y-88219000D01*
X180125000Y-88219000D02*
X187155000Y-88219000D01*
X190035000Y-88259000D02*
X197081000Y-88259000D01*
X180109000Y-88259000D02*
X187155000Y-88259000D01*
X190035000Y-88299000D02*
X197096000Y-88299000D01*
X180094000Y-88299000D02*
X187155000Y-88299000D01*
X190035000Y-88339000D02*
X197111000Y-88339000D01*
X180079000Y-88339000D02*
X187155000Y-88339000D01*
X190035000Y-88379000D02*
X197125000Y-88379000D01*
X180065000Y-88379000D02*
X187155000Y-88379000D01*
X190035000Y-88419000D02*
X197140000Y-88419000D01*
X180050000Y-88419000D02*
X187155000Y-88419000D01*
X190035000Y-88459000D02*
X197154000Y-88459000D01*
X180036000Y-88459000D02*
X187155000Y-88459000D01*
X190035000Y-88499000D02*
X197168000Y-88499000D01*
X180022000Y-88499000D02*
X187155000Y-88499000D01*
X190035000Y-88539000D02*
X197182000Y-88539000D01*
X180008000Y-88539000D02*
X187155000Y-88539000D01*
X190035000Y-88579000D02*
X197195000Y-88579000D01*
X179995000Y-88579000D02*
X187155000Y-88579000D01*
X190035000Y-88619000D02*
X197209000Y-88619000D01*
X179981000Y-88619000D02*
X187155000Y-88619000D01*
X190035000Y-88659000D02*
X197222000Y-88659000D01*
X179968000Y-88659000D02*
X187155000Y-88659000D01*
X190035000Y-88699000D02*
X197235000Y-88699000D01*
X179955000Y-88699000D02*
X187155000Y-88699000D01*
X190035000Y-88739000D02*
X197248000Y-88739000D01*
X179942000Y-88739000D02*
X187155000Y-88739000D01*
X190035000Y-88779000D02*
X197260000Y-88779000D01*
X179930000Y-88779000D02*
X187155000Y-88779000D01*
X190035000Y-88819000D02*
X197273000Y-88819000D01*
X179917000Y-88819000D02*
X187155000Y-88819000D01*
X190035000Y-88859000D02*
X197285000Y-88859000D01*
X179905000Y-88859000D02*
X187155000Y-88859000D01*
X190035000Y-88899000D02*
X197297000Y-88899000D01*
X179893000Y-88899000D02*
X187155000Y-88899000D01*
X190035000Y-88939000D02*
X197309000Y-88939000D01*
X179881000Y-88939000D02*
X187155000Y-88939000D01*
X190035000Y-88979000D02*
X197320000Y-88979000D01*
X179870000Y-88979000D02*
X187155000Y-88979000D01*
X190035000Y-89019000D02*
X197332000Y-89019000D01*
X179858000Y-89019000D02*
X187155000Y-89019000D01*
X190035000Y-89059000D02*
X197343000Y-89059000D01*
X179847000Y-89059000D02*
X187155000Y-89059000D01*
X190035000Y-89099000D02*
X197354000Y-89099000D01*
X179836000Y-89099000D02*
X187155000Y-89099000D01*
X190035000Y-89139000D02*
X197365000Y-89139000D01*
X179825000Y-89139000D02*
X187155000Y-89139000D01*
X190035000Y-89179000D02*
X197375000Y-89179000D01*
X179815000Y-89179000D02*
X187155000Y-89179000D01*
X179804000Y-89219000D02*
X197386000Y-89219000D01*
X179794000Y-89259000D02*
X197396000Y-89259000D01*
X179784000Y-89299000D02*
X197406000Y-89299000D01*
X179774000Y-89339000D02*
X197416000Y-89339000D01*
X179764000Y-89379000D02*
X197426000Y-89379000D01*
X179755000Y-89419000D02*
X197435000Y-89419000D01*
X179746000Y-89459000D02*
X197444000Y-89459000D01*
X179737000Y-89499000D02*
X197453000Y-89499000D01*
X179728000Y-89539000D02*
X197462000Y-89539000D01*
X179719000Y-89579000D02*
X197471000Y-89579000D01*
X179710000Y-89619000D02*
X197480000Y-89619000D01*
X179702000Y-89659000D02*
X197488000Y-89659000D01*
X179694000Y-89699000D02*
X197496000Y-89699000D01*
X179686000Y-89739000D02*
X197504000Y-89739000D01*
X179678000Y-89779000D02*
X197512000Y-89779000D01*
X179671000Y-89819000D02*
X197519000Y-89819000D01*
X179663000Y-89859000D02*
X197527000Y-89859000D01*
X179656000Y-89899000D02*
X197534000Y-89899000D01*
X179649000Y-89939000D02*
X197541000Y-89939000D01*
X179642000Y-89979000D02*
X197548000Y-89979000D01*
X179635000Y-90019000D02*
X197555000Y-90019000D01*
X179629000Y-90059000D02*
X197561000Y-90059000D01*
X179623000Y-90099000D02*
X197567000Y-90099000D01*
X179616000Y-90139000D02*
X197574000Y-90139000D01*
X179611000Y-90179000D02*
X197579000Y-90179000D01*
X179605000Y-90219000D02*
X197585000Y-90219000D01*
X179599000Y-90259000D02*
X197591000Y-90259000D01*
X179594000Y-90299000D02*
X197596000Y-90299000D01*
X179589000Y-90339000D02*
X197601000Y-90339000D01*
X179584000Y-90379000D02*
X197606000Y-90379000D01*
X179579000Y-90419000D02*
X197611000Y-90419000D01*
X179574000Y-90459000D02*
X197616000Y-90459000D01*
X179569000Y-90499000D02*
X197621000Y-90499000D01*
X179565000Y-90539000D02*
X197625000Y-90539000D01*
X179561000Y-90579000D02*
X197629000Y-90579000D01*
X179557000Y-90619000D02*
X197633000Y-90619000D01*
X179553000Y-90659000D02*
X197637000Y-90659000D01*
X179550000Y-90699000D02*
X197640000Y-90699000D01*
X179546000Y-90739000D02*
X197644000Y-90739000D01*
X179543000Y-90779000D02*
X197647000Y-90779000D01*
X179540000Y-90820000D02*
X197650000Y-90820000D01*
X179537000Y-90860000D02*
X197653000Y-90860000D01*
X179534000Y-90900000D02*
X197656000Y-90900000D01*
X179532000Y-90940000D02*
X197658000Y-90940000D01*
X179529000Y-90980000D02*
X197661000Y-90980000D01*
X179527000Y-91020000D02*
X197663000Y-91020000D01*
X179525000Y-91060000D02*
X197665000Y-91060000D01*
X179523000Y-91100000D02*
X197667000Y-91100000D01*
X179522000Y-91140000D02*
X197668000Y-91140000D01*
X179520000Y-91180000D02*
X197670000Y-91180000D01*
X179519000Y-91220000D02*
X197671000Y-91220000D01*
X179518000Y-91260000D02*
X197672000Y-91260000D01*
X179517000Y-91300000D02*
X197673000Y-91300000D01*
X179516000Y-91340000D02*
X197674000Y-91340000D01*
X179515000Y-91380000D02*
X197675000Y-91380000D01*
X179515000Y-91420000D02*
X197675000Y-91420000D01*
X179515000Y-91460000D02*
X197675000Y-91460000D01*
X179514000Y-91500000D02*
X197676000Y-91500000D01*
X197715000Y-91500000D02*
G75*
G03*
X197715000Y-91500000I-9120000J0D01*
G01*
X175013252Y-87324000D02*
X174490748Y-87324000D01*
X175013252Y-85904000D02*
X174490748Y-85904000D01*
X125483252Y-85904000D02*
X124960748Y-85904000D01*
X125483252Y-87324000D02*
X124960748Y-87324000D01*
X168911748Y-85904000D02*
X169434252Y-85904000D01*
X168911748Y-87324000D02*
X169434252Y-87324000D01*
X137406748Y-87324000D02*
X137929252Y-87324000D01*
X137406748Y-85904000D02*
X137929252Y-85904000D01*
X159898000Y-97439241D02*
X160528000Y-97439241D01*
X160213000Y-97754241D02*
X160213000Y-97124241D01*
X161650000Y-91013000D02*
X162454000Y-91013000D01*
X161419000Y-91053000D02*
X162685000Y-91053000D01*
X161250000Y-91093000D02*
X162854000Y-91093000D01*
X161112000Y-91133000D02*
X162992000Y-91133000D01*
X160993000Y-91173000D02*
X163111000Y-91173000D01*
X160887000Y-91213000D02*
X163217000Y-91213000D01*
X160790000Y-91253000D02*
X163314000Y-91253000D01*
X160702000Y-91293000D02*
X163402000Y-91293000D01*
X160620000Y-91333000D02*
X163484000Y-91333000D01*
X160543000Y-91373000D02*
X163561000Y-91373000D01*
X160471000Y-91413000D02*
X163633000Y-91413000D01*
X160402000Y-91453000D02*
X163702000Y-91453000D01*
X160338000Y-91493000D02*
X163766000Y-91493000D01*
X160276000Y-91533000D02*
X163828000Y-91533000D01*
X160218000Y-91573000D02*
X163886000Y-91573000D01*
X160162000Y-91613000D02*
X163942000Y-91613000D01*
X160108000Y-91653000D02*
X163996000Y-91653000D01*
X160057000Y-91693000D02*
X164047000Y-91693000D01*
X160008000Y-91733000D02*
X164096000Y-91733000D01*
X159960000Y-91773000D02*
X164144000Y-91773000D01*
X159915000Y-91813000D02*
X164189000Y-91813000D01*
X159870000Y-91853000D02*
X164234000Y-91853000D01*
X159828000Y-91893000D02*
X164276000Y-91893000D01*
X159787000Y-91933000D02*
X164317000Y-91933000D01*
X163092000Y-91973000D02*
X164357000Y-91973000D01*
X159747000Y-91973000D02*
X161012000Y-91973000D01*
X163092000Y-92013000D02*
X164395000Y-92013000D01*
X159709000Y-92013000D02*
X161012000Y-92013000D01*
X163092000Y-92053000D02*
X164432000Y-92053000D01*
X159672000Y-92053000D02*
X161012000Y-92053000D01*
X163092000Y-92093000D02*
X164468000Y-92093000D01*
X159636000Y-92093000D02*
X161012000Y-92093000D01*
X163092000Y-92133000D02*
X164502000Y-92133000D01*
X159602000Y-92133000D02*
X161012000Y-92133000D01*
X163092000Y-92173000D02*
X164536000Y-92173000D01*
X159568000Y-92173000D02*
X161012000Y-92173000D01*
X163092000Y-92213000D02*
X164568000Y-92213000D01*
X159536000Y-92213000D02*
X161012000Y-92213000D01*
X163092000Y-92253000D02*
X164600000Y-92253000D01*
X159504000Y-92253000D02*
X161012000Y-92253000D01*
X163092000Y-92293000D02*
X164630000Y-92293000D01*
X159474000Y-92293000D02*
X161012000Y-92293000D01*
X163092000Y-92333000D02*
X164659000Y-92333000D01*
X159445000Y-92333000D02*
X161012000Y-92333000D01*
X163092000Y-92373000D02*
X164688000Y-92373000D01*
X159416000Y-92373000D02*
X161012000Y-92373000D01*
X163092000Y-92413000D02*
X164716000Y-92413000D01*
X159388000Y-92413000D02*
X161012000Y-92413000D01*
X163092000Y-92453000D02*
X164742000Y-92453000D01*
X159362000Y-92453000D02*
X161012000Y-92453000D01*
X163092000Y-92493000D02*
X164768000Y-92493000D01*
X159336000Y-92493000D02*
X161012000Y-92493000D01*
X163092000Y-92533000D02*
X164794000Y-92533000D01*
X159310000Y-92533000D02*
X161012000Y-92533000D01*
X163092000Y-92573000D02*
X164818000Y-92573000D01*
X159286000Y-92573000D02*
X161012000Y-92573000D01*
X163092000Y-92613000D02*
X164842000Y-92613000D01*
X159262000Y-92613000D02*
X161012000Y-92613000D01*
X163092000Y-92653000D02*
X164864000Y-92653000D01*
X159240000Y-92653000D02*
X161012000Y-92653000D01*
X163092000Y-92693000D02*
X164886000Y-92693000D01*
X159218000Y-92693000D02*
X161012000Y-92693000D01*
X163092000Y-92733000D02*
X164908000Y-92733000D01*
X159196000Y-92733000D02*
X161012000Y-92733000D01*
X163092000Y-92773000D02*
X164928000Y-92773000D01*
X159176000Y-92773000D02*
X161012000Y-92773000D01*
X163092000Y-92813000D02*
X164948000Y-92813000D01*
X159156000Y-92813000D02*
X161012000Y-92813000D01*
X163092000Y-92853000D02*
X164968000Y-92853000D01*
X159136000Y-92853000D02*
X161012000Y-92853000D01*
X163092000Y-92893000D02*
X164986000Y-92893000D01*
X159118000Y-92893000D02*
X161012000Y-92893000D01*
X163092000Y-92933000D02*
X165004000Y-92933000D01*
X159100000Y-92933000D02*
X161012000Y-92933000D01*
X163092000Y-92973000D02*
X165022000Y-92973000D01*
X159082000Y-92973000D02*
X161012000Y-92973000D01*
X163092000Y-93013000D02*
X165038000Y-93013000D01*
X159066000Y-93013000D02*
X161012000Y-93013000D01*
X163092000Y-93053000D02*
X165054000Y-93053000D01*
X159050000Y-93053000D02*
X161012000Y-93053000D01*
X163092000Y-93093000D02*
X165070000Y-93093000D01*
X159034000Y-93093000D02*
X161012000Y-93093000D01*
X163092000Y-93133000D02*
X165085000Y-93133000D01*
X159019000Y-93133000D02*
X161012000Y-93133000D01*
X163092000Y-93173000D02*
X165099000Y-93173000D01*
X159005000Y-93173000D02*
X161012000Y-93173000D01*
X163092000Y-93213000D02*
X165113000Y-93213000D01*
X158991000Y-93213000D02*
X161012000Y-93213000D01*
X163092000Y-93253000D02*
X165126000Y-93253000D01*
X158978000Y-93253000D02*
X161012000Y-93253000D01*
X163092000Y-93293000D02*
X165138000Y-93293000D01*
X158966000Y-93293000D02*
X161012000Y-93293000D01*
X163092000Y-93333000D02*
X165150000Y-93333000D01*
X158954000Y-93333000D02*
X161012000Y-93333000D01*
X163092000Y-93373000D02*
X165162000Y-93373000D01*
X158942000Y-93373000D02*
X161012000Y-93373000D01*
X163092000Y-93413000D02*
X165173000Y-93413000D01*
X158931000Y-93413000D02*
X161012000Y-93413000D01*
X163092000Y-93453000D02*
X165183000Y-93453000D01*
X158921000Y-93453000D02*
X161012000Y-93453000D01*
X163092000Y-93493000D02*
X165193000Y-93493000D01*
X158911000Y-93493000D02*
X161012000Y-93493000D01*
X163092000Y-93533000D02*
X165202000Y-93533000D01*
X158902000Y-93533000D02*
X161012000Y-93533000D01*
X163092000Y-93574000D02*
X165211000Y-93574000D01*
X158893000Y-93574000D02*
X161012000Y-93574000D01*
X163092000Y-93614000D02*
X165219000Y-93614000D01*
X158885000Y-93614000D02*
X161012000Y-93614000D01*
X163092000Y-93654000D02*
X165227000Y-93654000D01*
X158877000Y-93654000D02*
X161012000Y-93654000D01*
X163092000Y-93694000D02*
X165234000Y-93694000D01*
X158870000Y-93694000D02*
X161012000Y-93694000D01*
X163092000Y-93734000D02*
X165241000Y-93734000D01*
X158863000Y-93734000D02*
X161012000Y-93734000D01*
X163092000Y-93774000D02*
X165247000Y-93774000D01*
X158857000Y-93774000D02*
X161012000Y-93774000D01*
X163092000Y-93814000D02*
X165253000Y-93814000D01*
X158851000Y-93814000D02*
X161012000Y-93814000D01*
X163092000Y-93854000D02*
X165258000Y-93854000D01*
X158846000Y-93854000D02*
X161012000Y-93854000D01*
X163092000Y-93894000D02*
X165263000Y-93894000D01*
X158841000Y-93894000D02*
X161012000Y-93894000D01*
X163092000Y-93934000D02*
X165267000Y-93934000D01*
X158837000Y-93934000D02*
X161012000Y-93934000D01*
X163092000Y-93974000D02*
X165270000Y-93974000D01*
X158834000Y-93974000D02*
X161012000Y-93974000D01*
X163092000Y-94014000D02*
X165274000Y-94014000D01*
X158830000Y-94014000D02*
X161012000Y-94014000D01*
X158828000Y-94054000D02*
X165276000Y-94054000D01*
X158825000Y-94094000D02*
X165279000Y-94094000D01*
X158824000Y-94134000D02*
X165280000Y-94134000D01*
X158822000Y-94174000D02*
X165282000Y-94174000D01*
X158822000Y-94214000D02*
X165282000Y-94214000D01*
X158822000Y-94254000D02*
X165282000Y-94254000D01*
X165322000Y-94254000D02*
G75*
G03*
X165322000Y-94254000I-3270000J0D01*
G01*
X140958000Y-94234000D02*
G75*
G03*
X140958000Y-94234000I-3270000J0D01*
G01*
X137688000Y-97464000D02*
X137688000Y-91004000D01*
X137648000Y-97464000D02*
X137648000Y-91004000D01*
X137608000Y-97464000D02*
X137608000Y-91004000D01*
X137568000Y-97462000D02*
X137568000Y-91006000D01*
X137528000Y-97461000D02*
X137528000Y-91007000D01*
X137488000Y-97458000D02*
X137488000Y-91010000D01*
X137448000Y-97456000D02*
X137448000Y-95274000D01*
X137448000Y-93194000D02*
X137448000Y-91012000D01*
X137408000Y-97452000D02*
X137408000Y-95274000D01*
X137408000Y-93194000D02*
X137408000Y-91016000D01*
X137368000Y-97449000D02*
X137368000Y-95274000D01*
X137368000Y-93194000D02*
X137368000Y-91019000D01*
X137328000Y-97445000D02*
X137328000Y-95274000D01*
X137328000Y-93194000D02*
X137328000Y-91023000D01*
X137288000Y-97440000D02*
X137288000Y-95274000D01*
X137288000Y-93194000D02*
X137288000Y-91028000D01*
X137248000Y-97435000D02*
X137248000Y-95274000D01*
X137248000Y-93194000D02*
X137248000Y-91033000D01*
X137208000Y-97429000D02*
X137208000Y-95274000D01*
X137208000Y-93194000D02*
X137208000Y-91039000D01*
X137168000Y-97423000D02*
X137168000Y-95274000D01*
X137168000Y-93194000D02*
X137168000Y-91045000D01*
X137128000Y-97416000D02*
X137128000Y-95274000D01*
X137128000Y-93194000D02*
X137128000Y-91052000D01*
X137088000Y-97409000D02*
X137088000Y-95274000D01*
X137088000Y-93194000D02*
X137088000Y-91059000D01*
X137048000Y-97401000D02*
X137048000Y-95274000D01*
X137048000Y-93194000D02*
X137048000Y-91067000D01*
X137008000Y-97393000D02*
X137008000Y-95274000D01*
X137008000Y-93194000D02*
X137008000Y-91075000D01*
X136967000Y-97384000D02*
X136967000Y-95274000D01*
X136967000Y-93194000D02*
X136967000Y-91084000D01*
X136927000Y-97375000D02*
X136927000Y-95274000D01*
X136927000Y-93194000D02*
X136927000Y-91093000D01*
X136887000Y-97365000D02*
X136887000Y-95274000D01*
X136887000Y-93194000D02*
X136887000Y-91103000D01*
X136847000Y-97355000D02*
X136847000Y-95274000D01*
X136847000Y-93194000D02*
X136847000Y-91113000D01*
X136807000Y-97344000D02*
X136807000Y-95274000D01*
X136807000Y-93194000D02*
X136807000Y-91124000D01*
X136767000Y-97332000D02*
X136767000Y-95274000D01*
X136767000Y-93194000D02*
X136767000Y-91136000D01*
X136727000Y-97320000D02*
X136727000Y-95274000D01*
X136727000Y-93194000D02*
X136727000Y-91148000D01*
X136687000Y-97308000D02*
X136687000Y-95274000D01*
X136687000Y-93194000D02*
X136687000Y-91160000D01*
X136647000Y-97295000D02*
X136647000Y-95274000D01*
X136647000Y-93194000D02*
X136647000Y-91173000D01*
X136607000Y-97281000D02*
X136607000Y-95274000D01*
X136607000Y-93194000D02*
X136607000Y-91187000D01*
X136567000Y-97267000D02*
X136567000Y-95274000D01*
X136567000Y-93194000D02*
X136567000Y-91201000D01*
X136527000Y-97252000D02*
X136527000Y-95274000D01*
X136527000Y-93194000D02*
X136527000Y-91216000D01*
X136487000Y-97236000D02*
X136487000Y-95274000D01*
X136487000Y-93194000D02*
X136487000Y-91232000D01*
X136447000Y-97220000D02*
X136447000Y-95274000D01*
X136447000Y-93194000D02*
X136447000Y-91248000D01*
X136407000Y-97204000D02*
X136407000Y-95274000D01*
X136407000Y-93194000D02*
X136407000Y-91264000D01*
X136367000Y-97186000D02*
X136367000Y-95274000D01*
X136367000Y-93194000D02*
X136367000Y-91282000D01*
X136327000Y-97168000D02*
X136327000Y-95274000D01*
X136327000Y-93194000D02*
X136327000Y-91300000D01*
X136287000Y-97150000D02*
X136287000Y-95274000D01*
X136287000Y-93194000D02*
X136287000Y-91318000D01*
X136247000Y-97130000D02*
X136247000Y-95274000D01*
X136247000Y-93194000D02*
X136247000Y-91338000D01*
X136207000Y-97110000D02*
X136207000Y-95274000D01*
X136207000Y-93194000D02*
X136207000Y-91358000D01*
X136167000Y-97090000D02*
X136167000Y-95274000D01*
X136167000Y-93194000D02*
X136167000Y-91378000D01*
X136127000Y-97068000D02*
X136127000Y-95274000D01*
X136127000Y-93194000D02*
X136127000Y-91400000D01*
X136087000Y-97046000D02*
X136087000Y-95274000D01*
X136087000Y-93194000D02*
X136087000Y-91422000D01*
X136047000Y-97024000D02*
X136047000Y-95274000D01*
X136047000Y-93194000D02*
X136047000Y-91444000D01*
X136007000Y-97000000D02*
X136007000Y-95274000D01*
X136007000Y-93194000D02*
X136007000Y-91468000D01*
X135967000Y-96976000D02*
X135967000Y-95274000D01*
X135967000Y-93194000D02*
X135967000Y-91492000D01*
X135927000Y-96950000D02*
X135927000Y-95274000D01*
X135927000Y-93194000D02*
X135927000Y-91518000D01*
X135887000Y-96924000D02*
X135887000Y-95274000D01*
X135887000Y-93194000D02*
X135887000Y-91544000D01*
X135847000Y-96898000D02*
X135847000Y-95274000D01*
X135847000Y-93194000D02*
X135847000Y-91570000D01*
X135807000Y-96870000D02*
X135807000Y-95274000D01*
X135807000Y-93194000D02*
X135807000Y-91598000D01*
X135767000Y-96841000D02*
X135767000Y-95274000D01*
X135767000Y-93194000D02*
X135767000Y-91627000D01*
X135727000Y-96812000D02*
X135727000Y-95274000D01*
X135727000Y-93194000D02*
X135727000Y-91656000D01*
X135687000Y-96782000D02*
X135687000Y-95274000D01*
X135687000Y-93194000D02*
X135687000Y-91686000D01*
X135647000Y-96750000D02*
X135647000Y-95274000D01*
X135647000Y-93194000D02*
X135647000Y-91718000D01*
X135607000Y-96718000D02*
X135607000Y-95274000D01*
X135607000Y-93194000D02*
X135607000Y-91750000D01*
X135567000Y-96684000D02*
X135567000Y-95274000D01*
X135567000Y-93194000D02*
X135567000Y-91784000D01*
X135527000Y-96650000D02*
X135527000Y-95274000D01*
X135527000Y-93194000D02*
X135527000Y-91818000D01*
X135487000Y-96614000D02*
X135487000Y-95274000D01*
X135487000Y-93194000D02*
X135487000Y-91854000D01*
X135447000Y-96577000D02*
X135447000Y-95274000D01*
X135447000Y-93194000D02*
X135447000Y-91891000D01*
X135407000Y-96539000D02*
X135407000Y-95274000D01*
X135407000Y-93194000D02*
X135407000Y-91929000D01*
X135367000Y-96499000D02*
X135367000Y-91969000D01*
X135327000Y-96458000D02*
X135327000Y-92010000D01*
X135287000Y-96416000D02*
X135287000Y-92052000D01*
X135247000Y-96371000D02*
X135247000Y-92097000D01*
X135207000Y-96326000D02*
X135207000Y-92142000D01*
X135167000Y-96278000D02*
X135167000Y-92190000D01*
X135127000Y-96229000D02*
X135127000Y-92239000D01*
X135087000Y-96178000D02*
X135087000Y-92290000D01*
X135047000Y-96124000D02*
X135047000Y-92344000D01*
X135007000Y-96068000D02*
X135007000Y-92400000D01*
X134967000Y-96010000D02*
X134967000Y-92458000D01*
X134927000Y-95948000D02*
X134927000Y-92520000D01*
X134887000Y-95884000D02*
X134887000Y-92584000D01*
X134847000Y-95815000D02*
X134847000Y-92653000D01*
X134807000Y-95743000D02*
X134807000Y-92725000D01*
X134767000Y-95666000D02*
X134767000Y-92802000D01*
X134727000Y-95584000D02*
X134727000Y-92884000D01*
X134687000Y-95496000D02*
X134687000Y-92972000D01*
X134647000Y-95399000D02*
X134647000Y-93069000D01*
X134607000Y-95293000D02*
X134607000Y-93175000D01*
X134567000Y-95174000D02*
X134567000Y-93294000D01*
X134527000Y-95036000D02*
X134527000Y-93432000D01*
X134487000Y-94867000D02*
X134487000Y-93601000D01*
X134447000Y-94636000D02*
X134447000Y-93832000D01*
X141188241Y-96073000D02*
X140558241Y-96073000D01*
X140873241Y-96388000D02*
X140873241Y-95758000D01*
X165055000Y-105155000D02*
X158155000Y-105155000D01*
X165055000Y-101855000D02*
X158155000Y-101855000D01*
X165055000Y-105155000D02*
X165055000Y-101855000D01*
X142322000Y-105155000D02*
X142322000Y-101855000D01*
X142322000Y-101855000D02*
X135422000Y-101855000D01*
X142322000Y-105155000D02*
X135422000Y-105155000D01*
X177628000Y-82930000D02*
X177628000Y-79630000D01*
X177628000Y-79630000D02*
X170728000Y-79630000D01*
X177628000Y-82930000D02*
X170728000Y-82930000D01*
X133178000Y-83184000D02*
X126278000Y-83184000D01*
X133178000Y-79884000D02*
X126278000Y-79884000D01*
X133178000Y-83184000D02*
X133178000Y-79884000D01*
X168320000Y-92838000D02*
X168320000Y-96138000D01*
X168320000Y-96138000D02*
X175220000Y-96138000D01*
X168320000Y-92838000D02*
X175220000Y-92838000D01*
X122092000Y-92838000D02*
X128992000Y-92838000D01*
X122092000Y-96138000D02*
X128992000Y-96138000D01*
X122092000Y-92838000D02*
X122092000Y-96138000D01*
X173660000Y-100703000D02*
X177720000Y-100703000D01*
X177720000Y-100703000D02*
X177720000Y-98433000D01*
X177720000Y-98433000D02*
X173660000Y-98433000D01*
X126920000Y-98433000D02*
X122860000Y-98433000D01*
X126920000Y-100703000D02*
X126920000Y-98433000D01*
X122860000Y-100703000D02*
X126920000Y-100703000D01*
X168394748Y-98858000D02*
X168917252Y-98858000D01*
X168394748Y-100278000D02*
X168917252Y-100278000D01*
X131071252Y-98858000D02*
X130548748Y-98858000D01*
X131071252Y-100278000D02*
X130548748Y-100278000D01*
X151722000Y-72016000D02*
X162222000Y-72016000D01*
X151722000Y-76957000D02*
X162222000Y-76957000D01*
X151722000Y-72016000D02*
X151722000Y-76957000D01*
X162222000Y-72016000D02*
X162222000Y-76957000D01*
X151722000Y-74776000D02*
X153329000Y-74776000D01*
X155535000Y-74776000D02*
X155870000Y-74776000D01*
X158075000Y-74776000D02*
X158410000Y-74776000D01*
X160615000Y-74776000D02*
X162222000Y-74776000D01*
X155122000Y-72016000D02*
X155122000Y-74034000D01*
X158823000Y-72016000D02*
X158823000Y-74034000D01*
X144345000Y-72016000D02*
X144345000Y-74034000D01*
X140644000Y-72016000D02*
X140644000Y-74034000D01*
X146137000Y-74776000D02*
X147744000Y-74776000D01*
X143597000Y-74776000D02*
X143932000Y-74776000D01*
X141057000Y-74776000D02*
X141392000Y-74776000D01*
X137244000Y-74776000D02*
X138851000Y-74776000D01*
X147744000Y-72016000D02*
X147744000Y-76957000D01*
X137244000Y-72016000D02*
X137244000Y-76957000D01*
X137244000Y-76957000D02*
X147744000Y-76957000D01*
X137244000Y-72016000D02*
X147744000Y-72016000D01*
D10*
X102786666Y-61138571D02*
X102762857Y-61162380D01*
X102691428Y-61186190D01*
X102643809Y-61186190D01*
X102572380Y-61162380D01*
X102524761Y-61114761D01*
X102500952Y-61067142D01*
X102477142Y-60971904D01*
X102477142Y-60900476D01*
X102500952Y-60805238D01*
X102524761Y-60757619D01*
X102572380Y-60710000D01*
X102643809Y-60686190D01*
X102691428Y-60686190D01*
X102762857Y-60710000D01*
X102786666Y-60733809D01*
X103215238Y-60852857D02*
X103215238Y-61186190D01*
X103096190Y-60662380D02*
X102977142Y-61019523D01*
X103286666Y-61019523D01*
X149240952Y-60806190D02*
X149240952Y-60306190D01*
X149240952Y-60544285D02*
X149526666Y-60544285D01*
X149526666Y-60806190D02*
X149526666Y-60306190D01*
X149740952Y-60782380D02*
X149812380Y-60806190D01*
X149931428Y-60806190D01*
X149979047Y-60782380D01*
X150002857Y-60758571D01*
X150026666Y-60710952D01*
X150026666Y-60663333D01*
X150002857Y-60615714D01*
X149979047Y-60591904D01*
X149931428Y-60568095D01*
X149836190Y-60544285D01*
X149788571Y-60520476D01*
X149764761Y-60496666D01*
X149740952Y-60449047D01*
X149740952Y-60401428D01*
X149764761Y-60353809D01*
X149788571Y-60330000D01*
X149836190Y-60306190D01*
X149955238Y-60306190D01*
X150026666Y-60330000D01*
X150502857Y-60806190D02*
X150217142Y-60806190D01*
X150360000Y-60806190D02*
X150360000Y-60306190D01*
X150312380Y-60377619D01*
X150264761Y-60425238D01*
X150217142Y-60449047D01*
X164060238Y-63853190D02*
X164060238Y-63353190D01*
X164226904Y-63710333D01*
X164393571Y-63353190D01*
X164393571Y-63853190D01*
X164584047Y-63353190D02*
X164893571Y-63353190D01*
X164726904Y-63543666D01*
X164798333Y-63543666D01*
X164845952Y-63567476D01*
X164869761Y-63591285D01*
X164893571Y-63638904D01*
X164893571Y-63757952D01*
X164869761Y-63805571D01*
X164845952Y-63829380D01*
X164798333Y-63853190D01*
X164655476Y-63853190D01*
X164607857Y-63829380D01*
X164584047Y-63805571D01*
X134850238Y-63980190D02*
X134850238Y-63480190D01*
X135016904Y-63837333D01*
X135183571Y-63480190D01*
X135183571Y-63980190D01*
X135374047Y-63480190D02*
X135683571Y-63480190D01*
X135516904Y-63670666D01*
X135588333Y-63670666D01*
X135635952Y-63694476D01*
X135659761Y-63718285D01*
X135683571Y-63765904D01*
X135683571Y-63884952D01*
X135659761Y-63932571D01*
X135635952Y-63956380D01*
X135588333Y-63980190D01*
X135445476Y-63980190D01*
X135397857Y-63956380D01*
X135374047Y-63932571D01*
X144216571Y-97262190D02*
X144216571Y-97619333D01*
X144192761Y-97690761D01*
X144145142Y-97738380D01*
X144073714Y-97762190D01*
X144026095Y-97762190D01*
X144335619Y-97809809D02*
X144716571Y-97809809D01*
X144930857Y-97262190D02*
X145026095Y-97262190D01*
X145073714Y-97286000D01*
X145121333Y-97333619D01*
X145145142Y-97428857D01*
X145145142Y-97595523D01*
X145121333Y-97690761D01*
X145073714Y-97738380D01*
X145026095Y-97762190D01*
X144930857Y-97762190D01*
X144883238Y-97738380D01*
X144835619Y-97690761D01*
X144811809Y-97595523D01*
X144811809Y-97428857D01*
X144835619Y-97333619D01*
X144883238Y-97286000D01*
X144930857Y-97262190D01*
X145359428Y-97262190D02*
X145359428Y-97666952D01*
X145383238Y-97714571D01*
X145407047Y-97738380D01*
X145454666Y-97762190D01*
X145549904Y-97762190D01*
X145597523Y-97738380D01*
X145621333Y-97714571D01*
X145645142Y-97666952D01*
X145645142Y-97262190D01*
X145811809Y-97262190D02*
X146097523Y-97262190D01*
X145954666Y-97762190D02*
X145954666Y-97262190D01*
X146526095Y-97762190D02*
X146240380Y-97762190D01*
X146383238Y-97762190D02*
X146383238Y-97262190D01*
X146335619Y-97333619D01*
X146288000Y-97381238D01*
X146240380Y-97405047D01*
X153106571Y-97262190D02*
X153106571Y-97619333D01*
X153082761Y-97690761D01*
X153035142Y-97738380D01*
X152963714Y-97762190D01*
X152916095Y-97762190D01*
X153225619Y-97809809D02*
X153606571Y-97809809D01*
X153820857Y-97262190D02*
X153916095Y-97262190D01*
X153963714Y-97286000D01*
X154011333Y-97333619D01*
X154035142Y-97428857D01*
X154035142Y-97595523D01*
X154011333Y-97690761D01*
X153963714Y-97738380D01*
X153916095Y-97762190D01*
X153820857Y-97762190D01*
X153773238Y-97738380D01*
X153725619Y-97690761D01*
X153701809Y-97595523D01*
X153701809Y-97428857D01*
X153725619Y-97333619D01*
X153773238Y-97286000D01*
X153820857Y-97262190D01*
X154249428Y-97262190D02*
X154249428Y-97666952D01*
X154273238Y-97714571D01*
X154297047Y-97738380D01*
X154344666Y-97762190D01*
X154439904Y-97762190D01*
X154487523Y-97738380D01*
X154511333Y-97714571D01*
X154535142Y-97666952D01*
X154535142Y-97262190D01*
X154701809Y-97262190D02*
X154987523Y-97262190D01*
X154844666Y-97762190D02*
X154844666Y-97262190D01*
X155130380Y-97309809D02*
X155154190Y-97286000D01*
X155201809Y-97262190D01*
X155320857Y-97262190D01*
X155368476Y-97286000D01*
X155392285Y-97309809D01*
X155416095Y-97357428D01*
X155416095Y-97405047D01*
X155392285Y-97476476D01*
X155106571Y-97762190D01*
X155416095Y-97762190D01*
X148844142Y-98786190D02*
X148844142Y-99143333D01*
X148820333Y-99214761D01*
X148772714Y-99262380D01*
X148701285Y-99286190D01*
X148653666Y-99286190D01*
X148963190Y-99333809D02*
X149344142Y-99333809D01*
X149463190Y-99286190D02*
X149463190Y-98786190D01*
X149653666Y-98786190D01*
X149701285Y-98810000D01*
X149725095Y-98833809D01*
X149748904Y-98881428D01*
X149748904Y-98952857D01*
X149725095Y-99000476D01*
X149701285Y-99024285D01*
X149653666Y-99048095D01*
X149463190Y-99048095D01*
X149915571Y-98786190D02*
X150034619Y-99286190D01*
X150129857Y-98929047D01*
X150225095Y-99286190D01*
X150344142Y-98786190D01*
X150820333Y-99286190D02*
X150653666Y-99048095D01*
X150534619Y-99286190D02*
X150534619Y-98786190D01*
X150725095Y-98786190D01*
X150772714Y-98810000D01*
X150796523Y-98833809D01*
X150820333Y-98881428D01*
X150820333Y-98952857D01*
X150796523Y-99000476D01*
X150772714Y-99024285D01*
X150725095Y-99048095D01*
X150534619Y-99048095D01*
X151296523Y-99286190D02*
X151010809Y-99286190D01*
X151153666Y-99286190D02*
X151153666Y-98786190D01*
X151106047Y-98857619D01*
X151058428Y-98905238D01*
X151010809Y-98929047D01*
X196131666Y-62408571D02*
X196107857Y-62432380D01*
X196036428Y-62456190D01*
X195988809Y-62456190D01*
X195917380Y-62432380D01*
X195869761Y-62384761D01*
X195845952Y-62337142D01*
X195822142Y-62241904D01*
X195822142Y-62170476D01*
X195845952Y-62075238D01*
X195869761Y-62027619D01*
X195917380Y-61980000D01*
X195988809Y-61956190D01*
X196036428Y-61956190D01*
X196107857Y-61980000D01*
X196131666Y-62003809D01*
X196607857Y-62456190D02*
X196322142Y-62456190D01*
X196465000Y-62456190D02*
X196465000Y-61956190D01*
X196417380Y-62027619D01*
X196369761Y-62075238D01*
X196322142Y-62099047D01*
X102786666Y-82728571D02*
X102762857Y-82752380D01*
X102691428Y-82776190D01*
X102643809Y-82776190D01*
X102572380Y-82752380D01*
X102524761Y-82704761D01*
X102500952Y-82657142D01*
X102477142Y-82561904D01*
X102477142Y-82490476D01*
X102500952Y-82395238D01*
X102524761Y-82347619D01*
X102572380Y-82300000D01*
X102643809Y-82276190D01*
X102691428Y-82276190D01*
X102762857Y-82300000D01*
X102786666Y-82323809D01*
X102977142Y-82323809D02*
X103000952Y-82300000D01*
X103048571Y-82276190D01*
X103167619Y-82276190D01*
X103215238Y-82300000D01*
X103239047Y-82323809D01*
X103262857Y-82371428D01*
X103262857Y-82419047D01*
X103239047Y-82490476D01*
X102953333Y-82776190D01*
X103262857Y-82776190D01*
X196131666Y-83998571D02*
X196107857Y-84022380D01*
X196036428Y-84046190D01*
X195988809Y-84046190D01*
X195917380Y-84022380D01*
X195869761Y-83974761D01*
X195845952Y-83927142D01*
X195822142Y-83831904D01*
X195822142Y-83760476D01*
X195845952Y-83665238D01*
X195869761Y-83617619D01*
X195917380Y-83570000D01*
X195988809Y-83546190D01*
X196036428Y-83546190D01*
X196107857Y-83570000D01*
X196131666Y-83593809D01*
X196298333Y-83546190D02*
X196607857Y-83546190D01*
X196441190Y-83736666D01*
X196512619Y-83736666D01*
X196560238Y-83760476D01*
X196584047Y-83784285D01*
X196607857Y-83831904D01*
X196607857Y-83950952D01*
X196584047Y-83998571D01*
X196560238Y-84022380D01*
X196512619Y-84046190D01*
X196369761Y-84046190D01*
X196322142Y-84022380D01*
X196298333Y-83998571D01*
X174668666Y-88442571D02*
X174644857Y-88466380D01*
X174573428Y-88490190D01*
X174525809Y-88490190D01*
X174454380Y-88466380D01*
X174406761Y-88418761D01*
X174382952Y-88371142D01*
X174359142Y-88275904D01*
X174359142Y-88204476D01*
X174382952Y-88109238D01*
X174406761Y-88061619D01*
X174454380Y-88014000D01*
X174525809Y-87990190D01*
X174573428Y-87990190D01*
X174644857Y-88014000D01*
X174668666Y-88037809D01*
X175121047Y-87990190D02*
X174882952Y-87990190D01*
X174859142Y-88228285D01*
X174882952Y-88204476D01*
X174930571Y-88180666D01*
X175049619Y-88180666D01*
X175097238Y-88204476D01*
X175121047Y-88228285D01*
X175144857Y-88275904D01*
X175144857Y-88394952D01*
X175121047Y-88442571D01*
X175097238Y-88466380D01*
X175049619Y-88490190D01*
X174930571Y-88490190D01*
X174882952Y-88466380D01*
X174859142Y-88442571D01*
X125138666Y-88442571D02*
X125114857Y-88466380D01*
X125043428Y-88490190D01*
X124995809Y-88490190D01*
X124924380Y-88466380D01*
X124876761Y-88418761D01*
X124852952Y-88371142D01*
X124829142Y-88275904D01*
X124829142Y-88204476D01*
X124852952Y-88109238D01*
X124876761Y-88061619D01*
X124924380Y-88014000D01*
X124995809Y-87990190D01*
X125043428Y-87990190D01*
X125114857Y-88014000D01*
X125138666Y-88037809D01*
X125567238Y-87990190D02*
X125472000Y-87990190D01*
X125424380Y-88014000D01*
X125400571Y-88037809D01*
X125352952Y-88109238D01*
X125329142Y-88204476D01*
X125329142Y-88394952D01*
X125352952Y-88442571D01*
X125376761Y-88466380D01*
X125424380Y-88490190D01*
X125519619Y-88490190D01*
X125567238Y-88466380D01*
X125591047Y-88442571D01*
X125614857Y-88394952D01*
X125614857Y-88275904D01*
X125591047Y-88228285D01*
X125567238Y-88204476D01*
X125519619Y-88180666D01*
X125424380Y-88180666D01*
X125376761Y-88204476D01*
X125352952Y-88228285D01*
X125329142Y-88275904D01*
X169089666Y-88443571D02*
X169065857Y-88467380D01*
X168994428Y-88491190D01*
X168946809Y-88491190D01*
X168875380Y-88467380D01*
X168827761Y-88419761D01*
X168803952Y-88372142D01*
X168780142Y-88276904D01*
X168780142Y-88205476D01*
X168803952Y-88110238D01*
X168827761Y-88062619D01*
X168875380Y-88015000D01*
X168946809Y-87991190D01*
X168994428Y-87991190D01*
X169065857Y-88015000D01*
X169089666Y-88038809D01*
X169256333Y-87991190D02*
X169589666Y-87991190D01*
X169375380Y-88491190D01*
X137584666Y-88443571D02*
X137560857Y-88467380D01*
X137489428Y-88491190D01*
X137441809Y-88491190D01*
X137370380Y-88467380D01*
X137322761Y-88419761D01*
X137298952Y-88372142D01*
X137275142Y-88276904D01*
X137275142Y-88205476D01*
X137298952Y-88110238D01*
X137322761Y-88062619D01*
X137370380Y-88015000D01*
X137441809Y-87991190D01*
X137489428Y-87991190D01*
X137560857Y-88015000D01*
X137584666Y-88038809D01*
X137870380Y-88205476D02*
X137822761Y-88181666D01*
X137798952Y-88157857D01*
X137775142Y-88110238D01*
X137775142Y-88086428D01*
X137798952Y-88038809D01*
X137822761Y-88015000D01*
X137870380Y-87991190D01*
X137965619Y-87991190D01*
X138013238Y-88015000D01*
X138037047Y-88038809D01*
X138060857Y-88086428D01*
X138060857Y-88110238D01*
X138037047Y-88157857D01*
X138013238Y-88181666D01*
X137965619Y-88205476D01*
X137870380Y-88205476D01*
X137822761Y-88229285D01*
X137798952Y-88253095D01*
X137775142Y-88300714D01*
X137775142Y-88395952D01*
X137798952Y-88443571D01*
X137822761Y-88467380D01*
X137870380Y-88491190D01*
X137965619Y-88491190D01*
X138013238Y-88467380D01*
X138037047Y-88443571D01*
X138060857Y-88395952D01*
X138060857Y-88300714D01*
X138037047Y-88253095D01*
X138013238Y-88229285D01*
X137965619Y-88205476D01*
X161841666Y-98603571D02*
X161817857Y-98627380D01*
X161746428Y-98651190D01*
X161698809Y-98651190D01*
X161627380Y-98627380D01*
X161579761Y-98579761D01*
X161555952Y-98532142D01*
X161532142Y-98436904D01*
X161532142Y-98365476D01*
X161555952Y-98270238D01*
X161579761Y-98222619D01*
X161627380Y-98175000D01*
X161698809Y-98151190D01*
X161746428Y-98151190D01*
X161817857Y-98175000D01*
X161841666Y-98198809D01*
X162079761Y-98651190D02*
X162175000Y-98651190D01*
X162222619Y-98627380D01*
X162246428Y-98603571D01*
X162294047Y-98532142D01*
X162317857Y-98436904D01*
X162317857Y-98246428D01*
X162294047Y-98198809D01*
X162270238Y-98175000D01*
X162222619Y-98151190D01*
X162127380Y-98151190D01*
X162079761Y-98175000D01*
X162055952Y-98198809D01*
X162032142Y-98246428D01*
X162032142Y-98365476D01*
X162055952Y-98413095D01*
X162079761Y-98436904D01*
X162127380Y-98460714D01*
X162222619Y-98460714D01*
X162270238Y-98436904D01*
X162294047Y-98413095D01*
X162317857Y-98365476D01*
X137473571Y-98603571D02*
X137449761Y-98627380D01*
X137378333Y-98651190D01*
X137330714Y-98651190D01*
X137259285Y-98627380D01*
X137211666Y-98579761D01*
X137187857Y-98532142D01*
X137164047Y-98436904D01*
X137164047Y-98365476D01*
X137187857Y-98270238D01*
X137211666Y-98222619D01*
X137259285Y-98175000D01*
X137330714Y-98151190D01*
X137378333Y-98151190D01*
X137449761Y-98175000D01*
X137473571Y-98198809D01*
X137949761Y-98651190D02*
X137664047Y-98651190D01*
X137806904Y-98651190D02*
X137806904Y-98151190D01*
X137759285Y-98222619D01*
X137711666Y-98270238D01*
X137664047Y-98294047D01*
X138259285Y-98151190D02*
X138306904Y-98151190D01*
X138354523Y-98175000D01*
X138378333Y-98198809D01*
X138402142Y-98246428D01*
X138425952Y-98341666D01*
X138425952Y-98460714D01*
X138402142Y-98555952D01*
X138378333Y-98603571D01*
X138354523Y-98627380D01*
X138306904Y-98651190D01*
X138259285Y-98651190D01*
X138211666Y-98627380D01*
X138187857Y-98603571D01*
X138164047Y-98555952D01*
X138140238Y-98460714D01*
X138140238Y-98341666D01*
X138164047Y-98246428D01*
X138187857Y-98198809D01*
X138211666Y-98175000D01*
X138259285Y-98151190D01*
X160285952Y-106231190D02*
X160285952Y-105731190D01*
X160405000Y-105731190D01*
X160476428Y-105755000D01*
X160524047Y-105802619D01*
X160547857Y-105850238D01*
X160571666Y-105945476D01*
X160571666Y-106016904D01*
X160547857Y-106112142D01*
X160524047Y-106159761D01*
X160476428Y-106207380D01*
X160405000Y-106231190D01*
X160285952Y-106231190D01*
X161047857Y-106231190D02*
X160762142Y-106231190D01*
X160905000Y-106231190D02*
X160905000Y-105731190D01*
X160857380Y-105802619D01*
X160809761Y-105850238D01*
X160762142Y-105874047D01*
X137552952Y-106231190D02*
X137552952Y-105731190D01*
X137672000Y-105731190D01*
X137743428Y-105755000D01*
X137791047Y-105802619D01*
X137814857Y-105850238D01*
X137838666Y-105945476D01*
X137838666Y-106016904D01*
X137814857Y-106112142D01*
X137791047Y-106159761D01*
X137743428Y-106207380D01*
X137672000Y-106231190D01*
X137552952Y-106231190D01*
X138029142Y-105778809D02*
X138052952Y-105755000D01*
X138100571Y-105731190D01*
X138219619Y-105731190D01*
X138267238Y-105755000D01*
X138291047Y-105778809D01*
X138314857Y-105826428D01*
X138314857Y-105874047D01*
X138291047Y-105945476D01*
X138005333Y-106231190D01*
X138314857Y-106231190D01*
X178700952Y-81506190D02*
X178700952Y-81006190D01*
X178820000Y-81006190D01*
X178891428Y-81030000D01*
X178939047Y-81077619D01*
X178962857Y-81125238D01*
X178986666Y-81220476D01*
X178986666Y-81291904D01*
X178962857Y-81387142D01*
X178939047Y-81434761D01*
X178891428Y-81482380D01*
X178820000Y-81506190D01*
X178700952Y-81506190D01*
X179153333Y-81006190D02*
X179462857Y-81006190D01*
X179296190Y-81196666D01*
X179367619Y-81196666D01*
X179415238Y-81220476D01*
X179439047Y-81244285D01*
X179462857Y-81291904D01*
X179462857Y-81410952D01*
X179439047Y-81458571D01*
X179415238Y-81482380D01*
X179367619Y-81506190D01*
X179224761Y-81506190D01*
X179177142Y-81482380D01*
X179153333Y-81458571D01*
X122820952Y-82141190D02*
X122820952Y-81641190D01*
X122940000Y-81641190D01*
X123011428Y-81665000D01*
X123059047Y-81712619D01*
X123082857Y-81760238D01*
X123106666Y-81855476D01*
X123106666Y-81926904D01*
X123082857Y-82022142D01*
X123059047Y-82069761D01*
X123011428Y-82117380D01*
X122940000Y-82141190D01*
X122820952Y-82141190D01*
X123535238Y-81807857D02*
X123535238Y-82141190D01*
X123416190Y-81617380D02*
X123297142Y-81974523D01*
X123606666Y-81974523D01*
X172350952Y-92214190D02*
X172350952Y-91714190D01*
X172470000Y-91714190D01*
X172541428Y-91738000D01*
X172589047Y-91785619D01*
X172612857Y-91833238D01*
X172636666Y-91928476D01*
X172636666Y-91999904D01*
X172612857Y-92095142D01*
X172589047Y-92142761D01*
X172541428Y-92190380D01*
X172470000Y-92214190D01*
X172350952Y-92214190D01*
X173089047Y-91714190D02*
X172850952Y-91714190D01*
X172827142Y-91952285D01*
X172850952Y-91928476D01*
X172898571Y-91904666D01*
X173017619Y-91904666D01*
X173065238Y-91928476D01*
X173089047Y-91952285D01*
X173112857Y-91999904D01*
X173112857Y-92118952D01*
X173089047Y-92166571D01*
X173065238Y-92190380D01*
X173017619Y-92214190D01*
X172898571Y-92214190D01*
X172850952Y-92190380D01*
X172827142Y-92166571D01*
X126122952Y-92214190D02*
X126122952Y-91714190D01*
X126242000Y-91714190D01*
X126313428Y-91738000D01*
X126361047Y-91785619D01*
X126384857Y-91833238D01*
X126408666Y-91928476D01*
X126408666Y-91999904D01*
X126384857Y-92095142D01*
X126361047Y-92142761D01*
X126313428Y-92190380D01*
X126242000Y-92214190D01*
X126122952Y-92214190D01*
X126837238Y-91714190D02*
X126742000Y-91714190D01*
X126694380Y-91738000D01*
X126670571Y-91761809D01*
X126622952Y-91833238D01*
X126599142Y-91928476D01*
X126599142Y-92118952D01*
X126622952Y-92166571D01*
X126646761Y-92190380D01*
X126694380Y-92214190D01*
X126789619Y-92214190D01*
X126837238Y-92190380D01*
X126861047Y-92166571D01*
X126884857Y-92118952D01*
X126884857Y-91999904D01*
X126861047Y-91952285D01*
X126837238Y-91928476D01*
X126789619Y-91904666D01*
X126694380Y-91904666D01*
X126646761Y-91928476D01*
X126622952Y-91952285D01*
X126599142Y-91999904D01*
X174890952Y-101826190D02*
X174890952Y-101326190D01*
X175010000Y-101326190D01*
X175081428Y-101350000D01*
X175129047Y-101397619D01*
X175152857Y-101445238D01*
X175176666Y-101540476D01*
X175176666Y-101611904D01*
X175152857Y-101707142D01*
X175129047Y-101754761D01*
X175081428Y-101802380D01*
X175010000Y-101826190D01*
X174890952Y-101826190D01*
X175343333Y-101326190D02*
X175676666Y-101326190D01*
X175462380Y-101826190D01*
X124090952Y-101826190D02*
X124090952Y-101326190D01*
X124210000Y-101326190D01*
X124281428Y-101350000D01*
X124329047Y-101397619D01*
X124352857Y-101445238D01*
X124376666Y-101540476D01*
X124376666Y-101611904D01*
X124352857Y-101707142D01*
X124329047Y-101754761D01*
X124281428Y-101802380D01*
X124210000Y-101826190D01*
X124090952Y-101826190D01*
X124662380Y-101540476D02*
X124614761Y-101516666D01*
X124590952Y-101492857D01*
X124567142Y-101445238D01*
X124567142Y-101421428D01*
X124590952Y-101373809D01*
X124614761Y-101350000D01*
X124662380Y-101326190D01*
X124757619Y-101326190D01*
X124805238Y-101350000D01*
X124829047Y-101373809D01*
X124852857Y-101421428D01*
X124852857Y-101445238D01*
X124829047Y-101492857D01*
X124805238Y-101516666D01*
X124757619Y-101540476D01*
X124662380Y-101540476D01*
X124614761Y-101564285D01*
X124590952Y-101588095D01*
X124567142Y-101635714D01*
X124567142Y-101730952D01*
X124590952Y-101778571D01*
X124614761Y-101802380D01*
X124662380Y-101826190D01*
X124757619Y-101826190D01*
X124805238Y-101802380D01*
X124829047Y-101778571D01*
X124852857Y-101730952D01*
X124852857Y-101635714D01*
X124829047Y-101588095D01*
X124805238Y-101564285D01*
X124757619Y-101540476D01*
X168191666Y-101826190D02*
X168025000Y-101588095D01*
X167905952Y-101826190D02*
X167905952Y-101326190D01*
X168096428Y-101326190D01*
X168144047Y-101350000D01*
X168167857Y-101373809D01*
X168191666Y-101421428D01*
X168191666Y-101492857D01*
X168167857Y-101540476D01*
X168144047Y-101564285D01*
X168096428Y-101588095D01*
X167905952Y-101588095D01*
X168358333Y-101326190D02*
X168691666Y-101326190D01*
X168477380Y-101826190D01*
X130726666Y-101826190D02*
X130560000Y-101588095D01*
X130440952Y-101826190D02*
X130440952Y-101326190D01*
X130631428Y-101326190D01*
X130679047Y-101350000D01*
X130702857Y-101373809D01*
X130726666Y-101421428D01*
X130726666Y-101492857D01*
X130702857Y-101540476D01*
X130679047Y-101564285D01*
X130631428Y-101588095D01*
X130440952Y-101588095D01*
X131012380Y-101540476D02*
X130964761Y-101516666D01*
X130940952Y-101492857D01*
X130917142Y-101445238D01*
X130917142Y-101421428D01*
X130940952Y-101373809D01*
X130964761Y-101350000D01*
X131012380Y-101326190D01*
X131107619Y-101326190D01*
X131155238Y-101350000D01*
X131179047Y-101373809D01*
X131202857Y-101421428D01*
X131202857Y-101445238D01*
X131179047Y-101492857D01*
X131155238Y-101516666D01*
X131107619Y-101540476D01*
X131012380Y-101540476D01*
X130964761Y-101564285D01*
X130940952Y-101588095D01*
X130917142Y-101635714D01*
X130917142Y-101730952D01*
X130940952Y-101778571D01*
X130964761Y-101802380D01*
X131012380Y-101826190D01*
X131107619Y-101826190D01*
X131155238Y-101802380D01*
X131179047Y-101778571D01*
X131202857Y-101730952D01*
X131202857Y-101635714D01*
X131179047Y-101588095D01*
X131155238Y-101564285D01*
X131107619Y-101540476D01*
X155448047Y-77831190D02*
X155448047Y-78235952D01*
X155471857Y-78283571D01*
X155495666Y-78307380D01*
X155543285Y-78331190D01*
X155638523Y-78331190D01*
X155686142Y-78307380D01*
X155709952Y-78283571D01*
X155733761Y-78235952D01*
X155733761Y-77831190D01*
X156233761Y-78331190D02*
X155948047Y-78331190D01*
X156090904Y-78331190D02*
X156090904Y-77831190D01*
X156043285Y-77902619D01*
X155995666Y-77950238D01*
X155948047Y-77974047D01*
X140589047Y-77831190D02*
X140589047Y-78235952D01*
X140612857Y-78283571D01*
X140636666Y-78307380D01*
X140684285Y-78331190D01*
X140779523Y-78331190D01*
X140827142Y-78307380D01*
X140850952Y-78283571D01*
X140874761Y-78235952D01*
X140874761Y-77831190D01*
X141089047Y-77878809D02*
X141112857Y-77855000D01*
X141160476Y-77831190D01*
X141279523Y-77831190D01*
X141327142Y-77855000D01*
X141350952Y-77878809D01*
X141374761Y-77926428D01*
X141374761Y-77974047D01*
X141350952Y-78045476D01*
X141065238Y-78331190D01*
X141374761Y-78331190D01*
M02*
