G04 #@! TF.GenerationSoftware,KiCad,Pcbnew,(5.0.0-3-g5ebb6b6)*
G04 #@! TF.CreationDate,2018-11-24T00:30:52+00:00*
G04 #@! TF.ProjectId,AdjustablePSU,41646A75737461626C655053552E6B69,rev?*
G04 #@! TF.SameCoordinates,Original*
G04 #@! TF.FileFunction,Legend,Bot*
G04 #@! TF.FilePolarity,Positive*
%FSLAX46Y46*%
G04 Gerber Fmt 4.6, Leading zero omitted, Abs format (unit mm)*
G04 Created by KiCad (PCBNEW (5.0.0-3-g5ebb6b6)) date Saturday, 24 November 2018 at 00:30:52*
%MOMM*%
%LPD*%
G01*
G04 APERTURE LIST*
%ADD10C,0.125000*%
%ADD11C,0.300000*%
%ADD12C,0.500000*%
%ADD13C,0.200000*%
G04 APERTURE END LIST*
D10*
X183292380Y-58517380D02*
X183292380Y-57517380D01*
X183292380Y-57993571D02*
X182720952Y-57993571D01*
X182720952Y-58517380D02*
X182720952Y-57517380D01*
X181863809Y-58469761D02*
X181959047Y-58517380D01*
X182149523Y-58517380D01*
X182244761Y-58469761D01*
X182292380Y-58374523D01*
X182292380Y-57993571D01*
X182244761Y-57898333D01*
X182149523Y-57850714D01*
X181959047Y-57850714D01*
X181863809Y-57898333D01*
X181816190Y-57993571D01*
X181816190Y-58088809D01*
X182292380Y-58184047D01*
X180959047Y-58517380D02*
X180959047Y-57993571D01*
X181006666Y-57898333D01*
X181101904Y-57850714D01*
X181292380Y-57850714D01*
X181387619Y-57898333D01*
X180959047Y-58469761D02*
X181054285Y-58517380D01*
X181292380Y-58517380D01*
X181387619Y-58469761D01*
X181435238Y-58374523D01*
X181435238Y-58279285D01*
X181387619Y-58184047D01*
X181292380Y-58136428D01*
X181054285Y-58136428D01*
X180959047Y-58088809D01*
X180625714Y-57850714D02*
X180244761Y-57850714D01*
X180482857Y-57517380D02*
X180482857Y-58374523D01*
X180435238Y-58469761D01*
X180340000Y-58517380D01*
X180244761Y-58517380D01*
X179959047Y-58469761D02*
X179863809Y-58517380D01*
X179673333Y-58517380D01*
X179578095Y-58469761D01*
X179530476Y-58374523D01*
X179530476Y-58326904D01*
X179578095Y-58231666D01*
X179673333Y-58184047D01*
X179816190Y-58184047D01*
X179911428Y-58136428D01*
X179959047Y-58041190D01*
X179959047Y-57993571D01*
X179911428Y-57898333D01*
X179816190Y-57850714D01*
X179673333Y-57850714D01*
X179578095Y-57898333D01*
X179101904Y-58517380D02*
X179101904Y-57850714D01*
X179101904Y-57517380D02*
X179149523Y-57565000D01*
X179101904Y-57612619D01*
X179054285Y-57565000D01*
X179101904Y-57517380D01*
X179101904Y-57612619D01*
X178625714Y-57850714D02*
X178625714Y-58517380D01*
X178625714Y-57945952D02*
X178578095Y-57898333D01*
X178482857Y-57850714D01*
X178340000Y-57850714D01*
X178244761Y-57898333D01*
X178197142Y-57993571D01*
X178197142Y-58517380D01*
X177720952Y-58517380D02*
X177720952Y-57517380D01*
X177625714Y-58136428D02*
X177340000Y-58517380D01*
X177340000Y-57850714D02*
X177720952Y-58231666D01*
X184530476Y-59142380D02*
X183959047Y-59142380D01*
X184244761Y-60142380D02*
X184244761Y-59142380D01*
X183625714Y-60142380D02*
X183625714Y-59142380D01*
X183197142Y-60142380D02*
X183197142Y-59618571D01*
X183244761Y-59523333D01*
X183340000Y-59475714D01*
X183482857Y-59475714D01*
X183578095Y-59523333D01*
X183625714Y-59570952D01*
X182340000Y-60094761D02*
X182435238Y-60142380D01*
X182625714Y-60142380D01*
X182720952Y-60094761D01*
X182768571Y-59999523D01*
X182768571Y-59618571D01*
X182720952Y-59523333D01*
X182625714Y-59475714D01*
X182435238Y-59475714D01*
X182340000Y-59523333D01*
X182292380Y-59618571D01*
X182292380Y-59713809D01*
X182768571Y-59809047D01*
X181863809Y-60142380D02*
X181863809Y-59475714D01*
X181863809Y-59666190D02*
X181816190Y-59570952D01*
X181768571Y-59523333D01*
X181673333Y-59475714D01*
X181578095Y-59475714D01*
X181244761Y-60142380D02*
X181244761Y-59475714D01*
X181244761Y-59570952D02*
X181197142Y-59523333D01*
X181101904Y-59475714D01*
X180959047Y-59475714D01*
X180863809Y-59523333D01*
X180816190Y-59618571D01*
X180816190Y-60142380D01*
X180816190Y-59618571D02*
X180768571Y-59523333D01*
X180673333Y-59475714D01*
X180530476Y-59475714D01*
X180435238Y-59523333D01*
X180387619Y-59618571D01*
X180387619Y-60142380D01*
X179482857Y-60142380D02*
X179482857Y-59618571D01*
X179530476Y-59523333D01*
X179625714Y-59475714D01*
X179816190Y-59475714D01*
X179911428Y-59523333D01*
X179482857Y-60094761D02*
X179578095Y-60142380D01*
X179816190Y-60142380D01*
X179911428Y-60094761D01*
X179959047Y-59999523D01*
X179959047Y-59904285D01*
X179911428Y-59809047D01*
X179816190Y-59761428D01*
X179578095Y-59761428D01*
X179482857Y-59713809D01*
X178863809Y-60142380D02*
X178959047Y-60094761D01*
X179006666Y-59999523D01*
X179006666Y-59142380D01*
X177768571Y-60142380D02*
X177530476Y-60142380D01*
X177530476Y-59951904D01*
X177625714Y-59904285D01*
X177720952Y-59809047D01*
X177768571Y-59666190D01*
X177768571Y-59428095D01*
X177720952Y-59285238D01*
X177625714Y-59190000D01*
X177482857Y-59142380D01*
X177292380Y-59142380D01*
X177149523Y-59190000D01*
X177054285Y-59285238D01*
X177006666Y-59428095D01*
X177006666Y-59666190D01*
X177054285Y-59809047D01*
X177149523Y-59904285D01*
X177244761Y-59951904D01*
X177244761Y-60142380D01*
X177006666Y-60142380D01*
X183268571Y-61100714D02*
X184030476Y-61386428D01*
X183268571Y-61672142D01*
X181506666Y-61767380D02*
X182078095Y-61767380D01*
X181792380Y-61767380D02*
X181792380Y-60767380D01*
X181887619Y-60910238D01*
X181982857Y-61005476D01*
X182078095Y-61053095D01*
X180887619Y-60767380D02*
X180792380Y-60767380D01*
X180697142Y-60815000D01*
X180649523Y-60862619D01*
X180601904Y-60957857D01*
X180554285Y-61148333D01*
X180554285Y-61386428D01*
X180601904Y-61576904D01*
X180649523Y-61672142D01*
X180697142Y-61719761D01*
X180792380Y-61767380D01*
X180887619Y-61767380D01*
X180982857Y-61719761D01*
X181030476Y-61672142D01*
X181078095Y-61576904D01*
X181125714Y-61386428D01*
X181125714Y-61148333D01*
X181078095Y-60957857D01*
X181030476Y-60862619D01*
X180982857Y-60815000D01*
X180887619Y-60767380D01*
X179363809Y-61767380D02*
X179363809Y-60767380D01*
X178792380Y-61767380D02*
X179220952Y-61195952D01*
X178792380Y-60767380D02*
X179363809Y-61338809D01*
X177649523Y-60719761D02*
X178506666Y-62005476D01*
X177411428Y-60767380D02*
X177173333Y-61767380D01*
X176982857Y-61053095D01*
X176792380Y-61767380D01*
X176554285Y-60767380D01*
D11*
X161526571Y-96182571D02*
X162026571Y-95468285D01*
X162383714Y-96182571D02*
X162383714Y-94682571D01*
X161812285Y-94682571D01*
X161669428Y-94754000D01*
X161598000Y-94825428D01*
X161526571Y-94968285D01*
X161526571Y-95182571D01*
X161598000Y-95325428D01*
X161669428Y-95396857D01*
X161812285Y-95468285D01*
X162383714Y-95468285D01*
X160312285Y-96111142D02*
X160455142Y-96182571D01*
X160740857Y-96182571D01*
X160883714Y-96111142D01*
X160955142Y-95968285D01*
X160955142Y-95396857D01*
X160883714Y-95254000D01*
X160740857Y-95182571D01*
X160455142Y-95182571D01*
X160312285Y-95254000D01*
X160240857Y-95396857D01*
X160240857Y-95539714D01*
X160955142Y-95682571D01*
X159740857Y-95182571D02*
X159383714Y-96182571D01*
X159026571Y-95182571D01*
X158526571Y-95754000D02*
X157812285Y-95754000D01*
X158669428Y-96182571D02*
X158169428Y-94682571D01*
X157669428Y-96182571D01*
X156098000Y-94825428D02*
X156026571Y-94754000D01*
X155883714Y-94682571D01*
X155526571Y-94682571D01*
X155383714Y-94754000D01*
X155312285Y-94825428D01*
X155240857Y-94968285D01*
X155240857Y-95111142D01*
X155312285Y-95325428D01*
X156169428Y-96182571D01*
X155240857Y-96182571D01*
X154312285Y-94682571D02*
X154169428Y-94682571D01*
X154026571Y-94754000D01*
X153955142Y-94825428D01*
X153883714Y-94968285D01*
X153812285Y-95254000D01*
X153812285Y-95611142D01*
X153883714Y-95896857D01*
X153955142Y-96039714D01*
X154026571Y-96111142D01*
X154169428Y-96182571D01*
X154312285Y-96182571D01*
X154455142Y-96111142D01*
X154526571Y-96039714D01*
X154598000Y-95896857D01*
X154669428Y-95611142D01*
X154669428Y-95254000D01*
X154598000Y-94968285D01*
X154526571Y-94825428D01*
X154455142Y-94754000D01*
X154312285Y-94682571D01*
X152383714Y-96182571D02*
X153240857Y-96182571D01*
X152812285Y-96182571D02*
X152812285Y-94682571D01*
X152955142Y-94896857D01*
X153098000Y-95039714D01*
X153240857Y-95111142D01*
X151526571Y-95325428D02*
X151669428Y-95254000D01*
X151740857Y-95182571D01*
X151812285Y-95039714D01*
X151812285Y-94968285D01*
X151740857Y-94825428D01*
X151669428Y-94754000D01*
X151526571Y-94682571D01*
X151240857Y-94682571D01*
X151098000Y-94754000D01*
X151026571Y-94825428D01*
X150955142Y-94968285D01*
X150955142Y-95039714D01*
X151026571Y-95182571D01*
X151098000Y-95254000D01*
X151240857Y-95325428D01*
X151526571Y-95325428D01*
X151669428Y-95396857D01*
X151740857Y-95468285D01*
X151812285Y-95611142D01*
X151812285Y-95896857D01*
X151740857Y-96039714D01*
X151669428Y-96111142D01*
X151526571Y-96182571D01*
X151240857Y-96182571D01*
X151098000Y-96111142D01*
X151026571Y-96039714D01*
X150955142Y-95896857D01*
X150955142Y-95611142D01*
X151026571Y-95468285D01*
X151098000Y-95396857D01*
X151240857Y-95325428D01*
X148312285Y-96039714D02*
X148383714Y-96111142D01*
X148598000Y-96182571D01*
X148740857Y-96182571D01*
X148955142Y-96111142D01*
X149098000Y-95968285D01*
X149169428Y-95825428D01*
X149240857Y-95539714D01*
X149240857Y-95325428D01*
X149169428Y-95039714D01*
X149098000Y-94896857D01*
X148955142Y-94754000D01*
X148740857Y-94682571D01*
X148598000Y-94682571D01*
X148383714Y-94754000D01*
X148312285Y-94825428D01*
X147669428Y-96182571D02*
X147669428Y-94682571D01*
X147026571Y-96182571D02*
X147026571Y-95396857D01*
X147098000Y-95254000D01*
X147240857Y-95182571D01*
X147455142Y-95182571D01*
X147598000Y-95254000D01*
X147669428Y-95325428D01*
X146312285Y-96182571D02*
X146312285Y-95182571D01*
X146312285Y-95468285D02*
X146240857Y-95325428D01*
X146169428Y-95254000D01*
X146026571Y-95182571D01*
X145883714Y-95182571D01*
X145383714Y-96182571D02*
X145383714Y-95182571D01*
X145383714Y-94682571D02*
X145455142Y-94754000D01*
X145383714Y-94825428D01*
X145312285Y-94754000D01*
X145383714Y-94682571D01*
X145383714Y-94825428D01*
X144740857Y-96111142D02*
X144598000Y-96182571D01*
X144312285Y-96182571D01*
X144169428Y-96111142D01*
X144098000Y-95968285D01*
X144098000Y-95896857D01*
X144169428Y-95754000D01*
X144312285Y-95682571D01*
X144526571Y-95682571D01*
X144669428Y-95611142D01*
X144740857Y-95468285D01*
X144740857Y-95396857D01*
X144669428Y-95254000D01*
X144526571Y-95182571D01*
X144312285Y-95182571D01*
X144169428Y-95254000D01*
X142383714Y-96111142D02*
X142169428Y-96182571D01*
X141812285Y-96182571D01*
X141669428Y-96111142D01*
X141598000Y-96039714D01*
X141526571Y-95896857D01*
X141526571Y-95754000D01*
X141598000Y-95611142D01*
X141669428Y-95539714D01*
X141812285Y-95468285D01*
X142098000Y-95396857D01*
X142240857Y-95325428D01*
X142312285Y-95254000D01*
X142383714Y-95111142D01*
X142383714Y-94968285D01*
X142312285Y-94825428D01*
X142240857Y-94754000D01*
X142098000Y-94682571D01*
X141740857Y-94682571D01*
X141526571Y-94754000D01*
X140240857Y-95182571D02*
X140240857Y-96182571D01*
X140883714Y-95182571D02*
X140883714Y-95968285D01*
X140812285Y-96111142D01*
X140669428Y-96182571D01*
X140455142Y-96182571D01*
X140312285Y-96111142D01*
X140240857Y-96039714D01*
X139740857Y-95182571D02*
X139169428Y-95182571D01*
X139526571Y-94682571D02*
X139526571Y-95968285D01*
X139455142Y-96111142D01*
X139312285Y-96182571D01*
X139169428Y-96182571D01*
X138883714Y-95182571D02*
X138312285Y-95182571D01*
X138669428Y-94682571D02*
X138669428Y-95968285D01*
X138598000Y-96111142D01*
X138455142Y-96182571D01*
X138312285Y-96182571D01*
X137598000Y-96182571D02*
X137740857Y-96111142D01*
X137812285Y-96039714D01*
X137883714Y-95896857D01*
X137883714Y-95468285D01*
X137812285Y-95325428D01*
X137740857Y-95254000D01*
X137598000Y-95182571D01*
X137383714Y-95182571D01*
X137240857Y-95254000D01*
X137169428Y-95325428D01*
X137098000Y-95468285D01*
X137098000Y-95896857D01*
X137169428Y-96039714D01*
X137240857Y-96111142D01*
X137383714Y-96182571D01*
X137598000Y-96182571D01*
X136455142Y-95182571D02*
X136455142Y-96182571D01*
X136455142Y-95325428D02*
X136383714Y-95254000D01*
X136240857Y-95182571D01*
X136026571Y-95182571D01*
X135883714Y-95254000D01*
X135812285Y-95396857D01*
X135812285Y-96182571D01*
D12*
X175860000Y-92614523D02*
X177764761Y-92614523D01*
X177764761Y-88614523D01*
X174526666Y-92614523D02*
X174526666Y-89947857D01*
X174526666Y-88614523D02*
X174717142Y-88805000D01*
X174526666Y-88995476D01*
X174336190Y-88805000D01*
X174526666Y-88614523D01*
X174526666Y-88995476D01*
X172621904Y-89947857D02*
X172621904Y-92614523D01*
X172621904Y-90328809D02*
X172431428Y-90138333D01*
X172050476Y-89947857D01*
X171479047Y-89947857D01*
X171098095Y-90138333D01*
X170907619Y-90519285D01*
X170907619Y-92614523D01*
X167479047Y-92424047D02*
X167860000Y-92614523D01*
X168621904Y-92614523D01*
X169002857Y-92424047D01*
X169193333Y-92043095D01*
X169193333Y-90519285D01*
X169002857Y-90138333D01*
X168621904Y-89947857D01*
X167860000Y-89947857D01*
X167479047Y-90138333D01*
X167288571Y-90519285D01*
X167288571Y-90900238D01*
X169193333Y-91281190D01*
X163860000Y-92614523D02*
X163860000Y-90519285D01*
X164050476Y-90138333D01*
X164431428Y-89947857D01*
X165193333Y-89947857D01*
X165574285Y-90138333D01*
X163860000Y-92424047D02*
X164240952Y-92614523D01*
X165193333Y-92614523D01*
X165574285Y-92424047D01*
X165764761Y-92043095D01*
X165764761Y-91662142D01*
X165574285Y-91281190D01*
X165193333Y-91090714D01*
X164240952Y-91090714D01*
X163860000Y-90900238D01*
X161955238Y-92614523D02*
X161955238Y-89947857D01*
X161955238Y-90709761D02*
X161764761Y-90328809D01*
X161574285Y-90138333D01*
X161193333Y-89947857D01*
X160812380Y-89947857D01*
X155098095Y-90519285D02*
X154526666Y-90709761D01*
X154336190Y-90900238D01*
X154145714Y-91281190D01*
X154145714Y-91852619D01*
X154336190Y-92233571D01*
X154526666Y-92424047D01*
X154907619Y-92614523D01*
X156431428Y-92614523D01*
X156431428Y-88614523D01*
X155098095Y-88614523D01*
X154717142Y-88805000D01*
X154526666Y-88995476D01*
X154336190Y-89376428D01*
X154336190Y-89757380D01*
X154526666Y-90138333D01*
X154717142Y-90328809D01*
X155098095Y-90519285D01*
X156431428Y-90519285D01*
X152431428Y-92614523D02*
X152431428Y-89947857D01*
X152431428Y-88614523D02*
X152621904Y-88805000D01*
X152431428Y-88995476D01*
X152240952Y-88805000D01*
X152431428Y-88614523D01*
X152431428Y-88995476D01*
X150526666Y-89947857D02*
X150526666Y-93947857D01*
X150526666Y-90138333D02*
X150145714Y-89947857D01*
X149383809Y-89947857D01*
X149002857Y-90138333D01*
X148812380Y-90328809D01*
X148621904Y-90709761D01*
X148621904Y-91852619D01*
X148812380Y-92233571D01*
X149002857Y-92424047D01*
X149383809Y-92614523D01*
X150145714Y-92614523D01*
X150526666Y-92424047D01*
X146336190Y-92614523D02*
X146717142Y-92424047D01*
X146907619Y-92233571D01*
X147098095Y-91852619D01*
X147098095Y-90709761D01*
X146907619Y-90328809D01*
X146717142Y-90138333D01*
X146336190Y-89947857D01*
X145764761Y-89947857D01*
X145383809Y-90138333D01*
X145193333Y-90328809D01*
X145002857Y-90709761D01*
X145002857Y-91852619D01*
X145193333Y-92233571D01*
X145383809Y-92424047D01*
X145764761Y-92614523D01*
X146336190Y-92614523D01*
X142717142Y-92614523D02*
X143098095Y-92424047D01*
X143288571Y-92043095D01*
X143288571Y-88614523D01*
X139479047Y-92614523D02*
X139479047Y-90519285D01*
X139669523Y-90138333D01*
X140050476Y-89947857D01*
X140812380Y-89947857D01*
X141193333Y-90138333D01*
X139479047Y-92424047D02*
X139860000Y-92614523D01*
X140812380Y-92614523D01*
X141193333Y-92424047D01*
X141383809Y-92043095D01*
X141383809Y-91662142D01*
X141193333Y-91281190D01*
X140812380Y-91090714D01*
X139860000Y-91090714D01*
X139479047Y-90900238D01*
X137574285Y-92614523D02*
X137574285Y-89947857D01*
X137574285Y-90709761D02*
X137383809Y-90328809D01*
X137193333Y-90138333D01*
X136812380Y-89947857D01*
X136431428Y-89947857D01*
X132050476Y-92614523D02*
X132050476Y-88614523D01*
X130526666Y-88614523D01*
X130145714Y-88805000D01*
X129955238Y-88995476D01*
X129764761Y-89376428D01*
X129764761Y-89947857D01*
X129955238Y-90328809D01*
X130145714Y-90519285D01*
X130526666Y-90709761D01*
X132050476Y-90709761D01*
X128240952Y-92424047D02*
X127669523Y-92614523D01*
X126717142Y-92614523D01*
X126336190Y-92424047D01*
X126145714Y-92233571D01*
X125955238Y-91852619D01*
X125955238Y-91471666D01*
X126145714Y-91090714D01*
X126336190Y-90900238D01*
X126717142Y-90709761D01*
X127479047Y-90519285D01*
X127860000Y-90328809D01*
X128050476Y-90138333D01*
X128240952Y-89757380D01*
X128240952Y-89376428D01*
X128050476Y-88995476D01*
X127860000Y-88805000D01*
X127479047Y-88614523D01*
X126526666Y-88614523D01*
X125955238Y-88805000D01*
X124240952Y-88614523D02*
X124240952Y-91852619D01*
X124050476Y-92233571D01*
X123860000Y-92424047D01*
X123479047Y-92614523D01*
X122717142Y-92614523D01*
X122336190Y-92424047D01*
X122145714Y-92233571D01*
X121955238Y-91852619D01*
X121955238Y-88614523D01*
D13*
X154305000Y-114300000D02*
X154305000Y-105410000D01*
X146050000Y-114300000D02*
X146050000Y-105410000D01*
X162560000Y-114300000D02*
X162560000Y-102870000D01*
X137795000Y-114300000D02*
X137795000Y-102870000D01*
X137795000Y-105410000D02*
X162560000Y-105410000D01*
X137795000Y-102870000D02*
X162560000Y-102870000D01*
X137795000Y-114300000D02*
X162560000Y-114300000D01*
X161745000Y-103690000D02*
X161745000Y-103647142D01*
X161702142Y-103561428D01*
X161659285Y-103518571D01*
X161273571Y-104547142D02*
X161273571Y-103647142D01*
X160930714Y-103647142D01*
X160845000Y-103690000D01*
X160802142Y-103732857D01*
X160759285Y-103818571D01*
X160759285Y-103947142D01*
X160802142Y-104032857D01*
X160845000Y-104075714D01*
X160930714Y-104118571D01*
X161273571Y-104118571D01*
X160373571Y-104547142D02*
X160373571Y-103947142D01*
X160373571Y-104118571D02*
X160330714Y-104032857D01*
X160287857Y-103990000D01*
X160202142Y-103947142D01*
X160116428Y-103947142D01*
X159687857Y-104547142D02*
X159773571Y-104504285D01*
X159816428Y-104461428D01*
X159859285Y-104375714D01*
X159859285Y-104118571D01*
X159816428Y-104032857D01*
X159773571Y-103990000D01*
X159687857Y-103947142D01*
X159559285Y-103947142D01*
X159473571Y-103990000D01*
X159430714Y-104032857D01*
X159387857Y-104118571D01*
X159387857Y-104375714D01*
X159430714Y-104461428D01*
X159473571Y-104504285D01*
X159559285Y-104547142D01*
X159687857Y-104547142D01*
X158616428Y-103947142D02*
X158616428Y-104675714D01*
X158659285Y-104761428D01*
X158702142Y-104804285D01*
X158787857Y-104847142D01*
X158916428Y-104847142D01*
X159002142Y-104804285D01*
X158616428Y-104504285D02*
X158702142Y-104547142D01*
X158873571Y-104547142D01*
X158959285Y-104504285D01*
X159002142Y-104461428D01*
X159045000Y-104375714D01*
X159045000Y-104118571D01*
X159002142Y-104032857D01*
X158959285Y-103990000D01*
X158873571Y-103947142D01*
X158702142Y-103947142D01*
X158616428Y-103990000D01*
X158187857Y-104547142D02*
X158187857Y-103947142D01*
X158187857Y-104118571D02*
X158145000Y-104032857D01*
X158102142Y-103990000D01*
X158016428Y-103947142D01*
X157930714Y-103947142D01*
X157245000Y-104547142D02*
X157245000Y-104075714D01*
X157287857Y-103990000D01*
X157373571Y-103947142D01*
X157545000Y-103947142D01*
X157630714Y-103990000D01*
X157245000Y-104504285D02*
X157330714Y-104547142D01*
X157545000Y-104547142D01*
X157630714Y-104504285D01*
X157673571Y-104418571D01*
X157673571Y-104332857D01*
X157630714Y-104247142D01*
X157545000Y-104204285D01*
X157330714Y-104204285D01*
X157245000Y-104161428D01*
X156816428Y-104547142D02*
X156816428Y-103947142D01*
X156816428Y-104032857D02*
X156773571Y-103990000D01*
X156687857Y-103947142D01*
X156559285Y-103947142D01*
X156473571Y-103990000D01*
X156430714Y-104075714D01*
X156430714Y-104547142D01*
X156430714Y-104075714D02*
X156387857Y-103990000D01*
X156302142Y-103947142D01*
X156173571Y-103947142D01*
X156087857Y-103990000D01*
X156045000Y-104075714D01*
X156045000Y-104547142D01*
X155616428Y-104547142D02*
X155616428Y-103947142D01*
X155616428Y-104032857D02*
X155573571Y-103990000D01*
X155487857Y-103947142D01*
X155359285Y-103947142D01*
X155273571Y-103990000D01*
X155230714Y-104075714D01*
X155230714Y-104547142D01*
X155230714Y-104075714D02*
X155187857Y-103990000D01*
X155102142Y-103947142D01*
X154973571Y-103947142D01*
X154887857Y-103990000D01*
X154845000Y-104075714D01*
X154845000Y-104547142D01*
X154030714Y-104547142D02*
X154030714Y-104075714D01*
X154073571Y-103990000D01*
X154159285Y-103947142D01*
X154330714Y-103947142D01*
X154416428Y-103990000D01*
X154030714Y-104504285D02*
X154116428Y-104547142D01*
X154330714Y-104547142D01*
X154416428Y-104504285D01*
X154459285Y-104418571D01*
X154459285Y-104332857D01*
X154416428Y-104247142D01*
X154330714Y-104204285D01*
X154116428Y-104204285D01*
X154030714Y-104161428D01*
X153602142Y-104547142D02*
X153602142Y-103647142D01*
X153602142Y-103990000D02*
X153516428Y-103947142D01*
X153345000Y-103947142D01*
X153259285Y-103990000D01*
X153216428Y-104032857D01*
X153173571Y-104118571D01*
X153173571Y-104375714D01*
X153216428Y-104461428D01*
X153259285Y-104504285D01*
X153345000Y-104547142D01*
X153516428Y-104547142D01*
X153602142Y-104504285D01*
X152659285Y-104547142D02*
X152745000Y-104504285D01*
X152787857Y-104418571D01*
X152787857Y-103647142D01*
X151973571Y-104504285D02*
X152059285Y-104547142D01*
X152230714Y-104547142D01*
X152316428Y-104504285D01*
X152359285Y-104418571D01*
X152359285Y-104075714D01*
X152316428Y-103990000D01*
X152230714Y-103947142D01*
X152059285Y-103947142D01*
X151973571Y-103990000D01*
X151930714Y-104075714D01*
X151930714Y-104161428D01*
X152359285Y-104247142D01*
X151502142Y-103647142D02*
X151502142Y-103690000D01*
X151545000Y-103775714D01*
X151587857Y-103818571D01*
X149916428Y-104547142D02*
X150216428Y-104118571D01*
X150430714Y-104547142D02*
X150430714Y-103647142D01*
X150087857Y-103647142D01*
X150002142Y-103690000D01*
X149959285Y-103732857D01*
X149916428Y-103818571D01*
X149916428Y-103947142D01*
X149959285Y-104032857D01*
X150002142Y-104075714D01*
X150087857Y-104118571D01*
X150430714Y-104118571D01*
X149187857Y-104504285D02*
X149273571Y-104547142D01*
X149445000Y-104547142D01*
X149530714Y-104504285D01*
X149573571Y-104418571D01*
X149573571Y-104075714D01*
X149530714Y-103990000D01*
X149445000Y-103947142D01*
X149273571Y-103947142D01*
X149187857Y-103990000D01*
X149145000Y-104075714D01*
X149145000Y-104161428D01*
X149573571Y-104247142D01*
X148373571Y-103947142D02*
X148373571Y-104675714D01*
X148416428Y-104761428D01*
X148459285Y-104804285D01*
X148545000Y-104847142D01*
X148673571Y-104847142D01*
X148759285Y-104804285D01*
X148373571Y-104504285D02*
X148459285Y-104547142D01*
X148630714Y-104547142D01*
X148716428Y-104504285D01*
X148759285Y-104461428D01*
X148802142Y-104375714D01*
X148802142Y-104118571D01*
X148759285Y-104032857D01*
X148716428Y-103990000D01*
X148630714Y-103947142D01*
X148459285Y-103947142D01*
X148373571Y-103990000D01*
X147559285Y-103947142D02*
X147559285Y-104547142D01*
X147945000Y-103947142D02*
X147945000Y-104418571D01*
X147902142Y-104504285D01*
X147816428Y-104547142D01*
X147687857Y-104547142D01*
X147602142Y-104504285D01*
X147559285Y-104461428D01*
X147002142Y-104547142D02*
X147087857Y-104504285D01*
X147130714Y-104418571D01*
X147130714Y-103647142D01*
X146273571Y-104547142D02*
X146273571Y-104075714D01*
X146316428Y-103990000D01*
X146402142Y-103947142D01*
X146573571Y-103947142D01*
X146659285Y-103990000D01*
X146273571Y-104504285D02*
X146359285Y-104547142D01*
X146573571Y-104547142D01*
X146659285Y-104504285D01*
X146702142Y-104418571D01*
X146702142Y-104332857D01*
X146659285Y-104247142D01*
X146573571Y-104204285D01*
X146359285Y-104204285D01*
X146273571Y-104161428D01*
X145973571Y-103947142D02*
X145630714Y-103947142D01*
X145845000Y-103647142D02*
X145845000Y-104418571D01*
X145802142Y-104504285D01*
X145716428Y-104547142D01*
X145630714Y-104547142D01*
X145202142Y-104547142D02*
X145287857Y-104504285D01*
X145330714Y-104461428D01*
X145373571Y-104375714D01*
X145373571Y-104118571D01*
X145330714Y-104032857D01*
X145287857Y-103990000D01*
X145202142Y-103947142D01*
X145073571Y-103947142D01*
X144987857Y-103990000D01*
X144945000Y-104032857D01*
X144902142Y-104118571D01*
X144902142Y-104375714D01*
X144945000Y-104461428D01*
X144987857Y-104504285D01*
X145073571Y-104547142D01*
X145202142Y-104547142D01*
X144516428Y-104547142D02*
X144516428Y-103947142D01*
X144516428Y-104118571D02*
X144473571Y-104032857D01*
X144430714Y-103990000D01*
X144345000Y-103947142D01*
X144259285Y-103947142D01*
X143102142Y-103647142D02*
X142930714Y-103647142D01*
X142845000Y-103690000D01*
X142759285Y-103775714D01*
X142716428Y-103947142D01*
X142716428Y-104247142D01*
X142759285Y-104418571D01*
X142845000Y-104504285D01*
X142930714Y-104547142D01*
X143102142Y-104547142D01*
X143187857Y-104504285D01*
X143273571Y-104418571D01*
X143316428Y-104247142D01*
X143316428Y-103947142D01*
X143273571Y-103775714D01*
X143187857Y-103690000D01*
X143102142Y-103647142D01*
X141945000Y-103947142D02*
X141945000Y-104547142D01*
X142330714Y-103947142D02*
X142330714Y-104418571D01*
X142287857Y-104504285D01*
X142202142Y-104547142D01*
X142073571Y-104547142D01*
X141987857Y-104504285D01*
X141945000Y-104461428D01*
X141645000Y-103947142D02*
X141302142Y-103947142D01*
X141516428Y-103647142D02*
X141516428Y-104418571D01*
X141473571Y-104504285D01*
X141387857Y-104547142D01*
X141302142Y-104547142D01*
X141002142Y-103947142D02*
X141002142Y-104847142D01*
X141002142Y-103990000D02*
X140916428Y-103947142D01*
X140745000Y-103947142D01*
X140659285Y-103990000D01*
X140616428Y-104032857D01*
X140573571Y-104118571D01*
X140573571Y-104375714D01*
X140616428Y-104461428D01*
X140659285Y-104504285D01*
X140745000Y-104547142D01*
X140916428Y-104547142D01*
X141002142Y-104504285D01*
X139802142Y-103947142D02*
X139802142Y-104547142D01*
X140187857Y-103947142D02*
X140187857Y-104418571D01*
X140145000Y-104504285D01*
X140059285Y-104547142D01*
X139930714Y-104547142D01*
X139845000Y-104504285D01*
X139802142Y-104461428D01*
X139502142Y-103947142D02*
X139159285Y-103947142D01*
X139373571Y-103647142D02*
X139373571Y-104418571D01*
X139330714Y-104504285D01*
X139245000Y-104547142D01*
X139159285Y-104547142D01*
X145046904Y-106526428D02*
X144285000Y-106526428D01*
X144665952Y-106907380D02*
X144665952Y-106145476D01*
X143094523Y-105859761D02*
X143951666Y-107145476D01*
X142761190Y-106526428D02*
X141999285Y-106526428D01*
X140285000Y-105907380D02*
X140761190Y-105907380D01*
X140808809Y-106383571D01*
X140761190Y-106335952D01*
X140665952Y-106288333D01*
X140427857Y-106288333D01*
X140332619Y-106335952D01*
X140285000Y-106383571D01*
X140237380Y-106478809D01*
X140237380Y-106716904D01*
X140285000Y-106812142D01*
X140332619Y-106859761D01*
X140427857Y-106907380D01*
X140665952Y-106907380D01*
X140761190Y-106859761D01*
X140808809Y-106812142D01*
X139951666Y-105907380D02*
X139618333Y-106907380D01*
X139285000Y-105907380D01*
X145046904Y-108226428D02*
X144285000Y-108226428D01*
X144665952Y-108607380D02*
X144665952Y-107845476D01*
X143094523Y-107559761D02*
X143951666Y-108845476D01*
X142761190Y-108226428D02*
X141999285Y-108226428D01*
X140713571Y-108607380D02*
X140523095Y-108607380D01*
X140427857Y-108559761D01*
X140380238Y-108512142D01*
X140285000Y-108369285D01*
X140237380Y-108178809D01*
X140237380Y-107797857D01*
X140285000Y-107702619D01*
X140332619Y-107655000D01*
X140427857Y-107607380D01*
X140618333Y-107607380D01*
X140713571Y-107655000D01*
X140761190Y-107702619D01*
X140808809Y-107797857D01*
X140808809Y-108035952D01*
X140761190Y-108131190D01*
X140713571Y-108178809D01*
X140618333Y-108226428D01*
X140427857Y-108226428D01*
X140332619Y-108178809D01*
X140285000Y-108131190D01*
X140237380Y-108035952D01*
X139951666Y-107607380D02*
X139618333Y-108607380D01*
X139285000Y-107607380D01*
X145046904Y-109926428D02*
X144285000Y-109926428D01*
X144665952Y-110307380D02*
X144665952Y-109545476D01*
X143094523Y-109259761D02*
X143951666Y-110545476D01*
X142761190Y-109926428D02*
X141999285Y-109926428D01*
X140237380Y-110307380D02*
X140808809Y-110307380D01*
X140523095Y-110307380D02*
X140523095Y-109307380D01*
X140618333Y-109450238D01*
X140713571Y-109545476D01*
X140808809Y-109593095D01*
X139856428Y-109402619D02*
X139808809Y-109355000D01*
X139713571Y-109307380D01*
X139475476Y-109307380D01*
X139380238Y-109355000D01*
X139332619Y-109402619D01*
X139285000Y-109497857D01*
X139285000Y-109593095D01*
X139332619Y-109735952D01*
X139904047Y-110307380D01*
X139285000Y-110307380D01*
X138999285Y-109307380D02*
X138665952Y-110307380D01*
X138332619Y-109307380D01*
X145046904Y-111626428D02*
X144285000Y-111626428D01*
X144665952Y-112007380D02*
X144665952Y-111245476D01*
X143094523Y-110959761D02*
X143951666Y-112245476D01*
X142761190Y-111626428D02*
X141999285Y-111626428D01*
X140237380Y-112007380D02*
X140808809Y-112007380D01*
X140523095Y-112007380D02*
X140523095Y-111007380D01*
X140618333Y-111150238D01*
X140713571Y-111245476D01*
X140808809Y-111293095D01*
X139665952Y-111435952D02*
X139761190Y-111388333D01*
X139808809Y-111340714D01*
X139856428Y-111245476D01*
X139856428Y-111197857D01*
X139808809Y-111102619D01*
X139761190Y-111055000D01*
X139665952Y-111007380D01*
X139475476Y-111007380D01*
X139380238Y-111055000D01*
X139332619Y-111102619D01*
X139285000Y-111197857D01*
X139285000Y-111245476D01*
X139332619Y-111340714D01*
X139380238Y-111388333D01*
X139475476Y-111435952D01*
X139665952Y-111435952D01*
X139761190Y-111483571D01*
X139808809Y-111531190D01*
X139856428Y-111626428D01*
X139856428Y-111816904D01*
X139808809Y-111912142D01*
X139761190Y-111959761D01*
X139665952Y-112007380D01*
X139475476Y-112007380D01*
X139380238Y-111959761D01*
X139332619Y-111912142D01*
X139285000Y-111816904D01*
X139285000Y-111626428D01*
X139332619Y-111531190D01*
X139380238Y-111483571D01*
X139475476Y-111435952D01*
X138999285Y-111007380D02*
X138665952Y-112007380D01*
X138332619Y-111007380D01*
X145046904Y-113326428D02*
X144285000Y-113326428D01*
X144665952Y-113707380D02*
X144665952Y-112945476D01*
X143094523Y-112659761D02*
X143951666Y-113945476D01*
X142761190Y-113326428D02*
X141999285Y-113326428D01*
X140808809Y-112802619D02*
X140761190Y-112755000D01*
X140665952Y-112707380D01*
X140427857Y-112707380D01*
X140332619Y-112755000D01*
X140285000Y-112802619D01*
X140237380Y-112897857D01*
X140237380Y-112993095D01*
X140285000Y-113135952D01*
X140856428Y-113707380D01*
X140237380Y-113707380D01*
X139380238Y-113040714D02*
X139380238Y-113707380D01*
X139618333Y-112659761D02*
X139856428Y-113374047D01*
X139237380Y-113374047D01*
X138999285Y-112707380D02*
X138665952Y-113707380D01*
X138332619Y-112707380D01*
X152730476Y-106907380D02*
X153063809Y-106431190D01*
X153301904Y-106907380D02*
X153301904Y-105907380D01*
X152920952Y-105907380D01*
X152825714Y-105955000D01*
X152778095Y-106002619D01*
X152730476Y-106097857D01*
X152730476Y-106240714D01*
X152778095Y-106335952D01*
X152825714Y-106383571D01*
X152920952Y-106431190D01*
X153301904Y-106431190D01*
X152349523Y-106002619D02*
X152301904Y-105955000D01*
X152206666Y-105907380D01*
X151968571Y-105907380D01*
X151873333Y-105955000D01*
X151825714Y-106002619D01*
X151778095Y-106097857D01*
X151778095Y-106193095D01*
X151825714Y-106335952D01*
X152397142Y-106907380D01*
X151778095Y-106907380D01*
X151349523Y-106383571D02*
X150587619Y-106383571D01*
X150587619Y-106669285D02*
X151349523Y-106669285D01*
X150206666Y-105907380D02*
X149587619Y-105907380D01*
X149920952Y-106288333D01*
X149778095Y-106288333D01*
X149682857Y-106335952D01*
X149635238Y-106383571D01*
X149587619Y-106478809D01*
X149587619Y-106716904D01*
X149635238Y-106812142D01*
X149682857Y-106859761D01*
X149778095Y-106907380D01*
X150063809Y-106907380D01*
X150159047Y-106859761D01*
X150206666Y-106812142D01*
X149111428Y-106907380D02*
X148920952Y-106907380D01*
X148825714Y-106859761D01*
X148778095Y-106812142D01*
X148682857Y-106669285D01*
X148635238Y-106478809D01*
X148635238Y-106097857D01*
X148682857Y-106002619D01*
X148730476Y-105955000D01*
X148825714Y-105907380D01*
X149016190Y-105907380D01*
X149111428Y-105955000D01*
X149159047Y-106002619D01*
X149206666Y-106097857D01*
X149206666Y-106335952D01*
X149159047Y-106431190D01*
X149111428Y-106478809D01*
X149016190Y-106526428D01*
X148825714Y-106526428D01*
X148730476Y-106478809D01*
X148682857Y-106431190D01*
X148635238Y-106335952D01*
X148016190Y-105907380D02*
X147920952Y-105907380D01*
X147825714Y-105955000D01*
X147778095Y-106002619D01*
X147730476Y-106097857D01*
X147682857Y-106288333D01*
X147682857Y-106526428D01*
X147730476Y-106716904D01*
X147778095Y-106812142D01*
X147825714Y-106859761D01*
X147920952Y-106907380D01*
X148016190Y-106907380D01*
X148111428Y-106859761D01*
X148159047Y-106812142D01*
X148206666Y-106716904D01*
X148254285Y-106526428D01*
X148254285Y-106288333D01*
X148206666Y-106097857D01*
X148159047Y-106002619D01*
X148111428Y-105955000D01*
X148016190Y-105907380D01*
X146682857Y-106907380D02*
X147016190Y-106431190D01*
X147254285Y-106907380D02*
X147254285Y-105907380D01*
X146873333Y-105907380D01*
X146778095Y-105955000D01*
X146730476Y-106002619D01*
X146682857Y-106097857D01*
X146682857Y-106240714D01*
X146730476Y-106335952D01*
X146778095Y-106383571D01*
X146873333Y-106431190D01*
X147254285Y-106431190D01*
X152730476Y-108607380D02*
X153063809Y-108131190D01*
X153301904Y-108607380D02*
X153301904Y-107607380D01*
X152920952Y-107607380D01*
X152825714Y-107655000D01*
X152778095Y-107702619D01*
X152730476Y-107797857D01*
X152730476Y-107940714D01*
X152778095Y-108035952D01*
X152825714Y-108083571D01*
X152920952Y-108131190D01*
X153301904Y-108131190D01*
X152349523Y-107702619D02*
X152301904Y-107655000D01*
X152206666Y-107607380D01*
X151968571Y-107607380D01*
X151873333Y-107655000D01*
X151825714Y-107702619D01*
X151778095Y-107797857D01*
X151778095Y-107893095D01*
X151825714Y-108035952D01*
X152397142Y-108607380D01*
X151778095Y-108607380D01*
X151349523Y-108083571D02*
X150587619Y-108083571D01*
X150587619Y-108369285D02*
X151349523Y-108369285D01*
X150206666Y-107607380D02*
X149540000Y-107607380D01*
X149968571Y-108607380D01*
X148682857Y-107607380D02*
X149159047Y-107607380D01*
X149206666Y-108083571D01*
X149159047Y-108035952D01*
X149063809Y-107988333D01*
X148825714Y-107988333D01*
X148730476Y-108035952D01*
X148682857Y-108083571D01*
X148635238Y-108178809D01*
X148635238Y-108416904D01*
X148682857Y-108512142D01*
X148730476Y-108559761D01*
X148825714Y-108607380D01*
X149063809Y-108607380D01*
X149159047Y-108559761D01*
X149206666Y-108512142D01*
X148016190Y-107607380D02*
X147920952Y-107607380D01*
X147825714Y-107655000D01*
X147778095Y-107702619D01*
X147730476Y-107797857D01*
X147682857Y-107988333D01*
X147682857Y-108226428D01*
X147730476Y-108416904D01*
X147778095Y-108512142D01*
X147825714Y-108559761D01*
X147920952Y-108607380D01*
X148016190Y-108607380D01*
X148111428Y-108559761D01*
X148159047Y-108512142D01*
X148206666Y-108416904D01*
X148254285Y-108226428D01*
X148254285Y-107988333D01*
X148206666Y-107797857D01*
X148159047Y-107702619D01*
X148111428Y-107655000D01*
X148016190Y-107607380D01*
X146682857Y-108607380D02*
X147016190Y-108131190D01*
X147254285Y-108607380D02*
X147254285Y-107607380D01*
X146873333Y-107607380D01*
X146778095Y-107655000D01*
X146730476Y-107702619D01*
X146682857Y-107797857D01*
X146682857Y-107940714D01*
X146730476Y-108035952D01*
X146778095Y-108083571D01*
X146873333Y-108131190D01*
X147254285Y-108131190D01*
X152730476Y-110307380D02*
X153063809Y-109831190D01*
X153301904Y-110307380D02*
X153301904Y-109307380D01*
X152920952Y-109307380D01*
X152825714Y-109355000D01*
X152778095Y-109402619D01*
X152730476Y-109497857D01*
X152730476Y-109640714D01*
X152778095Y-109735952D01*
X152825714Y-109783571D01*
X152920952Y-109831190D01*
X153301904Y-109831190D01*
X152349523Y-109402619D02*
X152301904Y-109355000D01*
X152206666Y-109307380D01*
X151968571Y-109307380D01*
X151873333Y-109355000D01*
X151825714Y-109402619D01*
X151778095Y-109497857D01*
X151778095Y-109593095D01*
X151825714Y-109735952D01*
X152397142Y-110307380D01*
X151778095Y-110307380D01*
X151349523Y-109783571D02*
X150587619Y-109783571D01*
X150587619Y-110069285D02*
X151349523Y-110069285D01*
X149587619Y-110307380D02*
X150159047Y-110307380D01*
X149873333Y-110307380D02*
X149873333Y-109307380D01*
X149968571Y-109450238D01*
X150063809Y-109545476D01*
X150159047Y-109593095D01*
X149159047Y-110307380D02*
X149159047Y-109307380D01*
X148587619Y-110307380D02*
X149016190Y-109735952D01*
X148587619Y-109307380D02*
X149159047Y-109878809D01*
X147635238Y-110307380D02*
X148206666Y-110307380D01*
X147920952Y-110307380D02*
X147920952Y-109307380D01*
X148016190Y-109450238D01*
X148111428Y-109545476D01*
X148206666Y-109593095D01*
X152730476Y-112007380D02*
X153063809Y-111531190D01*
X153301904Y-112007380D02*
X153301904Y-111007380D01*
X152920952Y-111007380D01*
X152825714Y-111055000D01*
X152778095Y-111102619D01*
X152730476Y-111197857D01*
X152730476Y-111340714D01*
X152778095Y-111435952D01*
X152825714Y-111483571D01*
X152920952Y-111531190D01*
X153301904Y-111531190D01*
X152349523Y-111102619D02*
X152301904Y-111055000D01*
X152206666Y-111007380D01*
X151968571Y-111007380D01*
X151873333Y-111055000D01*
X151825714Y-111102619D01*
X151778095Y-111197857D01*
X151778095Y-111293095D01*
X151825714Y-111435952D01*
X152397142Y-112007380D01*
X151778095Y-112007380D01*
X151349523Y-111483571D02*
X150587619Y-111483571D01*
X150587619Y-111769285D02*
X151349523Y-111769285D01*
X150159047Y-111102619D02*
X150111428Y-111055000D01*
X150016190Y-111007380D01*
X149778095Y-111007380D01*
X149682857Y-111055000D01*
X149635238Y-111102619D01*
X149587619Y-111197857D01*
X149587619Y-111293095D01*
X149635238Y-111435952D01*
X150206666Y-112007380D01*
X149587619Y-112007380D01*
X149159047Y-112007380D02*
X149159047Y-111007380D01*
X148587619Y-112007380D02*
X149016190Y-111435952D01*
X148587619Y-111007380D02*
X149159047Y-111578809D01*
X152730476Y-113707380D02*
X153063809Y-113231190D01*
X153301904Y-113707380D02*
X153301904Y-112707380D01*
X152920952Y-112707380D01*
X152825714Y-112755000D01*
X152778095Y-112802619D01*
X152730476Y-112897857D01*
X152730476Y-113040714D01*
X152778095Y-113135952D01*
X152825714Y-113183571D01*
X152920952Y-113231190D01*
X153301904Y-113231190D01*
X152349523Y-112802619D02*
X152301904Y-112755000D01*
X152206666Y-112707380D01*
X151968571Y-112707380D01*
X151873333Y-112755000D01*
X151825714Y-112802619D01*
X151778095Y-112897857D01*
X151778095Y-112993095D01*
X151825714Y-113135952D01*
X152397142Y-113707380D01*
X151778095Y-113707380D01*
X151349523Y-113183571D02*
X150587619Y-113183571D01*
X150587619Y-113469285D02*
X151349523Y-113469285D01*
X150159047Y-112802619D02*
X150111428Y-112755000D01*
X150016190Y-112707380D01*
X149778095Y-112707380D01*
X149682857Y-112755000D01*
X149635238Y-112802619D01*
X149587619Y-112897857D01*
X149587619Y-112993095D01*
X149635238Y-113135952D01*
X150206666Y-113707380D01*
X149587619Y-113707380D01*
X149159047Y-113707380D02*
X149159047Y-112707380D01*
X148587619Y-113707380D02*
X149016190Y-113135952D01*
X148587619Y-112707380D02*
X149159047Y-113278809D01*
X148206666Y-112802619D02*
X148159047Y-112755000D01*
X148063809Y-112707380D01*
X147825714Y-112707380D01*
X147730476Y-112755000D01*
X147682857Y-112802619D01*
X147635238Y-112897857D01*
X147635238Y-112993095D01*
X147682857Y-113135952D01*
X148254285Y-113707380D01*
X147635238Y-113707380D01*
X160985476Y-106907380D02*
X161318809Y-106431190D01*
X161556904Y-106907380D02*
X161556904Y-105907380D01*
X161175952Y-105907380D01*
X161080714Y-105955000D01*
X161033095Y-106002619D01*
X160985476Y-106097857D01*
X160985476Y-106240714D01*
X161033095Y-106335952D01*
X161080714Y-106383571D01*
X161175952Y-106431190D01*
X161556904Y-106431190D01*
X160033095Y-106907380D02*
X160604523Y-106907380D01*
X160318809Y-106907380D02*
X160318809Y-105907380D01*
X160414047Y-106050238D01*
X160509285Y-106145476D01*
X160604523Y-106193095D01*
X159604523Y-106383571D02*
X158842619Y-106383571D01*
X158842619Y-106669285D02*
X159604523Y-106669285D01*
X157842619Y-106907380D02*
X158414047Y-106907380D01*
X158128333Y-106907380D02*
X158128333Y-105907380D01*
X158223571Y-106050238D01*
X158318809Y-106145476D01*
X158414047Y-106193095D01*
X157461666Y-106002619D02*
X157414047Y-105955000D01*
X157318809Y-105907380D01*
X157080714Y-105907380D01*
X156985476Y-105955000D01*
X156937857Y-106002619D01*
X156890238Y-106097857D01*
X156890238Y-106193095D01*
X156937857Y-106335952D01*
X157509285Y-106907380D01*
X156890238Y-106907380D01*
X156271190Y-105907380D02*
X156175952Y-105907380D01*
X156080714Y-105955000D01*
X156033095Y-106002619D01*
X155985476Y-106097857D01*
X155937857Y-106288333D01*
X155937857Y-106526428D01*
X155985476Y-106716904D01*
X156033095Y-106812142D01*
X156080714Y-106859761D01*
X156175952Y-106907380D01*
X156271190Y-106907380D01*
X156366428Y-106859761D01*
X156414047Y-106812142D01*
X156461666Y-106716904D01*
X156509285Y-106526428D01*
X156509285Y-106288333D01*
X156461666Y-106097857D01*
X156414047Y-106002619D01*
X156366428Y-105955000D01*
X156271190Y-105907380D01*
X154937857Y-106907380D02*
X155271190Y-106431190D01*
X155509285Y-106907380D02*
X155509285Y-105907380D01*
X155128333Y-105907380D01*
X155033095Y-105955000D01*
X154985476Y-106002619D01*
X154937857Y-106097857D01*
X154937857Y-106240714D01*
X154985476Y-106335952D01*
X155033095Y-106383571D01*
X155128333Y-106431190D01*
X155509285Y-106431190D01*
X160985476Y-108607380D02*
X161318809Y-108131190D01*
X161556904Y-108607380D02*
X161556904Y-107607380D01*
X161175952Y-107607380D01*
X161080714Y-107655000D01*
X161033095Y-107702619D01*
X160985476Y-107797857D01*
X160985476Y-107940714D01*
X161033095Y-108035952D01*
X161080714Y-108083571D01*
X161175952Y-108131190D01*
X161556904Y-108131190D01*
X160033095Y-108607380D02*
X160604523Y-108607380D01*
X160318809Y-108607380D02*
X160318809Y-107607380D01*
X160414047Y-107750238D01*
X160509285Y-107845476D01*
X160604523Y-107893095D01*
X159604523Y-108083571D02*
X158842619Y-108083571D01*
X158842619Y-108369285D02*
X159604523Y-108369285D01*
X157842619Y-108607380D02*
X158414047Y-108607380D01*
X158128333Y-108607380D02*
X158128333Y-107607380D01*
X158223571Y-107750238D01*
X158318809Y-107845476D01*
X158414047Y-107893095D01*
X157461666Y-107702619D02*
X157414047Y-107655000D01*
X157318809Y-107607380D01*
X157080714Y-107607380D01*
X156985476Y-107655000D01*
X156937857Y-107702619D01*
X156890238Y-107797857D01*
X156890238Y-107893095D01*
X156937857Y-108035952D01*
X157509285Y-108607380D01*
X156890238Y-108607380D01*
X156271190Y-107607380D02*
X156175952Y-107607380D01*
X156080714Y-107655000D01*
X156033095Y-107702619D01*
X155985476Y-107797857D01*
X155937857Y-107988333D01*
X155937857Y-108226428D01*
X155985476Y-108416904D01*
X156033095Y-108512142D01*
X156080714Y-108559761D01*
X156175952Y-108607380D01*
X156271190Y-108607380D01*
X156366428Y-108559761D01*
X156414047Y-108512142D01*
X156461666Y-108416904D01*
X156509285Y-108226428D01*
X156509285Y-107988333D01*
X156461666Y-107797857D01*
X156414047Y-107702619D01*
X156366428Y-107655000D01*
X156271190Y-107607380D01*
X154937857Y-108607380D02*
X155271190Y-108131190D01*
X155509285Y-108607380D02*
X155509285Y-107607380D01*
X155128333Y-107607380D01*
X155033095Y-107655000D01*
X154985476Y-107702619D01*
X154937857Y-107797857D01*
X154937857Y-107940714D01*
X154985476Y-108035952D01*
X155033095Y-108083571D01*
X155128333Y-108131190D01*
X155509285Y-108131190D01*
X160985476Y-110307380D02*
X161318809Y-109831190D01*
X161556904Y-110307380D02*
X161556904Y-109307380D01*
X161175952Y-109307380D01*
X161080714Y-109355000D01*
X161033095Y-109402619D01*
X160985476Y-109497857D01*
X160985476Y-109640714D01*
X161033095Y-109735952D01*
X161080714Y-109783571D01*
X161175952Y-109831190D01*
X161556904Y-109831190D01*
X160033095Y-110307380D02*
X160604523Y-110307380D01*
X160318809Y-110307380D02*
X160318809Y-109307380D01*
X160414047Y-109450238D01*
X160509285Y-109545476D01*
X160604523Y-109593095D01*
X159604523Y-109783571D02*
X158842619Y-109783571D01*
X158842619Y-110069285D02*
X159604523Y-110069285D01*
X157842619Y-110307380D02*
X158414047Y-110307380D01*
X158128333Y-110307380D02*
X158128333Y-109307380D01*
X158223571Y-109450238D01*
X158318809Y-109545476D01*
X158414047Y-109593095D01*
X157461666Y-109402619D02*
X157414047Y-109355000D01*
X157318809Y-109307380D01*
X157080714Y-109307380D01*
X156985476Y-109355000D01*
X156937857Y-109402619D01*
X156890238Y-109497857D01*
X156890238Y-109593095D01*
X156937857Y-109735952D01*
X157509285Y-110307380D01*
X156890238Y-110307380D01*
X156271190Y-109307380D02*
X156175952Y-109307380D01*
X156080714Y-109355000D01*
X156033095Y-109402619D01*
X155985476Y-109497857D01*
X155937857Y-109688333D01*
X155937857Y-109926428D01*
X155985476Y-110116904D01*
X156033095Y-110212142D01*
X156080714Y-110259761D01*
X156175952Y-110307380D01*
X156271190Y-110307380D01*
X156366428Y-110259761D01*
X156414047Y-110212142D01*
X156461666Y-110116904D01*
X156509285Y-109926428D01*
X156509285Y-109688333D01*
X156461666Y-109497857D01*
X156414047Y-109402619D01*
X156366428Y-109355000D01*
X156271190Y-109307380D01*
X154937857Y-110307380D02*
X155271190Y-109831190D01*
X155509285Y-110307380D02*
X155509285Y-109307380D01*
X155128333Y-109307380D01*
X155033095Y-109355000D01*
X154985476Y-109402619D01*
X154937857Y-109497857D01*
X154937857Y-109640714D01*
X154985476Y-109735952D01*
X155033095Y-109783571D01*
X155128333Y-109831190D01*
X155509285Y-109831190D01*
X160985476Y-112007380D02*
X161318809Y-111531190D01*
X161556904Y-112007380D02*
X161556904Y-111007380D01*
X161175952Y-111007380D01*
X161080714Y-111055000D01*
X161033095Y-111102619D01*
X160985476Y-111197857D01*
X160985476Y-111340714D01*
X161033095Y-111435952D01*
X161080714Y-111483571D01*
X161175952Y-111531190D01*
X161556904Y-111531190D01*
X160033095Y-112007380D02*
X160604523Y-112007380D01*
X160318809Y-112007380D02*
X160318809Y-111007380D01*
X160414047Y-111150238D01*
X160509285Y-111245476D01*
X160604523Y-111293095D01*
X159604523Y-111483571D02*
X158842619Y-111483571D01*
X158842619Y-111769285D02*
X159604523Y-111769285D01*
X157842619Y-112007380D02*
X158414047Y-112007380D01*
X158128333Y-112007380D02*
X158128333Y-111007380D01*
X158223571Y-111150238D01*
X158318809Y-111245476D01*
X158414047Y-111293095D01*
X156937857Y-111007380D02*
X157414047Y-111007380D01*
X157461666Y-111483571D01*
X157414047Y-111435952D01*
X157318809Y-111388333D01*
X157080714Y-111388333D01*
X156985476Y-111435952D01*
X156937857Y-111483571D01*
X156890238Y-111578809D01*
X156890238Y-111816904D01*
X156937857Y-111912142D01*
X156985476Y-111959761D01*
X157080714Y-112007380D01*
X157318809Y-112007380D01*
X157414047Y-111959761D01*
X157461666Y-111912142D01*
X156271190Y-111007380D02*
X156175952Y-111007380D01*
X156080714Y-111055000D01*
X156033095Y-111102619D01*
X155985476Y-111197857D01*
X155937857Y-111388333D01*
X155937857Y-111626428D01*
X155985476Y-111816904D01*
X156033095Y-111912142D01*
X156080714Y-111959761D01*
X156175952Y-112007380D01*
X156271190Y-112007380D01*
X156366428Y-111959761D01*
X156414047Y-111912142D01*
X156461666Y-111816904D01*
X156509285Y-111626428D01*
X156509285Y-111388333D01*
X156461666Y-111197857D01*
X156414047Y-111102619D01*
X156366428Y-111055000D01*
X156271190Y-111007380D01*
X154937857Y-112007380D02*
X155271190Y-111531190D01*
X155509285Y-112007380D02*
X155509285Y-111007380D01*
X155128333Y-111007380D01*
X155033095Y-111055000D01*
X154985476Y-111102619D01*
X154937857Y-111197857D01*
X154937857Y-111340714D01*
X154985476Y-111435952D01*
X155033095Y-111483571D01*
X155128333Y-111531190D01*
X155509285Y-111531190D01*
X160985476Y-113707380D02*
X161318809Y-113231190D01*
X161556904Y-113707380D02*
X161556904Y-112707380D01*
X161175952Y-112707380D01*
X161080714Y-112755000D01*
X161033095Y-112802619D01*
X160985476Y-112897857D01*
X160985476Y-113040714D01*
X161033095Y-113135952D01*
X161080714Y-113183571D01*
X161175952Y-113231190D01*
X161556904Y-113231190D01*
X160033095Y-113707380D02*
X160604523Y-113707380D01*
X160318809Y-113707380D02*
X160318809Y-112707380D01*
X160414047Y-112850238D01*
X160509285Y-112945476D01*
X160604523Y-112993095D01*
X159604523Y-113183571D02*
X158842619Y-113183571D01*
X158842619Y-113469285D02*
X159604523Y-113469285D01*
X157842619Y-113707380D02*
X158414047Y-113707380D01*
X158128333Y-113707380D02*
X158128333Y-112707380D01*
X158223571Y-112850238D01*
X158318809Y-112945476D01*
X158414047Y-112993095D01*
X157461666Y-112802619D02*
X157414047Y-112755000D01*
X157318809Y-112707380D01*
X157080714Y-112707380D01*
X156985476Y-112755000D01*
X156937857Y-112802619D01*
X156890238Y-112897857D01*
X156890238Y-112993095D01*
X156937857Y-113135952D01*
X157509285Y-113707380D01*
X156890238Y-113707380D01*
X156271190Y-112707380D02*
X156175952Y-112707380D01*
X156080714Y-112755000D01*
X156033095Y-112802619D01*
X155985476Y-112897857D01*
X155937857Y-113088333D01*
X155937857Y-113326428D01*
X155985476Y-113516904D01*
X156033095Y-113612142D01*
X156080714Y-113659761D01*
X156175952Y-113707380D01*
X156271190Y-113707380D01*
X156366428Y-113659761D01*
X156414047Y-113612142D01*
X156461666Y-113516904D01*
X156509285Y-113326428D01*
X156509285Y-113088333D01*
X156461666Y-112897857D01*
X156414047Y-112802619D01*
X156366428Y-112755000D01*
X156271190Y-112707380D01*
X154937857Y-113707380D02*
X155271190Y-113231190D01*
X155509285Y-113707380D02*
X155509285Y-112707380D01*
X155128333Y-112707380D01*
X155033095Y-112755000D01*
X154985476Y-112802619D01*
X154937857Y-112897857D01*
X154937857Y-113040714D01*
X154985476Y-113135952D01*
X155033095Y-113183571D01*
X155128333Y-113231190D01*
X155509285Y-113231190D01*
D11*
X185162000Y-81450571D02*
X185662000Y-80736285D01*
X186019142Y-81450571D02*
X186019142Y-79950571D01*
X185447714Y-79950571D01*
X185304857Y-80022000D01*
X185233428Y-80093428D01*
X185162000Y-80236285D01*
X185162000Y-80450571D01*
X185233428Y-80593428D01*
X185304857Y-80664857D01*
X185447714Y-80736285D01*
X186019142Y-80736285D01*
X183733428Y-81450571D02*
X184590571Y-81450571D01*
X184162000Y-81450571D02*
X184162000Y-79950571D01*
X184304857Y-80164857D01*
X184447714Y-80307714D01*
X184590571Y-80379142D01*
X110867000Y-81958571D02*
X111367000Y-81244285D01*
X111724142Y-81958571D02*
X111724142Y-80458571D01*
X111152714Y-80458571D01*
X111009857Y-80530000D01*
X110938428Y-80601428D01*
X110867000Y-80744285D01*
X110867000Y-80958571D01*
X110938428Y-81101428D01*
X111009857Y-81172857D01*
X111152714Y-81244285D01*
X111724142Y-81244285D01*
X109438428Y-81958571D02*
X110295571Y-81958571D01*
X109867000Y-81958571D02*
X109867000Y-80458571D01*
X110009857Y-80672857D01*
X110152714Y-80815714D01*
X110295571Y-80887142D01*
X175510000Y-81323571D02*
X176010000Y-80609285D01*
X176367142Y-81323571D02*
X176367142Y-79823571D01*
X175795714Y-79823571D01*
X175652857Y-79895000D01*
X175581428Y-79966428D01*
X175510000Y-80109285D01*
X175510000Y-80323571D01*
X175581428Y-80466428D01*
X175652857Y-80537857D01*
X175795714Y-80609285D01*
X176367142Y-80609285D01*
X174938571Y-79966428D02*
X174867142Y-79895000D01*
X174724285Y-79823571D01*
X174367142Y-79823571D01*
X174224285Y-79895000D01*
X174152857Y-79966428D01*
X174081428Y-80109285D01*
X174081428Y-80252142D01*
X174152857Y-80466428D01*
X175010000Y-81323571D01*
X174081428Y-81323571D01*
X190246000Y-83185000D02*
X180975000Y-83185000D01*
X190246000Y-86995000D02*
X190246000Y-83185000D01*
X180975000Y-86995000D02*
X190246000Y-86995000D01*
X180975000Y-83185000D02*
X180975000Y-86995000D01*
X180086000Y-83185000D02*
X170815000Y-83185000D01*
X180086000Y-86995000D02*
X180086000Y-83185000D01*
X170815000Y-86995000D02*
X180086000Y-86995000D01*
X170815000Y-83185000D02*
X170815000Y-86995000D01*
X122805000Y-82466571D02*
X123305000Y-81752285D01*
X123662142Y-82466571D02*
X123662142Y-80966571D01*
X123090714Y-80966571D01*
X122947857Y-81038000D01*
X122876428Y-81109428D01*
X122805000Y-81252285D01*
X122805000Y-81466571D01*
X122876428Y-81609428D01*
X122947857Y-81680857D01*
X123090714Y-81752285D01*
X123662142Y-81752285D01*
X122233571Y-81109428D02*
X122162142Y-81038000D01*
X122019285Y-80966571D01*
X121662142Y-80966571D01*
X121519285Y-81038000D01*
X121447857Y-81109428D01*
X121376428Y-81252285D01*
X121376428Y-81395142D01*
X121447857Y-81609428D01*
X122305000Y-82466571D01*
X121376428Y-82466571D01*
X117986683Y-87001209D02*
X127892683Y-87001209D01*
X117986683Y-83191209D02*
X117986683Y-87001209D01*
X127892683Y-83191209D02*
X117986683Y-83191209D01*
X127892683Y-87001209D02*
X127892683Y-83191209D01*
X115951000Y-83185000D02*
X106045000Y-83185000D01*
X115951000Y-86995000D02*
X115951000Y-83185000D01*
X106045000Y-86995000D02*
X115951000Y-86995000D01*
X106045000Y-83185000D02*
X106045000Y-86995000D01*
D13*
X120554285Y-58463571D02*
X120554285Y-56963571D01*
X119982857Y-56963571D01*
X119840000Y-57035000D01*
X119768571Y-57106428D01*
X119697142Y-57249285D01*
X119697142Y-57463571D01*
X119768571Y-57606428D01*
X119840000Y-57677857D01*
X119982857Y-57749285D01*
X120554285Y-57749285D01*
X119197142Y-56963571D02*
X118840000Y-58463571D01*
X118554285Y-57392142D01*
X118268571Y-58463571D01*
X117911428Y-56963571D01*
X116482857Y-58463571D02*
X116982857Y-57749285D01*
X117340000Y-58463571D02*
X117340000Y-56963571D01*
X116768571Y-56963571D01*
X116625714Y-57035000D01*
X116554285Y-57106428D01*
X116482857Y-57249285D01*
X116482857Y-57463571D01*
X116554285Y-57606428D01*
X116625714Y-57677857D01*
X116768571Y-57749285D01*
X117340000Y-57749285D01*
X114697142Y-58463571D02*
X114697142Y-56963571D01*
X113982857Y-58463571D02*
X113982857Y-56963571D01*
X113125714Y-58463571D01*
X113125714Y-56963571D01*
M02*
