M48
;DRILL file {KiCad (5.0.0-3-g5ebb6b6)} date Saturday, 24 November 2018 at 00:31:00
;FORMAT={-:-/ absolute / metric / decimal}
FMAT,2
METRIC,TZ
T1C0.800
T2C0.900
T3C1.000
T4C1.200
%
G90
G05
M71
T1
X116.205Y-69.85
X118.705Y-69.85
X172.72Y-85.09
X177.8Y-85.09
X113.665Y-77.47
X118.745Y-77.47
X182.88Y-85.09
X187.96Y-85.09
X175.768Y-77.47
X180.848Y-77.47
X125.095Y-77.47
X130.095Y-77.47
X177.8Y-69.85
X120.527Y-85.096
X125.607Y-85.096
X108.331Y-85.099
X113.411Y-85.099
X166.116Y-77.47
X171.116Y-77.47
X180.3Y-69.85
T2
X185.42Y-69.85
X187.96Y-69.85
X107.95Y-69.85
X110.49Y-69.85
T3
X141.732Y-74.93
X141.732Y-77.47
X141.732Y-80.01
X141.732Y-82.55
X141.732Y-85.09
X144.272Y-74.93
X144.272Y-77.47
X144.272Y-80.01
X144.272Y-82.55
X144.272Y-85.09
X115.57Y-60.96
X118.11Y-60.96
X153.67Y-74.93
X153.67Y-77.47
X153.67Y-80.01
X153.67Y-82.55
X153.67Y-85.09
X156.21Y-74.93
X156.21Y-77.47
X156.21Y-80.01
X156.21Y-82.55
X156.21Y-85.09
T4
X185.928Y-77.47
X188.468Y-77.47
X106.68Y-77.47
X109.22Y-77.47
X125.095Y-69.85
X127.635Y-69.85
X153.035Y-67.31
X155.575Y-67.31
X158.115Y-67.31
X131.445Y-85.09
X133.985Y-85.09
X163.83Y-85.09
X166.37Y-85.09
X133.35Y-118.745
X140.85Y-118.745
X114.42Y-99.568
X121.92Y-99.568
X133.35Y-99.568
X140.85Y-99.568
X174.341Y-99.568
X181.841Y-99.568
X155.06Y-99.568
X162.56Y-99.568
X166.116Y-69.85
X168.656Y-69.85
X119.38Y-114.935
X119.38Y-122.435
X139.7Y-67.31
X142.24Y-67.31
X144.78Y-67.31
X155.06Y-118.745
X162.56Y-118.745
X176.881Y-115.051
X176.881Y-122.551
T0
M30
