G04 #@! TF.GenerationSoftware,KiCad,Pcbnew,(5.0.0-3-g5ebb6b6)*
G04 #@! TF.CreationDate,2018-11-24T00:30:52+00:00*
G04 #@! TF.ProjectId,AdjustablePSU,41646A75737461626C655053552E6B69,rev?*
G04 #@! TF.SameCoordinates,Original*
G04 #@! TF.FileFunction,Copper,L1,Top,Signal*
G04 #@! TF.FilePolarity,Positive*
%FSLAX46Y46*%
G04 Gerber Fmt 4.6, Leading zero omitted, Abs format (unit mm)*
G04 Created by KiCad (PCBNEW (5.0.0-3-g5ebb6b6)) date Saturday, 24 November 2018 at 00:30:52*
%MOMM*%
%LPD*%
G01*
G04 APERTURE LIST*
G04 #@! TA.AperFunction,ComponentPad*
%ADD10O,1.600000X1.600000*%
G04 #@! TD*
G04 #@! TA.AperFunction,ComponentPad*
%ADD11C,1.600000*%
G04 #@! TD*
G04 #@! TA.AperFunction,ComponentPad*
%ADD12R,1.600000X1.600000*%
G04 #@! TD*
G04 #@! TA.AperFunction,ComponentPad*
%ADD13R,1.905000X2.000000*%
G04 #@! TD*
G04 #@! TA.AperFunction,ComponentPad*
%ADD14O,1.905000X2.000000*%
G04 #@! TD*
G04 #@! TA.AperFunction,ComponentPad*
%ADD15C,2.400000*%
G04 #@! TD*
G04 #@! TA.AperFunction,ComponentPad*
%ADD16R,2.400000X2.400000*%
G04 #@! TD*
G04 #@! TA.AperFunction,ComponentPad*
%ADD17O,2.240000X2.240000*%
G04 #@! TD*
G04 #@! TA.AperFunction,ComponentPad*
%ADD18R,2.240000X2.240000*%
G04 #@! TD*
G04 #@! TA.AperFunction,ComponentPad*
%ADD19C,1.800000*%
G04 #@! TD*
G04 #@! TA.AperFunction,ComponentPad*
%ADD20R,1.800000X1.800000*%
G04 #@! TD*
G04 #@! TA.AperFunction,ComponentPad*
%ADD21R,1.700000X1.700000*%
G04 #@! TD*
G04 #@! TA.AperFunction,ComponentPad*
%ADD22O,1.700000X1.700000*%
G04 #@! TD*
G04 #@! TA.AperFunction,Conductor*
%ADD23C,1.000000*%
G04 #@! TD*
G04 APERTURE END LIST*
D10*
G04 #@! TO.P,R_NEG1,2*
G04 #@! TO.N,Net-(D_NEG4-Pad1)*
X113665000Y-77470000D03*
D11*
G04 #@! TO.P,R_NEG1,1*
G04 #@! TO.N,/12VDC_NEG_REG*
X118745000Y-77470000D03*
G04 #@! TD*
D12*
G04 #@! TO.P,C_NEG6,1*
G04 #@! TO.N,GND*
X116205000Y-69850000D03*
D11*
G04 #@! TO.P,C_NEG6,2*
G04 #@! TO.N,/12VDC_NEG_REG*
X118705000Y-69850000D03*
G04 #@! TD*
D13*
G04 #@! TO.P,U_POSREG1,1*
G04 #@! TO.N,Net-(R_POSREG1-Pad2)*
X153035000Y-67310000D03*
D14*
G04 #@! TO.P,U_POSREG1,2*
G04 #@! TO.N,/12VDC_POS_REG*
X155575000Y-67310000D03*
G04 #@! TO.P,U_POSREG1,3*
G04 #@! TO.N,/DC_POS_IN*
X158115000Y-67310000D03*
G04 #@! TD*
D15*
G04 #@! TO.P,C_NEG5,2*
G04 #@! TO.N,/DC_NEG_IN*
X119380000Y-122435000D03*
D16*
G04 #@! TO.P,C_NEG5,1*
G04 #@! TO.N,GND*
X119380000Y-114935000D03*
G04 #@! TD*
D11*
G04 #@! TO.P,C_NEG1,2*
G04 #@! TO.N,GND*
X130095000Y-77470000D03*
G04 #@! TO.P,C_NEG1,1*
G04 #@! TO.N,/DC_NEG_IN*
X125095000Y-77470000D03*
G04 #@! TD*
D15*
G04 #@! TO.P,C_NEG2,2*
G04 #@! TO.N,/DC_NEG_IN*
X140850000Y-99568000D03*
D16*
G04 #@! TO.P,C_NEG2,1*
G04 #@! TO.N,GND*
X133350000Y-99568000D03*
G04 #@! TD*
G04 #@! TO.P,C_NEG3,1*
G04 #@! TO.N,GND*
X121920000Y-99568000D03*
D15*
G04 #@! TO.P,C_NEG3,2*
G04 #@! TO.N,/DC_NEG_IN*
X114420000Y-99568000D03*
G04 #@! TD*
G04 #@! TO.P,C_NEG4,2*
G04 #@! TO.N,/DC_NEG_IN*
X140850000Y-118745000D03*
D16*
G04 #@! TO.P,C_NEG4,1*
G04 #@! TO.N,GND*
X133350000Y-118745000D03*
G04 #@! TD*
D11*
G04 #@! TO.P,C_POS1,1*
G04 #@! TO.N,/DC_POS_IN*
X166116000Y-77470000D03*
G04 #@! TO.P,C_POS1,2*
G04 #@! TO.N,GND*
X171116000Y-77470000D03*
G04 #@! TD*
D16*
G04 #@! TO.P,C_POS2,1*
G04 #@! TO.N,/DC_POS_IN*
X174341383Y-99568000D03*
D15*
G04 #@! TO.P,C_POS2,2*
G04 #@! TO.N,GND*
X181841383Y-99568000D03*
G04 #@! TD*
G04 #@! TO.P,C_POS3,2*
G04 #@! TO.N,GND*
X155060000Y-99568000D03*
D16*
G04 #@! TO.P,C_POS3,1*
G04 #@! TO.N,/DC_POS_IN*
X162560000Y-99568000D03*
G04 #@! TD*
G04 #@! TO.P,C_POS4,1*
G04 #@! TO.N,/DC_POS_IN*
X176881383Y-115050872D03*
D15*
G04 #@! TO.P,C_POS4,2*
G04 #@! TO.N,GND*
X176881383Y-122550872D03*
G04 #@! TD*
D16*
G04 #@! TO.P,C_POS5,1*
G04 #@! TO.N,/DC_POS_IN*
X162560000Y-118745000D03*
D15*
G04 #@! TO.P,C_POS5,2*
G04 #@! TO.N,GND*
X155060000Y-118745000D03*
G04 #@! TD*
D11*
G04 #@! TO.P,C_POS6,2*
G04 #@! TO.N,GND*
X180300000Y-69850000D03*
D12*
G04 #@! TO.P,C_POS6,1*
G04 #@! TO.N,/12VDC_POS_REG*
X177800000Y-69850000D03*
G04 #@! TD*
D17*
G04 #@! TO.P,D_NEG3,2*
G04 #@! TO.N,/12VDC_NEG_REG*
X133985000Y-85090000D03*
D18*
G04 #@! TO.P,D_NEG3,1*
G04 #@! TO.N,GND*
X131445000Y-85090000D03*
G04 #@! TD*
D19*
G04 #@! TO.P,D_NEG4,2*
G04 #@! TO.N,GND*
X110490000Y-69850000D03*
D20*
G04 #@! TO.P,D_NEG4,1*
G04 #@! TO.N,Net-(D_NEG4-Pad1)*
X107950000Y-69850000D03*
G04 #@! TD*
D18*
G04 #@! TO.P,D_POS1,1*
G04 #@! TO.N,/DC_POS_IN*
X166116000Y-69850000D03*
D17*
G04 #@! TO.P,D_POS1,2*
G04 #@! TO.N,/AC_IN*
X168656000Y-69850000D03*
G04 #@! TD*
D18*
G04 #@! TO.P,D_POS2,1*
G04 #@! TO.N,/DC_POS_IN*
X166370000Y-85090000D03*
D17*
G04 #@! TO.P,D_POS2,2*
G04 #@! TO.N,/12VDC_POS_REG*
X163830000Y-85090000D03*
G04 #@! TD*
D18*
G04 #@! TO.P,D_POS3,1*
G04 #@! TO.N,/12VDC_POS_REG*
X185928000Y-77470000D03*
D17*
G04 #@! TO.P,D_POS3,2*
G04 #@! TO.N,GND*
X188468000Y-77470000D03*
G04 #@! TD*
D20*
G04 #@! TO.P,D_POS4,1*
G04 #@! TO.N,GND*
X187960000Y-69850000D03*
D19*
G04 #@! TO.P,D_POS4,2*
G04 #@! TO.N,Net-(D_POS4-Pad2)*
X185420000Y-69850000D03*
G04 #@! TD*
D21*
G04 #@! TO.P,J_OUT1,1*
G04 #@! TO.N,/12VDC_POS_REG*
X141732000Y-74930000D03*
D22*
G04 #@! TO.P,J_OUT1,2*
X144272000Y-74930000D03*
G04 #@! TO.P,J_OUT1,3*
G04 #@! TO.N,GND*
X141732000Y-77470000D03*
G04 #@! TO.P,J_OUT1,4*
X144272000Y-77470000D03*
G04 #@! TO.P,J_OUT1,5*
X141732000Y-80010000D03*
G04 #@! TO.P,J_OUT1,6*
X144272000Y-80010000D03*
G04 #@! TO.P,J_OUT1,7*
X141732000Y-82550000D03*
G04 #@! TO.P,J_OUT1,8*
X144272000Y-82550000D03*
G04 #@! TO.P,J_OUT1,9*
G04 #@! TO.N,/12VDC_NEG_REG*
X141732000Y-85090000D03*
G04 #@! TO.P,J_OUT1,10*
X144272000Y-85090000D03*
G04 #@! TD*
D11*
G04 #@! TO.P,R_NEGREG1,1*
G04 #@! TO.N,/12VDC_NEG_REG*
X108331000Y-85099069D03*
D10*
G04 #@! TO.P,R_NEGREG1,2*
G04 #@! TO.N,Net-(R_NEGREG1-Pad2)*
X113411000Y-85099069D03*
G04 #@! TD*
G04 #@! TO.P,R_NEGREG2,2*
G04 #@! TO.N,GND*
X125606683Y-85096209D03*
D11*
G04 #@! TO.P,R_NEGREG2,1*
G04 #@! TO.N,Net-(R_NEGREG1-Pad2)*
X120526683Y-85096209D03*
G04 #@! TD*
G04 #@! TO.P,R_POS1,1*
G04 #@! TO.N,/12VDC_POS_REG*
X180848000Y-77470000D03*
D10*
G04 #@! TO.P,R_POS1,2*
G04 #@! TO.N,Net-(D_POS4-Pad2)*
X175768000Y-77470000D03*
G04 #@! TD*
D11*
G04 #@! TO.P,R_POSREG1,1*
G04 #@! TO.N,/12VDC_POS_REG*
X187960000Y-85090000D03*
D10*
G04 #@! TO.P,R_POSREG1,2*
G04 #@! TO.N,Net-(R_POSREG1-Pad2)*
X182880000Y-85090000D03*
G04 #@! TD*
G04 #@! TO.P,R_POSREG2,2*
G04 #@! TO.N,GND*
X172720000Y-85090000D03*
D11*
G04 #@! TO.P,R_POSREG2,1*
G04 #@! TO.N,Net-(R_POSREG1-Pad2)*
X177800000Y-85090000D03*
G04 #@! TD*
D14*
G04 #@! TO.P,U_NEGREG1,3*
G04 #@! TO.N,/12VDC_NEG_REG*
X144780000Y-67310000D03*
G04 #@! TO.P,U_NEGREG1,2*
G04 #@! TO.N,/DC_NEG_IN*
X142240000Y-67310000D03*
D13*
G04 #@! TO.P,U_NEGREG1,1*
G04 #@! TO.N,Net-(R_NEGREG1-Pad2)*
X139700000Y-67310000D03*
G04 #@! TD*
D18*
G04 #@! TO.P,D_NEG1,1*
G04 #@! TO.N,/AC_IN*
X109220000Y-77470000D03*
D17*
G04 #@! TO.P,D_NEG1,2*
G04 #@! TO.N,/DC_NEG_IN*
X106680000Y-77470000D03*
G04 #@! TD*
D21*
G04 #@! TO.P,J_OUT2,1*
G04 #@! TO.N,/12VDC_POS_REG*
X153670000Y-74930000D03*
D22*
G04 #@! TO.P,J_OUT2,2*
X156210000Y-74930000D03*
G04 #@! TO.P,J_OUT2,3*
G04 #@! TO.N,GND*
X153670000Y-77470000D03*
G04 #@! TO.P,J_OUT2,4*
X156210000Y-77470000D03*
G04 #@! TO.P,J_OUT2,5*
X153670000Y-80010000D03*
G04 #@! TO.P,J_OUT2,6*
X156210000Y-80010000D03*
G04 #@! TO.P,J_OUT2,7*
X153670000Y-82550000D03*
G04 #@! TO.P,J_OUT2,8*
X156210000Y-82550000D03*
G04 #@! TO.P,J_OUT2,9*
G04 #@! TO.N,/12VDC_NEG_REG*
X153670000Y-85090000D03*
G04 #@! TO.P,J_OUT2,10*
X156210000Y-85090000D03*
G04 #@! TD*
D18*
G04 #@! TO.P,D_NEG2,1*
G04 #@! TO.N,/12VDC_NEG_REG*
X127635000Y-69850000D03*
D17*
G04 #@! TO.P,D_NEG2,2*
G04 #@! TO.N,/DC_NEG_IN*
X125095000Y-69850000D03*
G04 #@! TD*
D21*
G04 #@! TO.P,J_PWR1,1*
G04 #@! TO.N,GND*
X115570000Y-60960000D03*
D22*
G04 #@! TO.P,J_PWR1,2*
G04 #@! TO.N,/AC_IN*
X118110000Y-60960000D03*
G04 #@! TD*
D23*
G04 #@! TO.N,/DC_NEG_IN*
X114300000Y-100210000D02*
X114420000Y-100330000D01*
X140970000Y-118745000D02*
X140970000Y-98425000D01*
X137280000Y-122435000D02*
X140970000Y-118745000D01*
X119380000Y-122435000D02*
X137280000Y-122435000D01*
X114420000Y-99688000D02*
X114420000Y-122435000D01*
X114420000Y-122435000D02*
X119380000Y-122435000D01*
X114300000Y-99568000D02*
X114420000Y-99688000D01*
X114420000Y-99568000D02*
X114420000Y-97870944D01*
X114420000Y-97870944D02*
X114420000Y-93345000D01*
X110998000Y-99568000D02*
X114420000Y-99568000D01*
X105410000Y-93980000D02*
X110998000Y-99568000D01*
X105410000Y-78740000D02*
X105410000Y-93980000D01*
X106680000Y-77470000D02*
X105410000Y-78740000D01*
X122555000Y-77470000D02*
X124460000Y-77470000D01*
X124460000Y-77470000D02*
X125095000Y-76835000D01*
X118745000Y-81280000D02*
X122555000Y-77470000D01*
X113030000Y-81280000D02*
X118745000Y-81280000D01*
X111125000Y-83185000D02*
X113030000Y-81280000D01*
X111125000Y-88900000D02*
X111125000Y-83185000D01*
X114420000Y-92195000D02*
X111125000Y-88900000D01*
X114420000Y-93345000D02*
X114420000Y-92195000D01*
X125095000Y-69850000D02*
X125095000Y-77470000D01*
X114547000Y-93472000D02*
X114420000Y-93345000D01*
X121920000Y-93472000D02*
X114547000Y-93472000D01*
X135255000Y-82042000D02*
X125603000Y-82042000D01*
X135255000Y-71755000D02*
X135255000Y-82042000D01*
X123190000Y-84455000D02*
X123190000Y-92202000D01*
X136525000Y-70485000D02*
X135255000Y-71755000D01*
X123190000Y-92202000D02*
X121920000Y-93472000D01*
X141605000Y-70485000D02*
X136525000Y-70485000D01*
X142240000Y-69850000D02*
X141605000Y-70485000D01*
X125603000Y-82042000D02*
X123190000Y-84455000D01*
X142240000Y-67310000D02*
X142240000Y-69850000D01*
G04 #@! TO.N,/12VDC_NEG_REG*
X140970000Y-85090000D02*
X156210000Y-85090000D01*
X140970000Y-85090000D02*
X141732000Y-85090000D01*
X137795000Y-85090000D02*
X140970000Y-85090000D01*
X134239000Y-85090000D02*
X133985000Y-84836000D01*
X137795000Y-85090000D02*
X134239000Y-85090000D01*
X137795000Y-73660000D02*
X137795000Y-85090000D01*
X143510000Y-72390000D02*
X139065000Y-72390000D01*
X144780000Y-71120000D02*
X143510000Y-72390000D01*
X139065000Y-72390000D02*
X137795000Y-73660000D01*
X144780000Y-67310000D02*
X144780000Y-71120000D01*
X118705000Y-74890000D02*
X118745000Y-74930000D01*
X118705000Y-66802000D02*
X118705000Y-74890000D01*
X118745000Y-76835000D02*
X118745000Y-74930000D01*
X116205000Y-79375000D02*
X118745000Y-76835000D01*
X109855000Y-79375000D02*
X116205000Y-79375000D01*
X108331000Y-80899000D02*
X109855000Y-79375000D01*
X108331000Y-85099069D02*
X108331000Y-80899000D01*
X127635000Y-69850000D02*
X127635000Y-64770000D01*
X118745000Y-66675000D02*
X118745000Y-67310000D01*
X121285000Y-64135000D02*
X118745000Y-66675000D01*
X144780000Y-67310000D02*
X144780000Y-64135000D01*
X127635000Y-64770000D02*
X127635000Y-64135000D01*
X127635000Y-64135000D02*
X121285000Y-64135000D01*
X144780000Y-64135000D02*
X127635000Y-64135000D01*
G04 #@! TO.N,/DC_POS_IN*
X179081383Y-115050872D02*
X185420000Y-108712255D01*
X176881383Y-115050872D02*
X179081383Y-115050872D01*
X176881383Y-107793383D02*
X176881383Y-115050872D01*
X174341383Y-105253383D02*
X176881383Y-107793383D01*
X174341383Y-99810872D02*
X174341383Y-105253383D01*
X164054128Y-115050872D02*
X174681383Y-115050872D01*
X174681383Y-115050872D02*
X176881383Y-115050872D01*
X162560000Y-116545000D02*
X164054128Y-115050872D01*
X162560000Y-118745000D02*
X162560000Y-116545000D01*
X174076255Y-100076000D02*
X174341383Y-99810872D01*
X162560000Y-99568000D02*
X174076255Y-99568000D01*
X166370000Y-99314000D02*
X166116000Y-99568000D01*
X166370000Y-85090000D02*
X166370000Y-99314000D01*
X185420000Y-108712000D02*
X185420000Y-82550000D01*
X185420000Y-82550000D02*
X182880000Y-80010000D01*
X167640000Y-80010000D02*
X166116000Y-78486000D01*
X182880000Y-80010000D02*
X167640000Y-80010000D01*
X165100000Y-67310000D02*
X158115000Y-67310000D01*
X166116000Y-68326000D02*
X165100000Y-67310000D01*
X166116000Y-78486000D02*
X166116000Y-68326000D01*
G04 #@! TO.N,/12VDC_POS_REG*
X148590000Y-74930000D02*
X156210000Y-74930000D01*
X141986000Y-74930000D02*
X148590000Y-74930000D01*
X141732000Y-75184000D02*
X141986000Y-74930000D01*
X160020000Y-85090000D02*
X163830000Y-85090000D01*
X160020000Y-77470000D02*
X160020000Y-85090000D01*
X157480000Y-74930000D02*
X160020000Y-77470000D01*
X156210000Y-74930000D02*
X157480000Y-74930000D01*
X180848000Y-77470000D02*
X185928000Y-77470000D01*
X191770000Y-66040000D02*
X191770000Y-69850000D01*
X189230000Y-63500000D02*
X191770000Y-66040000D01*
X177800000Y-64240000D02*
X178540000Y-63500000D01*
X177800000Y-69850000D02*
X177800000Y-64240000D01*
X178540000Y-63500000D02*
X189230000Y-63500000D01*
X191770000Y-69850000D02*
X185928000Y-75692000D01*
X167005000Y-123825000D02*
X161925000Y-123825000D01*
X187960000Y-115570000D02*
X184785000Y-118745000D01*
X160020000Y-90170000D02*
X160020000Y-85090000D01*
X184785000Y-118745000D02*
X172085000Y-118745000D01*
X158750000Y-91440000D02*
X160020000Y-90170000D01*
X172085000Y-118745000D02*
X167005000Y-123825000D01*
X187960000Y-85090000D02*
X187960000Y-115570000D01*
X158750000Y-120650000D02*
X158750000Y-91440000D01*
X161925000Y-123825000D02*
X158750000Y-120650000D01*
X185928000Y-79248000D02*
X187960000Y-81280000D01*
X187960000Y-81280000D02*
X187960000Y-85090000D01*
X185928000Y-77470000D02*
X185928000Y-79248000D01*
X185928000Y-75692000D02*
X185928000Y-77470000D01*
X148590000Y-64135000D02*
X155575000Y-64135000D01*
X155575000Y-64135000D02*
X155575000Y-67310000D01*
X148590000Y-74930000D02*
X148590000Y-64135000D01*
G04 #@! TO.N,/AC_IN*
X105410000Y-68580000D02*
X105410000Y-72390000D01*
X105410000Y-72390000D02*
X109220000Y-76200000D01*
X110490000Y-63500000D02*
X105410000Y-68580000D01*
X118110000Y-63500000D02*
X110490000Y-63500000D01*
X109220000Y-76200000D02*
X109220000Y-77470000D01*
X118110000Y-63500000D02*
X118110000Y-60960000D01*
X173990000Y-64516000D02*
X168656000Y-69850000D01*
X173990000Y-56807010D02*
X173990000Y-64516000D01*
X120992990Y-56807010D02*
X173990000Y-56807010D01*
X118110000Y-59690000D02*
X120992990Y-56807010D01*
X118110000Y-60960000D02*
X118110000Y-59690000D01*
G04 #@! TO.N,Net-(D_NEG4-Pad1)*
X107950000Y-71755000D02*
X113665000Y-77470000D01*
X107950000Y-71755000D02*
X107950000Y-69850000D01*
G04 #@! TO.N,Net-(D_POS4-Pad2)*
X185420000Y-69596000D02*
X182626000Y-72390000D01*
X175768000Y-72136000D02*
X175768000Y-77470000D01*
X182626000Y-72390000D02*
X176022000Y-72390000D01*
X176022000Y-72390000D02*
X175768000Y-72136000D01*
G04 #@! TO.N,Net-(R_NEGREG1-Pad2)*
X113411000Y-85099069D02*
X121275931Y-85099069D01*
X121275931Y-85099069D02*
X121273071Y-85096209D01*
X120526683Y-83943317D02*
X122555000Y-81915000D01*
X120526683Y-85096209D02*
X120526683Y-83943317D01*
X132715000Y-80010000D02*
X124460000Y-80010000D01*
X132715000Y-69215000D02*
X132715000Y-80010000D01*
X134620000Y-67310000D02*
X132715000Y-69215000D01*
X124460000Y-80010000D02*
X122431683Y-82038317D01*
X139700000Y-67310000D02*
X134620000Y-67310000D01*
G04 #@! TO.N,Net-(R_POSREG1-Pad2)*
X177800000Y-85090000D02*
X182880000Y-85090000D01*
X157480000Y-71120000D02*
X162560000Y-76200000D01*
X175260000Y-82550000D02*
X177800000Y-85090000D01*
X162560000Y-80010000D02*
X165100000Y-82550000D01*
X154305000Y-71120000D02*
X157480000Y-71120000D01*
X153035000Y-67310000D02*
X153035000Y-69850000D01*
X153035000Y-69850000D02*
X154305000Y-71120000D01*
X162560000Y-76200000D02*
X162560000Y-80010000D01*
X165100000Y-82550000D02*
X175260000Y-82550000D01*
G04 #@! TD*
M02*
