G04 #@! TF.GenerationSoftware,KiCad,Pcbnew,(5.0.0-3-g5ebb6b6)*
G04 #@! TF.CreationDate,2018-11-24T00:30:52+00:00*
G04 #@! TF.ProjectId,AdjustablePSU,41646A75737461626C655053552E6B69,rev?*
G04 #@! TF.SameCoordinates,Original*
G04 #@! TF.FileFunction,Soldermask,Bot*
G04 #@! TF.FilePolarity,Negative*
%FSLAX46Y46*%
G04 Gerber Fmt 4.6, Leading zero omitted, Abs format (unit mm)*
G04 Created by KiCad (PCBNEW (5.0.0-3-g5ebb6b6)) date Saturday, 24 November 2018 at 00:30:52*
%MOMM*%
%LPD*%
G01*
G04 APERTURE LIST*
%ADD10C,3.600000*%
%ADD11O,2.000000X2.000000*%
%ADD12C,2.000000*%
%ADD13R,2.000000X2.000000*%
%ADD14R,2.305000X2.400000*%
%ADD15O,2.305000X2.400000*%
%ADD16C,2.800000*%
%ADD17R,2.800000X2.800000*%
%ADD18O,2.640000X2.640000*%
%ADD19R,2.640000X2.640000*%
%ADD20C,2.200000*%
%ADD21R,2.200000X2.200000*%
%ADD22R,2.100000X2.100000*%
%ADD23O,2.100000X2.100000*%
G04 APERTURE END LIST*
D10*
G04 #@! TO.C,REF\002A\002A*
X107315000Y-123825000D03*
G04 #@! TD*
G04 #@! TO.C,REF\002A\002A*
X189865000Y-123825000D03*
G04 #@! TD*
G04 #@! TO.C,REF\002A\002A*
X189865000Y-59055000D03*
G04 #@! TD*
G04 #@! TO.C,REF\002A\002A*
X107315000Y-59055000D03*
G04 #@! TD*
D11*
G04 #@! TO.C,R_NEG1*
X113665000Y-77470000D03*
D12*
X118745000Y-77470000D03*
G04 #@! TD*
D10*
G04 #@! TO.C,REF\002A\002A*
X154940000Y-59690000D03*
G04 #@! TD*
G04 #@! TO.C,REF\002A\002A*
X142875000Y-59690000D03*
G04 #@! TD*
G04 #@! TO.C,REF\002A\002A*
X130810000Y-59690000D03*
G04 #@! TD*
D13*
G04 #@! TO.C,C_NEG6*
X116205000Y-69850000D03*
D12*
X118705000Y-69850000D03*
G04 #@! TD*
D14*
G04 #@! TO.C,U_POSREG1*
X153035000Y-67310000D03*
D15*
X155575000Y-67310000D03*
X158115000Y-67310000D03*
G04 #@! TD*
D16*
G04 #@! TO.C,C_NEG5*
X119380000Y-122435000D03*
D17*
X119380000Y-114935000D03*
G04 #@! TD*
D12*
G04 #@! TO.C,C_NEG1*
X130095000Y-77470000D03*
X125095000Y-77470000D03*
G04 #@! TD*
D16*
G04 #@! TO.C,C_NEG2*
X140850000Y-99568000D03*
D17*
X133350000Y-99568000D03*
G04 #@! TD*
G04 #@! TO.C,C_NEG3*
X121920000Y-99568000D03*
D16*
X114420000Y-99568000D03*
G04 #@! TD*
G04 #@! TO.C,C_NEG4*
X140850000Y-118745000D03*
D17*
X133350000Y-118745000D03*
G04 #@! TD*
D12*
G04 #@! TO.C,C_POS1*
X166116000Y-77470000D03*
X171116000Y-77470000D03*
G04 #@! TD*
D17*
G04 #@! TO.C,C_POS2*
X174341383Y-99568000D03*
D16*
X181841383Y-99568000D03*
G04 #@! TD*
G04 #@! TO.C,C_POS3*
X155060000Y-99568000D03*
D17*
X162560000Y-99568000D03*
G04 #@! TD*
G04 #@! TO.C,C_POS4*
X176881383Y-115050872D03*
D16*
X176881383Y-122550872D03*
G04 #@! TD*
D17*
G04 #@! TO.C,C_POS5*
X162560000Y-118745000D03*
D16*
X155060000Y-118745000D03*
G04 #@! TD*
D12*
G04 #@! TO.C,C_POS6*
X180300000Y-69850000D03*
D13*
X177800000Y-69850000D03*
G04 #@! TD*
D18*
G04 #@! TO.C,D_NEG3*
X133985000Y-85090000D03*
D19*
X131445000Y-85090000D03*
G04 #@! TD*
D20*
G04 #@! TO.C,D_NEG4*
X110490000Y-69850000D03*
D21*
X107950000Y-69850000D03*
G04 #@! TD*
D19*
G04 #@! TO.C,D_POS1*
X166116000Y-69850000D03*
D18*
X168656000Y-69850000D03*
G04 #@! TD*
D19*
G04 #@! TO.C,D_POS2*
X166370000Y-85090000D03*
D18*
X163830000Y-85090000D03*
G04 #@! TD*
D19*
G04 #@! TO.C,D_POS3*
X185928000Y-77470000D03*
D18*
X188468000Y-77470000D03*
G04 #@! TD*
D21*
G04 #@! TO.C,D_POS4*
X187960000Y-69850000D03*
D20*
X185420000Y-69850000D03*
G04 #@! TD*
D22*
G04 #@! TO.C,J_OUT1*
X141732000Y-74930000D03*
D23*
X144272000Y-74930000D03*
X141732000Y-77470000D03*
X144272000Y-77470000D03*
X141732000Y-80010000D03*
X144272000Y-80010000D03*
X141732000Y-82550000D03*
X144272000Y-82550000D03*
X141732000Y-85090000D03*
X144272000Y-85090000D03*
G04 #@! TD*
D12*
G04 #@! TO.C,R_NEGREG1*
X108331000Y-85099069D03*
D11*
X113411000Y-85099069D03*
G04 #@! TD*
G04 #@! TO.C,R_NEGREG2*
X125606683Y-85096209D03*
D12*
X120526683Y-85096209D03*
G04 #@! TD*
G04 #@! TO.C,R_POS1*
X180848000Y-77470000D03*
D11*
X175768000Y-77470000D03*
G04 #@! TD*
D12*
G04 #@! TO.C,R_POSREG1*
X187960000Y-85090000D03*
D11*
X182880000Y-85090000D03*
G04 #@! TD*
G04 #@! TO.C,R_POSREG2*
X172720000Y-85090000D03*
D12*
X177800000Y-85090000D03*
G04 #@! TD*
D15*
G04 #@! TO.C,U_NEGREG1*
X144780000Y-67310000D03*
X142240000Y-67310000D03*
D14*
X139700000Y-67310000D03*
G04 #@! TD*
D19*
G04 #@! TO.C,D_NEG1*
X109220000Y-77470000D03*
D18*
X106680000Y-77470000D03*
G04 #@! TD*
D22*
G04 #@! TO.C,J_OUT2*
X153670000Y-74930000D03*
D23*
X156210000Y-74930000D03*
X153670000Y-77470000D03*
X156210000Y-77470000D03*
X153670000Y-80010000D03*
X156210000Y-80010000D03*
X153670000Y-82550000D03*
X156210000Y-82550000D03*
X153670000Y-85090000D03*
X156210000Y-85090000D03*
G04 #@! TD*
D19*
G04 #@! TO.C,D_NEG2*
X127635000Y-69850000D03*
D18*
X125095000Y-69850000D03*
G04 #@! TD*
D10*
G04 #@! TO.C,REF\002A\002A*
X167640000Y-59690000D03*
G04 #@! TD*
D22*
G04 #@! TO.C,J_PWR1*
X115570000Y-60960000D03*
D23*
X118110000Y-60960000D03*
G04 #@! TD*
M02*
