<?xml version="1.0" standalone="no"?>
 <!DOCTYPE svg PUBLIC "-//W3C//DTD SVG 1.1//EN" 
 "http://www.w3.org/Graphics/SVG/1.1/DTD/svg11.dtd"> 
<svg xmlns="http://www.w3.org/2000/svg" version="1.1" 
    width="9.79678cm" height="5.22478cm" viewBox="0 0 38570 20570 ">
<title>SVG Picture created as AdjustablePSU-B.SilkS.svg date 2019/05/07 20:36:44 </title>
  <desc>Picture generated by PCBNEW </desc>
<g style="fill:#000000; fill-opacity:1;stroke:#000000; stroke-opacity:1;
stroke-linecap:round; stroke-linejoin:round; "
 transform="translate(0 0) scale(1 1)">
</g>
<g style="fill:#000000; fill-opacity:0.0; 
stroke:#000000; stroke-width:-0.000393701; stroke-opacity:1; 
stroke-linecap:round; stroke-linejoin:round;">
</g>
<g style="fill:#840084; fill-opacity:0.0; 
stroke:#840084; stroke-width:-0.000393701; stroke-opacity:1; 
stroke-linecap:round; stroke-linejoin:round;">
</g>
<g style="fill:#840084; fill-opacity:0.0; 
stroke:#840084; stroke-width:118.11; stroke-opacity:1; 
stroke-linecap:round; stroke-linejoin:round;">
<path d="M33946 20006
L34143 19725
" />
<path d="M34284 20006
L34284 19415
L34059 19415
L34002 19444
L33974 19472
L33946 19528
L33946 19612
L33974 19669
L34002 19697
L34059 19725
L34284 19725
" />
<path d="M33468 19978
L33524 20006
L33637 20006
L33693 19978
L33721 19922
L33721 19697
L33693 19640
L33637 19612
L33524 19612
L33468 19640
L33440 19697
L33440 19753
L33721 19809
" />
<path d="M33243 19612
L33102 20006
L32962 19612
" />
<path d="M32737 19697
L32540 19697
" />
<path d="M32456 20006
L32737 20006
L32737 19415
L32456 19415
" />
<path d="M31443 20006
L31781 20006
" />
<path d="M31612 20006
L31612 19415
L31668 19500
L31724 19556
L31781 19584
" />
<path d="M31162 20006
L31050 20006
L30993 19978
L30965 19950
L30909 19865
L30881 19753
L30881 19528
L30909 19472
L30937 19444
L30993 19415
L31106 19415
L31162 19444
L31190 19472
L31218 19528
L31218 19669
L31190 19725
L31162 19753
L31106 19781
L30993 19781
L30937 19753
L30909 19725
L30881 19669
" />
<path d="M30318 20006
L30656 20006
" />
<path d="M30487 20006
L30487 19415
L30543 19500
L30600 19556
L30656 19584
" />
<path d="M30037 20006
L29925 20006
L29868 19978
L29840 19950
L29784 19865
L29756 19753
L29756 19528
L29784 19472
L29812 19444
L29868 19415
L29981 19415
L30037 19444
L30065 19472
L30093 19528
L30093 19669
L30065 19725
L30037 19753
L29981 19781
L29868 19781
L29812 19753
L29784 19725
L29756 19669
" />
<path d="M28715 19950
L28744 19978
L28828 20006
L28884 20006
L28969 19978
L29025 19922
L29053 19865
L29081 19753
L29081 19669
L29053 19556
L29025 19500
L28969 19444
L28884 19415
L28828 19415
L28744 19444
L28715 19472
" />
<path d="M28462 20006
L28462 19415
" />
<path d="M28209 20006
L28209 19697
L28237 19640
L28294 19612
L28378 19612
L28434 19640
L28462 19669
" />
<path d="M27928 20006
L27928 19612
" />
<path d="M27928 19725
L27900 19669
L27872 19640
L27816 19612
L27759 19612
" />
<path d="M27562 20006
L27562 19612
" />
<path d="M27562 19415
L27591 19444
L27562 19472
L27534 19444
L27562 19415
L27562 19472
" />
<path d="M27309 19978
L27253 20006
L27141 20006
L27084 19978
L27056 19922
L27056 19894
L27084 19837
L27141 19809
L27225 19809
L27281 19781
L27309 19725
L27309 19697
L27281 19640
L27225 19612
L27141 19612
L27084 19640
" />
<path d="M26381 19978
L26297 20006
L26156 20006
L26100 19978
L26072 19950
L26044 19894
L26044 19837
L26072 19781
L26100 19753
L26156 19725
L26269 19697
L26325 19669
L26353 19640
L26381 19584
L26381 19528
L26353 19472
L26325 19444
L26269 19415
L26128 19415
L26044 19444
" />
<path d="M25538 19612
L25538 20006
" />
<path d="M25791 19612
L25791 19922
L25763 19978
L25706 20006
L25622 20006
L25566 19978
L25538 19950
" />
<path d="M25341 19612
L25116 19612
" />
<path d="M25257 19415
L25257 19922
L25228 19978
L25172 20006
L25116 20006
" />
<path d="M25003 19612
L24778 19612
" />
<path d="M24919 19415
L24919 19922
L24891 19978
L24835 20006
L24778 20006
" />
<path d="M24497 20006
L24553 19978
L24582 19950
L24610 19894
L24610 19725
L24582 19669
L24553 19640
L24497 19612
L24413 19612
L24357 19640
L24329 19669
L24300 19725
L24300 19894
L24329 19950
L24357 19978
L24413 20006
L24497 20006
" />
<path d="M24047 19612
L24047 20006
" />
<path d="M24047 19669
L24019 19640
L23963 19612
L23879 19612
L23822 19640
L23794 19697
L23794 20006
" />
</g>
<g style="fill:#840084; fill-opacity:0.0; 
stroke:#840084; stroke-width:78.7402; stroke-opacity:1; 
stroke-linecap:round; stroke-linejoin:round;">
<path d="M11247 20429
L11247 16929
" />
<path d="M7997 20429
L7997 16929
" />
<path d="M14497 20429
L14497 15929
" />
<path d="M4747 20429
L4747 15929
" />
<path d="M4747 16929
L14497 16929
" />
<path d="M4747 15929
L14497 15929
" />
<path d="M4747 20429
L14497 20429
" />
<path d="M13628 16252
L13628 16235
L13611 16201
L13594 16184
" />
<path d="M13459 16488
L13290 16488
" />
<path d="M13493 16589
L13375 16235
L13257 16589
" />
<path d="M12987 16589
L12987 16235
" />
<path d="M12987 16573
L13020 16589
L13088 16589
L13122 16573
L13139 16556
L13155 16522
L13155 16421
L13139 16387
L13122 16370
L13088 16353
L13020 16353
L12987 16370
" />
<path d="M12818 16353
L12818 16657
L12835 16691
L12869 16708
L12886 16708
" />
<path d="M12818 16235
L12835 16252
L12818 16269
L12801 16252
L12818 16235
L12818 16269
" />
<path d="M12497 16353
L12497 16589
" />
<path d="M12649 16353
L12649 16539
L12632 16573
L12599 16589
L12548 16589
L12514 16573
L12497 16556
" />
<path d="M12346 16573
L12312 16589
L12244 16589
L12211 16573
L12194 16539
L12194 16522
L12211 16488
L12244 16471
L12295 16471
L12329 16454
L12346 16421
L12346 16404
L12329 16370
L12295 16353
L12244 16353
L12211 16370
" />
<path d="M12092 16353
L11958 16353
" />
<path d="M12042 16235
L12042 16539
L12025 16573
L11991 16589
L11958 16589
" />
<path d="M11688 16589
L11688 16404
L11704 16370
L11738 16353
L11806 16353
L11839 16370
" />
<path d="M11688 16573
L11721 16589
L11806 16589
L11839 16573
L11856 16539
L11856 16505
L11839 16471
L11806 16454
L11721 16454
L11688 16438
" />
<path d="M11519 16589
L11519 16235
" />
<path d="M11519 16370
L11485 16353
L11418 16353
L11384 16370
L11367 16387
L11350 16421
L11350 16522
L11367 16556
L11384 16573
L11418 16589
L11485 16589
L11519 16573
" />
<path d="M11148 16589
L11181 16573
L11198 16539
L11198 16235
" />
<path d="M10878 16573
L10911 16589
L10979 16589
L11013 16573
L11029 16539
L11029 16404
L11013 16370
L10979 16353
L10911 16353
L10878 16370
L10861 16404
L10861 16438
L11029 16471
" />
<path d="M10692 16235
L10692 16252
L10709 16286
L10726 16303
" />
<path d="M10068 16589
L10186 16421
" />
<path d="M10270 16589
L10270 16235
L10135 16235
L10101 16252
L10085 16269
L10068 16303
L10068 16353
L10085 16387
L10101 16404
L10135 16421
L10270 16421
" />
<path d="M9781 16573
L9815 16589
L9882 16589
L9916 16573
L9933 16539
L9933 16404
L9916 16370
L9882 16353
L9815 16353
L9781 16370
L9764 16404
L9764 16438
L9933 16471
" />
<path d="M9460 16353
L9460 16640
L9477 16674
L9494 16691
L9528 16708
L9578 16708
L9612 16691
" />
<path d="M9460 16573
L9494 16589
L9562 16589
L9595 16573
L9612 16556
L9629 16522
L9629 16421
L9612 16387
L9595 16370
L9562 16353
L9494 16353
L9460 16370
" />
<path d="M9140 16353
L9140 16589
" />
<path d="M9292 16353
L9292 16539
L9275 16573
L9241 16589
L9190 16589
L9157 16573
L9140 16556
" />
<path d="M8920 16589
L8954 16573
L8971 16539
L8971 16235
" />
<path d="M8634 16589
L8634 16404
L8650 16370
L8684 16353
L8752 16353
L8785 16370
" />
<path d="M8634 16573
L8667 16589
L8752 16589
L8785 16573
L8802 16539
L8802 16505
L8785 16471
L8752 16454
L8667 16454
L8634 16438
" />
<path d="M8515 16353
L8380 16353
" />
<path d="M8465 16235
L8465 16539
L8448 16573
L8414 16589
L8380 16589
" />
<path d="M8212 16589
L8245 16573
L8262 16556
L8279 16522
L8279 16421
L8262 16387
L8245 16370
L8212 16353
L8161 16353
L8127 16370
L8110 16387
L8094 16421
L8094 16522
L8110 16556
L8127 16573
L8161 16589
L8212 16589
" />
<path d="M7942 16589
L7942 16353
" />
<path d="M7942 16421
L7925 16387
L7908 16370
L7874 16353
L7841 16353
" />
<path d="M7385 16235
L7317 16235
L7284 16252
L7250 16286
L7233 16353
L7233 16471
L7250 16539
L7284 16573
L7317 16589
L7385 16589
L7419 16573
L7452 16539
L7469 16471
L7469 16353
L7452 16286
L7419 16252
L7385 16235
" />
<path d="M6929 16353
L6929 16589
" />
<path d="M7081 16353
L7081 16539
L7064 16573
L7031 16589
L6980 16589
L6946 16573
L6929 16556
" />
<path d="M6811 16353
L6676 16353
" />
<path d="M6761 16235
L6761 16539
L6744 16573
L6710 16589
L6676 16589
" />
<path d="M6558 16353
L6558 16708
" />
<path d="M6558 16370
L6524 16353
L6457 16353
L6423 16370
L6406 16387
L6389 16421
L6389 16522
L6406 16556
L6423 16573
L6457 16589
L6524 16589
L6558 16573
" />
<path d="M6086 16353
L6086 16589
" />
<path d="M6238 16353
L6238 16539
L6221 16573
L6187 16589
L6136 16589
L6103 16573
L6086 16556
" />
<path d="M5968 16353
L5833 16353
" />
<path d="M5917 16235
L5917 16539
L5900 16573
L5866 16589
L5833 16589
" />
<path d="M7602 17703
L7302 17703
" />
<path d="M7452 17853
L7452 17553
" />
<path d="M6834 17441
L7171 17947
" />
<path d="M6702 17703
L6402 17703
" />
<path d="M5727 17460
L5915 17460
L5934 17647
L5915 17628
L5877 17610
L5784 17610
L5746 17628
L5727 17647
L5709 17685
L5709 17778
L5727 17816
L5746 17835
L5784 17853
L5877 17853
L5915 17835
L5934 17816
" />
<path d="M5596 17460
L5465 17853
L5334 17460
" />
<path d="M7602 18373
L7302 18373
" />
<path d="M7452 18523
L7452 18223
" />
<path d="M6834 18110
L7171 18616
" />
<path d="M6702 18373
L6402 18373
" />
<path d="M5896 18523
L5821 18523
L5784 18504
L5765 18485
L5727 18429
L5709 18354
L5709 18204
L5727 18166
L5746 18148
L5784 18129
L5859 18129
L5896 18148
L5915 18166
L5934 18204
L5934 18298
L5915 18335
L5896 18354
L5859 18373
L5784 18373
L5746 18354
L5727 18335
L5709 18298
" />
<path d="M5596 18129
L5465 18523
L5334 18129
" />
<path d="M7602 19042
L7302 19042
" />
<path d="M7452 19192
L7452 18892
" />
<path d="M6834 18779
L7171 19286
" />
<path d="M6702 19042
L6402 19042
" />
<path d="M5709 19192
L5934 19192
" />
<path d="M5821 19192
L5821 18798
L5859 18854
L5896 18892
L5934 18911
" />
<path d="M5559 18836
L5540 18817
L5502 18798
L5409 18798
L5371 18817
L5353 18836
L5334 18873
L5334 18911
L5353 18967
L5577 19192
L5334 19192
" />
<path d="M5221 18798
L5090 19192
L4959 18798
" />
<path d="M7602 19711
L7302 19711
" />
<path d="M7452 19861
L7452 19561
" />
<path d="M6834 19449
L7171 19955
" />
<path d="M6702 19711
L6402 19711
" />
<path d="M5709 19861
L5934 19861
" />
<path d="M5821 19861
L5821 19467
L5859 19524
L5896 19561
L5934 19580
" />
<path d="M5353 19467
L5540 19467
L5559 19655
L5540 19636
L5502 19617
L5409 19617
L5371 19636
L5353 19655
L5334 19692
L5334 19786
L5353 19824
L5371 19842
L5409 19861
L5502 19861
L5540 19842
L5559 19824
" />
<path d="M5221 19467
L5090 19861
L4959 19467
" />
<path d="M10627 17853
L10758 17666
" />
<path d="M10852 17853
L10852 17460
L10702 17460
L10665 17478
L10646 17497
L10627 17535
L10627 17591
L10646 17628
L10665 17647
L10702 17666
L10852 17666
" />
<path d="M10477 17497
L10459 17478
L10421 17460
L10327 17460
L10290 17478
L10271 17497
L10252 17535
L10252 17572
L10271 17628
L10496 17853
L10252 17853
" />
<path d="M10084 17647
L9784 17647
" />
<path d="M9784 17760
L10084 17760
" />
<path d="M9634 17460
L9390 17460
L9521 17610
L9465 17610
L9427 17628
L9409 17647
L9390 17685
L9390 17778
L9409 17816
L9427 17835
L9465 17853
L9577 17853
L9615 17835
L9634 17816
" />
<path d="M9202 17853
L9127 17853
L9090 17835
L9071 17816
L9034 17760
L9015 17685
L9015 17535
L9034 17497
L9052 17478
L9090 17460
L9165 17460
L9202 17478
L9221 17497
L9240 17535
L9240 17628
L9221 17666
L9202 17685
L9165 17703
L9090 17703
L9052 17685
L9034 17666
L9015 17628
" />
<path d="M8771 17460
L8734 17460
L8696 17478
L8678 17497
L8659 17535
L8640 17610
L8640 17703
L8659 17778
L8678 17816
L8696 17835
L8734 17853
L8771 17853
L8809 17835
L8827 17816
L8846 17778
L8865 17703
L8865 17610
L8846 17535
L8827 17497
L8809 17478
L8771 17460
" />
<path d="M8246 17853
L8378 17666
" />
<path d="M8471 17853
L8471 17460
L8321 17460
L8284 17478
L8265 17497
L8246 17535
L8246 17591
L8265 17628
L8284 17647
L8321 17666
L8471 17666
" />
<path d="M10627 18523
L10758 18335
" />
<path d="M10852 18523
L10852 18129
L10702 18129
L10665 18148
L10646 18166
L10627 18204
L10627 18260
L10646 18298
L10665 18316
L10702 18335
L10852 18335
" />
<path d="M10477 18166
L10459 18148
L10421 18129
L10327 18129
L10290 18148
L10271 18166
L10252 18204
L10252 18241
L10271 18298
L10496 18523
L10252 18523
" />
<path d="M10084 18316
L9784 18316
" />
<path d="M9784 18429
L10084 18429
" />
<path d="M9634 18129
L9371 18129
L9540 18523
" />
<path d="M9034 18129
L9221 18129
L9240 18316
L9221 18298
L9184 18279
L9090 18279
L9052 18298
L9034 18316
L9015 18354
L9015 18448
L9034 18485
L9052 18504
L9090 18523
L9184 18523
L9221 18504
L9240 18485
" />
<path d="M8771 18129
L8734 18129
L8696 18148
L8678 18166
L8659 18204
L8640 18279
L8640 18373
L8659 18448
L8678 18485
L8696 18504
L8734 18523
L8771 18523
L8809 18504
L8827 18485
L8846 18448
L8865 18373
L8865 18279
L8846 18204
L8827 18166
L8809 18148
L8771 18129
" />
<path d="M8246 18523
L8378 18335
" />
<path d="M8471 18523
L8471 18129
L8321 18129
L8284 18148
L8265 18166
L8246 18204
L8246 18260
L8265 18298
L8284 18316
L8321 18335
L8471 18335
" />
<path d="M10627 19192
L10758 19004
" />
<path d="M10852 19192
L10852 18798
L10702 18798
L10665 18817
L10646 18836
L10627 18873
L10627 18929
L10646 18967
L10665 18986
L10702 19004
L10852 19004
" />
<path d="M10477 18836
L10459 18817
L10421 18798
L10327 18798
L10290 18817
L10271 18836
L10252 18873
L10252 18911
L10271 18967
L10496 19192
L10252 19192
" />
<path d="M10084 18986
L9784 18986
" />
<path d="M9784 19098
L10084 19098
" />
<path d="M9390 19192
L9615 19192
" />
<path d="M9502 19192
L9502 18798
L9540 18854
L9577 18892
L9615 18911
" />
<path d="M9221 19192
L9221 18798
" />
<path d="M8996 19192
L9165 18967
" />
<path d="M8996 18798
L9221 19023
" />
<path d="M8621 19192
L8846 19192
" />
<path d="M8734 19192
L8734 18798
L8771 18854
L8809 18892
L8846 18911
" />
<path d="M10627 19861
L10758 19674
" />
<path d="M10852 19861
L10852 19467
L10702 19467
L10665 19486
L10646 19505
L10627 19542
L10627 19599
L10646 19636
L10665 19655
L10702 19674
L10852 19674
" />
<path d="M10477 19505
L10459 19486
L10421 19467
L10327 19467
L10290 19486
L10271 19505
L10252 19542
L10252 19580
L10271 19636
L10496 19861
L10252 19861
" />
<path d="M10084 19655
L9784 19655
" />
<path d="M9784 19767
L10084 19767
" />
<path d="M9615 19505
L9596 19486
L9559 19467
L9465 19467
L9427 19486
L9409 19505
L9390 19542
L9390 19580
L9409 19636
L9634 19861
L9390 19861
" />
<path d="M9221 19861
L9221 19467
" />
<path d="M8996 19861
L9165 19636
" />
<path d="M8996 19467
L9221 19692
" />
<path d="M13877 17853
L14008 17666
" />
<path d="M14102 17853
L14102 17460
L13952 17460
L13915 17478
L13896 17497
L13877 17535
L13877 17591
L13896 17628
L13915 17647
L13952 17666
L14102 17666
" />
<path d="M13502 17853
L13727 17853
" />
<path d="M13615 17853
L13615 17460
L13652 17516
L13690 17553
L13727 17572
" />
<path d="M13334 17647
L13034 17647
" />
<path d="M13034 17760
L13334 17760
" />
<path d="M12640 17853
L12865 17853
" />
<path d="M12752 17853
L12752 17460
L12790 17516
L12827 17553
L12865 17572
" />
<path d="M12490 17497
L12471 17478
L12434 17460
L12340 17460
L12302 17478
L12284 17497
L12265 17535
L12265 17572
L12284 17628
L12509 17853
L12265 17853
" />
<path d="M12021 17460
L11984 17460
L11946 17478
L11928 17497
L11909 17535
L11890 17610
L11890 17703
L11909 17778
L11928 17816
L11946 17835
L11984 17853
L12021 17853
L12059 17835
L12077 17816
L12096 17778
L12115 17703
L12115 17610
L12096 17535
L12077 17497
L12059 17478
L12021 17460
" />
<path d="M11496 17853
L11628 17666
" />
<path d="M11721 17853
L11721 17460
L11571 17460
L11534 17478
L11515 17497
L11496 17535
L11496 17591
L11515 17628
L11534 17647
L11571 17666
L11721 17666
" />
<path d="M13877 18523
L14008 18335
" />
<path d="M14102 18523
L14102 18129
L13952 18129
L13915 18148
L13896 18166
L13877 18204
L13877 18260
L13896 18298
L13915 18316
L13952 18335
L14102 18335
" />
<path d="M13502 18523
L13727 18523
" />
<path d="M13615 18523
L13615 18129
L13652 18185
L13690 18223
L13727 18241
" />
<path d="M13334 18316
L13034 18316
" />
<path d="M13034 18429
L13334 18429
" />
<path d="M12640 18523
L12865 18523
" />
<path d="M12752 18523
L12752 18129
L12790 18185
L12827 18223
L12865 18241
" />
<path d="M12490 18166
L12471 18148
L12434 18129
L12340 18129
L12302 18148
L12284 18166
L12265 18204
L12265 18241
L12284 18298
L12509 18523
L12265 18523
" />
<path d="M12021 18129
L11984 18129
L11946 18148
L11928 18166
L11909 18204
L11890 18279
L11890 18373
L11909 18448
L11928 18485
L11946 18504
L11984 18523
L12021 18523
L12059 18504
L12077 18485
L12096 18448
L12115 18373
L12115 18279
L12096 18204
L12077 18166
L12059 18148
L12021 18129
" />
<path d="M11496 18523
L11628 18335
" />
<path d="M11721 18523
L11721 18129
L11571 18129
L11534 18148
L11515 18166
L11496 18204
L11496 18260
L11515 18298
L11534 18316
L11571 18335
L11721 18335
" />
<path d="M13877 19192
L14008 19004
" />
<path d="M14102 19192
L14102 18798
L13952 18798
L13915 18817
L13896 18836
L13877 18873
L13877 18929
L13896 18967
L13915 18986
L13952 19004
L14102 19004
" />
<path d="M13502 19192
L13727 19192
" />
<path d="M13615 19192
L13615 18798
L13652 18854
L13690 18892
L13727 18911
" />
<path d="M13334 18986
L13034 18986
" />
<path d="M13034 19098
L13334 19098
" />
<path d="M12640 19192
L12865 19192
" />
<path d="M12752 19192
L12752 18798
L12790 18854
L12827 18892
L12865 18911
" />
<path d="M12490 18836
L12471 18817
L12434 18798
L12340 18798
L12302 18817
L12284 18836
L12265 18873
L12265 18911
L12284 18967
L12509 19192
L12265 19192
" />
<path d="M12021 18798
L11984 18798
L11946 18817
L11928 18836
L11909 18873
L11890 18948
L11890 19042
L11909 19117
L11928 19154
L11946 19173
L11984 19192
L12021 19192
L12059 19173
L12077 19154
L12096 19117
L12115 19042
L12115 18948
L12096 18873
L12077 18836
L12059 18817
L12021 18798
" />
<path d="M11496 19192
L11628 19004
" />
<path d="M11721 19192
L11721 18798
L11571 18798
L11534 18817
L11515 18836
L11496 18873
L11496 18929
L11515 18967
L11534 18986
L11571 19004
L11721 19004
" />
<path d="M13877 19861
L14008 19674
" />
<path d="M14102 19861
L14102 19467
L13952 19467
L13915 19486
L13896 19505
L13877 19542
L13877 19599
L13896 19636
L13915 19655
L13952 19674
L14102 19674
" />
<path d="M13502 19861
L13727 19861
" />
<path d="M13615 19861
L13615 19467
L13652 19524
L13690 19561
L13727 19580
" />
<path d="M13334 19655
L13034 19655
" />
<path d="M13034 19767
L13334 19767
" />
<path d="M12640 19861
L12865 19861
" />
<path d="M12752 19861
L12752 19467
L12790 19524
L12827 19561
L12865 19580
" />
<path d="M12415 19636
L12452 19617
L12471 19599
L12490 19561
L12490 19542
L12471 19505
L12452 19486
L12415 19467
L12340 19467
L12302 19486
L12284 19505
L12265 19542
L12265 19561
L12284 19599
L12302 19617
L12340 19636
L12415 19636
L12452 19655
L12471 19674
L12490 19711
L12490 19786
L12471 19824
L12452 19842
L12415 19861
L12340 19861
L12302 19842
L12284 19824
L12265 19786
L12265 19711
L12284 19674
L12302 19655
L12340 19636
" />
<path d="M12021 19467
L11984 19467
L11946 19486
L11928 19505
L11909 19542
L11890 19617
L11890 19711
L11909 19786
L11928 19824
L11946 19842
L11984 19861
L12021 19861
L12059 19842
L12077 19824
L12096 19786
L12115 19711
L12115 19617
L12096 19542
L12077 19505
L12059 19486
L12021 19467
" />
<path d="M11496 19861
L11628 19674
" />
<path d="M11721 19861
L11721 19467
L11571 19467
L11534 19486
L11515 19505
L11496 19542
L11496 19599
L11515 19636
L11534 19655
L11571 19674
L11721 19674
" />
</g>
<g style="fill:#840084; fill-opacity:0.0; 
stroke:#840084; stroke-width:47.2441; stroke-opacity:1; 
stroke-linecap:round; stroke-linejoin:round;">
<path d="M24042 12418
L23836 12418
" />
<path d="M24042 11859
L23836 11859
" />
<path d="M23836 11118
L24042 11118
" />
<path d="M23836 10559
L24042 10559
" />
<path d="M12342 12418
L12136 12418
" />
<path d="M12342 11859
L12136 11859
" />
<path d="M12136 13718
L12342 13718
" />
<path d="M12136 13159
L12342 13159
" />
</g>
<g style="fill:#840084; fill-opacity:0.0; 
stroke:#840084; stroke-width:49.2126; stroke-opacity:1; 
stroke-linecap:round; stroke-linejoin:round;">
<path d="M22872 12328
L22937 12234
" />
<path d="M22984 12328
L22984 12131
L22909 12131
L22890 12140
L22881 12150
L22872 12169
L22872 12197
L22881 12215
L22890 12225
L22909 12234
L22984 12234
" />
<path d="M22806 12131
L22684 12131
L22750 12206
L22722 12206
L22703 12215
L22694 12225
L22684 12244
L22684 12290
L22694 12309
L22703 12319
L22722 12328
L22778 12328
L22797 12319
L22806 12309
" />
<path d="M22872 10928
L22937 10834
" />
<path d="M22984 10928
L22984 10731
L22909 10731
L22890 10740
L22881 10750
L22872 10769
L22872 10797
L22881 10815
L22890 10825
L22909 10834
L22984 10834
" />
<path d="M22703 10797
L22703 10928
" />
<path d="M22750 10722
L22797 10862
L22675 10862
" />
<path d="M11072 12228
L11137 12134
" />
<path d="M11184 12228
L11184 12031
L11109 12031
L11090 12040
L11081 12050
L11072 12069
L11072 12097
L11081 12115
L11090 12125
L11109 12134
L11184 12134
" />
<path d="M10894 12031
L10987 12031
L10997 12125
L10987 12115
L10969 12106
L10922 12106
L10903 12115
L10894 12125
L10884 12144
L10884 12190
L10894 12209
L10903 12219
L10922 12228
L10969 12228
L10987 12219
L10997 12209
" />
<path d="M11072 13528
L11137 13434
" />
<path d="M11184 13528
L11184 13331
L11109 13331
L11090 13340
L11081 13350
L11072 13369
L11072 13397
L11081 13415
L11090 13425
L11109 13434
L11184 13434
" />
<path d="M10903 13331
L10940 13331
L10959 13340
L10969 13350
L10987 13378
L10997 13415
L10997 13490
L10987 13509
L10978 13519
L10959 13528
L10922 13528
L10903 13519
L10894 13509
L10884 13490
L10884 13444
L10894 13425
L10903 13415
L10922 13406
L10959 13406
L10978 13415
L10987 13425
L10997 13444
" />
</g>
<g style="fill:#000000; fill-opacity:0.0; 
stroke:#000000; stroke-width:49.2126; stroke-opacity:1; 
stroke-linecap:round; stroke-linejoin:round;">
</g>
<g style="fill:#C2C200; fill-opacity:0.0; 
stroke:#C2C200; stroke-width:49.2126; stroke-opacity:1; 
stroke-linecap:round; stroke-linejoin:round;">
</g>
<g style="fill:#C2C200; fill-opacity:0.0; 
stroke:#C2C200; stroke-width:78.7402; stroke-opacity:1; 
stroke-linecap:round; stroke-linejoin:round;">
<path d="M38539 39
L38539 20539
" />
<path d="M39 20539
L39 39
" />
<path d="M38539 20539
L39 20539
" />
<path d="M39 39
L38539 39
" />
</g> 
</svg>
