<?xml version="1.0" standalone="no"?>
 <!DOCTYPE svg PUBLIC "-//W3C//DTD SVG 1.1//EN" 
 "http://www.w3.org/Graphics/SVG/1.1/DTD/svg11.dtd"> 
<svg xmlns="http://www.w3.org/2000/svg" version="1.1" 
    width="9.79678cm" height="5.22478cm" viewBox="0 0 38570 20570 ">
<title>SVG Picture created as AdjustablePSU-F.SilkS.svg date 2019/05/07 20:36:44 </title>
  <desc>Picture generated by PCBNEW </desc>
<g style="fill:#000000; fill-opacity:1;stroke:#000000; stroke-opacity:1;
stroke-linecap:round; stroke-linejoin:round; "
 transform="translate(0 0) scale(1 1)">
</g>
<g style="fill:#000000; fill-opacity:0.0; 
stroke:#000000; stroke-width:-0.000393701; stroke-opacity:1; 
stroke-linecap:round; stroke-linejoin:round;">
</g>
<g style="fill:#008484; fill-opacity:0.0; 
stroke:#008484; stroke-width:-0.000393701; stroke-opacity:1; 
stroke-linecap:round; stroke-linejoin:round;">
</g>
<g style="fill:#008484; fill-opacity:0.0; 
stroke:#008484; stroke-width:49.2126; stroke-opacity:1; 
stroke-linecap:round; stroke-linejoin:round;">
<path d="M22706 8878
L22612 8878
L22612 8681
" />
<path d="M22772 8878
L22772 8681
L22837 8822
L22903 8681
L22903 8878
" />
<path d="M22978 8681
L23100 8681
L23034 8756
L23062 8756
L23081 8765
L23090 8775
L23100 8794
L23100 8840
L23090 8859
L23081 8869
L23062 8878
L23006 8878
L22987 8869
L22978 8859
" />
<path d="M23287 8878
L23175 8878
" />
<path d="M23231 8878
L23231 8681
L23212 8709
L23194 8728
L23175 8737
" />
<path d="M23353 8681
L23484 8681
L23400 8878
" />
<path d="M16706 8878
L16612 8878
L16612 8681
" />
<path d="M16772 8878
L16772 8681
L16837 8822
L16903 8681
L16903 8878
" />
<path d="M16978 8681
L17100 8681
L17034 8756
L17062 8756
L17081 8765
L17090 8775
L17100 8794
L17100 8840
L17090 8859
L17081 8869
L17062 8878
L17006 8878
L16987 8869
L16978 8859
" />
<path d="M17165 8681
L17287 8681
L17222 8756
L17250 8756
L17269 8765
L17278 8775
L17287 8794
L17287 8840
L17278 8859
L17269 8869
L17250 8878
L17194 8878
L17175 8869
L17165 8859
" />
<path d="M17353 8681
L17484 8681
L17400 8878
" />
</g>
<g style="fill:#008484; fill-opacity:0.0; 
stroke:#008484; stroke-width:78.7402; stroke-opacity:1; 
stroke-linecap:round; stroke-linejoin:round;">
<path d="M17906 19185
L17591 19185
" />
<path d="M17748 19185
L17748 18634
L17696 18713
L17643 18766
L17591 18792
" />
<path d="M18116 18687
L18142 18661
L18195 18634
L18326 18634
L18378 18661
L18405 18687
L18431 18739
L18431 18792
L18405 18870
L18090 19185
L18431 19185
" />
<path d="M18588 18634
L18772 19185
L18956 18634
" />
<path d="M19113 19028
L19376 19028
" />
<path d="M19061 19185
L19245 18634
L19428 19185
" />
<path d="M19927 19133
L19901 19159
L19822 19185
L19769 19185
L19691 19159
L19638 19107
L19612 19054
L19586 18949
L19586 18870
L19612 18766
L19638 18713
L19691 18661
L19769 18634
L19822 18634
L19901 18661
L19927 18687
" />
<path d="M20583 19185
L20583 18634
" />
<path d="M20846 19185
L20846 18634
L21161 19185
L21161 18634
" />
<path d="M17893 20091
L17578 20091
" />
<path d="M17735 20091
L17735 19540
L17683 19619
L17630 19671
L17578 19697
" />
<path d="M18129 20038
L18155 20065
L18129 20091
L18103 20065
L18129 20038
L18129 20091
" />
<path d="M18654 19540
L18391 19540
L18365 19802
L18391 19776
L18444 19750
L18575 19750
L18628 19776
L18654 19802
L18680 19855
L18680 19986
L18654 20038
L18628 20065
L18575 20091
L18444 20091
L18391 20065
L18365 20038
" />
<path d="M18890 19933
L19153 19933
" />
<path d="M18838 20091
L19021 19540
L19205 20091
" />
<path d="M19809 20091
L19809 19540
L19993 19933
L20176 19540
L20176 20091
" />
<path d="M20412 19933
L20675 19933
" />
<path d="M20360 20091
L20544 19540
L20727 20091
" />
<path d="M20859 19540
L21226 20091
" />
<path d="M21226 19540
L20859 20091
" />
<path d="M19528 15841
L19528 15421
" />
<path d="M19738 15631
L19318 15631
" />
<path d="M19161 14765
L19869 15237
" />
<path d="M19528 14581
L19528 14161
" />
<path d="M19738 13610
L19738 13925
" />
<path d="M19738 13768
L19187 13768
L19266 13820
L19318 13873
L19345 13925
" />
<path d="M19240 13400
L19213 13374
L19187 13321
L19187 13190
L19213 13138
L19240 13111
L19292 13085
L19345 13085
L19423 13111
L19738 13426
L19738 13085
" />
<path d="M19187 12928
L19738 12744
L19187 12560
" />
<path d="M19738 12377
L19187 12377
L19187 12245
L19213 12167
L19266 12114
L19318 12088
L19423 12062
L19502 12062
L19607 12088
L19659 12114
L19712 12167
L19738 12245
L19738 12377
" />
<path d="M19686 11510
L19712 11537
L19738 11615
L19738 11668
L19712 11747
L19659 11799
L19607 11825
L19502 11852
L19423 11852
L19318 11825
L19266 11799
L19213 11747
L19187 11668
L19187 11615
L19213 11537
L19240 11510
" />
</g>
<g style="fill:#008484; fill-opacity:0.0; 
stroke:#008484; stroke-width:393.701; stroke-opacity:1; 
stroke-linecap:round; stroke-linejoin:round;">
<path d="M16739 10589
L18739 10589
" />
</g>
<g style="fill:#008484; fill-opacity:0.0; 
stroke:#008484; stroke-width:39.3701; stroke-opacity:1; 
stroke-linecap:round; stroke-linejoin:round;">
<path d="M24219 5172
L24219 4877
" />
<path d="M24219 5018
L24387 5018
" />
<path d="M24387 5172
L24387 4877
" />
<path d="M24528 5018
L24626 5018
" />
<path d="M24669 5172
L24528 5172
L24528 4877
L24669 4877
" />
<path d="M24781 5088
L24922 5088
" />
<path d="M24753 5172
L24851 4877
L24950 5172
" />
<path d="M25006 4877
L25175 4877
" />
<path d="M25090 5172
L25090 4877
" />
<path d="M25259 5158
L25301 5172
L25372 5172
L25400 5158
L25414 5144
L25428 5116
L25428 5088
L25414 5060
L25400 5046
L25372 5032
L25315 5018
L25287 5004
L25273 4990
L25259 4962
L25259 4933
L25273 4905
L25287 4891
L25315 4877
L25386 4877
L25428 4891
" />
<path d="M25554 5172
L25554 4877
" />
<path d="M25695 5172
L25695 4877
L25864 5172
L25864 4877
" />
<path d="M26004 5172
L26004 4877
" />
<path d="M26173 5172
L26047 5004
" />
<path d="M26173 4877
L26004 5046
" />
</g>
<g style="fill:#008484; fill-opacity:0.0; 
stroke:#008484; stroke-width:118.11; stroke-opacity:1; 
stroke-linecap:round; stroke-linejoin:round;">
<path d="M29539 3789
L29539 6289
" />
<path d="M9539 3789
L9539 6289
" />
<path d="M29539 3789
L9539 3789
" />
<path d="M29539 6289
L9539 6289
" />
</g>
<g style="fill:#008484; fill-opacity:0.0; 
stroke:#008484; stroke-width:393.701; stroke-opacity:1; 
stroke-linecap:round; stroke-linejoin:round;">
<path d="M20239 10589
L22239 10589
" />
</g>
<g style="fill:#008484; fill-opacity:0.0; 
stroke:#008484; stroke-width:39.3701; stroke-opacity:1; 
stroke-linecap:round; stroke-linejoin:round;">
<path d="M18419 5072
L18419 4777
" />
<path d="M18419 4918
L18587 4918
" />
<path d="M18587 5072
L18587 4777
" />
<path d="M18728 4918
L18826 4918
" />
<path d="M18869 5072
L18728 5072
L18728 4777
L18869 4777
" />
<path d="M18981 4988
L19122 4988
" />
<path d="M18953 5072
L19051 4777
L19150 5072
" />
<path d="M19206 4777
L19375 4777
" />
<path d="M19290 5072
L19290 4777
" />
<path d="M19459 5058
L19501 5072
L19572 5072
L19600 5058
L19614 5044
L19628 5016
L19628 4988
L19614 4960
L19600 4946
L19572 4932
L19515 4918
L19487 4904
L19473 4890
L19459 4862
L19459 4833
L19473 4805
L19487 4791
L19515 4777
L19586 4777
L19628 4791
" />
<path d="M19754 5072
L19754 4777
" />
<path d="M19895 5072
L19895 4777
L20064 5072
L20064 4777
" />
<path d="M20204 5072
L20204 4777
" />
<path d="M20373 5072
L20247 4904
" />
<path d="M20373 4777
L20204 4946
" />
<path d="M12769 5072
L12769 4777
" />
<path d="M12769 4918
L12937 4918
" />
<path d="M12937 5072
L12937 4777
" />
<path d="M13078 4918
L13176 4918
" />
<path d="M13219 5072
L13078 5072
L13078 4777
L13219 4777
" />
<path d="M13331 4988
L13472 4988
" />
<path d="M13303 5072
L13401 4777
L13500 5072
" />
<path d="M13556 4777
L13725 4777
" />
<path d="M13640 5072
L13640 4777
" />
<path d="M13809 5058
L13851 5072
L13922 5072
L13950 5058
L13964 5044
L13978 5016
L13978 4988
L13964 4960
L13950 4946
L13922 4932
L13865 4918
L13837 4904
L13823 4890
L13809 4862
L13809 4833
L13823 4805
L13837 4791
L13865 4777
L13936 4777
L13978 4791
" />
<path d="M14104 5072
L14104 4777
" />
<path d="M14245 5072
L14245 4777
L14414 5072
L14414 4777
" />
<path d="M14554 5072
L14554 4777
" />
<path d="M14723 5072
L14597 4904
" />
<path d="M14723 4777
L14554 4946
" />
</g>
<g style="fill:#008484; fill-opacity:0.0; 
stroke:#008484; stroke-width:47.2441; stroke-opacity:1; 
stroke-linecap:round; stroke-linejoin:round;">
<path d="M1471 9050
L2179 9050
" />
<path d="M1825 9405
L1825 8696
" />
<path d="M3823 1972
L3855 1972
" />
<path d="M3518 1988
L4159 1988
" />
<path d="M3380 2003
L4298 2003
" />
<path d="M3274 2019
L4404 2019
" />
<path d="M3185 2035
L4493 2035
" />
<path d="M3107 2051
L4571 2051
" />
<path d="M3036 2066
L4642 2066
" />
<path d="M2972 2082
L4706 2082
" />
<path d="M2912 2098
L4766 2098
" />
<path d="M2855 2114
L4822 2114
" />
<path d="M2803 2129
L4875 2129
" />
<path d="M2753 2145
L4925 2145
" />
<path d="M2705 2161
L4973 2161
" />
<path d="M2659 2177
L5018 2177
" />
<path d="M2616 2192
L5062 2192
" />
<path d="M2574 2208
L5104 2208
" />
<path d="M2533 2224
L5145 2224
" />
<path d="M2494 2240
L5184 2240
" />
<path d="M2456 2255
L5222 2255
" />
<path d="M2420 2271
L5258 2271
" />
<path d="M2384 2287
L5294 2287
" />
<path d="M2349 2303
L5329 2303
" />
<path d="M2316 2318
L5362 2318
" />
<path d="M2283 2334
L5395 2334
" />
<path d="M2251 2350
L5427 2350
" />
<path d="M2220 2365
L5458 2365
" />
<path d="M2189 2381
L5488 2381
" />
<path d="M2160 2397
L5518 2397
" />
<path d="M2131 2412
L5547 2412
" />
<path d="M2102 2428
L5576 2428
" />
<path d="M2074 2444
L5603 2444
" />
<path d="M2047 2460
L5631 2460
" />
<path d="M2020 2475
L5658 2475
" />
<path d="M1994 2491
L5684 2491
" />
<path d="M1968 2507
L5710 2507
" />
<path d="M1943 2523
L5735 2523
" />
<path d="M1918 2538
L5760 2538
" />
<path d="M1894 2554
L5784 2554
" />
<path d="M1870 2570
L5808 2570
" />
<path d="M1846 2586
L5832 2586
" />
<path d="M1823 2601
L5855 2601
" />
<path d="M1800 2617
L5877 2617
" />
<path d="M1778 2633
L5900 2633
" />
<path d="M1756 2649
L5922 2649
" />
<path d="M1734 2664
L5944 2664
" />
<path d="M1713 2680
L5965 2680
" />
<path d="M1692 2696
L5986 2696
" />
<path d="M1671 2712
L6007 2712
" />
<path d="M1651 2727
L6027 2727
" />
<path d="M1631 2743
L6047 2743
" />
<path d="M1611 2759
L6067 2759
" />
<path d="M1591 2775
L6087 2775
" />
<path d="M1572 2790
L6106 2790
" />
<path d="M1553 2806
L6125 2806
" />
<path d="M1534 2822
L6144 2822
" />
<path d="M1516 2838
L6162 2838
" />
<path d="M1498 2853
L6180 2853
" />
<path d="M1479 2869
L6198 2869
" />
<path d="M1462 2885
L6216 2885
" />
<path d="M1444 2901
L6233 2901
" />
<path d="M1427 2916
L6251 2916
" />
<path d="M1410 2932
L6268 2932
" />
<path d="M1393 2948
L6285 2948
" />
<path d="M1377 2964
L6301 2964
" />
<path d="M1360 2979
L6318 2979
" />
<path d="M1344 2995
L6334 2995
" />
<path d="M1328 3011
L6350 3011
" />
<path d="M1312 3027
L6366 3027
" />
<path d="M1296 3042
L6381 3042
" />
<path d="M1281 3058
L6397 3058
" />
<path d="M1266 3074
L6412 3074
" />
<path d="M1251 3090
L6427 3090
" />
<path d="M1236 3105
L6442 3105
" />
<path d="M1221 3121
L6457 3121
" />
<path d="M1207 3137
L6471 3137
" />
<path d="M1192 3153
L6485 3153
" />
<path d="M1178 3168
L6500 3168
" />
<path d="M1164 3184
L6514 3184
" />
<path d="M1150 3200
L6527 3200
" />
<path d="M1137 3216
L6541 3216
" />
<path d="M1123 3231
L6555 3231
" />
<path d="M1110 3247
L6568 3247
" />
<path d="M1097 3263
L6581 3263
" />
<path d="M1083 3279
L6594 3279
" />
<path d="M1071 3294
L6607 3294
" />
<path d="M1058 3310
L6620 3310
" />
<path d="M1045 3326
L6633 3326
" />
<path d="M1033 3342
L6645 3342
" />
<path d="M1020 3357
L6657 3357
" />
<path d="M1008 3373
L6670 3373
" />
<path d="M996 3389
L6681 3389
" />
<path d="M985 3405
L6693 3405
" />
<path d="M973 3420
L6705 3420
" />
<path d="M961 3436
L6717 3436
" />
<path d="M950 3452
L6728 3452
" />
<path d="M938 3468
L6740 3468
" />
<path d="M927 3483
L6751 3483
" />
<path d="M916 3499
L6762 3499
" />
<path d="M905 3515
L6773 3515
" />
<path d="M4406 3531
L6784 3531
" />
<path d="M894 3531
L3272 3531
" />
<path d="M4406 3546
L6795 3546
" />
<path d="M883 3546
L3272 3546
" />
<path d="M4406 3562
L6805 3562
" />
<path d="M872 3562
L3272 3562
" />
<path d="M4406 3578
L6816 3578
" />
<path d="M862 3578
L3272 3578
" />
<path d="M4406 3594
L6826 3594
" />
<path d="M851 3594
L3272 3594
" />
<path d="M4406 3609
L6837 3609
" />
<path d="M841 3609
L3272 3609
" />
<path d="M4406 3625
L6847 3625
" />
<path d="M831 3625
L3272 3625
" />
<path d="M4406 3641
L6857 3641
" />
<path d="M821 3641
L3272 3641
" />
<path d="M4406 3657
L6866 3657
" />
<path d="M811 3657
L3272 3657
" />
<path d="M4406 3672
L6876 3672
" />
<path d="M801 3672
L3272 3672
" />
<path d="M4406 3688
L6886 3688
" />
<path d="M792 3688
L3272 3688
" />
<path d="M4406 3704
L6896 3704
" />
<path d="M782 3704
L3272 3704
" />
<path d="M4406 3720
L6905 3720
" />
<path d="M773 3720
L3272 3720
" />
<path d="M4406 3735
L6914 3735
" />
<path d="M763 3735
L3272 3735
" />
<path d="M4406 3751
L6924 3751
" />
<path d="M754 3751
L3272 3751
" />
<path d="M4406 3767
L6933 3767
" />
<path d="M745 3767
L3272 3767
" />
<path d="M4406 3783
L6942 3783
" />
<path d="M736 3783
L3272 3783
" />
<path d="M4406 3798
L6951 3798
" />
<path d="M727 3798
L3272 3798
" />
<path d="M4406 3814
L6960 3814
" />
<path d="M718 3814
L3272 3814
" />
<path d="M4406 3830
L6968 3830
" />
<path d="M709 3830
L3272 3830
" />
<path d="M4406 3846
L6977 3846
" />
<path d="M701 3846
L3272 3846
" />
<path d="M4406 3861
L6985 3861
" />
<path d="M692 3861
L3272 3861
" />
<path d="M4406 3877
L6994 3877
" />
<path d="M684 3877
L3272 3877
" />
<path d="M4406 3893
L7002 3893
" />
<path d="M675 3893
L3272 3893
" />
<path d="M4406 3909
L7011 3909
" />
<path d="M667 3909
L3272 3909
" />
<path d="M4406 3924
L7018 3924
" />
<path d="M659 3924
L3272 3924
" />
<path d="M4406 3940
L7027 3940
" />
<path d="M651 3940
L3272 3940
" />
<path d="M4406 3956
L7035 3956
" />
<path d="M643 3956
L3272 3956
" />
<path d="M4406 3972
L7042 3972
" />
<path d="M635 3972
L3272 3972
" />
<path d="M4406 3987
L7050 3987
" />
<path d="M628 3987
L3272 3987
" />
<path d="M4406 4003
L7058 4003
" />
<path d="M620 4003
L3272 4003
" />
<path d="M4406 4019
L7065 4019
" />
<path d="M612 4019
L3272 4019
" />
<path d="M4406 4035
L7073 4035
" />
<path d="M605 4035
L3272 4035
" />
<path d="M4406 4050
L7080 4050
" />
<path d="M598 4050
L3272 4050
" />
<path d="M4406 4066
L7087 4066
" />
<path d="M590 4066
L3272 4066
" />
<path d="M4406 4082
L7094 4082
" />
<path d="M583 4082
L3272 4082
" />
<path d="M4406 4098
L7101 4098
" />
<path d="M576 4098
L3272 4098
" />
<path d="M4406 4113
L7109 4113
" />
<path d="M569 4113
L3272 4113
" />
<path d="M4406 4129
L7116 4129
" />
<path d="M562 4129
L3272 4129
" />
<path d="M4406 4145
L7122 4145
" />
<path d="M555 4145
L3272 4145
" />
<path d="M4406 4161
L7129 4161
" />
<path d="M549 4161
L3272 4161
" />
<path d="M4406 4176
L7136 4176
" />
<path d="M542 4176
L3272 4176
" />
<path d="M4406 4192
L7142 4192
" />
<path d="M536 4192
L3272 4192
" />
<path d="M4406 4208
L7149 4208
" />
<path d="M529 4208
L3272 4208
" />
<path d="M4406 4224
L7155 4224
" />
<path d="M523 4224
L3272 4224
" />
<path d="M4406 4239
L7161 4239
" />
<path d="M516 4239
L3272 4239
" />
<path d="M4406 4255
L7168 4255
" />
<path d="M510 4255
L3272 4255
" />
<path d="M4406 4271
L7174 4271
" />
<path d="M504 4271
L3272 4271
" />
<path d="M4406 4287
L7180 4287
" />
<path d="M498 4287
L3272 4287
" />
<path d="M4406 4302
L7186 4302
" />
<path d="M492 4302
L3272 4302
" />
<path d="M4406 4318
L7192 4318
" />
<path d="M486 4318
L3272 4318
" />
<path d="M4406 4334
L7197 4334
" />
<path d="M481 4334
L3272 4334
" />
<path d="M4406 4350
L7203 4350
" />
<path d="M475 4350
L3272 4350
" />
<path d="M4406 4365
L7209 4365
" />
<path d="M469 4365
L3272 4365
" />
<path d="M4406 4381
L7214 4381
" />
<path d="M464 4381
L3272 4381
" />
<path d="M4406 4397
L7220 4397
" />
<path d="M458 4397
L3272 4397
" />
<path d="M4406 4412
L7225 4412
" />
<path d="M453 4412
L3272 4412
" />
<path d="M4406 4428
L7230 4428
" />
<path d="M448 4428
L3272 4428
" />
<path d="M4406 4444
L7235 4444
" />
<path d="M442 4444
L3272 4444
" />
<path d="M4406 4460
L7240 4460
" />
<path d="M437 4460
L3272 4460
" />
<path d="M4406 4475
L7246 4475
" />
<path d="M432 4475
L3272 4475
" />
<path d="M4406 4491
L7250 4491
" />
<path d="M427 4491
L3272 4491
" />
<path d="M4406 4507
L7255 4507
" />
<path d="M422 4507
L3272 4507
" />
<path d="M4406 4523
L7260 4523
" />
<path d="M418 4523
L3272 4523
" />
<path d="M4406 4538
L7265 4538
" />
<path d="M413 4538
L3272 4538
" />
<path d="M4406 4554
L7270 4554
" />
<path d="M408 4554
L3272 4554
" />
<path d="M4406 4570
L7274 4570
" />
<path d="M404 4570
L3272 4570
" />
<path d="M4406 4586
L7279 4586
" />
<path d="M399 4586
L3272 4586
" />
<path d="M4406 4601
L7283 4601
" />
<path d="M395 4601
L3272 4601
" />
<path d="M4406 4617
L7287 4617
" />
<path d="M390 4617
L3272 4617
" />
<path d="M4406 4633
L7292 4633
" />
<path d="M386 4633
L3272 4633
" />
<path d="M4406 4649
L7296 4649
" />
<path d="M382 4649
L3272 4649
" />
<path d="M378 4664
L7300 4664
" />
<path d="M374 4680
L7304 4680
" />
<path d="M370 4696
L7308 4696
" />
<path d="M366 4712
L7312 4712
" />
<path d="M362 4727
L7316 4727
" />
<path d="M359 4743
L7319 4743
" />
<path d="M355 4759
L7323 4759
" />
<path d="M351 4775
L7326 4775
" />
<path d="M348 4790
L7330 4790
" />
<path d="M344 4806
L7333 4806
" />
<path d="M341 4822
L7337 4822
" />
<path d="M338 4838
L7340 4838
" />
<path d="M335 4853
L7343 4853
" />
<path d="M331 4869
L7346 4869
" />
<path d="M328 4885
L7350 4885
" />
<path d="M325 4901
L7352 4901
" />
<path d="M322 4916
L7355 4916
" />
<path d="M320 4932
L7358 4932
" />
<path d="M317 4948
L7361 4948
" />
<path d="M314 4964
L7364 4964
" />
<path d="M311 4979
L7366 4979
" />
<path d="M309 4995
L7369 4995
" />
<path d="M307 5011
L7371 5011
" />
<path d="M304 5027
L7374 5027
" />
<path d="M302 5042
L7376 5042
" />
<path d="M300 5058
L7378 5058
" />
<path d="M297 5074
L7381 5074
" />
<path d="M295 5090
L7383 5090
" />
<path d="M293 5105
L7385 5105
" />
<path d="M291 5121
L7387 5121
" />
<path d="M289 5137
L7388 5137
" />
<path d="M287 5153
L7390 5153
" />
<path d="M285 5168
L7392 5168
" />
<path d="M284 5184
L7394 5184
" />
<path d="M282 5200
L7396 5200
" />
<path d="M281 5216
L7397 5216
" />
<path d="M279 5231
L7399 5231
" />
<path d="M278 5247
L7400 5247
" />
<path d="M276 5263
L7401 5263
" />
<path d="M275 5279
L7403 5279
" />
<path d="M274 5295
L7404 5295
" />
<path d="M273 5311
L7405 5311
" />
<path d="M272 5326
L7406 5326
" />
<path d="M271 5342
L7407 5342
" />
<path d="M270 5358
L7408 5358
" />
<path d="M269 5374
L7409 5374
" />
<path d="M268 5389
L7410 5389
" />
<path d="M267 5405
L7411 5405
" />
<path d="M267 5421
L7411 5421
" />
<path d="M266 5437
L7412 5437
" />
<path d="M266 5452
L7412 5452
" />
<path d="M265 5468
L7412 5468
" />
<path d="M265 5484
L7413 5484
" />
<path d="M264 5500
L7413 5500
" />
<path d="M264 5515
L7414 5515
" />
<path d="M264 5531
L7414 5531
" />
<path d="M264 5547
L7414 5547
" />
<path d="M264 5562
L7414 5562
" />
<circle cx="3839.37" cy="5562.99" r="3590.55" /> 
<path d="M11015 6062
L28043 6062
" />
<path d="M9539 6062
L10267 6062
" />
<path d="M29539 6062
L28811 6062
" />
</g>
<g style="fill:#008484; fill-opacity:0.0; 
stroke:#008484; stroke-width:59.0551; stroke-opacity:1; 
stroke-linecap:round; stroke-linejoin:round;">
<path d="M15589 5039
L11839 5039
" />
<path d="M18712 5039
L17216 5039
" />
<path d="M21862 5039
L20366 5039
" />
<path d="M25039 5039
L23439 5039
" />
<path d="M25039 5039
L27189 5039
" />
<path d="M17216 2244
L15562 2244
" />
<path d="M20366 2244
L18712 2244
" />
<path d="M15188 3720
L15189 5039
" />
<path d="M13988 3720
L13989 5039
" />
<path d="M15562 2244
L15562 5039
" />
<path d="M17216 2244
L17216 5039
" />
<path d="M18712 2244
L18712 5039
" />
<path d="M23417 2244
L21862 2244
" />
<path d="M23417 2244
L23417 5039
" />
<path d="M21862 2244
L21862 5039
" />
<path d="M20366 2244
L20366 5039
" />
<path d="M23889 3720
L23889 5039
" />
<path d="M14589 5239
L14589 5689
" />
<path d="M14589 4439
L14589 4889
" />
<path d="M14589 3489
L14589 4039
" />
<path d="M14589 2889
L14589 3289
" />
<path d="M14589 1989
L14589 2489
" />
<path d="M14589 1489
L14589 1739
" />
<path d="M24489 5689
L24489 6089
" />
<path d="M24489 4739
L24489 5389
" />
<path d="M24489 3989
L24489 4389
" />
<path d="M24489 3089
L24489 3539
" />
<path d="M24489 2239
L24489 2639
" />
<path d="M24489 1539
L24489 1889
" />
<path d="M25031 3720
L25031 5039
" />
<path d="M29539 6062
L29539 3720
" />
<path d="M29539 3720
L9539 3720
" />
<path d="M9539 3720
L9539 6062
" />
</g>
<g style="fill:#008484; fill-opacity:0.0; 
stroke:#008484; stroke-width:47.2441; stroke-opacity:1; 
stroke-linecap:round; stroke-linejoin:round;">
<path d="M18762 11115
L16715 11115
" />
<path d="M18762 15139
L18762 11115
" />
<path d="M16715 16162
L16715 11115
" />
<path d="M18762 15139
L17739 15139
" />
<path d="M17739 15139
L17739 16162
" />
<path d="M17739 16162
L16715 16162
" />
<path d="M18762 15639
L18762 16162
" />
<path d="M18762 16162
L18239 16162
" />
<path d="M22262 11115
L20215 11115
" />
<path d="M22262 15139
L22262 11115
" />
<path d="M20215 16162
L20215 11115
" />
<path d="M22262 15139
L21239 15139
" />
<path d="M21239 15139
L21239 16162
" />
<path d="M21239 16162
L20215 16162
" />
<path d="M22262 15639
L22262 16162
" />
<path d="M22262 16162
L21739 16162
" />
<path d="M18515 17265
L18515 18312
" />
<path d="M19539 17265
L18515 17265
" />
<path d="M19539 18312
L18515 18312
" />
<path d="M19539 17265
L19539 18312
" />
<path d="M20039 17265
L20562 17265
" />
<path d="M20562 17265
L20562 17789
" />
<path d="M28068 6451
L28068 7046
" />
<path d="M26611 6451
L26611 7046
" />
<path d="M25323 7046
L29355 7046
" />
<path d="M29355 6451
L29355 8279
" />
<path d="M25323 6451
L25323 8279
" />
<path d="M25323 8279
L29355 8279
" />
<path d="M25323 6451
L29355 6451
" />
<path d="M9623 6451
L13655 6451
" />
<path d="M9623 8279
L13655 8279
" />
<path d="M9623 6451
L9623 8279
" />
<path d="M13655 6451
L13655 8279
" />
<path d="M9623 7046
L13655 7046
" />
<path d="M10911 6451
L10911 7046
" />
<path d="M12368 6451
L12368 7046
" />
<path d="M37157 2027
L36448 2027
" />
<path d="M36803 1673
L36803 2382
" />
<path d="M34805 9106
L34773 9106
" />
<path d="M35109 9090
L34468 9090
" />
<path d="M35248 9074
L34330 9074
" />
<path d="M35354 9059
L34224 9059
" />
<path d="M35443 9043
L34135 9043
" />
<path d="M35521 9027
L34057 9027
" />
<path d="M35592 9011
L33986 9011
" />
<path d="M35656 8996
L33922 8996
" />
<path d="M35716 8980
L33862 8980
" />
<path d="M35772 8964
L33805 8964
" />
<path d="M35825 8948
L33753 8948
" />
<path d="M35875 8933
L33703 8933
" />
<path d="M35923 8917
L33655 8917
" />
<path d="M35968 8901
L33609 8901
" />
<path d="M36012 8885
L33566 8885
" />
<path d="M36054 8870
L33524 8870
" />
<path d="M36095 8854
L33483 8854
" />
<path d="M36134 8838
L33444 8838
" />
<path d="M36172 8822
L33406 8822
" />
<path d="M36208 8807
L33370 8807
" />
<path d="M36244 8791
L33334 8791
" />
<path d="M36279 8775
L33299 8775
" />
<path d="M36312 8759
L33266 8759
" />
<path d="M36345 8744
L33233 8744
" />
<path d="M36377 8728
L33201 8728
" />
<path d="M36408 8712
L33170 8712
" />
<path d="M36438 8697
L33139 8697
" />
<path d="M36468 8681
L33110 8681
" />
<path d="M36497 8665
L33081 8665
" />
<path d="M36526 8650
L33052 8650
" />
<path d="M36553 8634
L33024 8634
" />
<path d="M36581 8618
L32997 8618
" />
<path d="M36608 8602
L32970 8602
" />
<path d="M36634 8587
L32944 8587
" />
<path d="M36660 8571
L32918 8571
" />
<path d="M36685 8555
L32893 8555
" />
<path d="M36710 8539
L32868 8539
" />
<path d="M36734 8524
L32844 8524
" />
<path d="M36758 8508
L32820 8508
" />
<path d="M36782 8492
L32796 8492
" />
<path d="M36805 8476
L32773 8476
" />
<path d="M36827 8461
L32750 8461
" />
<path d="M36850 8445
L32728 8445
" />
<path d="M36872 8429
L32706 8429
" />
<path d="M36894 8413
L32684 8413
" />
<path d="M36915 8398
L32663 8398
" />
<path d="M36936 8382
L32642 8382
" />
<path d="M36957 8366
L32621 8366
" />
<path d="M36977 8350
L32601 8350
" />
<path d="M36997 8335
L32581 8335
" />
<path d="M37017 8319
L32561 8319
" />
<path d="M37037 8303
L32541 8303
" />
<path d="M37056 8287
L32522 8287
" />
<path d="M37075 8272
L32503 8272
" />
<path d="M37094 8256
L32484 8256
" />
<path d="M37112 8240
L32466 8240
" />
<path d="M37130 8224
L32448 8224
" />
<path d="M37148 8209
L32429 8209
" />
<path d="M37166 8193
L32412 8193
" />
<path d="M37183 8177
L32394 8177
" />
<path d="M37201 8161
L32377 8161
" />
<path d="M37218 8146
L32360 8146
" />
<path d="M37235 8130
L32343 8130
" />
<path d="M37251 8114
L32327 8114
" />
<path d="M37268 8098
L32310 8098
" />
<path d="M37284 8083
L32294 8083
" />
<path d="M37300 8067
L32278 8067
" />
<path d="M37316 8051
L32262 8051
" />
<path d="M37331 8035
L32246 8035
" />
<path d="M37347 8020
L32231 8020
" />
<path d="M37362 8004
L32216 8004
" />
<path d="M37377 7988
L32201 7988
" />
<path d="M37392 7972
L32186 7972
" />
<path d="M37407 7957
L32171 7957
" />
<path d="M37421 7941
L32157 7941
" />
<path d="M37435 7925
L32142 7925
" />
<path d="M37450 7909
L32128 7909
" />
<path d="M37464 7894
L32114 7894
" />
<path d="M37477 7878
L32100 7878
" />
<path d="M37491 7862
L32087 7862
" />
<path d="M37505 7846
L32073 7846
" />
<path d="M37518 7831
L32060 7831
" />
<path d="M37531 7815
L32047 7815
" />
<path d="M37544 7799
L32033 7799
" />
<path d="M37557 7783
L32021 7783
" />
<path d="M37570 7768
L32008 7768
" />
<path d="M37583 7752
L31995 7752
" />
<path d="M37595 7736
L31983 7736
" />
<path d="M37607 7720
L31970 7720
" />
<path d="M37620 7705
L31958 7705
" />
<path d="M37631 7689
L31946 7689
" />
<path d="M37643 7673
L31935 7673
" />
<path d="M37655 7657
L31923 7657
" />
<path d="M37667 7642
L31911 7642
" />
<path d="M37678 7626
L31900 7626
" />
<path d="M37690 7610
L31888 7610
" />
<path d="M37701 7594
L31877 7594
" />
<path d="M37712 7579
L31866 7579
" />
<path d="M37723 7563
L31855 7563
" />
<path d="M34222 7547
L31844 7547
" />
<path d="M37734 7547
L35356 7547
" />
<path d="M34222 7531
L31833 7531
" />
<path d="M37745 7531
L35356 7531
" />
<path d="M34222 7516
L31822 7516
" />
<path d="M37755 7516
L35356 7516
" />
<path d="M34222 7500
L31812 7500
" />
<path d="M37766 7500
L35356 7500
" />
<path d="M34222 7484
L31801 7484
" />
<path d="M37776 7484
L35356 7484
" />
<path d="M34222 7468
L31791 7468
" />
<path d="M37787 7468
L35356 7468
" />
<path d="M34222 7453
L31781 7453
" />
<path d="M37797 7453
L35356 7453
" />
<path d="M34222 7437
L31771 7437
" />
<path d="M37807 7437
L35356 7437
" />
<path d="M34222 7421
L31761 7421
" />
<path d="M37816 7421
L35356 7421
" />
<path d="M34222 7405
L31751 7405
" />
<path d="M37826 7405
L35356 7405
" />
<path d="M34222 7390
L31742 7390
" />
<path d="M37836 7390
L35356 7390
" />
<path d="M34222 7374
L31732 7374
" />
<path d="M37846 7374
L35356 7374
" />
<path d="M34222 7358
L31723 7358
" />
<path d="M37855 7358
L35356 7358
" />
<path d="M34222 7342
L31713 7342
" />
<path d="M37864 7342
L35356 7342
" />
<path d="M34222 7327
L31704 7327
" />
<path d="M37874 7327
L35356 7327
" />
<path d="M34222 7311
L31695 7311
" />
<path d="M37883 7311
L35356 7311
" />
<path d="M34222 7295
L31686 7295
" />
<path d="M37892 7295
L35356 7295
" />
<path d="M34222 7279
L31677 7279
" />
<path d="M37901 7279
L35356 7279
" />
<path d="M34222 7264
L31668 7264
" />
<path d="M37910 7264
L35356 7264
" />
<path d="M34222 7248
L31659 7248
" />
<path d="M37918 7248
L35356 7248
" />
<path d="M34222 7232
L31651 7232
" />
<path d="M37927 7232
L35356 7232
" />
<path d="M34222 7216
L31642 7216
" />
<path d="M37935 7216
L35356 7216
" />
<path d="M34222 7201
L31634 7201
" />
<path d="M37944 7201
L35356 7201
" />
<path d="M34222 7185
L31625 7185
" />
<path d="M37952 7185
L35356 7185
" />
<path d="M34222 7169
L31617 7169
" />
<path d="M37961 7169
L35356 7169
" />
<path d="M34222 7153
L31609 7153
" />
<path d="M37968 7153
L35356 7153
" />
<path d="M34222 7138
L31601 7138
" />
<path d="M37977 7138
L35356 7138
" />
<path d="M34222 7122
L31593 7122
" />
<path d="M37985 7122
L35356 7122
" />
<path d="M34222 7106
L31585 7106
" />
<path d="M37992 7106
L35356 7106
" />
<path d="M34222 7090
L31578 7090
" />
<path d="M38000 7090
L35356 7090
" />
<path d="M34222 7075
L31570 7075
" />
<path d="M38008 7075
L35356 7075
" />
<path d="M34222 7059
L31562 7059
" />
<path d="M38015 7059
L35356 7059
" />
<path d="M34222 7043
L31555 7043
" />
<path d="M38023 7043
L35356 7043
" />
<path d="M34222 7027
L31548 7027
" />
<path d="M38030 7027
L35356 7027
" />
<path d="M34222 7012
L31540 7012
" />
<path d="M38037 7012
L35356 7012
" />
<path d="M34222 6996
L31533 6996
" />
<path d="M38044 6996
L35356 6996
" />
<path d="M34222 6980
L31526 6980
" />
<path d="M38051 6980
L35356 6980
" />
<path d="M34222 6964
L31519 6964
" />
<path d="M38059 6964
L35356 6964
" />
<path d="M34222 6949
L31512 6949
" />
<path d="M38066 6949
L35356 6949
" />
<path d="M34222 6933
L31505 6933
" />
<path d="M38072 6933
L35356 6933
" />
<path d="M34222 6917
L31499 6917
" />
<path d="M38079 6917
L35356 6917
" />
<path d="M34222 6901
L31492 6901
" />
<path d="M38086 6901
L35356 6901
" />
<path d="M34222 6886
L31486 6886
" />
<path d="M38092 6886
L35356 6886
" />
<path d="M34222 6870
L31479 6870
" />
<path d="M38099 6870
L35356 6870
" />
<path d="M34222 6854
L31473 6854
" />
<path d="M38105 6854
L35356 6854
" />
<path d="M34222 6838
L31466 6838
" />
<path d="M38111 6838
L35356 6838
" />
<path d="M34222 6823
L31460 6823
" />
<path d="M38118 6823
L35356 6823
" />
<path d="M34222 6807
L31454 6807
" />
<path d="M38124 6807
L35356 6807
" />
<path d="M34222 6791
L31448 6791
" />
<path d="M38130 6791
L35356 6791
" />
<path d="M34222 6775
L31442 6775
" />
<path d="M38136 6775
L35356 6775
" />
<path d="M34222 6760
L31436 6760
" />
<path d="M38142 6760
L35356 6760
" />
<path d="M34222 6744
L31431 6744
" />
<path d="M38147 6744
L35356 6744
" />
<path d="M34222 6728
L31425 6728
" />
<path d="M38153 6728
L35356 6728
" />
<path d="M34222 6712
L31419 6712
" />
<path d="M38159 6712
L35356 6712
" />
<path d="M34222 6697
L31414 6697
" />
<path d="M38164 6697
L35356 6697
" />
<path d="M34222 6681
L31408 6681
" />
<path d="M38170 6681
L35356 6681
" />
<path d="M34222 6665
L31403 6665
" />
<path d="M38175 6665
L35356 6665
" />
<path d="M34222 6650
L31398 6650
" />
<path d="M38180 6650
L35356 6650
" />
<path d="M34222 6634
L31392 6634
" />
<path d="M38185 6634
L35356 6634
" />
<path d="M34222 6618
L31387 6618
" />
<path d="M38190 6618
L35356 6618
" />
<path d="M34222 6602
L31382 6602
" />
<path d="M38196 6602
L35356 6602
" />
<path d="M34222 6587
L31377 6587
" />
<path d="M38200 6587
L35356 6587
" />
<path d="M34222 6571
L31372 6571
" />
<path d="M38205 6571
L35356 6571
" />
<path d="M34222 6555
L31368 6555
" />
<path d="M38210 6555
L35356 6555
" />
<path d="M34222 6539
L31363 6539
" />
<path d="M38215 6539
L35356 6539
" />
<path d="M34222 6524
L31358 6524
" />
<path d="M38220 6524
L35356 6524
" />
<path d="M34222 6508
L31354 6508
" />
<path d="M38224 6508
L35356 6508
" />
<path d="M34222 6492
L31349 6492
" />
<path d="M38229 6492
L35356 6492
" />
<path d="M34222 6476
L31345 6476
" />
<path d="M38233 6476
L35356 6476
" />
<path d="M34222 6461
L31340 6461
" />
<path d="M38237 6461
L35356 6461
" />
<path d="M34222 6445
L31336 6445
" />
<path d="M38242 6445
L35356 6445
" />
<path d="M34222 6429
L31332 6429
" />
<path d="M38246 6429
L35356 6429
" />
<path d="M38250 6413
L31328 6413
" />
<path d="M38254 6398
L31324 6398
" />
<path d="M38258 6382
L31320 6382
" />
<path d="M38262 6366
L31316 6366
" />
<path d="M38266 6350
L31312 6350
" />
<path d="M38269 6335
L31309 6335
" />
<path d="M38273 6319
L31305 6319
" />
<path d="M38276 6303
L31301 6303
" />
<path d="M38280 6287
L31298 6287
" />
<path d="M38283 6272
L31294 6272
" />
<path d="M38287 6256
L31291 6256
" />
<path d="M38290 6240
L31288 6240
" />
<path d="M38293 6224
L31285 6224
" />
<path d="M38296 6209
L31281 6209
" />
<path d="M38300 6193
L31278 6193
" />
<path d="M38302 6177
L31275 6177
" />
<path d="M38305 6161
L31272 6161
" />
<path d="M38308 6146
L31270 6146
" />
<path d="M38311 6130
L31267 6130
" />
<path d="M38314 6114
L31264 6114
" />
<path d="M38316 6098
L31261 6098
" />
<path d="M38319 6083
L31259 6083
" />
<path d="M38321 6067
L31257 6067
" />
<path d="M38324 6051
L31254 6051
" />
<path d="M38326 6035
L31252 6035
" />
<path d="M38328 6020
L31250 6020
" />
<path d="M38331 6004
L31247 6004
" />
<path d="M38333 5988
L31245 5988
" />
<path d="M38335 5972
L31243 5972
" />
<path d="M38337 5957
L31241 5957
" />
<path d="M38338 5941
L31239 5941
" />
<path d="M38340 5925
L31237 5925
" />
<path d="M38342 5909
L31235 5909
" />
<path d="M38344 5894
L31234 5894
" />
<path d="M38346 5878
L31232 5878
" />
<path d="M38347 5862
L31231 5862
" />
<path d="M38349 5846
L31229 5846
" />
<path d="M38350 5831
L31228 5831
" />
<path d="M38351 5815
L31226 5815
" />
<path d="M38353 5799
L31225 5799
" />
<path d="M38354 5783
L31224 5783
" />
<path d="M38355 5767
L31223 5767
" />
<path d="M38356 5751
L31222 5751
" />
<path d="M38357 5736
L31221 5736
" />
<path d="M38358 5720
L31220 5720
" />
<path d="M38359 5704
L31219 5704
" />
<path d="M38360 5688
L31218 5688
" />
<path d="M38361 5673
L31217 5673
" />
<path d="M38361 5657
L31217 5657
" />
<path d="M38362 5641
L31216 5641
" />
<path d="M38362 5625
L31216 5625
" />
<path d="M38362 5610
L31215 5610
" />
<path d="M38363 5594
L31215 5594
" />
<path d="M38363 5578
L31214 5578
" />
<path d="M38364 5562
L31214 5562
" />
<path d="M38364 5547
L31214 5547
" />
<path d="M38364 5531
L31214 5531
" />
<path d="M38364 5515
L31214 5515
" />
<circle cx="34789.4" cy="5515.75" r="3590.55" /> 
<circle cx="3839.37" cy="14015.7" r="3590.55" /> 
<path d="M7414 14015
L264 14015
" />
<path d="M7414 14031
L264 14031
" />
<path d="M7414 14047
L264 14047
" />
<path d="M7414 14062
L264 14062
" />
<path d="M7413 14078
L264 14078
" />
<path d="M7413 14094
L265 14094
" />
<path d="M7412 14110
L265 14110
" />
<path d="M7412 14125
L266 14125
" />
<path d="M7412 14141
L266 14141
" />
<path d="M7411 14157
L267 14157
" />
<path d="M7411 14173
L267 14173
" />
<path d="M7410 14188
L268 14188
" />
<path d="M7409 14204
L269 14204
" />
<path d="M7408 14220
L270 14220
" />
<path d="M7407 14236
L271 14236
" />
<path d="M7406 14251
L272 14251
" />
<path d="M7405 14267
L273 14267
" />
<path d="M7404 14283
L274 14283
" />
<path d="M7403 14299
L275 14299
" />
<path d="M7401 14315
L276 14315
" />
<path d="M7400 14331
L278 14331
" />
<path d="M7399 14346
L279 14346
" />
<path d="M7397 14362
L281 14362
" />
<path d="M7396 14378
L282 14378
" />
<path d="M7394 14394
L284 14394
" />
<path d="M7392 14409
L285 14409
" />
<path d="M7390 14425
L287 14425
" />
<path d="M7388 14441
L289 14441
" />
<path d="M7387 14457
L291 14457
" />
<path d="M7385 14472
L293 14472
" />
<path d="M7383 14488
L295 14488
" />
<path d="M7381 14504
L297 14504
" />
<path d="M7378 14520
L300 14520
" />
<path d="M7376 14535
L302 14535
" />
<path d="M7374 14551
L304 14551
" />
<path d="M7371 14567
L307 14567
" />
<path d="M7369 14583
L309 14583
" />
<path d="M7366 14598
L311 14598
" />
<path d="M7364 14614
L314 14614
" />
<path d="M7361 14630
L317 14630
" />
<path d="M7358 14646
L320 14646
" />
<path d="M7355 14661
L322 14661
" />
<path d="M7352 14677
L325 14677
" />
<path d="M7350 14693
L328 14693
" />
<path d="M7346 14709
L331 14709
" />
<path d="M7343 14724
L335 14724
" />
<path d="M7340 14740
L338 14740
" />
<path d="M7337 14756
L341 14756
" />
<path d="M7333 14772
L344 14772
" />
<path d="M7330 14787
L348 14787
" />
<path d="M7326 14803
L351 14803
" />
<path d="M7323 14819
L355 14819
" />
<path d="M7319 14835
L359 14835
" />
<path d="M7316 14850
L362 14850
" />
<path d="M7312 14866
L366 14866
" />
<path d="M7308 14882
L370 14882
" />
<path d="M7304 14898
L374 14898
" />
<path d="M7300 14913
L378 14913
" />
<path d="M7296 14929
L4406 14929
" />
<path d="M3272 14929
L382 14929
" />
<path d="M7292 14945
L4406 14945
" />
<path d="M3272 14945
L386 14945
" />
<path d="M7287 14961
L4406 14961
" />
<path d="M3272 14961
L390 14961
" />
<path d="M7283 14976
L4406 14976
" />
<path d="M3272 14976
L395 14976
" />
<path d="M7279 14992
L4406 14992
" />
<path d="M3272 14992
L399 14992
" />
<path d="M7274 15008
L4406 15008
" />
<path d="M3272 15008
L404 15008
" />
<path d="M7270 15024
L4406 15024
" />
<path d="M3272 15024
L408 15024
" />
<path d="M7265 15039
L4406 15039
" />
<path d="M3272 15039
L413 15039
" />
<path d="M7260 15055
L4406 15055
" />
<path d="M3272 15055
L418 15055
" />
<path d="M7255 15071
L4406 15071
" />
<path d="M3272 15071
L422 15071
" />
<path d="M7250 15087
L4406 15087
" />
<path d="M3272 15087
L427 15087
" />
<path d="M7246 15102
L4406 15102
" />
<path d="M3272 15102
L432 15102
" />
<path d="M7240 15118
L4406 15118
" />
<path d="M3272 15118
L437 15118
" />
<path d="M7235 15134
L4406 15134
" />
<path d="M3272 15134
L442 15134
" />
<path d="M7230 15150
L4406 15150
" />
<path d="M3272 15150
L448 15150
" />
<path d="M7225 15165
L4406 15165
" />
<path d="M3272 15165
L453 15165
" />
<path d="M7220 15181
L4406 15181
" />
<path d="M3272 15181
L458 15181
" />
<path d="M7214 15197
L4406 15197
" />
<path d="M3272 15197
L464 15197
" />
<path d="M7209 15212
L4406 15212
" />
<path d="M3272 15212
L469 15212
" />
<path d="M7203 15228
L4406 15228
" />
<path d="M3272 15228
L475 15228
" />
<path d="M7197 15244
L4406 15244
" />
<path d="M3272 15244
L481 15244
" />
<path d="M7192 15260
L4406 15260
" />
<path d="M3272 15260
L486 15260
" />
<path d="M7186 15275
L4406 15275
" />
<path d="M3272 15275
L492 15275
" />
<path d="M7180 15291
L4406 15291
" />
<path d="M3272 15291
L498 15291
" />
<path d="M7174 15307
L4406 15307
" />
<path d="M3272 15307
L504 15307
" />
<path d="M7168 15323
L4406 15323
" />
<path d="M3272 15323
L510 15323
" />
<path d="M7161 15338
L4406 15338
" />
<path d="M3272 15338
L516 15338
" />
<path d="M7155 15354
L4406 15354
" />
<path d="M3272 15354
L523 15354
" />
<path d="M7149 15370
L4406 15370
" />
<path d="M3272 15370
L529 15370
" />
<path d="M7142 15386
L4406 15386
" />
<path d="M3272 15386
L536 15386
" />
<path d="M7136 15401
L4406 15401
" />
<path d="M3272 15401
L542 15401
" />
<path d="M7129 15417
L4406 15417
" />
<path d="M3272 15417
L549 15417
" />
<path d="M7122 15433
L4406 15433
" />
<path d="M3272 15433
L555 15433
" />
<path d="M7116 15449
L4406 15449
" />
<path d="M3272 15449
L562 15449
" />
<path d="M7109 15464
L4406 15464
" />
<path d="M3272 15464
L569 15464
" />
<path d="M7101 15480
L4406 15480
" />
<path d="M3272 15480
L576 15480
" />
<path d="M7094 15496
L4406 15496
" />
<path d="M3272 15496
L583 15496
" />
<path d="M7087 15512
L4406 15512
" />
<path d="M3272 15512
L590 15512
" />
<path d="M7080 15527
L4406 15527
" />
<path d="M3272 15527
L598 15527
" />
<path d="M7073 15543
L4406 15543
" />
<path d="M3272 15543
L605 15543
" />
<path d="M7065 15559
L4406 15559
" />
<path d="M3272 15559
L612 15559
" />
<path d="M7058 15575
L4406 15575
" />
<path d="M3272 15575
L620 15575
" />
<path d="M7050 15590
L4406 15590
" />
<path d="M3272 15590
L628 15590
" />
<path d="M7042 15606
L4406 15606
" />
<path d="M3272 15606
L635 15606
" />
<path d="M7035 15622
L4406 15622
" />
<path d="M3272 15622
L643 15622
" />
<path d="M7027 15638
L4406 15638
" />
<path d="M3272 15638
L651 15638
" />
<path d="M7018 15653
L4406 15653
" />
<path d="M3272 15653
L659 15653
" />
<path d="M7011 15669
L4406 15669
" />
<path d="M3272 15669
L667 15669
" />
<path d="M7002 15685
L4406 15685
" />
<path d="M3272 15685
L675 15685
" />
<path d="M6994 15701
L4406 15701
" />
<path d="M3272 15701
L684 15701
" />
<path d="M6985 15716
L4406 15716
" />
<path d="M3272 15716
L692 15716
" />
<path d="M6977 15732
L4406 15732
" />
<path d="M3272 15732
L701 15732
" />
<path d="M6968 15748
L4406 15748
" />
<path d="M3272 15748
L709 15748
" />
<path d="M6960 15764
L4406 15764
" />
<path d="M3272 15764
L718 15764
" />
<path d="M6951 15779
L4406 15779
" />
<path d="M3272 15779
L727 15779
" />
<path d="M6942 15795
L4406 15795
" />
<path d="M3272 15795
L736 15795
" />
<path d="M6933 15811
L4406 15811
" />
<path d="M3272 15811
L745 15811
" />
<path d="M6924 15827
L4406 15827
" />
<path d="M3272 15827
L754 15827
" />
<path d="M6914 15842
L4406 15842
" />
<path d="M3272 15842
L763 15842
" />
<path d="M6905 15858
L4406 15858
" />
<path d="M3272 15858
L773 15858
" />
<path d="M6896 15874
L4406 15874
" />
<path d="M3272 15874
L782 15874
" />
<path d="M6886 15890
L4406 15890
" />
<path d="M3272 15890
L792 15890
" />
<path d="M6876 15905
L4406 15905
" />
<path d="M3272 15905
L801 15905
" />
<path d="M6866 15921
L4406 15921
" />
<path d="M3272 15921
L811 15921
" />
<path d="M6857 15937
L4406 15937
" />
<path d="M3272 15937
L821 15937
" />
<path d="M6847 15953
L4406 15953
" />
<path d="M3272 15953
L831 15953
" />
<path d="M6837 15968
L4406 15968
" />
<path d="M3272 15968
L841 15968
" />
<path d="M6826 15984
L4406 15984
" />
<path d="M3272 15984
L851 15984
" />
<path d="M6816 16000
L4406 16000
" />
<path d="M3272 16000
L862 16000
" />
<path d="M6805 16016
L4406 16016
" />
<path d="M3272 16016
L872 16016
" />
<path d="M6795 16031
L4406 16031
" />
<path d="M3272 16031
L883 16031
" />
<path d="M6784 16047
L4406 16047
" />
<path d="M3272 16047
L894 16047
" />
<path d="M6773 16063
L905 16063
" />
<path d="M6762 16079
L916 16079
" />
<path d="M6751 16094
L927 16094
" />
<path d="M6740 16110
L938 16110
" />
<path d="M6728 16126
L950 16126
" />
<path d="M6717 16142
L961 16142
" />
<path d="M6705 16157
L973 16157
" />
<path d="M6693 16173
L985 16173
" />
<path d="M6681 16189
L996 16189
" />
<path d="M6670 16205
L1008 16205
" />
<path d="M6657 16220
L1020 16220
" />
<path d="M6645 16236
L1033 16236
" />
<path d="M6633 16252
L1045 16252
" />
<path d="M6620 16268
L1058 16268
" />
<path d="M6607 16283
L1071 16283
" />
<path d="M6594 16299
L1083 16299
" />
<path d="M6581 16315
L1097 16315
" />
<path d="M6568 16331
L1110 16331
" />
<path d="M6555 16346
L1123 16346
" />
<path d="M6541 16362
L1137 16362
" />
<path d="M6527 16378
L1150 16378
" />
<path d="M6514 16394
L1164 16394
" />
<path d="M6500 16409
L1178 16409
" />
<path d="M6485 16425
L1192 16425
" />
<path d="M6471 16441
L1207 16441
" />
<path d="M6457 16457
L1221 16457
" />
<path d="M6442 16472
L1236 16472
" />
<path d="M6427 16488
L1251 16488
" />
<path d="M6412 16504
L1266 16504
" />
<path d="M6397 16520
L1281 16520
" />
<path d="M6381 16535
L1296 16535
" />
<path d="M6366 16551
L1312 16551
" />
<path d="M6350 16567
L1328 16567
" />
<path d="M6334 16583
L1344 16583
" />
<path d="M6318 16598
L1360 16598
" />
<path d="M6301 16614
L1377 16614
" />
<path d="M6285 16630
L1393 16630
" />
<path d="M6268 16646
L1410 16646
" />
<path d="M6251 16661
L1427 16661
" />
<path d="M6233 16677
L1444 16677
" />
<path d="M6216 16693
L1462 16693
" />
<path d="M6198 16709
L1479 16709
" />
<path d="M6180 16724
L1498 16724
" />
<path d="M6162 16740
L1516 16740
" />
<path d="M6144 16756
L1534 16756
" />
<path d="M6125 16772
L1553 16772
" />
<path d="M6106 16787
L1572 16787
" />
<path d="M6087 16803
L1591 16803
" />
<path d="M6067 16819
L1611 16819
" />
<path d="M6047 16835
L1631 16835
" />
<path d="M6027 16850
L1651 16850
" />
<path d="M6007 16866
L1671 16866
" />
<path d="M5986 16882
L1692 16882
" />
<path d="M5965 16898
L1713 16898
" />
<path d="M5944 16913
L1734 16913
" />
<path d="M5922 16929
L1756 16929
" />
<path d="M5900 16945
L1778 16945
" />
<path d="M5877 16961
L1800 16961
" />
<path d="M5855 16976
L1823 16976
" />
<path d="M5832 16992
L1846 16992
" />
<path d="M5808 17008
L1870 17008
" />
<path d="M5784 17024
L1894 17024
" />
<path d="M5760 17039
L1918 17039
" />
<path d="M5735 17055
L1943 17055
" />
<path d="M5710 17071
L1968 17071
" />
<path d="M5684 17087
L1994 17087
" />
<path d="M5658 17102
L2020 17102
" />
<path d="M5631 17118
L2047 17118
" />
<path d="M5603 17134
L2074 17134
" />
<path d="M5576 17150
L2102 17150
" />
<path d="M5547 17165
L2131 17165
" />
<path d="M5518 17181
L2160 17181
" />
<path d="M5488 17197
L2189 17197
" />
<path d="M5458 17212
L2220 17212
" />
<path d="M5427 17228
L2251 17228
" />
<path d="M5395 17244
L2283 17244
" />
<path d="M5362 17259
L2316 17259
" />
<path d="M5329 17275
L2349 17275
" />
<path d="M5294 17291
L2384 17291
" />
<path d="M5258 17307
L2420 17307
" />
<path d="M5222 17322
L2456 17322
" />
<path d="M5184 17338
L2494 17338
" />
<path d="M5145 17354
L2533 17354
" />
<path d="M5104 17370
L2574 17370
" />
<path d="M5062 17385
L2616 17385
" />
<path d="M5018 17401
L2659 17401
" />
<path d="M4973 17417
L2705 17417
" />
<path d="M4925 17433
L2753 17433
" />
<path d="M4875 17448
L2803 17448
" />
<path d="M4822 17464
L2855 17464
" />
<path d="M4766 17480
L2912 17480
" />
<path d="M4706 17496
L2972 17496
" />
<path d="M4642 17511
L3036 17511
" />
<path d="M4571 17527
L3107 17527
" />
<path d="M4493 17543
L3185 17543
" />
<path d="M4404 17559
L3274 17559
" />
<path d="M4298 17574
L3380 17574
" />
<path d="M4159 17590
L3518 17590
" />
<path d="M3855 17606
L3823 17606
" />
<path d="M5853 10173
L5853 10882
" />
<path d="M6207 10527
L5498 10527
" />
<circle cx="34789.4" cy="14063" r="3590.55" /> 
<path d="M31214 14062
L38364 14062
" />
<path d="M31214 14047
L38364 14047
" />
<path d="M31214 14031
L38364 14031
" />
<path d="M31214 14015
L38364 14015
" />
<path d="M31214 14000
L38363 14000
" />
<path d="M31215 13984
L38363 13984
" />
<path d="M31215 13968
L38362 13968
" />
<path d="M31216 13952
L38362 13952
" />
<path d="M31216 13937
L38362 13937
" />
<path d="M31217 13921
L38361 13921
" />
<path d="M31217 13905
L38361 13905
" />
<path d="M31218 13889
L38360 13889
" />
<path d="M31219 13874
L38359 13874
" />
<path d="M31220 13858
L38358 13858
" />
<path d="M31221 13842
L38357 13842
" />
<path d="M31222 13826
L38356 13826
" />
<path d="M31223 13811
L38355 13811
" />
<path d="M31224 13795
L38354 13795
" />
<path d="M31225 13779
L38353 13779
" />
<path d="M31226 13763
L38351 13763
" />
<path d="M31228 13747
L38350 13747
" />
<path d="M31229 13731
L38349 13731
" />
<path d="M31231 13716
L38347 13716
" />
<path d="M31232 13700
L38346 13700
" />
<path d="M31234 13684
L38344 13684
" />
<path d="M31235 13668
L38342 13668
" />
<path d="M31237 13653
L38340 13653
" />
<path d="M31239 13637
L38338 13637
" />
<path d="M31241 13621
L38337 13621
" />
<path d="M31243 13605
L38335 13605
" />
<path d="M31245 13590
L38333 13590
" />
<path d="M31247 13574
L38331 13574
" />
<path d="M31250 13558
L38328 13558
" />
<path d="M31252 13542
L38326 13542
" />
<path d="M31254 13527
L38324 13527
" />
<path d="M31257 13511
L38321 13511
" />
<path d="M31259 13495
L38319 13495
" />
<path d="M31261 13479
L38316 13479
" />
<path d="M31264 13464
L38314 13464
" />
<path d="M31267 13448
L38311 13448
" />
<path d="M31270 13432
L38308 13432
" />
<path d="M31272 13416
L38305 13416
" />
<path d="M31275 13401
L38302 13401
" />
<path d="M31278 13385
L38300 13385
" />
<path d="M31281 13369
L38296 13369
" />
<path d="M31285 13353
L38293 13353
" />
<path d="M31288 13338
L38290 13338
" />
<path d="M31291 13322
L38287 13322
" />
<path d="M31294 13306
L38283 13306
" />
<path d="M31298 13290
L38280 13290
" />
<path d="M31301 13275
L38276 13275
" />
<path d="M31305 13259
L38273 13259
" />
<path d="M31309 13243
L38269 13243
" />
<path d="M31312 13227
L38266 13227
" />
<path d="M31316 13212
L38262 13212
" />
<path d="M31320 13196
L38258 13196
" />
<path d="M31324 13180
L38254 13180
" />
<path d="M31328 13164
L38250 13164
" />
<path d="M31332 13149
L34222 13149
" />
<path d="M35356 13149
L38246 13149
" />
<path d="M31336 13133
L34222 13133
" />
<path d="M35356 13133
L38242 13133
" />
<path d="M31340 13117
L34222 13117
" />
<path d="M35356 13117
L38237 13117
" />
<path d="M31345 13101
L34222 13101
" />
<path d="M35356 13101
L38233 13101
" />
<path d="M31349 13086
L34222 13086
" />
<path d="M35356 13086
L38229 13086
" />
<path d="M31354 13070
L34222 13070
" />
<path d="M35356 13070
L38224 13070
" />
<path d="M31358 13054
L34222 13054
" />
<path d="M35356 13054
L38220 13054
" />
<path d="M31363 13038
L34222 13038
" />
<path d="M35356 13038
L38215 13038
" />
<path d="M31368 13023
L34222 13023
" />
<path d="M35356 13023
L38210 13023
" />
<path d="M31372 13007
L34222 13007
" />
<path d="M35356 13007
L38205 13007
" />
<path d="M31377 12991
L34222 12991
" />
<path d="M35356 12991
L38200 12991
" />
<path d="M31382 12975
L34222 12975
" />
<path d="M35356 12975
L38196 12975
" />
<path d="M31387 12960
L34222 12960
" />
<path d="M35356 12960
L38190 12960
" />
<path d="M31392 12944
L34222 12944
" />
<path d="M35356 12944
L38185 12944
" />
<path d="M31398 12928
L34222 12928
" />
<path d="M35356 12928
L38180 12928
" />
<path d="M31403 12912
L34222 12912
" />
<path d="M35356 12912
L38175 12912
" />
<path d="M31408 12897
L34222 12897
" />
<path d="M35356 12897
L38170 12897
" />
<path d="M31414 12881
L34222 12881
" />
<path d="M35356 12881
L38164 12881
" />
<path d="M31419 12865
L34222 12865
" />
<path d="M35356 12865
L38159 12865
" />
<path d="M31425 12850
L34222 12850
" />
<path d="M35356 12850
L38153 12850
" />
<path d="M31431 12834
L34222 12834
" />
<path d="M35356 12834
L38147 12834
" />
<path d="M31436 12818
L34222 12818
" />
<path d="M35356 12818
L38142 12818
" />
<path d="M31442 12802
L34222 12802
" />
<path d="M35356 12802
L38136 12802
" />
<path d="M31448 12787
L34222 12787
" />
<path d="M35356 12787
L38130 12787
" />
<path d="M31454 12771
L34222 12771
" />
<path d="M35356 12771
L38124 12771
" />
<path d="M31460 12755
L34222 12755
" />
<path d="M35356 12755
L38118 12755
" />
<path d="M31466 12739
L34222 12739
" />
<path d="M35356 12739
L38111 12739
" />
<path d="M31473 12724
L34222 12724
" />
<path d="M35356 12724
L38105 12724
" />
<path d="M31479 12708
L34222 12708
" />
<path d="M35356 12708
L38099 12708
" />
<path d="M31486 12692
L34222 12692
" />
<path d="M35356 12692
L38092 12692
" />
<path d="M31492 12676
L34222 12676
" />
<path d="M35356 12676
L38086 12676
" />
<path d="M31499 12661
L34222 12661
" />
<path d="M35356 12661
L38079 12661
" />
<path d="M31505 12645
L34222 12645
" />
<path d="M35356 12645
L38072 12645
" />
<path d="M31512 12629
L34222 12629
" />
<path d="M35356 12629
L38066 12629
" />
<path d="M31519 12613
L34222 12613
" />
<path d="M35356 12613
L38059 12613
" />
<path d="M31526 12598
L34222 12598
" />
<path d="M35356 12598
L38051 12598
" />
<path d="M31533 12582
L34222 12582
" />
<path d="M35356 12582
L38044 12582
" />
<path d="M31540 12566
L34222 12566
" />
<path d="M35356 12566
L38037 12566
" />
<path d="M31548 12550
L34222 12550
" />
<path d="M35356 12550
L38030 12550
" />
<path d="M31555 12535
L34222 12535
" />
<path d="M35356 12535
L38023 12535
" />
<path d="M31562 12519
L34222 12519
" />
<path d="M35356 12519
L38015 12519
" />
<path d="M31570 12503
L34222 12503
" />
<path d="M35356 12503
L38008 12503
" />
<path d="M31578 12487
L34222 12487
" />
<path d="M35356 12487
L38000 12487
" />
<path d="M31585 12472
L34222 12472
" />
<path d="M35356 12472
L37992 12472
" />
<path d="M31593 12456
L34222 12456
" />
<path d="M35356 12456
L37985 12456
" />
<path d="M31601 12440
L34222 12440
" />
<path d="M35356 12440
L37977 12440
" />
<path d="M31609 12424
L34222 12424
" />
<path d="M35356 12424
L37968 12424
" />
<path d="M31617 12409
L34222 12409
" />
<path d="M35356 12409
L37961 12409
" />
<path d="M31625 12393
L34222 12393
" />
<path d="M35356 12393
L37952 12393
" />
<path d="M31634 12377
L34222 12377
" />
<path d="M35356 12377
L37944 12377
" />
<path d="M31642 12361
L34222 12361
" />
<path d="M35356 12361
L37935 12361
" />
<path d="M31651 12346
L34222 12346
" />
<path d="M35356 12346
L37927 12346
" />
<path d="M31659 12330
L34222 12330
" />
<path d="M35356 12330
L37918 12330
" />
<path d="M31668 12314
L34222 12314
" />
<path d="M35356 12314
L37910 12314
" />
<path d="M31677 12298
L34222 12298
" />
<path d="M35356 12298
L37901 12298
" />
<path d="M31686 12283
L34222 12283
" />
<path d="M35356 12283
L37892 12283
" />
<path d="M31695 12267
L34222 12267
" />
<path d="M35356 12267
L37883 12267
" />
<path d="M31704 12251
L34222 12251
" />
<path d="M35356 12251
L37874 12251
" />
<path d="M31713 12235
L34222 12235
" />
<path d="M35356 12235
L37864 12235
" />
<path d="M31723 12220
L34222 12220
" />
<path d="M35356 12220
L37855 12220
" />
<path d="M31732 12204
L34222 12204
" />
<path d="M35356 12204
L37846 12204
" />
<path d="M31742 12188
L34222 12188
" />
<path d="M35356 12188
L37836 12188
" />
<path d="M31751 12172
L34222 12172
" />
<path d="M35356 12172
L37826 12172
" />
<path d="M31761 12157
L34222 12157
" />
<path d="M35356 12157
L37816 12157
" />
<path d="M31771 12141
L34222 12141
" />
<path d="M35356 12141
L37807 12141
" />
<path d="M31781 12125
L34222 12125
" />
<path d="M35356 12125
L37797 12125
" />
<path d="M31791 12109
L34222 12109
" />
<path d="M35356 12109
L37787 12109
" />
<path d="M31801 12094
L34222 12094
" />
<path d="M35356 12094
L37776 12094
" />
<path d="M31812 12078
L34222 12078
" />
<path d="M35356 12078
L37766 12078
" />
<path d="M31822 12062
L34222 12062
" />
<path d="M35356 12062
L37755 12062
" />
<path d="M31833 12046
L34222 12046
" />
<path d="M35356 12046
L37745 12046
" />
<path d="M31844 12031
L34222 12031
" />
<path d="M35356 12031
L37734 12031
" />
<path d="M31855 12015
L37723 12015
" />
<path d="M31866 11999
L37712 11999
" />
<path d="M31877 11983
L37701 11983
" />
<path d="M31888 11968
L37690 11968
" />
<path d="M31900 11952
L37678 11952
" />
<path d="M31911 11936
L37667 11936
" />
<path d="M31923 11920
L37655 11920
" />
<path d="M31935 11905
L37643 11905
" />
<path d="M31946 11889
L37631 11889
" />
<path d="M31958 11873
L37620 11873
" />
<path d="M31970 11857
L37607 11857
" />
<path d="M31983 11842
L37595 11842
" />
<path d="M31995 11826
L37583 11826
" />
<path d="M32008 11810
L37570 11810
" />
<path d="M32021 11794
L37557 11794
" />
<path d="M32033 11779
L37544 11779
" />
<path d="M32047 11763
L37531 11763
" />
<path d="M32060 11747
L37518 11747
" />
<path d="M32073 11731
L37505 11731
" />
<path d="M32087 11716
L37491 11716
" />
<path d="M32100 11700
L37477 11700
" />
<path d="M32114 11684
L37464 11684
" />
<path d="M32128 11668
L37450 11668
" />
<path d="M32142 11653
L37435 11653
" />
<path d="M32157 11637
L37421 11637
" />
<path d="M32171 11621
L37407 11621
" />
<path d="M32186 11605
L37392 11605
" />
<path d="M32201 11590
L37377 11590
" />
<path d="M32216 11574
L37362 11574
" />
<path d="M32231 11558
L37347 11558
" />
<path d="M32246 11542
L37331 11542
" />
<path d="M32262 11527
L37316 11527
" />
<path d="M32278 11511
L37300 11511
" />
<path d="M32294 11495
L37284 11495
" />
<path d="M32310 11479
L37268 11479
" />
<path d="M32327 11464
L37251 11464
" />
<path d="M32343 11448
L37235 11448
" />
<path d="M32360 11432
L37218 11432
" />
<path d="M32377 11416
L37201 11416
" />
<path d="M32394 11401
L37183 11401
" />
<path d="M32412 11385
L37166 11385
" />
<path d="M32429 11369
L37148 11369
" />
<path d="M32448 11353
L37130 11353
" />
<path d="M32466 11338
L37112 11338
" />
<path d="M32484 11322
L37094 11322
" />
<path d="M32503 11306
L37075 11306
" />
<path d="M32522 11290
L37056 11290
" />
<path d="M32541 11275
L37037 11275
" />
<path d="M32561 11259
L37017 11259
" />
<path d="M32581 11243
L36997 11243
" />
<path d="M32601 11227
L36977 11227
" />
<path d="M32621 11212
L36957 11212
" />
<path d="M32642 11196
L36936 11196
" />
<path d="M32663 11180
L36915 11180
" />
<path d="M32684 11164
L36894 11164
" />
<path d="M32706 11149
L36872 11149
" />
<path d="M32728 11133
L36850 11133
" />
<path d="M32750 11117
L36827 11117
" />
<path d="M32773 11101
L36805 11101
" />
<path d="M32796 11086
L36782 11086
" />
<path d="M32820 11070
L36758 11070
" />
<path d="M32844 11054
L36734 11054
" />
<path d="M32868 11038
L36710 11038
" />
<path d="M32893 11023
L36685 11023
" />
<path d="M32918 11007
L36660 11007
" />
<path d="M32944 10991
L36634 10991
" />
<path d="M32970 10975
L36608 10975
" />
<path d="M32997 10960
L36581 10960
" />
<path d="M33024 10944
L36553 10944
" />
<path d="M33052 10928
L36526 10928
" />
<path d="M33081 10912
L36497 10912
" />
<path d="M33110 10897
L36468 10897
" />
<path d="M33139 10881
L36438 10881
" />
<path d="M33170 10865
L36408 10865
" />
<path d="M33201 10850
L36377 10850
" />
<path d="M33233 10834
L36345 10834
" />
<path d="M33266 10818
L36312 10818
" />
<path d="M33299 10803
L36279 10803
" />
<path d="M33334 10787
L36244 10787
" />
<path d="M33370 10771
L36208 10771
" />
<path d="M33406 10755
L36172 10755
" />
<path d="M33444 10740
L36134 10740
" />
<path d="M33483 10724
L36095 10724
" />
<path d="M33524 10708
L36054 10708
" />
<path d="M33566 10692
L36012 10692
" />
<path d="M33609 10677
L35968 10677
" />
<path d="M33655 10661
L35923 10661
" />
<path d="M33703 10645
L35875 10645
" />
<path d="M33753 10629
L35825 10629
" />
<path d="M33805 10614
L35772 10614
" />
<path d="M33862 10598
L35716 10598
" />
<path d="M33922 10582
L35656 10582
" />
<path d="M33986 10566
L35592 10566
" />
<path d="M34057 10551
L35521 10551
" />
<path d="M34135 10535
L35443 10535
" />
<path d="M34224 10519
L35354 10519
" />
<path d="M34330 10503
L35248 10503
" />
<path d="M34468 10488
L35109 10488
" />
<path d="M34773 10472
L34805 10472
" />
<path d="M32775 17905
L32775 17196
" />
<path d="M32421 17550
L33129 17550
" />
<path d="M29342 11859
L29136 11859
" />
<path d="M29342 12418
L29136 12418
" />
<path d="M9942 12418
L9736 12418
" />
<path d="M9942 11859
L9736 11859
" />
<path d="M27040 12418
L27245 12418
" />
<path d="M27040 11859
L27245 11859
" />
<path d="M14636 11859
L14842 11859
" />
<path d="M14636 12418
L14842 12418
" />
<circle cx="24339.4" cy="15147.2" r="1287.4" /> 
<path d="M23067 15147
L25611 15147
" />
<path d="M23067 15131
L25611 15131
" />
<path d="M23067 15115
L25611 15115
" />
<path d="M23068 15100
L25610 15100
" />
<path d="M23068 15084
L25609 15084
" />
<path d="M23070 15068
L25608 15068
" />
<path d="M23070 15052
L23929 15052
" />
<path d="M24748 15052
L25607 15052
" />
<path d="M23072 15037
L23929 15037
" />
<path d="M24748 15037
L25606 15037
" />
<path d="M23073 15021
L23929 15021
" />
<path d="M24748 15021
L25605 15021
" />
<path d="M23075 15005
L23929 15005
" />
<path d="M24748 15005
L25603 15005
" />
<path d="M23077 14989
L23929 14989
" />
<path d="M24748 14989
L25601 14989
" />
<path d="M23079 14974
L23929 14974
" />
<path d="M24748 14974
L25599 14974
" />
<path d="M23081 14958
L23929 14958
" />
<path d="M24748 14958
L25597 14958
" />
<path d="M23083 14942
L23929 14942
" />
<path d="M24748 14942
L25594 14942
" />
<path d="M23086 14926
L23929 14926
" />
<path d="M24748 14926
L25592 14926
" />
<path d="M23089 14911
L23929 14911
" />
<path d="M24748 14911
L25589 14911
" />
<path d="M23092 14895
L23929 14895
" />
<path d="M24748 14895
L25586 14895
" />
<path d="M23095 14879
L23929 14879
" />
<path d="M24748 14879
L25583 14879
" />
<path d="M23099 14863
L23929 14863
" />
<path d="M24748 14863
L25579 14863
" />
<path d="M23102 14847
L23929 14847
" />
<path d="M24748 14847
L25575 14847
" />
<path d="M23106 14831
L23929 14831
" />
<path d="M24748 14831
L25572 14831
" />
<path d="M23110 14816
L23929 14816
" />
<path d="M24748 14816
L25568 14816
" />
<path d="M23114 14800
L23929 14800
" />
<path d="M24748 14800
L25563 14800
" />
<path d="M23119 14784
L23929 14784
" />
<path d="M24748 14784
L25559 14784
" />
<path d="M23124 14768
L23929 14768
" />
<path d="M24748 14768
L25554 14768
" />
<path d="M23129 14753
L23929 14753
" />
<path d="M24748 14753
L25549 14753
" />
<path d="M23134 14737
L23929 14737
" />
<path d="M24748 14737
L25544 14737
" />
<path d="M23139 14721
L23929 14721
" />
<path d="M24748 14721
L25538 14721
" />
<path d="M23145 14705
L23929 14705
" />
<path d="M24748 14705
L25533 14705
" />
<path d="M23151 14690
L23929 14690
" />
<path d="M24748 14690
L25527 14690
" />
<path d="M23157 14674
L23929 14674
" />
<path d="M24748 14674
L25521 14674
" />
<path d="M23163 14658
L23929 14658
" />
<path d="M24748 14658
L25514 14658
" />
<path d="M23170 14642
L23929 14642
" />
<path d="M24748 14642
L25508 14642
" />
<path d="M23177 14627
L23929 14627
" />
<path d="M24748 14627
L25501 14627
" />
<path d="M23184 14611
L23929 14611
" />
<path d="M24748 14611
L25494 14611
" />
<path d="M23191 14595
L23929 14595
" />
<path d="M24748 14595
L25487 14595
" />
<path d="M23199 14579
L23929 14579
" />
<path d="M24748 14579
L25479 14579
" />
<path d="M23207 14564
L23929 14564
" />
<path d="M24748 14564
L25471 14564
" />
<path d="M23214 14548
L23929 14548
" />
<path d="M24748 14548
L25463 14548
" />
<path d="M23223 14532
L23929 14532
" />
<path d="M24748 14532
L25455 14532
" />
<path d="M23232 14516
L23929 14516
" />
<path d="M24748 14516
L25446 14516
" />
<path d="M23240 14501
L23929 14501
" />
<path d="M24748 14501
L25437 14501
" />
<path d="M23250 14485
L23929 14485
" />
<path d="M24748 14485
L25428 14485
" />
<path d="M23259 14469
L23929 14469
" />
<path d="M24748 14469
L25418 14469
" />
<path d="M23270 14453
L23929 14453
" />
<path d="M24748 14453
L25408 14453
" />
<path d="M23280 14438
L23929 14438
" />
<path d="M24748 14438
L25398 14438
" />
<path d="M23290 14422
L23929 14422
" />
<path d="M24748 14422
L25388 14422
" />
<path d="M23301 14406
L23929 14406
" />
<path d="M24748 14406
L25377 14406
" />
<path d="M23312 14390
L23929 14390
" />
<path d="M24748 14390
L25365 14390
" />
<path d="M23324 14375
L23929 14375
" />
<path d="M24748 14375
L25354 14375
" />
<path d="M23336 14359
L23929 14359
" />
<path d="M24748 14359
L25342 14359
" />
<path d="M23348 14343
L23929 14343
" />
<path d="M24748 14343
L25329 14343
" />
<path d="M23361 14327
L23929 14327
" />
<path d="M24748 14327
L25317 14327
" />
<path d="M23374 14312
L23929 14312
" />
<path d="M24748 14312
L25303 14312
" />
<path d="M23388 14296
L23929 14296
" />
<path d="M24748 14296
L25290 14296
" />
<path d="M23402 14280
L23929 14280
" />
<path d="M24748 14280
L25276 14280
" />
<path d="M23416 14264
L23929 14264
" />
<path d="M24748 14264
L25261 14264
" />
<path d="M23431 14249
L23929 14249
" />
<path d="M24748 14249
L25246 14249
" />
<path d="M23447 14233
L25231 14233
" />
<path d="M23463 14217
L25214 14217
" />
<path d="M23480 14201
L25198 14201
" />
<path d="M23498 14186
L25180 14186
" />
<path d="M23515 14170
L25162 14170
" />
<path d="M23534 14154
L25144 14154
" />
<path d="M23553 14138
L25124 14138
" />
<path d="M23574 14123
L25104 14123
" />
<path d="M23595 14107
L25083 14107
" />
<path d="M23617 14091
L25061 14091
" />
<path d="M23640 14075
L25038 14075
" />
<path d="M23664 14060
L25014 14060
" />
<path d="M23689 14044
L24988 14044
" />
<path d="M23716 14028
L24961 14028
" />
<path d="M23745 14012
L24933 14012
" />
<path d="M23775 13997
L24903 13997
" />
<path d="M23807 13981
L24870 13981
" />
<path d="M23842 13965
L24836 13965
" />
<path d="M23880 13950
L24798 13950
" />
<path d="M23922 13934
L24756 13934
" />
<path d="M23969 13918
L24709 13918
" />
<path d="M24023 13902
L24655 13902
" />
<path d="M24090 13887
L24588 13887
" />
<path d="M24181 13871
L24497 13871
" />
<path d="M23615 16525
L23615 16277
" />
<path d="M23491 16401
L23739 16401
" />
<path d="M16001 15987
L16001 15739
" />
<path d="M16125 15863
L15877 15863
" />
<path d="M13471 15297
L13471 14981
" />
<path d="M13487 15388
L13487 14890
" />
<path d="M13502 15455
L13502 14823
" />
<path d="M13518 15509
L13518 14769
" />
<path d="M13534 15556
L13534 14722
" />
<path d="M13550 15598
L13550 14680
" />
<path d="M13565 15636
L13565 14642
" />
<path d="M13581 15670
L13581 14607
" />
<path d="M13597 15703
L13597 14575
" />
<path d="M13612 15733
L13612 14545
" />
<path d="M13628 15761
L13628 14516
" />
<path d="M13644 15788
L13644 14489
" />
<path d="M13660 15814
L13660 14464
" />
<path d="M13675 15838
L13675 14440
" />
<path d="M13691 15861
L13691 14417
" />
<path d="M13707 15883
L13707 14395
" />
<path d="M13723 15904
L13723 14374
" />
<path d="M13738 15924
L13738 14353
" />
<path d="M13754 15944
L13754 14334
" />
<path d="M13770 15962
L13770 14315
" />
<path d="M13786 15980
L13786 14298
" />
<path d="M13801 15998
L13801 14280
" />
<path d="M13817 16014
L13817 14263
" />
<path d="M13833 16031
L13833 14247
" />
<path d="M13849 14729
L13849 14231
" />
<path d="M13849 16046
L13849 15548
" />
<path d="M13864 14729
L13864 14216
" />
<path d="M13864 16061
L13864 15548
" />
<path d="M13880 14729
L13880 14202
" />
<path d="M13880 16076
L13880 15548
" />
<path d="M13896 14729
L13896 14188
" />
<path d="M13896 16090
L13896 15548
" />
<path d="M13912 14729
L13912 14174
" />
<path d="M13912 16103
L13912 15548
" />
<path d="M13927 14729
L13927 14161
" />
<path d="M13927 16117
L13927 15548
" />
<path d="M13943 14729
L13943 14148
" />
<path d="M13943 16129
L13943 15548
" />
<path d="M13959 14729
L13959 14136
" />
<path d="M13959 16142
L13959 15548
" />
<path d="M13975 14729
L13975 14124
" />
<path d="M13975 16154
L13975 15548
" />
<path d="M13990 14729
L13990 14112
" />
<path d="M13990 16165
L13990 15548
" />
<path d="M14006 14729
L14006 14101
" />
<path d="M14006 16177
L14006 15548
" />
<path d="M14022 14729
L14022 14090
" />
<path d="M14022 16188
L14022 15548
" />
<path d="M14038 14729
L14038 14080
" />
<path d="M14038 16198
L14038 15548
" />
<path d="M14053 14729
L14053 14070
" />
<path d="M14053 16208
L14053 15548
" />
<path d="M14069 14729
L14069 14059
" />
<path d="M14069 16218
L14069 15548
" />
<path d="M14085 14729
L14085 14050
" />
<path d="M14085 16228
L14085 15548
" />
<path d="M14101 14729
L14101 14040
" />
<path d="M14101 16237
L14101 15548
" />
<path d="M14116 14729
L14116 14032
" />
<path d="M14116 16246
L14116 15548
" />
<path d="M14132 14729
L14132 14023
" />
<path d="M14132 16255
L14132 15548
" />
<path d="M14148 14729
L14148 14014
" />
<path d="M14148 16263
L14148 15548
" />
<path d="M14164 14729
L14164 14007
" />
<path d="M14164 16271
L14164 15548
" />
<path d="M14179 14729
L14179 13999
" />
<path d="M14179 16279
L14179 15548
" />
<path d="M14195 14729
L14195 13991
" />
<path d="M14195 16287
L14195 15548
" />
<path d="M14211 14729
L14211 13984
" />
<path d="M14211 16294
L14211 15548
" />
<path d="M14227 14729
L14227 13977
" />
<path d="M14227 16301
L14227 15548
" />
<path d="M14242 14729
L14242 13970
" />
<path d="M14242 16308
L14242 15548
" />
<path d="M14258 14729
L14258 13963
" />
<path d="M14258 16314
L14258 15548
" />
<path d="M14274 14729
L14274 13957
" />
<path d="M14274 16321
L14274 15548
" />
<path d="M14290 14729
L14290 13951
" />
<path d="M14290 16327
L14290 15548
" />
<path d="M14305 14729
L14305 13945
" />
<path d="M14305 16333
L14305 15548
" />
<path d="M14321 14729
L14321 13939
" />
<path d="M14321 16338
L14321 15548
" />
<path d="M14337 14729
L14337 13934
" />
<path d="M14337 16344
L14337 15548
" />
<path d="M14353 14729
L14353 13929
" />
<path d="M14353 16349
L14353 15548
" />
<path d="M14368 14729
L14368 13924
" />
<path d="M14368 16354
L14368 15548
" />
<path d="M14384 14729
L14384 13919
" />
<path d="M14384 16359
L14384 15548
" />
<path d="M14400 14729
L14400 13914
" />
<path d="M14400 16363
L14400 15548
" />
<path d="M14416 14729
L14416 13910
" />
<path d="M14416 16368
L14416 15548
" />
<path d="M14431 14729
L14431 13906
" />
<path d="M14431 16372
L14431 15548
" />
<path d="M14447 14729
L14447 13902
" />
<path d="M14447 16375
L14447 15548
" />
<path d="M14463 14729
L14463 13899
" />
<path d="M14463 16379
L14463 15548
" />
<path d="M14479 14729
L14479 13895
" />
<path d="M14479 16383
L14479 15548
" />
<path d="M14495 14729
L14495 13892
" />
<path d="M14495 16386
L14495 15548
" />
<path d="M14511 14729
L14511 13889
" />
<path d="M14511 16389
L14511 15548
" />
<path d="M14526 14729
L14526 13886
" />
<path d="M14526 16392
L14526 15548
" />
<path d="M14542 14729
L14542 13883
" />
<path d="M14542 16394
L14542 15548
" />
<path d="M14558 14729
L14558 13881
" />
<path d="M14558 16397
L14558 15548
" />
<path d="M14574 14729
L14574 13879
" />
<path d="M14574 16399
L14574 15548
" />
<path d="M14589 14729
L14589 13877
" />
<path d="M14589 16401
L14589 15548
" />
<path d="M14605 14729
L14605 13875
" />
<path d="M14605 16403
L14605 15548
" />
<path d="M14621 14729
L14621 13873
" />
<path d="M14621 16405
L14621 15548
" />
<path d="M14637 14729
L14637 13872
" />
<path d="M14637 16406
L14637 15548
" />
<path d="M14652 14729
L14652 13870
" />
<path d="M14652 16407
L14652 15548
" />
<path d="M14668 16408
L14668 13870
" />
<path d="M14684 16409
L14684 13868
" />
<path d="M14700 16410
L14700 13868
" />
<path d="M14715 16411
L14715 13867
" />
<path d="M14731 16411
L14731 13867
" />
<path d="M14747 16411
L14747 13867
" />
<circle cx="14747.2" cy="15139.4" r="1287.4" /> 
<path d="M25521 19438
L25521 18139
" />
<path d="M25521 18139
L22805 18139
" />
<path d="M25521 19438
L22805 19438
" />
<path d="M16571 19438
L13855 19438
" />
<path d="M16571 18139
L13855 18139
" />
<path d="M16571 19438
L16571 18139
" />
<path d="M30471 10688
L27755 10688
" />
<path d="M30471 9389
L27755 9389
" />
<path d="M30471 10688
L30471 9389
" />
<path d="M12971 10788
L12971 9489
" />
<path d="M12971 9489
L10255 9489
" />
<path d="M12971 10788
L10255 10788
" />
<path d="M26807 14589
L29523 14589
" />
<path d="M26807 15888
L29523 15888
" />
<path d="M26807 14589
L26807 15888
" />
<path d="M8607 14589
L8607 15888
" />
<path d="M8607 15888
L11323 15888
" />
<path d="M8607 14589
L11323 14589
" />
<path d="M30507 16792
L28909 16792
" />
<path d="M30507 17686
L30507 16792
" />
<path d="M28909 17686
L30507 17686
" />
<path d="M8909 17686
L10507 17686
" />
<path d="M10507 17686
L10507 16792
" />
<path d="M10507 16792
L8909 16792
" />
<path d="M26836 17518
L27042 17518
" />
<path d="M26836 16959
L27042 16959
" />
<path d="M12142 17518
L11936 17518
" />
<path d="M12142 16959
L11936 16959
" />
<path d="M23068 6392
L23068 7186
" />
<path d="M21611 6392
L21611 7186
" />
<path d="M23773 7478
L24406 7478
" />
<path d="M22773 7478
L22905 7478
" />
<path d="M21773 7478
L21905 7478
" />
<path d="M20272 7478
L20905 7478
" />
<path d="M24406 6392
L24406 8337
" />
<path d="M20272 6392
L20272 8337
" />
<path d="M20272 8337
L24406 8337
" />
<path d="M20272 6392
L24406 6392
" />
<path d="M14572 6392
L18706 6392
" />
<path d="M14572 8337
L18706 8337
" />
<path d="M14572 6392
L14572 8337
" />
<path d="M18706 6392
L18706 8337
" />
<path d="M14572 7478
L15205 7478
" />
<path d="M16073 7478
L16205 7478
" />
<path d="M17073 7478
L17205 7478
" />
<path d="M18073 7478
L18706 7478
" />
<path d="M15911 6392
L15911 7186
" />
<path d="M17368 6392
L17368 7186
" />
</g>
<g style="fill:#008484; fill-opacity:0.0; 
stroke:#008484; stroke-width:49.2126; stroke-opacity:1; 
stroke-linecap:round; stroke-linejoin:round;">
<path d="M1006 2109
L997 2119
L969 2128
L950 2128
L922 2119
L903 2100
L894 2081
L884 2044
L884 2015
L894 1978
L903 1959
L922 1940
L950 1931
L969 1931
L997 1940
L1006 1950
" />
<path d="M1175 1997
L1175 2128
" />
<path d="M1128 1922
L1081 2062
L1203 2062
" />
<path d="M19295 1978
L19295 1781
" />
<path d="M19295 1875
L19408 1875
" />
<path d="M19408 1978
L19408 1781
" />
<path d="M19492 1969
L19520 1978
L19567 1978
L19586 1969
L19595 1960
L19604 1941
L19604 1922
L19595 1903
L19586 1894
L19567 1885
L19529 1875
L19511 1866
L19501 1856
L19492 1838
L19492 1819
L19501 1800
L19511 1791
L19529 1781
L19576 1781
L19604 1791
" />
<path d="M19792 1978
L19679 1978
" />
<path d="M19736 1978
L19736 1781
L19717 1810
L19698 1828
L19679 1838
" />
<path d="M25130 3178
L25130 2981
L25195 3122
L25261 2981
L25261 3178
" />
<path d="M25336 2981
L25458 2981
L25392 3056
L25420 3056
L25439 3065
L25448 3075
L25458 3094
L25458 3140
L25448 3159
L25439 3169
L25420 3178
L25364 3178
L25345 3169
L25336 3159
" />
<path d="M13630 3228
L13630 3031
L13695 3172
L13761 3031
L13761 3228
" />
<path d="M13836 3031
L13958 3031
L13892 3106
L13920 3106
L13939 3115
L13948 3125
L13958 3144
L13958 3190
L13948 3209
L13939 3219
L13920 3228
L13864 3228
L13845 3219
L13836 3209
" />
<path d="M17317 16331
L17317 16472
L17308 16500
L17289 16519
L17261 16528
L17242 16528
" />
<path d="M17364 16547
L17514 16547
" />
<path d="M17598 16331
L17636 16331
L17655 16340
L17673 16359
L17683 16397
L17683 16462
L17673 16500
L17655 16519
L17636 16528
L17598 16528
L17580 16519
L17561 16500
L17551 16462
L17551 16397
L17561 16359
L17580 16340
L17598 16331
" />
<path d="M17767 16331
L17767 16490
L17776 16509
L17786 16519
L17804 16528
L17842 16528
L17861 16519
L17870 16509
L17879 16490
L17879 16331
" />
<path d="M17945 16331
L18058 16331
" />
<path d="M18001 16528
L18001 16331
" />
<path d="M18226 16528
L18114 16528
" />
<path d="M18170 16528
L18170 16331
L18151 16359
L18133 16378
L18114 16387
" />
<path d="M20817 16331
L20817 16472
L20808 16500
L20789 16519
L20761 16528
L20742 16528
" />
<path d="M20864 16547
L21014 16547
" />
<path d="M21098 16331
L21136 16331
L21155 16340
L21173 16359
L21183 16397
L21183 16462
L21173 16500
L21155 16519
L21136 16528
L21098 16528
L21080 16519
L21061 16500
L21051 16462
L21051 16397
L21061 16359
L21080 16340
L21098 16331
" />
<path d="M21267 16331
L21267 16490
L21276 16509
L21286 16519
L21304 16528
L21342 16528
L21361 16519
L21370 16509
L21379 16490
L21379 16331
" />
<path d="M21445 16331
L21558 16331
" />
<path d="M21501 16528
L21501 16331
" />
<path d="M21614 16350
L21623 16340
L21642 16331
L21689 16331
L21708 16340
L21717 16350
L21726 16369
L21726 16387
L21717 16415
L21604 16528
L21726 16528
" />
<path d="M19139 16931
L19139 17072
L19130 17100
L19111 17119
L19083 17128
L19064 17128
" />
<path d="M19186 17147
L19336 17147
" />
<path d="M19383 17128
L19383 16931
L19458 16931
L19476 16940
L19486 16950
L19495 16969
L19495 16997
L19486 17015
L19476 17025
L19458 17034
L19383 17034
" />
<path d="M19561 16931
L19608 17128
L19645 16987
L19683 17128
L19729 16931
" />
<path d="M19917 17128
L19851 17034
" />
<path d="M19804 17128
L19804 16931
L19879 16931
L19898 16940
L19908 16950
L19917 16969
L19917 16997
L19908 17015
L19898 17025
L19879 17034
L19804 17034
" />
<path d="M20104 17128
L19992 17128
" />
<path d="M20048 17128
L20048 16931
L20029 16959
L20011 16978
L19992 16987
" />
<path d="M27456 8878
L27390 8784
" />
<path d="M27344 8878
L27344 8681
L27419 8681
L27437 8690
L27447 8700
L27456 8719
L27456 8747
L27447 8765
L27437 8775
L27419 8784
L27344 8784
" />
<path d="M27644 8878
L27531 8878
" />
<path d="M27587 8878
L27587 8681
L27569 8709
L27550 8728
L27531 8737
" />
<path d="M11606 8728
L11540 8634
" />
<path d="M11494 8728
L11494 8531
L11569 8531
L11587 8540
L11597 8550
L11606 8569
L11606 8597
L11597 8615
L11587 8625
L11569 8634
L11494 8634
" />
<path d="M11681 8550
L11690 8540
L11709 8531
L11756 8531
L11775 8540
L11784 8550
L11794 8569
L11794 8587
L11784 8615
L11672 8728
L11794 8728
" />
<path d="M37756 2609
L37747 2619
L37719 2628
L37700 2628
L37672 2619
L37653 2600
L37644 2581
L37634 2544
L37634 2515
L37644 2478
L37653 2459
L37672 2440
L37700 2431
L37719 2431
L37747 2440
L37756 2450
" />
<path d="M37944 2628
L37831 2628
" />
<path d="M37887 2628
L37887 2431
L37869 2459
L37850 2478
L37831 2487
" />
<path d="M1006 10609
L997 10619
L969 10628
L950 10628
L922 10619
L903 10600
L894 10581
L884 10544
L884 10515
L894 10478
L903 10459
L922 10440
L950 10431
L969 10431
L997 10440
L1006 10450
" />
<path d="M1081 10450
L1090 10440
L1109 10431
L1156 10431
L1175 10440
L1184 10450
L1194 10469
L1194 10487
L1184 10515
L1072 10628
L1194 10628
" />
<path d="M37756 11109
L37747 11119
L37719 11128
L37700 11128
L37672 11119
L37653 11100
L37644 11081
L37634 11044
L37634 11015
L37644 10978
L37653 10959
L37672 10940
L37700 10931
L37719 10931
L37747 10940
L37756 10950
" />
<path d="M37822 10931
L37944 10931
L37878 11006
L37906 11006
L37925 11015
L37934 11025
L37944 11044
L37944 11090
L37934 11109
L37925 11119
L37906 11128
L37850 11128
L37831 11119
L37822 11109
" />
<path d="M29206 12859
L29197 12868
L29169 12878
L29150 12878
L29122 12868
L29103 12849
L29094 12831
L29084 12793
L29084 12765
L29094 12728
L29103 12709
L29122 12690
L29150 12681
L29169 12681
L29197 12690
L29206 12699
" />
<path d="M29384 12681
L29290 12681
L29281 12774
L29290 12765
L29309 12756
L29356 12756
L29375 12765
L29384 12774
L29394 12793
L29394 12840
L29384 12859
L29375 12868
L29356 12878
L29309 12878
L29290 12868
L29281 12859
" />
<path d="M9806 12859
L9797 12868
L9769 12878
L9750 12878
L9722 12868
L9703 12849
L9694 12831
L9684 12793
L9684 12765
L9694 12728
L9703 12709
L9722 12690
L9750 12681
L9769 12681
L9797 12690
L9806 12699
" />
<path d="M9975 12681
L9937 12681
L9919 12690
L9909 12699
L9890 12728
L9881 12765
L9881 12840
L9890 12859
L9900 12868
L9919 12878
L9956 12878
L9975 12868
L9984 12859
L9994 12840
L9994 12793
L9984 12774
L9975 12765
L9956 12756
L9919 12756
L9900 12765
L9890 12774
L9881 12793
" />
<path d="M27110 12859
L27100 12869
L27072 12878
L27053 12878
L27025 12869
L27006 12850
L26997 12831
L26988 12794
L26988 12765
L26997 12728
L27006 12709
L27025 12690
L27053 12681
L27072 12681
L27100 12690
L27110 12700
" />
<path d="M27175 12681
L27306 12681
L27222 12878
" />
<path d="M14706 12859
L14697 12869
L14669 12878
L14650 12878
L14622 12869
L14603 12850
L14594 12831
L14584 12794
L14584 12765
L14594 12728
L14603 12709
L14622 12690
L14650 12681
L14669 12681
L14697 12690
L14706 12700
" />
<path d="M14819 12765
L14800 12756
L14790 12747
L14781 12728
L14781 12719
L14790 12700
L14800 12690
L14819 12681
L14856 12681
L14875 12690
L14884 12700
L14894 12719
L14894 12728
L14884 12747
L14875 12756
L14856 12765
L14819 12765
L14800 12775
L14790 12784
L14781 12803
L14781 12840
L14790 12859
L14800 12869
L14819 12878
L14856 12878
L14875 12869
L14884 12859
L14894 12840
L14894 12803
L14884 12784
L14875 12775
L14856 12765
" />
<path d="M24256 16859
L24247 16869
L24219 16878
L24200 16878
L24172 16869
L24153 16850
L24144 16831
L24134 16794
L24134 16765
L24144 16728
L24153 16709
L24172 16690
L24200 16681
L24219 16681
L24247 16690
L24256 16700
" />
<path d="M24350 16878
L24387 16878
L24406 16869
L24415 16859
L24434 16831
L24444 16794
L24444 16719
L24434 16700
L24425 16690
L24406 16681
L24369 16681
L24350 16690
L24340 16700
L24331 16719
L24331 16765
L24340 16784
L24350 16794
L24369 16803
L24406 16803
L24425 16794
L24434 16784
L24444 16765
" />
<path d="M14662 16859
L14653 16869
L14625 16878
L14606 16878
L14578 16869
L14559 16850
L14550 16831
L14540 16794
L14540 16765
L14550 16728
L14559 16709
L14578 16690
L14606 16681
L14625 16681
L14653 16690
L14662 16700
" />
<path d="M14850 16878
L14737 16878
" />
<path d="M14794 16878
L14794 16681
L14775 16709
L14756 16728
L14737 16737
" />
<path d="M14972 16681
L14990 16681
L15009 16690
L15019 16700
L15028 16719
L15037 16756
L15037 16803
L15028 16840
L15019 16859
L15009 16869
L14990 16878
L14972 16878
L14953 16869
L14944 16859
L14934 16840
L14925 16803
L14925 16756
L14934 16719
L14944 16700
L14953 16690
L14972 16681
" />
<path d="M23644 19862
L23644 19665
L23690 19665
L23719 19675
L23737 19693
L23747 19712
L23756 19750
L23756 19778
L23747 19815
L23737 19834
L23719 19853
L23690 19862
L23644 19862
" />
<path d="M23944 19862
L23831 19862
" />
<path d="M23887 19862
L23887 19665
L23869 19693
L23850 19712
L23831 19722
" />
<path d="M14694 19862
L14694 19665
L14740 19665
L14769 19675
L14787 19693
L14797 19712
L14806 19750
L14806 19778
L14797 19815
L14787 19834
L14769 19853
L14740 19862
L14694 19862
" />
<path d="M14881 19684
L14890 19675
L14909 19665
L14956 19665
L14975 19675
L14984 19684
L14994 19703
L14994 19722
L14984 19750
L14872 19862
L14994 19862
" />
<path d="M30894 10128
L30894 9931
L30940 9931
L30969 9940
L30987 9959
L30997 9978
L31006 10015
L31006 10044
L30997 10081
L30987 10100
L30969 10119
L30940 10128
L30894 10128
" />
<path d="M31072 9931
L31194 9931
L31128 10006
L31156 10006
L31175 10015
L31184 10025
L31194 10044
L31194 10090
L31184 10109
L31175 10119
L31156 10128
L31100 10128
L31081 10119
L31072 10109
" />
<path d="M8894 10378
L8894 10181
L8940 10181
L8969 10190
L8987 10209
L8997 10228
L9006 10265
L9006 10294
L8997 10331
L8987 10350
L8969 10369
L8940 10378
L8894 10378
" />
<path d="M9175 10247
L9175 10378
" />
<path d="M9128 10172
L9081 10312
L9203 10312
" />
<path d="M28394 14344
L28394 14147
L28440 14147
L28469 14156
L28487 14175
L28497 14194
L28506 14231
L28506 14259
L28497 14297
L28487 14316
L28469 14334
L28440 14344
L28394 14344
" />
<path d="M28684 14147
L28590 14147
L28581 14241
L28590 14231
L28609 14222
L28656 14222
L28675 14231
L28684 14241
L28694 14259
L28694 14306
L28684 14325
L28675 14334
L28656 14344
L28609 14344
L28590 14334
L28581 14325
" />
<path d="M10194 14344
L10194 14147
L10240 14147
L10269 14156
L10287 14175
L10297 14194
L10306 14231
L10306 14259
L10297 14297
L10287 14316
L10269 14334
L10240 14344
L10194 14344
" />
<path d="M10475 14147
L10437 14147
L10419 14156
L10409 14166
L10390 14194
L10381 14231
L10381 14306
L10390 14325
L10400 14334
L10419 14344
L10456 14344
L10475 14334
L10484 14325
L10494 14306
L10494 14259
L10484 14241
L10475 14231
L10456 14222
L10419 14222
L10400 14231
L10390 14241
L10381 14259
" />
<path d="M29394 18128
L29394 17931
L29440 17931
L29469 17940
L29487 17959
L29497 17978
L29506 18015
L29506 18044
L29497 18081
L29487 18100
L29469 18119
L29440 18128
L29394 18128
" />
<path d="M29572 17931
L29703 17931
L29619 18128
" />
<path d="M9394 18128
L9394 17931
L9440 17931
L9469 17940
L9487 17959
L9497 17978
L9506 18015
L9506 18044
L9497 18081
L9487 18100
L9469 18119
L9440 18128
L9394 18128
" />
<path d="M9619 18015
L9600 18006
L9590 17997
L9581 17978
L9581 17969
L9590 17950
L9600 17940
L9619 17931
L9656 17931
L9675 17940
L9684 17950
L9694 17969
L9694 17978
L9684 17997
L9675 18006
L9656 18015
L9619 18015
L9600 18025
L9590 18034
L9581 18053
L9581 18090
L9590 18109
L9600 18119
L9619 18128
L9656 18128
L9675 18119
L9684 18109
L9694 18090
L9694 18053
L9684 18034
L9675 18025
L9656 18015
" />
<path d="M26756 18128
L26690 18034
" />
<path d="M26644 18128
L26644 17931
L26719 17931
L26737 17940
L26747 17950
L26756 17969
L26756 17997
L26747 18015
L26737 18025
L26719 18034
L26644 18034
" />
<path d="M26822 17931
L26953 17931
L26869 18128
" />
<path d="M12006 18128
L11940 18034
" />
<path d="M11894 18128
L11894 17931
L11969 17931
L11987 17940
L11997 17950
L12006 17969
L12006 17997
L11997 18015
L11987 18025
L11969 18034
L11894 18034
" />
<path d="M12119 18015
L12100 18006
L12090 17997
L12081 17978
L12081 17969
L12090 17950
L12100 17940
L12119 17931
L12156 17931
L12175 17940
L12184 17950
L12194 17969
L12194 17978
L12184 17997
L12175 18006
L12156 18015
L12119 18015
L12100 18025
L12090 18034
L12081 18053
L12081 18090
L12090 18109
L12100 18119
L12119 18128
L12156 18128
L12175 18119
L12184 18109
L12194 18090
L12194 18053
L12184 18034
L12175 18025
L12156 18015
" />
<path d="M21739 8681
L21739 8840
L21748 8859
L21758 8869
L21776 8878
L21814 8878
L21833 8869
L21842 8859
L21851 8840
L21851 8681
" />
<path d="M22048 8878
L21936 8878
" />
<path d="M21992 8878
L21992 8681
L21973 8709
L21954 8728
L21936 8737
" />
<path d="M15889 8681
L15889 8840
L15898 8859
L15908 8869
L15926 8878
L15964 8878
L15983 8869
L15992 8859
L16001 8840
L16001 8681
" />
<path d="M16086 8700
L16095 8690
L16114 8681
L16161 8681
L16179 8690
L16189 8700
L16198 8719
L16198 8737
L16189 8765
L16076 8878
L16198 8878
" />
</g>
<g style="fill:#000000; fill-opacity:0.0; 
stroke:#000000; stroke-width:49.2126; stroke-opacity:1; 
stroke-linecap:round; stroke-linejoin:round;">
</g>
<g style="fill:#C2C200; fill-opacity:0.0; 
stroke:#C2C200; stroke-width:49.2126; stroke-opacity:1; 
stroke-linecap:round; stroke-linejoin:round;">
</g>
<g style="fill:#C2C200; fill-opacity:0.0; 
stroke:#C2C200; stroke-width:78.7402; stroke-opacity:1; 
stroke-linecap:round; stroke-linejoin:round;">
<path d="M38539 39
L38539 20539
" />
<path d="M39 20539
L39 39
" />
<path d="M38539 20539
L39 20539
" />
<path d="M39 39
L38539 39
" />
</g> 
</svg>
