M48
; DRILL file {KiCad (5.1.6-0-10_14)} date Sunday, September 27, 2020 at 10:58:59 PM
; FORMAT={-:-/ absolute / inch / decimal}
; #@! TF.CreationDate,2020-09-27T22:58:59+01:00
; #@! TF.GenerationSoftware,Kicad,Pcbnew,(5.1.6-0-10_14)
; #@! TF.FileFunction,Plated,1,2,PTH
FMAT,2
INCH
T1C0.0315
T2C0.0354
T3C0.0394
T4C0.0433
T5C0.0472
%
G90
G05
T1
X3.5Y-3.1031
X3.5Y-3.3
X6.0Y-3.77
X6.2Y-3.77
X4.0Y-3.9
X4.0984Y-3.9
X3.4Y-4.4
X3.4Y-4.6
X5.8Y-4.42
X5.8Y-4.5184
X3.5Y-2.7
X3.5Y-2.8969
T2
X3.4Y-4.1
X3.4Y-4.2
X6.1Y-4.0
X6.1Y-4.1
T3
X4.5Y-4.2
X4.5Y-4.3
X4.5Y-4.4
X4.5Y-4.5
X4.5Y-4.6
X4.6Y-4.2
X4.6Y-4.3
X4.6Y-4.4
X4.6Y-4.5
X4.6Y-4.6
X3.7Y-4.2
X3.7Y-4.3
X3.7Y-4.4
X3.7Y-4.5
X3.7Y-4.6
X3.8Y-4.2
X3.8Y-4.3
X3.8Y-4.4
X3.8Y-4.5
X3.8Y-4.6
X5.3Y-3.8
X5.3Y-3.9
X5.3Y-4.0
X5.3Y-4.1
X5.3Y-4.2
X5.4Y-3.8
X5.4Y-3.9
X5.4Y-4.0
X5.4Y-4.1
X5.4Y-4.2
X4.9Y-3.8
X4.9Y-3.9
X4.9Y-4.0
X4.9Y-4.1
X4.9Y-4.2
X5.0Y-3.8
X5.0Y-3.9
X5.0Y-4.0
X5.0Y-4.1
X5.0Y-4.2
X4.1Y-4.2
X4.1Y-4.3
X4.1Y-4.4
X4.1Y-4.5
X4.1Y-4.6
X4.2Y-4.2
X4.2Y-4.3
X4.2Y-4.4
X4.2Y-4.5
X4.2Y-4.6
X3.2Y-2.7
X3.3Y-2.7
X5.7Y-3.8
X5.7Y-3.9
X5.7Y-4.0
X5.7Y-4.1
X5.7Y-4.2
X5.8Y-3.8
X5.8Y-3.9
X5.8Y-4.0
X5.8Y-4.1
X5.8Y-4.2
T4
X5.9Y-3.0
X5.9Y-3.1
X5.9Y-3.2
X5.9Y-2.4
X5.9Y-2.5
X5.9Y-2.6
T5
X3.3Y-2.3
X3.4Y-2.3
X4.5Y-3.8
X4.5Y-3.9
X5.3Y-2.3
X5.3Y-2.5953
X3.7Y-3.9
X3.7Y-4.0
X3.9Y-3.0
X3.9Y-3.2953
X5.3Y-3.0
X5.3Y-3.2953
X4.6Y-2.3
X4.6Y-2.5953
X3.9Y-2.3
X3.9Y-2.5953
X3.2Y-3.56
X3.4Y-3.56
X4.6Y-3.0
X4.6Y-3.2953
X5.4Y-4.5
X5.5Y-4.5
X5.0Y-4.5
X5.1Y-4.5
T0
M30
