<svg version="1.1" viewBox="0.0 0.0 407.0 251.0" fill="none" stroke="none" stroke-linecap="square" stroke-miterlimit="10" width="407" height="251" xmlns:xlink="http://www.w3.org/1999/xlink" xmlns="http://www.w3.org/2000/svg"><path fill="#ffffff" d="M0 0L407.0 0L407.0 251.0L0 251.0L0 0Z" fill-rule="nonzero"/><path fill="#ffffff" d="M0 0L407.0 0L407.0 251.0L0 251.0L0 0Z" fill-rule="nonzero"/><path stroke="#cccccc" stroke-width="1.0" stroke-linecap="butt" d="M110.5 47.5L110.5 184.5" fill-rule="nonzero"/><path stroke="#cccccc" stroke-width="1.0" stroke-linecap="butt" d="M170.5 47.5L170.5 184.5" fill-rule="nonzero"/><path stroke="#cccccc" stroke-width="1.0" stroke-linecap="butt" d="M231.5 47.5L231.5 184.5" fill-rule="nonzero"/><path stroke="#cccccc" stroke-width="1.0" stroke-linecap="butt" d="M292.5 47.5L292.5 184.5" fill-rule="nonzero"/><path stroke="#cccccc" stroke-width="1.0" stroke-linecap="butt" d="M353.5 47.5L353.5 184.5" fill-rule="nonzero"/><path stroke="#e6e6e6" stroke-width="1.0" stroke-linecap="butt" d="M79.5 47.5L79.5 184.5" fill-rule="nonzero"/><path stroke="#e6e6e6" stroke-width="1.0" stroke-linecap="butt" d="M140.5 47.5L140.5 184.5" fill-rule="nonzero"/><path stroke="#e6e6e6" stroke-width="1.0" stroke-linecap="butt" d="M201.5 47.5L201.5 184.5" fill-rule="nonzero"/><path stroke="#e6e6e6" stroke-width="1.0" stroke-linecap="butt" d="M262.5 47.5L262.5 184.5" fill-rule="nonzero"/><path stroke="#e6e6e6" stroke-width="1.0" stroke-linecap="butt" d="M322.5 47.5L322.5 184.5" fill-rule="nonzero"/><path stroke="#e6e6e6" stroke-width="1.0" stroke-linecap="butt" d="M383.5 47.5L383.5 184.5" fill-rule="nonzero"/><path stroke="#333333" stroke-width="1.0" stroke-linecap="butt" d="M72.5 184.5L394.5 184.5" fill-rule="nonzero"/><path stroke="#cccccc" stroke-width="1.0" stroke-linecap="butt" d="M72.5 138.5L394.5 138.5" fill-rule="nonzero"/><path stroke="#cccccc" stroke-width="1.0" stroke-linecap="butt" d="M72.5 93.5L394.5 93.5" fill-rule="nonzero"/><path stroke="#cccccc" stroke-width="1.0" stroke-linecap="butt" d="M72.5 47.5L394.5 47.5" fill-rule="nonzero"/><path stroke="#e6e6e6" stroke-width="1.0" stroke-linecap="butt" d="M72.5 147.5L394.5 147.5" fill-rule="nonzero"/><path stroke="#e6e6e6" stroke-width="1.0" stroke-linecap="butt" d="M72.5 157.5L394.5 157.5" fill-rule="nonzero"/><path stroke="#e6e6e6" stroke-width="1.0" stroke-linecap="butt" d="M72.5 166.5L394.5 166.5" fill-rule="nonzero"/><path stroke="#e6e6e6" stroke-width="1.0" stroke-linecap="butt" d="M72.5 175.5L394.5 175.5" fill-rule="nonzero"/><path stroke="#e6e6e6" stroke-width="1.0" stroke-linecap="butt" d="M72.5 102.5L394.5 102.5" fill-rule="nonzero"/><path stroke="#e6e6e6" stroke-width="1.0" stroke-linecap="butt" d="M72.5 111.5L394.5 111.5" fill-rule="nonzero"/><path stroke="#e6e6e6" stroke-width="1.0" stroke-linecap="butt" d="M72.5 120.5L394.5 120.5" fill-rule="nonzero"/><path stroke="#e6e6e6" stroke-width="1.0" stroke-linecap="butt" d="M72.5 129.5L394.5 129.5" fill-rule="nonzero"/><path stroke="#e6e6e6" stroke-width="1.0" stroke-linecap="butt" d="M72.5 56.5L394.5 56.5" fill-rule="nonzero"/><path stroke="#e6e6e6" stroke-width="1.0" stroke-linecap="butt" d="M72.5 65.5L394.5 65.5" fill-rule="nonzero"/><path stroke="#e6e6e6" stroke-width="1.0" stroke-linecap="butt" d="M72.5 74.5L394.5 74.5" fill-rule="nonzero"/><path stroke="#e6e6e6" stroke-width="1.0" stroke-linecap="butt" d="M72.5 83.5L394.5 83.5" fill-rule="nonzero"/><clipPath id="id_0"><path d="M72.55 47.416668L394.45 47.416668L394.45 184.45L72.55 184.45L72.55 47.416668Z" clip-rule="nonzero"/></clipPath><path stroke="#4285f4" stroke-width="2.0" stroke-linecap="butt" clip-path="url(#id_0)" d="M72.55 175.31444L95.542854 166.1789L118.53571 157.04333L141.52856 147.90778L164.52142 138.77222L187.51428 129.63667L210.50714 120.501114L233.5 111.365555L256.49286 102.23L279.48572 93.094444L302.47858 83.958885L325.47144 74.82333L348.4643 65.687775L371.45715 56.552223L394.45 47.416668" fill-rule="nonzero"/><path fill="#424242" d="M204.625 231.99687L202.60938 231.99687L202.60938 235.45L201.48438 235.45L201.48438 226.91875L204.3125 226.91875Q205.75 226.91875 206.51562 227.575Q207.29688 228.23125 207.29688 229.48125Q207.29688 230.27812 206.85938 230.87187Q206.4375 231.46562 205.67188 231.7625L207.67188 235.37187L207.67188 235.45L206.46875 235.45L204.625 231.99687ZM202.60938 231.075L204.34375 231.075Q205.1875 231.075 205.67188 230.65312Q206.17188 230.21562 206.17188 229.48125Q206.17188 228.7 205.70312 228.27812Q205.23438 227.85625 204.34375 227.84062L202.60938 227.84062L202.60938 231.075ZM209.5 235.45L208.42188 235.45L208.42188 229.10625L209.5 229.10625L209.5 235.45ZM208.32812 227.43437Q208.32812 227.16875 208.48438 226.98125Q208.65625 226.79375 208.96875 226.79375Q209.28125 226.79375 209.4375 226.98125Q209.60938 227.16875 209.60938 227.43437Q209.60938 227.68437 209.4375 227.87187Q209.28125 228.04375 208.96875 228.04375Q208.65625 228.04375 208.48438 227.87187Q208.32812 227.68437 208.32812 227.43437ZM216.67188 232.35625Q216.67188 233.79375 216.01562 234.68437Q215.35938 235.575 214.21875 235.575Q213.0625 235.575 212.40625 234.84062L212.40625 237.8875L211.32812 237.8875L211.32812 229.10625L212.3125 229.10625L212.35938 229.80937Q213.03125 228.99687 214.20312 228.99687Q215.34375 228.99687 216.0 229.85625Q216.67188 230.71562 216.67188 232.24687L216.67188 232.35625ZM215.59375 232.23125Q215.59375 231.15312 215.125 230.54375Q214.67188 229.91875 213.875 229.91875Q212.89062 229.91875 212.40625 230.77812L212.40625 233.80937Q212.89062 234.68437 213.89062 234.68437Q214.67188 234.68437 215.125 234.075Q215.59375 233.45 215.59375 232.23125ZM223.67188 232.35625Q223.67188 233.79375 223.01562 234.68437Q222.35938 235.575 221.21875 235.575Q220.0625 235.575 219.40625 234.84062L219.40625 237.8875L218.32812 237.8875L218.32812 229.10625L219.3125 229.10625L219.35938 229.80937Q220.03125 228.99687 221.20312 228.99687Q222.34375 228.99687 223.0 229.85625Q223.67188 230.71562 223.67188 232.24687L223.67188 232.35625ZM222.59375 232.23125Q222.59375 231.15312 222.125 230.54375Q221.67188 229.91875 220.875 229.91875Q219.89062 229.91875 219.40625 230.77812L219.40625 233.80937Q219.89062 234.68437 220.89062 234.68437Q221.67188 234.68437 222.125 234.075Q222.59375 233.45 222.59375 232.23125ZM226.5 235.45L225.42188 235.45L225.42188 226.45L226.5 226.45L226.5 235.45ZM230.95312 235.575Q229.65625 235.575 228.84375 234.73125Q228.04688 233.87187 228.04688 232.45L228.04688 232.2625Q228.04688 231.30937 228.40625 230.575Q228.76562 229.825 229.40625 229.41875Q230.0625 228.99687 230.8125 228.99687Q232.04688 228.99687 232.73438 229.80937Q233.42188 230.62187 233.42188 232.1375L233.42188 232.59062L229.125 232.59062Q229.15625 233.52812 229.67188 234.10625Q230.20312 234.68437 231.01562 234.68437Q231.57812 234.68437 231.96875 234.45Q232.375 234.21562 232.6875 233.825L233.34375 234.34062Q232.54688 235.575 230.95312 235.575ZM230.8125 229.8875Q230.15625 229.8875 229.70312 230.37187Q229.26562 230.84062 229.17188 231.7L232.34375 231.7L232.34375 231.62187Q232.29688 230.79375 231.89062 230.34062Q231.5 229.8875 230.8125 229.8875ZM237.28125 231.98125Q237.28125 230.66875 237.625 229.45Q237.98438 228.23125 238.6875 227.23125Q239.39062 226.23125 240.15625 225.825L240.375 226.54375Q239.51562 227.2 238.96875 228.54375Q238.42188 229.8875 238.375 231.55937L238.35938 232.05937Q238.35938 234.325 239.1875 235.98125Q239.6875 236.98125 240.375 237.54375L240.15625 238.2Q239.375 237.77812 238.65625 236.74687Q237.28125 234.7625 237.28125 231.98125ZM244.3125 233.95L246.75 226.91875L247.98438 226.91875L244.8125 235.45L243.82812 235.45L240.67188 226.91875L241.89062 226.91875L244.3125 233.95ZM254.67188 232.35625Q254.67188 233.79375 254.01562 234.68437Q253.35938 235.575 252.21875 235.575Q251.0625 235.575 250.40625 234.84062L250.40625 237.8875L249.32812 237.8875L249.32812 229.10625L250.3125 229.10625L250.35938 229.80937Q251.03125 228.99687 252.20312 228.99687Q253.34375 228.99687 254.0 229.85625Q254.67188 230.71562 254.67188 232.24687L254.67188 232.35625ZM253.59375 232.23125Q253.59375 231.15312 253.125 230.54375Q252.67188 229.91875 251.875 229.91875Q250.89062 229.91875 250.40625 230.77812L250.40625 233.80937Q250.89062 234.68437 251.89062 234.68437Q252.67188 234.68437 253.125 234.075Q253.59375 233.45 253.59375 232.23125ZM261.67188 232.35625Q261.67188 233.79375 261.01562 234.68437Q260.35938 235.575 259.21875 235.575Q258.0625 235.575 257.40625 234.84062L257.40625 237.8875L256.32812 237.8875L256.32812 229.10625L257.3125 229.10625L257.35938 229.80937Q258.03125 228.99687 259.20312 228.99687Q260.34375 228.99687 261.0 229.85625Q261.67188 230.71562 261.67188 232.24687L261.67188 232.35625ZM260.59375 232.23125Q260.59375 231.15312 260.125 230.54375Q259.67188 229.91875 258.875 229.91875Q257.89062 229.91875 257.40625 230.77812L257.40625 233.80937Q257.89062 234.68437 258.89062 234.68437Q259.67188 234.68437 260.125 234.075Q260.59375 233.45 260.59375 232.23125ZM265.82812 232.04375Q265.82812 233.35625 265.48438 234.55937Q265.14062 235.74687 264.42188 236.7625Q263.71875 237.77812 262.95312 238.2L262.71875 237.54375Q263.625 236.85625 264.17188 235.40312Q264.71875 233.93437 264.73438 232.16875L264.73438 231.98125Q264.73438 230.74687 264.46875 229.68437Q264.21875 228.62187 263.75 227.79375Q263.29688 226.95 262.71875 226.48125L262.95312 225.825Q263.71875 226.24687 264.42188 227.24687Q265.125 228.24687 265.46875 229.46562Q265.82812 230.66875 265.82812 232.04375Z" fill-rule="nonzero"/><path fill="#424242" d="M20.565622 164.63646Q21.815622 164.63646 22.753122 165.05833Q23.674997 165.48021 24.174997 166.26146Q24.674997 167.02708 24.674997 168.05833Q24.674997 169.05833 24.174997 169.83958Q23.674997 170.62083 22.768747 171.05833Q21.846872 171.48021 20.628122 171.49583L20.018747 171.49583Q18.784372 171.49583 17.846872 171.07396Q16.909372 170.63646 16.409372 169.85521Q15.893747 169.07396 15.893747 168.05833Q15.893747 167.04271 16.393747 166.26146Q16.893747 165.48021 17.831247 165.05833Q18.768747 164.63646 20.018747 164.63646L20.565622 164.63646ZM20.003122 165.74583Q18.487497 165.74583 17.674997 166.35521Q16.862497 166.96458 16.862497 168.05833Q16.862497 169.13646 17.674997 169.74583Q18.487497 170.35521 19.924997 170.37083L20.565622 170.37083Q22.034372 170.37083 22.878122 169.76146Q23.706247 169.13646 23.706247 168.05833Q23.706247 166.96458 22.924997 166.37083Q22.128122 165.76146 20.643747 165.74583L20.003122 165.74583ZM23.924997 159.44896Q24.674997 160.07396 24.674997 161.30833Q24.674997 162.32396 24.081247 162.85521Q23.487497 163.38646 22.331247 163.38646L18.206247 163.38646L18.206247 162.30833L22.299997 162.30833Q23.753122 162.30833 23.753122 161.13646Q23.753122 159.88646 22.815622 159.48021L18.206247 159.48021L18.206247 158.38646L24.549997 158.38646L24.549997 159.41771L23.924997 159.44896ZM16.674997 154.88646L18.206247 154.88646L18.206247 153.71458L19.049997 153.71458L19.049997 154.88646L22.971872 154.88646Q23.362497 154.88646 23.549997 154.73021Q23.737497 154.57396 23.737497 154.19896Q23.737497 154.01146 23.674997 153.68333L24.549997 153.68333Q24.674997 154.10521 24.674997 154.51146Q24.674997 155.23021 24.237497 155.60521Q23.784372 155.98021 22.971872 155.98021L19.049997 155.98021L19.049997 157.13646L18.206247 157.13646L18.206247 155.98021L16.674997 155.98021L16.674997 154.88646ZM21.456247 147.01146Q22.893747 147.01146 23.784372 147.66771Q24.674997 148.32396 24.674997 149.46458Q24.674997 150.62083 23.940622 151.27708L26.987497 151.27708L26.987497 152.35521L18.206247 152.35521L18.206247 151.37083L18.909372 151.32396Q18.096872 150.65208 18.096872 149.48021Q18.096872 148.33958 18.956247 147.68333Q19.815622 147.01146 21.346872 147.01146L21.456247 147.01146ZM21.331247 148.08958Q20.253122 148.08958 19.643747 148.55833Q19.018747 149.01146 19.018747 149.80833Q19.018747 150.79271 19.878122 151.27708L22.909372 151.27708Q23.784372 150.79271 23.784372 149.79271Q23.784372 149.01146 23.174997 148.55833Q22.549997 148.08958 21.331247 148.08958ZM23.924997 141.44896Q24.674997 142.07396 24.674997 143.30833Q24.674997 144.32396 24.081247 144.85521Q23.487497 145.38646 22.331247 145.38646L18.206247 145.38646L18.206247 144.30833L22.299997 144.30833Q23.753122 144.30833 23.753122 143.13646Q23.753122 141.88646 22.815622 141.48021L18.206247 141.48021L18.206247 140.38646L24.549997 140.38646L24.549997 141.41771L23.924997 141.44896ZM16.674997 136.88646L18.206247 136.88646L18.206247 135.71458L19.049997 135.71458L19.049997 136.88646L22.971872 136.88646Q23.362497 136.88646 23.549997 136.73021Q23.737497 136.57396 23.737497 136.19896Q23.737497 136.01146 23.674997 135.68333L24.549997 135.68333Q24.674997 136.10521 24.674997 136.51146Q24.674997 137.23021 24.237497 137.60521Q23.784372 137.98021 22.971872 137.98021L19.049997 137.98021L19.049997 139.13646L18.206247 139.13646L18.206247 137.98021L16.674997 137.98021L16.674997 136.88646ZM21.846872 124.91771Q23.190622 125.07396 23.940622 125.91771Q24.674997 126.76146 24.674997 128.15208Q24.674997 129.66771 23.596872 130.57396Q22.503122 131.48021 20.674997 131.48021L19.862497 131.48021Q18.674997 131.48021 17.768747 131.05833Q16.862497 130.63646 16.378122 129.85521Q15.893747 129.07396 15.893747 128.05833Q15.893747 126.69896 16.659372 125.88646Q17.424997 125.058334 18.753122 124.91771L18.753122 126.04271Q17.737497 126.19896 17.284372 126.683334Q16.831247 127.16771 16.831247 128.05833Q16.831247 129.13646 17.628122 129.74583Q18.424997 130.35521 19.893747 130.35521L20.721872 130.35521Q22.112497 130.35521 22.940622 129.77708Q23.753122 129.19896 23.753122 128.15208Q23.753122 127.214584 23.331247 126.714584Q22.893747 126.214584 21.846872 126.04271L21.846872 124.91771ZM23.924997 119.44896Q24.674997 120.07396 24.674997 121.308334Q24.674997 122.32396 24.081247 122.85521Q23.487497 123.38646 22.331247 123.38646L18.206247 123.38646L18.206247 122.308334L22.299997 122.308334Q23.753122 122.308334 23.753122 121.13646Q23.753122 119.88646 22.815622 119.48021L18.206247 119.48021L18.206247 118.38646L24.549997 118.38646L24.549997 119.41771L23.924997 119.44896ZM19.174997 113.29271Q19.143747 113.54271 19.143747 113.82396Q19.143747 114.902084 20.049997 115.277084L24.549997 115.277084L24.549997 116.35521L18.206247 116.35521L18.206247 115.308334L18.940622 115.29271Q18.096872 114.76146 18.096872 113.777084Q18.096872 113.464584 18.174997 113.29271L19.174997 113.29271ZM19.174997 109.29271Q19.143747 109.54271 19.143747 109.82396Q19.143747 110.902084 20.049997 111.277084L24.549997 111.277084L24.549997 112.35521L18.206247 112.35521L18.206247 111.308334L18.940622 111.29271Q18.096872 110.76146 18.096872 109.777084Q18.096872 109.464584 18.174997 109.29271L19.174997 109.29271ZM24.674997 105.73021Q24.674997 107.027084 23.831247 107.839584Q22.971872 108.63646 21.549997 108.63646L21.362497 108.63646Q20.409372 108.63646 19.674997 108.277084Q18.924997 107.91771 18.518747 107.277084Q18.096872 106.620834 18.096872 105.870834Q18.096872 104.63646 18.909372 103.94896Q19.721872 103.26146 21.237497 103.26146L21.690622 103.26146L21.690622 107.558334Q22.628122 107.527084 23.206247 107.01146Q23.784372 106.48021 23.784372 105.66771Q23.784372 105.10521 23.549997 104.714584Q23.315622 104.308334 22.924997 103.995834L23.440622 103.339584Q24.674997 104.13646 24.674997 105.73021ZM18.987497 105.870834Q18.987497 106.527084 19.471872 106.98021Q19.940622 107.41771 20.799997 107.51146L20.799997 104.339584L20.721872 104.339584Q19.893747 104.38646 19.440622 104.79271Q18.987497 105.183334 18.987497 105.870834ZM18.206247 101.339584L19.003122 101.308334Q18.096872 100.57396 18.096872 99.402084Q18.096872 97.38646 20.362497 97.370834L24.549997 97.370834L24.549997 98.464584L20.346872 98.464584Q19.674997 98.464584 19.346872 98.777084Q19.018747 99.07396 19.018747 99.73021Q19.018747 100.26146 19.299997 100.66771Q19.581247 101.058334 20.034372 101.277084L24.549997 101.277084L24.549997 102.35521L18.206247 102.35521L18.206247 101.339584ZM16.674997 93.88646L18.206247 93.88646L18.206247 92.714584L19.049997 92.714584L19.049997 93.88646L22.971872 93.88646Q23.362497 93.88646 23.549997 93.73021Q23.737497 93.57396 23.737497 93.19896Q23.737497 93.01146 23.674997 92.683334L24.549997 92.683334Q24.674997 93.10521 24.674997 93.51146Q24.674997 94.23021 24.237497 94.60521Q23.784372 94.98021 22.971872 94.98021L19.049997 94.98021L19.049997 96.13646L18.206247 96.13646L18.206247 94.98021L16.674997 94.98021L16.674997 93.88646ZM21.081247 88.402084Q19.768747 88.402084 18.549997 88.058334Q17.331247 87.69896 16.331247 86.995834Q15.331247 86.29271 14.924997 85.527084L15.643747 85.308334Q16.299997 86.16771 17.643747 86.714584Q18.987497 87.26146 20.659372 87.308334L21.159372 87.32396Q23.424997 87.32396 25.081247 86.495834Q26.081247 85.995834 26.643747 85.308334L27.299997 85.527084Q26.878122 86.308334 25.846872 87.027084Q23.862497 88.402084 21.081247 88.402084ZM22.315622 79.48021L22.315622 83.058334L24.549997 83.85521L24.549997 85.01146L16.018747 81.76146L16.018747 80.777084L24.549997 77.51146L24.549997 78.66771L22.315622 79.48021ZM21.393747 82.714584L21.393747 79.808334L17.409372 81.26146L21.393747 82.714584ZM21.143747 73.85521Q22.456247 73.85521 23.659372 74.19896Q24.846872 74.54271 25.862497 75.26146Q26.878122 75.964584 27.299997 76.73021L26.643747 76.964584Q25.956247 76.058334 24.503122 75.51146Q23.034372 74.964584 21.268747 74.94896L21.081247 74.94896Q19.846872 74.94896 18.784372 75.214584Q17.721872 75.464584 16.893747 75.933334Q16.049997 76.38646 15.581247 76.964584L14.924997 76.73021Q15.346872 75.964584 16.346872 75.26146Q17.346872 74.558334 18.565622 74.214584Q19.768747 73.85521 21.143747 73.85521Z" fill-rule="nonzero"/><path fill="#757575" d="M55.6125 185.30937Q55.6125 187.21562 54.95625 188.15312Q54.315624 189.075 52.925 189.075Q51.565624 189.075 50.909374 188.16875Q50.253124 187.2625 50.221874 185.45L50.221874 184.0125Q50.221874 182.12187 50.8625 181.21562Q51.51875 180.29375 52.909374 180.29375Q54.284374 180.29375 54.940624 181.18437Q55.596874 182.05937 55.6125 183.90312L55.6125 185.30937ZM54.51875 183.825Q54.51875 182.45 54.128124 181.825Q53.753124 181.18437 52.909374 181.18437Q52.08125 181.18437 51.690624 181.825Q51.315624 182.45 51.315624 183.74687L51.315624 185.48125Q51.315624 186.85625 51.70625 187.52812Q52.1125 188.18437 52.925 188.18437Q53.721874 188.18437 54.1125 187.55937Q54.503124 186.93437 54.51875 185.60625L54.51875 183.825ZM57.39375 188.3875Q57.39375 188.10625 57.55 187.91875Q57.721874 187.73125 58.05 187.73125Q58.39375 187.73125 58.565624 187.91875Q58.7375 188.10625 58.7375 188.3875Q58.7375 188.65312 58.565624 188.84062Q58.39375 189.0125 58.05 189.0125Q57.721874 189.0125 57.55 188.84062Q57.39375 188.65312 57.39375 188.3875ZM65.6125 185.30937Q65.6125 187.21562 64.95625 188.15312Q64.31563 189.075 62.925 189.075Q61.565624 189.075 60.909374 188.16875Q60.253124 187.2625 60.221874 185.45L60.221874 184.0125Q60.221874 182.12187 60.8625 181.21562Q61.51875 180.29375 62.909374 180.29375Q64.28438 180.29375 64.94063 181.18437Q65.59688 182.05937 65.6125 183.90312L65.6125 185.30937ZM64.51875 183.825Q64.51875 182.45 64.12813 181.825Q63.753124 181.18437 62.909374 181.18437Q62.08125 181.18437 61.690624 181.825Q61.315624 182.45 61.315624 183.74687L61.315624 185.48125Q61.315624 186.85625 61.70625 187.52812Q62.1125 188.18437 62.925 188.18437Q63.721874 188.18437 64.1125 187.55937Q64.50313 186.93437 64.51875 185.60625L64.51875 183.825Z" fill-rule="nonzero"/><path fill="#757575" d="M55.6125 139.63159Q55.6125 141.53784 54.95625 142.47534Q54.315624 143.39722 52.925 143.39722Q51.565624 143.39722 50.909374 142.49097Q50.253124 141.58472 50.221874 139.77222L50.221874 138.33472Q50.221874 136.44409 50.8625 135.53784Q51.51875 134.61597 52.909374 134.61597Q54.284374 134.61597 54.940624 135.50659Q55.596874 136.38159 55.6125 138.22534L55.6125 139.63159ZM54.51875 138.14722Q54.51875 136.77222 54.128124 136.14722Q53.753124 135.50659 52.909374 135.50659Q52.08125 135.50659 51.690624 136.14722Q51.315624 136.77222 51.315624 138.06909L51.315624 139.80347Q51.315624 141.17847 51.70625 141.85034Q52.1125 142.50659 52.925 142.50659Q53.721874 142.50659 54.1125 141.88159Q54.503124 141.25659 54.51875 139.92847L54.51875 138.14722ZM57.39375 142.70972Q57.39375 142.42847 57.55 142.24097Q57.721874 142.05347 58.05 142.05347Q58.39375 142.05347 58.565624 142.24097Q58.7375 142.42847 58.7375 142.70972Q58.7375 142.97534 58.565624 143.16284Q58.39375 143.33472 58.05 143.33472Q57.721874 143.33472 57.55 143.16284Q57.39375 142.97534 57.39375 142.70972ZM60.753124 138.99097L61.190624 134.74097L65.56563 134.74097L65.56563 135.74097L62.1125 135.74097L61.846874 138.06909Q62.4875 137.69409 63.284374 137.69409Q64.44063 137.69409 65.12813 138.47534Q65.81563 139.24097 65.81563 140.55347Q65.81563 141.86597 65.09688 142.63159Q64.39375 143.39722 63.1125 143.39722Q61.9875 143.39722 61.26875 142.77222Q60.55 142.13159 60.45625 141.02222L61.471874 141.02222Q61.58125 141.75659 62.003124 142.13159Q62.425 142.50659 63.1125 142.50659Q63.8625 142.50659 64.3 141.99097Q64.7375 141.47534 64.7375 140.56909Q64.7375 139.70972 64.26875 139.19409Q63.8 138.67847 63.01875 138.67847Q62.315624 138.67847 61.909374 138.97534L61.628124 139.20972L60.753124 138.99097Z" fill-rule="nonzero"/><path fill="#757575" d="M53.815624 97.594444L52.7375 97.594444L52.7375 90.375694L50.55 91.17257L50.55 90.188194L53.659374 89.01632L53.815624 89.01632L53.815624 97.594444ZM57.39375 97.031944Q57.39375 96.750694 57.55 96.563194Q57.721874 96.375694 58.05 96.375694Q58.39375 96.375694 58.565624 96.563194Q58.7375 96.750694 58.7375 97.031944Q58.7375 97.29757 58.565624 97.48507Q58.39375 97.656944 58.05 97.656944Q57.721874 97.656944 57.55 97.48507Q57.39375 97.29757 57.39375 97.031944ZM65.6125 93.95382Q65.6125 95.86007 64.95625 96.79757Q64.31563 97.719444 62.925 97.719444Q61.565624 97.719444 60.909374 96.813194Q60.253124 95.906944 60.221874 94.094444L60.221874 92.656944Q60.221874 90.76632 60.8625 89.86007Q61.51875 88.938194 62.909374 88.938194Q64.28438 88.938194 64.94063 89.82882Q65.59688 90.70382 65.6125 92.54757L65.6125 93.95382ZM64.51875 92.469444Q64.51875 91.094444 64.12813 90.469444Q63.753124 89.82882 62.909374 89.82882Q62.08125 89.82882 61.690624 90.469444Q61.315624 91.094444 61.315624 92.39132L61.315624 94.125694Q61.315624 95.500694 61.70625 96.17257Q62.1125 96.82882 62.925 96.82882Q63.721874 96.82882 64.1125 96.20382Q64.50313 95.57882 64.51875 94.250694L64.51875 92.469444Z" fill-rule="nonzero"/><path fill="#757575" d="M53.815624 51.916668L52.7375 51.916668L52.7375 44.697918L50.55 45.494793L50.55 44.510418L53.659374 43.338543L53.815624 43.338543L53.815624 51.916668ZM57.39375 51.354168Q57.39375 51.072918 57.55 50.885418Q57.721874 50.697918 58.05 50.697918Q58.39375 50.697918 58.565624 50.885418Q58.7375 51.072918 58.7375 51.354168Q58.7375 51.619793 58.565624 51.807293Q58.39375 51.979168 58.05 51.979168Q57.721874 51.979168 57.55 51.807293Q57.39375 51.619793 57.39375 51.354168ZM60.753124 47.635418L61.190624 43.385418L65.56563 43.385418L65.56563 44.385418L62.1125 44.385418L61.846874 46.713543Q62.4875 46.338543 63.284374 46.338543Q64.44063 46.338543 65.12813 47.119793Q65.81563 47.885418 65.81563 49.197918Q65.81563 50.510418 65.09688 51.276043Q64.39375 52.041668 63.1125 52.041668Q61.9875 52.041668 61.26875 51.416668Q60.55 50.776043 60.45625 49.666668L61.471874 49.666668Q61.58125 50.401043 62.003124 50.776043Q62.425 51.151043 63.1125 51.151043Q63.8625 51.151043 64.3 50.635418Q64.7375 50.119793 64.7375 49.213543Q64.7375 48.354168 64.26875 47.838543Q63.8 47.322918 63.01875 47.322918Q62.315624 47.322918 61.909374 47.619793L61.628124 47.854168L60.753124 47.635418Z" fill-rule="nonzero"/><path fill="#757575" d="M107.820786 198.80937Q107.820786 200.71562 107.164536 201.65312Q106.52391 202.575 105.133286 202.575Q103.77391 202.575 103.11766 201.66875Q102.46141 200.7625 102.43016 198.95L102.43016 197.5125Q102.43016 195.62187 103.070786 194.71562Q103.727036 193.79375 105.11766 193.79375Q106.49266 193.79375 107.14891 194.68437Q107.80516 195.55937 107.820786 197.40312L107.820786 198.80937ZM106.727036 197.325Q106.727036 195.95 106.33641 195.325Q105.96141 194.68437 105.11766 194.68437Q104.289536 194.68437 103.89891 195.325Q103.52391 195.95 103.52391 197.24687L103.52391 198.98125Q103.52391 200.35625 103.914536 201.02812Q104.320786 201.68437 105.133286 201.68437Q105.93016 201.68437 106.320786 201.05937Q106.71141 200.43437 106.727036 199.10625L106.727036 197.325ZM109.602036 201.8875Q109.602036 201.60625 109.758286 201.41875Q109.93016 201.23125 110.258286 201.23125Q110.602036 201.23125 110.77391 201.41875Q110.945786 201.60625 110.945786 201.8875Q110.945786 202.15312 110.77391 202.34062Q110.602036 202.5125 110.258286 202.5125Q109.93016 202.5125 109.758286 202.34062Q109.602036 202.15312 109.602036 201.8875ZM118.05516 202.45L112.46141 202.45L112.46141 201.66875L115.414536 198.3875Q116.070786 197.6375 116.320786 197.18437Q116.570786 196.71562 116.570786 196.21562Q116.570786 195.54375 116.164536 195.12187Q115.77391 194.68437 115.08641 194.68437Q114.289536 194.68437 113.83641 195.15312Q113.383286 195.60625 113.383286 196.43437L112.30516 196.43437Q112.30516 195.24687 113.05516 194.52812Q113.820786 193.79375 115.08641 193.79375Q116.289536 193.79375 116.977036 194.41875Q117.664536 195.04375 117.664536 196.09062Q117.664536 197.34062 116.05516 199.09062L113.77391 201.55937L118.05516 201.55937L118.05516 202.45Z" fill-rule="nonzero"/><path fill="#757575" d="M168.52193 198.80937Q168.52193 200.71562 167.86568 201.65312Q167.22505 202.575 165.83443 202.575Q164.47505 202.575 163.8188 201.66875Q163.16255 200.7625 163.1313 198.95L163.1313 197.5125Q163.1313 195.62187 163.77193 194.71562Q164.42818 193.79375 165.8188 193.79375Q167.1938 193.79375 167.85005 194.68437Q168.5063 195.55937 168.52193 197.40312L168.52193 198.80937ZM167.42818 197.325Q167.42818 195.95 167.03755 195.325Q166.66255 194.68437 165.8188 194.68437Q164.99068 194.68437 164.60005 195.325Q164.22505 195.95 164.22505 197.24687L164.22505 198.98125Q164.22505 200.35625 164.61568 201.02812Q165.02193 201.68437 165.83443 201.68437Q166.6313 201.68437 167.02193 201.05937Q167.41255 200.43437 167.42818 199.10625L167.42818 197.325ZM170.30318 201.8875Q170.30318 201.60625 170.45943 201.41875Q170.6313 201.23125 170.95943 201.23125Q171.30318 201.23125 171.47505 201.41875Q171.64693 201.60625 171.64693 201.8875Q171.64693 202.15312 171.47505 202.34062Q171.30318 202.5125 170.95943 202.5125Q170.6313 202.5125 170.45943 202.34062Q170.30318 202.15312 170.30318 201.8875ZM177.74068 199.59062L178.92818 199.59062L178.92818 200.46562L177.74068 200.46562L177.74068 202.45L176.66255 202.45L176.66255 200.46562L172.77193 200.46562L172.77193 199.825L176.58443 193.91875L177.74068 193.91875L177.74068 199.59062ZM174.0063 199.59062L176.66255 199.59062L176.66255 195.40312L176.52193 195.6375L174.0063 199.59062Z" fill-rule="nonzero"/><path fill="#757575" d="M229.22307 198.80937Q229.22307 200.71562 228.56682 201.65312Q227.9262 202.575 226.53557 202.575Q225.1762 202.575 224.51994 201.66875Q223.8637 200.7625 223.83244 198.95L223.83244 197.5125Q223.83244 195.62187 224.47307 194.71562Q225.12932 193.79375 226.51994 193.79375Q227.89494 193.79375 228.5512 194.68437Q229.20744 195.55937 229.22307 197.40312L229.22307 198.80937ZM228.12932 197.325Q228.12932 195.95 227.7387 195.325Q227.3637 194.68437 226.51994 194.68437Q225.69182 194.68437 225.3012 195.325Q224.9262 195.95 224.9262 197.24687L224.9262 198.98125Q224.9262 200.35625 225.31682 201.02812Q225.72307 201.68437 226.53557 201.68437Q227.33244 201.68437 227.72307 201.05937Q228.1137 200.43437 228.12932 199.10625L228.12932 197.325ZM231.00432 201.8875Q231.00432 201.60625 231.16057 201.41875Q231.33244 201.23125 231.66057 201.23125Q232.00432 201.23125 232.1762 201.41875Q232.34807 201.60625 232.34807 201.8875Q232.34807 202.15312 232.1762 202.34062Q232.00432 202.5125 231.66057 202.5125Q231.33244 202.5125 231.16057 202.34062Q231.00432 202.15312 231.00432 201.8875ZM238.12932 193.91875L238.12932 194.825L237.9262 194.825Q236.66057 194.85625 235.91057 195.59062Q235.16057 196.30937 235.03557 197.62187Q235.72307 196.85625 236.87932 196.85625Q237.9887 196.85625 238.66057 197.6375Q239.33244 198.41875 239.33244 199.66875Q239.33244 200.98125 238.6137 201.77812Q237.89494 202.575 236.6762 202.575Q235.45744 202.575 234.69182 201.6375Q233.94182 200.68437 233.94182 199.2L233.94182 198.79375Q233.94182 196.43437 234.94182 195.18437Q235.94182 193.93437 237.9262 193.91875L238.12932 193.91875ZM236.70744 197.7625Q236.14494 197.7625 235.6762 198.09062Q235.20744 198.41875 235.01994 198.93437L235.01994 199.325Q235.01994 200.3875 235.4887 201.02812Q235.97307 201.66875 236.6762 201.66875Q237.41057 201.66875 237.83244 201.1375Q238.25432 200.59062 238.25432 199.71562Q238.25432 198.84062 237.83244 198.30937Q237.41057 197.7625 236.70744 197.7625Z" fill-rule="nonzero"/><path fill="#757575" d="M289.92422 198.80937Q289.92422 200.71562 289.26797 201.65312Q288.62735 202.575 287.23672 202.575Q285.87735 202.575 285.2211 201.66875Q284.56485 200.7625 284.5336 198.95L284.5336 197.5125Q284.5336 195.62187 285.17422 194.71562Q285.83047 193.79375 287.2211 193.79375Q288.5961 193.79375 289.25235 194.68437Q289.9086 195.55937 289.92422 197.40312L289.92422 198.80937ZM288.83047 197.325Q288.83047 195.95 288.43985 195.325Q288.06485 194.68437 287.2211 194.68437Q286.39297 194.68437 286.00235 195.325Q285.62735 195.95 285.62735 197.24687L285.62735 198.98125Q285.62735 200.35625 286.01797 201.02812Q286.42422 201.68437 287.23672 201.68437Q288.0336 201.68437 288.42422 201.05937Q288.81485 200.43437 288.83047 199.10625L288.83047 197.325ZM291.70547 201.8875Q291.70547 201.60625 291.86172 201.41875Q292.0336 201.23125 292.36172 201.23125Q292.70547 201.23125 292.87735 201.41875Q293.04922 201.60625 293.04922 201.8875Q293.04922 202.15312 292.87735 202.34062Q292.70547 202.5125 292.36172 202.5125Q292.0336 202.5125 291.86172 202.34062Q291.70547 202.15312 291.70547 201.8875ZM299.75235 196.1375Q299.75235 196.77812 299.4086 197.27812Q299.06485 197.77812 298.50235 198.05937Q299.1586 198.34062 299.54922 198.90312Q299.93985 199.45 299.93985 200.15312Q299.93985 201.24687 299.18985 201.91875Q298.45547 202.575 297.23672 202.575Q296.00235 202.575 295.25235 201.91875Q294.51797 201.24687 294.51797 200.15312Q294.51797 199.45 294.89297 198.90312Q295.26797 198.34062 295.93985 198.05937Q295.37735 197.77812 295.04922 197.27812Q294.7211 196.77812 294.7211 196.1375Q294.7211 195.05937 295.4086 194.43437Q296.0961 193.79375 297.23672 193.79375Q298.36172 193.79375 299.04922 194.43437Q299.75235 195.05937 299.75235 196.1375ZM298.86172 200.12187Q298.86172 199.40312 298.4086 198.96562Q297.95547 198.5125 297.2211 198.5125Q296.48672 198.5125 296.0336 198.96562Q295.5961 199.40312 295.5961 200.1375Q295.5961 200.85625 296.0336 201.27812Q296.4711 201.68437 297.23672 201.68437Q297.98672 201.68437 298.42422 201.2625Q298.86172 200.84062 298.86172 200.12187ZM297.23672 194.68437Q296.5961 194.68437 296.18985 195.09062Q295.79922 195.48125 295.79922 196.16875Q295.79922 196.80937 296.18985 197.21562Q296.58047 197.62187 297.2211 197.62187Q297.87735 197.62187 298.26797 197.21562Q298.6586 196.80937 298.6586 196.16875Q298.6586 195.5125 298.25235 195.10625Q297.8461 194.68437 297.23672 194.68437Z" fill-rule="nonzero"/><path fill="#757575" d="M348.8285 202.45L347.75037 202.45L347.75037 195.23125L345.56287 196.02812L345.56287 195.04375L348.67224 193.87187L348.8285 193.87187L348.8285 202.45ZM352.40662 201.8875Q352.40662 201.60625 352.56287 201.41875Q352.73474 201.23125 353.06287 201.23125Q353.40662 201.23125 353.5785 201.41875Q353.75037 201.60625 353.75037 201.8875Q353.75037 202.15312 353.5785 202.34062Q353.40662 202.5125 353.06287 202.5125Q352.73474 202.5125 352.56287 202.34062Q352.40662 202.15312 352.40662 201.8875ZM360.62537 198.80937Q360.62537 200.71562 359.96912 201.65312Q359.3285 202.575 357.93787 202.575Q356.5785 202.575 355.92224 201.66875Q355.266 200.7625 355.23474 198.95L355.23474 197.5125Q355.23474 195.62187 355.87537 194.71562Q356.53162 193.79375 357.92224 193.79375Q359.29724 193.79375 359.9535 194.68437Q360.60974 195.55937 360.62537 197.40312L360.62537 198.80937ZM359.53162 197.325Q359.53162 195.95 359.141 195.325Q358.766 194.68437 357.92224 194.68437Q357.09412 194.68437 356.7035 195.325Q356.3285 195.95 356.3285 197.24687L356.3285 198.98125Q356.3285 200.35625 356.71912 201.02812Q357.12537 201.68437 357.93787 201.68437Q358.73474 201.68437 359.12537 201.05937Q359.516 200.43437 359.53162 199.10625L359.53162 197.325Z" fill-rule="nonzero"/><path fill="#757575" d="M22.628124 22.221874Q22.628124 23.89375 22.065624 25.14375Q21.503124 26.39375 20.471874 27.05Q19.440624 27.70625 18.065624 27.70625Q16.721874 27.70625 15.675 27.05Q14.64375 26.378124 14.065625 25.159374Q13.4875 23.940624 13.471875 22.33125L13.471875 21.503124Q13.471875 19.8625 14.034375 18.6125Q14.6125 17.346874 15.659375 16.690624Q16.70625 16.01875 18.05 16.01875Q19.409374 16.01875 20.45625 16.675Q21.503124 17.33125 22.065624 18.596874Q22.628124 19.846874 22.628124 21.503124L22.628124 22.221874ZM21.128124 21.4875Q21.128124 19.471874 20.315624 18.39375Q19.503124 17.3 18.05 17.3Q16.628124 17.3 15.8 18.39375Q14.9875 19.471874 14.971875 21.39375L14.971875 22.221874Q14.971875 24.190624 15.784375 25.315624Q16.6125 26.425 18.065624 26.425Q19.51875 26.425 20.315624 25.378124Q21.1125 24.315624 21.128124 22.33125L21.128124 21.4875ZM29.8625 26.70625Q29.01875 27.70625 27.39375 27.70625Q26.034374 27.70625 25.33125 26.925Q24.628124 26.128124 24.6125 24.596874L24.6125 19.096874L26.065624 19.096874L26.065624 24.55Q26.065624 26.471874 27.628124 26.471874Q29.284374 26.471874 29.83125 25.2375L29.83125 19.096874L31.26875 19.096874L31.26875 27.55L29.89375 27.55L29.8625 26.70625ZM35.6125 17.05L35.6125 19.096874L37.190624 19.096874L37.190624 20.20625L35.6125 20.20625L35.6125 25.45625Q35.6125 25.95625 35.815624 26.221874Q36.034374 26.471874 36.534374 26.471874Q36.784374 26.471874 37.221874 26.378124L37.221874 27.55Q36.659374 27.70625 36.1125 27.70625Q35.14375 27.70625 34.64375 27.128124Q34.159374 26.534374 34.159374 25.45625L34.159374 20.20625L32.628124 20.20625L32.628124 19.096874L34.159374 19.096874L34.159374 17.05L35.6125 17.05ZM45.784374 23.409374Q45.784374 25.346874 44.89375 26.534374Q44.01875 27.70625 42.51875 27.70625Q40.971874 27.70625 40.096874 26.721874L40.096874 30.8L38.64375 30.8L38.64375 19.096874L39.971874 19.096874L40.034374 20.034374Q40.925 18.940624 42.4875 18.940624Q44.01875 18.940624 44.89375 20.096874Q45.784374 21.2375 45.784374 23.284374L45.784374 23.409374ZM44.346874 23.253124Q44.346874 21.815624 43.7375 20.9875Q43.128124 20.159374 42.065624 20.159374Q40.753124 20.159374 40.096874 21.33125L40.096874 25.3625Q40.7375 26.51875 42.08125 26.51875Q43.1125 26.51875 43.721874 25.70625Q44.346874 24.878124 44.346874 23.253124ZM52.8625 26.70625Q52.01875 27.70625 50.39375 27.70625Q49.034374 27.70625 48.33125 26.925Q47.628124 26.128124 47.6125 24.596874L47.6125 19.096874L49.065624 19.096874L49.065624 24.55Q49.065624 26.471874 50.628124 26.471874Q52.284374 26.471874 52.83125 25.2375L52.83125 19.096874L54.26875 19.096874L54.26875 27.55L52.89375 27.55L52.8625 26.70625ZM58.6125 17.05L58.6125 19.096874L60.190624 19.096874L60.190624 20.20625L58.6125 20.20625L58.6125 25.45625Q58.6125 25.95625 58.815624 26.221874Q59.034374 26.471874 59.534374 26.471874Q59.784374 26.471874 60.221874 26.378124L60.221874 27.55Q59.659374 27.70625 59.1125 27.70625Q58.14375 27.70625 57.64375 27.128124Q57.159374 26.534374 57.159374 25.45625L57.159374 20.20625L55.628124 20.20625L55.628124 19.096874L57.159374 19.096874L57.159374 17.05L58.6125 17.05ZM74.2375 23.940624Q74.03438 25.7375 72.90938 26.721874Q71.78438 27.70625 69.925 27.70625Q67.90938 27.70625 66.69063 26.26875Q65.4875 24.815624 65.4875 22.39375L65.4875 21.3Q65.4875 19.70625 66.05 18.503124Q66.6125 17.3 67.64375 16.659374Q68.69063 16.01875 70.06563 16.01875Q71.87813 16.01875 72.97188 17.034374Q74.06563 18.034374 74.2375 19.83125L72.7375 19.83125Q72.53438 18.471874 71.87813 17.8625Q71.2375 17.253124 70.06563 17.253124Q68.62813 17.253124 67.8 18.315624Q66.9875 19.378124 66.9875 21.33125L66.9875 22.440624Q66.9875 24.284374 67.75313 25.378124Q68.53438 26.471874 69.925 26.471874Q71.175 26.471874 71.84688 25.909374Q72.51875 25.346874 72.7375 23.940624L74.2375 23.940624ZM80.8625 26.70625Q80.01875 27.70625 78.39375 27.70625Q77.03438 27.70625 76.33125 26.925Q75.62813 26.128124 75.6125 24.596874L75.6125 19.096874L77.06563 19.096874L77.06563 24.55Q77.06563 26.471874 78.62813 26.471874Q80.28438 26.471874 80.83125 25.2375L80.83125 19.096874L82.26875 19.096874L82.26875 27.55L80.89375 27.55L80.8625 26.70625ZM88.7375 20.39375Q88.40938 20.33125 88.01875 20.33125Q86.59688 20.33125 86.09688 21.55L86.09688 27.55L84.64375 27.55L84.64375 19.096874L86.05 19.096874L86.08125 20.065624Q86.78438 18.940624 88.09688 18.940624Q88.51875 18.940624 88.7375 19.05L88.7375 20.39375ZM93.7375 20.39375Q93.40938 20.33125 93.01875 20.33125Q91.59688 20.33125 91.09688 21.55L91.09688 27.55L89.64375 27.55L89.64375 19.096874L91.05 19.096874L91.08125 20.065624Q91.78438 18.940624 93.09688 18.940624Q93.51875 18.940624 93.7375 19.05L93.7375 20.39375ZM98.15938 27.70625Q96.44063 27.70625 95.3625 26.58125Q94.28438 25.440624 94.28438 23.55L94.28438 23.284374Q94.28438 22.034374 94.75313 21.05Q95.2375 20.05 96.09688 19.503124Q96.97188 18.940624 97.97188 18.940624Q99.62813 18.940624 100.53438 20.034374Q101.45625 21.1125 101.45625 23.128124L101.45625 23.7375L95.72188 23.7375Q95.75313 24.9875 96.45625 25.753124Q97.15938 26.51875 98.2375 26.51875Q99.00313 26.51875 99.53438 26.20625Q100.06563 25.89375 100.45625 25.378124L101.34688 26.065624Q100.28438 27.70625 98.15938 27.70625ZM97.97188 20.128124Q97.09688 20.128124 96.50313 20.76875Q95.90938 21.39375 95.76875 22.55L100.00313 22.55L100.00313 22.440624Q99.94063 21.33125 99.40938 20.7375Q98.87813 20.128124 97.97188 20.128124ZM104.01875 19.096874L104.06563 20.159374Q105.03438 18.940624 106.59688 18.940624Q109.26875 18.940624 109.3 21.95625L109.3 27.55L107.84688 27.55L107.84688 21.95625Q107.84688 21.034374 107.425 20.596874Q107.01875 20.159374 106.15938 20.159374Q105.45625 20.159374 104.925 20.534374Q104.39375 20.909374 104.09688 21.51875L104.09688 27.55L102.64375 27.55L102.64375 19.096874L104.01875 19.096874ZM113.6125 17.05L113.6125 19.096874L115.19063 19.096874L115.19063 20.20625L113.6125 20.20625L113.6125 25.45625Q113.6125 25.95625 113.81563 26.221874Q114.03438 26.471874 114.53438 26.471874Q114.78438 26.471874 115.22188 26.378124L115.22188 27.55Q114.65938 27.70625 114.1125 27.70625Q113.14375 27.70625 112.64375 27.128124Q112.15938 26.534374 112.15938 25.45625L112.15938 20.20625L110.62813 20.20625L110.62813 19.096874L112.15938 19.096874L112.15938 17.05L113.6125 17.05ZM123.44063 25.58125L125.53438 19.096874L127.00313 19.096874L123.97188 27.55L122.87813 27.55L119.81563 19.096874L121.28438 19.096874L123.44063 25.58125ZM133.56563 25.3Q133.56563 24.721874 133.12813 24.39375Q132.69063 24.065624 131.58125 23.83125Q130.4875 23.596874 129.84688 23.26875Q129.20625 22.940624 128.89375 22.4875Q128.58125 22.034374 128.58125 21.409374Q128.58125 20.378124 129.45625 19.659374Q130.34688 18.940624 131.70625 18.940624Q133.14375 18.940624 134.03438 19.690624Q134.94063 20.425 134.94063 21.58125L133.4875 21.58125Q133.4875 20.9875 132.97188 20.565624Q132.47188 20.128124 131.70625 20.128124Q130.925 20.128124 130.47188 20.471874Q130.03438 20.815624 130.03438 21.3625Q130.03438 21.89375 130.44063 22.159374Q130.8625 22.425 131.94063 22.675Q133.01875 22.909374 133.69063 23.253124Q134.3625 23.58125 134.69063 24.05Q135.01875 24.51875 135.01875 25.20625Q135.01875 26.33125 134.1125 27.01875Q133.20625 27.70625 131.75313 27.70625Q130.7375 27.70625 129.95625 27.346874Q129.175 26.9875 128.7375 26.346874Q128.3 25.690624 128.3 24.940624L129.7375 24.940624Q129.78438 25.675 130.31563 26.096874Q130.8625 26.51875 131.75313 26.51875Q132.58125 26.51875 133.06563 26.190624Q133.56563 25.8625 133.56563 25.3ZM136.675 26.784374Q136.675 26.409374 136.89375 26.159374Q137.12813 25.909374 137.56563 25.909374Q138.01875 25.909374 138.2375 26.159374Q138.47188 26.409374 138.47188 26.784374Q138.47188 27.14375 138.2375 27.39375Q138.01875 27.64375 137.56563 27.64375Q137.12813 27.64375 136.89375 27.39375Q136.675 27.14375 136.675 26.784374ZM149.05 22.940624L146.37813 22.940624L146.37813 27.55L144.8625 27.55L144.8625 16.175L148.62813 16.175Q150.55 16.175 151.58125 17.05Q152.62813 17.925 152.62813 19.596874Q152.62813 20.659374 152.05 21.45625Q151.47188 22.2375 150.45625 22.628124L153.12813 27.45625L153.12813 27.55L151.51875 27.55L149.05 22.940624ZM146.37813 21.721874L148.675 21.721874Q149.8 21.721874 150.45625 21.14375Q151.1125 20.565624 151.1125 19.596874Q151.1125 18.534374 150.4875 17.971874Q149.8625 17.409374 148.675 17.409374L146.37813 17.409374L146.37813 21.721874ZM156.22188 27.55L154.76875 27.55L154.76875 19.096874L156.22188 19.096874L156.22188 27.55ZM154.65938 16.846874Q154.65938 16.503124 154.8625 16.26875Q155.08125 16.01875 155.50313 16.01875Q155.925 16.01875 156.14375 16.26875Q156.3625 16.503124 156.3625 16.8625Q156.3625 17.20625 156.14375 17.440624Q155.925 17.675 155.50313 17.675Q155.08125 17.675 154.8625 17.440624Q154.65938 17.20625 154.65938 16.846874ZM165.78438 23.409374Q165.78438 25.346874 164.89375 26.534374Q164.01875 27.70625 162.51875 27.70625Q160.97188 27.70625 160.09688 26.721874L160.09688 30.8L158.64375 30.8L158.64375 19.096874L159.97188 19.096874L160.03438 20.034374Q160.925 18.940624 162.4875 18.940624Q164.01875 18.940624 164.89375 20.096874Q165.78438 21.2375 165.78438 23.284374L165.78438 23.409374ZM164.34688 23.253124Q164.34688 21.815624 163.7375 20.9875Q163.12813 20.159374 162.06563 20.159374Q160.75313 20.159374 160.09688 21.33125L160.09688 25.3625Q160.7375 26.51875 162.08125 26.51875Q163.1125 26.51875 163.72188 25.70625Q164.34688 24.878124 164.34688 23.253124ZM174.78438 23.409374Q174.78438 25.346874 173.89375 26.534374Q173.01875 27.70625 171.51875 27.70625Q169.97188 27.70625 169.09688 26.721874L169.09688 30.8L167.64375 30.8L167.64375 19.096874L168.97188 19.096874L169.03438 20.034374Q169.925 18.940624 171.4875 18.940624Q173.01875 18.940624 173.89375 20.096874Q174.78438 21.2375 174.78438 23.284374L174.78438 23.409374ZM173.34688 23.253124Q173.34688 21.815624 172.7375 20.9875Q172.12813 20.159374 171.06563 20.159374Q169.75313 20.159374 169.09688 21.33125L169.09688 25.3625Q169.7375 26.51875 171.08125 26.51875Q172.1125 26.51875 172.72188 25.70625Q173.34688 24.878124 173.34688 23.253124ZM178.22188 27.55L176.76875 27.55L176.76875 15.549999L178.22188 15.549999L178.22188 27.55ZM184.15938 27.70625Q182.44063 27.70625 181.3625 26.58125Q180.28438 25.440624 180.28438 23.55L180.28438 23.284374Q180.28438 22.034374 180.75313 21.05Q181.2375 20.05 182.09688 19.503124Q182.97188 18.940624 183.97188 18.940624Q185.62813 18.940624 186.53438 20.034374Q187.45625 21.1125 187.45625 23.128124L187.45625 23.7375L181.72188 23.7375Q181.75313 24.9875 182.45625 25.753124Q183.15938 26.51875 184.2375 26.51875Q185.00313 26.51875 185.53438 26.20625Q186.06563 25.89375 186.45625 25.378124L187.34688 26.065624Q186.28438 27.70625 184.15938 27.70625ZM183.97188 20.128124Q183.09688 20.128124 182.50313 20.76875Q181.90938 21.39375 181.76875 22.55L186.00313 22.55L186.00313 22.440624Q185.94063 21.33125 185.40938 20.7375Q184.87813 20.128124 183.97188 20.128124ZM192.59688 22.925Q192.59688 21.159374 193.06563 19.534374Q193.53438 17.909374 194.47188 16.58125Q195.40938 15.253124 196.425 14.706249L196.72188 15.659374Q195.58125 16.534374 194.84688 18.33125Q194.1125 20.128124 194.05 22.3625L194.03438 23.01875Q194.03438 26.034374 195.14375 28.26875Q195.8 29.596874 196.72188 30.346874L196.425 31.221874Q195.37813 30.64375 194.44063 29.284374Q192.59688 26.628124 192.59688 22.925ZM204.78438 23.409374Q204.78438 25.346874 203.89375 26.534374Q203.01875 27.70625 201.51875 27.70625Q199.97188 27.70625 199.09688 26.721874L199.09688 30.8L197.64375 30.8L197.64375 19.096874L198.97188 19.096874L199.03438 20.034374Q199.925 18.940624 201.4875 18.940624Q203.01875 18.940624 203.89375 20.096874Q204.78438 21.2375 204.78438 23.284374L204.78438 23.409374ZM203.34688 23.253124Q203.34688 21.815624 202.7375 20.9875Q202.12813 20.159374 201.06563 20.159374Q199.75313 20.159374 199.09688 21.33125L199.09688 25.3625Q199.7375 26.51875 201.08125 26.51875Q202.1125 26.51875 202.72188 25.70625Q203.34688 24.878124 203.34688 23.253124ZM210.15938 27.70625Q208.44063 27.70625 207.3625 26.58125Q206.28438 25.440624 206.28438 23.55L206.28438 23.284374Q206.28438 22.034374 206.75313 21.05Q207.2375 20.05 208.09688 19.503124Q208.97188 18.940624 209.97188 18.940624Q211.62813 18.940624 212.53438 20.034374Q213.45625 21.1125 213.45625 23.128124L213.45625 23.7375L207.72188 23.7375Q207.75313 24.9875 208.45625 25.753124Q209.15938 26.51875 210.2375 26.51875Q211.00313 26.51875 211.53438 26.20625Q212.06563 25.89375 212.45625 25.378124L213.34688 26.065624Q212.28438 27.70625 210.15938 27.70625ZM209.97188 20.128124Q209.09688 20.128124 208.50313 20.76875Q207.90938 21.39375 207.76875 22.55L212.00313 22.55L212.00313 22.440624Q211.94063 21.33125 211.40938 20.7375Q210.87813 20.128124 209.97188 20.128124ZM218.7375 20.39375Q218.40938 20.33125 218.01875 20.33125Q216.59688 20.33125 216.09688 21.55L216.09688 27.55L214.64375 27.55L214.64375 19.096874L216.05 19.096874L216.08125 20.065624Q216.78438 18.940624 218.09688 18.940624Q218.51875 18.940624 218.7375 19.05L218.7375 20.39375ZM227.7375 20.39375Q227.40938 20.33125 227.01875 20.33125Q225.59688 20.33125 225.09688 21.55L225.09688 27.55L223.64375 27.55L223.64375 19.096874L225.05 19.096874L225.08125 20.065624Q225.78438 18.940624 227.09688 18.940624Q227.51875 18.940624 227.7375 19.05L227.7375 20.39375ZM233.8625 27.55Q233.7375 27.3 233.65938 26.659374Q232.65938 27.70625 231.25313 27.70625Q230.00313 27.70625 229.20625 27.003124Q228.40938 26.284374 228.40938 25.20625Q228.40938 23.878124 229.40938 23.159374Q230.40938 22.425 232.2375 22.425L233.64375 22.425L233.64375 21.753124Q233.64375 21.003124 233.19063 20.55Q232.7375 20.096874 231.84688 20.096874Q231.08125 20.096874 230.55 20.4875Q230.03438 20.878124 230.03438 21.440624L228.58125 21.440624Q228.58125 20.8 229.01875 20.221874Q229.47188 19.628124 230.2375 19.284374Q231.01875 18.940624 231.94063 18.940624Q233.39375 18.940624 234.22188 19.675Q235.05 20.39375 235.08125 21.675L235.08125 25.565624Q235.08125 26.7375 235.37813 27.425L235.37813 27.55L233.8625 27.55ZM231.47188 26.440624Q232.14375 26.440624 232.75313 26.096874Q233.3625 25.7375 233.64375 25.175L233.64375 23.440624L232.50313 23.440624Q229.84688 23.440624 229.84688 25.003124Q229.84688 25.675 230.3 26.065624Q230.75313 26.440624 231.47188 26.440624ZM239.22188 27.55L237.76875 27.55L237.76875 19.096874L239.22188 19.096874L239.22188 27.55ZM237.65938 16.846874Q237.65938 16.503124 237.8625 16.26875Q238.08125 16.01875 238.50313 16.01875Q238.925 16.01875 239.14375 16.26875Q239.3625 16.503124 239.3625 16.8625Q239.3625 17.20625 239.14375 17.440624Q238.925 17.675 238.50313 17.675Q238.08125 17.675 237.8625 17.440624Q237.65938 17.20625 237.65938 16.846874ZM243.22188 27.55L241.76875 27.55L241.76875 15.549999L243.22188 15.549999L243.22188 27.55ZM248.9875 23.003124Q248.9875 24.753124 248.51875 26.3625Q248.06563 27.95625 247.12813 29.3Q246.19063 30.659374 245.15938 31.221874L244.84688 30.346874Q246.05 29.425 246.78438 27.4875Q247.51875 25.534374 247.53438 23.159374L247.53438 22.909374Q247.53438 21.26875 247.19063 19.8625Q246.84688 18.45625 246.22188 17.346874Q245.6125 16.221874 244.84688 15.596874L245.15938 14.706249Q246.19063 15.284374 247.1125 16.628124Q248.05 17.95625 248.51875 19.565624Q248.9875 21.175 248.9875 23.003124Z" fill-rule="nonzero"/></svg>