<svg version="1.1" viewBox="0.0 0.0 404.0 249.0" fill="none" stroke="none" stroke-linecap="square" stroke-miterlimit="10" width="404" height="249" xmlns:xlink="http://www.w3.org/1999/xlink" xmlns="http://www.w3.org/2000/svg"><path fill="#ffffff" d="M0 0L404.0 0L404.0 249.0L0 249.0L0 0Z" fill-rule="nonzero"/><path fill="#ffffff" d="M0 0L404.0 0L404.0 249.0L0 249.0L0 0Z" fill-rule="nonzero"/><path stroke="#cccccc" stroke-width="1.0" stroke-linecap="butt" d="M147.5 47.5L147.5 182.5" fill-rule="nonzero"/><path stroke="#cccccc" stroke-width="1.0" stroke-linecap="butt" d="M227.5 47.5L227.5 182.5" fill-rule="nonzero"/><path stroke="#cccccc" stroke-width="1.0" stroke-linecap="butt" d="M307.5 47.5L307.5 182.5" fill-rule="nonzero"/><path stroke="#cccccc" stroke-width="1.0" stroke-linecap="butt" d="M387.5 47.5L387.5 182.5" fill-rule="nonzero"/><path stroke="#e6e6e6" stroke-width="1.0" stroke-linecap="butt" d="M131.5 47.5L131.5 182.5" fill-rule="nonzero"/><path stroke="#e6e6e6" stroke-width="1.0" stroke-linecap="butt" d="M115.5 47.5L115.5 182.5" fill-rule="nonzero"/><path stroke="#e6e6e6" stroke-width="1.0" stroke-linecap="butt" d="M99.5 47.5L99.5 182.5" fill-rule="nonzero"/><path stroke="#e6e6e6" stroke-width="1.0" stroke-linecap="butt" d="M83.5 47.5L83.5 182.5" fill-rule="nonzero"/><path stroke="#e6e6e6" stroke-width="1.0" stroke-linecap="butt" d="M211.5 47.5L211.5 182.5" fill-rule="nonzero"/><path stroke="#e6e6e6" stroke-width="1.0" stroke-linecap="butt" d="M195.5 47.5L195.5 182.5" fill-rule="nonzero"/><path stroke="#e6e6e6" stroke-width="1.0" stroke-linecap="butt" d="M179.5 47.5L179.5 182.5" fill-rule="nonzero"/><path stroke="#e6e6e6" stroke-width="1.0" stroke-linecap="butt" d="M163.5 47.5L163.5 182.5" fill-rule="nonzero"/><path stroke="#e6e6e6" stroke-width="1.0" stroke-linecap="butt" d="M291.5 47.5L291.5 182.5" fill-rule="nonzero"/><path stroke="#e6e6e6" stroke-width="1.0" stroke-linecap="butt" d="M275.5 47.5L275.5 182.5" fill-rule="nonzero"/><path stroke="#e6e6e6" stroke-width="1.0" stroke-linecap="butt" d="M259.5 47.5L259.5 182.5" fill-rule="nonzero"/><path stroke="#e6e6e6" stroke-width="1.0" stroke-linecap="butt" d="M243.5 47.5L243.5 182.5" fill-rule="nonzero"/><path stroke="#e6e6e6" stroke-width="1.0" stroke-linecap="butt" d="M371.5 47.5L371.5 182.5" fill-rule="nonzero"/><path stroke="#e6e6e6" stroke-width="1.0" stroke-linecap="butt" d="M355.5 47.5L355.5 182.5" fill-rule="nonzero"/><path stroke="#e6e6e6" stroke-width="1.0" stroke-linecap="butt" d="M339.5 47.5L339.5 182.5" fill-rule="nonzero"/><path stroke="#e6e6e6" stroke-width="1.0" stroke-linecap="butt" d="M323.5 47.5L323.5 182.5" fill-rule="nonzero"/><path stroke="#333333" stroke-width="1.0" stroke-linecap="butt" d="M72.5 182.5L391.5 182.5" fill-rule="nonzero"/><path stroke="#cccccc" stroke-width="1.0" stroke-linecap="butt" d="M72.5 138.5L391.5 138.5" fill-rule="nonzero"/><path stroke="#cccccc" stroke-width="1.0" stroke-linecap="butt" d="M72.5 93.5L391.5 93.5" fill-rule="nonzero"/><path stroke="#cccccc" stroke-width="1.0" stroke-linecap="butt" d="M72.5 48.5L391.5 48.5" fill-rule="nonzero"/><path stroke="#e6e6e6" stroke-width="1.0" stroke-linecap="butt" d="M72.5 146.5L391.5 146.5" fill-rule="nonzero"/><path stroke="#e6e6e6" stroke-width="1.0" stroke-linecap="butt" d="M72.5 155.5L391.5 155.5" fill-rule="nonzero"/><path stroke="#e6e6e6" stroke-width="1.0" stroke-linecap="butt" d="M72.5 164.5L391.5 164.5" fill-rule="nonzero"/><path stroke="#e6e6e6" stroke-width="1.0" stroke-linecap="butt" d="M72.5 173.5L391.5 173.5" fill-rule="nonzero"/><path stroke="#e6e6e6" stroke-width="1.0" stroke-linecap="butt" d="M72.5 102.5L391.5 102.5" fill-rule="nonzero"/><path stroke="#e6e6e6" stroke-width="1.0" stroke-linecap="butt" d="M72.5 111.5L391.5 111.5" fill-rule="nonzero"/><path stroke="#e6e6e6" stroke-width="1.0" stroke-linecap="butt" d="M72.5 120.5L391.5 120.5" fill-rule="nonzero"/><path stroke="#e6e6e6" stroke-width="1.0" stroke-linecap="butt" d="M72.5 129.5L391.5 129.5" fill-rule="nonzero"/><path stroke="#e6e6e6" stroke-width="1.0" stroke-linecap="butt" d="M72.5 57.5L391.5 57.5" fill-rule="nonzero"/><path stroke="#e6e6e6" stroke-width="1.0" stroke-linecap="butt" d="M72.5 66.5L391.5 66.5" fill-rule="nonzero"/><path stroke="#e6e6e6" stroke-width="1.0" stroke-linecap="butt" d="M72.5 75.5L391.5 75.5" fill-rule="nonzero"/><path stroke="#e6e6e6" stroke-width="1.0" stroke-linecap="butt" d="M72.5 84.5L391.5 84.5" fill-rule="nonzero"/><clipPath id="id_0"><path d="M72.45 47.25L391.55 47.25L391.55 182.55L72.45 182.55L72.45 47.25Z" clip-rule="nonzero"/></clipPath><path stroke="#ff0000" stroke-width="2.0" stroke-linecap="butt" clip-path="url(#id_0)" d="M72.45 160.00446C72.45 160.00446 74.97253 152.0652 76.233795 148.81181C77.495056 145.55843 80.017586 140.94232 81.278854 137.70822C82.540115 134.47412 83.801384 130.31473 85.062645 126.63134C86.32391 122.94795 87.585175 118.80859 88.84644 115.60789C90.107704 112.40718 93.05066 107.43899 93.8915 104.70019C94.732346 101.96139 95.57319 95.809074 96.41403 93.72125C97.254875 91.63344 107.34499 85.993744 112.81047 83.659454C118.275955 81.325165 136.35408 77.37633 148.12589 75.16481C159.89769 72.95329 181.75961 70.498985 198.57648 68.344154C215.39334 66.18933 234.73274 64.11627 249.02707 62.235844C263.3214 60.355415 277.61575 57.943195 291.91006 56.14534C306.2044 54.347485 323.02127 52.441776 338.57687 51.034306C354.13248 49.62683 391.55 47.25 391.55 47.25" fill-rule="nonzero"/><path fill="#424242" d="M180.125 232.62813L184.17188 232.62813L184.17188 233.55L178.98438 233.55L178.98438 225.01875L180.125 225.01875L180.125 232.62813ZM184.53125 230.31563Q184.53125 229.39375 184.89062 228.64375Q185.26562 227.89375 185.92188 227.50313Q186.57812 227.09688 187.40625 227.09688Q188.70312 227.09688 189.5 227.9875Q190.3125 228.87813 190.3125 230.37813L190.3125 230.45625Q190.3125 231.37813 189.95312 232.1125Q189.59375 232.84688 188.9375 233.26875Q188.28125 233.675 187.42188 233.675Q186.14062 233.675 185.32812 232.78438Q184.53125 231.87813 184.53125 230.39375L184.53125 230.31563ZM185.625 230.45625Q185.625 231.50313 186.10938 232.14375Q186.60938 232.78438 187.42188 232.78438Q188.25 232.78438 188.73438 232.14375Q189.21875 231.4875 189.21875 230.31563Q189.21875 229.28438 188.71875 228.64375Q188.23438 227.9875 187.40625 227.9875Q186.60938 227.9875 186.10938 228.62813Q185.625 229.25313 185.625 230.45625ZM195.73438 233.55Q195.64062 233.3625 195.57812 232.87813Q194.82812 233.675 193.78125 233.675Q192.84375 233.675 192.23438 233.14375Q191.64062 232.6125 191.64062 231.78438Q191.64062 230.8 192.39062 230.25313Q193.14062 229.70625 194.51562 229.70625L195.5625 229.70625L195.5625 229.20625Q195.5625 228.64375 195.21875 228.31563Q194.89062 227.97188 194.21875 227.97188Q193.64062 227.97188 193.25 228.26875Q192.85938 228.55 192.85938 228.97188L191.76562 228.97188Q191.76562 228.4875 192.09375 228.05Q192.4375 227.6125 193.01562 227.3625Q193.59375 227.09688 194.28125 227.09688Q195.39062 227.09688 196.0 227.64375Q196.625 228.19063 196.65625 229.14375L196.65625 232.06563Q196.65625 232.94063 196.875 233.45625L196.875 233.55L195.73438 233.55ZM193.9375 232.72188Q194.45312 232.72188 194.90625 232.45625Q195.35938 232.19063 195.5625 231.76875L195.5625 230.47188L194.71875 230.47188Q192.71875 230.47188 192.71875 231.64375Q192.71875 232.14375 193.0625 232.44063Q193.40625 232.72188 193.9375 232.72188ZM198.5625 230.33125Q198.5625 228.8625 199.25 227.9875Q199.9375 227.09688 201.0625 227.09688Q202.17188 227.09688 202.82812 227.84688L202.82812 224.55L203.90625 224.55L203.90625 233.55L202.90625 233.55L202.85938 232.8625Q202.20312 233.675 201.04688 233.675Q199.95312 233.675 199.25 232.76875Q198.5625 231.8625 198.5625 230.40938L198.5625 230.33125ZM199.64062 230.45625Q199.64062 231.53438 200.07812 232.14375Q200.53125 232.75313 201.3125 232.75313Q202.34375 232.75313 202.82812 231.81563L202.82812 228.90938Q202.34375 228.01875 201.32812 228.01875Q200.53125 228.01875 200.07812 228.62813Q199.64062 229.2375 199.64062 230.45625ZM212.125 230.09688L210.10938 230.09688L210.10938 233.55L208.98438 233.55L208.98438 225.01875L211.8125 225.01875Q213.25 225.01875 214.01562 225.675Q214.79688 226.33125 214.79688 227.58125Q214.79688 228.37813 214.35938 228.97188Q213.9375 229.56563 213.17188 229.8625L215.17188 233.47188L215.17188 233.55L213.96875 233.55L212.125 230.09688ZM210.10938 229.175L211.84375 229.175Q212.6875 229.175 213.17188 228.75313Q213.67188 228.31563 213.67188 227.58125Q213.67188 226.8 213.20312 226.37813Q212.73438 225.95625 211.84375 225.94063L210.10938 225.94063L210.10938 229.175ZM218.45312 233.675Q217.15625 233.675 216.34375 232.83125Q215.54688 231.97188 215.54688 230.55L215.54688 230.3625Q215.54688 229.40938 215.90625 228.675Q216.26562 227.925 216.90625 227.51875Q217.5625 227.09688 218.3125 227.09688Q219.54688 227.09688 220.23438 227.90938Q220.92188 228.72188 220.92188 230.2375L220.92188 230.69063L216.625 230.69063Q216.65625 231.62813 217.17188 232.20625Q217.70312 232.78438 218.51562 232.78438Q219.07812 232.78438 219.46875 232.55Q219.875 232.31563 220.1875 231.925L220.84375 232.44063Q220.04688 233.675 218.45312 233.675ZM218.3125 227.9875Q217.65625 227.9875 217.20312 228.47188Q216.76562 228.94063 216.67188 229.8L219.84375 229.8L219.84375 229.72188Q219.79688 228.89375 219.39062 228.44063Q219.0 227.9875 218.3125 227.9875ZM221.5625 230.33125Q221.5625 228.84688 222.25 227.97188Q222.9375 227.09688 224.0625 227.09688Q225.21875 227.09688 225.875 227.90938L225.92188 227.20625L226.92188 227.20625L226.92188 233.39375Q226.92188 234.62813 226.1875 235.33125Q225.45312 236.05 224.23438 236.05Q223.54688 236.05 222.89062 235.75313Q222.23438 235.45625 221.89062 234.95625L222.45312 234.3Q223.14062 235.15938 224.15625 235.15938Q224.9375 235.15938 225.375 234.70625Q225.82812 234.26875 225.82812 233.45625L225.82812 232.90938Q225.17188 233.675 224.04688 233.675Q222.9375 233.675 222.25 232.78438Q221.5625 231.87813 221.5625 230.33125ZM222.65625 230.45625Q222.65625 231.51875 223.09375 232.14375Q223.53125 232.75313 224.32812 232.75313Q225.34375 232.75313 225.82812 231.81563L225.82812 228.925Q225.32812 228.01875 224.32812 228.01875Q223.54688 228.01875 223.09375 228.62813Q222.65625 229.2375 222.65625 230.45625ZM232.73438 232.925Q232.10938 233.675 230.875 233.675Q229.85938 233.675 229.32812 233.08125Q228.79688 232.4875 228.79688 231.33125L228.79688 227.20625L229.875 227.20625L229.875 231.3Q229.875 232.75313 231.04688 232.75313Q232.29688 232.75313 232.70312 231.81563L232.70312 227.20625L233.79688 227.20625L233.79688 233.55L232.76562 233.55L232.73438 232.925ZM237.0 233.55L235.92188 233.55L235.92188 224.55L237.0 224.55L237.0 233.55ZM242.73438 233.55Q242.64062 233.3625 242.57812 232.87813Q241.82812 233.675 240.78125 233.675Q239.84375 233.675 239.23438 233.14375Q238.64062 232.6125 238.64062 231.78438Q238.64062 230.8 239.39062 230.25313Q240.14062 229.70625 241.51562 229.70625L242.5625 229.70625L242.5625 229.20625Q242.5625 228.64375 242.21875 228.31563Q241.89062 227.97188 241.21875 227.97188Q240.64062 227.97188 240.25 228.26875Q239.85938 228.55 239.85938 228.97188L238.76562 228.97188Q238.76562 228.4875 239.09375 228.05Q239.4375 227.6125 240.01562 227.3625Q240.59375 227.09688 241.28125 227.09688Q242.39062 227.09688 243.0 227.64375Q243.625 228.19063 243.65625 229.14375L243.65625 232.06563Q243.65625 232.94063 243.875 233.45625L243.875 233.55L242.73438 233.55ZM240.9375 232.72188Q241.45312 232.72188 241.90625 232.45625Q242.35938 232.19063 242.5625 231.76875L242.5625 230.47188L241.71875 230.47188Q239.71875 230.47188 239.71875 231.64375Q239.71875 232.14375 240.0625 232.44063Q240.40625 232.72188 240.9375 232.72188ZM247.29688 225.675L247.29688 227.20625L248.46875 227.20625L248.46875 228.05L247.29688 228.05L247.29688 231.97188Q247.29688 232.3625 247.45312 232.55Q247.60938 232.7375 247.98438 232.7375Q248.17188 232.7375 248.5 232.675L248.5 233.55Q248.07812 233.675 247.67188 233.675Q246.95312 233.675 246.57812 233.2375Q246.20312 232.78438 246.20312 231.97188L246.20312 228.05L245.04688 228.05L245.04688 227.20625L246.20312 227.20625L246.20312 225.675L247.29688 225.675ZM251.0 233.55L249.92188 233.55L249.92188 227.20625L251.0 227.20625L251.0 233.55ZM249.82812 225.53438Q249.82812 225.26875 249.98438 225.08125Q250.15625 224.89375 250.46875 224.89375Q250.78125 224.89375 250.9375 225.08125Q251.10938 225.26875 251.10938 225.53438Q251.10938 225.78438 250.9375 225.97188Q250.78125 226.14375 250.46875 226.14375Q250.15625 226.14375 249.98438 225.97188Q249.82812 225.78438 249.82812 225.53438ZM252.53125 230.31563Q252.53125 229.39375 252.89062 228.64375Q253.26562 227.89375 253.92188 227.50313Q254.57812 227.09688 255.40625 227.09688Q256.70312 227.09688 257.5 227.9875Q258.3125 228.87813 258.3125 230.37813L258.3125 230.45625Q258.3125 231.37813 257.95312 232.1125Q257.59375 232.84688 256.9375 233.26875Q256.28125 233.675 255.42188 233.675Q254.14062 233.675 253.32812 232.78438Q252.53125 231.87813 252.53125 230.39375L252.53125 230.31563ZM253.625 230.45625Q253.625 231.50313 254.10938 232.14375Q254.60938 232.78438 255.42188 232.78438Q256.25 232.78438 256.73438 232.14375Q257.21875 231.4875 257.21875 230.31563Q257.21875 229.28438 256.71875 228.64375Q256.23438 227.9875 255.40625 227.9875Q254.60938 227.9875 254.10938 228.62813Q253.625 229.25313 253.625 230.45625ZM260.84375 227.20625L260.875 228.00313Q261.60938 227.09688 262.78125 227.09688Q264.79688 227.09688 264.8125 229.3625L264.8125 233.55L263.71875 233.55L263.71875 229.34688Q263.71875 228.675 263.40625 228.34688Q263.10938 228.01875 262.45312 228.01875Q261.92188 228.01875 261.51562 228.3Q261.125 228.58125 260.90625 229.03438L260.90625 233.55L259.82812 233.55L259.82812 227.20625L260.84375 227.20625ZM269.78125 230.08125Q269.78125 228.76875 270.125 227.55Q270.48438 226.33125 271.1875 225.33125Q271.89062 224.33125 272.65625 223.925L272.875 224.64375Q272.01562 225.3 271.46875 226.64375Q270.92188 227.9875 270.875 229.65938L270.85938 230.15938Q270.85938 232.425 271.6875 234.08125Q272.1875 235.08125 272.875 235.64375L272.65625 236.3Q271.875 235.87813 271.15625 234.84688Q269.78125 232.8625 269.78125 230.08125ZM273.60938 226.65938Q273.60938 225.89375 274.09375 225.39375Q274.59375 224.89375 275.35938 224.89375Q276.14062 224.89375 276.625 225.39375Q277.10938 225.89375 277.10938 226.69063L277.10938 227.1125Q277.10938 227.87813 276.60938 228.37813Q276.125 228.8625 275.375 228.8625Q274.60938 228.8625 274.10938 228.37813Q273.60938 227.87813 273.60938 227.06563L273.60938 226.65938ZM274.42188 227.1125Q274.42188 227.56563 274.67188 227.8625Q274.9375 228.15938 275.375 228.15938Q275.79688 228.15938 276.04688 227.87813Q276.29688 227.58125 276.29688 227.08125L276.29688 226.65938Q276.29688 226.20625 276.04688 225.90938Q275.79688 225.59688 275.35938 225.59688Q274.92188 225.59688 274.67188 225.90938Q274.42188 226.20625 274.42188 226.675L274.42188 227.1125ZM277.76562 231.45625Q277.76562 230.69063 278.25 230.20625Q278.75 229.70625 279.51562 229.70625Q280.28125 229.70625 280.76562 230.20625Q281.26562 230.69063 281.26562 231.50313L281.26562 231.90938Q281.26562 232.675 280.78125 233.175Q280.29688 233.675 279.53125 233.675Q278.76562 233.675 278.26562 233.19063Q277.76562 232.69063 277.76562 231.87813L277.76562 231.45625ZM278.57812 231.90938Q278.57812 232.37813 278.82812 232.675Q279.09375 232.97188 279.53125 232.97188Q279.95312 232.97188 280.20312 232.69063Q280.45312 232.39375 280.45312 231.89375L280.45312 231.45625Q280.45312 230.9875 280.1875 230.70625Q279.9375 230.40938 279.51562 230.40938Q279.09375 230.40938 278.82812 230.70625Q278.57812 230.9875 278.57812 231.4875L278.57812 231.90938ZM275.625 232.90938L275.0 232.51875L279.17188 225.84688L279.78125 226.2375L275.625 232.90938ZM285.32812 230.14375Q285.32812 231.45625 284.98438 232.65938Q284.64062 233.84688 283.92188 234.8625Q283.21875 235.87813 282.45312 236.3L282.21875 235.64375Q283.125 234.95625 283.67188 233.50313Q284.21875 232.03438 284.23438 230.26875L284.23438 230.08125Q284.23438 228.84688 283.96875 227.78438Q283.71875 226.72188 283.25 225.89375Q282.79688 225.05 282.21875 224.58125L282.45312 223.925Q283.21875 224.34688 283.92188 225.34688Q284.625 226.34688 284.96875 227.56563Q285.32812 228.76875 285.32812 230.14375Z" fill-rule="nonzero"/><path fill="#424242" d="M20.465628 162.10312Q21.715628 162.10312 22.653128 162.525Q23.575003 162.94687 24.075003 163.72812Q24.575003 164.49374 24.575003 165.525Q24.575003 166.525 24.075003 167.30624Q23.575003 168.0875 22.668753 168.525Q21.746878 168.94687 20.528128 168.9625L19.918753 168.9625Q18.684378 168.9625 17.746878 168.54062Q16.809378 168.10312 16.309378 167.32187Q15.793753 166.54062 15.793753 165.525Q15.793753 164.50937 16.293753 163.72812Q16.793753 162.94687 17.731253 162.525Q18.668753 162.10312 19.918753 162.10312L20.465628 162.10312ZM19.903128 163.2125Q18.387503 163.2125 17.575003 163.82187Q16.762503 164.43124 16.762503 165.525Q16.762503 166.60312 17.575003 167.2125Q18.387503 167.82187 19.825003 167.8375L20.465628 167.8375Q21.934378 167.8375 22.778128 167.22812Q23.606253 166.60312 23.606253 165.525Q23.606253 164.43124 22.825003 163.8375Q22.028128 163.22812 20.543753 163.2125L19.903128 163.2125ZM23.825003 156.91562Q24.575003 157.54062 24.575003 158.775Q24.575003 159.79062 23.981253 160.32187Q23.387503 160.85312 22.231253 160.85312L18.106253 160.85312L18.106253 159.775L22.200003 159.775Q23.653128 159.775 23.653128 158.60312Q23.653128 157.35312 22.715628 156.94687L18.106253 156.94687L18.106253 155.85312L24.450003 155.85312L24.450003 156.88437L23.825003 156.91562ZM16.575003 152.35312L18.106253 152.35312L18.106253 151.18124L18.950003 151.18124L18.950003 152.35312L22.871878 152.35312Q23.262503 152.35312 23.450003 152.19687Q23.637503 152.04062 23.637503 151.66562Q23.637503 151.47812 23.575003 151.15L24.450003 151.15Q24.575003 151.57187 24.575003 151.97812Q24.575003 152.69687 24.137503 153.07187Q23.684378 153.44687 22.871878 153.44687L18.950003 153.44687L18.950003 154.60312L18.106253 154.60312L18.106253 153.44687L16.575003 153.44687L16.575003 152.35312ZM21.356253 144.47812Q22.793753 144.47812 23.684378 145.13437Q24.575003 145.79062 24.575003 146.93124Q24.575003 148.0875 23.840628 148.74374L26.887503 148.74374L26.887503 149.82187L18.106253 149.82187L18.106253 148.8375L18.809378 148.79062Q17.996878 148.11874 17.996878 146.94687Q17.996878 145.80624 18.856253 145.15Q19.715628 144.47812 21.246878 144.47812L21.356253 144.47812ZM21.231253 145.55624Q20.153128 145.55624 19.543753 146.025Q18.918753 146.47812 18.918753 147.275Q18.918753 148.25937 19.778128 148.74374L22.809378 148.74374Q23.684378 148.25937 23.684378 147.25937Q23.684378 146.47812 23.075003 146.025Q22.450003 145.55624 21.231253 145.55624ZM23.825003 138.91562Q24.575003 139.54062 24.575003 140.775Q24.575003 141.79062 23.981253 142.32187Q23.387503 142.85312 22.231253 142.85312L18.106253 142.85312L18.106253 141.775L22.200003 141.775Q23.653128 141.775 23.653128 140.60312Q23.653128 139.35312 22.715628 138.94687L18.106253 138.94687L18.106253 137.85312L24.450003 137.85312L24.450003 138.88437L23.825003 138.91562ZM16.575003 134.35312L18.106253 134.35312L18.106253 133.18124L18.950003 133.18124L18.950003 134.35312L22.871878 134.35312Q23.262503 134.35312 23.450003 134.19687Q23.637503 134.04062 23.637503 133.66562Q23.637503 133.47812 23.575003 133.15L24.450003 133.15Q24.575003 133.57187 24.575003 133.97812Q24.575003 134.69687 24.137503 135.07187Q23.684378 135.44687 22.871878 135.44687L18.950003 135.44687L18.950003 136.60312L18.106253 136.60312L18.106253 135.44687L16.575003 135.44687L16.575003 134.35312ZM21.106253 127.54063L24.450003 127.54063L24.450003 128.66562L15.918753 128.66562L15.918753 125.50938Q15.918753 124.11875 16.637503 123.32188Q17.340628 122.525 18.528128 122.525Q19.762503 122.525 20.434378 123.30625Q21.106253 124.07188 21.106253 125.525L21.106253 127.54063ZM20.184378 127.54063L20.184378 125.50938Q20.184378 124.60313 19.762503 124.13438Q19.340628 123.65 18.543753 123.65Q17.778128 123.65 17.325003 124.13438Q16.856253 124.60313 16.840628 125.44688L16.840628 127.54063L20.184378 127.54063ZM21.215628 121.11875Q20.293753 121.11875 19.543753 120.75938Q18.793753 120.38438 18.403128 119.72813Q17.996878 119.07188 17.996878 118.24375Q17.996878 116.94688 18.887503 116.15Q19.778128 115.3375 21.278128 115.3375L21.356253 115.3375Q22.278128 115.3375 23.012503 115.69688Q23.746878 116.05625 24.168753 116.7125Q24.575003 117.36875 24.575003 118.22813Q24.575003 119.50938 23.684378 120.32188Q22.778128 121.11875 21.293753 121.11875L21.215628 121.11875ZM21.356253 120.025Q22.403128 120.025 23.043753 119.54063Q23.684378 119.04063 23.684378 118.22813Q23.684378 117.4 23.043753 116.91563Q22.387503 116.43125 21.215628 116.43125Q20.184378 116.43125 19.543753 116.93125Q18.887503 117.41563 18.887503 118.24375Q18.887503 119.04063 19.528128 119.54063Q20.153128 120.025 21.356253 120.025ZM22.950003 108.2125L18.106253 106.99375L18.106253 105.91563L24.450003 107.75938L24.450003 108.63438L19.637503 110.18125L24.450003 111.68125L24.450003 112.55625L18.106253 114.4L18.106253 113.32188L22.856253 112.07188L18.106253 110.5875L18.106253 109.72813L22.950003 108.2125ZM24.575003 102.19688Q24.575003 103.49375 23.731253 104.30625Q22.871878 105.10313 21.450003 105.10313L21.262503 105.10313Q20.309378 105.10313 19.575003 104.74375Q18.825003 104.38438 18.418753 103.74375Q17.996878 103.0875 17.996878 102.3375Q17.996878 101.10313 18.809378 100.41563Q19.621878 99.72813 21.137503 99.72813L21.590628 99.72813L21.590628 104.025Q22.528128 103.99375 23.106253 103.47813Q23.684378 102.94688 23.684378 102.13438Q23.684378 101.57188 23.450003 101.18125Q23.215628 100.775 22.825003 100.4625L23.340628 99.80625Q24.575003 100.60313 24.575003 102.19688ZM18.887503 102.3375Q18.887503 102.99375 19.371878 103.44688Q19.840628 103.88438 20.700003 103.97813L20.700003 100.80625L20.621878 100.80625Q19.793753 100.85313 19.340628 101.25938Q18.887503 101.65 18.887503 102.3375ZM19.075003 95.75938Q19.043753 96.00938 19.043753 96.29063Q19.043753 97.36875 19.950003 97.74375L24.450003 97.74375L24.450003 98.82188L18.106253 98.82188L18.106253 97.775L18.840628 97.75938Q17.996878 97.22813 17.996878 96.24375Q17.996878 95.93125 18.075003 95.75938L19.075003 95.75938ZM20.981253 91.86875Q19.668753 91.86875 18.450003 91.525Q17.231253 91.16563 16.231253 90.4625Q15.231253 89.75938 14.825003 88.99375L15.543753 88.775Q16.200003 89.63438 17.543753 90.18125Q18.887503 90.72813 20.559378 90.775L21.059378 90.79063Q23.325003 90.79063 24.981253 89.9625Q25.981253 89.4625 26.543753 88.775L27.200003 88.99375Q26.778128 89.775 25.746878 90.49375Q23.762503 91.86875 20.981253 91.86875ZM21.762503 85.82187L22.887503 85.649994L21.871878 85.41562L15.918753 83.72812L15.918753 82.774994L21.871878 81.13437L22.903128 80.899994L21.746878 80.712494L15.918753 79.38437L15.918753 78.25937L24.450003 80.32187L24.450003 81.35312L18.231253 83.118744L17.575003 83.243744L18.231253 83.38437L24.450003 85.19687L24.450003 86.22812L15.918753 88.29063L15.918753 87.16562L21.762503 85.82187ZM21.043753 74.32187Q22.356253 74.32187 23.559378 74.66562Q24.746878 75.00937 25.762503 75.72812Q26.778128 76.431244 27.200003 77.19687L26.543753 77.431244Q25.856253 76.524994 24.403128 75.97812Q22.934378 75.431244 21.168753 75.41562L20.981253 75.41562Q19.746878 75.41562 18.684378 75.681244Q17.621878 75.931244 16.793753 76.399994Q15.950003 76.85312 15.481253 77.431244L14.825003 77.19687Q15.246878 76.431244 16.246878 75.72812Q17.246878 75.024994 18.465628 74.681244Q19.668753 74.32187 21.043753 74.32187Z" fill-rule="nonzero"/><path fill="#757575" d="M65.5125 183.40938Q65.5125 185.31563 64.85625 186.25313Q64.21562 187.175 62.825 187.175Q61.465626 187.175 60.809376 186.26875Q60.153126 185.3625 60.121876 183.55L60.121876 182.1125Q60.121876 180.22188 60.7625 179.31563Q61.41875 178.39375 62.809376 178.39375Q64.18437 178.39375 64.84062 179.28438Q65.49687 180.15938 65.5125 182.00313L65.5125 183.40938ZM64.41875 181.925Q64.41875 180.55 64.02812 179.925Q63.653126 179.28438 62.809376 179.28438Q61.98125 179.28438 61.590626 179.925Q61.215626 180.55 61.215626 181.84688L61.215626 183.58125Q61.215626 184.95625 61.60625 185.62813Q62.0125 186.28438 62.825 186.28438Q63.621876 186.28438 64.0125 185.65938Q64.40312 185.03438 64.41875 183.70625L64.41875 181.925Z" fill-rule="nonzero"/><path fill="#757575" d="M60.653126 138.24753L61.090626 133.99753L65.46562 133.99753L65.46562 134.99753L62.0125 134.99753L61.746876 137.32565Q62.3875 136.95065 63.184376 136.95065Q64.34062 136.95065 65.02812 137.7319Q65.71562 138.49753 65.71562 139.81003Q65.71562 141.12253 64.99687 141.88815Q64.29375 142.65378 63.0125 142.65378Q61.8875 142.65378 61.16875 142.02878Q60.45 141.38815 60.35625 140.27878L61.371876 140.27878Q61.48125 141.01315 61.903126 141.38815Q62.325 141.76315 63.0125 141.76315Q63.7625 141.76315 64.2 141.24753Q64.6375 140.7319 64.6375 139.82565Q64.6375 138.96628 64.16875 138.45065Q63.7 137.93503 62.91875 137.93503Q62.215626 137.93503 61.809376 138.2319L61.528126 138.46628L60.653126 138.24753Z" fill-rule="nonzero"/><path fill="#757575" d="M56.715626 98.00755L55.6375 98.00755L55.6375 90.7888L53.45 91.58568L53.45 90.6013L56.559376 89.42943L56.715626 89.42943L56.715626 98.00755ZM65.5125 94.36693Q65.5125 96.27318 64.85625 97.21068Q64.21562 98.13255 62.825 98.13255Q61.465626 98.13255 60.809376 97.2263Q60.153126 96.32005 60.121876 94.50755L60.121876 93.07005Q60.121876 91.17943 60.7625 90.27318Q61.41875 89.3513 62.809376 89.3513Q64.18437 89.3513 64.84062 90.24193Q65.49687 91.11693 65.5125 92.96068L65.5125 94.36693ZM64.41875 92.88255Q64.41875 91.50755 64.02812 90.88255Q63.653126 90.24193 62.809376 90.24193Q61.98125 90.24193 61.590626 90.88255Q61.215626 91.50755 61.215626 92.80443L61.215626 94.5388Q61.215626 95.9138 61.60625 96.58568Q62.0125 97.24193 62.825 97.24193Q63.621876 97.24193 64.0125 96.61693Q64.40312 95.99193 64.41875 94.6638L64.41875 92.88255Z" fill-rule="nonzero"/><path fill="#757575" d="M56.715626 53.48633L55.6375 53.48633L55.6375 46.26758L53.45 47.064453L53.45 46.08008L56.559376 44.908203L56.715626 44.908203L56.715626 53.48633ZM60.653126 49.20508L61.090626 44.95508L65.46562 44.95508L65.46562 45.95508L62.0125 45.95508L61.746876 48.283203Q62.3875 47.908203 63.184376 47.908203Q64.34062 47.908203 65.02812 48.689453Q65.71562 49.45508 65.71562 50.76758Q65.71562 52.08008 64.99687 52.845703Q64.29375 53.61133 63.0125 53.61133Q61.8875 53.61133 61.16875 52.98633Q60.45 52.345703 60.35625 51.23633L61.371876 51.23633Q61.48125 51.970703 61.903126 52.345703Q62.325 52.720703 63.0125 52.720703Q63.7625 52.720703 64.2 52.20508Q64.6375 51.689453 64.6375 50.783203Q64.6375 49.92383 64.16875 49.408203Q63.7 48.89258 62.91875 48.89258Q62.215626 48.89258 61.809376 49.189453L61.528126 49.42383L60.653126 49.20508Z" fill-rule="nonzero"/><path fill="#757575" d="M145.19838 196.26875L145.63588 192.01875L150.01088 192.01875L150.01088 193.01875L146.55775 193.01875L146.29213 195.34688Q146.93275 194.97188 147.72963 194.97188Q148.88588 194.97188 149.57338 195.75313Q150.26088 196.51875 150.26088 197.83125Q150.26088 199.14375 149.54213 199.90938Q148.839 200.675 147.55775 200.675Q146.43275 200.675 145.714 200.05Q144.99525 199.40938 144.9015 198.3L145.91713 198.3Q146.0265 199.03438 146.44838 199.40938Q146.87025 199.78438 147.55775 199.78438Q148.30775 199.78438 148.74525 199.26875Q149.18275 198.75313 149.18275 197.84688Q149.18275 196.9875 148.714 196.47188Q148.24525 195.95625 147.464 195.95625Q146.76088 195.95625 146.35463 196.25313L146.07338 196.4875L145.19838 196.26875Z" fill-rule="nonzero"/><path fill="#757575" d="M224.8512 200.55L223.77307 200.55L223.77307 193.33125L221.58557 194.12813L221.58557 193.14375L224.69495 191.97188L224.8512 191.97188L224.8512 200.55ZM233.64807 196.90938Q233.64807 198.81563 232.99182 199.75313Q232.3512 200.675 230.96057 200.675Q229.6012 200.675 228.94495 199.76875Q228.2887 198.8625 228.25745 197.05L228.25745 195.6125Q228.25745 193.72188 228.89807 192.81563Q229.55432 191.89375 230.94495 191.89375Q232.31995 191.89375 232.9762 192.78438Q233.63245 193.65938 233.64807 195.50313L233.64807 196.90938ZM232.55432 195.425Q232.55432 194.05 232.1637 193.425Q231.7887 192.78438 230.94495 192.78438Q230.11682 192.78438 229.7262 193.425Q229.3512 194.05 229.3512 195.34688L229.3512 197.08125Q229.3512 198.45625 229.74182 199.12813Q230.14807 199.78438 230.96057 199.78438Q231.75745 199.78438 232.14807 199.15938Q232.5387 198.53438 232.55432 197.20625L232.55432 195.425Z" fill-rule="nonzero"/><path fill="#757575" d="M304.94153 200.55L303.8634 200.55L303.8634 193.33125L301.6759 194.12813L301.6759 193.14375L304.78528 191.97188L304.94153 191.97188L304.94153 200.55ZM308.87903 196.26875L309.31653 192.01875L313.69153 192.01875L313.69153 193.01875L310.2384 193.01875L309.97278 195.34688Q310.6134 194.97188 311.41028 194.97188Q312.56653 194.97188 313.25403 195.75313Q313.94153 196.51875 313.94153 197.83125Q313.94153 199.14375 313.22278 199.90938Q312.51965 200.675 311.2384 200.675Q310.1134 200.675 309.39465 200.05Q308.6759 199.40938 308.58215 198.3L309.59778 198.3Q309.70715 199.03438 310.12903 199.40938Q310.5509 199.78438 311.2384 199.78438Q311.9884 199.78438 312.4259 199.26875Q312.8634 198.75313 312.8634 197.84688Q312.8634 196.9875 312.39465 196.47188Q311.9259 195.95625 311.14465 195.95625Q310.44153 195.95625 310.03528 196.25313L309.75403 196.4875L308.87903 196.26875Z" fill-rule="nonzero"/><path fill="#757575" d="M387.06308 200.55L381.46933 200.55L381.46933 199.76875L384.42245 196.4875Q385.0787 195.7375 385.3287 195.28438Q385.5787 194.81563 385.5787 194.31563Q385.5787 193.64375 385.17245 193.22188Q384.78183 192.78438 384.09433 192.78438Q383.29745 192.78438 382.84433 193.25313Q382.3912 193.70625 382.3912 194.53438L381.31308 194.53438Q381.31308 193.34688 382.06308 192.62813Q382.8287 191.89375 384.09433 191.89375Q385.29745 191.89375 385.98495 192.51875Q386.67245 193.14375 386.67245 194.19063Q386.67245 195.44063 385.06308 197.19063L382.78183 199.65938L387.06308 199.65938L387.06308 200.55ZM393.8287 196.90938Q393.8287 198.81563 393.17245 199.75313Q392.53183 200.675 391.1412 200.675Q389.78183 200.675 389.12558 199.76875Q388.46933 198.8625 388.43808 197.05L388.43808 195.6125Q388.43808 193.72188 389.0787 192.81563Q389.73495 191.89375 391.12558 191.89375Q392.50058 191.89375 393.15683 192.78438Q393.81308 193.65938 393.8287 195.50313L393.8287 196.90938ZM392.73495 195.425Q392.73495 194.05 392.34433 193.425Q391.96933 192.78438 391.12558 192.78438Q390.29745 192.78438 389.90683 193.425Q389.53183 194.05 389.53183 195.34688L389.53183 197.08125Q389.53183 198.45625 389.92245 199.12813Q390.3287 199.78438 391.1412 199.78438Q391.93808 199.78438 392.3287 199.15938Q392.71933 198.53438 392.73495 197.20625L392.73495 195.425Z" fill-rule="nonzero"/><path fill="#757575" d="M22.528126 22.121876Q22.528126 23.79375 21.965626 25.04375Q21.403126 26.29375 20.371876 26.95Q19.340626 27.60625 17.965626 27.60625Q16.621876 27.60625 15.575 26.95Q14.54375 26.278126 13.965625 25.059376Q13.3875 23.840626 13.371875 22.23125L13.371875 21.403126Q13.371875 19.7625 13.934375 18.5125Q14.5125 17.246876 15.559375 16.590626Q16.60625 15.918751 17.95 15.918751Q19.309376 15.918751 20.35625 16.575Q21.403126 17.23125 21.965626 18.496876Q22.528126 19.746876 22.528126 21.403126L22.528126 22.121876ZM21.028126 21.3875Q21.028126 19.371876 20.215626 18.29375Q19.403126 17.2 17.95 17.2Q16.528126 17.2 15.7 18.29375Q14.8875 19.371876 14.871875 21.29375L14.871875 22.121876Q14.871875 24.090626 15.684375 25.215626Q16.5125 26.325 17.965626 26.325Q19.41875 26.325 20.215626 25.278126Q21.0125 24.215626 21.028126 22.23125L21.028126 21.3875ZM29.7625 26.60625Q28.91875 27.60625 27.29375 27.60625Q25.934376 27.60625 25.23125 26.825Q24.528126 26.028126 24.5125 24.496876L24.5125 18.996876L25.965626 18.996876L25.965626 24.45Q25.965626 26.371876 27.528126 26.371876Q29.184376 26.371876 29.73125 25.1375L29.73125 18.996876L31.16875 18.996876L31.16875 27.45L29.79375 27.45L29.7625 26.60625ZM35.5125 16.95L35.5125 18.996876L37.090626 18.996876L37.090626 20.10625L35.5125 20.10625L35.5125 25.35625Q35.5125 25.85625 35.715626 26.121876Q35.934376 26.371876 36.434376 26.371876Q36.684376 26.371876 37.121876 26.278126L37.121876 27.45Q36.559376 27.60625 36.0125 27.60625Q35.04375 27.60625 34.54375 27.028126Q34.059376 26.434376 34.059376 25.35625L34.059376 20.10625L32.528126 20.10625L32.528126 18.996876L34.059376 18.996876L34.059376 16.95L35.5125 16.95ZM45.684376 23.309376Q45.684376 25.246876 44.79375 26.434376Q43.91875 27.60625 42.41875 27.60625Q40.871876 27.60625 39.996876 26.621876L39.996876 30.7L38.54375 30.7L38.54375 18.996876L39.871876 18.996876L39.934376 19.934376Q40.825 18.840626 42.3875 18.840626Q43.91875 18.840626 44.79375 19.996876Q45.684376 21.1375 45.684376 23.184376L45.684376 23.309376ZM44.246876 23.153126Q44.246876 21.715626 43.6375 20.8875Q43.028126 20.059376 41.965626 20.059376Q40.653126 20.059376 39.996876 21.23125L39.996876 25.2625Q40.6375 26.41875 41.98125 26.41875Q43.0125 26.41875 43.621876 25.60625Q44.246876 24.778126 44.246876 23.153126ZM52.7625 26.60625Q51.91875 27.60625 50.29375 27.60625Q48.934376 27.60625 48.23125 26.825Q47.528126 26.028126 47.5125 24.496876L47.5125 18.996876L48.965626 18.996876L48.965626 24.45Q48.965626 26.371876 50.528126 26.371876Q52.184376 26.371876 52.73125 25.1375L52.73125 18.996876L54.16875 18.996876L54.16875 27.45L52.79375 27.45L52.7625 26.60625ZM58.5125 16.95L58.5125 18.996876L60.090626 18.996876L60.090626 20.10625L58.5125 20.10625L58.5125 25.35625Q58.5125 25.85625 58.715626 26.121876Q58.934376 26.371876 59.434376 26.371876Q59.684376 26.371876 60.121876 26.278126L60.121876 27.45Q59.559376 27.60625 59.0125 27.60625Q58.04375 27.60625 57.54375 27.028126Q57.059376 26.434376 57.059376 25.35625L57.059376 20.10625L55.528126 20.10625L55.528126 18.996876L57.059376 18.996876L57.059376 16.95L58.5125 16.95ZM67.27812 22.996876L67.27812 27.45L65.77812 27.45L65.77812 16.075L69.96562 16.075Q71.84062 16.075 72.8875 17.028126Q73.95 17.98125 73.95 19.54375Q73.95 21.2 72.91875 22.10625Q71.8875 22.996876 69.95 22.996876L67.27812 22.996876ZM67.27812 21.7625L69.96562 21.7625Q71.16875 21.7625 71.80937 21.2Q72.45 20.6375 72.45 19.559376Q72.45 18.54375 71.80937 17.934376Q71.16875 17.325 70.05937 17.309376L67.27812 17.309376L67.27812 21.7625ZM75.16875 23.1375Q75.16875 21.903126 75.65312 20.91875Q76.1375 19.91875 77.0125 19.3875Q77.8875 18.840626 78.99687 18.840626Q80.73125 18.840626 81.79375 20.04375Q82.85625 21.23125 82.85625 23.215626L82.85625 23.309376Q82.85625 24.54375 82.3875 25.528126Q81.91875 26.5125 81.02812 27.059376Q80.15312 27.60625 79.0125 27.60625Q77.29375 27.60625 76.23125 26.41875Q75.16875 25.215626 75.16875 23.246876L75.16875 23.1375ZM76.62187 23.309376Q76.62187 24.715626 77.2625 25.575Q77.91875 26.41875 79.0125 26.41875Q80.12187 26.41875 80.7625 25.559376Q81.41875 24.7 81.41875 23.1375Q81.41875 21.746876 80.74687 20.8875Q80.09062 20.028126 78.99687 20.028126Q77.93437 20.028126 77.27812 20.8875Q76.62187 21.73125 76.62187 23.309376ZM92.02812 25.45L93.65312 18.996876L95.10625 18.996876L92.6375 27.45L91.46562 27.45L89.41875 21.04375L87.41875 27.45L86.24687 27.45L83.79375 18.996876L85.23125 18.996876L86.8875 25.325L88.85625 18.996876L90.02812 18.996876L92.02812 25.45ZM100.05937 27.60625Q98.34062 27.60625 97.2625 26.48125Q96.18437 25.340626 96.18437 23.45L96.18437 23.184376Q96.18437 21.934376 96.65312 20.95Q97.1375 19.95 97.99687 19.403126Q98.87187 18.840626 99.87187 18.840626Q101.52812 18.840626 102.43437 19.934376Q103.35625 21.0125 103.35625 23.028126L103.35625 23.6375L97.62187 23.6375Q97.65312 24.8875 98.35625 25.653126Q99.05937 26.41875 100.1375 26.41875Q100.90312 26.41875 101.43437 26.10625Q101.96562 25.79375 102.35625 25.278126L103.24687 25.965626Q102.18437 27.60625 100.05937 27.60625ZM99.87187 20.028126Q98.99687 20.028126 98.40312 20.66875Q97.80937 21.29375 97.66875 22.45L101.90312 22.45L101.90312 22.340626Q101.84062 21.23125 101.30937 20.6375Q100.77812 20.028126 99.87187 20.028126ZM108.6375 20.29375Q108.30937 20.23125 107.91875 20.23125Q106.49687 20.23125 105.99687 21.45L105.99687 27.45L104.54375 27.45L104.54375 18.996876L105.95 18.996876L105.98125 19.965626Q106.68437 18.840626 107.99687 18.840626Q108.41875 18.840626 108.6375 18.95L108.6375 20.29375ZM116.34062 25.48125L118.43437 18.996876L119.90312 18.996876L116.87187 27.45L115.77812 27.45L112.71562 18.996876L114.18437 18.996876L116.34062 25.48125ZM126.46562 25.2Q126.46562 24.621876 126.02812 24.29375Q125.59062 23.965626 124.48125 23.73125Q123.3875 23.496876 122.74687 23.16875Q122.10625 22.840626 121.79375 22.3875Q121.48125 21.934376 121.48125 21.309376Q121.48125 20.278126 122.35625 19.559376Q123.24687 18.840626 124.60625 18.840626Q126.04375 18.840626 126.93437 19.590626Q127.84062 20.325 127.84062 21.48125L126.3875 21.48125Q126.3875 20.8875 125.87187 20.465626Q125.37187 20.028126 124.60625 20.028126Q123.825 20.028126 123.37187 20.371876Q122.93437 20.715626 122.93437 21.2625Q122.93437 21.79375 123.34062 22.059376Q123.7625 22.325 124.84062 22.575Q125.91875 22.809376 126.59062 23.153126Q127.2625 23.48125 127.59062 23.95Q127.91875 24.41875 127.91875 25.10625Q127.91875 26.23125 127.0125 26.91875Q126.10625 27.60625 124.65312 27.60625Q123.6375 27.60625 122.85625 27.246876Q122.075 26.8875 121.6375 26.246876Q121.2 25.590626 121.2 24.840626L122.6375 24.840626Q122.68437 25.575 123.21562 25.996876Q123.7625 26.41875 124.65312 26.41875Q125.48125 26.41875 125.96562 26.090626Q126.46562 25.7625 126.46562 25.2ZM129.575 26.684376Q129.575 26.309376 129.79375 26.059376Q130.02812 25.809376 130.46562 25.809376Q130.91875 25.809376 131.1375 26.059376Q131.37187 26.309376 131.37187 26.684376Q131.37187 27.04375 131.1375 27.29375Q130.91875 27.54375 130.46562 27.54375Q130.02812 27.54375 129.79375 27.29375Q129.575 27.04375 129.575 26.684376ZM139.27812 26.215626L144.66875 26.215626L144.66875 27.45L137.77812 27.45L137.77812 16.075L139.27812 16.075L139.27812 26.215626ZM146.16875 23.1375Q146.16875 21.903126 146.65312 20.91875Q147.1375 19.91875 148.0125 19.3875Q148.8875 18.840626 149.99687 18.840626Q151.73125 18.840626 152.79375 20.04375Q153.85625 21.23125 153.85625 23.215626L153.85625 23.309376Q153.85625 24.54375 153.3875 25.528126Q152.91875 26.5125 152.02812 27.059376Q151.15312 27.60625 150.0125 27.60625Q148.29375 27.60625 147.23125 26.41875Q146.16875 25.215626 146.16875 23.246876L146.16875 23.1375ZM147.62187 23.309376Q147.62187 24.715626 148.2625 25.575Q148.91875 26.41875 150.0125 26.41875Q151.12187 26.41875 151.7625 25.559376Q152.41875 24.7 152.41875 23.1375Q152.41875 21.746876 151.74687 20.8875Q151.09062 20.028126 149.99687 20.028126Q148.93437 20.028126 148.27812 20.8875Q147.62187 21.73125 147.62187 23.309376ZM160.7625 27.45Q160.6375 27.2 160.55937 26.559376Q159.55937 27.60625 158.15312 27.60625Q156.90312 27.60625 156.10625 26.903126Q155.30937 26.184376 155.30937 25.10625Q155.30937 23.778126 156.30937 23.059376Q157.30937 22.325 159.1375 22.325L160.54375 22.325L160.54375 21.653126Q160.54375 20.903126 160.09062 20.45Q159.6375 19.996876 158.74687 19.996876Q157.98125 19.996876 157.45 20.3875Q156.93437 20.778126 156.93437 21.340626L155.48125 21.340626Q155.48125 20.7 155.91875 20.121876Q156.37187 19.528126 157.1375 19.184376Q157.91875 18.840626 158.84062 18.840626Q160.29375 18.840626 161.12187 19.575Q161.95 20.29375 161.98125 21.575L161.98125 25.465626Q161.98125 26.6375 162.27812 27.325L162.27812 27.45L160.7625 27.45ZM158.37187 26.340626Q159.04375 26.340626 159.65312 25.996876Q160.2625 25.6375 160.54375 25.075L160.54375 23.340626L159.40312 23.340626Q156.74687 23.340626 156.74687 24.903126Q156.74687 25.575 157.2 25.965626Q157.65312 26.340626 158.37187 26.340626ZM164.2 23.153126Q164.2 21.2 165.12187 20.028126Q166.04375 18.840626 167.52812 18.840626Q169.0125 18.840626 169.8875 19.85625L169.8875 15.450001L171.325 15.450001L171.325 27.45L169.99687 27.45L169.93437 26.54375Q169.05937 27.60625 167.5125 27.60625Q166.04375 27.60625 165.12187 26.403126Q164.2 25.2 164.2 23.2625L164.2 23.153126ZM165.6375 23.309376Q165.6375 24.746876 166.23125 25.559376Q166.825 26.371876 167.87187 26.371876Q169.24687 26.371876 169.8875 25.1375L169.8875 21.2625Q169.23125 20.059376 167.8875 20.059376Q166.825 20.059376 166.23125 20.8875Q165.6375 21.7 165.6375 23.309376ZM181.95 22.840626L179.27812 22.840626L179.27812 27.45L177.7625 27.45L177.7625 16.075L181.52812 16.075Q183.45 16.075 184.48125 16.95Q185.52812 17.825 185.52812 19.496876Q185.52812 20.559376 184.95 21.35625Q184.37187 22.1375 183.35625 22.528126L186.02812 27.35625L186.02812 27.45L184.41875 27.45L181.95 22.840626ZM179.27812 21.621876L181.575 21.621876Q182.7 21.621876 183.35625 21.04375Q184.0125 20.465626 184.0125 19.496876Q184.0125 18.434376 183.3875 17.871876Q182.7625 17.309376 181.575 17.309376L179.27812 17.309376L179.27812 21.621876ZM191.05937 27.60625Q189.34062 27.60625 188.2625 26.48125Q187.18437 25.340626 187.18437 23.45L187.18437 23.184376Q187.18437 21.934376 187.65312 20.95Q188.1375 19.95 188.99687 19.403126Q189.87187 18.840626 190.87187 18.840626Q192.52812 18.840626 193.43437 19.934376Q194.35625 21.0125 194.35625 23.028126L194.35625 23.6375L188.62187 23.6375Q188.65312 24.8875 189.35625 25.653126Q190.05937 26.41875 191.1375 26.41875Q191.90312 26.41875 192.43437 26.10625Q192.96562 25.79375 193.35625 25.278126L194.24687 25.965626Q193.18437 27.60625 191.05937 27.60625ZM190.87187 20.028126Q189.99687 20.028126 189.40312 20.66875Q188.80937 21.29375 188.66875 22.45L192.90312 22.45L192.90312 22.340626Q192.84062 21.23125 192.30937 20.6375Q191.77812 20.028126 190.87187 20.028126ZM195.2 23.153126Q195.2 21.16875 196.10625 20.0125Q197.02812 18.840626 198.54375 18.840626Q200.09062 18.840626 200.95 19.934376L201.02812 18.996876L202.34062 18.996876L202.34062 27.246876Q202.34062 28.8875 201.37187 29.825Q200.40312 30.778126 198.7625 30.778126Q197.84062 30.778126 196.96562 30.3875Q196.09062 29.996876 195.6375 29.325L196.3875 28.45Q197.30937 29.60625 198.65312 29.60625Q199.71562 29.60625 200.29375 29.0125Q200.8875 28.41875 200.8875 27.325L200.8875 26.60625Q200.02812 27.60625 198.52812 27.60625Q197.04375 27.60625 196.12187 26.41875Q195.2 25.215626 195.2 23.153126ZM196.65312 23.309376Q196.65312 24.746876 197.23125 25.559376Q197.825 26.371876 198.8875 26.371876Q200.24687 26.371876 200.8875 25.1375L200.8875 21.278126Q200.23125 20.059376 198.90312 20.059376Q197.84062 20.059376 197.24687 20.8875Q196.65312 21.7 196.65312 23.309376ZM209.7625 26.60625Q208.91875 27.60625 207.29375 27.60625Q205.93437 27.60625 205.23125 26.825Q204.52812 26.028126 204.5125 24.496876L204.5125 18.996876L205.96562 18.996876L205.96562 24.45Q205.96562 26.371876 207.52812 26.371876Q209.18437 26.371876 209.73125 25.1375L209.73125 18.996876L211.16875 18.996876L211.16875 27.45L209.79375 27.45L209.7625 26.60625ZM215.12187 27.45L213.66875 27.45L213.66875 15.450001L215.12187 15.450001L215.12187 27.45ZM222.7625 27.45Q222.6375 27.2 222.55937 26.559376Q221.55937 27.60625 220.15312 27.60625Q218.90312 27.60625 218.10625 26.903126Q217.30937 26.184376 217.30937 25.10625Q217.30937 23.778126 218.30937 23.059376Q219.30937 22.325 221.1375 22.325L222.54375 22.325L222.54375 21.653126Q222.54375 20.903126 222.09062 20.45Q221.6375 19.996876 220.74687 19.996876Q219.98125 19.996876 219.45 20.3875Q218.93437 20.778126 218.93437 21.340626L217.48125 21.340626Q217.48125 20.7 217.91875 20.121876Q218.37187 19.528126 219.1375 19.184376Q219.91875 18.840626 220.84062 18.840626Q222.29375 18.840626 223.12187 19.575Q223.95 20.29375 223.98125 21.575L223.98125 25.465626Q223.98125 26.6375 224.27812 27.325L224.27812 27.45L222.7625 27.45ZM220.37187 26.340626Q221.04375 26.340626 221.65312 25.996876Q222.2625 25.6375 222.54375 25.075L222.54375 23.340626L221.40312 23.340626Q218.74687 23.340626 218.74687 24.903126Q218.74687 25.575 219.2 25.965626Q219.65312 26.340626 220.37187 26.340626ZM228.5125 16.95L228.5125 18.996876L230.09062 18.996876L230.09062 20.10625L228.5125 20.10625L228.5125 25.35625Q228.5125 25.85625 228.71562 26.121876Q228.93437 26.371876 229.43437 26.371876Q229.68437 26.371876 230.12187 26.278126L230.12187 27.45Q229.55937 27.60625 229.0125 27.60625Q228.04375 27.60625 227.54375 27.028126Q227.05937 26.434376 227.05937 25.35625L227.05937 20.10625L225.52812 20.10625L225.52812 18.996876L227.05937 18.996876L227.05937 16.95L228.5125 16.95ZM233.12187 27.45L231.66875 27.45L231.66875 18.996876L233.12187 18.996876L233.12187 27.45ZM231.55937 16.746876Q231.55937 16.403126 231.7625 16.16875Q231.98125 15.918751 232.40312 15.918751Q232.825 15.918751 233.04375 16.16875Q233.2625 16.403126 233.2625 16.7625Q233.2625 17.10625 233.04375 17.340626Q232.825 17.575 232.40312 17.575Q231.98125 17.575 231.7625 17.340626Q231.55937 17.10625 231.55937 16.746876ZM235.16875 23.1375Q235.16875 21.903126 235.65312 20.91875Q236.1375 19.91875 237.0125 19.3875Q237.8875 18.840626 238.99687 18.840626Q240.73125 18.840626 241.79375 20.04375Q242.85625 21.23125 242.85625 23.215626L242.85625 23.309376Q242.85625 24.54375 242.3875 25.528126Q241.91875 26.5125 241.02812 27.059376Q240.15312 27.60625 239.0125 27.60625Q237.29375 27.60625 236.23125 26.41875Q235.16875 25.215626 235.16875 23.246876L235.16875 23.1375ZM236.62187 23.309376Q236.62187 24.715626 237.2625 25.575Q237.91875 26.41875 239.0125 26.41875Q240.12187 26.41875 240.7625 25.559376Q241.41875 24.7 241.41875 23.1375Q241.41875 21.746876 240.74687 20.8875Q240.09062 20.028126 238.99687 20.028126Q237.93437 20.028126 237.27812 20.8875Q236.62187 21.73125 236.62187 23.309376ZM245.91875 18.996876L245.96562 20.059376Q246.93437 18.840626 248.49687 18.840626Q251.16875 18.840626 251.2 21.85625L251.2 27.45L249.74687 27.45L249.74687 21.85625Q249.74687 20.934376 249.325 20.496876Q248.91875 20.059376 248.05937 20.059376Q247.35625 20.059376 246.825 20.434376Q246.29375 20.809376 245.99687 21.41875L245.99687 27.45L244.54375 27.45L244.54375 18.996876L245.91875 18.996876ZM257.4969 22.825Q257.4969 21.059376 257.96564 19.434376Q258.4344 17.809376 259.3719 16.48125Q260.3094 15.153126 261.325 14.606251L261.6219 15.559376Q260.48126 16.434376 259.7469 18.23125Q259.0125 20.028126 258.95 22.2625L258.9344 22.91875Q258.9344 25.934376 260.04376 28.16875Q260.7 29.496876 261.6219 30.246876L261.325 31.121876Q260.27814 30.54375 259.34064 29.184376Q257.4969 26.528126 257.4969 22.825ZM269.6844 23.309376Q269.6844 25.246876 268.79376 26.434376Q267.91876 27.60625 266.41876 27.60625Q264.8719 27.60625 263.9969 26.621876L263.9969 30.7L262.54376 30.7L262.54376 18.996876L263.8719 18.996876L263.9344 19.934376Q264.825 18.840626 266.3875 18.840626Q267.91876 18.840626 268.79376 19.996876Q269.6844 21.1375 269.6844 23.184376L269.6844 23.309376ZM268.2469 23.153126Q268.2469 21.715626 267.6375 20.8875Q267.02814 20.059376 265.96564 20.059376Q264.65314 20.059376 263.9969 21.23125L263.9969 25.2625Q264.6375 26.41875 265.98126 26.41875Q267.0125 26.41875 267.6219 25.60625Q268.2469 24.778126 268.2469 23.153126ZM275.0594 27.60625Q273.34064 27.60625 272.2625 26.48125Q271.1844 25.340626 271.1844 23.45L271.1844 23.184376Q271.1844 21.934376 271.65314 20.95Q272.1375 19.95 272.9969 19.403126Q273.8719 18.840626 274.8719 18.840626Q276.52814 18.840626 277.4344 19.934376Q278.35626 21.0125 278.35626 23.028126L278.35626 23.6375L272.6219 23.6375Q272.65314 24.8875 273.35626 25.653126Q274.0594 26.41875 275.1375 26.41875Q275.90314 26.41875 276.4344 26.10625Q276.96564 25.79375 277.35626 25.278126L278.2469 25.965626Q277.1844 27.60625 275.0594 27.60625ZM274.8719 20.028126Q273.9969 20.028126 273.40314 20.66875Q272.8094 21.29375 272.66876 22.45L276.90314 22.45L276.90314 22.340626Q276.84064 21.23125 276.3094 20.6375Q275.77814 20.028126 274.8719 20.028126ZM283.6375 20.29375Q283.3094 20.23125 282.91876 20.23125Q281.4969 20.23125 280.9969 21.45L280.9969 27.45L279.54376 27.45L279.54376 18.996876L280.95 18.996876L280.98126 19.965626Q281.6844 18.840626 282.9969 18.840626Q283.41876 18.840626 283.6375 18.95L283.6375 20.29375ZM292.6375 20.29375Q292.3094 20.23125 291.91876 20.23125Q290.4969 20.23125 289.9969 21.45L289.9969 27.45L288.54376 27.45L288.54376 18.996876L289.95 18.996876L289.98126 19.965626Q290.6844 18.840626 291.9969 18.840626Q292.41876 18.840626 292.6375 18.95L292.6375 20.29375ZM298.7625 27.45Q298.6375 27.2 298.5594 26.559376Q297.5594 27.60625 296.15314 27.60625Q294.90314 27.60625 294.10626 26.903126Q293.3094 26.184376 293.3094 25.10625Q293.3094 23.778126 294.3094 23.059376Q295.3094 22.325 297.1375 22.325L298.54376 22.325L298.54376 21.653126Q298.54376 20.903126 298.09064 20.45Q297.6375 19.996876 296.7469 19.996876Q295.98126 19.996876 295.45 20.3875Q294.9344 20.778126 294.9344 21.340626L293.48126 21.340626Q293.48126 20.7 293.91876 20.121876Q294.3719 19.528126 295.1375 19.184376Q295.91876 18.840626 296.84064 18.840626Q298.29376 18.840626 299.1219 19.575Q299.95 20.29375 299.98126 21.575L299.98126 25.465626Q299.98126 26.6375 300.27814 27.325L300.27814 27.45L298.7625 27.45ZM296.3719 26.340626Q297.04376 26.340626 297.65314 25.996876Q298.2625 25.6375 298.54376 25.075L298.54376 23.340626L297.40314 23.340626Q294.7469 23.340626 294.7469 24.903126Q294.7469 25.575 295.2 25.965626Q295.65314 26.340626 296.3719 26.340626ZM304.1219 27.45L302.66876 27.45L302.66876 18.996876L304.1219 18.996876L304.1219 27.45ZM302.5594 16.746876Q302.5594 16.403126 302.7625 16.16875Q302.98126 15.918751 303.40314 15.918751Q303.825 15.918751 304.04376 16.16875Q304.2625 16.403126 304.2625 16.7625Q304.2625 17.10625 304.04376 17.340626Q303.825 17.575 303.40314 17.575Q302.98126 17.575 302.7625 17.340626Q302.5594 17.10625 302.5594 16.746876ZM308.1219 27.45L306.66876 27.45L306.66876 15.450001L308.1219 15.450001L308.1219 27.45ZM313.8875 22.903126Q313.8875 24.653126 313.41876 26.2625Q312.96564 27.85625 312.02814 29.2Q311.09064 30.559376 310.0594 31.121876L309.7469 30.246876Q310.95 29.325 311.6844 27.3875Q312.41876 25.434376 312.4344 23.059376L312.4344 22.809376Q312.4344 21.16875 312.09064 19.7625Q311.7469 18.35625 311.1219 17.246876Q310.5125 16.121876 309.7469 15.496876L310.0594 14.606251Q311.09064 15.184376 312.0125 16.528126Q312.95 17.85625 313.41876 19.465626Q313.8875 21.075 313.8875 22.903126Z" fill-rule="nonzero"/></svg>