<svg version="1.1" viewBox="0.0 0.0 404.0 249.0" fill="none" stroke="none" stroke-linecap="square" stroke-miterlimit="10" width="404" height="249" xmlns:xlink="http://www.w3.org/1999/xlink" xmlns="http://www.w3.org/2000/svg"><path fill="#ffffff" d="M0 0L404.0 0L404.0 249.0L0 249.0L0 0Z" fill-rule="nonzero"/><path fill="#ffffff" d="M0 0L404.0 0L404.0 249.0L0 249.0L0 0Z" fill-rule="nonzero"/><path stroke="#cccccc" stroke-width="1.0" stroke-linecap="butt" d="M147.5 47.5L147.5 182.5" fill-rule="nonzero"/><path stroke="#cccccc" stroke-width="1.0" stroke-linecap="butt" d="M227.5 47.5L227.5 182.5" fill-rule="nonzero"/><path stroke="#cccccc" stroke-width="1.0" stroke-linecap="butt" d="M307.5 47.5L307.5 182.5" fill-rule="nonzero"/><path stroke="#cccccc" stroke-width="1.0" stroke-linecap="butt" d="M387.5 47.5L387.5 182.5" fill-rule="nonzero"/><path stroke="#e6e6e6" stroke-width="1.0" stroke-linecap="butt" d="M131.5 47.5L131.5 182.5" fill-rule="nonzero"/><path stroke="#e6e6e6" stroke-width="1.0" stroke-linecap="butt" d="M115.5 47.5L115.5 182.5" fill-rule="nonzero"/><path stroke="#e6e6e6" stroke-width="1.0" stroke-linecap="butt" d="M99.5 47.5L99.5 182.5" fill-rule="nonzero"/><path stroke="#e6e6e6" stroke-width="1.0" stroke-linecap="butt" d="M83.5 47.5L83.5 182.5" fill-rule="nonzero"/><path stroke="#e6e6e6" stroke-width="1.0" stroke-linecap="butt" d="M211.5 47.5L211.5 182.5" fill-rule="nonzero"/><path stroke="#e6e6e6" stroke-width="1.0" stroke-linecap="butt" d="M195.5 47.5L195.5 182.5" fill-rule="nonzero"/><path stroke="#e6e6e6" stroke-width="1.0" stroke-linecap="butt" d="M179.5 47.5L179.5 182.5" fill-rule="nonzero"/><path stroke="#e6e6e6" stroke-width="1.0" stroke-linecap="butt" d="M163.5 47.5L163.5 182.5" fill-rule="nonzero"/><path stroke="#e6e6e6" stroke-width="1.0" stroke-linecap="butt" d="M291.5 47.5L291.5 182.5" fill-rule="nonzero"/><path stroke="#e6e6e6" stroke-width="1.0" stroke-linecap="butt" d="M275.5 47.5L275.5 182.5" fill-rule="nonzero"/><path stroke="#e6e6e6" stroke-width="1.0" stroke-linecap="butt" d="M259.5 47.5L259.5 182.5" fill-rule="nonzero"/><path stroke="#e6e6e6" stroke-width="1.0" stroke-linecap="butt" d="M243.5 47.5L243.5 182.5" fill-rule="nonzero"/><path stroke="#e6e6e6" stroke-width="1.0" stroke-linecap="butt" d="M371.5 47.5L371.5 182.5" fill-rule="nonzero"/><path stroke="#e6e6e6" stroke-width="1.0" stroke-linecap="butt" d="M355.5 47.5L355.5 182.5" fill-rule="nonzero"/><path stroke="#e6e6e6" stroke-width="1.0" stroke-linecap="butt" d="M339.5 47.5L339.5 182.5" fill-rule="nonzero"/><path stroke="#e6e6e6" stroke-width="1.0" stroke-linecap="butt" d="M323.5 47.5L323.5 182.5" fill-rule="nonzero"/><path stroke="#333333" stroke-width="1.0" stroke-linecap="butt" d="M72.5 182.5L391.5 182.5" fill-rule="nonzero"/><path stroke="#cccccc" stroke-width="1.0" stroke-linecap="butt" d="M72.5 137.5L391.5 137.5" fill-rule="nonzero"/><path stroke="#cccccc" stroke-width="1.0" stroke-linecap="butt" d="M72.5 92.5L391.5 92.5" fill-rule="nonzero"/><path stroke="#cccccc" stroke-width="1.0" stroke-linecap="butt" d="M72.5 47.5L391.5 47.5" fill-rule="nonzero"/><path stroke="#e6e6e6" stroke-width="1.0" stroke-linecap="butt" d="M72.5 146.5L391.5 146.5" fill-rule="nonzero"/><path stroke="#e6e6e6" stroke-width="1.0" stroke-linecap="butt" d="M72.5 155.5L391.5 155.5" fill-rule="nonzero"/><path stroke="#e6e6e6" stroke-width="1.0" stroke-linecap="butt" d="M72.5 164.5L391.5 164.5" fill-rule="nonzero"/><path stroke="#e6e6e6" stroke-width="1.0" stroke-linecap="butt" d="M72.5 173.5L391.5 173.5" fill-rule="nonzero"/><path stroke="#e6e6e6" stroke-width="1.0" stroke-linecap="butt" d="M72.5 101.5L391.5 101.5" fill-rule="nonzero"/><path stroke="#e6e6e6" stroke-width="1.0" stroke-linecap="butt" d="M72.5 110.5L391.5 110.5" fill-rule="nonzero"/><path stroke="#e6e6e6" stroke-width="1.0" stroke-linecap="butt" d="M72.5 119.5L391.5 119.5" fill-rule="nonzero"/><path stroke="#e6e6e6" stroke-width="1.0" stroke-linecap="butt" d="M72.5 128.5L391.5 128.5" fill-rule="nonzero"/><path stroke="#e6e6e6" stroke-width="1.0" stroke-linecap="butt" d="M72.5 56.5L391.5 56.5" fill-rule="nonzero"/><path stroke="#e6e6e6" stroke-width="1.0" stroke-linecap="butt" d="M72.5 65.5L391.5 65.5" fill-rule="nonzero"/><path stroke="#e6e6e6" stroke-width="1.0" stroke-linecap="butt" d="M72.5 74.5L391.5 74.5" fill-rule="nonzero"/><path stroke="#e6e6e6" stroke-width="1.0" stroke-linecap="butt" d="M72.5 83.5L391.5 83.5" fill-rule="nonzero"/><clipPath id="id_0"><path d="M72.45 47.25L391.55 47.25L391.55 182.55L72.45 182.55L72.45 47.25Z" clip-rule="nonzero"/></clipPath><path stroke="#ff0000" stroke-width="2.0" stroke-linecap="butt" clip-path="url(#id_0)" d="M72.45 164.51C72.45 164.51 74.97253 158.12083 76.233795 155.49C77.495056 152.85916 80.017586 149.10083 81.278854 146.47C82.540115 143.83917 83.801384 140.45667 85.062645 137.45C86.32391 134.44333 87.585175 131.06084 88.84644 128.43C90.107704 125.799164 93.05066 121.665 93.8915 119.41C94.732346 117.155 95.57319 112.12462 96.41403 110.39C97.254875 108.65539 107.34499 103.57131 112.81047 101.37C118.275955 99.16869 136.35408 94.90567 148.12589 92.35C159.89769 89.794334 181.75961 86.33667 198.57648 83.33C215.39334 80.32333 234.73274 77.09116 249.02707 74.31C263.3214 71.52883 277.61575 68.174774 291.91006 65.29C306.2044 62.405224 323.02127 59.0977 338.57687 56.27C354.13248 53.442303 391.55 47.25 391.55 47.25" fill-rule="nonzero"/><path fill="#424242" d="M180.125 232.62813L184.17188 232.62813L184.17188 233.55L178.98438 233.55L178.98438 225.01875L180.125 225.01875L180.125 232.62813ZM184.53125 230.31563Q184.53125 229.39375 184.89062 228.64375Q185.26562 227.89375 185.92188 227.50313Q186.57812 227.09688 187.40625 227.09688Q188.70312 227.09688 189.5 227.9875Q190.3125 228.87813 190.3125 230.37813L190.3125 230.45625Q190.3125 231.37813 189.95312 232.1125Q189.59375 232.84688 188.9375 233.26875Q188.28125 233.675 187.42188 233.675Q186.14062 233.675 185.32812 232.78438Q184.53125 231.87813 184.53125 230.39375L184.53125 230.31563ZM185.625 230.45625Q185.625 231.50313 186.10938 232.14375Q186.60938 232.78438 187.42188 232.78438Q188.25 232.78438 188.73438 232.14375Q189.21875 231.4875 189.21875 230.31563Q189.21875 229.28438 188.71875 228.64375Q188.23438 227.9875 187.40625 227.9875Q186.60938 227.9875 186.10938 228.62813Q185.625 229.25313 185.625 230.45625ZM195.73438 233.55Q195.64062 233.3625 195.57812 232.87813Q194.82812 233.675 193.78125 233.675Q192.84375 233.675 192.23438 233.14375Q191.64062 232.6125 191.64062 231.78438Q191.64062 230.8 192.39062 230.25313Q193.14062 229.70625 194.51562 229.70625L195.5625 229.70625L195.5625 229.20625Q195.5625 228.64375 195.21875 228.31563Q194.89062 227.97188 194.21875 227.97188Q193.64062 227.97188 193.25 228.26875Q192.85938 228.55 192.85938 228.97188L191.76562 228.97188Q191.76562 228.4875 192.09375 228.05Q192.4375 227.6125 193.01562 227.3625Q193.59375 227.09688 194.28125 227.09688Q195.39062 227.09688 196.0 227.64375Q196.625 228.19063 196.65625 229.14375L196.65625 232.06563Q196.65625 232.94063 196.875 233.45625L196.875 233.55L195.73438 233.55ZM193.9375 232.72188Q194.45312 232.72188 194.90625 232.45625Q195.35938 232.19063 195.5625 231.76875L195.5625 230.47188L194.71875 230.47188Q192.71875 230.47188 192.71875 231.64375Q192.71875 232.14375 193.0625 232.44063Q193.40625 232.72188 193.9375 232.72188ZM198.5625 230.33125Q198.5625 228.8625 199.25 227.9875Q199.9375 227.09688 201.0625 227.09688Q202.17188 227.09688 202.82812 227.84688L202.82812 224.55L203.90625 224.55L203.90625 233.55L202.90625 233.55L202.85938 232.8625Q202.20312 233.675 201.04688 233.675Q199.95312 233.675 199.25 232.76875Q198.5625 231.8625 198.5625 230.40938L198.5625 230.33125ZM199.64062 230.45625Q199.64062 231.53438 200.07812 232.14375Q200.53125 232.75313 201.3125 232.75313Q202.34375 232.75313 202.82812 231.81563L202.82812 228.90938Q202.34375 228.01875 201.32812 228.01875Q200.53125 228.01875 200.07812 228.62813Q199.64062 229.2375 199.64062 230.45625ZM212.125 230.09688L210.10938 230.09688L210.10938 233.55L208.98438 233.55L208.98438 225.01875L211.8125 225.01875Q213.25 225.01875 214.01562 225.675Q214.79688 226.33125 214.79688 227.58125Q214.79688 228.37813 214.35938 228.97188Q213.9375 229.56563 213.17188 229.8625L215.17188 233.47188L215.17188 233.55L213.96875 233.55L212.125 230.09688ZM210.10938 229.175L211.84375 229.175Q212.6875 229.175 213.17188 228.75313Q213.67188 228.31563 213.67188 227.58125Q213.67188 226.8 213.20312 226.37813Q212.73438 225.95625 211.84375 225.94063L210.10938 225.94063L210.10938 229.175ZM218.45312 233.675Q217.15625 233.675 216.34375 232.83125Q215.54688 231.97188 215.54688 230.55L215.54688 230.3625Q215.54688 229.40938 215.90625 228.675Q216.26562 227.925 216.90625 227.51875Q217.5625 227.09688 218.3125 227.09688Q219.54688 227.09688 220.23438 227.90938Q220.92188 228.72188 220.92188 230.2375L220.92188 230.69063L216.625 230.69063Q216.65625 231.62813 217.17188 232.20625Q217.70312 232.78438 218.51562 232.78438Q219.07812 232.78438 219.46875 232.55Q219.875 232.31563 220.1875 231.925L220.84375 232.44063Q220.04688 233.675 218.45312 233.675ZM218.3125 227.9875Q217.65625 227.9875 217.20312 228.47188Q216.76562 228.94063 216.67188 229.8L219.84375 229.8L219.84375 229.72188Q219.79688 228.89375 219.39062 228.44063Q219.0 227.9875 218.3125 227.9875ZM221.5625 230.33125Q221.5625 228.84688 222.25 227.97188Q222.9375 227.09688 224.0625 227.09688Q225.21875 227.09688 225.875 227.90938L225.92188 227.20625L226.92188 227.20625L226.92188 233.39375Q226.92188 234.62813 226.1875 235.33125Q225.45312 236.05 224.23438 236.05Q223.54688 236.05 222.89062 235.75313Q222.23438 235.45625 221.89062 234.95625L222.45312 234.3Q223.14062 235.15938 224.15625 235.15938Q224.9375 235.15938 225.375 234.70625Q225.82812 234.26875 225.82812 233.45625L225.82812 232.90938Q225.17188 233.675 224.04688 233.675Q222.9375 233.675 222.25 232.78438Q221.5625 231.87813 221.5625 230.33125ZM222.65625 230.45625Q222.65625 231.51875 223.09375 232.14375Q223.53125 232.75313 224.32812 232.75313Q225.34375 232.75313 225.82812 231.81563L225.82812 228.925Q225.32812 228.01875 224.32812 228.01875Q223.54688 228.01875 223.09375 228.62813Q222.65625 229.2375 222.65625 230.45625ZM232.73438 232.925Q232.10938 233.675 230.875 233.675Q229.85938 233.675 229.32812 233.08125Q228.79688 232.4875 228.79688 231.33125L228.79688 227.20625L229.875 227.20625L229.875 231.3Q229.875 232.75313 231.04688 232.75313Q232.29688 232.75313 232.70312 231.81563L232.70312 227.20625L233.79688 227.20625L233.79688 233.55L232.76562 233.55L232.73438 232.925ZM237.0 233.55L235.92188 233.55L235.92188 224.55L237.0 224.55L237.0 233.55ZM242.73438 233.55Q242.64062 233.3625 242.57812 232.87813Q241.82812 233.675 240.78125 233.675Q239.84375 233.675 239.23438 233.14375Q238.64062 232.6125 238.64062 231.78438Q238.64062 230.8 239.39062 230.25313Q240.14062 229.70625 241.51562 229.70625L242.5625 229.70625L242.5625 229.20625Q242.5625 228.64375 242.21875 228.31563Q241.89062 227.97188 241.21875 227.97188Q240.64062 227.97188 240.25 228.26875Q239.85938 228.55 239.85938 228.97188L238.76562 228.97188Q238.76562 228.4875 239.09375 228.05Q239.4375 227.6125 240.01562 227.3625Q240.59375 227.09688 241.28125 227.09688Q242.39062 227.09688 243.0 227.64375Q243.625 228.19063 243.65625 229.14375L243.65625 232.06563Q243.65625 232.94063 243.875 233.45625L243.875 233.55L242.73438 233.55ZM240.9375 232.72188Q241.45312 232.72188 241.90625 232.45625Q242.35938 232.19063 242.5625 231.76875L242.5625 230.47188L241.71875 230.47188Q239.71875 230.47188 239.71875 231.64375Q239.71875 232.14375 240.0625 232.44063Q240.40625 232.72188 240.9375 232.72188ZM247.29688 225.675L247.29688 227.20625L248.46875 227.20625L248.46875 228.05L247.29688 228.05L247.29688 231.97188Q247.29688 232.3625 247.45312 232.55Q247.60938 232.7375 247.98438 232.7375Q248.17188 232.7375 248.5 232.675L248.5 233.55Q248.07812 233.675 247.67188 233.675Q246.95312 233.675 246.57812 233.2375Q246.20312 232.78438 246.20312 231.97188L246.20312 228.05L245.04688 228.05L245.04688 227.20625L246.20312 227.20625L246.20312 225.675L247.29688 225.675ZM251.0 233.55L249.92188 233.55L249.92188 227.20625L251.0 227.20625L251.0 233.55ZM249.82812 225.53438Q249.82812 225.26875 249.98438 225.08125Q250.15625 224.89375 250.46875 224.89375Q250.78125 224.89375 250.9375 225.08125Q251.10938 225.26875 251.10938 225.53438Q251.10938 225.78438 250.9375 225.97188Q250.78125 226.14375 250.46875 226.14375Q250.15625 226.14375 249.98438 225.97188Q249.82812 225.78438 249.82812 225.53438ZM252.53125 230.31563Q252.53125 229.39375 252.89062 228.64375Q253.26562 227.89375 253.92188 227.50313Q254.57812 227.09688 255.40625 227.09688Q256.70312 227.09688 257.5 227.9875Q258.3125 228.87813 258.3125 230.37813L258.3125 230.45625Q258.3125 231.37813 257.95312 232.1125Q257.59375 232.84688 256.9375 233.26875Q256.28125 233.675 255.42188 233.675Q254.14062 233.675 253.32812 232.78438Q252.53125 231.87813 252.53125 230.39375L252.53125 230.31563ZM253.625 230.45625Q253.625 231.50313 254.10938 232.14375Q254.60938 232.78438 255.42188 232.78438Q256.25 232.78438 256.73438 232.14375Q257.21875 231.4875 257.21875 230.31563Q257.21875 229.28438 256.71875 228.64375Q256.23438 227.9875 255.40625 227.9875Q254.60938 227.9875 254.10938 228.62813Q253.625 229.25313 253.625 230.45625ZM260.84375 227.20625L260.875 228.00313Q261.60938 227.09688 262.78125 227.09688Q264.79688 227.09688 264.8125 229.3625L264.8125 233.55L263.71875 233.55L263.71875 229.34688Q263.71875 228.675 263.40625 228.34688Q263.10938 228.01875 262.45312 228.01875Q261.92188 228.01875 261.51562 228.3Q261.125 228.58125 260.90625 229.03438L260.90625 233.55L259.82812 233.55L259.82812 227.20625L260.84375 227.20625ZM269.78125 230.08125Q269.78125 228.76875 270.125 227.55Q270.48438 226.33125 271.1875 225.33125Q271.89062 224.33125 272.65625 223.925L272.875 224.64375Q272.01562 225.3 271.46875 226.64375Q270.92188 227.9875 270.875 229.65938L270.85938 230.15938Q270.85938 232.425 271.6875 234.08125Q272.1875 235.08125 272.875 235.64375L272.65625 236.3Q271.875 235.87813 271.15625 234.84688Q269.78125 232.8625 269.78125 230.08125ZM273.60938 226.65938Q273.60938 225.89375 274.09375 225.39375Q274.59375 224.89375 275.35938 224.89375Q276.14062 224.89375 276.625 225.39375Q277.10938 225.89375 277.10938 226.69063L277.10938 227.1125Q277.10938 227.87813 276.60938 228.37813Q276.125 228.8625 275.375 228.8625Q274.60938 228.8625 274.10938 228.37813Q273.60938 227.87813 273.60938 227.06563L273.60938 226.65938ZM274.42188 227.1125Q274.42188 227.56563 274.67188 227.8625Q274.9375 228.15938 275.375 228.15938Q275.79688 228.15938 276.04688 227.87813Q276.29688 227.58125 276.29688 227.08125L276.29688 226.65938Q276.29688 226.20625 276.04688 225.90938Q275.79688 225.59688 275.35938 225.59688Q274.92188 225.59688 274.67188 225.90938Q274.42188 226.20625 274.42188 226.675L274.42188 227.1125ZM277.76562 231.45625Q277.76562 230.69063 278.25 230.20625Q278.75 229.70625 279.51562 229.70625Q280.28125 229.70625 280.76562 230.20625Q281.26562 230.69063 281.26562 231.50313L281.26562 231.90938Q281.26562 232.675 280.78125 233.175Q280.29688 233.675 279.53125 233.675Q278.76562 233.675 278.26562 233.19063Q277.76562 232.69063 277.76562 231.87813L277.76562 231.45625ZM278.57812 231.90938Q278.57812 232.37813 278.82812 232.675Q279.09375 232.97188 279.53125 232.97188Q279.95312 232.97188 280.20312 232.69063Q280.45312 232.39375 280.45312 231.89375L280.45312 231.45625Q280.45312 230.9875 280.1875 230.70625Q279.9375 230.40938 279.51562 230.40938Q279.09375 230.40938 278.82812 230.70625Q278.57812 230.9875 278.57812 231.4875L278.57812 231.90938ZM275.625 232.90938L275.0 232.51875L279.17188 225.84688L279.78125 226.2375L275.625 232.90938ZM285.32812 230.14375Q285.32812 231.45625 284.98438 232.65938Q284.64062 233.84688 283.92188 234.8625Q283.21875 235.87813 282.45312 236.3L282.21875 235.64375Q283.125 234.95625 283.67188 233.50313Q284.21875 232.03438 284.23438 230.26875L284.23438 230.08125Q284.23438 228.84688 283.96875 227.78438Q283.71875 226.72188 283.25 225.89375Q282.79688 225.05 282.21875 224.58125L282.45312 223.925Q283.21875 224.34688 283.92188 225.34688Q284.625 226.34688 284.96875 227.56563Q285.32812 228.76875 285.32812 230.14375Z" fill-rule="nonzero"/><path fill="#424242" d="M20.465628 163.60312Q21.715628 163.60312 22.653128 164.025Q23.575003 164.44687 24.075003 165.22812Q24.575003 165.99374 24.575003 167.025Q24.575003 168.025 24.075003 168.80624Q23.575003 169.5875 22.668753 170.025Q21.746878 170.44687 20.528128 170.4625L19.918753 170.4625Q18.684378 170.4625 17.746878 170.04062Q16.809378 169.60312 16.309378 168.82187Q15.793753 168.04062 15.793753 167.025Q15.793753 166.00937 16.293753 165.22812Q16.793753 164.44687 17.731253 164.025Q18.668753 163.60312 19.918753 163.60312L20.465628 163.60312ZM19.903128 164.7125Q18.387503 164.7125 17.575003 165.32187Q16.762503 165.93124 16.762503 167.025Q16.762503 168.10312 17.575003 168.7125Q18.387503 169.32187 19.825003 169.3375L20.465628 169.3375Q21.934378 169.3375 22.778128 168.72812Q23.606253 168.10312 23.606253 167.025Q23.606253 165.93124 22.825003 165.3375Q22.028128 164.72812 20.543753 164.7125L19.903128 164.7125ZM23.825003 158.41562Q24.575003 159.04062 24.575003 160.275Q24.575003 161.29062 23.981253 161.82187Q23.387503 162.35312 22.231253 162.35312L18.106253 162.35312L18.106253 161.275L22.200003 161.275Q23.653128 161.275 23.653128 160.10312Q23.653128 158.85312 22.715628 158.44687L18.106253 158.44687L18.106253 157.35312L24.450003 157.35312L24.450003 158.38437L23.825003 158.41562ZM16.575003 153.85312L18.106253 153.85312L18.106253 152.68124L18.950003 152.68124L18.950003 153.85312L22.871878 153.85312Q23.262503 153.85312 23.450003 153.69687Q23.637503 153.54062 23.637503 153.16562Q23.637503 152.97812 23.575003 152.65L24.450003 152.65Q24.575003 153.07187 24.575003 153.47812Q24.575003 154.19687 24.137503 154.57187Q23.684378 154.94687 22.871878 154.94687L18.950003 154.94687L18.950003 156.10312L18.106253 156.10312L18.106253 154.94687L16.575003 154.94687L16.575003 153.85312ZM21.356253 145.97812Q22.793753 145.97812 23.684378 146.63437Q24.575003 147.29062 24.575003 148.43124Q24.575003 149.5875 23.840628 150.24374L26.887503 150.24374L26.887503 151.32187L18.106253 151.32187L18.106253 150.3375L18.809378 150.29062Q17.996878 149.61874 17.996878 148.44687Q17.996878 147.30624 18.856253 146.65Q19.715628 145.97812 21.246878 145.97812L21.356253 145.97812ZM21.231253 147.05624Q20.153128 147.05624 19.543753 147.525Q18.918753 147.97812 18.918753 148.775Q18.918753 149.75937 19.778128 150.24374L22.809378 150.24374Q23.684378 149.75937 23.684378 148.75937Q23.684378 147.97812 23.075003 147.525Q22.450003 147.05624 21.231253 147.05624ZM23.825003 140.41562Q24.575003 141.04062 24.575003 142.275Q24.575003 143.29062 23.981253 143.82187Q23.387503 144.35312 22.231253 144.35312L18.106253 144.35312L18.106253 143.275L22.200003 143.275Q23.653128 143.275 23.653128 142.10312Q23.653128 140.85312 22.715628 140.44687L18.106253 140.44687L18.106253 139.35312L24.450003 139.35312L24.450003 140.38437L23.825003 140.41562ZM16.575003 135.85312L18.106253 135.85312L18.106253 134.68124L18.950003 134.68124L18.950003 135.85312L22.871878 135.85312Q23.262503 135.85312 23.450003 135.69687Q23.637503 135.54062 23.637503 135.16562Q23.637503 134.97812 23.575003 134.65L24.450003 134.65Q24.575003 135.07187 24.575003 135.47812Q24.575003 136.19687 24.137503 136.57187Q23.684378 136.94687 22.871878 136.94687L18.950003 136.94687L18.950003 138.10312L18.106253 138.10312L18.106253 136.94687L16.575003 136.94687L16.575003 135.85312ZM21.746878 123.88438Q23.090628 124.04063 23.840628 124.88438Q24.575003 125.72813 24.575003 127.11875Q24.575003 128.63437 23.496878 129.54062Q22.403128 130.44687 20.575003 130.44687L19.762503 130.44687Q18.575003 130.44687 17.668753 130.025Q16.762503 129.60312 16.278128 128.82187Q15.793753 128.04062 15.793753 127.025Q15.793753 125.66563 16.559378 124.85313Q17.325003 124.025 18.653128 123.88438L18.653128 125.00938Q17.637503 125.16563 17.184378 125.65Q16.731253 126.13438 16.731253 127.025Q16.731253 128.10312 17.528128 128.7125Q18.325003 129.32187 19.793753 129.32187L20.621878 129.32187Q22.012503 129.32187 22.840628 128.74374Q23.653128 128.16562 23.653128 127.11875Q23.653128 126.18125 23.231253 125.68125Q22.793753 125.18125 21.746878 125.00938L21.746878 123.88438ZM23.825003 118.41563Q24.575003 119.04063 24.575003 120.275Q24.575003 121.29063 23.981253 121.82188Q23.387503 122.35313 22.231253 122.35313L18.106253 122.35313L18.106253 121.275L22.200003 121.275Q23.653128 121.275 23.653128 120.10313Q23.653128 118.85313 22.715628 118.44688L18.106253 118.44688L18.106253 117.35313L24.450003 117.35313L24.450003 118.38438L23.825003 118.41563ZM19.075003 112.25938Q19.043753 112.50938 19.043753 112.79063Q19.043753 113.86875 19.950003 114.24375L24.450003 114.24375L24.450003 115.32188L18.106253 115.32188L18.106253 114.275L18.840628 114.25938Q17.996878 113.72813 17.996878 112.74375Q17.996878 112.43125 18.075003 112.25938L19.075003 112.25938ZM19.075003 108.25938Q19.043753 108.50938 19.043753 108.79063Q19.043753 109.86875 19.950003 110.24375L24.450003 110.24375L24.450003 111.32188L18.106253 111.32188L18.106253 110.275L18.840628 110.25938Q17.996878 109.72813 17.996878 108.74375Q17.996878 108.43125 18.075003 108.25938L19.075003 108.25938ZM24.575003 104.69688Q24.575003 105.99375 23.731253 106.80625Q22.871878 107.60313 21.450003 107.60313L21.262503 107.60313Q20.309378 107.60313 19.575003 107.24375Q18.825003 106.88438 18.418753 106.24375Q17.996878 105.5875 17.996878 104.8375Q17.996878 103.60313 18.809378 102.91563Q19.621878 102.22813 21.137503 102.22813L21.590628 102.22813L21.590628 106.525Q22.528128 106.49375 23.106253 105.97813Q23.684378 105.44688 23.684378 104.63438Q23.684378 104.07188 23.450003 103.68125Q23.215628 103.275 22.825003 102.9625L23.340628 102.30625Q24.575003 103.10313 24.575003 104.69688ZM18.887503 104.8375Q18.887503 105.49375 19.371878 105.94688Q19.840628 106.38438 20.700003 106.47813L20.700003 103.30625L20.621878 103.30625Q19.793753 103.35313 19.340628 103.75938Q18.887503 104.15 18.887503 104.8375ZM18.106253 100.30625L18.903128 100.275Q17.996878 99.54063 17.996878 98.36875Q17.996878 96.35313 20.262503 96.3375L24.450003 96.3375L24.450003 97.43125L20.246878 97.43125Q19.575003 97.43125 19.246878 97.74375Q18.918753 98.04063 18.918753 98.69688Q18.918753 99.22813 19.200003 99.63438Q19.481253 100.025 19.934378 100.24375L24.450003 100.24375L24.450003 101.32188L18.106253 101.32188L18.106253 100.30625ZM16.575003 92.85313L18.106253 92.85313L18.106253 91.68125L18.950003 91.68125L18.950003 92.85313L22.871878 92.85313Q23.262503 92.85313 23.450003 92.69688Q23.637503 92.54063 23.637503 92.16563Q23.637503 91.97813 23.575003 91.65L24.450003 91.65Q24.575003 92.07188 24.575003 92.47813Q24.575003 93.19688 24.137503 93.57188Q23.684378 93.94688 22.871878 93.94688L18.950003 93.94688L18.950003 95.10313L18.106253 95.10313L18.106253 93.94688L16.575003 93.94688L16.575003 92.85313ZM20.981253 87.368744Q19.668753 87.368744 18.450003 87.024994Q17.231253 86.66562 16.231253 85.962494Q15.231253 85.25937 14.825003 84.493744L15.543753 84.274994Q16.200003 85.13437 17.543753 85.681244Q18.887503 86.22812 20.559378 86.274994L21.059378 86.29062Q23.325003 86.29062 24.981253 85.462494Q25.981253 84.962494 26.543753 84.274994L27.200003 84.493744Q26.778128 85.274994 25.746878 85.993744Q23.762503 87.368744 20.981253 87.368744ZM22.215628 78.44687L22.215628 82.024994L24.450003 82.82187L24.450003 83.97812L15.918753 80.72812L15.918753 79.743744L24.450003 76.47812L24.450003 77.63437L22.215628 78.44687ZM21.293753 81.681244L21.293753 78.774994L17.309378 80.22812L21.293753 81.681244ZM21.043753 72.82187Q22.356253 72.82187 23.559378 73.16562Q24.746878 73.50937 25.762503 74.22812Q26.778128 74.931244 27.200003 75.69687L26.543753 75.931244Q25.856253 75.024994 24.403128 74.47812Q22.934378 73.931244 21.168753 73.91562L20.981253 73.91562Q19.746878 73.91562 18.684378 74.181244Q17.621878 74.431244 16.793753 74.899994Q15.950003 75.35312 15.481253 75.931244L14.825003 75.69687Q15.246878 74.931244 16.246878 74.22812Q17.246878 73.524994 18.465628 73.181244Q19.668753 72.82187 21.043753 72.82187Z" fill-rule="nonzero"/><path fill="#757575" d="M65.5125 183.40938Q65.5125 185.31563 64.85625 186.25313Q64.21562 187.175 62.825 187.175Q61.465626 187.175 60.809376 186.26875Q60.153126 185.3625 60.121876 183.55L60.121876 182.1125Q60.121876 180.22188 60.7625 179.31563Q61.41875 178.39375 62.809376 178.39375Q64.18437 178.39375 64.84062 179.28438Q65.49687 180.15938 65.5125 182.00313L65.5125 183.40938ZM64.41875 181.925Q64.41875 180.55 64.02812 179.925Q63.653126 179.28438 62.809376 179.28438Q61.98125 179.28438 61.590626 179.925Q61.215626 180.55 61.215626 181.84688L61.215626 183.58125Q61.215626 184.95625 61.60625 185.62813Q62.0125 186.28438 62.825 186.28438Q63.621876 186.28438 64.0125 185.65938Q64.40312 185.03438 64.41875 183.70625L64.41875 181.925Z" fill-rule="nonzero"/><path fill="#757575" d="M55.5125 138.30937Q55.5125 140.21562 54.85625 141.15312Q54.215626 142.075 52.825 142.075Q51.465626 142.075 50.809376 141.16875Q50.153126 140.2625 50.121876 138.45L50.121876 137.0125Q50.121876 135.12187 50.7625 134.21562Q51.41875 133.29375 52.809376 133.29375Q54.184376 133.29375 54.840626 134.18437Q55.496876 135.05937 55.5125 136.90312L55.5125 138.30937ZM54.41875 136.825Q54.41875 135.45 54.028126 134.825Q53.653126 134.18437 52.809376 134.18437Q51.98125 134.18437 51.590626 134.825Q51.215626 135.45 51.215626 136.74687L51.215626 138.48125Q51.215626 139.85625 51.60625 140.52812Q52.0125 141.18437 52.825 141.18437Q53.621876 141.18437 54.0125 140.55937Q54.403126 139.93437 54.41875 138.60625L54.41875 136.825ZM57.29375 141.3875Q57.29375 141.10625 57.45 140.91875Q57.621876 140.73125 57.95 140.73125Q58.29375 140.73125 58.465626 140.91875Q58.6375 141.10625 58.6375 141.3875Q58.6375 141.65312 58.465626 141.84062Q58.29375 142.0125 57.95 142.0125Q57.621876 142.0125 57.45 141.84062Q57.29375 141.65312 57.29375 141.3875ZM60.653126 137.66875L61.090626 133.41875L65.46562 133.41875L65.46562 134.41875L62.0125 134.41875L61.746876 136.74687Q62.3875 136.37187 63.184376 136.37187Q64.34062 136.37187 65.02812 137.15312Q65.71562 137.91875 65.71562 139.23125Q65.71562 140.54375 64.99687 141.30937Q64.29375 142.075 63.0125 142.075Q61.8875 142.075 61.16875 141.45Q60.45 140.80937 60.35625 139.7L61.371876 139.7Q61.48125 140.43437 61.903126 140.80937Q62.325 141.18437 63.0125 141.18437Q63.7625 141.18437 64.2 140.66875Q64.6375 140.15312 64.6375 139.24687Q64.6375 138.3875 64.16875 137.87187Q63.7 137.35625 62.91875 137.35625Q62.215626 137.35625 61.809376 137.65312L61.528126 137.8875L60.653126 137.66875Z" fill-rule="nonzero"/><path fill="#757575" d="M63.715626 96.85L62.6375 96.85L62.6375 89.63125L60.45 90.42812L60.45 89.44375L63.559376 88.27187L63.715626 88.27187L63.715626 96.85Z" fill-rule="nonzero"/><path fill="#757575" d="M53.715626 51.75L52.6375 51.75L52.6375 44.53125L50.45 45.328125L50.45 44.34375L53.559376 43.171875L53.715626 43.171875L53.715626 51.75ZM57.29375 51.1875Q57.29375 50.90625 57.45 50.71875Q57.621876 50.53125 57.95 50.53125Q58.29375 50.53125 58.465626 50.71875Q58.6375 50.90625 58.6375 51.1875Q58.6375 51.453125 58.465626 51.640625Q58.29375 51.8125 57.95 51.8125Q57.621876 51.8125 57.45 51.640625Q57.29375 51.453125 57.29375 51.1875ZM60.653126 47.46875L61.090626 43.21875L65.46562 43.21875L65.46562 44.21875L62.0125 44.21875L61.746876 46.546875Q62.3875 46.171875 63.184376 46.171875Q64.34062 46.171875 65.02812 46.953125Q65.71562 47.71875 65.71562 49.03125Q65.71562 50.34375 64.99687 51.109375Q64.29375 51.875 63.0125 51.875Q61.8875 51.875 61.16875 51.25Q60.45 50.609375 60.35625 49.5L61.371876 49.5Q61.48125 50.234375 61.903126 50.609375Q62.325 50.984375 63.0125 50.984375Q63.7625 50.984375 64.2 50.46875Q64.6375 49.953125 64.6375 49.046875Q64.6375 48.1875 64.16875 47.671875Q63.7 47.15625 62.91875 47.15625Q62.215626 47.15625 61.809376 47.453125L61.528126 47.6875L60.653126 47.46875Z" fill-rule="nonzero"/><path fill="#757575" d="M145.19838 196.26875L145.63588 192.01875L150.01088 192.01875L150.01088 193.01875L146.55775 193.01875L146.29213 195.34688Q146.93275 194.97188 147.72963 194.97188Q148.88588 194.97188 149.57338 195.75313Q150.26088 196.51875 150.26088 197.83125Q150.26088 199.14375 149.54213 199.90938Q148.839 200.675 147.55775 200.675Q146.43275 200.675 145.714 200.05Q144.99525 199.40938 144.9015 198.3L145.91713 198.3Q146.0265 199.03438 146.44838 199.40938Q146.87025 199.78438 147.55775 199.78438Q148.30775 199.78438 148.74525 199.26875Q149.18275 198.75313 149.18275 197.84688Q149.18275 196.9875 148.714 196.47188Q148.24525 195.95625 147.464 195.95625Q146.76088 195.95625 146.35463 196.25313L146.07338 196.4875L145.19838 196.26875Z" fill-rule="nonzero"/><path fill="#757575" d="M224.8512 200.55L223.77307 200.55L223.77307 193.33125L221.58557 194.12813L221.58557 193.14375L224.69495 191.97188L224.8512 191.97188L224.8512 200.55ZM233.64807 196.90938Q233.64807 198.81563 232.99182 199.75313Q232.3512 200.675 230.96057 200.675Q229.6012 200.675 228.94495 199.76875Q228.2887 198.8625 228.25745 197.05L228.25745 195.6125Q228.25745 193.72188 228.89807 192.81563Q229.55432 191.89375 230.94495 191.89375Q232.31995 191.89375 232.9762 192.78438Q233.63245 193.65938 233.64807 195.50313L233.64807 196.90938ZM232.55432 195.425Q232.55432 194.05 232.1637 193.425Q231.7887 192.78438 230.94495 192.78438Q230.11682 192.78438 229.7262 193.425Q229.3512 194.05 229.3512 195.34688L229.3512 197.08125Q229.3512 198.45625 229.74182 199.12813Q230.14807 199.78438 230.96057 199.78438Q231.75745 199.78438 232.14807 199.15938Q232.5387 198.53438 232.55432 197.20625L232.55432 195.425Z" fill-rule="nonzero"/><path fill="#757575" d="M304.94153 200.55L303.8634 200.55L303.8634 193.33125L301.6759 194.12813L301.6759 193.14375L304.78528 191.97188L304.94153 191.97188L304.94153 200.55ZM308.87903 196.26875L309.31653 192.01875L313.69153 192.01875L313.69153 193.01875L310.2384 193.01875L309.97278 195.34688Q310.6134 194.97188 311.41028 194.97188Q312.56653 194.97188 313.25403 195.75313Q313.94153 196.51875 313.94153 197.83125Q313.94153 199.14375 313.22278 199.90938Q312.51965 200.675 311.2384 200.675Q310.1134 200.675 309.39465 200.05Q308.6759 199.40938 308.58215 198.3L309.59778 198.3Q309.70715 199.03438 310.12903 199.40938Q310.5509 199.78438 311.2384 199.78438Q311.9884 199.78438 312.4259 199.26875Q312.8634 198.75313 312.8634 197.84688Q312.8634 196.9875 312.39465 196.47188Q311.9259 195.95625 311.14465 195.95625Q310.44153 195.95625 310.03528 196.25313L309.75403 196.4875L308.87903 196.26875Z" fill-rule="nonzero"/><path fill="#757575" d="M387.06308 200.55L381.46933 200.55L381.46933 199.76875L384.42245 196.4875Q385.0787 195.7375 385.3287 195.28438Q385.5787 194.81563 385.5787 194.31563Q385.5787 193.64375 385.17245 193.22188Q384.78183 192.78438 384.09433 192.78438Q383.29745 192.78438 382.84433 193.25313Q382.3912 193.70625 382.3912 194.53438L381.31308 194.53438Q381.31308 193.34688 382.06308 192.62813Q382.8287 191.89375 384.09433 191.89375Q385.29745 191.89375 385.98495 192.51875Q386.67245 193.14375 386.67245 194.19063Q386.67245 195.44063 385.06308 197.19063L382.78183 199.65938L387.06308 199.65938L387.06308 200.55ZM393.8287 196.90938Q393.8287 198.81563 393.17245 199.75313Q392.53183 200.675 391.1412 200.675Q389.78183 200.675 389.12558 199.76875Q388.46933 198.8625 388.43808 197.05L388.43808 195.6125Q388.43808 193.72188 389.0787 192.81563Q389.73495 191.89375 391.12558 191.89375Q392.50058 191.89375 393.15683 192.78438Q393.81308 193.65938 393.8287 195.50313L393.8287 196.90938ZM392.73495 195.425Q392.73495 194.05 392.34433 193.425Q391.96933 192.78438 391.12558 192.78438Q390.29745 192.78438 389.90683 193.425Q389.53183 194.05 389.53183 195.34688L389.53183 197.08125Q389.53183 198.45625 389.92245 199.12813Q390.3287 199.78438 391.1412 199.78438Q391.93808 199.78438 392.3287 199.15938Q392.71933 198.53438 392.73495 197.20625L392.73495 195.425Z" fill-rule="nonzero"/><path fill="#757575" d="M22.528126 22.121876Q22.528126 23.79375 21.965626 25.04375Q21.403126 26.29375 20.371876 26.95Q19.340626 27.60625 17.965626 27.60625Q16.621876 27.60625 15.575 26.95Q14.54375 26.278126 13.965625 25.059376Q13.3875 23.840626 13.371875 22.23125L13.371875 21.403126Q13.371875 19.7625 13.934375 18.5125Q14.5125 17.246876 15.559375 16.590626Q16.60625 15.918751 17.95 15.918751Q19.309376 15.918751 20.35625 16.575Q21.403126 17.23125 21.965626 18.496876Q22.528126 19.746876 22.528126 21.403126L22.528126 22.121876ZM21.028126 21.3875Q21.028126 19.371876 20.215626 18.29375Q19.403126 17.2 17.95 17.2Q16.528126 17.2 15.7 18.29375Q14.8875 19.371876 14.871875 21.29375L14.871875 22.121876Q14.871875 24.090626 15.684375 25.215626Q16.5125 26.325 17.965626 26.325Q19.41875 26.325 20.215626 25.278126Q21.0125 24.215626 21.028126 22.23125L21.028126 21.3875ZM29.7625 26.60625Q28.91875 27.60625 27.29375 27.60625Q25.934376 27.60625 25.23125 26.825Q24.528126 26.028126 24.5125 24.496876L24.5125 18.996876L25.965626 18.996876L25.965626 24.45Q25.965626 26.371876 27.528126 26.371876Q29.184376 26.371876 29.73125 25.1375L29.73125 18.996876L31.16875 18.996876L31.16875 27.45L29.79375 27.45L29.7625 26.60625ZM35.5125 16.95L35.5125 18.996876L37.090626 18.996876L37.090626 20.10625L35.5125 20.10625L35.5125 25.35625Q35.5125 25.85625 35.715626 26.121876Q35.934376 26.371876 36.434376 26.371876Q36.684376 26.371876 37.121876 26.278126L37.121876 27.45Q36.559376 27.60625 36.0125 27.60625Q35.04375 27.60625 34.54375 27.028126Q34.059376 26.434376 34.059376 25.35625L34.059376 20.10625L32.528126 20.10625L32.528126 18.996876L34.059376 18.996876L34.059376 16.95L35.5125 16.95ZM45.684376 23.309376Q45.684376 25.246876 44.79375 26.434376Q43.91875 27.60625 42.41875 27.60625Q40.871876 27.60625 39.996876 26.621876L39.996876 30.7L38.54375 30.7L38.54375 18.996876L39.871876 18.996876L39.934376 19.934376Q40.825 18.840626 42.3875 18.840626Q43.91875 18.840626 44.79375 19.996876Q45.684376 21.1375 45.684376 23.184376L45.684376 23.309376ZM44.246876 23.153126Q44.246876 21.715626 43.6375 20.8875Q43.028126 20.059376 41.965626 20.059376Q40.653126 20.059376 39.996876 21.23125L39.996876 25.2625Q40.6375 26.41875 41.98125 26.41875Q43.0125 26.41875 43.621876 25.60625Q44.246876 24.778126 44.246876 23.153126ZM52.7625 26.60625Q51.91875 27.60625 50.29375 27.60625Q48.934376 27.60625 48.23125 26.825Q47.528126 26.028126 47.5125 24.496876L47.5125 18.996876L48.965626 18.996876L48.965626 24.45Q48.965626 26.371876 50.528126 26.371876Q52.184376 26.371876 52.73125 25.1375L52.73125 18.996876L54.16875 18.996876L54.16875 27.45L52.79375 27.45L52.7625 26.60625ZM58.5125 16.95L58.5125 18.996876L60.090626 18.996876L60.090626 20.10625L58.5125 20.10625L58.5125 25.35625Q58.5125 25.85625 58.715626 26.121876Q58.934376 26.371876 59.434376 26.371876Q59.684376 26.371876 60.121876 26.278126L60.121876 27.45Q59.559376 27.60625 59.0125 27.60625Q58.04375 27.60625 57.54375 27.028126Q57.059376 26.434376 57.059376 25.35625L57.059376 20.10625L55.528126 20.10625L55.528126 18.996876L57.059376 18.996876L57.059376 16.95L58.5125 16.95ZM74.1375 23.840626Q73.93437 25.6375 72.80937 26.621876Q71.68437 27.60625 69.825 27.60625Q67.80937 27.60625 66.59062 26.16875Q65.3875 24.715626 65.3875 22.29375L65.3875 21.2Q65.3875 19.60625 65.95 18.403126Q66.5125 17.2 67.54375 16.559376Q68.59062 15.918751 69.96562 15.918751Q71.77812 15.918751 72.87187 16.934376Q73.96562 17.934376 74.1375 19.73125L72.6375 19.73125Q72.43437 18.371876 71.77812 17.7625Q71.1375 17.153126 69.96562 17.153126Q68.52812 17.153126 67.7 18.215626Q66.8875 19.278126 66.8875 21.23125L66.8875 22.340626Q66.8875 24.184376 67.65312 25.278126Q68.43437 26.371876 69.825 26.371876Q71.075 26.371876 71.74687 25.809376Q72.41875 25.246876 72.6375 23.840626L74.1375 23.840626ZM80.7625 26.60625Q79.91875 27.60625 78.29375 27.60625Q76.93437 27.60625 76.23125 26.825Q75.52812 26.028126 75.5125 24.496876L75.5125 18.996876L76.96562 18.996876L76.96562 24.45Q76.96562 26.371876 78.52812 26.371876Q80.18437 26.371876 80.73125 25.1375L80.73125 18.996876L82.16875 18.996876L82.16875 27.45L80.79375 27.45L80.7625 26.60625ZM88.6375 20.29375Q88.30937 20.23125 87.91875 20.23125Q86.49687 20.23125 85.99687 21.45L85.99687 27.45L84.54375 27.45L84.54375 18.996876L85.95 18.996876L85.98125 19.965626Q86.68437 18.840626 87.99687 18.840626Q88.41875 18.840626 88.6375 18.95L88.6375 20.29375ZM93.6375 20.29375Q93.30937 20.23125 92.91875 20.23125Q91.49687 20.23125 90.99687 21.45L90.99687 27.45L89.54375 27.45L89.54375 18.996876L90.95 18.996876L90.98125 19.965626Q91.68437 18.840626 92.99687 18.840626Q93.41875 18.840626 93.6375 18.95L93.6375 20.29375ZM98.05937 27.60625Q96.34062 27.60625 95.2625 26.48125Q94.18437 25.340626 94.18437 23.45L94.18437 23.184376Q94.18437 21.934376 94.65312 20.95Q95.1375 19.95 95.99687 19.403126Q96.87187 18.840626 97.87187 18.840626Q99.52812 18.840626 100.43437 19.934376Q101.35625 21.0125 101.35625 23.028126L101.35625 23.6375L95.62187 23.6375Q95.65312 24.8875 96.35625 25.653126Q97.05937 26.41875 98.1375 26.41875Q98.90312 26.41875 99.43437 26.10625Q99.96562 25.79375 100.35625 25.278126L101.24687 25.965626Q100.18437 27.60625 98.05937 27.60625ZM97.87187 20.028126Q96.99687 20.028126 96.40312 20.66875Q95.80937 21.29375 95.66875 22.45L99.90312 22.45L99.90312 22.340626Q99.84062 21.23125 99.30937 20.6375Q98.77812 20.028126 97.87187 20.028126ZM103.91875 18.996876L103.96562 20.059376Q104.93437 18.840626 106.49687 18.840626Q109.16875 18.840626 109.2 21.85625L109.2 27.45L107.74687 27.45L107.74687 21.85625Q107.74687 20.934376 107.325 20.496876Q106.91875 20.059376 106.05937 20.059376Q105.35625 20.059376 104.825 20.434376Q104.29375 20.809376 103.99687 21.41875L103.99687 27.45L102.54375 27.45L102.54375 18.996876L103.91875 18.996876ZM113.5125 16.95L113.5125 18.996876L115.09062 18.996876L115.09062 20.10625L113.5125 20.10625L113.5125 25.35625Q113.5125 25.85625 113.71562 26.121876Q113.93437 26.371876 114.43437 26.371876Q114.68437 26.371876 115.12187 26.278126L115.12187 27.45Q114.55937 27.60625 114.0125 27.60625Q113.04375 27.60625 112.54375 27.028126Q112.05937 26.434376 112.05937 25.35625L112.05937 20.10625L110.52812 20.10625L110.52812 18.996876L112.05937 18.996876L112.05937 16.95L113.5125 16.95ZM123.34062 25.48125L125.43437 18.996876L126.90312 18.996876L123.87187 27.45L122.77812 27.45L119.71562 18.996876L121.18437 18.996876L123.34062 25.48125ZM133.46562 25.2Q133.46562 24.621876 133.02812 24.29375Q132.59062 23.965626 131.48125 23.73125Q130.3875 23.496876 129.74687 23.16875Q129.10625 22.840626 128.79375 22.3875Q128.48125 21.934376 128.48125 21.309376Q128.48125 20.278126 129.35625 19.559376Q130.24687 18.840626 131.60625 18.840626Q133.04375 18.840626 133.93437 19.590626Q134.84062 20.325 134.84062 21.48125L133.3875 21.48125Q133.3875 20.8875 132.87187 20.465626Q132.37187 20.028126 131.60625 20.028126Q130.825 20.028126 130.37187 20.371876Q129.93437 20.715626 129.93437 21.2625Q129.93437 21.79375 130.34062 22.059376Q130.7625 22.325 131.84062 22.575Q132.91875 22.809376 133.59062 23.153126Q134.2625 23.48125 134.59062 23.95Q134.91875 24.41875 134.91875 25.10625Q134.91875 26.23125 134.0125 26.91875Q133.10625 27.60625 131.65312 27.60625Q130.6375 27.60625 129.85625 27.246876Q129.075 26.8875 128.6375 26.246876Q128.2 25.590626 128.2 24.840626L129.6375 24.840626Q129.68437 25.575 130.21562 25.996876Q130.7625 26.41875 131.65312 26.41875Q132.48125 26.41875 132.96562 26.090626Q133.46562 25.7625 133.46562 25.2ZM136.575 26.684376Q136.575 26.309376 136.79375 26.059376Q137.02812 25.809376 137.46562 25.809376Q137.91875 25.809376 138.1375 26.059376Q138.37187 26.309376 138.37187 26.684376Q138.37187 27.04375 138.1375 27.29375Q137.91875 27.54375 137.46562 27.54375Q137.02812 27.54375 136.79375 27.29375Q136.575 27.04375 136.575 26.684376ZM146.27812 26.215626L151.66875 26.215626L151.66875 27.45L144.77812 27.45L144.77812 16.075L146.27812 16.075L146.27812 26.215626ZM153.16875 23.1375Q153.16875 21.903126 153.65312 20.91875Q154.1375 19.91875 155.0125 19.3875Q155.8875 18.840626 156.99687 18.840626Q158.73125 18.840626 159.79375 20.04375Q160.85625 21.23125 160.85625 23.215626L160.85625 23.309376Q160.85625 24.54375 160.3875 25.528126Q159.91875 26.5125 159.02812 27.059376Q158.15312 27.60625 157.0125 27.60625Q155.29375 27.60625 154.23125 26.41875Q153.16875 25.215626 153.16875 23.246876L153.16875 23.1375ZM154.62187 23.309376Q154.62187 24.715626 155.2625 25.575Q155.91875 26.41875 157.0125 26.41875Q158.12187 26.41875 158.7625 25.559376Q159.41875 24.7 159.41875 23.1375Q159.41875 21.746876 158.74687 20.8875Q158.09062 20.028126 156.99687 20.028126Q155.93437 20.028126 155.27812 20.8875Q154.62187 21.73125 154.62187 23.309376ZM167.7625 27.45Q167.6375 27.2 167.55937 26.559376Q166.55937 27.60625 165.15312 27.60625Q163.90312 27.60625 163.10625 26.903126Q162.30937 26.184376 162.30937 25.10625Q162.30937 23.778126 163.30937 23.059376Q164.30937 22.325 166.1375 22.325L167.54375 22.325L167.54375 21.653126Q167.54375 20.903126 167.09062 20.45Q166.6375 19.996876 165.74687 19.996876Q164.98125 19.996876 164.45 20.3875Q163.93437 20.778126 163.93437 21.340626L162.48125 21.340626Q162.48125 20.7 162.91875 20.121876Q163.37187 19.528126 164.1375 19.184376Q164.91875 18.840626 165.84062 18.840626Q167.29375 18.840626 168.12187 19.575Q168.95 20.29375 168.98125 21.575L168.98125 25.465626Q168.98125 26.6375 169.27812 27.325L169.27812 27.45L167.7625 27.45ZM165.37187 26.340626Q166.04375 26.340626 166.65312 25.996876Q167.2625 25.6375 167.54375 25.075L167.54375 23.340626L166.40312 23.340626Q163.74687 23.340626 163.74687 24.903126Q163.74687 25.575 164.2 25.965626Q164.65312 26.340626 165.37187 26.340626ZM171.2 23.153126Q171.2 21.2 172.12187 20.028126Q173.04375 18.840626 174.52812 18.840626Q176.0125 18.840626 176.8875 19.85625L176.8875 15.450001L178.325 15.450001L178.325 27.45L176.99687 27.45L176.93437 26.54375Q176.05937 27.60625 174.5125 27.60625Q173.04375 27.60625 172.12187 26.403126Q171.2 25.2 171.2 23.2625L171.2 23.153126ZM172.6375 23.309376Q172.6375 24.746876 173.23125 25.559376Q173.825 26.371876 174.87187 26.371876Q176.24687 26.371876 176.8875 25.1375L176.8875 21.2625Q176.23125 20.059376 174.8875 20.059376Q173.825 20.059376 173.23125 20.8875Q172.6375 21.7 172.6375 23.309376ZM188.95 22.840626L186.27812 22.840626L186.27812 27.45L184.7625 27.45L184.7625 16.075L188.52812 16.075Q190.45 16.075 191.48125 16.95Q192.52812 17.825 192.52812 19.496876Q192.52812 20.559376 191.95 21.35625Q191.37187 22.1375 190.35625 22.528126L193.02812 27.35625L193.02812 27.45L191.41875 27.45L188.95 22.840626ZM186.27812 21.621876L188.575 21.621876Q189.7 21.621876 190.35625 21.04375Q191.0125 20.465626 191.0125 19.496876Q191.0125 18.434376 190.3875 17.871876Q189.7625 17.309376 188.575 17.309376L186.27812 17.309376L186.27812 21.621876ZM198.05937 27.60625Q196.34062 27.60625 195.2625 26.48125Q194.18437 25.340626 194.18437 23.45L194.18437 23.184376Q194.18437 21.934376 194.65312 20.95Q195.1375 19.95 195.99687 19.403126Q196.87187 18.840626 197.87187 18.840626Q199.52812 18.840626 200.43437 19.934376Q201.35625 21.0125 201.35625 23.028126L201.35625 23.6375L195.62187 23.6375Q195.65312 24.8875 196.35625 25.653126Q197.05937 26.41875 198.1375 26.41875Q198.90312 26.41875 199.43437 26.10625Q199.96562 25.79375 200.35625 25.278126L201.24687 25.965626Q200.18437 27.60625 198.05937 27.60625ZM197.87187 20.028126Q196.99687 20.028126 196.40312 20.66875Q195.80937 21.29375 195.66875 22.45L199.90312 22.45L199.90312 22.340626Q199.84062 21.23125 199.30937 20.6375Q198.77812 20.028126 197.87187 20.028126ZM202.2 23.153126Q202.2 21.16875 203.10625 20.0125Q204.02812 18.840626 205.54375 18.840626Q207.09062 18.840626 207.95 19.934376L208.02812 18.996876L209.34062 18.996876L209.34062 27.246876Q209.34062 28.8875 208.37187 29.825Q207.40312 30.778126 205.7625 30.778126Q204.84062 30.778126 203.96562 30.3875Q203.09062 29.996876 202.6375 29.325L203.3875 28.45Q204.30937 29.60625 205.65312 29.60625Q206.71562 29.60625 207.29375 29.0125Q207.8875 28.41875 207.8875 27.325L207.8875 26.60625Q207.02812 27.60625 205.52812 27.60625Q204.04375 27.60625 203.12187 26.41875Q202.2 25.215626 202.2 23.153126ZM203.65312 23.309376Q203.65312 24.746876 204.23125 25.559376Q204.825 26.371876 205.8875 26.371876Q207.24687 26.371876 207.8875 25.1375L207.8875 21.278126Q207.23125 20.059376 205.90312 20.059376Q204.84062 20.059376 204.24687 20.8875Q203.65312 21.7 203.65312 23.309376ZM216.7625 26.60625Q215.91875 27.60625 214.29375 27.60625Q212.93437 27.60625 212.23125 26.825Q211.52812 26.028126 211.5125 24.496876L211.5125 18.996876L212.96562 18.996876L212.96562 24.45Q212.96562 26.371876 214.52812 26.371876Q216.18437 26.371876 216.73125 25.1375L216.73125 18.996876L218.16875 18.996876L218.16875 27.45L216.79375 27.45L216.7625 26.60625ZM222.12187 27.45L220.66875 27.45L220.66875 15.450001L222.12187 15.450001L222.12187 27.45ZM229.7625 27.45Q229.6375 27.2 229.55937 26.559376Q228.55937 27.60625 227.15312 27.60625Q225.90312 27.60625 225.10625 26.903126Q224.30937 26.184376 224.30937 25.10625Q224.30937 23.778126 225.30937 23.059376Q226.30937 22.325 228.1375 22.325L229.54375 22.325L229.54375 21.653126Q229.54375 20.903126 229.09062 20.45Q228.6375 19.996876 227.74687 19.996876Q226.98125 19.996876 226.45 20.3875Q225.93437 20.778126 225.93437 21.340626L224.48125 21.340626Q224.48125 20.7 224.91875 20.121876Q225.37187 19.528126 226.1375 19.184376Q226.91875 18.840626 227.84062 18.840626Q229.29375 18.840626 230.12187 19.575Q230.95 20.29375 230.98125 21.575L230.98125 25.465626Q230.98125 26.6375 231.27812 27.325L231.27812 27.45L229.7625 27.45ZM227.37187 26.340626Q228.04375 26.340626 228.65312 25.996876Q229.2625 25.6375 229.54375 25.075L229.54375 23.340626L228.40312 23.340626Q225.74687 23.340626 225.74687 24.903126Q225.74687 25.575 226.2 25.965626Q226.65312 26.340626 227.37187 26.340626ZM235.5125 16.95L235.5125 18.996876L237.09062 18.996876L237.09062 20.10625L235.5125 20.10625L235.5125 25.35625Q235.5125 25.85625 235.71562 26.121876Q235.93437 26.371876 236.43437 26.371876Q236.68437 26.371876 237.12187 26.278126L237.12187 27.45Q236.55937 27.60625 236.0125 27.60625Q235.04375 27.60625 234.54375 27.028126Q234.05937 26.434376 234.05937 25.35625L234.05937 20.10625L232.52812 20.10625L232.52812 18.996876L234.05937 18.996876L234.05937 16.95L235.5125 16.95ZM240.12187 27.45L238.66875 27.45L238.66875 18.996876L240.12187 18.996876L240.12187 27.45ZM238.55937 16.746876Q238.55937 16.403126 238.7625 16.16875Q238.98125 15.918751 239.40312 15.918751Q239.825 15.918751 240.04375 16.16875Q240.2625 16.403126 240.2625 16.7625Q240.2625 17.10625 240.04375 17.340626Q239.825 17.575 239.40312 17.575Q238.98125 17.575 238.7625 17.340626Q238.55937 17.10625 238.55937 16.746876ZM242.16875 23.1375Q242.16875 21.903126 242.65312 20.91875Q243.1375 19.91875 244.0125 19.3875Q244.8875 18.840626 245.99687 18.840626Q247.73125 18.840626 248.79375 20.04375Q249.85625 21.23125 249.85625 23.215626L249.85625 23.309376Q249.85625 24.54375 249.3875 25.528126Q248.91875 26.5125 248.02812 27.059376Q247.15312 27.60625 246.0125 27.60625Q244.29375 27.60625 243.23125 26.41875Q242.16875 25.215626 242.16875 23.246876L242.16875 23.1375ZM243.62187 23.309376Q243.62187 24.715626 244.2625 25.575Q244.91875 26.41875 246.0125 26.41875Q247.12187 26.41875 247.7625 25.559376Q248.41875 24.7 248.41875 23.1375Q248.41875 21.746876 247.74687 20.8875Q247.09062 20.028126 245.99687 20.028126Q244.93437 20.028126 244.27812 20.8875Q243.62187 21.73125 243.62187 23.309376ZM252.91875 18.996876L252.96562 20.059376Q253.93437 18.840626 255.49687 18.840626Q258.16876 18.840626 258.2 21.85625L258.2 27.45L256.7469 27.45L256.7469 21.85625Q256.7469 20.934376 256.325 20.496876Q255.91875 20.059376 255.05937 20.059376Q254.35625 20.059376 253.825 20.434376Q253.29375 20.809376 252.99687 21.41875L252.99687 27.45L251.54375 27.45L251.54375 18.996876L252.91875 18.996876ZM264.4969 22.825Q264.4969 21.059376 264.96564 19.434376Q265.4344 17.809376 266.3719 16.48125Q267.3094 15.153126 268.325 14.606251L268.6219 15.559376Q267.48126 16.434376 266.7469 18.23125Q266.0125 20.028126 265.95 22.2625L265.9344 22.91875Q265.9344 25.934376 267.04376 28.16875Q267.7 29.496876 268.6219 30.246876L268.325 31.121876Q267.27814 30.54375 266.34064 29.184376Q264.4969 26.528126 264.4969 22.825ZM276.6844 23.309376Q276.6844 25.246876 275.79376 26.434376Q274.91876 27.60625 273.41876 27.60625Q271.8719 27.60625 270.9969 26.621876L270.9969 30.7L269.54376 30.7L269.54376 18.996876L270.8719 18.996876L270.9344 19.934376Q271.825 18.840626 273.3875 18.840626Q274.91876 18.840626 275.79376 19.996876Q276.6844 21.1375 276.6844 23.184376L276.6844 23.309376ZM275.2469 23.153126Q275.2469 21.715626 274.6375 20.8875Q274.02814 20.059376 272.96564 20.059376Q271.65314 20.059376 270.9969 21.23125L270.9969 25.2625Q271.6375 26.41875 272.98126 26.41875Q274.0125 26.41875 274.6219 25.60625Q275.2469 24.778126 275.2469 23.153126ZM282.0594 27.60625Q280.34064 27.60625 279.2625 26.48125Q278.1844 25.340626 278.1844 23.45L278.1844 23.184376Q278.1844 21.934376 278.65314 20.95Q279.1375 19.95 279.9969 19.403126Q280.8719 18.840626 281.8719 18.840626Q283.52814 18.840626 284.4344 19.934376Q285.35626 21.0125 285.35626 23.028126L285.35626 23.6375L279.6219 23.6375Q279.65314 24.8875 280.35626 25.653126Q281.0594 26.41875 282.1375 26.41875Q282.90314 26.41875 283.4344 26.10625Q283.96564 25.79375 284.35626 25.278126L285.2469 25.965626Q284.1844 27.60625 282.0594 27.60625ZM281.8719 20.028126Q280.9969 20.028126 280.40314 20.66875Q279.8094 21.29375 279.66876 22.45L283.90314 22.45L283.90314 22.340626Q283.84064 21.23125 283.3094 20.6375Q282.77814 20.028126 281.8719 20.028126ZM290.6375 20.29375Q290.3094 20.23125 289.91876 20.23125Q288.4969 20.23125 287.9969 21.45L287.9969 27.45L286.54376 27.45L286.54376 18.996876L287.95 18.996876L287.98126 19.965626Q288.6844 18.840626 289.9969 18.840626Q290.41876 18.840626 290.6375 18.95L290.6375 20.29375ZM299.6375 20.29375Q299.3094 20.23125 298.91876 20.23125Q297.4969 20.23125 296.9969 21.45L296.9969 27.45L295.54376 27.45L295.54376 18.996876L296.95 18.996876L296.98126 19.965626Q297.6844 18.840626 298.9969 18.840626Q299.41876 18.840626 299.6375 18.95L299.6375 20.29375ZM305.7625 27.45Q305.6375 27.2 305.5594 26.559376Q304.5594 27.60625 303.15314 27.60625Q301.90314 27.60625 301.10626 26.903126Q300.3094 26.184376 300.3094 25.10625Q300.3094 23.778126 301.3094 23.059376Q302.3094 22.325 304.1375 22.325L305.54376 22.325L305.54376 21.653126Q305.54376 20.903126 305.09064 20.45Q304.6375 19.996876 303.7469 19.996876Q302.98126 19.996876 302.45 20.3875Q301.9344 20.778126 301.9344 21.340626L300.48126 21.340626Q300.48126 20.7 300.91876 20.121876Q301.3719 19.528126 302.1375 19.184376Q302.91876 18.840626 303.84064 18.840626Q305.29376 18.840626 306.1219 19.575Q306.95 20.29375 306.98126 21.575L306.98126 25.465626Q306.98126 26.6375 307.27814 27.325L307.27814 27.45L305.7625 27.45ZM303.3719 26.340626Q304.04376 26.340626 304.65314 25.996876Q305.2625 25.6375 305.54376 25.075L305.54376 23.340626L304.40314 23.340626Q301.7469 23.340626 301.7469 24.903126Q301.7469 25.575 302.2 25.965626Q302.65314 26.340626 303.3719 26.340626ZM311.1219 27.45L309.66876 27.45L309.66876 18.996876L311.1219 18.996876L311.1219 27.45ZM309.5594 16.746876Q309.5594 16.403126 309.7625 16.16875Q309.98126 15.918751 310.40314 15.918751Q310.825 15.918751 311.04376 16.16875Q311.2625 16.403126 311.2625 16.7625Q311.2625 17.10625 311.04376 17.340626Q310.825 17.575 310.40314 17.575Q309.98126 17.575 309.7625 17.340626Q309.5594 17.10625 309.5594 16.746876ZM315.1219 27.45L313.66876 27.45L313.66876 15.450001L315.1219 15.450001L315.1219 27.45ZM320.8875 22.903126Q320.8875 24.653126 320.41876 26.2625Q319.96564 27.85625 319.02814 29.2Q318.09064 30.559376 317.0594 31.121876L316.7469 30.246876Q317.95 29.325 318.6844 27.3875Q319.41876 25.434376 319.4344 23.059376L319.4344 22.809376Q319.4344 21.16875 319.09064 19.7625Q318.7469 18.35625 318.1219 17.246876Q317.5125 16.121876 316.7469 15.496876L317.0594 14.606251Q318.09064 15.184376 319.0125 16.528126Q319.95 17.85625 320.41876 19.465626Q320.8875 21.075 320.8875 22.903126Z" fill-rule="nonzero"/></svg>