<svg version="1.1" viewBox="0.0 0.0 403.0 249.0" fill="none" stroke="none" stroke-linecap="square" stroke-miterlimit="10" width="403" height="249" xmlns:xlink="http://www.w3.org/1999/xlink" xmlns="http://www.w3.org/2000/svg"><path fill="#ffffff" d="M0 0L403.0 0L403.0 249.0L0 249.0L0 0Z" fill-rule="nonzero"/><path fill="#ffffff" d="M0 0L403.0 0L403.0 249.0L0 249.0L0 0Z" fill-rule="nonzero"/><path stroke="#333333" stroke-width="1.0" stroke-linecap="butt" d="M72.5 47.5L72.5 182.5" fill-rule="nonzero"/><path stroke="#cccccc" stroke-width="1.0" stroke-linecap="butt" d="M151.5 47.5L151.5 182.5" fill-rule="nonzero"/><path stroke="#cccccc" stroke-width="1.0" stroke-linecap="butt" d="M231.5 47.5L231.5 182.5" fill-rule="nonzero"/><path stroke="#cccccc" stroke-width="1.0" stroke-linecap="butt" d="M311.5 47.5L311.5 182.5" fill-rule="nonzero"/><path stroke="#cccccc" stroke-width="1.0" stroke-linecap="butt" d="M390.5 47.5L390.5 182.5" fill-rule="nonzero"/><path stroke="#e6e6e6" stroke-width="1.0" stroke-linecap="butt" d="M132.5 47.5L132.5 182.5" fill-rule="nonzero"/><path stroke="#e6e6e6" stroke-width="1.0" stroke-linecap="butt" d="M112.5 47.5L112.5 182.5" fill-rule="nonzero"/><path stroke="#e6e6e6" stroke-width="1.0" stroke-linecap="butt" d="M92.5 47.5L92.5 182.5" fill-rule="nonzero"/><path stroke="#e6e6e6" stroke-width="1.0" stroke-linecap="butt" d="M211.5 47.5L211.5 182.5" fill-rule="nonzero"/><path stroke="#e6e6e6" stroke-width="1.0" stroke-linecap="butt" d="M191.5 47.5L191.5 182.5" fill-rule="nonzero"/><path stroke="#e6e6e6" stroke-width="1.0" stroke-linecap="butt" d="M171.5 47.5L171.5 182.5" fill-rule="nonzero"/><path stroke="#e6e6e6" stroke-width="1.0" stroke-linecap="butt" d="M291.5 47.5L291.5 182.5" fill-rule="nonzero"/><path stroke="#e6e6e6" stroke-width="1.0" stroke-linecap="butt" d="M271.5 47.5L271.5 182.5" fill-rule="nonzero"/><path stroke="#e6e6e6" stroke-width="1.0" stroke-linecap="butt" d="M251.5 47.5L251.5 182.5" fill-rule="nonzero"/><path stroke="#e6e6e6" stroke-width="1.0" stroke-linecap="butt" d="M370.5 47.5L370.5 182.5" fill-rule="nonzero"/><path stroke="#e6e6e6" stroke-width="1.0" stroke-linecap="butt" d="M350.5 47.5L350.5 182.5" fill-rule="nonzero"/><path stroke="#e6e6e6" stroke-width="1.0" stroke-linecap="butt" d="M330.5 47.5L330.5 182.5" fill-rule="nonzero"/><path stroke="#cccccc" stroke-width="1.0" stroke-linecap="butt" d="M72.5 182.5L390.5 182.5" fill-rule="nonzero"/><path stroke="#cccccc" stroke-width="1.0" stroke-linecap="butt" d="M72.5 137.5L390.5 137.5" fill-rule="nonzero"/><path stroke="#cccccc" stroke-width="1.0" stroke-linecap="butt" d="M72.5 92.5L390.5 92.5" fill-rule="nonzero"/><path stroke="#cccccc" stroke-width="1.0" stroke-linecap="butt" d="M72.5 47.5L390.5 47.5" fill-rule="nonzero"/><path stroke="#e6e6e6" stroke-width="1.0" stroke-linecap="butt" d="M72.5 146.5L390.5 146.5" fill-rule="nonzero"/><path stroke="#e6e6e6" stroke-width="1.0" stroke-linecap="butt" d="M72.5 155.5L390.5 155.5" fill-rule="nonzero"/><path stroke="#e6e6e6" stroke-width="1.0" stroke-linecap="butt" d="M72.5 164.5L390.5 164.5" fill-rule="nonzero"/><path stroke="#e6e6e6" stroke-width="1.0" stroke-linecap="butt" d="M72.5 173.5L390.5 173.5" fill-rule="nonzero"/><path stroke="#e6e6e6" stroke-width="1.0" stroke-linecap="butt" d="M72.5 101.5L390.5 101.5" fill-rule="nonzero"/><path stroke="#e6e6e6" stroke-width="1.0" stroke-linecap="butt" d="M72.5 110.5L390.5 110.5" fill-rule="nonzero"/><path stroke="#e6e6e6" stroke-width="1.0" stroke-linecap="butt" d="M72.5 119.5L390.5 119.5" fill-rule="nonzero"/><path stroke="#e6e6e6" stroke-width="1.0" stroke-linecap="butt" d="M72.5 128.5L390.5 128.5" fill-rule="nonzero"/><path stroke="#e6e6e6" stroke-width="1.0" stroke-linecap="butt" d="M72.5 56.5L390.5 56.5" fill-rule="nonzero"/><path stroke="#e6e6e6" stroke-width="1.0" stroke-linecap="butt" d="M72.5 65.5L390.5 65.5" fill-rule="nonzero"/><path stroke="#e6e6e6" stroke-width="1.0" stroke-linecap="butt" d="M72.5 74.5L390.5 74.5" fill-rule="nonzero"/><path stroke="#e6e6e6" stroke-width="1.0" stroke-linecap="butt" d="M72.5 83.5L390.5 83.5" fill-rule="nonzero"/><clipPath id="id_0"><path d="M72.45 47.25L390.55 47.25L390.55 182.55L72.45 182.55L72.45 47.25Z" clip-rule="nonzero"/></clipPath><path stroke="#4285f4" stroke-width="2.0" stroke-linecap="butt" clip-path="url(#id_0)" d="M112.2125 62.584L132.09375 63.937L151.975 65.741L171.85625 67.094L191.7375 68.447L211.61874 70.251L231.5 71.153L251.38126 77.016L271.2625 89.644L291.14374 107.684L311.025 125.724L330.90625 141.058L350.7875 157.745L370.66876 176.687" fill-rule="nonzero"/><path fill="#424242" d="M189.54688 229.56563Q189.54688 230.81563 189.125 231.75313Q188.70312 232.675 187.92188 233.175Q187.15625 233.675 186.125 233.675Q185.125 233.675 184.34375 233.175Q183.5625 232.675 183.125 231.76875Q182.70312 230.84688 182.6875 229.62813L182.6875 229.01875Q182.6875 227.78438 183.10938 226.84688Q183.54688 225.90938 184.32812 225.40938Q185.10938 224.89375 186.125 224.89375Q187.14062 224.89375 187.92188 225.39375Q188.70312 225.89375 189.125 226.83125Q189.54688 227.76875 189.54688 229.01875L189.54688 229.56563ZM188.4375 229.00313Q188.4375 227.4875 187.82812 226.675Q187.21875 225.8625 186.125 225.8625Q185.04688 225.8625 184.4375 226.675Q183.82812 227.4875 183.8125 228.925L183.8125 229.56563Q183.8125 231.03438 184.42188 231.87813Q185.04688 232.70625 186.125 232.70625Q187.21875 232.70625 187.8125 231.925Q188.42188 231.12813 188.4375 229.64375L188.4375 229.00313ZM194.73438 232.925Q194.10938 233.675 192.875 233.675Q191.85938 233.675 191.32812 233.08125Q190.79688 232.4875 190.79688 231.33125L190.79688 227.20625L191.875 227.20625L191.875 231.3Q191.875 232.75313 193.04688 232.75313Q194.29688 232.75313 194.70312 231.81563L194.70312 227.20625L195.79688 227.20625L195.79688 233.55L194.76562 233.55L194.73438 232.925ZM199.29688 225.675L199.29688 227.20625L200.46875 227.20625L200.46875 228.05L199.29688 228.05L199.29688 231.97188Q199.29688 232.3625 199.45312 232.55Q199.60938 232.7375 199.98438 232.7375Q200.17188 232.7375 200.5 232.675L200.5 233.55Q200.07812 233.675 199.67188 233.675Q198.95312 233.675 198.57812 233.2375Q198.20312 232.78438 198.20312 231.97188L198.20312 228.05L197.04688 228.05L197.04688 227.20625L198.20312 227.20625L198.20312 225.675L199.29688 225.675ZM207.17188 230.45625Q207.17188 231.89375 206.51562 232.78438Q205.85938 233.675 204.71875 233.675Q203.5625 233.675 202.90625 232.94063L202.90625 235.9875L201.82812 235.9875L201.82812 227.20625L202.8125 227.20625L202.85938 227.90938Q203.53125 227.09688 204.70312 227.09688Q205.84375 227.09688 206.5 227.95625Q207.17188 228.81563 207.17188 230.34688L207.17188 230.45625ZM206.09375 230.33125Q206.09375 229.25313 205.625 228.64375Q205.17188 228.01875 204.375 228.01875Q203.39062 228.01875 202.90625 228.87813L202.90625 231.90938Q203.39062 232.78438 204.39062 232.78438Q205.17188 232.78438 205.625 232.175Q206.09375 231.55 206.09375 230.33125ZM212.73438 232.925Q212.10938 233.675 210.875 233.675Q209.85938 233.675 209.32812 233.08125Q208.79688 232.4875 208.79688 231.33125L208.79688 227.20625L209.875 227.20625L209.875 231.3Q209.875 232.75313 211.04688 232.75313Q212.29688 232.75313 212.70312 231.81563L212.70312 227.20625L213.79688 227.20625L213.79688 233.55L212.76562 233.55L212.73438 232.925ZM217.29688 225.675L217.29688 227.20625L218.46875 227.20625L218.46875 228.05L217.29688 228.05L217.29688 231.97188Q217.29688 232.3625 217.45312 232.55Q217.60938 232.7375 217.98438 232.7375Q218.17188 232.7375 218.5 232.675L218.5 233.55Q218.07812 233.675 217.67188 233.675Q216.95312 233.675 216.57812 233.2375Q216.20312 232.78438 216.20312 231.97188L216.20312 228.05L215.04688 228.05L215.04688 227.20625L216.20312 227.20625L216.20312 225.675L217.29688 225.675ZM229.26562 230.84688Q229.10938 232.19063 228.26562 232.94063Q227.42188 233.675 226.03125 233.675Q224.51562 233.675 223.60938 232.59688Q222.70312 231.50313 222.70312 229.675L222.70312 228.8625Q222.70312 227.675 223.125 226.76875Q223.54688 225.8625 224.32812 225.37813Q225.10938 224.89375 226.125 224.89375Q227.48438 224.89375 228.29688 225.65938Q229.125 226.425 229.26562 227.75313L228.14062 227.75313Q227.98438 226.7375 227.5 226.28438Q227.01562 225.83125 226.125 225.83125Q225.04688 225.83125 224.4375 226.62813Q223.82812 227.425 223.82812 228.89375L223.82812 229.72188Q223.82812 231.1125 224.40625 231.94063Q224.98438 232.75313 226.03125 232.75313Q226.96875 232.75313 227.46875 232.33125Q227.96875 231.89375 228.14062 230.84688L229.26562 230.84688ZM234.73438 232.925Q234.10938 233.675 232.875 233.675Q231.85938 233.675 231.32812 233.08125Q230.79688 232.4875 230.79688 231.33125L230.79688 227.20625L231.875 227.20625L231.875 231.3Q231.875 232.75313 233.04688 232.75313Q234.29688 232.75313 234.70312 231.81563L234.70312 227.20625L235.79688 227.20625L235.79688 233.55L234.76562 233.55L234.73438 232.925ZM240.89062 228.175Q240.64062 228.14375 240.35938 228.14375Q239.28125 228.14375 238.90625 229.05L238.90625 233.55L237.82812 233.55L237.82812 227.20625L238.875 227.20625L238.89062 227.94063Q239.42188 227.09688 240.40625 227.09688Q240.71875 227.09688 240.89062 227.175L240.89062 228.175ZM244.89062 228.175Q244.64062 228.14375 244.35938 228.14375Q243.28125 228.14375 242.90625 229.05L242.90625 233.55L241.82812 233.55L241.82812 227.20625L242.875 227.20625L242.89062 227.94063Q243.42188 227.09688 244.40625 227.09688Q244.71875 227.09688 244.89062 227.175L244.89062 228.175ZM248.45312 233.675Q247.15625 233.675 246.34375 232.83125Q245.54688 231.97188 245.54688 230.55L245.54688 230.3625Q245.54688 229.40938 245.90625 228.675Q246.26562 227.925 246.90625 227.51875Q247.5625 227.09688 248.3125 227.09688Q249.54688 227.09688 250.23438 227.90938Q250.92188 228.72188 250.92188 230.2375L250.92188 230.69063L246.625 230.69063Q246.65625 231.62813 247.17188 232.20625Q247.70312 232.78438 248.51562 232.78438Q249.07812 232.78438 249.46875 232.55Q249.875 232.31563 250.1875 231.925L250.84375 232.44063Q250.04688 233.675 248.45312 233.675ZM248.3125 227.9875Q247.65625 227.9875 247.20312 228.47188Q246.76562 228.94063 246.67188 229.8L249.84375 229.8L249.84375 229.72188Q249.79688 228.89375 249.39062 228.44063Q249.0 227.9875 248.3125 227.9875ZM252.84375 227.20625L252.875 228.00313Q253.60938 227.09688 254.78125 227.09688Q256.79688 227.09688 256.8125 229.3625L256.8125 233.55L255.71875 233.55L255.71875 229.34688Q255.71875 228.675 255.40625 228.34688Q255.10938 228.01875 254.45312 228.01875Q253.92188 228.01875 253.51562 228.3Q253.125 228.58125 252.90625 229.03438L252.90625 233.55L251.82812 233.55L251.82812 227.20625L252.84375 227.20625ZM260.29688 225.675L260.29688 227.20625L261.46875 227.20625L261.46875 228.05L260.29688 228.05L260.29688 231.97188Q260.29688 232.3625 260.45312 232.55Q260.60938 232.7375 260.98438 232.7375Q261.17188 232.7375 261.5 232.675L261.5 233.55Q261.07812 233.675 260.67188 233.675Q259.95312 233.675 259.57812 233.2375Q259.20312 232.78438 259.20312 231.97188L259.20312 228.05L258.04688 228.05L258.04688 227.20625L259.20312 227.20625L259.20312 225.675L260.29688 225.675ZM265.78125 230.08125Q265.78125 228.76875 266.125 227.55Q266.48438 226.33125 267.1875 225.33125Q267.89062 224.33125 268.65625 223.925L268.875 224.64375Q268.01562 225.3 267.46875 226.64375Q266.92188 227.9875 266.875 229.65938L266.85938 230.15938Q266.85938 232.425 267.6875 234.08125Q268.1875 235.08125 268.875 235.64375L268.65625 236.3Q267.875 235.87813 267.15625 234.84688Q265.78125 232.8625 265.78125 230.08125ZM274.70312 231.31563L271.125 231.31563L270.32812 233.55L269.17188 233.55L272.42188 225.01875L273.40625 225.01875L276.67188 233.55L275.51562 233.55L274.70312 231.31563ZM271.46875 230.39375L274.375 230.39375L272.92188 226.40938L271.46875 230.39375ZM280.32812 230.14375Q280.32812 231.45625 279.98438 232.65938Q279.64062 233.84688 278.92188 234.8625Q278.21875 235.87813 277.45312 236.3L277.21875 235.64375Q278.125 234.95625 278.67188 233.50313Q279.21875 232.03438 279.23438 230.26875L279.23438 230.08125Q279.23438 228.84688 278.96875 227.78438Q278.71875 226.72188 278.25 225.89375Q277.79688 225.05 277.21875 224.58125L277.45312 223.925Q278.21875 224.34688 278.92188 225.34688Q279.625 226.34688 279.96875 227.56563Q280.32812 228.76875 280.32812 230.14375Z" fill-rule="nonzero"/><path fill="#424242" d="M20.465628 188.60312Q21.715628 188.60312 22.653128 189.025Q23.575003 189.44687 24.075003 190.22812Q24.575003 190.99374 24.575003 192.025Q24.575003 193.025 24.075003 193.80624Q23.575003 194.5875 22.668753 195.025Q21.746878 195.44687 20.528128 195.4625L19.918753 195.4625Q18.684378 195.4625 17.746878 195.04062Q16.809378 194.60312 16.309378 193.82187Q15.793753 193.04062 15.793753 192.025Q15.793753 191.00937 16.293753 190.22812Q16.793753 189.44687 17.731253 189.025Q18.668753 188.60312 19.918753 188.60312L20.465628 188.60312ZM19.903128 189.7125Q18.387503 189.7125 17.575003 190.32187Q16.762503 190.93124 16.762503 192.025Q16.762503 193.10312 17.575003 193.7125Q18.387503 194.32187 19.825003 194.3375L20.465628 194.3375Q21.934378 194.3375 22.778128 193.72812Q23.606253 193.10312 23.606253 192.025Q23.606253 190.93124 22.825003 190.3375Q22.028128 189.72812 20.543753 189.7125L19.903128 189.7125ZM18.106253 186.30624L18.903128 186.275Q17.996878 185.54062 17.996878 184.36874Q17.996878 182.35312 20.262503 182.3375L24.450003 182.3375L24.450003 183.43124L20.246878 183.43124Q19.575003 183.43124 19.246878 183.74374Q18.918753 184.04062 18.918753 184.69687Q18.918753 185.22812 19.200003 185.63437Q19.481253 186.025 19.934378 186.24374L24.450003 186.24374L24.450003 187.32187L18.106253 187.32187L18.106253 186.30624ZM21.262503 178.07187L21.262503 180.93124L20.387503 180.93124L20.387503 178.07187L21.262503 178.07187ZM23.528128 176.025L23.528128 171.97812L24.450003 171.97812L24.450003 177.16562L15.918753 177.16562L15.918753 176.025L23.528128 176.025ZM21.215628 171.61874Q20.293753 171.61874 19.543753 171.25937Q18.793753 170.88437 18.403128 170.22812Q17.996878 169.57187 17.996878 168.74374Q17.996878 167.44687 18.887503 166.65Q19.778128 165.8375 21.278128 165.8375L21.356253 165.8375Q22.278128 165.8375 23.012503 166.19687Q23.746878 166.55624 24.168753 167.2125Q24.575003 167.86874 24.575003 168.72812Q24.575003 170.00937 23.684378 170.82187Q22.778128 171.61874 21.293753 171.61874L21.215628 171.61874ZM21.356253 170.525Q22.403128 170.525 23.043753 170.04062Q23.684378 169.54062 23.684378 168.72812Q23.684378 167.9 23.043753 167.41562Q22.387503 166.93124 21.215628 166.93124Q20.184378 166.93124 19.543753 167.43124Q18.887503 167.91562 18.887503 168.74374Q18.887503 169.54062 19.528128 170.04062Q20.153128 170.525 21.356253 170.525ZM24.450003 160.41562Q24.262503 160.50937 23.778128 160.57187Q24.575003 161.32187 24.575003 162.36874Q24.575003 163.30624 24.043753 163.91562Q23.512503 164.50937 22.684378 164.50937Q21.700003 164.50937 21.153128 163.75937Q20.606253 163.00937 20.606253 161.63437L20.606253 160.5875L20.106253 160.5875Q19.543753 160.5875 19.215628 160.93124Q18.871878 161.25937 18.871878 161.93124Q18.871878 162.50937 19.168753 162.9Q19.450003 163.29062 19.871878 163.29062L19.871878 164.38437Q19.387503 164.38437 18.950003 164.05624Q18.512503 163.7125 18.262503 163.13437Q17.996878 162.55624 17.996878 161.86874Q17.996878 160.75937 18.543753 160.15Q19.090628 159.525 20.043753 159.49374L22.965628 159.49374Q23.840628 159.49374 24.356253 159.275L24.450003 159.275L24.450003 160.41562ZM23.621878 162.2125Q23.621878 161.69687 23.356253 161.24374Q23.090628 160.79062 22.668753 160.5875L21.371878 160.5875L21.371878 161.43124Q21.371878 163.43124 22.543753 163.43124Q23.043753 163.43124 23.340628 163.0875Q23.621878 162.74374 23.621878 162.2125ZM21.231253 157.5875Q19.762503 157.5875 18.887503 156.9Q17.996878 156.2125 17.996878 155.0875Q17.996878 153.97812 18.746878 153.32187L15.450003 153.32187L15.450003 152.24374L24.450003 152.24374L24.450003 153.24374L23.762503 153.29062Q24.575003 153.94687 24.575003 155.10312Q24.575003 156.19687 23.668753 156.9Q22.762503 157.5875 21.309378 157.5875L21.231253 157.5875ZM21.356253 156.50937Q22.434378 156.50937 23.043753 156.07187Q23.653128 155.61874 23.653128 154.8375Q23.653128 153.80624 22.715628 153.32187L19.809378 153.32187Q18.918753 153.80624 18.918753 154.82187Q18.918753 155.61874 19.528128 156.07187Q20.137503 156.50937 21.356253 156.50937ZM20.465628 140.60312Q21.715628 140.60312 22.653128 141.025Q23.575003 141.44687 24.075003 142.22812Q24.575003 142.99374 24.575003 144.025Q24.575003 145.025 24.075003 145.80624Q23.575003 146.5875 22.668753 147.025Q21.746878 147.44687 20.528128 147.4625L19.918753 147.4625Q18.684378 147.4625 17.746878 147.04062Q16.809378 146.60312 16.309378 145.82187Q15.793753 145.04062 15.793753 144.025Q15.793753 143.00937 16.293753 142.22812Q16.793753 141.44687 17.731253 141.025Q18.668753 140.60312 19.918753 140.60312L20.465628 140.60312ZM19.903128 141.7125Q18.387503 141.7125 17.575003 142.32187Q16.762503 142.93124 16.762503 144.025Q16.762503 145.10312 17.575003 145.7125Q18.387503 146.32187 19.825003 146.3375L20.465628 146.3375Q21.934378 146.3375 22.778128 145.72812Q23.606253 145.10312 23.606253 144.025Q23.606253 142.93124 22.825003 142.3375Q22.028128 141.72812 20.543753 141.7125L19.903128 141.7125ZM23.825003 135.41562Q24.575003 136.04062 24.575003 137.275Q24.575003 138.29062 23.981253 138.82187Q23.387503 139.35312 22.231253 139.35312L18.106253 139.35312L18.106253 138.275L22.200003 138.275Q23.653128 138.275 23.653128 137.10312Q23.653128 135.85312 22.715628 135.44687L18.106253 135.44687L18.106253 134.35312L24.450003 134.35312L24.450003 135.38437L23.825003 135.41562ZM16.575003 130.85312L18.106253 130.85312L18.106253 129.68124L18.950003 129.68124L18.950003 130.85312L22.871878 130.85312Q23.262503 130.85312 23.450003 130.69687Q23.637503 130.54062 23.637503 130.16562Q23.637503 129.97812 23.575003 129.65L24.450003 129.65Q24.575003 130.07187 24.575003 130.47812Q24.575003 131.19687 24.137503 131.57187Q23.684378 131.94687 22.871878 131.94687L18.950003 131.94687L18.950003 133.10312L18.106253 133.10312L18.106253 131.94687L16.575003 131.94687L16.575003 130.85312ZM21.356253 122.97813Q22.793753 122.97813 23.684378 123.63438Q24.575003 124.29063 24.575003 125.43125Q24.575003 126.5875 23.840628 127.24375L26.887503 127.24375L26.887503 128.32187L18.106253 128.32187L18.106253 127.3375L18.809378 127.29063Q17.996878 126.61875 17.996878 125.44688Q17.996878 124.30625 18.856253 123.65Q19.715628 122.97813 21.246878 122.97813L21.356253 122.97813ZM21.231253 124.05625Q20.153128 124.05625 19.543753 124.525Q18.918753 124.97813 18.918753 125.775Q18.918753 126.75938 19.778128 127.24375L22.809378 127.24375Q23.684378 126.75938 23.684378 125.75938Q23.684378 124.97813 23.075003 124.525Q22.450003 124.05625 21.231253 124.05625ZM23.825003 117.41563Q24.575003 118.04063 24.575003 119.275Q24.575003 120.29063 23.981253 120.82188Q23.387503 121.35313 22.231253 121.35313L18.106253 121.35313L18.106253 120.275L22.200003 120.275Q23.653128 120.275 23.653128 119.10313Q23.653128 117.85313 22.715628 117.44688L18.106253 117.44688L18.106253 116.35313L24.450003 116.35313L24.450003 117.38438L23.825003 117.41563ZM16.575003 112.85313L18.106253 112.85313L18.106253 111.68125L18.950003 111.68125L18.950003 112.85313L22.871878 112.85313Q23.262503 112.85313 23.450003 112.69688Q23.637503 112.54063 23.637503 112.16563Q23.637503 111.97813 23.575003 111.65L24.450003 111.65Q24.575003 112.07188 24.575003 112.47813Q24.575003 113.19688 24.137503 113.57188Q23.684378 113.94688 22.871878 113.94688L18.950003 113.94688L18.950003 115.10313L18.106253 115.10313L18.106253 113.94688L16.575003 113.94688L16.575003 112.85313ZM22.950003 104.3375L15.918753 101.9L15.918753 100.66563L24.450003 103.8375L24.450003 104.82188L15.918753 107.97813L15.918753 106.75938L22.950003 104.3375ZM21.215628 99.61875Q20.293753 99.61875 19.543753 99.25938Q18.793753 98.88438 18.403128 98.22813Q17.996878 97.57188 17.996878 96.74375Q17.996878 95.44688 18.887503 94.65Q19.778128 93.8375 21.278128 93.8375L21.356253 93.8375Q22.278128 93.8375 23.012503 94.19688Q23.746878 94.55625 24.168753 95.2125Q24.575003 95.86875 24.575003 96.72813Q24.575003 98.00938 23.684378 98.82188Q22.778128 99.61875 21.293753 99.61875L21.215628 99.61875ZM21.356253 98.525Q22.403128 98.525 23.043753 98.04063Q23.684378 97.54063 23.684378 96.72813Q23.684378 95.9 23.043753 95.41563Q22.387503 94.93125 21.215628 94.93125Q20.184378 94.93125 19.543753 95.43125Q18.887503 95.91563 18.887503 96.74375Q18.887503 97.54063 19.528128 98.04063Q20.153128 98.525 21.356253 98.525ZM24.450003 91.15L24.450003 92.22813L15.450003 92.22813L15.450003 91.15L24.450003 91.15ZM16.575003 87.85312L18.106253 87.85312L18.106253 86.681244L18.950003 86.681244L18.950003 87.85312L22.871878 87.85312Q23.262503 87.85312 23.450003 87.69687Q23.637503 87.54062 23.637503 87.16562Q23.637503 86.97812 23.575003 86.649994L24.450003 86.649994Q24.575003 87.07187 24.575003 87.47812Q24.575003 88.19688 24.137503 88.57188Q23.684378 88.94688 22.871878 88.94688L18.950003 88.94688L18.950003 90.10313L18.106253 90.10313L18.106253 88.94688L16.575003 88.94688L16.575003 87.85312ZM24.450003 81.41562Q24.262503 81.50937 23.778128 81.57187Q24.575003 82.32187 24.575003 83.368744Q24.575003 84.306244 24.043753 84.91562Q23.512503 85.50937 22.684378 85.50937Q21.700003 85.50937 21.153128 84.75937Q20.606253 84.00937 20.606253 82.63437L20.606253 81.587494L20.106253 81.587494Q19.543753 81.587494 19.215628 81.931244Q18.871878 82.25937 18.871878 82.931244Q18.871878 83.50937 19.168753 83.899994Q19.450003 84.29062 19.871878 84.29062L19.871878 85.38437Q19.387503 85.38437 18.950003 85.056244Q18.512503 84.712494 18.262503 84.13437Q17.996878 83.556244 17.996878 82.868744Q17.996878 81.75937 18.543753 81.149994Q19.090628 80.524994 20.043753 80.493744L22.965628 80.493744Q23.840628 80.493744 24.356253 80.274994L24.450003 80.274994L24.450003 81.41562ZM23.621878 83.212494Q23.621878 82.69687 23.356253 82.243744Q23.090628 81.79062 22.668753 81.587494L21.371878 81.587494L21.371878 82.431244Q21.371878 84.431244 22.543753 84.431244Q23.043753 84.431244 23.340628 84.087494Q23.621878 83.743744 23.621878 83.212494ZM21.231253 78.587494Q19.746878 78.587494 18.871878 77.899994Q17.996878 77.212494 17.996878 76.087494Q17.996878 74.931244 18.809378 74.274994L18.106253 74.22812L18.106253 73.22812L24.293753 73.22812Q25.528128 73.22812 26.231253 73.962494Q26.950003 74.69687 26.950003 75.91562Q26.950003 76.60312 26.653128 77.25937Q26.356253 77.91562 25.856253 78.25937L25.200003 77.69687Q26.059378 77.00937 26.059378 75.993744Q26.059378 75.212494 25.606253 74.774994Q25.168753 74.32187 24.356253 74.32187L23.809378 74.32187Q24.575003 74.97812 24.575003 76.10312Q24.575003 77.212494 23.684378 77.899994Q22.778128 78.587494 21.231253 78.587494ZM21.356253 77.493744Q22.418753 77.493744 23.043753 77.056244Q23.653128 76.618744 23.653128 75.82187Q23.653128 74.806244 22.715628 74.32187L19.825003 74.32187Q18.918753 74.82187 18.918753 75.82187Q18.918753 76.60312 19.528128 77.056244Q20.137503 77.493744 21.356253 77.493744ZM24.575003 68.69687Q24.575003 69.993744 23.731253 70.806244Q22.871878 71.60312 21.450003 71.60312L21.262503 71.60312Q20.309378 71.60312 19.575003 71.243744Q18.825003 70.88437 18.418753 70.243744Q17.996878 69.587494 17.996878 68.837494Q17.996878 67.60312 18.809378 66.91562Q19.621878 66.22812 21.137503 66.22812L21.590628 66.22812L21.590628 70.524994Q22.528128 70.493744 23.106253 69.97812Q23.684378 69.44687 23.684378 68.63437Q23.684378 68.07187 23.450003 67.681244Q23.215628 67.274994 22.825003 66.962494L23.340628 66.306244Q24.575003 67.10312 24.575003 68.69687ZM18.887503 68.837494Q18.887503 69.493744 19.371878 69.94687Q19.840628 70.38437 20.700003 70.47812L20.700003 67.306244L20.621878 67.306244Q19.793753 67.35312 19.340628 67.75937Q18.887503 68.149994 18.887503 68.837494ZM20.981253 62.368744Q19.668753 62.368744 18.450003 62.024994Q17.231253 61.66562 16.231253 60.962494Q15.231253 60.25937 14.825003 59.493744L15.543753 59.274994Q16.200003 60.13437 17.543753 60.681244Q18.887503 61.22812 20.559378 61.274994L21.059378 61.29062Q23.325003 61.29062 24.981253 60.462494Q25.981253 59.962494 26.543753 59.274994L27.200003 59.493744Q26.778128 60.274994 25.746878 60.993744Q23.762503 62.368744 20.981253 62.368744ZM22.950003 55.337494L15.918753 52.899994L15.918753 51.66562L24.450003 54.837494L24.450003 55.82187L15.918753 58.97812L15.918753 57.75937L22.950003 55.337494ZM21.043753 47.82187Q22.356253 47.82187 23.559378 48.16562Q24.746878 48.50937 25.762503 49.22812Q26.778128 49.931244 27.200003 50.69687L26.543753 50.931244Q25.856253 50.024994 24.403128 49.47812Q22.934378 48.931244 21.168753 48.91562L20.981253 48.91562Q19.746878 48.91562 18.684378 49.181244Q17.621878 49.431244 16.793753 49.899994Q15.950003 50.35312 15.481253 50.931244L14.825003 50.69687Q15.246878 49.931244 16.246878 49.22812Q17.246878 48.524994 18.465628 48.181244Q19.668753 47.82187 21.043753 47.82187Z" fill-rule="nonzero"/><path fill="#757575" d="M56.715626 187.05L55.6375 187.05L55.6375 179.83125L53.45 180.62813L53.45 179.64375L56.559376 178.47188L56.715626 178.47188L56.715626 187.05ZM65.5125 183.40938Q65.5125 185.31563 64.85625 186.25313Q64.21562 187.175 62.825 187.175Q61.465626 187.175 60.809376 186.26875Q60.153126 185.3625 60.121876 183.55L60.121876 182.1125Q60.121876 180.22188 60.7625 179.31563Q61.41875 178.39375 62.809376 178.39375Q64.18437 178.39375 64.84062 179.28438Q65.49687 180.15938 65.5125 182.00313L65.5125 183.40938ZM64.41875 181.925Q64.41875 180.55 64.02812 179.925Q63.653126 179.28438 62.809376 179.28438Q61.98125 179.28438 61.590626 179.925Q61.215626 180.55 61.215626 181.84688L61.215626 183.58125Q61.215626 184.95625 61.60625 185.62813Q62.0125 186.28438 62.825 186.28438Q63.621876 186.28438 64.0125 185.65938Q64.40312 185.03438 64.41875 183.70625L64.41875 181.925Z" fill-rule="nonzero"/><path fill="#757575" d="M56.715626 141.95L55.6375 141.95L55.6375 134.73125L53.45 135.52812L53.45 134.54375L56.559376 133.37187L56.715626 133.37187L56.715626 141.95ZM63.715626 141.95L62.6375 141.95L62.6375 134.73125L60.45 135.52812L60.45 134.54375L63.559376 133.37187L63.715626 133.37187L63.715626 141.95Z" fill-rule="nonzero"/><path fill="#757575" d="M56.715626 96.85L55.6375 96.85L55.6375 89.63125L53.45 90.42812L53.45 89.44375L56.559376 88.27187L56.715626 88.27187L56.715626 96.85ZM65.74687 96.85L60.153126 96.85L60.153126 96.06875L63.10625 92.7875Q63.7625 92.0375 64.0125 91.58437Q64.2625 91.11562 64.2625 90.61562Q64.2625 89.94375 63.85625 89.52187Q63.465626 89.08437 62.778126 89.08437Q61.98125 89.08437 61.528126 89.55312Q61.075 90.00625 61.075 90.83437L59.996876 90.83437Q59.996876 89.64687 60.746876 88.92812Q61.5125 88.19375 62.778126 88.19375Q63.98125 88.19375 64.66875 88.81875Q65.35625 89.44375 65.35625 90.49062Q65.35625 91.74062 63.746876 93.49062L61.465626 95.95937L65.74687 95.95937L65.74687 96.85Z" fill-rule="nonzero"/><path fill="#757575" d="M56.715626 51.75L55.6375 51.75L55.6375 44.53125L53.45 45.328125L53.45 44.34375L56.559376 43.171875L56.715626 43.171875L56.715626 51.75ZM61.73125 46.953125L62.54375 46.953125Q63.325 46.9375 63.7625 46.546875Q64.2 46.15625 64.2 45.484375Q64.2 43.984375 62.7 43.984375Q61.996876 43.984375 61.575 44.390625Q61.16875 44.796875 61.16875 45.453125L60.075 45.453125Q60.075 44.4375 60.809376 43.765625Q61.559376 43.09375 62.7 43.09375Q63.903126 43.09375 64.59062 43.734375Q65.27812 44.375 65.27812 45.515625Q65.27812 46.078125 64.91875 46.59375Q64.55937 47.109375 63.934376 47.375Q64.6375 47.59375 65.0125 48.109375Q65.40312 48.625 65.40312 49.375Q65.40312 50.515625 64.65312 51.203125Q63.903126 51.875 62.7 51.875Q61.5125 51.875 60.746876 51.21875Q59.996876 50.5625 59.996876 49.5L61.090626 49.5Q61.090626 50.171875 61.528126 50.578125Q61.965626 50.984375 62.715626 50.984375Q63.496876 50.984375 63.903126 50.578125Q64.325 50.15625 64.325 49.390625Q64.325 48.65625 63.871876 48.265625Q63.41875 47.859375 62.54375 47.84375L61.73125 47.84375L61.73125 46.953125Z" fill-rule="nonzero"/><path fill="#757575" d="M75.0125 196.90938Q75.0125 198.81563 74.35625 199.75313Q73.71562 200.675 72.325 200.675Q70.96562 200.675 70.30937 199.76875Q69.65312 198.8625 69.62187 197.05L69.62187 195.6125Q69.62187 193.72188 70.2625 192.81563Q70.91875 191.89375 72.30937 191.89375Q73.68437 191.89375 74.34062 192.78438Q74.99687 193.65938 75.0125 195.50313L75.0125 196.90938ZM73.91875 195.425Q73.91875 194.05 73.52812 193.425Q73.15312 192.78438 72.30937 192.78438Q71.48125 192.78438 71.09062 193.425Q70.71562 194.05 70.71562 195.34688L70.71562 197.08125Q70.71562 198.45625 71.10625 199.12813Q71.5125 199.78438 72.325 199.78438Q73.12187 199.78438 73.5125 199.15938Q73.90312 198.53438 73.91875 197.20625L73.91875 195.425Z" fill-rule="nonzero"/><path fill="#757575" d="M149.5375 196.90938Q149.5375 198.81563 148.88126 199.75313Q148.24063 200.675 146.85 200.675Q145.49063 200.675 144.83438 199.76875Q144.17813 198.8625 144.14688 197.05L144.14688 195.6125Q144.14688 193.72188 144.7875 192.81563Q145.44376 191.89375 146.83438 191.89375Q148.20938 191.89375 148.86563 192.78438Q149.52188 193.65938 149.5375 195.50313L149.5375 196.90938ZM148.44376 195.425Q148.44376 194.05 148.05313 193.425Q147.67813 192.78438 146.83438 192.78438Q146.00626 192.78438 145.61563 193.425Q145.24063 194.05 145.24063 195.34688L145.24063 197.08125Q145.24063 198.45625 145.63126 199.12813Q146.0375 199.78438 146.85 199.78438Q147.64688 199.78438 148.0375 199.15938Q148.42813 198.53438 148.44376 197.20625L148.44376 195.425ZM151.31876 199.9875Q151.31876 199.70625 151.475 199.51875Q151.64688 199.33125 151.975 199.33125Q152.31876 199.33125 152.49063 199.51875Q152.6625 199.70625 152.6625 199.9875Q152.6625 200.25313 152.49063 200.44063Q152.31876 200.6125 151.975 200.6125Q151.64688 200.6125 151.475 200.44063Q151.31876 200.25313 151.31876 199.9875ZM158.75626 197.69063L159.94376 197.69063L159.94376 198.56563L158.75626 198.56563L158.75626 200.55L157.67813 200.55L157.67813 198.56563L153.7875 198.56563L153.7875 197.925L157.6 192.01875L158.75626 192.01875L158.75626 197.69063ZM155.02188 197.69063L157.67813 197.69063L157.67813 193.50313L157.5375 193.7375L155.02188 197.69063Z" fill-rule="nonzero"/><path fill="#757575" d="M229.0625 196.90938Q229.0625 198.81563 228.40625 199.75313Q227.76562 200.675 226.375 200.675Q225.01562 200.675 224.35938 199.76875Q223.70312 198.8625 223.67188 197.05L223.67188 195.6125Q223.67188 193.72188 224.3125 192.81563Q224.96875 191.89375 226.35938 191.89375Q227.73438 191.89375 228.39062 192.78438Q229.04688 193.65938 229.0625 195.50313L229.0625 196.90938ZM227.96875 195.425Q227.96875 194.05 227.57812 193.425Q227.20312 192.78438 226.35938 192.78438Q225.53125 192.78438 225.14062 193.425Q224.76562 194.05 224.76562 195.34688L224.76562 197.08125Q224.76562 198.45625 225.15625 199.12813Q225.5625 199.78438 226.375 199.78438Q227.17188 199.78438 227.5625 199.15938Q227.95312 198.53438 227.96875 197.20625L227.96875 195.425ZM230.84375 199.9875Q230.84375 199.70625 231.0 199.51875Q231.17188 199.33125 231.5 199.33125Q231.84375 199.33125 232.01562 199.51875Q232.1875 199.70625 232.1875 199.9875Q232.1875 200.25313 232.01562 200.44063Q231.84375 200.6125 231.5 200.6125Q231.17188 200.6125 231.0 200.44063Q230.84375 200.25313 230.84375 199.9875ZM238.89062 194.2375Q238.89062 194.87813 238.54688 195.37813Q238.20312 195.87813 237.64062 196.15938Q238.29688 196.44063 238.6875 197.00313Q239.07812 197.55 239.07812 198.25313Q239.07812 199.34688 238.32812 200.01875Q237.59375 200.675 236.375 200.675Q235.14062 200.675 234.39062 200.01875Q233.65625 199.34688 233.65625 198.25313Q233.65625 197.55 234.03125 197.00313Q234.40625 196.44063 235.07812 196.15938Q234.51562 195.87813 234.1875 195.37813Q233.85938 194.87813 233.85938 194.2375Q233.85938 193.15938 234.54688 192.53438Q235.23438 191.89375 236.375 191.89375Q237.5 191.89375 238.1875 192.53438Q238.89062 193.15938 238.89062 194.2375ZM238.0 198.22188Q238.0 197.50313 237.54688 197.06563Q237.09375 196.6125 236.35938 196.6125Q235.625 196.6125 235.17188 197.06563Q234.73438 197.50313 234.73438 198.2375Q234.73438 198.95625 235.17188 199.37813Q235.60938 199.78438 236.375 199.78438Q237.125 199.78438 237.5625 199.3625Q238.0 198.94063 238.0 198.22188ZM236.375 192.78438Q235.73438 192.78438 235.32812 193.19063Q234.9375 193.58125 234.9375 194.26875Q234.9375 194.90938 235.32812 195.31563Q235.71875 195.72188 236.35938 195.72188Q237.01562 195.72188 237.40625 195.31563Q237.79688 194.90938 237.79688 194.26875Q237.79688 193.6125 237.39062 193.20625Q236.98438 192.78438 236.375 192.78438Z" fill-rule="nonzero"/><path fill="#757575" d="M306.79062 200.55L305.7125 200.55L305.7125 193.33125L303.525 194.12813L303.525 193.14375L306.63437 191.97188L306.79062 191.97188L306.79062 200.55ZM310.36874 199.9875Q310.36874 199.70625 310.525 199.51875Q310.69687 199.33125 311.025 199.33125Q311.36874 199.33125 311.54062 199.51875Q311.7125 199.70625 311.7125 199.9875Q311.7125 200.25313 311.54062 200.44063Q311.36874 200.6125 311.025 200.6125Q310.69687 200.6125 310.525 200.44063Q310.36874 200.25313 310.36874 199.9875ZM318.82187 200.55L313.22812 200.55L313.22812 199.76875L316.18124 196.4875Q316.8375 195.7375 317.0875 195.28438Q317.3375 194.81563 317.3375 194.31563Q317.3375 193.64375 316.93124 193.22188Q316.54062 192.78438 315.85312 192.78438Q315.05624 192.78438 314.60312 193.25313Q314.15 193.70625 314.15 194.53438L313.07187 194.53438Q313.07187 193.34688 313.82187 192.62813Q314.5875 191.89375 315.85312 191.89375Q317.05624 191.89375 317.74374 192.51875Q318.43124 193.14375 318.43124 194.19063Q318.43124 195.44063 316.82187 197.19063L314.54062 199.65938L318.82187 199.65938L318.82187 200.55Z" fill-rule="nonzero"/><path fill="#757575" d="M386.3156 200.55L385.2375 200.55L385.2375 193.33125L383.05 194.12813L383.05 193.14375L386.15936 191.97188L386.3156 191.97188L386.3156 200.55ZM389.89374 199.9875Q389.89374 199.70625 390.05 199.51875Q390.22186 199.33125 390.55 199.33125Q390.89374 199.33125 391.0656 199.51875Q391.2375 199.70625 391.2375 199.9875Q391.2375 200.25313 391.0656 200.44063Q390.89374 200.6125 390.55 200.6125Q390.22186 200.6125 390.05 200.44063Q389.89374 200.25313 389.89374 199.9875ZM397.01874 192.01875L397.01874 192.925L396.8156 192.925Q395.55 192.95625 394.8 193.69063Q394.05 194.40938 393.925 195.72188Q394.6125 194.95625 395.76874 194.95625Q396.8781 194.95625 397.55 195.7375Q398.22186 196.51875 398.22186 197.76875Q398.22186 199.08125 397.5031 199.87813Q396.78436 200.675 395.5656 200.675Q394.34686 200.675 393.58124 199.7375Q392.83124 198.78438 392.83124 197.3L392.83124 196.89375Q392.83124 194.53438 393.83124 193.28438Q394.83124 192.03438 396.8156 192.01875L397.01874 192.01875ZM395.59686 195.8625Q395.03436 195.8625 394.5656 196.19063Q394.09686 196.51875 393.90936 197.03438L393.90936 197.425Q393.90936 198.4875 394.3781 199.12813Q394.8625 199.76875 395.5656 199.76875Q396.3 199.76875 396.72186 199.2375Q397.14374 198.69063 397.14374 197.81563Q397.14374 196.94063 396.72186 196.40938Q396.3 195.8625 395.59686 195.8625Z" fill-rule="nonzero"/><path fill="#757575" d="M22.528126 22.121876Q22.528126 23.79375 21.965626 25.04375Q21.403126 26.29375 20.371876 26.95Q19.340626 27.60625 17.965626 27.60625Q16.621876 27.60625 15.575 26.95Q14.54375 26.278126 13.965625 25.059376Q13.3875 23.840626 13.371875 22.23125L13.371875 21.403126Q13.371875 19.7625 13.934375 18.5125Q14.5125 17.246876 15.559375 16.590626Q16.60625 15.918751 17.95 15.918751Q19.309376 15.918751 20.35625 16.575Q21.403126 17.23125 21.965626 18.496876Q22.528126 19.746876 22.528126 21.403126L22.528126 22.121876ZM21.028126 21.3875Q21.028126 19.371876 20.215626 18.29375Q19.403126 17.2 17.95 17.2Q16.528126 17.2 15.7 18.29375Q14.8875 19.371876 14.871875 21.29375L14.871875 22.121876Q14.871875 24.090626 15.684375 25.215626Q16.5125 26.325 17.965626 26.325Q19.41875 26.325 20.215626 25.278126Q21.0125 24.215626 21.028126 22.23125L21.028126 21.3875ZM29.7625 26.60625Q28.91875 27.60625 27.29375 27.60625Q25.934376 27.60625 25.23125 26.825Q24.528126 26.028126 24.5125 24.496876L24.5125 18.996876L25.965626 18.996876L25.965626 24.45Q25.965626 26.371876 27.528126 26.371876Q29.184376 26.371876 29.73125 25.1375L29.73125 18.996876L31.16875 18.996876L31.16875 27.45L29.79375 27.45L29.7625 26.60625ZM35.5125 16.95L35.5125 18.996876L37.090626 18.996876L37.090626 20.10625L35.5125 20.10625L35.5125 25.35625Q35.5125 25.85625 35.715626 26.121876Q35.934376 26.371876 36.434376 26.371876Q36.684376 26.371876 37.121876 26.278126L37.121876 27.45Q36.559376 27.60625 36.0125 27.60625Q35.04375 27.60625 34.54375 27.028126Q34.059376 26.434376 34.059376 25.35625L34.059376 20.10625L32.528126 20.10625L32.528126 18.996876L34.059376 18.996876L34.059376 16.95L35.5125 16.95ZM45.684376 23.309376Q45.684376 25.246876 44.79375 26.434376Q43.91875 27.60625 42.41875 27.60625Q40.871876 27.60625 39.996876 26.621876L39.996876 30.7L38.54375 30.7L38.54375 18.996876L39.871876 18.996876L39.934376 19.934376Q40.825 18.840626 42.3875 18.840626Q43.91875 18.840626 44.79375 19.996876Q45.684376 21.1375 45.684376 23.184376L45.684376 23.309376ZM44.246876 23.153126Q44.246876 21.715626 43.6375 20.8875Q43.028126 20.059376 41.965626 20.059376Q40.653126 20.059376 39.996876 21.23125L39.996876 25.2625Q40.6375 26.41875 41.98125 26.41875Q43.0125 26.41875 43.621876 25.60625Q44.246876 24.778126 44.246876 23.153126ZM52.7625 26.60625Q51.91875 27.60625 50.29375 27.60625Q48.934376 27.60625 48.23125 26.825Q47.528126 26.028126 47.5125 24.496876L47.5125 18.996876L48.965626 18.996876L48.965626 24.45Q48.965626 26.371876 50.528126 26.371876Q52.184376 26.371876 52.73125 25.1375L52.73125 18.996876L54.16875 18.996876L54.16875 27.45L52.79375 27.45L52.7625 26.60625ZM58.5125 16.95L58.5125 18.996876L60.090626 18.996876L60.090626 20.10625L58.5125 20.10625L58.5125 25.35625Q58.5125 25.85625 58.715626 26.121876Q58.934376 26.371876 59.434376 26.371876Q59.684376 26.371876 60.121876 26.278126L60.121876 27.45Q59.559376 27.60625 59.0125 27.60625Q58.04375 27.60625 57.54375 27.028126Q57.059376 26.434376 57.059376 25.35625L57.059376 20.10625L55.528126 20.10625L55.528126 18.996876L57.059376 18.996876L57.059376 16.95L58.5125 16.95ZM74.1375 23.840626Q73.93437 25.6375 72.80937 26.621876Q71.68437 27.60625 69.825 27.60625Q67.80937 27.60625 66.59062 26.16875Q65.3875 24.715626 65.3875 22.29375L65.3875 21.2Q65.3875 19.60625 65.95 18.403126Q66.5125 17.2 67.54375 16.559376Q68.59062 15.918751 69.96562 15.918751Q71.77812 15.918751 72.87187 16.934376Q73.96562 17.934376 74.1375 19.73125L72.6375 19.73125Q72.43437 18.371876 71.77812 17.7625Q71.1375 17.153126 69.96562 17.153126Q68.52812 17.153126 67.7 18.215626Q66.8875 19.278126 66.8875 21.23125L66.8875 22.340626Q66.8875 24.184376 67.65312 25.278126Q68.43437 26.371876 69.825 26.371876Q71.075 26.371876 71.74687 25.809376Q72.41875 25.246876 72.6375 23.840626L74.1375 23.840626ZM80.7625 26.60625Q79.91875 27.60625 78.29375 27.60625Q76.93437 27.60625 76.23125 26.825Q75.52812 26.028126 75.5125 24.496876L75.5125 18.996876L76.96562 18.996876L76.96562 24.45Q76.96562 26.371876 78.52812 26.371876Q80.18437 26.371876 80.73125 25.1375L80.73125 18.996876L82.16875 18.996876L82.16875 27.45L80.79375 27.45L80.7625 26.60625ZM88.6375 20.29375Q88.30937 20.23125 87.91875 20.23125Q86.49687 20.23125 85.99687 21.45L85.99687 27.45L84.54375 27.45L84.54375 18.996876L85.95 18.996876L85.98125 19.965626Q86.68437 18.840626 87.99687 18.840626Q88.41875 18.840626 88.6375 18.95L88.6375 20.29375ZM93.6375 20.29375Q93.30937 20.23125 92.91875 20.23125Q91.49687 20.23125 90.99687 21.45L90.99687 27.45L89.54375 27.45L89.54375 18.996876L90.95 18.996876L90.98125 19.965626Q91.68437 18.840626 92.99687 18.840626Q93.41875 18.840626 93.6375 18.95L93.6375 20.29375ZM98.05937 27.60625Q96.34062 27.60625 95.2625 26.48125Q94.18437 25.340626 94.18437 23.45L94.18437 23.184376Q94.18437 21.934376 94.65312 20.95Q95.1375 19.95 95.99687 19.403126Q96.87187 18.840626 97.87187 18.840626Q99.52812 18.840626 100.43437 19.934376Q101.35625 21.0125 101.35625 23.028126L101.35625 23.6375L95.62187 23.6375Q95.65312 24.8875 96.35625 25.653126Q97.05937 26.41875 98.1375 26.41875Q98.90312 26.41875 99.43437 26.10625Q99.96562 25.79375 100.35625 25.278126L101.24687 25.965626Q100.18437 27.60625 98.05937 27.60625ZM97.87187 20.028126Q96.99687 20.028126 96.40312 20.66875Q95.80937 21.29375 95.66875 22.45L99.90312 22.45L99.90312 22.340626Q99.84062 21.23125 99.30937 20.6375Q98.77812 20.028126 97.87187 20.028126ZM103.91875 18.996876L103.96562 20.059376Q104.93437 18.840626 106.49687 18.840626Q109.16875 18.840626 109.2 21.85625L109.2 27.45L107.74687 27.45L107.74687 21.85625Q107.74687 20.934376 107.325 20.496876Q106.91875 20.059376 106.05937 20.059376Q105.35625 20.059376 104.825 20.434376Q104.29375 20.809376 103.99687 21.41875L103.99687 27.45L102.54375 27.45L102.54375 18.996876L103.91875 18.996876ZM113.5125 16.95L113.5125 18.996876L115.09062 18.996876L115.09062 20.10625L113.5125 20.10625L113.5125 25.35625Q113.5125 25.85625 113.71562 26.121876Q113.93437 26.371876 114.43437 26.371876Q114.68437 26.371876 115.12187 26.278126L115.12187 27.45Q114.55937 27.60625 114.0125 27.60625Q113.04375 27.60625 112.54375 27.028126Q112.05937 26.434376 112.05937 25.35625L112.05937 20.10625L110.52812 20.10625L110.52812 18.996876L112.05937 18.996876L112.05937 16.95L113.5125 16.95ZM123.34062 25.48125L125.43437 18.996876L126.90312 18.996876L123.87187 27.45L122.77812 27.45L119.71562 18.996876L121.18437 18.996876L123.34062 25.48125ZM133.46562 25.2Q133.46562 24.621876 133.02812 24.29375Q132.59062 23.965626 131.48125 23.73125Q130.3875 23.496876 129.74687 23.16875Q129.10625 22.840626 128.79375 22.3875Q128.48125 21.934376 128.48125 21.309376Q128.48125 20.278126 129.35625 19.559376Q130.24687 18.840626 131.60625 18.840626Q133.04375 18.840626 133.93437 19.590626Q134.84062 20.325 134.84062 21.48125L133.3875 21.48125Q133.3875 20.8875 132.87187 20.465626Q132.37187 20.028126 131.60625 20.028126Q130.825 20.028126 130.37187 20.371876Q129.93437 20.715626 129.93437 21.2625Q129.93437 21.79375 130.34062 22.059376Q130.7625 22.325 131.84062 22.575Q132.91875 22.809376 133.59062 23.153126Q134.2625 23.48125 134.59062 23.95Q134.91875 24.41875 134.91875 25.10625Q134.91875 26.23125 134.0125 26.91875Q133.10625 27.60625 131.65312 27.60625Q130.6375 27.60625 129.85625 27.246876Q129.075 26.8875 128.6375 26.246876Q128.2 25.590626 128.2 24.840626L129.6375 24.840626Q129.68437 25.575 130.21562 25.996876Q130.7625 26.41875 131.65312 26.41875Q132.48125 26.41875 132.96562 26.090626Q133.46562 25.7625 133.46562 25.2ZM136.575 26.684376Q136.575 26.309376 136.79375 26.059376Q137.02812 25.809376 137.46562 25.809376Q137.91875 25.809376 138.1375 26.059376Q138.37187 26.309376 138.37187 26.684376Q138.37187 27.04375 138.1375 27.29375Q137.91875 27.54375 137.46562 27.54375Q137.02812 27.54375 136.79375 27.29375Q136.575 27.04375 136.575 26.684376ZM153.52812 22.121876Q153.52812 23.79375 152.96562 25.04375Q152.40312 26.29375 151.37187 26.95Q150.34062 27.60625 148.96562 27.60625Q147.62187 27.60625 146.575 26.95Q145.54375 26.278126 144.96562 25.059376Q144.3875 23.840626 144.37187 22.23125L144.37187 21.403126Q144.37187 19.7625 144.93437 18.5125Q145.5125 17.246876 146.55937 16.590626Q147.60625 15.918751 148.95 15.918751Q150.30937 15.918751 151.35625 16.575Q152.40312 17.23125 152.96562 18.496876Q153.52812 19.746876 153.52812 21.403126L153.52812 22.121876ZM152.02812 21.3875Q152.02812 19.371876 151.21562 18.29375Q150.40312 17.2 148.95 17.2Q147.52812 17.2 146.7 18.29375Q145.8875 19.371876 145.87187 21.29375L145.87187 22.121876Q145.87187 24.090626 146.68437 25.215626Q147.5125 26.325 148.96562 26.325Q150.41875 26.325 151.21562 25.278126Q152.0125 24.215626 152.02812 22.23125L152.02812 21.3875ZM156.91875 18.996876L156.96562 20.059376Q157.93437 18.840626 159.49687 18.840626Q162.16875 18.840626 162.2 21.85625L162.2 27.45L160.74687 27.45L160.74687 21.85625Q160.74687 20.934376 160.325 20.496876Q159.91875 20.059376 159.05937 20.059376Q158.35625 20.059376 157.825 20.434376Q157.29375 20.809376 156.99687 21.41875L156.99687 27.45L155.54375 27.45L155.54375 18.996876L156.91875 18.996876ZM167.55937 23.2L163.74687 23.2L163.74687 22.028126L167.55937 22.028126L167.55937 23.2ZM170.27812 26.215626L175.66875 26.215626L175.66875 27.45L168.77812 27.45L168.77812 16.075L170.27812 16.075L170.27812 26.215626ZM177.16875 23.1375Q177.16875 21.903126 177.65312 20.91875Q178.1375 19.91875 179.0125 19.3875Q179.8875 18.840626 180.99687 18.840626Q182.73125 18.840626 183.79375 20.04375Q184.85625 21.23125 184.85625 23.215626L184.85625 23.309376Q184.85625 24.54375 184.3875 25.528126Q183.91875 26.5125 183.02812 27.059376Q182.15312 27.60625 181.0125 27.60625Q179.29375 27.60625 178.23125 26.41875Q177.16875 25.215626 177.16875 23.246876L177.16875 23.1375ZM178.62187 23.309376Q178.62187 24.715626 179.2625 25.575Q179.91875 26.41875 181.0125 26.41875Q182.12187 26.41875 182.7625 25.559376Q183.41875 24.7 183.41875 23.1375Q183.41875 21.746876 182.74687 20.8875Q182.09062 20.028126 180.99687 20.028126Q179.93437 20.028126 179.27812 20.8875Q178.62187 21.73125 178.62187 23.309376ZM191.7625 27.45Q191.6375 27.2 191.55937 26.559376Q190.55937 27.60625 189.15312 27.60625Q187.90312 27.60625 187.10625 26.903126Q186.30937 26.184376 186.30937 25.10625Q186.30937 23.778126 187.30937 23.059376Q188.30937 22.325 190.1375 22.325L191.54375 22.325L191.54375 21.653126Q191.54375 20.903126 191.09062 20.45Q190.6375 19.996876 189.74687 19.996876Q188.98125 19.996876 188.45 20.3875Q187.93437 20.778126 187.93437 21.340626L186.48125 21.340626Q186.48125 20.7 186.91875 20.121876Q187.37187 19.528126 188.1375 19.184376Q188.91875 18.840626 189.84062 18.840626Q191.29375 18.840626 192.12187 19.575Q192.95 20.29375 192.98125 21.575L192.98125 25.465626Q192.98125 26.6375 193.27812 27.325L193.27812 27.45L191.7625 27.45ZM189.37187 26.340626Q190.04375 26.340626 190.65312 25.996876Q191.2625 25.6375 191.54375 25.075L191.54375 23.340626L190.40312 23.340626Q187.74687 23.340626 187.74687 24.903126Q187.74687 25.575 188.2 25.965626Q188.65312 26.340626 189.37187 26.340626ZM195.2 23.153126Q195.2 21.2 196.12187 20.028126Q197.04375 18.840626 198.52812 18.840626Q200.0125 18.840626 200.8875 19.85625L200.8875 15.450001L202.325 15.450001L202.325 27.45L200.99687 27.45L200.93437 26.54375Q200.05937 27.60625 198.5125 27.60625Q197.04375 27.60625 196.12187 26.403126Q195.2 25.2 195.2 23.2625L195.2 23.153126ZM196.6375 23.309376Q196.6375 24.746876 197.23125 25.559376Q197.825 26.371876 198.87187 26.371876Q200.24687 26.371876 200.8875 25.1375L200.8875 21.2625Q200.23125 20.059376 198.8875 20.059376Q197.825 20.059376 197.23125 20.8875Q196.6375 21.7 196.6375 23.309376ZM217.52812 22.121876Q217.52812 23.79375 216.96562 25.04375Q216.40312 26.29375 215.37187 26.95Q214.34062 27.60625 212.96562 27.60625Q211.62187 27.60625 210.575 26.95Q209.54375 26.278126 208.96562 25.059376Q208.3875 23.840626 208.37187 22.23125L208.37187 21.403126Q208.37187 19.7625 208.93437 18.5125Q209.5125 17.246876 210.55937 16.590626Q211.60625 15.918751 212.95 15.918751Q214.30937 15.918751 215.35625 16.575Q216.40312 17.23125 216.96562 18.496876Q217.52812 19.746876 217.52812 21.403126L217.52812 22.121876ZM216.02812 21.3875Q216.02812 19.371876 215.21562 18.29375Q214.40312 17.2 212.95 17.2Q211.52812 17.2 210.7 18.29375Q209.8875 19.371876 209.87187 21.29375L209.87187 22.121876Q209.87187 24.090626 210.68437 25.215626Q211.5125 26.325 212.96562 26.325Q214.41875 26.325 215.21562 25.278126Q216.0125 24.215626 216.02812 22.23125L216.02812 21.3875ZM224.7625 26.60625Q223.91875 27.60625 222.29375 27.60625Q220.93437 27.60625 220.23125 26.825Q219.52812 26.028126 219.5125 24.496876L219.5125 18.996876L220.96562 18.996876L220.96562 24.45Q220.96562 26.371876 222.52812 26.371876Q224.18437 26.371876 224.73125 25.1375L224.73125 18.996876L226.16875 18.996876L226.16875 27.45L224.79375 27.45L224.7625 26.60625ZM230.5125 16.95L230.5125 18.996876L232.09062 18.996876L232.09062 20.10625L230.5125 20.10625L230.5125 25.35625Q230.5125 25.85625 230.71562 26.121876Q230.93437 26.371876 231.43437 26.371876Q231.68437 26.371876 232.12187 26.278126L232.12187 27.45Q231.55937 27.60625 231.0125 27.60625Q230.04375 27.60625 229.54375 27.028126Q229.05937 26.434376 229.05937 25.35625L229.05937 20.10625L227.52812 20.10625L227.52812 18.996876L229.05937 18.996876L229.05937 16.95L230.5125 16.95ZM240.68437 23.309376Q240.68437 25.246876 239.79375 26.434376Q238.91875 27.60625 237.41875 27.60625Q235.87187 27.60625 234.99687 26.621876L234.99687 30.7L233.54375 30.7L233.54375 18.996876L234.87187 18.996876L234.93437 19.934376Q235.825 18.840626 237.3875 18.840626Q238.91875 18.840626 239.79375 19.996876Q240.68437 21.1375 240.68437 23.184376L240.68437 23.309376ZM239.24687 23.153126Q239.24687 21.715626 238.6375 20.8875Q238.02812 20.059376 236.96562 20.059376Q235.65312 20.059376 234.99687 21.23125L234.99687 25.2625Q235.6375 26.41875 236.98125 26.41875Q238.0125 26.41875 238.62187 25.60625Q239.24687 24.778126 239.24687 23.153126ZM247.7625 26.60625Q246.91875 27.60625 245.29375 27.60625Q243.93437 27.60625 243.23125 26.825Q242.52812 26.028126 242.5125 24.496876L242.5125 18.996876L243.96562 18.996876L243.96562 24.45Q243.96562 26.371876 245.52812 26.371876Q247.18437 26.371876 247.73125 25.1375L247.73125 18.996876L249.16875 18.996876L249.16875 27.45L247.79375 27.45L247.7625 26.60625ZM253.5125 16.95L253.5125 18.996876L255.09062 18.996876L255.09062 20.10625L253.5125 20.10625L253.5125 25.35625Q253.5125 25.85625 253.71562 26.121876Q253.93437 26.371876 254.43437 26.371876Q254.68437 26.371876 255.12187 26.278126L255.12187 27.45Q254.55937 27.60625 254.0125 27.60625Q253.04375 27.60625 252.54375 27.028126Q252.05937 26.434376 252.05937 25.35625L252.05937 20.10625L250.52812 20.10625L250.52812 18.996876L252.05937 18.996876L252.05937 16.95L253.5125 16.95ZM264.54376 25.45L267.79376 16.075L269.4344 16.075L265.21564 27.45L263.8875 27.45L259.66876 16.075L261.3094 16.075L264.54376 25.45ZM270.16876 23.1375Q270.16876 21.903126 270.65314 20.91875Q271.1375 19.91875 272.0125 19.3875Q272.8875 18.840626 273.9969 18.840626Q275.73126 18.840626 276.79376 20.04375Q277.85626 21.23125 277.85626 23.215626L277.85626 23.309376Q277.85626 24.54375 277.3875 25.528126Q276.91876 26.5125 276.02814 27.059376Q275.15314 27.60625 274.0125 27.60625Q272.29376 27.60625 271.23126 26.41875Q270.16876 25.215626 270.16876 23.246876L270.16876 23.1375ZM271.6219 23.309376Q271.6219 24.715626 272.2625 25.575Q272.91876 26.41875 274.0125 26.41875Q275.1219 26.41875 275.7625 25.559376Q276.41876 24.7 276.41876 23.1375Q276.41876 21.746876 275.7469 20.8875Q275.09064 20.028126 273.9969 20.028126Q272.9344 20.028126 272.27814 20.8875Q271.6219 21.73125 271.6219 23.309376ZM281.1219 27.45L279.66876 27.45L279.66876 15.450001L281.1219 15.450001L281.1219 27.45ZM285.5125 16.95L285.5125 18.996876L287.09064 18.996876L287.09064 20.10625L285.5125 20.10625L285.5125 25.35625Q285.5125 25.85625 285.71564 26.121876Q285.9344 26.371876 286.4344 26.371876Q286.6844 26.371876 287.1219 26.278126L287.1219 27.45Q286.5594 27.60625 286.0125 27.60625Q285.04376 27.60625 284.54376 27.028126Q284.0594 26.434376 284.0594 25.35625L284.0594 20.10625L282.52814 20.10625L282.52814 18.996876L284.0594 18.996876L284.0594 16.95L285.5125 16.95ZM293.7625 27.45Q293.6375 27.2 293.5594 26.559376Q292.5594 27.60625 291.15314 27.60625Q289.90314 27.60625 289.10626 26.903126Q288.3094 26.184376 288.3094 25.10625Q288.3094 23.778126 289.3094 23.059376Q290.3094 22.325 292.1375 22.325L293.54376 22.325L293.54376 21.653126Q293.54376 20.903126 293.09064 20.45Q292.6375 19.996876 291.7469 19.996876Q290.98126 19.996876 290.45 20.3875Q289.9344 20.778126 289.9344 21.340626L288.48126 21.340626Q288.48126 20.7 288.91876 20.121876Q289.3719 19.528126 290.1375 19.184376Q290.91876 18.840626 291.84064 18.840626Q293.29376 18.840626 294.1219 19.575Q294.95 20.29375 294.98126 21.575L294.98126 25.465626Q294.98126 26.6375 295.27814 27.325L295.27814 27.45L293.7625 27.45ZM291.3719 26.340626Q292.04376 26.340626 292.65314 25.996876Q293.2625 25.6375 293.54376 25.075L293.54376 23.340626L292.40314 23.340626Q289.7469 23.340626 289.7469 24.903126Q289.7469 25.575 290.2 25.965626Q290.65314 26.340626 291.3719 26.340626ZM297.2 23.153126Q297.2 21.16875 298.10626 20.0125Q299.02814 18.840626 300.54376 18.840626Q302.09064 18.840626 302.95 19.934376L303.02814 18.996876L304.34064 18.996876L304.34064 27.246876Q304.34064 28.8875 303.3719 29.825Q302.40314 30.778126 300.7625 30.778126Q299.84064 30.778126 298.96564 30.3875Q298.09064 29.996876 297.6375 29.325L298.3875 28.45Q299.3094 29.60625 300.65314 29.60625Q301.71564 29.60625 302.29376 29.0125Q302.8875 28.41875 302.8875 27.325L302.8875 26.60625Q302.02814 27.60625 300.52814 27.60625Q299.04376 27.60625 298.1219 26.41875Q297.2 25.215626 297.2 23.153126ZM298.65314 23.309376Q298.65314 24.746876 299.23126 25.559376Q299.825 26.371876 300.8875 26.371876Q302.2469 26.371876 302.8875 25.1375L302.8875 21.278126Q302.23126 20.059376 300.90314 20.059376Q299.84064 20.059376 299.2469 20.8875Q298.65314 21.7 298.65314 23.309376ZM310.0594 27.60625Q308.34064 27.60625 307.2625 26.48125Q306.1844 25.340626 306.1844 23.45L306.1844 23.184376Q306.1844 21.934376 306.65314 20.95Q307.1375 19.95 307.9969 19.403126Q308.8719 18.840626 309.8719 18.840626Q311.52814 18.840626 312.4344 19.934376Q313.35626 21.0125 313.35626 23.028126L313.35626 23.6375L307.6219 23.6375Q307.65314 24.8875 308.35626 25.653126Q309.0594 26.41875 310.1375 26.41875Q310.90314 26.41875 311.4344 26.10625Q311.96564 25.79375 312.35626 25.278126L313.2469 25.965626Q312.1844 27.60625 310.0594 27.60625ZM309.8719 20.028126Q308.9969 20.028126 308.40314 20.66875Q307.8094 21.29375 307.66876 22.45L311.90314 22.45L311.90314 22.340626Q311.84064 21.23125 311.3094 20.6375Q310.77814 20.028126 309.8719 20.028126Z" fill-rule="nonzero"/></svg>