<svg version="1.1" viewBox="0.0 0.0 399.0 246.0" fill="none" stroke="none" stroke-linecap="square" stroke-miterlimit="10" width="399" height="246" xmlns:xlink="http://www.w3.org/1999/xlink" xmlns="http://www.w3.org/2000/svg"><path fill="#ffffff" d="M0 0L399.0 0L399.0 246.0L0 246.0L0 0Z" fill-rule="nonzero"/><path fill="#ffffff" d="M0 0L399.0 0L399.0 246.0L0 246.0L0 0Z" fill-rule="nonzero"/><path stroke="#cccccc" stroke-width="1.0" stroke-linecap="butt" d="M72.5 47.5L72.5 177.5" fill-rule="nonzero"/><path stroke="#cccccc" stroke-width="1.0" stroke-linecap="butt" d="M107.5 47.5L107.5 177.5" fill-rule="nonzero"/><path stroke="#cccccc" stroke-width="1.0" stroke-linecap="butt" d="M142.5 47.5L142.5 177.5" fill-rule="nonzero"/><path stroke="#cccccc" stroke-width="1.0" stroke-linecap="butt" d="M177.5 47.5L177.5 177.5" fill-rule="nonzero"/><path stroke="#cccccc" stroke-width="1.0" stroke-linecap="butt" d="M212.5 47.5L212.5 177.5" fill-rule="nonzero"/><path stroke="#cccccc" stroke-width="1.0" stroke-linecap="butt" d="M246.5 47.5L246.5 177.5" fill-rule="nonzero"/><path stroke="#cccccc" stroke-width="1.0" stroke-linecap="butt" d="M281.5 47.5L281.5 177.5" fill-rule="nonzero"/><path stroke="#cccccc" stroke-width="1.0" stroke-linecap="butt" d="M316.5 47.5L316.5 177.5" fill-rule="nonzero"/><path stroke="#cccccc" stroke-width="1.0" stroke-linecap="butt" d="M351.5 47.5L351.5 177.5" fill-rule="nonzero"/><path stroke="#cccccc" stroke-width="1.0" stroke-linecap="butt" d="M386.5 47.5L386.5 177.5" fill-rule="nonzero"/><path stroke="#e6e6e6" stroke-width="1.0" stroke-linecap="butt" d="M89.5 47.5L89.5 177.5" fill-rule="nonzero"/><path stroke="#e6e6e6" stroke-width="1.0" stroke-linecap="butt" d="M124.5 47.5L124.5 177.5" fill-rule="nonzero"/><path stroke="#e6e6e6" stroke-width="1.0" stroke-linecap="butt" d="M159.5 47.5L159.5 177.5" fill-rule="nonzero"/><path stroke="#e6e6e6" stroke-width="1.0" stroke-linecap="butt" d="M194.5 47.5L194.5 177.5" fill-rule="nonzero"/><path stroke="#e6e6e6" stroke-width="1.0" stroke-linecap="butt" d="M229.5 47.5L229.5 177.5" fill-rule="nonzero"/><path stroke="#e6e6e6" stroke-width="1.0" stroke-linecap="butt" d="M264.5 47.5L264.5 177.5" fill-rule="nonzero"/><path stroke="#e6e6e6" stroke-width="1.0" stroke-linecap="butt" d="M299.5 47.5L299.5 177.5" fill-rule="nonzero"/><path stroke="#e6e6e6" stroke-width="1.0" stroke-linecap="butt" d="M334.5 47.5L334.5 177.5" fill-rule="nonzero"/><path stroke="#e6e6e6" stroke-width="1.0" stroke-linecap="butt" d="M369.5 47.5L369.5 177.5" fill-rule="nonzero"/><path stroke="#333333" stroke-width="1.0" stroke-linecap="butt" d="M72.5 177.5L386.5 177.5" fill-rule="nonzero"/><path stroke="#cccccc" stroke-width="1.0" stroke-linecap="butt" d="M72.5 145.5L386.5 145.5" fill-rule="nonzero"/><path stroke="#cccccc" stroke-width="1.0" stroke-linecap="butt" d="M72.5 112.5L386.5 112.5" fill-rule="nonzero"/><path stroke="#cccccc" stroke-width="1.0" stroke-linecap="butt" d="M72.5 79.5L386.5 79.5" fill-rule="nonzero"/><path stroke="#cccccc" stroke-width="1.0" stroke-linecap="butt" d="M72.5 47.5L386.5 47.5" fill-rule="nonzero"/><path stroke="#e6e6e6" stroke-width="1.0" stroke-linecap="butt" d="M72.5 151.5L386.5 151.5" fill-rule="nonzero"/><path stroke="#e6e6e6" stroke-width="1.0" stroke-linecap="butt" d="M72.5 158.5L386.5 158.5" fill-rule="nonzero"/><path stroke="#e6e6e6" stroke-width="1.0" stroke-linecap="butt" d="M72.5 164.5L386.5 164.5" fill-rule="nonzero"/><path stroke="#e6e6e6" stroke-width="1.0" stroke-linecap="butt" d="M72.5 171.5L386.5 171.5" fill-rule="nonzero"/><path stroke="#e6e6e6" stroke-width="1.0" stroke-linecap="butt" d="M72.5 118.5L386.5 118.5" fill-rule="nonzero"/><path stroke="#e6e6e6" stroke-width="1.0" stroke-linecap="butt" d="M72.5 125.5L386.5 125.5" fill-rule="nonzero"/><path stroke="#e6e6e6" stroke-width="1.0" stroke-linecap="butt" d="M72.5 131.5L386.5 131.5" fill-rule="nonzero"/><path stroke="#e6e6e6" stroke-width="1.0" stroke-linecap="butt" d="M72.5 138.5L386.5 138.5" fill-rule="nonzero"/><path stroke="#e6e6e6" stroke-width="1.0" stroke-linecap="butt" d="M72.5 86.5L386.5 86.5" fill-rule="nonzero"/><path stroke="#e6e6e6" stroke-width="1.0" stroke-linecap="butt" d="M72.5 92.5L386.5 92.5" fill-rule="nonzero"/><path stroke="#e6e6e6" stroke-width="1.0" stroke-linecap="butt" d="M72.5 99.5L386.5 99.5" fill-rule="nonzero"/><path stroke="#e6e6e6" stroke-width="1.0" stroke-linecap="butt" d="M72.5 105.5L386.5 105.5" fill-rule="nonzero"/><path stroke="#e6e6e6" stroke-width="1.0" stroke-linecap="butt" d="M72.5 53.5L386.5 53.5" fill-rule="nonzero"/><path stroke="#e6e6e6" stroke-width="1.0" stroke-linecap="butt" d="M72.5 60.5L386.5 60.5" fill-rule="nonzero"/><path stroke="#e6e6e6" stroke-width="1.0" stroke-linecap="butt" d="M72.5 66.5L386.5 66.5" fill-rule="nonzero"/><path stroke="#e6e6e6" stroke-width="1.0" stroke-linecap="butt" d="M72.5 73.5L386.5 73.5" fill-rule="nonzero"/><clipPath id="id_0"><path d="M72.3 47.0L386.7 47.0L386.7 177.7L72.3 177.7L72.3 47.0Z" clip-rule="nonzero"/></clipPath><path stroke="#4285f4" stroke-width="2.0" stroke-linecap="butt" clip-path="url(#id_0)" d="M72.3 167.34203C72.3 167.34203 72.3 158.73761 72.3 157.01672C72.3 155.29584 76.18148 149.81815 78.12222 146.74861C80.062965 143.67906 85.10889 138.45956 85.4 136.56218C85.69111 134.6648 86.07926 129.21484 86.27333 126.40025C86.46741 123.58566 86.66148 118.30638 86.85555 116.28734C87.04963 114.268295 89.03889 105.85278 89.76667 106.28062C90.494446 106.70846 88.31111 97.716286 87.583336 96.20855C86.85555 94.70081 100.683334 89.12514 107.23333 86.97786C113.78333 84.83059 135.18 81.30311 149.15334 79.184875C163.12666 77.06664 187.68585 74.73064 202.50606 72.92761C217.32626 71.12459 237.11368 68.876015 246.96666 67.32385C256.81967 65.77168 266.8326 63.43402 276.52563 61.736423C286.2187 60.03883 295.9117 58.371384 305.60477 57.04756C315.2978 55.72374 336.62888 53.575844 336.62888 53.575844" fill-rule="nonzero"/><path fill="#424242" d="M177.54688 226.71562Q177.54688 227.96562 177.125 228.90312Q176.70312 229.825 175.92188 230.325Q175.15625 230.825 174.125 230.825Q173.125 230.825 172.34375 230.325Q171.5625 229.825 171.125 228.91875Q170.70312 227.99687 170.6875 226.77812L170.6875 226.16875Q170.6875 224.93437 171.10938 223.99687Q171.54688 223.05937 172.32812 222.55937Q173.10938 222.04375 174.125 222.04375Q175.14062 222.04375 175.92188 222.54375Q176.70312 223.04375 177.125 223.98125Q177.54688 224.91875 177.54688 226.16875L177.54688 226.71562ZM176.4375 226.15312Q176.4375 224.6375 175.82812 223.825Q175.21875 223.0125 174.125 223.0125Q173.04688 223.0125 172.4375 223.825Q171.82812 224.6375 171.8125 226.075L171.8125 226.71562Q171.8125 228.18437 172.42188 229.02812Q173.04688 229.85625 174.125 229.85625Q175.21875 229.85625 175.8125 229.075Q176.42188 228.27812 176.4375 226.79375L176.4375 226.15312ZM182.73438 230.075Q182.10938 230.825 180.875 230.825Q179.85938 230.825 179.32812 230.23125Q178.79688 229.6375 178.79688 228.48125L178.79688 224.35625L179.875 224.35625L179.875 228.45Q179.875 229.90312 181.04688 229.90312Q182.29688 229.90312 182.70312 228.96562L182.70312 224.35625L183.79688 224.35625L183.79688 230.7L182.76562 230.7L182.73438 230.075ZM187.29688 222.825L187.29688 224.35625L188.46875 224.35625L188.46875 225.2L187.29688 225.2L187.29688 229.12187Q187.29688 229.5125 187.45312 229.7Q187.60938 229.8875 187.98438 229.8875Q188.17188 229.8875 188.5 229.825L188.5 230.7Q188.07812 230.825 187.67188 230.825Q186.95312 230.825 186.57812 230.3875Q186.20312 229.93437 186.20312 229.12187L186.20312 225.2L185.04688 225.2L185.04688 224.35625L186.20312 224.35625L186.20312 222.825L187.29688 222.825ZM195.17188 227.60625Q195.17188 229.04375 194.51562 229.93437Q193.85938 230.825 192.71875 230.825Q191.5625 230.825 190.90625 230.09062L190.90625 233.1375L189.82812 233.1375L189.82812 224.35625L190.8125 224.35625L190.85938 225.05937Q191.53125 224.24687 192.70312 224.24687Q193.84375 224.24687 194.5 225.10625Q195.17188 225.96562 195.17188 227.49687L195.17188 227.60625ZM194.09375 227.48125Q194.09375 226.40312 193.625 225.79375Q193.17188 225.16875 192.375 225.16875Q191.39062 225.16875 190.90625 226.02812L190.90625 229.05937Q191.39062 229.93437 192.39062 229.93437Q193.17188 229.93437 193.625 229.325Q194.09375 228.7 194.09375 227.48125ZM200.73438 230.075Q200.10938 230.825 198.875 230.825Q197.85938 230.825 197.32812 230.23125Q196.79688 229.6375 196.79688 228.48125L196.79688 224.35625L197.875 224.35625L197.875 228.45Q197.875 229.90312 199.04688 229.90312Q200.29688 229.90312 200.70312 228.96562L200.70312 224.35625L201.79688 224.35625L201.79688 230.7L200.76562 230.7L200.73438 230.075ZM205.29688 222.825L205.29688 224.35625L206.46875 224.35625L206.46875 225.2L205.29688 225.2L205.29688 229.12187Q205.29688 229.5125 205.45312 229.7Q205.60938 229.8875 205.98438 229.8875Q206.17188 229.8875 206.5 229.825L206.5 230.7Q206.07812 230.825 205.67188 230.825Q204.95312 230.825 204.57812 230.3875Q204.20312 229.93437 204.20312 229.12187L204.20312 225.2L203.04688 225.2L203.04688 224.35625L204.20312 224.35625L204.20312 222.825L205.29688 222.825ZM212.20312 230.7L211.07812 230.7L211.07812 222.16875L212.20312 222.16875L212.20312 230.7ZM214.84375 224.35625L214.875 225.05937Q215.5625 224.24687 216.75 224.24687Q218.07812 224.24687 218.5625 225.2625Q218.875 224.80937 219.375 224.52812Q219.89062 224.24687 220.57812 224.24687Q222.67188 224.24687 222.70312 226.45L222.70312 230.7L221.625 230.7L221.625 226.5125Q221.625 225.84062 221.3125 225.5125Q221.0 225.16875 220.26562 225.16875Q219.65625 225.16875 219.25 225.52812Q218.85938 225.8875 218.79688 226.49687L218.79688 230.7L217.71875 230.7L217.71875 226.54375Q217.71875 225.16875 216.35938 225.16875Q215.29688 225.16875 214.90625 226.075L214.90625 230.7L213.8125 230.7L213.8125 224.35625L214.84375 224.35625ZM230.17188 227.60625Q230.17188 229.04375 229.51562 229.93437Q228.85938 230.825 227.71875 230.825Q226.5625 230.825 225.90625 230.09062L225.90625 233.1375L224.82812 233.1375L224.82812 224.35625L225.8125 224.35625L225.85938 225.05937Q226.53125 224.24687 227.70312 224.24687Q228.84375 224.24687 229.5 225.10625Q230.17188 225.96562 230.17188 227.49687L230.17188 227.60625ZM229.09375 227.48125Q229.09375 226.40312 228.625 225.79375Q228.17188 225.16875 227.375 225.16875Q226.39062 225.16875 225.90625 226.02812L225.90625 229.05937Q226.39062 229.93437 227.39062 229.93437Q228.17188 229.93437 228.625 229.325Q229.09375 228.7 229.09375 227.48125ZM234.45312 230.825Q233.15625 230.825 232.34375 229.98125Q231.54688 229.12187 231.54688 227.7L231.54688 227.5125Q231.54688 226.55937 231.90625 225.825Q232.26562 225.075 232.90625 224.66875Q233.5625 224.24687 234.3125 224.24687Q235.54688 224.24687 236.23438 225.05937Q236.92188 225.87187 236.92188 227.3875L236.92188 227.84062L232.625 227.84062Q232.65625 228.77812 233.17188 229.35625Q233.70312 229.93437 234.51562 229.93437Q235.07812 229.93437 235.46875 229.7Q235.875 229.46562 236.1875 229.075L236.84375 229.59062Q236.04688 230.825 234.45312 230.825ZM234.3125 225.1375Q233.65625 225.1375 233.20312 225.62187Q232.76562 226.09062 232.67188 226.95L235.84375 226.95L235.84375 226.87187Q235.79688 226.04375 235.39062 225.59062Q235.0 225.1375 234.3125 225.1375ZM237.5625 227.48125Q237.5625 226.0125 238.25 225.1375Q238.9375 224.24687 240.0625 224.24687Q241.17188 224.24687 241.82812 224.99687L241.82812 221.7L242.90625 221.7L242.90625 230.7L241.90625 230.7L241.85938 230.0125Q241.20312 230.825 240.04688 230.825Q238.95312 230.825 238.25 229.91875Q237.5625 229.0125 237.5625 227.55937L237.5625 227.48125ZM238.64062 227.60625Q238.64062 228.68437 239.07812 229.29375Q239.53125 229.90312 240.3125 229.90312Q241.34375 229.90312 241.82812 228.96562L241.82812 226.05937Q241.34375 225.16875 240.32812 225.16875Q239.53125 225.16875 239.07812 225.77812Q238.64062 226.3875 238.64062 227.60625ZM248.73438 230.7Q248.64062 230.5125 248.57812 230.02812Q247.82812 230.825 246.78125 230.825Q245.84375 230.825 245.23438 230.29375Q244.64062 229.7625 244.64062 228.93437Q244.64062 227.95 245.39062 227.40312Q246.14062 226.85625 247.51562 226.85625L248.5625 226.85625L248.5625 226.35625Q248.5625 225.79375 248.21875 225.46562Q247.89062 225.12187 247.21875 225.12187Q246.64062 225.12187 246.25 225.41875Q245.85938 225.7 245.85938 226.12187L244.76562 226.12187Q244.76562 225.6375 245.09375 225.2Q245.4375 224.7625 246.01562 224.5125Q246.59375 224.24687 247.28125 224.24687Q248.39062 224.24687 249.0 224.79375Q249.625 225.34062 249.65625 226.29375L249.65625 229.21562Q249.65625 230.09062 249.875 230.60625L249.875 230.7L248.73438 230.7ZM246.9375 229.87187Q247.45312 229.87187 247.90625 229.60625Q248.35938 229.34062 248.5625 228.91875L248.5625 227.62187L247.71875 227.62187Q245.71875 227.62187 245.71875 228.79375Q245.71875 229.29375 246.0625 229.59062Q246.40625 229.87187 246.9375 229.87187ZM252.84375 224.35625L252.875 225.15312Q253.60938 224.24687 254.78125 224.24687Q256.79688 224.24687 256.8125 226.5125L256.8125 230.7L255.71875 230.7L255.71875 226.49687Q255.71875 225.825 255.40625 225.49687Q255.10938 225.16875 254.45312 225.16875Q253.92188 225.16875 253.51562 225.45Q253.125 225.73125 252.90625 226.18437L252.90625 230.7L251.82812 230.7L251.82812 224.35625L252.84375 224.35625ZM261.35938 229.93437Q261.9375 229.93437 262.375 229.59062Q262.8125 229.23125 262.85938 228.7L263.89062 228.7Q263.85938 229.24687 263.5 229.74687Q263.15625 230.23125 262.57812 230.52812Q262.01562 230.825 261.35938 230.825Q260.0625 230.825 259.29688 229.96562Q258.54688 229.09062 258.54688 227.59062L258.54688 227.40312Q258.54688 226.48125 258.875 225.7625Q259.21875 225.04375 259.84375 224.65312Q260.48438 224.24687 261.35938 224.24687Q262.42188 224.24687 263.125 224.8875Q263.84375 225.5125 263.89062 226.54375L262.85938 226.54375Q262.8125 225.91875 262.39062 225.52812Q261.96875 225.1375 261.35938 225.1375Q260.53125 225.1375 260.07812 225.73125Q259.625 226.325 259.625 227.45L259.625 227.65312Q259.625 228.74687 260.07812 229.34062Q260.53125 229.93437 261.35938 229.93437ZM267.45312 230.825Q266.15625 230.825 265.34375 229.98125Q264.54688 229.12187 264.54688 227.7L264.54688 227.5125Q264.54688 226.55937 264.90625 225.825Q265.26562 225.075 265.90625 224.66875Q266.5625 224.24687 267.3125 224.24687Q268.54688 224.24687 269.23438 225.05937Q269.92188 225.87187 269.92188 227.3875L269.92188 227.84062L265.625 227.84062Q265.65625 228.77812 266.17188 229.35625Q266.70312 229.93437 267.51562 229.93437Q268.07812 229.93437 268.46875 229.7Q268.875 229.46562 269.1875 229.075L269.84375 229.59062Q269.04688 230.825 267.45312 230.825ZM267.3125 225.1375Q266.65625 225.1375 266.20312 225.62187Q265.76562 226.09062 265.67188 226.95L268.84375 226.95L268.84375 226.87187Q268.79688 226.04375 268.39062 225.59062Q268.0 225.1375 267.3125 225.1375ZM273.78125 227.23125Q273.78125 225.91875 274.125 224.7Q274.48438 223.48125 275.1875 222.48125Q275.89062 221.48125 276.65625 221.075L276.875 221.79375Q276.01562 222.45 275.46875 223.79375Q274.92188 225.1375 274.875 226.80937L274.85938 227.30937Q274.85938 229.575 275.6875 231.23125Q276.1875 232.23125 276.875 232.79375L276.65625 233.45Q275.875 233.02812 275.15625 231.99687Q273.78125 230.0125 273.78125 227.23125ZM281.3125 229.74687Q282.125 229.59062 282.57812 228.7625Q283.03125 227.93437 283.04688 226.55937L283.04688 225.77812Q283.04688 224.41875 282.46875 223.7Q281.90625 222.98125 280.92188 222.98125Q279.9375 222.98125 279.375 223.71562Q278.8125 224.43437 278.8125 225.77812L278.8125 226.45Q278.8125 227.85625 279.26562 228.73125Q279.71875 229.59062 280.57812 229.74687L280.57812 230.7L277.6875 230.7L277.6875 229.77812L278.98438 229.77812Q278.35938 229.18437 278.0 228.29375Q277.65625 227.3875 277.65625 226.43437L277.65625 225.77812Q277.65625 224.7 278.0625 223.84062Q278.48438 222.98125 279.23438 222.5125Q279.98438 222.04375 280.92188 222.04375Q281.85938 222.04375 282.59375 222.5125Q283.34375 222.96562 283.75 223.79375Q284.17188 224.62187 284.1875 225.68437L284.1875 226.45Q284.1875 227.3875 283.82812 228.29375Q283.48438 229.18437 282.85938 229.77812L284.15625 229.77812L284.15625 230.7L281.3125 230.7L281.3125 229.74687ZM288.32812 227.29375Q288.32812 228.60625 287.98438 229.80937Q287.64062 230.99687 286.92188 232.0125Q286.21875 233.02812 285.45312 233.45L285.21875 232.79375Q286.125 232.10625 286.67188 230.65312Q287.21875 229.18437 287.23438 227.41875L287.23438 227.23125Q287.23438 225.99687 286.96875 224.93437Q286.71875 223.87187 286.25 223.04375Q285.79688 222.2 285.21875 221.73125L285.45312 221.075Q286.21875 221.49687 286.92188 222.49687Q287.625 223.49687 287.96875 224.71562Q288.32812 225.91875 288.32812 227.29375Z" fill-rule="nonzero"/><path fill="#424242" d="M20.315622 160.55313Q21.565622 160.55313 22.503122 160.975Q23.424997 161.39688 23.924997 162.17813Q24.424997 162.94376 24.424997 163.975Q24.424997 164.975 23.924997 165.75626Q23.424997 166.5375 22.518747 166.975Q21.596872 167.39688 20.378122 167.4125L19.768747 167.4125Q18.534372 167.4125 17.596872 166.99063Q16.659372 166.55313 16.159372 165.77188Q15.643747 164.99063 15.643747 163.975Q15.643747 162.95938 16.143747 162.17813Q16.643747 161.39688 17.581247 160.975Q18.518747 160.55313 19.768747 160.55313L20.315622 160.55313ZM19.753122 161.6625Q18.237497 161.6625 17.424997 162.27188Q16.612497 162.88126 16.612497 163.975Q16.612497 165.05313 17.424997 165.6625Q18.237497 166.27188 19.674997 166.2875L20.315622 166.2875Q21.784372 166.2875 22.628122 165.67813Q23.456247 165.05313 23.456247 163.975Q23.456247 162.88126 22.674997 162.2875Q21.878122 161.67813 20.393747 161.6625L19.753122 161.6625ZM23.674997 155.36563Q24.424997 155.99063 24.424997 157.225Q24.424997 158.24063 23.831247 158.77188Q23.237497 159.30313 22.081247 159.30313L17.956247 159.30313L17.956247 158.225L22.049997 158.225Q23.503122 158.225 23.503122 157.05313Q23.503122 155.80313 22.565622 155.39688L17.956247 155.39688L17.956247 154.30313L24.299997 154.30313L24.299997 155.33438L23.674997 155.36563ZM16.424997 150.80313L17.956247 150.80313L17.956247 149.63126L18.799997 149.63126L18.799997 150.80313L22.721872 150.80313Q23.112497 150.80313 23.299997 150.64688Q23.487497 150.49063 23.487497 150.11563Q23.487497 149.92813 23.424997 149.6L24.299997 149.6Q24.424997 150.02188 24.424997 150.42813Q24.424997 151.14688 23.987497 151.52188Q23.534372 151.89688 22.721872 151.89688L18.799997 151.89688L18.799997 153.05313L17.956247 153.05313L17.956247 151.89688L16.424997 151.89688L16.424997 150.80313ZM21.206247 142.92813Q22.643747 142.92813 23.534372 143.58438Q24.424997 144.24063 24.424997 145.38126Q24.424997 146.5375 23.690622 147.19376L26.737497 147.19376L26.737497 148.27188L17.956247 148.27188L17.956247 147.2875L18.659372 147.24063Q17.846872 146.56876 17.846872 145.39688Q17.846872 144.25626 18.706247 143.6Q19.565622 142.92813 21.096872 142.92813L21.206247 142.92813ZM21.081247 144.00626Q20.003122 144.00626 19.393747 144.475Q18.768747 144.92813 18.768747 145.725Q18.768747 146.70938 19.628122 147.19376L22.659372 147.19376Q23.534372 146.70938 23.534372 145.70938Q23.534372 144.92813 22.924997 144.475Q22.299997 144.00626 21.081247 144.00626ZM23.674997 137.36563Q24.424997 137.99063 24.424997 139.225Q24.424997 140.24063 23.831247 140.77188Q23.237497 141.30313 22.081247 141.30313L17.956247 141.30313L17.956247 140.225L22.049997 140.225Q23.503122 140.225 23.503122 139.05313Q23.503122 137.80313 22.565622 137.39688L17.956247 137.39688L17.956247 136.30313L24.299997 136.30313L24.299997 137.33438L23.674997 137.36563ZM16.424997 132.80313L17.956247 132.80313L17.956247 131.63126L18.799997 131.63126L18.799997 132.80313L22.721872 132.80313Q23.112497 132.80313 23.299997 132.64688Q23.487497 132.49063 23.487497 132.11563Q23.487497 131.92813 23.424997 131.6L24.299997 131.6Q24.424997 132.02188 24.424997 132.42813Q24.424997 133.14688 23.987497 133.52188Q23.534372 133.89688 22.721872 133.89688L18.799997 133.89688L18.799997 135.05313L17.956247 135.05313L17.956247 133.89688L16.424997 133.89688L16.424997 132.80313ZM20.956247 125.99062L24.299997 125.99062L24.299997 127.11562L15.768747 127.11562L15.768747 123.95937Q15.768747 122.56875 16.487497 121.77187Q17.190622 120.975 18.378122 120.975Q19.612497 120.975 20.284372 121.75625Q20.956247 122.52187 20.956247 123.975L20.956247 125.99062ZM20.034372 125.99062L20.034372 123.95937Q20.034372 123.05312 19.612497 122.58437Q19.190622 122.1 18.393747 122.1Q17.628122 122.1 17.174997 122.58437Q16.706247 123.05312 16.690622 123.89687L16.690622 125.99062L20.034372 125.99062ZM21.065622 119.56875Q20.143747 119.56875 19.393747 119.20937Q18.643747 118.83437 18.253122 118.17812Q17.846872 117.52187 17.846872 116.69375Q17.846872 115.39687 18.737497 114.6Q19.628122 113.7875 21.128122 113.7875L21.206247 113.7875Q22.128122 113.7875 22.862497 114.14687Q23.596872 114.50625 24.018747 115.1625Q24.424997 115.81875 24.424997 116.67812Q24.424997 117.95937 23.534372 118.77187Q22.628122 119.56875 21.143747 119.56875L21.065622 119.56875ZM21.206247 118.475Q22.253122 118.475 22.893747 117.99062Q23.534372 117.49062 23.534372 116.67812Q23.534372 115.85 22.893747 115.36562Q22.237497 114.88125 21.065622 114.88125Q20.034372 114.88125 19.393747 115.38125Q18.737497 115.86562 18.737497 116.69375Q18.737497 117.49062 19.378122 117.99062Q20.003122 118.475 21.206247 118.475ZM22.799997 106.6625L17.956247 105.44375L17.956247 104.36562L24.299997 106.20937L24.299997 107.08437L19.487497 108.63125L24.299997 110.13125L24.299997 111.00625L17.956247 112.85L17.956247 111.77187L22.706247 110.52187L17.956247 109.0375L17.956247 108.17812L22.799997 106.6625ZM24.424997 100.64687Q24.424997 101.94375 23.581247 102.75625Q22.721872 103.55312 21.299997 103.55312L21.112497 103.55312Q20.159372 103.55312 19.424997 103.19375Q18.674997 102.83437 18.268747 102.19375Q17.846872 101.5375 17.846872 100.7875Q17.846872 99.55312 18.659372 98.86562Q19.471872 98.17812 20.987497 98.17812L21.440622 98.17812L21.440622 102.475Q22.378122 102.44375 22.956247 101.92812Q23.534372 101.39687 23.534372 100.58437Q23.534372 100.02187 23.299997 99.63125Q23.065622 99.225 22.674997 98.9125L23.190622 98.25625Q24.424997 99.05312 24.424997 100.64687ZM18.737497 100.7875Q18.737497 101.44375 19.221872 101.89687Q19.690622 102.33437 20.549997 102.42812L20.549997 99.25625L20.471872 99.25625Q19.643747 99.30312 19.190622 99.70937Q18.737497 100.1 18.737497 100.7875ZM18.924997 94.20937Q18.893747 94.45937 18.893747 94.74062Q18.893747 95.81875 19.799997 96.19375L24.299997 96.19375L24.299997 97.27187L17.956247 97.27187L17.956247 96.225L18.690622 96.20937Q17.846872 95.67812 17.846872 94.69375Q17.846872 94.38125 17.924997 94.20937L18.924997 94.20937ZM20.831247 90.31875Q19.518747 90.31875 18.299997 89.975Q17.081247 89.61562 16.081247 88.9125Q15.081247 88.20937 14.674997 87.44375L15.393747 87.225Q16.049997 88.08437 17.393747 88.63125Q18.737497 89.17812 20.409372 89.225L20.909372 89.24062Q23.174997 89.24062 24.831247 88.4125Q25.831247 87.9125 26.393747 87.225L27.049997 87.44375Q26.628122 88.225 25.596872 88.94375Q23.612497 90.31875 20.831247 90.31875ZM21.612497 84.27188L22.737497 84.100006L21.721872 83.86563L15.768747 82.17813L15.768747 81.225006L21.721872 79.58438L22.753122 79.350006L21.596872 79.162506L15.768747 77.83438L15.768747 76.70938L24.299997 78.77188L24.299997 79.80313L18.081247 81.568756L17.424997 81.693756L18.081247 81.83438L24.299997 83.64688L24.299997 84.67813L15.768747 86.74062L15.768747 85.61562L21.612497 84.27188ZM20.893747 72.77188Q22.206247 72.77188 23.409372 73.11563Q24.596872 73.45938 25.612497 74.17813Q26.628122 74.881256 27.049997 75.64688L26.393747 75.881256Q25.706247 74.975006 24.253122 74.42813Q22.784372 73.881256 21.018747 73.86563L20.831247 73.86563Q19.596872 73.86563 18.534372 74.131256Q17.471872 74.381256 16.643747 74.850006Q15.799997 75.30313 15.331247 75.881256L14.674997 75.64688Q15.096872 74.881256 16.096872 74.17813Q17.096872 73.475006 18.315622 73.131256Q19.518747 72.77188 20.893747 72.77188Z" fill-rule="nonzero"/><path fill="#757575" d="M65.3625 178.55937Q65.3625 180.46562 64.70625 181.40312Q64.06563 182.325 62.675 182.325Q61.315624 182.325 60.659374 181.41875Q60.003124 180.5125 59.971874 178.7L59.971874 177.2625Q59.971874 175.37187 60.6125 174.46562Q61.26875 173.54375 62.659374 173.54375Q64.03438 173.54375 64.69063 174.43437Q65.34688 175.30937 65.3625 177.15312L65.3625 178.55937ZM64.26875 177.075Q64.26875 175.7 63.878124 175.075Q63.503124 174.43437 62.659374 174.43437Q61.83125 174.43437 61.440624 175.075Q61.065624 175.7 61.065624 176.99687L61.065624 178.73125Q61.065624 180.10625 61.45625 180.77812Q61.8625 181.43437 62.675 181.43437Q63.471874 181.43437 63.8625 180.80937Q64.25313 180.18437 64.26875 178.85625L64.26875 177.075Z" fill-rule="nonzero"/><path fill="#757575" d="M64.58125 146.66562L65.76875 146.66562L65.76875 147.54062L64.58125 147.54062L64.58125 149.525L63.503124 149.525L63.503124 147.54062L59.6125 147.54062L59.6125 146.9L63.425 140.99374L64.58125 140.99374L64.58125 146.66562ZM60.846874 146.66562L63.503124 146.66562L63.503124 142.47812L63.3625 142.7125L60.846874 146.66562Z" fill-rule="nonzero"/><path fill="#757575" d="M65.19063 110.5375Q65.19063 111.17812 64.84688 111.67812Q64.50313 112.17812 63.940624 112.45937Q64.59688 112.74062 64.9875 113.30312Q65.37813 113.85 65.37813 114.55312Q65.37813 115.64687 64.62813 116.31875Q63.89375 116.975 62.675 116.975Q61.440624 116.975 60.690624 116.31875Q59.95625 115.64687 59.95625 114.55312Q59.95625 113.85 60.33125 113.30312Q60.70625 112.74062 61.378124 112.45937Q60.815624 112.17812 60.4875 111.67812Q60.159374 111.17812 60.159374 110.5375Q60.159374 109.45937 60.846874 108.83437Q61.534374 108.19375 62.675 108.19375Q63.8 108.19375 64.4875 108.83437Q65.19063 109.45937 65.19063 110.5375ZM64.3 114.52187Q64.3 113.80312 63.846874 113.36562Q63.39375 112.9125 62.659374 112.9125Q61.925 112.9125 61.471874 113.36562Q61.034374 113.80312 61.034374 114.5375Q61.034374 115.25625 61.471874 115.67812Q61.909374 116.08437 62.675 116.08437Q63.425 116.08437 63.8625 115.6625Q64.3 115.24062 64.3 114.52187ZM62.675 109.08437Q62.034374 109.08437 61.628124 109.49062Q61.2375 109.88125 61.2375 110.56875Q61.2375 111.20937 61.628124 111.61562Q62.01875 112.02187 62.659374 112.02187Q63.315624 112.02187 63.70625 111.61562Q64.09688 111.20937 64.09688 110.56875Q64.09688 109.9125 63.690624 109.50625Q63.284374 109.08437 62.675 109.08437Z" fill-rule="nonzero"/><path fill="#757575" d="M56.565624 84.175L55.4875 84.175L55.4875 76.95625L53.3 77.75313L53.3 76.76875L56.409374 75.59688L56.565624 75.59688L56.565624 84.175ZM65.59688 84.175L60.003124 84.175L60.003124 83.39375L62.95625 80.1125Q63.6125 79.3625 63.8625 78.90938Q64.1125 78.44063 64.1125 77.94063Q64.1125 77.26875 63.70625 76.84688Q63.315624 76.40938 62.628124 76.40938Q61.83125 76.40938 61.378124 76.87813Q60.925 77.33125 60.925 78.15938L59.846874 78.15938Q59.846874 76.97188 60.596874 76.25313Q61.3625 75.51875 62.628124 75.51875Q63.83125 75.51875 64.51875 76.14375Q65.20625 76.76875 65.20625 77.81563Q65.20625 79.06563 63.596874 80.81563L61.315624 83.28438L65.59688 83.28438L65.59688 84.175Z" fill-rule="nonzero"/><path fill="#757575" d="M56.565624 51.5L55.4875 51.5L55.4875 44.28125L53.3 45.078125L53.3 44.09375L56.409374 42.921875L56.565624 42.921875L56.565624 51.5ZM64.26875 42.96875L64.26875 43.875L64.06563 43.875Q62.8 43.90625 62.05 44.640625Q61.3 45.359375 61.175 46.671875Q61.8625 45.90625 63.01875 45.90625Q64.12813 45.90625 64.8 46.6875Q65.47188 47.46875 65.47188 48.71875Q65.47188 50.03125 64.75313 50.828125Q64.03438 51.625 62.815624 51.625Q61.596874 51.625 60.83125 50.6875Q60.08125 49.734375 60.08125 48.25L60.08125 47.84375Q60.08125 45.484375 61.08125 44.234375Q62.08125 42.984375 64.06563 42.96875L64.26875 42.96875ZM62.846874 46.8125Q62.284374 46.8125 61.815624 47.140625Q61.346874 47.46875 61.159374 47.984375L61.159374 48.375Q61.159374 49.4375 61.628124 50.078125Q62.1125 50.71875 62.815624 50.71875Q63.55 50.71875 63.971874 50.1875Q64.39375 49.640625 64.39375 48.765625Q64.39375 47.890625 63.971874 47.359375Q63.55 46.8125 62.846874 46.8125Z" fill-rule="nonzero"/><path fill="#757575" d="M73.15938 194.6375Q75.06563 194.6375 76.00313 195.29375Q76.925 195.93437 76.925 197.325Q76.925 198.68437 76.01875 199.34062Q75.1125 199.99687 73.3 200.02812L71.8625 200.02812Q69.97188 200.02812 69.06563 199.3875Q68.14375 198.73125 68.14375 197.34062Q68.14375 195.96562 69.03438 195.30937Q69.90938 194.65312 71.75313 194.6375L73.15938 194.6375ZM71.675 195.73125Q70.3 195.73125 69.675 196.12187Q69.03438 196.49687 69.03438 197.34062Q69.03438 198.16875 69.675 198.55937Q70.3 198.93437 71.59688 198.93437L73.33125 198.93437Q74.70625 198.93437 75.37813 198.54375Q76.03438 198.1375 76.03438 197.325Q76.03438 196.52812 75.40938 196.1375Q74.78438 195.74687 73.45625 195.73125L71.675 195.73125ZM76.2375 192.85625Q75.95625 192.85625 75.76875 192.7Q75.58125 192.52812 75.58125 192.2Q75.58125 191.85625 75.76875 191.68437Q75.95625 191.5125 76.2375 191.5125Q76.50313 191.5125 76.69063 191.68437Q76.8625 191.85625 76.8625 192.2Q76.8625 192.52812 76.69063 192.7Q76.50313 192.85625 76.2375 192.85625ZM76.8 184.40312L76.8 189.99687L76.01875 189.99687L72.7375 187.04375Q71.9875 186.3875 71.53438 186.1375Q71.06563 185.8875 70.56563 185.8875Q69.89375 185.8875 69.47188 186.29375Q69.03438 186.68437 69.03438 187.37187Q69.03438 188.16875 69.50313 188.62187Q69.95625 189.075 70.78438 189.075L70.78438 190.15312Q69.59688 190.15312 68.87813 189.40312Q68.14375 188.6375 68.14375 187.37187Q68.14375 186.16875 68.76875 185.48125Q69.39375 184.79375 70.44063 184.79375Q71.69063 184.79375 73.44063 186.40312L75.90938 188.68437L75.90938 184.40312L76.8 184.40312Z" fill-rule="nonzero"/><path fill="#757575" d="M108.092705 194.63751Q109.998955 194.63751 110.936455 195.29376Q111.85833 195.93437 111.85833 197.325Q111.85833 198.68437 110.95208 199.34062Q110.04583 199.99687 108.23333 200.02812L106.79583 200.02812Q104.905205 200.02812 103.998955 199.3875Q103.07708 198.73125 103.07708 197.34062Q103.07708 195.96562 103.967705 195.30939Q104.842705 194.65314 106.686455 194.63751L108.092705 194.63751ZM106.60833 195.73126Q105.23333 195.73126 104.60833 196.12187Q103.967705 196.49687 103.967705 197.34062Q103.967705 198.16875 104.60833 198.55937Q105.23333 198.93437 106.530205 198.93437L108.26458 198.93437Q109.63958 198.93437 110.311455 198.54375Q110.967705 198.1375 110.967705 197.325Q110.967705 196.52812 110.342705 196.1375Q109.717705 195.74687 108.38958 195.73126L106.60833 195.73126ZM111.17083 192.85626Q110.88958 192.85626 110.70208 192.70001Q110.51458 192.52814 110.51458 192.20001Q110.51458 191.85626 110.70208 191.68439Q110.88958 191.51251 111.17083 191.51251Q111.436455 191.51251 111.623955 191.68439Q111.79583 191.85626 111.79583 192.20001Q111.79583 192.52814 111.623955 192.70001Q111.436455 192.85626 111.17083 192.85626ZM108.873955 185.41876L108.873955 184.23126L109.748955 184.23126L109.748955 185.41876L111.73333 185.41876L111.73333 186.49689L109.748955 186.49689L109.748955 190.38751L109.10833 190.38751L103.20208 186.57501L103.20208 185.41876L108.873955 185.41876ZM108.873955 189.15314L108.873955 186.49689L104.686455 186.49689L104.92083 186.63751L108.873955 189.15314Z" fill-rule="nonzero"/><path fill="#757575" d="M143.02605 194.63751Q144.9323 194.63751 145.8698 195.29376Q146.79167 195.93439 146.79167 197.32501Q146.79167 198.68439 145.88542 199.34064Q144.97917 199.99689 143.16667 200.02814L141.72917 200.02814Q139.83855 200.02814 138.9323 199.38751Q138.01042 198.73126 138.01042 197.34064Q138.01042 195.96564 138.90105 195.30939Q139.77605 194.65314 141.6198 194.63751L143.02605 194.63751ZM141.54167 195.73126Q140.16667 195.73126 139.54167 196.12189Q138.90105 196.49689 138.90105 197.34064Q138.90105 198.16876 139.54167 198.55939Q140.16667 198.93439 141.46355 198.93439L143.19792 198.93439Q144.57292 198.93439 145.2448 198.54376Q145.90105 198.13751 145.90105 197.32501Q145.90105 196.52814 145.27605 196.13751Q144.65105 195.74689 143.32292 195.73126L141.54167 195.73126ZM146.10417 192.85626Q145.82292 192.85626 145.63542 192.70001Q145.44792 192.52814 145.44792 192.20001Q145.44792 191.85626 145.63542 191.68439Q145.82292 191.51251 146.10417 191.51251Q146.3698 191.51251 146.5573 191.68439Q146.72917 191.85626 146.72917 192.20001Q146.72917 192.52814 146.5573 192.70001Q146.3698 192.85626 146.10417 192.85626ZM138.13542 185.73126L139.04167 185.73126L139.04167 185.93439Q139.07292 187.20001 139.8073 187.95001Q140.52605 188.70001 141.83855 188.82501Q141.07292 188.13751 141.07292 186.98126Q141.07292 185.87189 141.85417 185.20001Q142.63542 184.52814 143.88542 184.52814Q145.19792 184.52814 145.9948 185.24689Q146.79167 185.96564 146.79167 187.18439Q146.79167 188.40314 145.85417 189.16876Q144.90105 189.91876 143.41667 189.91876L143.01042 189.91876Q140.65105 189.91876 139.40105 188.91876Q138.15105 187.91876 138.13542 185.93439L138.13542 185.73126ZM141.97917 187.15314Q141.97917 187.71564 142.3073 188.18439Q142.63542 188.65314 143.15105 188.84064L143.54167 188.84064Q144.60417 188.84064 145.2448 188.37189Q145.88542 187.88751 145.88542 187.18439Q145.88542 186.45001 145.35417 186.02814Q144.8073 185.60626 143.9323 185.60626Q143.0573 185.60626 142.52605 186.02814Q141.97917 186.45001 141.97917 187.15314Z" fill-rule="nonzero"/><path fill="#757575" d="M177.95938 194.63751Q179.86563 194.63751 180.80313 195.29376Q181.725 195.93439 181.725 197.32501Q181.725 198.68439 180.81876 199.34064Q179.9125 199.99689 178.1 200.02814L176.6625 200.02814Q174.77188 200.02814 173.86563 199.38751Q172.94376 198.73126 172.94376 197.34064Q172.94376 195.96564 173.83438 195.30939Q174.70938 194.65314 176.55313 194.63751L177.95938 194.63751ZM176.475 195.73126Q175.1 195.73126 174.475 196.12189Q173.83438 196.49689 173.83438 197.34064Q173.83438 198.16876 174.475 198.55939Q175.1 198.93439 176.39688 198.93439L178.13126 198.93439Q179.50626 198.93439 180.17813 198.54376Q180.83438 198.13751 180.83438 197.32501Q180.83438 196.52814 180.20938 196.13751Q179.58438 195.74689 178.25626 195.73126L176.475 195.73126ZM181.0375 192.85626Q180.75626 192.85626 180.56876 192.70001Q180.38126 192.52814 180.38126 192.20001Q180.38126 191.85626 180.56876 191.68439Q180.75626 191.51251 181.0375 191.51251Q181.30313 191.51251 181.49063 191.68439Q181.6625 191.85626 181.6625 192.20001Q181.6625 192.52814 181.49063 192.70001Q181.30313 192.85626 181.0375 192.85626ZM175.2875 184.80939Q175.92813 184.80939 176.42813 185.15314Q176.92813 185.49689 177.20938 186.05939Q177.49063 185.40314 178.05313 185.01251Q178.6 184.62189 179.30313 184.62189Q180.39688 184.62189 181.06876 185.37189Q181.725 186.10626 181.725 187.32501Q181.725 188.55939 181.06876 189.30939Q180.39688 190.04376 179.30313 190.04376Q178.6 190.04376 178.05313 189.66876Q177.49063 189.29376 177.20938 188.62189Q176.92813 189.18439 176.42813 189.51251Q175.92813 189.84064 175.2875 189.84064Q174.20938 189.84064 173.58438 189.15314Q172.94376 188.46564 172.94376 187.32501Q172.94376 186.20001 173.58438 185.51251Q174.20938 184.80939 175.2875 184.80939ZM179.27188 185.70001Q178.55313 185.70001 178.11563 186.15314Q177.6625 186.60626 177.6625 187.34064Q177.6625 188.07501 178.11563 188.52814Q178.55313 188.96564 179.2875 188.96564Q180.00626 188.96564 180.42813 188.52814Q180.83438 188.09064 180.83438 187.32501Q180.83438 186.57501 180.4125 186.13751Q179.99063 185.70001 179.27188 185.70001ZM173.83438 187.32501Q173.83438 187.96564 174.24063 188.37189Q174.63126 188.76251 175.31876 188.76251Q175.95938 188.76251 176.36563 188.37189Q176.77188 187.98126 176.77188 187.34064Q176.77188 186.68439 176.36563 186.29376Q175.95938 185.90314 175.31876 185.90314Q174.6625 185.90314 174.25626 186.30939Q173.83438 186.71564 173.83438 187.32501Z" fill-rule="nonzero"/><path fill="#757575" d="M216.53334 196.43439L216.53334 197.51251L209.31459 197.51251L210.11147 199.70001L209.12709 199.70001L207.95522 196.59064L207.95522 196.43439L216.53334 196.43439ZM215.97084 192.85626Q215.68959 192.85626 215.50209 192.70001Q215.31459 192.52814 215.31459 192.20001Q215.31459 191.85626 215.50209 191.68439Q215.68959 191.51251 215.97084 191.51251Q216.23647 191.51251 216.42397 191.68439Q216.59584 191.85626 216.59584 192.20001Q216.59584 192.52814 216.42397 192.70001Q216.23647 192.85626 215.97084 192.85626ZM212.89272 184.63751Q214.79897 184.63751 215.73647 185.29376Q216.65834 185.93439 216.65834 187.32501Q216.65834 188.68439 215.75209 189.34064Q214.84584 189.99689 213.03334 190.02814L211.59584 190.02814Q209.70522 190.02814 208.79897 189.38751Q207.87709 188.73126 207.87709 187.34064Q207.87709 185.96564 208.76772 185.30939Q209.64272 184.65314 211.48647 184.63751L212.89272 184.63751ZM211.40834 185.73126Q210.03334 185.73126 209.40834 186.12189Q208.76772 186.49689 208.76772 187.34064Q208.76772 188.16876 209.40834 188.55939Q210.03334 188.93439 211.33022 188.93439L213.06459 188.93439Q214.43959 188.93439 215.11147 188.54376Q215.76772 188.13751 215.76772 187.32501Q215.76772 186.52814 215.14272 186.13751Q214.51772 185.74689 213.18959 185.73126L211.40834 185.73126Z" fill-rule="nonzero"/><path fill="#757575" d="M251.46666 196.43437L251.46666 197.5125L244.24791 197.5125L245.04478 199.7L244.06041 199.7L242.88853 196.59062L242.88853 196.43437L251.46666 196.43437ZM250.90416 192.85625Q250.62291 192.85625 250.43541 192.7Q250.24791 192.52812 250.24791 192.2Q250.24791 191.85625 250.43541 191.68437Q250.62291 191.5125 250.90416 191.5125Q251.16978 191.5125 251.35728 191.68437Q251.52916 191.85625 251.52916 192.2Q251.52916 192.52812 251.35728 192.7Q251.16978 192.85625 250.90416 192.85625ZM251.46666 184.40312L251.46666 189.99687L250.68541 189.99687L247.40416 187.04375Q246.65416 186.3875 246.20103 186.1375Q245.73228 185.8875 245.23228 185.8875Q244.56041 185.8875 244.13853 186.29375Q243.70103 186.68437 243.70103 187.37187Q243.70103 188.16875 244.16978 188.62187Q244.62291 189.075 245.45103 189.075L245.45103 190.15312Q244.26353 190.15312 243.54478 189.40312Q242.81041 188.6375 242.81041 187.37187Q242.81041 186.16875 243.43541 185.48125Q244.06041 184.79375 245.10728 184.79375Q246.35728 184.79375 248.10728 186.40312L250.57603 188.68437L250.57603 184.40312L251.46666 184.40312Z" fill-rule="nonzero"/><path fill="#757575" d="M286.4 196.43436L286.4 197.51248L279.18124 197.51248L279.97812 199.69998L278.99374 199.69998L277.82187 196.5906L277.82187 196.43436L286.4 196.43436ZM285.8375 192.85623Q285.55624 192.85623 285.36874 192.69998Q285.18124 192.5281 285.18124 192.19998Q285.18124 191.85623 285.36874 191.68436Q285.55624 191.51248 285.8375 191.51248Q286.10312 191.51248 286.29062 191.68436Q286.4625 191.85623 286.4625 192.19998Q286.4625 192.5281 286.29062 192.69998Q286.10312 192.85623 285.8375 192.85623ZM283.54062 185.41873L283.54062 184.23123L284.41562 184.23123L284.41562 185.41873L286.4 185.41873L286.4 186.49686L284.41562 186.49686L284.41562 190.38748L283.775 190.38748L277.86874 186.57498L277.86874 185.41873L283.54062 185.41873ZM283.54062 189.1531L283.54062 186.49686L279.35312 186.49686L279.5875 186.63748L283.54062 189.1531Z" fill-rule="nonzero"/><path fill="#757575" d="M321.33334 196.43437L321.33334 197.5125L314.1146 197.5125L314.91147 199.7L313.9271 199.7L312.75522 196.59062L312.75522 196.43437L321.33334 196.43437ZM320.77084 192.85625Q320.4896 192.85625 320.3021 192.7Q320.1146 192.52812 320.1146 192.2Q320.1146 191.85625 320.3021 191.68437Q320.4896 191.5125 320.77084 191.5125Q321.03647 191.5125 321.22397 191.68437Q321.39584 191.85625 321.39584 192.2Q321.39584 192.52812 321.22397 192.7Q321.03647 192.85625 320.77084 192.85625ZM312.8021 185.73125L313.70834 185.73125L313.70834 185.93437Q313.7396 187.2 314.47397 187.95Q315.19272 188.7 316.50522 188.825Q315.7396 188.1375 315.7396 186.98125Q315.7396 185.87187 316.52084 185.2Q317.3021 184.52812 318.5521 184.52812Q319.8646 184.52812 320.66147 185.24687Q321.45834 185.96562 321.45834 187.18437Q321.45834 188.40312 320.52084 189.16875Q319.56772 189.91875 318.08334 189.91875L317.6771 189.91875Q315.31772 189.91875 314.06772 188.91875Q312.81772 187.91875 312.8021 185.93437L312.8021 185.73125ZM316.64584 187.15312Q316.64584 187.71562 316.97397 188.18437Q317.3021 188.65312 317.81772 188.84062L318.20834 188.84062Q319.27084 188.84062 319.91147 188.37187Q320.5521 187.8875 320.5521 187.18437Q320.5521 186.45 320.02084 186.02812Q319.47397 185.60625 318.59897 185.60625Q317.72397 185.60625 317.19272 186.02812Q316.64584 186.45 316.64584 187.15312Z" fill-rule="nonzero"/><path fill="#757575" d="M356.26666 196.43436L356.26666 197.51248L349.0479 197.51248L349.8448 199.69998L348.8604 199.69998L347.68854 196.5906L347.68854 196.43436L356.26666 196.43436ZM355.70416 192.85623Q355.4229 192.85623 355.2354 192.69998Q355.0479 192.5281 355.0479 192.19998Q355.0479 191.85623 355.2354 191.68436Q355.4229 191.51248 355.70416 191.51248Q355.9698 191.51248 356.1573 191.68436Q356.32916 191.85623 356.32916 192.19998Q356.32916 192.5281 356.1573 192.69998Q355.9698 192.85623 355.70416 192.85623ZM349.95416 184.80936Q350.5948 184.80936 351.0948 185.1531Q351.5948 185.49686 351.87604 186.05936Q352.1573 185.4031 352.7198 185.01248Q353.26666 184.62186 353.9698 184.62186Q355.06354 184.62186 355.7354 185.37186Q356.39166 186.10623 356.39166 187.32498Q356.39166 188.55936 355.7354 189.30936Q355.06354 190.04373 353.9698 190.04373Q353.26666 190.04373 352.7198 189.66873Q352.1573 189.29373 351.87604 188.62186Q351.5948 189.18436 351.0948 189.51248Q350.5948 189.8406 349.95416 189.8406Q348.87604 189.8406 348.25104 189.1531Q347.6104 188.4656 347.6104 187.32498Q347.6104 186.19998 348.25104 185.51248Q348.87604 184.80936 349.95416 184.80936ZM353.93854 185.69998Q353.2198 185.69998 352.7823 186.1531Q352.32916 186.60623 352.32916 187.3406Q352.32916 188.07498 352.7823 188.5281Q353.2198 188.9656 353.95416 188.9656Q354.6729 188.9656 355.0948 188.5281Q355.50104 188.0906 355.50104 187.32498Q355.50104 186.57498 355.07916 186.13748Q354.6573 185.69998 353.93854 185.69998ZM348.50104 187.32498Q348.50104 187.9656 348.9073 188.37186Q349.2979 188.76248 349.9854 188.76248Q350.62604 188.76248 351.0323 188.37186Q351.43854 187.98123 351.43854 187.3406Q351.43854 186.68436 351.0323 186.29373Q350.62604 185.9031 349.9854 185.9031Q349.32916 185.9031 348.9229 186.30936Q348.50104 186.7156 348.50104 187.32498Z" fill-rule="nonzero"/><path fill="#757575" d="M391.2 194.40312L391.2 199.99687L390.41876 199.99687L387.1375 197.04375Q386.3875 196.3875 385.9344 196.1375Q385.46564 195.8875 384.96564 195.8875Q384.29376 195.8875 383.8719 196.29375Q383.4344 196.68437 383.4344 197.37187Q383.4344 198.16875 383.90314 198.62187Q384.35626 199.075 385.1844 199.075L385.1844 200.15312Q383.9969 200.15312 383.27814 199.40312Q382.54376 198.6375 382.54376 197.37187Q382.54376 196.16875 383.16876 195.48125Q383.79376 194.79375 384.84064 194.79375Q386.09064 194.79375 387.84064 196.40312L390.3094 198.68437L390.3094 194.40312L391.2 194.40312ZM390.6375 192.85625Q390.35626 192.85625 390.16876 192.7Q389.98126 192.52812 389.98126 192.2Q389.98126 191.85625 390.16876 191.68437Q390.35626 191.5125 390.6375 191.5125Q390.90314 191.5125 391.09064 191.68437Q391.2625 191.85625 391.2625 192.2Q391.2625 192.52812 391.09064 192.7Q390.90314 192.85625 390.6375 192.85625ZM387.5594 184.6375Q389.46564 184.6375 390.40314 185.29375Q391.325 185.93437 391.325 187.325Q391.325 188.68437 390.41876 189.34062Q389.5125 189.99687 387.7 190.02812L386.2625 190.02812Q384.3719 190.02812 383.46564 189.3875Q382.54376 188.73125 382.54376 187.34062Q382.54376 185.96562 383.4344 185.30937Q384.3094 184.65312 386.15314 184.6375L387.5594 184.6375ZM386.075 185.73125Q384.7 185.73125 384.075 186.12187Q383.4344 186.49687 383.4344 187.34062Q383.4344 188.16875 384.075 188.55937Q384.7 188.93437 385.9969 188.93437L387.73126 188.93437Q389.10626 188.93437 389.77814 188.54375Q390.4344 188.1375 390.4344 187.325Q390.4344 186.52812 389.8094 186.1375Q389.1844 185.74687 387.85626 185.73125L386.075 185.73125Z" fill-rule="nonzero"/><path fill="#757575" d="M22.378124 21.971874Q22.378124 23.64375 21.815624 24.89375Q21.253124 26.14375 20.221874 26.8Q19.190624 27.45625 17.815624 27.45625Q16.471874 27.45625 15.425 26.8Q14.39375 26.128124 13.815625 24.909374Q13.2375 23.690624 13.221875 22.08125L13.221875 21.253124Q13.221875 19.6125 13.784375 18.3625Q14.3625 17.096874 15.409375 16.440624Q16.45625 15.768749 17.8 15.768749Q19.159374 15.768749 20.20625 16.425Q21.253124 17.08125 21.815624 18.346874Q22.378124 19.596874 22.378124 21.253124L22.378124 21.971874ZM20.878124 21.2375Q20.878124 19.221874 20.065624 18.14375Q19.253124 17.05 17.8 17.05Q16.378124 17.05 15.55 18.14375Q14.7375 19.221874 14.721875 21.14375L14.721875 21.971874Q14.721875 23.940624 15.534375 25.065624Q16.3625 26.175 17.815624 26.175Q19.26875 26.175 20.065624 25.128124Q20.8625 24.065624 20.878124 22.08125L20.878124 21.2375ZM29.6125 26.45625Q28.76875 27.45625 27.14375 27.45625Q25.784374 27.45625 25.08125 26.675Q24.378124 25.878124 24.3625 24.346874L24.3625 18.846874L25.815624 18.846874L25.815624 24.3Q25.815624 26.221874 27.378124 26.221874Q29.034374 26.221874 29.58125 24.9875L29.58125 18.846874L31.01875 18.846874L31.01875 27.3L29.64375 27.3L29.6125 26.45625ZM35.3625 16.8L35.3625 18.846874L36.940624 18.846874L36.940624 19.95625L35.3625 19.95625L35.3625 25.20625Q35.3625 25.70625 35.565624 25.971874Q35.784374 26.221874 36.284374 26.221874Q36.534374 26.221874 36.971874 26.128124L36.971874 27.3Q36.409374 27.45625 35.8625 27.45625Q34.89375 27.45625 34.39375 26.878124Q33.909374 26.284374 33.909374 25.20625L33.909374 19.95625L32.378124 19.95625L32.378124 18.846874L33.909374 18.846874L33.909374 16.8L35.3625 16.8ZM45.534374 23.159374Q45.534374 25.096874 44.64375 26.284374Q43.76875 27.45625 42.26875 27.45625Q40.721874 27.45625 39.846874 26.471874L39.846874 30.55L38.39375 30.55L38.39375 18.846874L39.721874 18.846874L39.784374 19.784374Q40.675 18.690624 42.2375 18.690624Q43.76875 18.690624 44.64375 19.846874Q45.534374 20.9875 45.534374 23.034374L45.534374 23.159374ZM44.096874 23.003124Q44.096874 21.565624 43.4875 20.7375Q42.878124 19.909374 41.815624 19.909374Q40.503124 19.909374 39.846874 21.08125L39.846874 25.1125Q40.4875 26.26875 41.83125 26.26875Q42.8625 26.26875 43.471874 25.45625Q44.096874 24.628124 44.096874 23.003124ZM52.6125 26.45625Q51.76875 27.45625 50.14375 27.45625Q48.784374 27.45625 48.08125 26.675Q47.378124 25.878124 47.3625 24.346874L47.3625 18.846874L48.815624 18.846874L48.815624 24.3Q48.815624 26.221874 50.378124 26.221874Q52.034374 26.221874 52.58125 24.9875L52.58125 18.846874L54.01875 18.846874L54.01875 27.3L52.64375 27.3L52.6125 26.45625ZM58.3625 16.8L58.3625 18.846874L59.940624 18.846874L59.940624 19.95625L58.3625 19.95625L58.3625 25.20625Q58.3625 25.70625 58.565624 25.971874Q58.784374 26.221874 59.284374 26.221874Q59.534374 26.221874 59.971874 26.128124L59.971874 27.3Q59.409374 27.45625 58.8625 27.45625Q57.89375 27.45625 57.39375 26.878124Q56.909374 26.284374 56.909374 25.20625L56.909374 19.95625L55.378124 19.95625L55.378124 18.846874L56.909374 18.846874L56.909374 16.8L58.3625 16.8ZM67.12813 22.846874L67.12813 27.3L65.62813 27.3L65.62813 15.924999L69.81563 15.924999Q71.69063 15.924999 72.7375 16.878124Q73.8 17.83125 73.8 19.39375Q73.8 21.05 72.76875 21.95625Q71.7375 22.846874 69.8 22.846874L67.12813 22.846874ZM67.12813 21.6125L69.81563 21.6125Q71.01875 21.6125 71.65938 21.05Q72.3 20.4875 72.3 19.409374Q72.3 18.39375 71.65938 17.784374Q71.01875 17.175 69.90938 17.159374L67.12813 17.159374L67.12813 21.6125ZM75.01875 22.9875Q75.01875 21.753124 75.50313 20.76875Q75.9875 19.76875 76.8625 19.2375Q77.7375 18.690624 78.84688 18.690624Q80.58125 18.690624 81.64375 19.89375Q82.70625 21.08125 82.70625 23.065624L82.70625 23.159374Q82.70625 24.39375 82.2375 25.378124Q81.76875 26.3625 80.87813 26.909374Q80.00313 27.45625 78.8625 27.45625Q77.14375 27.45625 76.08125 26.26875Q75.01875 25.065624 75.01875 23.096874L75.01875 22.9875ZM76.47188 23.159374Q76.47188 24.565624 77.1125 25.425Q77.76875 26.26875 78.8625 26.26875Q79.97188 26.26875 80.6125 25.409374Q81.26875 24.55 81.26875 22.9875Q81.26875 21.596874 80.59688 20.7375Q79.94063 19.878124 78.84688 19.878124Q77.78438 19.878124 77.12813 20.7375Q76.47188 21.58125 76.47188 23.159374ZM91.87813 25.3L93.50313 18.846874L94.95625 18.846874L92.4875 27.3L91.31563 27.3L89.26875 20.89375L87.26875 27.3L86.09688 27.3L83.64375 18.846874L85.08125 18.846874L86.7375 25.175L88.70625 18.846874L89.87813 18.846874L91.87813 25.3ZM99.90938 27.45625Q98.19063 27.45625 97.1125 26.33125Q96.03438 25.190624 96.03438 23.3L96.03438 23.034374Q96.03438 21.784374 96.50313 20.8Q96.9875 19.8 97.84688 19.253124Q98.72188 18.690624 99.72188 18.690624Q101.37813 18.690624 102.28438 19.784374Q103.20625 20.8625 103.20625 22.878124L103.20625 23.4875L97.47188 23.4875Q97.50313 24.7375 98.20625 25.503124Q98.90938 26.26875 99.9875 26.26875Q100.75313 26.26875 101.28438 25.95625Q101.81563 25.64375 102.20625 25.128124L103.09688 25.815624Q102.03438 27.45625 99.90938 27.45625ZM99.72188 19.878124Q98.84688 19.878124 98.25313 20.51875Q97.65938 21.14375 97.51875 22.3L101.75313 22.3L101.75313 22.190624Q101.69063 21.08125 101.15938 20.4875Q100.62813 19.878124 99.72188 19.878124ZM108.4875 20.14375Q108.15938 20.08125 107.76875 20.08125Q106.34688 20.08125 105.84688 21.3L105.84688 27.3L104.39375 27.3L104.39375 18.846874L105.8 18.846874L105.83125 19.815624Q106.53438 18.690624 107.84688 18.690624Q108.26875 18.690624 108.4875 18.8L108.4875 20.14375ZM116.19063 25.33125L118.28438 18.846874L119.75313 18.846874L116.72188 27.3L115.62813 27.3L112.56563 18.846874L114.03438 18.846874L116.19063 25.33125ZM126.31563 25.05Q126.31563 24.471874 125.87813 24.14375Q125.44063 23.815624 124.33125 23.58125Q123.2375 23.346874 122.59688 23.01875Q121.95625 22.690624 121.64375 22.2375Q121.33125 21.784374 121.33125 21.159374Q121.33125 20.128124 122.20625 19.409374Q123.09688 18.690624 124.45625 18.690624Q125.89375 18.690624 126.78438 19.440624Q127.69063 20.175 127.69063 21.33125L126.2375 21.33125Q126.2375 20.7375 125.72188 20.315624Q125.22188 19.878124 124.45625 19.878124Q123.675 19.878124 123.22188 20.221874Q122.78438 20.565624 122.78438 21.1125Q122.78438 21.64375 123.19063 21.909374Q123.6125 22.175 124.69063 22.425Q125.76875 22.659374 126.44063 23.003124Q127.1125 23.33125 127.44063 23.8Q127.76875 24.26875 127.76875 24.95625Q127.76875 26.08125 126.8625 26.76875Q125.95625 27.45625 124.50313 27.45625Q123.4875 27.45625 122.70625 27.096874Q121.925 26.7375 121.4875 26.096874Q121.05 25.440624 121.05 24.690624L122.4875 24.690624Q122.53438 25.425 123.06563 25.846874Q123.6125 26.26875 124.50313 26.26875Q125.33125 26.26875 125.81563 25.940624Q126.31563 25.6125 126.31563 25.05ZM129.425 26.534374Q129.425 26.159374 129.64375 25.909374Q129.87813 25.659374 130.31563 25.659374Q130.76875 25.659374 130.9875 25.909374Q131.22188 26.159374 131.22188 26.534374Q131.22188 26.89375 130.9875 27.14375Q130.76875 27.39375 130.31563 27.39375Q129.87813 27.39375 129.64375 27.14375Q129.425 26.89375 129.425 26.534374ZM146.37813 21.971874Q146.37813 23.64375 145.81563 24.89375Q145.25313 26.14375 144.22188 26.8Q143.19063 27.45625 141.81563 27.45625Q140.47188 27.45625 139.425 26.8Q138.39375 26.128124 137.81563 24.909374Q137.2375 23.690624 137.22188 22.08125L137.22188 21.253124Q137.22188 19.6125 137.78438 18.3625Q138.3625 17.096874 139.40938 16.440624Q140.45625 15.768749 141.8 15.768749Q143.15938 15.768749 144.20625 16.425Q145.25313 17.08125 145.81563 18.346874Q146.37813 19.596874 146.37813 21.253124L146.37813 21.971874ZM144.87813 21.2375Q144.87813 19.221874 144.06563 18.14375Q143.25313 17.05 141.8 17.05Q140.37813 17.05 139.55 18.14375Q138.7375 19.221874 138.72188 21.14375L138.72188 21.971874Q138.72188 23.940624 139.53438 25.065624Q140.3625 26.175 141.81563 26.175Q143.26875 26.175 144.06563 25.128124Q144.8625 24.065624 144.87813 22.08125L144.87813 21.2375ZM153.6125 26.45625Q152.76875 27.45625 151.14375 27.45625Q149.78438 27.45625 149.08125 26.675Q148.37813 25.878124 148.3625 24.346874L148.3625 18.846874L149.81563 18.846874L149.81563 24.3Q149.81563 26.221874 151.37813 26.221874Q153.03438 26.221874 153.58125 24.9875L153.58125 18.846874L155.01875 18.846874L155.01875 27.3L153.64375 27.3L153.6125 26.45625ZM159.3625 16.8L159.3625 18.846874L160.94063 18.846874L160.94063 19.95625L159.3625 19.95625L159.3625 25.20625Q159.3625 25.70625 159.56563 25.971874Q159.78438 26.221874 160.28438 26.221874Q160.53438 26.221874 160.97188 26.128124L160.97188 27.3Q160.40938 27.45625 159.8625 27.45625Q158.89375 27.45625 158.39375 26.878124Q157.90938 26.284374 157.90938 25.20625L157.90938 19.95625L156.37813 19.95625L156.37813 18.846874L157.90938 18.846874L157.90938 16.8L159.3625 16.8ZM169.53438 23.159374Q169.53438 25.096874 168.64375 26.284374Q167.76875 27.45625 166.26875 27.45625Q164.72188 27.45625 163.84688 26.471874L163.84688 30.55L162.39375 30.55L162.39375 18.846874L163.72188 18.846874L163.78438 19.784374Q164.675 18.690624 166.2375 18.690624Q167.76875 18.690624 168.64375 19.846874Q169.53438 20.9875 169.53438 23.034374L169.53438 23.159374ZM168.09688 23.003124Q168.09688 21.565624 167.4875 20.7375Q166.87813 19.909374 165.81563 19.909374Q164.50313 19.909374 163.84688 21.08125L163.84688 25.1125Q164.4875 26.26875 165.83125 26.26875Q166.8625 26.26875 167.47188 25.45625Q168.09688 24.628124 168.09688 23.003124ZM176.6125 26.45625Q175.76875 27.45625 174.14375 27.45625Q172.78438 27.45625 172.08125 26.675Q171.37813 25.878124 171.3625 24.346874L171.3625 18.846874L172.81563 18.846874L172.81563 24.3Q172.81563 26.221874 174.37813 26.221874Q176.03438 26.221874 176.58125 24.9875L176.58125 18.846874L178.01875 18.846874L178.01875 27.3L176.64375 27.3L176.6125 26.45625ZM182.3625 16.8L182.3625 18.846874L183.94063 18.846874L183.94063 19.95625L182.3625 19.95625L182.3625 25.20625Q182.3625 25.70625 182.56563 25.971874Q182.78438 26.221874 183.28438 26.221874Q183.53438 26.221874 183.97188 26.128124L183.97188 27.3Q183.40938 27.45625 182.8625 27.45625Q181.89375 27.45625 181.39375 26.878124Q180.90938 26.284374 180.90938 25.20625L180.90938 19.95625L179.37813 19.95625L179.37813 18.846874L180.90938 18.846874L180.90938 16.8L182.3625 16.8ZM191.2375 27.3L189.7375 27.3L189.7375 15.924999L191.2375 15.924999L191.2375 27.3ZM194.75313 18.846874L194.8 19.784374Q195.72188 18.690624 197.3 18.690624Q199.08125 18.690624 199.72188 20.05Q200.14375 19.440624 200.81563 19.065624Q201.4875 18.690624 202.40938 18.690624Q205.19063 18.690624 205.2375 21.628124L205.2375 27.3L203.8 27.3L203.8 21.721874Q203.8 20.815624 203.37813 20.3625Q202.97188 19.909374 201.9875 19.909374Q201.19063 19.909374 200.65938 20.39375Q200.12813 20.878124 200.03438 21.690624L200.03438 27.3L198.58125 27.3L198.58125 21.753124Q198.58125 19.909374 196.78438 19.909374Q195.3625 19.909374 194.83125 21.128124L194.83125 27.3L193.39375 27.3L193.39375 18.846874L194.75313 18.846874ZM214.53438 23.159374Q214.53438 25.096874 213.64375 26.284374Q212.76875 27.45625 211.26875 27.45625Q209.72188 27.45625 208.84688 26.471874L208.84688 30.55L207.39375 30.55L207.39375 18.846874L208.72188 18.846874L208.78438 19.784374Q209.675 18.690624 211.2375 18.690624Q212.76875 18.690624 213.64375 19.846874Q214.53438 20.9875 214.53438 23.034374L214.53438 23.159374ZM213.09688 23.003124Q213.09688 21.565624 212.4875 20.7375Q211.87813 19.909374 210.81563 19.909374Q209.50313 19.909374 208.84688 21.08125L208.84688 25.1125Q209.4875 26.26875 210.83125 26.26875Q211.8625 26.26875 212.47188 25.45625Q213.09688 24.628124 213.09688 23.003124ZM219.90938 27.45625Q218.19063 27.45625 217.1125 26.33125Q216.03438 25.190624 216.03438 23.3L216.03438 23.034374Q216.03438 21.784374 216.50313 20.8Q216.9875 19.8 217.84688 19.253124Q218.72188 18.690624 219.72188 18.690624Q221.37813 18.690624 222.28438 19.784374Q223.20625 20.8625 223.20625 22.878124L223.20625 23.4875L217.47188 23.4875Q217.50313 24.7375 218.20625 25.503124Q218.90938 26.26875 219.9875 26.26875Q220.75313 26.26875 221.28438 25.95625Q221.81563 25.64375 222.20625 25.128124L223.09688 25.815624Q222.03438 27.45625 219.90938 27.45625ZM219.72188 19.878124Q218.84688 19.878124 218.25313 20.51875Q217.65938 21.14375 217.51875 22.3L221.75313 22.3L221.75313 22.190624Q221.69063 21.08125 221.15938 20.4875Q220.62813 19.878124 219.72188 19.878124ZM224.05 23.003124Q224.05 21.05 224.97188 19.878124Q225.89375 18.690624 227.37813 18.690624Q228.8625 18.690624 229.7375 19.70625L229.7375 15.299999L231.175 15.299999L231.175 27.3L229.84688 27.3L229.78438 26.39375Q228.90938 27.45625 227.3625 27.45625Q225.89375 27.45625 224.97188 26.253124Q224.05 25.05 224.05 23.1125L224.05 23.003124ZM225.4875 23.159374Q225.4875 24.596874 226.08125 25.409374Q226.675 26.221874 227.72188 26.221874Q229.09688 26.221874 229.7375 24.9875L229.7375 21.1125Q229.08125 19.909374 227.7375 19.909374Q226.675 19.909374 226.08125 20.7375Q225.4875 21.55 225.4875 23.159374ZM238.6125 27.3Q238.4875 27.05 238.40938 26.409374Q237.40938 27.45625 236.00313 27.45625Q234.75313 27.45625 233.95625 26.753124Q233.15938 26.034374 233.15938 24.95625Q233.15938 23.628124 234.15938 22.909374Q235.15938 22.175 236.9875 22.175L238.39375 22.175L238.39375 21.503124Q238.39375 20.753124 237.94063 20.3Q237.4875 19.846874 236.59688 19.846874Q235.83125 19.846874 235.3 20.2375Q234.78438 20.628124 234.78438 21.190624L233.33125 21.190624Q233.33125 20.55 233.76875 19.971874Q234.22188 19.378124 234.9875 19.034374Q235.76875 18.690624 236.69063 18.690624Q238.14375 18.690624 238.97188 19.425Q239.8 20.14375 239.83125 21.425L239.83125 25.315624Q239.83125 26.4875 240.12813 27.175L240.12813 27.3L238.6125 27.3ZM236.22188 26.190624Q236.89375 26.190624 237.50313 25.846874Q238.1125 25.4875 238.39375 24.925L238.39375 23.190624L237.25313 23.190624Q234.59688 23.190624 234.59688 24.753124Q234.59688 25.425 235.05 25.815624Q235.50313 26.190624 236.22188 26.190624ZM243.76875 18.846874L243.81563 19.909374Q244.78438 18.690624 246.34688 18.690624Q249.01875 18.690624 249.05 21.70625L249.05 27.3L247.59688 27.3L247.59688 21.70625Q247.59688 20.784374 247.175 20.346874Q246.76875 19.909374 245.90938 19.909374Q245.20625 19.909374 244.675 20.284374Q244.14375 20.659374 243.84688 21.26875L243.84688 27.3L242.39375 27.3L242.39375 18.846874L243.76875 18.846874ZM254.78438 26.26875Q255.56563 26.26875 256.14374 25.8Q256.72186 25.33125 256.78436 24.628124L258.14374 24.628124Q258.1125 25.3625 257.64374 26.01875Q257.1906 26.675 256.40936 27.065624Q255.64375 27.45625 254.78438 27.45625Q253.06563 27.45625 252.03438 26.3Q251.01875 25.14375 251.01875 23.14375L251.01875 22.909374Q251.01875 21.675 251.47188 20.721874Q251.925 19.753124 252.76875 19.221874Q253.62813 18.690624 254.78438 18.690624Q256.20624 18.690624 257.14374 19.55Q258.08124 20.39375 258.14374 21.753124L256.78436 21.753124Q256.72186 20.925 256.15936 20.409374Q255.59688 19.878124 254.78438 19.878124Q253.675 19.878124 253.06563 20.675Q252.47188 21.45625 252.47188 22.95625L252.47188 23.2375Q252.47188 24.690624 253.06563 25.4875Q253.675 26.26875 254.78438 26.26875ZM262.90936 27.45625Q261.1906 27.45625 260.1125 26.33125Q259.03436 25.190624 259.03436 23.3L259.03436 23.034374Q259.03436 21.784374 259.5031 20.8Q259.9875 19.8 260.84686 19.253124Q261.72186 18.690624 262.72186 18.690624Q264.3781 18.690624 265.28436 19.784374Q266.20624 20.8625 266.20624 22.878124L266.20624 23.4875L260.47186 23.4875Q260.5031 24.7375 261.20624 25.503124Q261.90936 26.26875 262.9875 26.26875Q263.7531 26.26875 264.28436 25.95625Q264.8156 25.64375 265.20624 25.128124L266.09686 25.815624Q265.03436 27.45625 262.90936 27.45625ZM262.72186 19.878124Q261.84686 19.878124 261.2531 20.51875Q260.65936 21.14375 260.51874 22.3L264.7531 22.3L264.7531 22.190624Q264.6906 21.08125 264.15936 20.4875Q263.6281 19.878124 262.72186 19.878124ZM271.34686 22.675Q271.34686 20.909374 271.8156 19.284374Q272.28436 17.659374 273.22186 16.33125Q274.15936 15.003124 275.175 14.456249L275.47186 15.409374Q274.33124 16.284374 273.59686 18.08125Q272.8625 19.878124 272.8 22.1125L272.78436 22.76875Q272.78436 25.784374 273.89374 28.01875Q274.55 29.346874 275.47186 30.096874L275.175 30.971874Q274.1281 30.39375 273.1906 29.034374Q271.34686 26.378124 271.34686 22.675ZM283.53436 23.159374Q283.53436 25.096874 282.64374 26.284374Q281.76874 27.45625 280.26874 27.45625Q278.72186 27.45625 277.84686 26.471874L277.84686 30.55L276.39374 30.55L276.39374 18.846874L277.72186 18.846874L277.78436 19.784374Q278.675 18.690624 280.2375 18.690624Q281.76874 18.690624 282.64374 19.846874Q283.53436 20.9875 283.53436 23.034374L283.53436 23.159374ZM282.09686 23.003124Q282.09686 21.565624 281.4875 20.7375Q280.8781 19.909374 279.8156 19.909374Q278.5031 19.909374 277.84686 21.08125L277.84686 25.1125Q278.4875 26.26875 279.83124 26.26875Q280.8625 26.26875 281.47186 25.45625Q282.09686 24.628124 282.09686 23.003124ZM288.90936 27.45625Q287.1906 27.45625 286.1125 26.33125Q285.03436 25.190624 285.03436 23.3L285.03436 23.034374Q285.03436 21.784374 285.5031 20.8Q285.9875 19.8 286.84686 19.253124Q287.72186 18.690624 288.72186 18.690624Q290.3781 18.690624 291.28436 19.784374Q292.20624 20.8625 292.20624 22.878124L292.20624 23.4875L286.47186 23.4875Q286.5031 24.7375 287.20624 25.503124Q287.90936 26.26875 288.9875 26.26875Q289.7531 26.26875 290.28436 25.95625Q290.8156 25.64375 291.20624 25.128124L292.09686 25.815624Q291.03436 27.45625 288.90936 27.45625ZM288.72186 19.878124Q287.84686 19.878124 287.2531 20.51875Q286.65936 21.14375 286.51874 22.3L290.7531 22.3L290.7531 22.190624Q290.6906 21.08125 290.15936 20.4875Q289.6281 19.878124 288.72186 19.878124ZM297.4875 20.14375Q297.15936 20.08125 296.76874 20.08125Q295.34686 20.08125 294.84686 21.3L294.84686 27.3L293.39374 27.3L293.39374 18.846874L294.8 18.846874L294.83124 19.815624Q295.53436 18.690624 296.84686 18.690624Q297.26874 18.690624 297.4875 18.8L297.4875 20.14375ZM306.4875 20.14375Q306.15936 20.08125 305.76874 20.08125Q304.34686 20.08125 303.84686 21.3L303.84686 27.3L302.39374 27.3L302.39374 18.846874L303.8 18.846874L303.83124 19.815624Q304.53436 18.690624 305.84686 18.690624Q306.26874 18.690624 306.4875 18.8L306.4875 20.14375ZM312.6125 27.3Q312.4875 27.05 312.40936 26.409374Q311.40936 27.45625 310.0031 27.45625Q308.7531 27.45625 307.95624 26.753124Q307.15936 26.034374 307.15936 24.95625Q307.15936 23.628124 308.15936 22.909374Q309.15936 22.175 310.9875 22.175L312.39374 22.175L312.39374 21.503124Q312.39374 20.753124 311.9406 20.3Q311.4875 19.846874 310.59686 19.846874Q309.83124 19.846874 309.3 20.2375Q308.78436 20.628124 308.78436 21.190624L307.33124 21.190624Q307.33124 20.55 307.76874 19.971874Q308.22186 19.378124 308.9875 19.034374Q309.76874 18.690624 310.6906 18.690624Q312.14374 18.690624 312.97186 19.425Q313.8 20.14375 313.83124 21.425L313.83124 25.315624Q313.83124 26.4875 314.1281 27.175L314.1281 27.3L312.6125 27.3ZM310.22186 26.190624Q310.89374 26.190624 311.5031 25.846874Q312.1125 25.4875 312.39374 24.925L312.39374 23.190624L311.2531 23.190624Q308.59686 23.190624 308.59686 24.753124Q308.59686 25.425 309.05 25.815624Q309.5031 26.190624 310.22186 26.190624ZM317.97186 27.3L316.51874 27.3L316.51874 18.846874L317.97186 18.846874L317.97186 27.3ZM316.40936 16.596874Q316.40936 16.253124 316.6125 16.01875Q316.83124 15.768749 317.2531 15.768749Q317.675 15.768749 317.89374 16.01875Q318.1125 16.253124 318.1125 16.6125Q318.1125 16.95625 317.89374 17.190624Q317.675 17.425 317.2531 17.425Q316.83124 17.425 316.6125 17.190624Q316.40936 16.95625 316.40936 16.596874ZM321.97186 27.3L320.51874 27.3L320.51874 15.299999L321.97186 15.299999L321.97186 27.3ZM327.7375 22.753124Q327.7375 24.503124 327.26874 26.1125Q326.8156 27.70625 325.8781 29.05Q324.9406 30.409374 323.90936 30.971874L323.59686 30.096874Q324.8 29.175 325.53436 27.2375Q326.26874 25.284374 326.28436 22.909374L326.28436 22.659374Q326.28436 21.01875 325.9406 19.6125Q325.59686 18.20625 324.97186 17.096874Q324.3625 15.971874 323.59686 15.346874L323.90936 14.456249Q324.9406 15.034374 325.8625 16.378124Q326.8 17.70625 327.26874 19.315624Q327.7375 20.925 327.7375 22.753124Z" fill-rule="nonzero"/></svg>