<svg version="1.1" viewBox="0.0 0.0 404.0 249.0" fill="none" stroke="none" stroke-linecap="square" stroke-miterlimit="10" width="404" height="249" xmlns:xlink="http://www.w3.org/1999/xlink" xmlns="http://www.w3.org/2000/svg"><path fill="#ffffff" d="M0 0L404.0 0L404.0 249.0L0 249.0L0 0Z" fill-rule="nonzero"/><path fill="#ffffff" d="M0 0L404.0 0L404.0 249.0L0 249.0L0 0Z" fill-rule="nonzero"/><path stroke="#cccccc" stroke-width="1.0" stroke-linecap="butt" d="M72.5 47.5L72.5 180.5" fill-rule="nonzero"/><path stroke="#cccccc" stroke-width="1.0" stroke-linecap="butt" d="M107.5 47.5L107.5 180.5" fill-rule="nonzero"/><path stroke="#cccccc" stroke-width="1.0" stroke-linecap="butt" d="M143.5 47.5L143.5 180.5" fill-rule="nonzero"/><path stroke="#cccccc" stroke-width="1.0" stroke-linecap="butt" d="M178.5 47.5L178.5 180.5" fill-rule="nonzero"/><path stroke="#cccccc" stroke-width="1.0" stroke-linecap="butt" d="M214.5 47.5L214.5 180.5" fill-rule="nonzero"/><path stroke="#cccccc" stroke-width="1.0" stroke-linecap="butt" d="M249.5 47.5L249.5 180.5" fill-rule="nonzero"/><path stroke="#cccccc" stroke-width="1.0" stroke-linecap="butt" d="M285.5 47.5L285.5 180.5" fill-rule="nonzero"/><path stroke="#cccccc" stroke-width="1.0" stroke-linecap="butt" d="M320.5 47.5L320.5 180.5" fill-rule="nonzero"/><path stroke="#cccccc" stroke-width="1.0" stroke-linecap="butt" d="M356.5 47.5L356.5 180.5" fill-rule="nonzero"/><path stroke="#cccccc" stroke-width="1.0" stroke-linecap="butt" d="M391.5 47.5L391.5 180.5" fill-rule="nonzero"/><path stroke="#e6e6e6" stroke-width="1.0" stroke-linecap="butt" d="M90.5 47.5L90.5 180.5" fill-rule="nonzero"/><path stroke="#e6e6e6" stroke-width="1.0" stroke-linecap="butt" d="M125.5 47.5L125.5 180.5" fill-rule="nonzero"/><path stroke="#e6e6e6" stroke-width="1.0" stroke-linecap="butt" d="M161.5 47.5L161.5 180.5" fill-rule="nonzero"/><path stroke="#e6e6e6" stroke-width="1.0" stroke-linecap="butt" d="M196.5 47.5L196.5 180.5" fill-rule="nonzero"/><path stroke="#e6e6e6" stroke-width="1.0" stroke-linecap="butt" d="M232.5 47.5L232.5 180.5" fill-rule="nonzero"/><path stroke="#e6e6e6" stroke-width="1.0" stroke-linecap="butt" d="M267.5 47.5L267.5 180.5" fill-rule="nonzero"/><path stroke="#e6e6e6" stroke-width="1.0" stroke-linecap="butt" d="M302.5 47.5L302.5 180.5" fill-rule="nonzero"/><path stroke="#e6e6e6" stroke-width="1.0" stroke-linecap="butt" d="M338.5 47.5L338.5 180.5" fill-rule="nonzero"/><path stroke="#e6e6e6" stroke-width="1.0" stroke-linecap="butt" d="M373.5 47.5L373.5 180.5" fill-rule="nonzero"/><path stroke="#333333" stroke-width="1.0" stroke-linecap="butt" d="M72.5 180.5L391.5 180.5" fill-rule="nonzero"/><path stroke="#cccccc" stroke-width="1.0" stroke-linecap="butt" d="M72.5 147.5L391.5 147.5" fill-rule="nonzero"/><path stroke="#cccccc" stroke-width="1.0" stroke-linecap="butt" d="M72.5 113.5L391.5 113.5" fill-rule="nonzero"/><path stroke="#cccccc" stroke-width="1.0" stroke-linecap="butt" d="M72.5 80.5L391.5 80.5" fill-rule="nonzero"/><path stroke="#cccccc" stroke-width="1.0" stroke-linecap="butt" d="M72.5 47.5L391.5 47.5" fill-rule="nonzero"/><path stroke="#e6e6e6" stroke-width="1.0" stroke-linecap="butt" d="M72.5 155.5L391.5 155.5" fill-rule="nonzero"/><path stroke="#e6e6e6" stroke-width="1.0" stroke-linecap="butt" d="M72.5 163.5L391.5 163.5" fill-rule="nonzero"/><path stroke="#e6e6e6" stroke-width="1.0" stroke-linecap="butt" d="M72.5 172.5L391.5 172.5" fill-rule="nonzero"/><path stroke="#e6e6e6" stroke-width="1.0" stroke-linecap="butt" d="M72.5 122.5L391.5 122.5" fill-rule="nonzero"/><path stroke="#e6e6e6" stroke-width="1.0" stroke-linecap="butt" d="M72.5 130.5L391.5 130.5" fill-rule="nonzero"/><path stroke="#e6e6e6" stroke-width="1.0" stroke-linecap="butt" d="M72.5 138.5L391.5 138.5" fill-rule="nonzero"/><path stroke="#e6e6e6" stroke-width="1.0" stroke-linecap="butt" d="M72.5 88.5L391.5 88.5" fill-rule="nonzero"/><path stroke="#e6e6e6" stroke-width="1.0" stroke-linecap="butt" d="M72.5 97.5L391.5 97.5" fill-rule="nonzero"/><path stroke="#e6e6e6" stroke-width="1.0" stroke-linecap="butt" d="M72.5 105.5L391.5 105.5" fill-rule="nonzero"/><path stroke="#e6e6e6" stroke-width="1.0" stroke-linecap="butt" d="M72.5 55.5L391.5 55.5" fill-rule="nonzero"/><path stroke="#e6e6e6" stroke-width="1.0" stroke-linecap="butt" d="M72.5 63.5L391.5 63.5" fill-rule="nonzero"/><path stroke="#e6e6e6" stroke-width="1.0" stroke-linecap="butt" d="M72.5 72.5L391.5 72.5" fill-rule="nonzero"/><clipPath id="id_0"><path d="M72.45 47.25L391.55 47.25L391.55 180.55L72.45 180.55L72.45 47.25Z" clip-rule="nonzero"/></clipPath><path stroke="#4285f4" stroke-width="2.0" stroke-linecap="butt" clip-path="url(#id_0)" d="M72.45 172.21875C72.45 172.21875 72.45 165.27605 72.45 163.8875C72.45 162.49896 76.3895 158.05562 78.35926 155.55624C80.32901 153.05687 85.45037 148.78017 85.745834 147.225C86.0413 145.66983 86.43525 141.208 86.632225 138.89375C86.8292 136.57951 87.02618 132.22874 87.223145 130.5625C87.42012 128.89626 89.43912 121.88412 90.17778 122.23125C90.916435 122.578384 88.70046 115.13426 87.96181 113.9C87.223145 112.66574 101.25764 107.60817 107.905556 105.56875C114.553474 103.52933 136.27 99.71704 150.45222 97.2375C164.63445 94.757965 189.56078 91.45191 204.60252 88.90625C219.64427 86.36059 239.7275 82.886696 249.72778 80.575C259.72806 78.263306 269.8907 74.99829 279.72864 72.24375C289.5666 69.489204 299.4045 66.60253 309.24246 63.9125C319.0804 61.22247 340.73038 55.58125 340.73038 55.58125" fill-rule="nonzero"/><path fill="#424242" d="M180.04688 229.56563Q180.04688 230.81563 179.625 231.75313Q179.20312 232.675 178.42188 233.175Q177.65625 233.675 176.625 233.675Q175.625 233.675 174.84375 233.175Q174.0625 232.675 173.625 231.76875Q173.20312 230.84688 173.1875 229.62813L173.1875 229.01875Q173.1875 227.78438 173.60938 226.84688Q174.04688 225.90938 174.82812 225.40938Q175.60938 224.89375 176.625 224.89375Q177.64062 224.89375 178.42188 225.39375Q179.20312 225.89375 179.625 226.83125Q180.04688 227.76875 180.04688 229.01875L180.04688 229.56563ZM178.9375 229.00313Q178.9375 227.4875 178.32812 226.675Q177.71875 225.8625 176.625 225.8625Q175.54688 225.8625 174.9375 226.675Q174.32812 227.4875 174.3125 228.925L174.3125 229.56563Q174.3125 231.03438 174.92188 231.87813Q175.54688 232.70625 176.625 232.70625Q177.71875 232.70625 178.3125 231.925Q178.92188 231.12813 178.9375 229.64375L178.9375 229.00313ZM185.23438 232.925Q184.60938 233.675 183.375 233.675Q182.35938 233.675 181.82812 233.08125Q181.29688 232.4875 181.29688 231.33125L181.29688 227.20625L182.375 227.20625L182.375 231.3Q182.375 232.75313 183.54688 232.75313Q184.79688 232.75313 185.20312 231.81563L185.20312 227.20625L186.29688 227.20625L186.29688 233.55L185.26562 233.55L185.23438 232.925ZM189.79688 225.675L189.79688 227.20625L190.96875 227.20625L190.96875 228.05L189.79688 228.05L189.79688 231.97188Q189.79688 232.3625 189.95312 232.55Q190.10938 232.7375 190.48438 232.7375Q190.67188 232.7375 191.0 232.675L191.0 233.55Q190.57812 233.675 190.17188 233.675Q189.45312 233.675 189.07812 233.2375Q188.70312 232.78438 188.70312 231.97188L188.70312 228.05L187.54688 228.05L187.54688 227.20625L188.70312 227.20625L188.70312 225.675L189.79688 225.675ZM197.67188 230.45625Q197.67188 231.89375 197.01562 232.78438Q196.35938 233.675 195.21875 233.675Q194.0625 233.675 193.40625 232.94063L193.40625 235.9875L192.32812 235.9875L192.32812 227.20625L193.3125 227.20625L193.35938 227.90938Q194.03125 227.09688 195.20312 227.09688Q196.34375 227.09688 197.0 227.95625Q197.67188 228.81563 197.67188 230.34688L197.67188 230.45625ZM196.59375 230.33125Q196.59375 229.25313 196.125 228.64375Q195.67188 228.01875 194.875 228.01875Q193.89062 228.01875 193.40625 228.87813L193.40625 231.90938Q193.89062 232.78438 194.89062 232.78438Q195.67188 232.78438 196.125 232.175Q196.59375 231.55 196.59375 230.33125ZM203.23438 232.925Q202.60938 233.675 201.375 233.675Q200.35938 233.675 199.82812 233.08125Q199.29688 232.4875 199.29688 231.33125L199.29688 227.20625L200.375 227.20625L200.375 231.3Q200.375 232.75313 201.54688 232.75313Q202.79688 232.75313 203.20312 231.81563L203.20312 227.20625L204.29688 227.20625L204.29688 233.55L203.26562 233.55L203.23438 232.925ZM207.79688 225.675L207.79688 227.20625L208.96875 227.20625L208.96875 228.05L207.79688 228.05L207.79688 231.97188Q207.79688 232.3625 207.95312 232.55Q208.10938 232.7375 208.48438 232.7375Q208.67188 232.7375 209.0 232.675L209.0 233.55Q208.57812 233.675 208.17188 233.675Q207.45312 233.675 207.07812 233.2375Q206.70312 232.78438 206.70312 231.97188L206.70312 228.05L205.54688 228.05L205.54688 227.20625L206.70312 227.20625L206.70312 225.675L207.79688 225.675ZM214.70312 233.55L213.57812 233.55L213.57812 225.01875L214.70312 225.01875L214.70312 233.55ZM217.34375 227.20625L217.375 227.90938Q218.0625 227.09688 219.25 227.09688Q220.57812 227.09688 221.0625 228.1125Q221.375 227.65938 221.875 227.37813Q222.39062 227.09688 223.07812 227.09688Q225.17188 227.09688 225.20312 229.3L225.20312 233.55L224.125 233.55L224.125 229.3625Q224.125 228.69063 223.8125 228.3625Q223.5 228.01875 222.76562 228.01875Q222.15625 228.01875 221.75 228.37813Q221.35938 228.7375 221.29688 229.34688L221.29688 233.55L220.21875 233.55L220.21875 229.39375Q220.21875 228.01875 218.85938 228.01875Q217.79688 228.01875 217.40625 228.925L217.40625 233.55L216.3125 233.55L216.3125 227.20625L217.34375 227.20625ZM232.67188 230.45625Q232.67188 231.89375 232.01562 232.78438Q231.35938 233.675 230.21875 233.675Q229.0625 233.675 228.40625 232.94063L228.40625 235.9875L227.32812 235.9875L227.32812 227.20625L228.3125 227.20625L228.35938 227.90938Q229.03125 227.09688 230.20312 227.09688Q231.34375 227.09688 232.0 227.95625Q232.67188 228.81563 232.67188 230.34688L232.67188 230.45625ZM231.59375 230.33125Q231.59375 229.25313 231.125 228.64375Q230.67188 228.01875 229.875 228.01875Q228.89062 228.01875 228.40625 228.87813L228.40625 231.90938Q228.89062 232.78438 229.89062 232.78438Q230.67188 232.78438 231.125 232.175Q231.59375 231.55 231.59375 230.33125ZM236.95312 233.675Q235.65625 233.675 234.84375 232.83125Q234.04688 231.97188 234.04688 230.55L234.04688 230.3625Q234.04688 229.40938 234.40625 228.675Q234.76562 227.925 235.40625 227.51875Q236.0625 227.09688 236.8125 227.09688Q238.04688 227.09688 238.73438 227.90938Q239.42188 228.72188 239.42188 230.2375L239.42188 230.69063L235.125 230.69063Q235.15625 231.62813 235.67188 232.20625Q236.20312 232.78438 237.01562 232.78438Q237.57812 232.78438 237.96875 232.55Q238.375 232.31563 238.6875 231.925L239.34375 232.44063Q238.54688 233.675 236.95312 233.675ZM236.8125 227.9875Q236.15625 227.9875 235.70312 228.47188Q235.26562 228.94063 235.17188 229.8L238.34375 229.8L238.34375 229.72188Q238.29688 228.89375 237.89062 228.44063Q237.5 227.9875 236.8125 227.9875ZM240.0625 230.33125Q240.0625 228.8625 240.75 227.9875Q241.4375 227.09688 242.5625 227.09688Q243.67188 227.09688 244.32812 227.84688L244.32812 224.55L245.40625 224.55L245.40625 233.55L244.40625 233.55L244.35938 232.8625Q243.70312 233.675 242.54688 233.675Q241.45312 233.675 240.75 232.76875Q240.0625 231.8625 240.0625 230.40938L240.0625 230.33125ZM241.14062 230.45625Q241.14062 231.53438 241.57812 232.14375Q242.03125 232.75313 242.8125 232.75313Q243.84375 232.75313 244.32812 231.81563L244.32812 228.90938Q243.84375 228.01875 242.82812 228.01875Q242.03125 228.01875 241.57812 228.62813Q241.14062 229.2375 241.14062 230.45625ZM251.23438 233.55Q251.14062 233.3625 251.07812 232.87813Q250.32812 233.675 249.28125 233.675Q248.34375 233.675 247.73438 233.14375Q247.14062 232.6125 247.14062 231.78438Q247.14062 230.8 247.89062 230.25313Q248.64062 229.70625 250.01562 229.70625L251.0625 229.70625L251.0625 229.20625Q251.0625 228.64375 250.71875 228.31563Q250.39062 227.97188 249.71875 227.97188Q249.14062 227.97188 248.75 228.26875Q248.35938 228.55 248.35938 228.97188L247.26562 228.97188Q247.26562 228.4875 247.59375 228.05Q247.9375 227.6125 248.51562 227.3625Q249.09375 227.09688 249.78125 227.09688Q250.89062 227.09688 251.5 227.64375Q252.125 228.19063 252.15625 229.14375L252.15625 232.06563Q252.15625 232.94063 252.375 233.45625L252.375 233.55L251.23438 233.55ZM249.4375 232.72188Q249.95312 232.72188 250.40625 232.45625Q250.85938 232.19063 251.0625 231.76875L251.0625 230.47188L250.21875 230.47188Q248.21875 230.47188 248.21875 231.64375Q248.21875 232.14375 248.5625 232.44063Q248.90625 232.72188 249.4375 232.72188ZM255.34375 227.20625L255.375 228.00313Q256.10938 227.09688 257.28125 227.09688Q259.29688 227.09688 259.3125 229.3625L259.3125 233.55L258.21875 233.55L258.21875 229.34688Q258.21875 228.675 257.90625 228.34688Q257.60938 228.01875 256.95312 228.01875Q256.42188 228.01875 256.01562 228.3Q255.625 228.58125 255.40625 229.03438L255.40625 233.55L254.32812 233.55L254.32812 227.20625L255.34375 227.20625ZM263.85938 232.78438Q264.4375 232.78438 264.875 232.44063Q265.3125 232.08125 265.35938 231.55L266.39062 231.55Q266.35938 232.09688 266.0 232.59688Q265.65625 233.08125 265.07812 233.37813Q264.51562 233.675 263.85938 233.675Q262.5625 233.675 261.79688 232.81563Q261.04688 231.94063 261.04688 230.44063L261.04688 230.25313Q261.04688 229.33125 261.375 228.6125Q261.71875 227.89375 262.34375 227.50313Q262.98438 227.09688 263.85938 227.09688Q264.92188 227.09688 265.625 227.7375Q266.34375 228.3625 266.39062 229.39375L265.35938 229.39375Q265.3125 228.76875 264.89062 228.37813Q264.46875 227.9875 263.85938 227.9875Q263.03125 227.9875 262.57812 228.58125Q262.125 229.175 262.125 230.3L262.125 230.50313Q262.125 231.59688 262.57812 232.19063Q263.03125 232.78438 263.85938 232.78438ZM269.95312 233.675Q268.65625 233.675 267.84375 232.83125Q267.04688 231.97188 267.04688 230.55L267.04688 230.3625Q267.04688 229.40938 267.40625 228.675Q267.76562 227.925 268.40625 227.51875Q269.0625 227.09688 269.8125 227.09688Q271.04688 227.09688 271.73438 227.90938Q272.42188 228.72188 272.42188 230.2375L272.42188 230.69063L268.125 230.69063Q268.15625 231.62813 268.67188 232.20625Q269.20312 232.78438 270.01562 232.78438Q270.57812 232.78438 270.96875 232.55Q271.375 232.31563 271.6875 231.925L272.34375 232.44063Q271.54688 233.675 269.95312 233.675ZM269.8125 227.9875Q269.15625 227.9875 268.70312 228.47188Q268.26562 228.94063 268.17188 229.8L271.34375 229.8L271.34375 229.72188Q271.29688 228.89375 270.89062 228.44063Q270.5 227.9875 269.8125 227.9875ZM276.28125 230.08125Q276.28125 228.76875 276.625 227.55Q276.98438 226.33125 277.6875 225.33125Q278.39062 224.33125 279.15625 223.925L279.375 224.64375Q278.51562 225.3 277.96875 226.64375Q277.42188 227.9875 277.375 229.65938L277.35938 230.15938Q277.35938 232.425 278.1875 234.08125Q278.6875 235.08125 279.375 235.64375L279.15625 236.3Q278.375 235.87813 277.65625 234.84688Q276.28125 232.8625 276.28125 230.08125ZM283.8125 232.59688Q284.625 232.44063 285.07812 231.6125Q285.53125 230.78438 285.54688 229.40938L285.54688 228.62813Q285.54688 227.26875 284.96875 226.55Q284.40625 225.83125 283.42188 225.83125Q282.4375 225.83125 281.875 226.56563Q281.3125 227.28438 281.3125 228.62813L281.3125 229.3Q281.3125 230.70625 281.76562 231.58125Q282.21875 232.44063 283.07812 232.59688L283.07812 233.55L280.1875 233.55L280.1875 232.62813L281.48438 232.62813Q280.85938 232.03438 280.5 231.14375Q280.15625 230.2375 280.15625 229.28438L280.15625 228.62813Q280.15625 227.55 280.5625 226.69063Q280.98438 225.83125 281.73438 225.3625Q282.48438 224.89375 283.42188 224.89375Q284.35938 224.89375 285.09375 225.3625Q285.84375 225.81563 286.25 226.64375Q286.67188 227.47188 286.6875 228.53438L286.6875 229.3Q286.6875 230.2375 286.32812 231.14375Q285.98438 232.03438 285.35938 232.62813L286.65625 232.62813L286.65625 233.55L283.8125 233.55L283.8125 232.59688ZM290.82812 230.14375Q290.82812 231.45625 290.48438 232.65938Q290.14062 233.84688 289.42188 234.8625Q288.71875 235.87813 287.95312 236.3L287.71875 235.64375Q288.625 234.95625 289.17188 233.50313Q289.71875 232.03438 289.73438 230.26875L289.73438 230.08125Q289.73438 228.84688 289.46875 227.78438Q289.21875 226.72188 288.75 225.89375Q288.29688 225.05 287.71875 224.58125L287.95312 223.925Q288.71875 224.34688 289.42188 225.34688Q290.125 226.34688 290.46875 227.56563Q290.82812 228.76875 290.82812 230.14375Z" fill-rule="nonzero"/><path fill="#424242" d="M20.465628 163.60312Q21.715628 163.60312 22.653128 164.025Q23.575003 164.44687 24.075003 165.22812Q24.575003 165.99374 24.575003 167.025Q24.575003 168.025 24.075003 168.80624Q23.575003 169.5875 22.668753 170.025Q21.746878 170.44687 20.528128 170.4625L19.918753 170.4625Q18.684378 170.4625 17.746878 170.04062Q16.809378 169.60312 16.309378 168.82187Q15.793753 168.04062 15.793753 167.025Q15.793753 166.00937 16.293753 165.22812Q16.793753 164.44687 17.731253 164.025Q18.668753 163.60312 19.918753 163.60312L20.465628 163.60312ZM19.903128 164.7125Q18.387503 164.7125 17.575003 165.32187Q16.762503 165.93124 16.762503 167.025Q16.762503 168.10312 17.575003 168.7125Q18.387503 169.32187 19.825003 169.3375L20.465628 169.3375Q21.934378 169.3375 22.778128 168.72812Q23.606253 168.10312 23.606253 167.025Q23.606253 165.93124 22.825003 165.3375Q22.028128 164.72812 20.543753 164.7125L19.903128 164.7125ZM23.825003 158.41562Q24.575003 159.04062 24.575003 160.275Q24.575003 161.29062 23.981253 161.82187Q23.387503 162.35312 22.231253 162.35312L18.106253 162.35312L18.106253 161.275L22.200003 161.275Q23.653128 161.275 23.653128 160.10312Q23.653128 158.85312 22.715628 158.44687L18.106253 158.44687L18.106253 157.35312L24.450003 157.35312L24.450003 158.38437L23.825003 158.41562ZM16.575003 153.85312L18.106253 153.85312L18.106253 152.68124L18.950003 152.68124L18.950003 153.85312L22.871878 153.85312Q23.262503 153.85312 23.450003 153.69687Q23.637503 153.54062 23.637503 153.16562Q23.637503 152.97812 23.575003 152.65L24.450003 152.65Q24.575003 153.07187 24.575003 153.47812Q24.575003 154.19687 24.137503 154.57187Q23.684378 154.94687 22.871878 154.94687L18.950003 154.94687L18.950003 156.10312L18.106253 156.10312L18.106253 154.94687L16.575003 154.94687L16.575003 153.85312ZM21.356253 145.97812Q22.793753 145.97812 23.684378 146.63437Q24.575003 147.29062 24.575003 148.43124Q24.575003 149.5875 23.840628 150.24374L26.887503 150.24374L26.887503 151.32187L18.106253 151.32187L18.106253 150.3375L18.809378 150.29062Q17.996878 149.61874 17.996878 148.44687Q17.996878 147.30624 18.856253 146.65Q19.715628 145.97812 21.246878 145.97812L21.356253 145.97812ZM21.231253 147.05624Q20.153128 147.05624 19.543753 147.525Q18.918753 147.97812 18.918753 148.775Q18.918753 149.75937 19.778128 150.24374L22.809378 150.24374Q23.684378 149.75937 23.684378 148.75937Q23.684378 147.97812 23.075003 147.525Q22.450003 147.05624 21.231253 147.05624ZM23.825003 140.41562Q24.575003 141.04062 24.575003 142.275Q24.575003 143.29062 23.981253 143.82187Q23.387503 144.35312 22.231253 144.35312L18.106253 144.35312L18.106253 143.275L22.200003 143.275Q23.653128 143.275 23.653128 142.10312Q23.653128 140.85312 22.715628 140.44687L18.106253 140.44687L18.106253 139.35312L24.450003 139.35312L24.450003 140.38437L23.825003 140.41562ZM16.575003 135.85312L18.106253 135.85312L18.106253 134.68124L18.950003 134.68124L18.950003 135.85312L22.871878 135.85312Q23.262503 135.85312 23.450003 135.69687Q23.637503 135.54062 23.637503 135.16562Q23.637503 134.97812 23.575003 134.65L24.450003 134.65Q24.575003 135.07187 24.575003 135.47812Q24.575003 136.19687 24.137503 136.57187Q23.684378 136.94687 22.871878 136.94687L18.950003 136.94687L18.950003 138.10312L18.106253 138.10312L18.106253 136.94687L16.575003 136.94687L16.575003 135.85312ZM21.746878 123.88438Q23.090628 124.04063 23.840628 124.88438Q24.575003 125.72813 24.575003 127.11875Q24.575003 128.63437 23.496878 129.54062Q22.403128 130.44687 20.575003 130.44687L19.762503 130.44687Q18.575003 130.44687 17.668753 130.025Q16.762503 129.60312 16.278128 128.82187Q15.793753 128.04062 15.793753 127.025Q15.793753 125.66563 16.559378 124.85313Q17.325003 124.025 18.653128 123.88438L18.653128 125.00938Q17.637503 125.16563 17.184378 125.65Q16.731253 126.13438 16.731253 127.025Q16.731253 128.10312 17.528128 128.7125Q18.325003 129.32187 19.793753 129.32187L20.621878 129.32187Q22.012503 129.32187 22.840628 128.74374Q23.653128 128.16562 23.653128 127.11875Q23.653128 126.18125 23.231253 125.68125Q22.793753 125.18125 21.746878 125.00938L21.746878 123.88438ZM23.825003 118.41563Q24.575003 119.04063 24.575003 120.275Q24.575003 121.29063 23.981253 121.82188Q23.387503 122.35313 22.231253 122.35313L18.106253 122.35313L18.106253 121.275L22.200003 121.275Q23.653128 121.275 23.653128 120.10313Q23.653128 118.85313 22.715628 118.44688L18.106253 118.44688L18.106253 117.35313L24.450003 117.35313L24.450003 118.38438L23.825003 118.41563ZM19.075003 112.25938Q19.043753 112.50938 19.043753 112.79063Q19.043753 113.86875 19.950003 114.24375L24.450003 114.24375L24.450003 115.32188L18.106253 115.32188L18.106253 114.275L18.840628 114.25938Q17.996878 113.72813 17.996878 112.74375Q17.996878 112.43125 18.075003 112.25938L19.075003 112.25938ZM19.075003 108.25938Q19.043753 108.50938 19.043753 108.79063Q19.043753 109.86875 19.950003 110.24375L24.450003 110.24375L24.450003 111.32188L18.106253 111.32188L18.106253 110.275L18.840628 110.25938Q17.996878 109.72813 17.996878 108.74375Q17.996878 108.43125 18.075003 108.25938L19.075003 108.25938ZM24.575003 104.69688Q24.575003 105.99375 23.731253 106.80625Q22.871878 107.60313 21.450003 107.60313L21.262503 107.60313Q20.309378 107.60313 19.575003 107.24375Q18.825003 106.88438 18.418753 106.24375Q17.996878 105.5875 17.996878 104.8375Q17.996878 103.60313 18.809378 102.91563Q19.621878 102.22813 21.137503 102.22813L21.590628 102.22813L21.590628 106.525Q22.528128 106.49375 23.106253 105.97813Q23.684378 105.44688 23.684378 104.63438Q23.684378 104.07188 23.450003 103.68125Q23.215628 103.275 22.825003 102.9625L23.340628 102.30625Q24.575003 103.10313 24.575003 104.69688ZM18.887503 104.8375Q18.887503 105.49375 19.371878 105.94688Q19.840628 106.38438 20.700003 106.47813L20.700003 103.30625L20.621878 103.30625Q19.793753 103.35313 19.340628 103.75938Q18.887503 104.15 18.887503 104.8375ZM18.106253 100.30625L18.903128 100.275Q17.996878 99.54063 17.996878 98.36875Q17.996878 96.35313 20.262503 96.3375L24.450003 96.3375L24.450003 97.43125L20.246878 97.43125Q19.575003 97.43125 19.246878 97.74375Q18.918753 98.04063 18.918753 98.69688Q18.918753 99.22813 19.200003 99.63438Q19.481253 100.025 19.934378 100.24375L24.450003 100.24375L24.450003 101.32188L18.106253 101.32188L18.106253 100.30625ZM16.575003 92.85313L18.106253 92.85313L18.106253 91.68125L18.950003 91.68125L18.950003 92.85313L22.871878 92.85313Q23.262503 92.85313 23.450003 92.69688Q23.637503 92.54063 23.637503 92.16563Q23.637503 91.97813 23.575003 91.65L24.450003 91.65Q24.575003 92.07188 24.575003 92.47813Q24.575003 93.19688 24.137503 93.57188Q23.684378 93.94688 22.871878 93.94688L18.950003 93.94688L18.950003 95.10313L18.106253 95.10313L18.106253 93.94688L16.575003 93.94688L16.575003 92.85313ZM20.981253 87.368744Q19.668753 87.368744 18.450003 87.024994Q17.231253 86.66562 16.231253 85.962494Q15.231253 85.25937 14.825003 84.493744L15.543753 84.274994Q16.200003 85.13437 17.543753 85.681244Q18.887503 86.22812 20.559378 86.274994L21.059378 86.29062Q23.325003 86.29062 24.981253 85.462494Q25.981253 84.962494 26.543753 84.274994L27.200003 84.493744Q26.778128 85.274994 25.746878 85.993744Q23.762503 87.368744 20.981253 87.368744ZM22.215628 78.44687L22.215628 82.024994L24.450003 82.82187L24.450003 83.97812L15.918753 80.72812L15.918753 79.743744L24.450003 76.47812L24.450003 77.63437L22.215628 78.44687ZM21.293753 81.681244L21.293753 78.774994L17.309378 80.22812L21.293753 81.681244ZM21.043753 72.82187Q22.356253 72.82187 23.559378 73.16562Q24.746878 73.50937 25.762503 74.22812Q26.778128 74.931244 27.200003 75.69687L26.543753 75.931244Q25.856253 75.024994 24.403128 74.47812Q22.934378 73.931244 21.168753 73.91562L20.981253 73.91562Q19.746878 73.91562 18.684378 74.181244Q17.621878 74.431244 16.793753 74.899994Q15.950003 75.35312 15.481253 75.931244L14.825003 75.69687Q15.246878 74.931244 16.246878 74.22812Q17.246878 73.524994 18.465628 73.181244Q19.668753 72.82187 21.043753 72.82187Z" fill-rule="nonzero"/><path fill="#757575" d="M65.5125 181.40938Q65.5125 183.31563 64.85625 184.25313Q64.21562 185.175 62.825 185.175Q61.465626 185.175 60.809376 184.26875Q60.153126 183.3625 60.121876 181.55L60.121876 180.1125Q60.121876 178.22188 60.7625 177.31563Q61.41875 176.39375 62.809376 176.39375Q64.18437 176.39375 64.84062 177.28438Q65.49687 178.15938 65.5125 180.00313L65.5125 181.40938ZM64.41875 179.925Q64.41875 178.55 64.02812 177.925Q63.653126 177.28438 62.809376 177.28438Q61.98125 177.28438 61.590626 177.925Q61.215626 178.55 61.215626 179.84688L61.215626 181.58125Q61.215626 182.95625 61.60625 183.62813Q62.0125 184.28438 62.825 184.28438Q63.621876 184.28438 64.0125 183.65938Q64.40312 183.03438 64.41875 181.70625L64.41875 179.925Z" fill-rule="nonzero"/><path fill="#757575" d="M55.5125 148.08438Q55.5125 149.99063 54.85625 150.92813Q54.215626 151.85 52.825 151.85Q51.465626 151.85 50.809376 150.94376Q50.153126 150.0375 50.121876 148.225L50.121876 146.7875Q50.121876 144.89688 50.7625 143.99063Q51.41875 143.06876 52.809376 143.06876Q54.184376 143.06876 54.840626 143.95938Q55.496876 144.83438 55.5125 146.67813L55.5125 148.08438ZM54.41875 146.6Q54.41875 145.225 54.028126 144.6Q53.653126 143.95938 52.809376 143.95938Q51.98125 143.95938 51.590626 144.6Q51.215626 145.225 51.215626 146.52188L51.215626 148.25626Q51.215626 149.63126 51.60625 150.30313Q52.0125 150.95938 52.825 150.95938Q53.621876 150.95938 54.0125 150.33438Q54.403126 149.70938 54.41875 148.38126L54.41875 146.6ZM57.29375 151.1625Q57.29375 150.88126 57.45 150.69376Q57.621876 150.50626 57.95 150.50626Q58.29375 150.50626 58.465626 150.69376Q58.6375 150.88126 58.6375 151.1625Q58.6375 151.42813 58.465626 151.61563Q58.29375 151.7875 57.95 151.7875Q57.621876 151.7875 57.45 151.61563Q57.29375 151.42813 57.29375 151.1625ZM64.73125 148.86563L65.91875 148.86563L65.91875 149.74063L64.73125 149.74063L64.73125 151.725L63.653126 151.725L63.653126 149.74063L59.7625 149.74063L59.7625 149.1L63.575 143.19376L64.73125 143.19376L64.73125 148.86563ZM60.996876 148.86563L63.653126 148.86563L63.653126 144.67813L63.5125 144.9125L60.996876 148.86563Z" fill-rule="nonzero"/><path fill="#757575" d="M55.5125 114.75938Q55.5125 116.66563 54.85625 117.60313Q54.215626 118.525 52.825 118.525Q51.465626 118.525 50.809376 117.61875Q50.153126 116.7125 50.121876 114.9L50.121876 113.4625Q50.121876 111.57188 50.7625 110.66563Q51.41875 109.74375 52.809376 109.74375Q54.184376 109.74375 54.840626 110.63438Q55.496876 111.50938 55.5125 113.35313L55.5125 114.75938ZM54.41875 113.275Q54.41875 111.9 54.028126 111.275Q53.653126 110.63438 52.809376 110.63438Q51.98125 110.63438 51.590626 111.275Q51.215626 111.9 51.215626 113.19688L51.215626 114.93125Q51.215626 116.30625 51.60625 116.97813Q52.0125 117.63438 52.825 117.63438Q53.621876 117.63438 54.0125 117.00938Q54.403126 116.38438 54.41875 115.05625L54.41875 113.275ZM57.29375 117.8375Q57.29375 117.55625 57.45 117.36875Q57.621876 117.18125 57.95 117.18125Q58.29375 117.18125 58.465626 117.36875Q58.6375 117.55625 58.6375 117.8375Q58.6375 118.10313 58.465626 118.29063Q58.29375 118.4625 57.95 118.4625Q57.621876 118.4625 57.45 118.29063Q57.29375 118.10313 57.29375 117.8375ZM65.34062 112.0875Q65.34062 112.72813 64.99687 113.22813Q64.65312 113.72813 64.09062 114.00938Q64.74687 114.29063 65.1375 114.85313Q65.52812 115.4 65.52812 116.10313Q65.52812 117.19688 64.77812 117.86875Q64.04375 118.525 62.825 118.525Q61.590626 118.525 60.840626 117.86875Q60.10625 117.19688 60.10625 116.10313Q60.10625 115.4 60.48125 114.85313Q60.85625 114.29063 61.528126 114.00938Q60.965626 113.72813 60.6375 113.22813Q60.309376 112.72813 60.309376 112.0875Q60.309376 111.00938 60.996876 110.38438Q61.684376 109.74375 62.825 109.74375Q63.95 109.74375 64.6375 110.38438Q65.34062 111.00938 65.34062 112.0875ZM64.45 116.07188Q64.45 115.35313 63.996876 114.91563Q63.54375 114.4625 62.809376 114.4625Q62.075 114.4625 61.621876 114.91563Q61.184376 115.35313 61.184376 116.0875Q61.184376 116.80625 61.621876 117.22813Q62.059376 117.63438 62.825 117.63438Q63.575 117.63438 64.0125 117.2125Q64.45 116.79063 64.45 116.07188ZM62.825 110.63438Q62.184376 110.63438 61.778126 111.04063Q61.3875 111.43125 61.3875 112.11875Q61.3875 112.75938 61.778126 113.16563Q62.16875 113.57188 62.809376 113.57188Q63.465626 113.57188 63.85625 113.16563Q64.24687 112.75938 64.24687 112.11875Q64.24687 111.4625 63.840626 111.05625Q63.434376 110.63438 62.825 110.63438Z" fill-rule="nonzero"/><path fill="#757575" d="M53.715626 85.075L52.6375 85.075L52.6375 77.85625L50.45 78.65312L50.45 77.66875L53.559376 76.49687L53.715626 76.49687L53.715626 85.075ZM57.29375 84.5125Q57.29375 84.23125 57.45 84.04375Q57.621876 83.85625 57.95 83.85625Q58.29375 83.85625 58.465626 84.04375Q58.6375 84.23125 58.6375 84.5125Q58.6375 84.77812 58.465626 84.96562Q58.29375 85.1375 57.95 85.1375Q57.621876 85.1375 57.45 84.96562Q57.29375 84.77812 57.29375 84.5125ZM65.74687 85.075L60.153126 85.075L60.153126 84.29375L63.10625 81.0125Q63.7625 80.2625 64.0125 79.80937Q64.2625 79.34062 64.2625 78.84062Q64.2625 78.16875 63.85625 77.74687Q63.465626 77.30937 62.778126 77.30937Q61.98125 77.30937 61.528126 77.77812Q61.075 78.23125 61.075 79.05937L59.996876 79.05937Q59.996876 77.87187 60.746876 77.15312Q61.5125 76.41875 62.778126 76.41875Q63.98125 76.41875 64.66875 77.04375Q65.35625 77.66875 65.35625 78.71562Q65.35625 79.96562 63.746876 81.71562L61.465626 84.18437L65.74687 84.18437L65.74687 85.075Z" fill-rule="nonzero"/><path fill="#757575" d="M53.715626 51.75L52.6375 51.75L52.6375 44.53125L50.45 45.328125L50.45 44.34375L53.559376 43.171875L53.715626 43.171875L53.715626 51.75ZM57.29375 51.1875Q57.29375 50.90625 57.45 50.71875Q57.621876 50.53125 57.95 50.53125Q58.29375 50.53125 58.465626 50.71875Q58.6375 50.90625 58.6375 51.1875Q58.6375 51.453125 58.465626 51.640625Q58.29375 51.8125 57.95 51.8125Q57.621876 51.8125 57.45 51.640625Q57.29375 51.453125 57.29375 51.1875ZM64.41875 43.21875L64.41875 44.125L64.21562 44.125Q62.95 44.15625 62.2 44.890625Q61.45 45.609375 61.325 46.921875Q62.0125 46.15625 63.16875 46.15625Q64.27812 46.15625 64.95 46.9375Q65.62187 47.71875 65.62187 48.96875Q65.62187 50.28125 64.90312 51.078125Q64.18437 51.875 62.965626 51.875Q61.746876 51.875 60.98125 50.9375Q60.23125 49.984375 60.23125 48.5L60.23125 48.09375Q60.23125 45.734375 61.23125 44.484375Q62.23125 43.234375 64.21562 43.21875L64.41875 43.21875ZM62.996876 47.0625Q62.434376 47.0625 61.965626 47.390625Q61.496876 47.71875 61.309376 48.234375L61.309376 48.625Q61.309376 49.6875 61.778126 50.328125Q62.2625 50.96875 62.965626 50.96875Q63.7 50.96875 64.12187 50.4375Q64.54375 49.890625 64.54375 49.015625Q64.54375 48.140625 64.12187 47.609375Q63.7 47.0625 62.996876 47.0625Z" fill-rule="nonzero"/><path fill="#757575" d="M73.30937 197.4875Q75.21562 197.4875 76.15312 198.14375Q77.075 198.78438 77.075 200.175Q77.075 201.53438 76.16875 202.19063Q75.2625 202.84688 73.45 202.87813L72.0125 202.87813Q70.12187 202.87813 69.21562 202.2375Q68.29375 201.58125 68.29375 200.19063Q68.29375 198.81563 69.18437 198.15938Q70.05937 197.50313 71.90312 197.4875L73.30937 197.4875ZM71.825 198.58125Q70.45 198.58125 69.825 198.97188Q69.18437 199.34688 69.18437 200.19063Q69.18437 201.01875 69.825 201.40938Q70.45 201.78438 71.74687 201.78438L73.48125 201.78438Q74.85625 201.78438 75.52812 201.39375Q76.18437 200.9875 76.18437 200.175Q76.18437 199.37813 75.55937 198.9875Q74.93437 198.59688 73.60625 198.58125L71.825 198.58125ZM76.3875 195.70625Q76.10625 195.70625 75.91875 195.55Q75.73125 195.37813 75.73125 195.05Q75.73125 194.70625 75.91875 194.53438Q76.10625 194.3625 76.3875 194.3625Q76.65312 194.3625 76.84062 194.53438Q77.0125 194.70625 77.0125 195.05Q77.0125 195.37813 76.84062 195.55Q76.65312 195.70625 76.3875 195.70625ZM76.95 187.25313L76.95 192.84688L76.16875 192.84688L72.8875 189.89375Q72.1375 189.2375 71.68437 188.9875Q71.21562 188.7375 70.71562 188.7375Q70.04375 188.7375 69.62187 189.14375Q69.18437 189.53438 69.18437 190.22188Q69.18437 191.01875 69.65312 191.47188Q70.10625 191.925 70.93437 191.925L70.93437 193.00313Q69.74687 193.00313 69.02812 192.25313Q68.29375 191.4875 68.29375 190.22188Q68.29375 189.01875 68.91875 188.33125Q69.54375 187.64375 70.59062 187.64375Q71.84062 187.64375 73.59062 189.25313L76.05937 191.53438L76.05937 187.25313L76.95 187.25313Z" fill-rule="nonzero"/><path fill="#757575" d="M108.76493 197.48749Q110.67118 197.48749 111.60868 198.14374Q112.530556 198.78436 112.530556 200.175Q112.530556 201.53438 111.624306 202.19063Q110.718056 202.84688 108.905556 202.87813L107.468056 202.87813Q105.57743 202.87813 104.67118 202.2375Q103.749306 201.58125 103.749306 200.19063Q103.749306 198.81561 104.63993 198.15936Q105.51493 197.50311 107.35868 197.48749L108.76493 197.48749ZM107.280556 198.58124Q105.905556 198.58124 105.280556 198.97186Q104.63993 199.34686 104.63993 200.19063Q104.63993 201.01875 105.280556 201.40938Q105.905556 201.78438 107.20243 201.78438L108.936806 201.78438Q110.311806 201.78438 110.98368 201.39375Q111.63993 200.9875 111.63993 200.175Q111.63993 199.37811 111.01493 198.98749Q110.38993 198.59686 109.061806 198.58124L107.280556 198.58124ZM111.843056 195.70624Q111.561806 195.70624 111.374306 195.54999Q111.186806 195.37811 111.186806 195.04999Q111.186806 194.70624 111.374306 194.53436Q111.561806 194.36249 111.843056 194.36249Q112.10868 194.36249 112.29618 194.53436Q112.468056 194.70624 112.468056 195.04999Q112.468056 195.37811 112.29618 195.54999Q112.10868 195.70624 111.843056 195.70624ZM109.54618 188.26874L109.54618 187.08124L110.42118 187.08124L110.42118 188.26874L112.405556 188.26874L112.405556 189.34686L110.42118 189.34686L110.42118 193.23749L109.780556 193.23749L103.874306 189.42499L103.874306 188.26874L109.54618 188.26874ZM109.54618 192.00311L109.54618 189.34686L105.35868 189.34686L105.593056 189.48749L109.54618 192.00311Z" fill-rule="nonzero"/><path fill="#757575" d="M144.22049 197.4875Q146.12674 197.4875 147.06424 198.14375Q147.98611 198.78438 147.98611 200.175Q147.98611 201.53438 147.07986 202.19063Q146.17361 202.84688 144.36111 202.87813L142.92361 202.87813Q141.03299 202.87813 140.12674 202.2375Q139.20486 201.58125 139.20486 200.19063Q139.20486 198.81563 140.09549 198.15938Q140.97049 197.50313 142.81424 197.4875L144.22049 197.4875ZM142.73611 198.58125Q141.36111 198.58125 140.73611 198.97188Q140.09549 199.34688 140.09549 200.19063Q140.09549 201.01875 140.73611 201.40938Q141.36111 201.78438 142.65799 201.78438L144.39236 201.78438Q145.76736 201.78438 146.43924 201.39375Q147.09549 200.9875 147.09549 200.175Q147.09549 199.37813 146.47049 198.9875Q145.84549 198.59688 144.51736 198.58125L142.73611 198.58125ZM147.29861 195.70625Q147.01736 195.70625 146.82986 195.55Q146.64236 195.37813 146.64236 195.05Q146.64236 194.70625 146.82986 194.53438Q147.01736 194.3625 147.29861 194.3625Q147.56424 194.3625 147.75174 194.53438Q147.92361 194.70625 147.92361 195.05Q147.92361 195.37813 147.75174 195.55Q147.56424 195.70625 147.29861 195.70625ZM139.32986 188.58125L140.23611 188.58125L140.23611 188.78438Q140.26736 190.05 141.00174 190.8Q141.72049 191.55 143.03299 191.675Q142.26736 190.9875 142.26736 189.83125Q142.26736 188.72188 143.04861 188.05Q143.82986 187.37813 145.07986 187.37813Q146.39236 187.37813 147.18924 188.09688Q147.98611 188.81563 147.98611 190.03438Q147.98611 191.25313 147.04861 192.01875Q146.09549 192.76875 144.61111 192.76875L144.20486 192.76875Q141.84549 192.76875 140.59549 191.76875Q139.34549 190.76875 139.32986 188.78438L139.32986 188.58125ZM143.17361 190.00313Q143.17361 190.56563 143.50174 191.03438Q143.82986 191.50313 144.34549 191.69063L144.73611 191.69063Q145.79861 191.69063 146.43924 191.22188Q147.07986 190.7375 147.07986 190.03438Q147.07986 189.3 146.54861 188.87813Q146.00174 188.45625 145.12674 188.45625Q144.25174 188.45625 143.72049 188.87813Q143.17361 189.3 143.17361 190.00313Z" fill-rule="nonzero"/><path fill="#757575" d="M179.67604 197.4875Q181.58229 197.4875 182.51979 198.14375Q183.44167 198.78438 183.44167 200.175Q183.44167 201.53438 182.53542 202.19063Q181.62917 202.84688 179.81667 202.87813L178.37917 202.87813Q176.48854 202.87813 175.58229 202.2375Q174.66042 201.58125 174.66042 200.19063Q174.66042 198.81563 175.55104 198.15938Q176.42604 197.50313 178.26979 197.4875L179.67604 197.4875ZM178.19167 198.58125Q176.81667 198.58125 176.19167 198.97188Q175.55104 199.34688 175.55104 200.19063Q175.55104 201.01875 176.19167 201.40938Q176.81667 201.78438 178.11354 201.78438L179.84792 201.78438Q181.22292 201.78438 181.89479 201.39375Q182.55104 200.9875 182.55104 200.175Q182.55104 199.37813 181.92604 198.9875Q181.30104 198.59688 179.97292 198.58125L178.19167 198.58125ZM182.75417 195.70625Q182.47292 195.70625 182.28542 195.55Q182.09792 195.37813 182.09792 195.05Q182.09792 194.70625 182.28542 194.53438Q182.47292 194.3625 182.75417 194.3625Q183.01979 194.3625 183.20729 194.53438Q183.37917 194.70625 183.37917 195.05Q183.37917 195.37813 183.20729 195.55Q183.01979 195.70625 182.75417 195.70625ZM177.00417 187.65938Q177.64479 187.65938 178.14479 188.00313Q178.64479 188.34688 178.92604 188.90938Q179.20729 188.25313 179.76979 187.8625Q180.31667 187.47188 181.01979 187.47188Q182.11354 187.47188 182.78542 188.22188Q183.44167 188.95625 183.44167 190.175Q183.44167 191.40938 182.78542 192.15938Q182.11354 192.89375 181.01979 192.89375Q180.31667 192.89375 179.76979 192.51875Q179.20729 192.14375 178.92604 191.47188Q178.64479 192.03438 178.14479 192.3625Q177.64479 192.69063 177.00417 192.69063Q175.92604 192.69063 175.30104 192.00313Q174.66042 191.31563 174.66042 190.175Q174.66042 189.05 175.30104 188.3625Q175.92604 187.65938 177.00417 187.65938ZM180.98854 188.55Q180.26979 188.55 179.83229 189.00313Q179.37917 189.45625 179.37917 190.19063Q179.37917 190.925 179.83229 191.37813Q180.26979 191.81563 181.00417 191.81563Q181.72292 191.81563 182.14479 191.37813Q182.55104 190.94063 182.55104 190.175Q182.55104 189.425 182.12917 188.9875Q181.70729 188.55 180.98854 188.55ZM175.55104 190.175Q175.55104 190.81563 175.95729 191.22188Q176.34792 191.6125 177.03542 191.6125Q177.67604 191.6125 178.08229 191.22188Q178.48854 190.83125 178.48854 190.19063Q178.48854 189.53438 178.08229 189.14375Q177.67604 188.75313 177.03542 188.75313Q176.37917 188.75313 175.97292 189.15938Q175.55104 189.56563 175.55104 190.175Z" fill-rule="nonzero"/><path fill="#757575" d="M218.77222 199.28436L218.77222 200.36249L211.55347 200.36249L212.35034 202.54999L211.36597 202.54999L210.19409 199.44061L210.19409 199.28436L218.77222 199.28436ZM218.20972 195.70624Q217.92847 195.70624 217.74097 195.54999Q217.55347 195.37811 217.55347 195.04999Q217.55347 194.70624 217.74097 194.53436Q217.92847 194.36249 218.20972 194.36249Q218.47534 194.36249 218.66284 194.53436Q218.83472 194.70624 218.83472 195.04999Q218.83472 195.37811 218.66284 195.54999Q218.47534 195.70624 218.20972 195.70624ZM215.13159 187.48749Q217.03784 187.48749 217.97534 188.14374Q218.89722 188.78436 218.89722 190.17499Q218.89722 191.53436 217.99097 192.19061Q217.08472 192.84686 215.27222 192.87811L213.83472 192.87811Q211.94409 192.87811 211.03784 192.23749Q210.11597 191.58124 210.11597 190.19061Q210.11597 188.81561 211.00659 188.15936Q211.88159 187.50311 213.72534 187.48749L215.13159 187.48749ZM213.64722 188.58124Q212.27222 188.58124 211.64722 188.97186Q211.00659 189.34686 211.00659 190.19061Q211.00659 191.01874 211.64722 191.40936Q212.27222 191.78436 213.56909 191.78436L215.30347 191.78436Q216.67847 191.78436 217.35034 191.39374Q218.00659 190.98749 218.00659 190.17499Q218.00659 189.37811 217.38159 188.98749Q216.75659 188.59686 215.42847 188.58124L213.64722 188.58124Z" fill-rule="nonzero"/><path fill="#757575" d="M254.22778 199.2844L254.22778 200.36252L247.00903 200.36252L247.80591 202.55002L246.82153 202.55002L245.64966 199.44064L245.64966 199.2844L254.22778 199.2844ZM253.66528 195.70627Q253.38403 195.70627 253.19653 195.55002Q253.00903 195.37814 253.00903 195.05002Q253.00903 194.70627 253.19653 194.5344Q253.38403 194.36252 253.66528 194.36252Q253.93091 194.36252 254.11841 194.5344Q254.29028 194.70627 254.29028 195.05002Q254.29028 195.37814 254.11841 195.55002Q253.93091 195.70627 253.66528 195.70627ZM254.22778 187.25314L254.22778 192.8469L253.44653 192.8469L250.16528 189.89377Q249.41528 189.23752 248.96216 188.98752Q248.49341 188.73752 247.99341 188.73752Q247.32153 188.73752 246.89966 189.14377Q246.46216 189.5344 246.46216 190.2219Q246.46216 191.01877 246.93091 191.4719Q247.38403 191.92502 248.21216 191.92502L248.21216 193.00314Q247.02466 193.00314 246.30591 192.25314Q245.57153 191.48752 245.57153 190.2219Q245.57153 189.01877 246.19653 188.33127Q246.82153 187.64377 247.86841 187.64377Q249.11841 187.64377 250.86841 189.25314L253.33716 191.5344L253.33716 187.25314L254.22778 187.25314Z" fill-rule="nonzero"/><path fill="#757575" d="M289.68332 199.28438L289.68332 200.3625L282.46457 200.3625L283.26144 202.55L282.27707 202.55L281.1052 199.44063L281.1052 199.28438L289.68332 199.28438ZM289.12082 195.70625Q288.83957 195.70625 288.65207 195.55Q288.46457 195.37813 288.46457 195.05Q288.46457 194.70625 288.65207 194.53438Q288.83957 194.3625 289.12082 194.3625Q289.38644 194.3625 289.57394 194.53438Q289.74582 194.70625 289.74582 195.05Q289.74582 195.37813 289.57394 195.55Q289.38644 195.70625 289.12082 195.70625ZM286.82394 188.26875L286.82394 187.08125L287.69894 187.08125L287.69894 188.26875L289.68332 188.26875L289.68332 189.34688L287.69894 189.34688L287.69894 193.2375L287.05832 193.2375L281.15207 189.425L281.15207 188.26875L286.82394 188.26875ZM286.82394 192.00313L286.82394 189.34688L282.63644 189.34688L282.87082 189.4875L286.82394 192.00313Z" fill-rule="nonzero"/><path fill="#757575" d="M325.1389 199.28436L325.1389 200.36249L317.92014 200.36249L318.717 202.54999L317.73264 202.54999L316.56076 199.44061L316.56076 199.28436L325.1389 199.28436ZM324.5764 195.70624Q324.29514 195.70624 324.10764 195.54999Q323.92014 195.37811 323.92014 195.04999Q323.92014 194.70624 324.10764 194.53436Q324.29514 194.36249 324.5764 194.36249Q324.842 194.36249 325.0295 194.53436Q325.2014 194.70624 325.2014 195.04999Q325.2014 195.37811 325.0295 195.54999Q324.842 195.70624 324.5764 195.70624ZM316.60764 188.58124L317.5139 188.58124L317.5139 188.78436Q317.54514 190.04999 318.2795 190.79999Q318.99826 191.54999 320.31076 191.67499Q319.54514 190.98749 319.54514 189.83124Q319.54514 188.72186 320.3264 188.04999Q321.10764 187.37811 322.35764 187.37811Q323.67014 187.37811 324.467 188.09686Q325.2639 188.81561 325.2639 190.03436Q325.2639 191.25311 324.3264 192.01874Q323.37326 192.76874 321.8889 192.76874L321.48264 192.76874Q319.12326 192.76874 317.87326 191.76874Q316.62326 190.76874 316.60764 188.78436L316.60764 188.58124ZM320.4514 190.00311Q320.4514 190.56561 320.7795 191.03436Q321.10764 191.50311 321.62326 191.69061L322.0139 191.69061Q323.0764 191.69061 323.717 191.22186Q324.35764 190.73749 324.35764 190.03436Q324.35764 189.29999 323.8264 188.87811Q323.2795 188.45624 322.4045 188.45624Q321.5295 188.45624 320.99826 188.87811Q320.4514 189.29999 320.4514 190.00311Z" fill-rule="nonzero"/><path fill="#757575" d="M360.59445 199.2844L360.59445 200.36252L353.3757 200.36252L354.17258 202.55002L353.1882 202.55002L352.01633 199.44064L352.01633 199.2844L360.59445 199.2844ZM360.03195 195.70627Q359.7507 195.70627 359.5632 195.55002Q359.3757 195.37814 359.3757 195.05002Q359.3757 194.70627 359.5632 194.5344Q359.7507 194.36252 360.03195 194.36252Q360.29758 194.36252 360.48508 194.5344Q360.65695 194.70627 360.65695 195.05002Q360.65695 195.37814 360.48508 195.55002Q360.29758 195.70627 360.03195 195.70627ZM354.28195 187.6594Q354.92258 187.6594 355.42258 188.00314Q355.92258 188.3469 356.20383 188.9094Q356.48508 188.25314 357.04758 187.86252Q357.59445 187.4719 358.29758 187.4719Q359.39133 187.4719 360.0632 188.2219Q360.71945 188.95627 360.71945 190.17502Q360.71945 191.4094 360.0632 192.1594Q359.39133 192.89377 358.29758 192.89377Q357.59445 192.89377 357.04758 192.51877Q356.48508 192.14377 356.20383 191.4719Q355.92258 192.0344 355.42258 192.36252Q354.92258 192.69064 354.28195 192.69064Q353.20383 192.69064 352.57883 192.00314Q351.9382 191.31564 351.9382 190.17502Q351.9382 189.05002 352.57883 188.36252Q353.20383 187.6594 354.28195 187.6594ZM358.26633 188.55002Q357.54758 188.55002 357.11008 189.00314Q356.65695 189.45627 356.65695 190.19064Q356.65695 190.92502 357.11008 191.37814Q357.54758 191.81564 358.28195 191.81564Q359.0007 191.81564 359.42258 191.37814Q359.82883 190.94064 359.82883 190.17502Q359.82883 189.42502 359.40695 188.98752Q358.98508 188.55002 358.26633 188.55002ZM352.82883 190.17502Q352.82883 190.81564 353.23508 191.2219Q353.6257 191.61252 354.3132 191.61252Q354.95383 191.61252 355.36008 191.2219Q355.76633 190.83127 355.76633 190.19064Q355.76633 189.5344 355.36008 189.14377Q354.95383 188.75314 354.3132 188.75314Q353.65695 188.75314 353.2507 189.1594Q352.82883 189.56564 352.82883 190.17502Z" fill-rule="nonzero"/><path fill="#757575" d="M396.05 197.25313L396.05 202.84688L395.26874 202.84688L391.9875 199.89375Q391.2375 199.2375 390.78436 198.9875Q390.3156 198.7375 389.8156 198.7375Q389.14374 198.7375 388.72186 199.14375Q388.28436 199.53438 388.28436 200.22188Q388.28436 201.01875 388.7531 201.47188Q389.20624 201.925 390.03436 201.925L390.03436 203.00313Q388.84686 203.00313 388.1281 202.25313Q387.39374 201.4875 387.39374 200.22188Q387.39374 199.01875 388.01874 198.33125Q388.64374 197.64375 389.6906 197.64375Q390.9406 197.64375 392.6906 199.25313L395.15936 201.53438L395.15936 197.25313L396.05 197.25313ZM395.4875 195.70625Q395.20624 195.70625 395.01874 195.55Q394.83124 195.37813 394.83124 195.05Q394.83124 194.70625 395.01874 194.53438Q395.20624 194.3625 395.4875 194.3625Q395.7531 194.3625 395.9406 194.53438Q396.1125 194.70625 396.1125 195.05Q396.1125 195.37813 395.9406 195.55Q395.7531 195.70625 395.4875 195.70625ZM392.40936 187.4875Q394.3156 187.4875 395.2531 188.14375Q396.175 188.78438 396.175 190.175Q396.175 191.53438 395.26874 192.19063Q394.3625 192.84688 392.55 192.87813L391.1125 192.87813Q389.22186 192.87813 388.3156 192.2375Q387.39374 191.58125 387.39374 190.19063Q387.39374 188.81563 388.28436 188.15938Q389.15936 187.50313 391.0031 187.4875L392.40936 187.4875ZM390.925 188.58125Q389.55 188.58125 388.925 188.97188Q388.28436 189.34688 388.28436 190.19063Q388.28436 191.01875 388.925 191.40938Q389.55 191.78438 390.84686 191.78438L392.58124 191.78438Q393.95624 191.78438 394.6281 191.39375Q395.28436 190.9875 395.28436 190.175Q395.28436 189.37813 394.65936 188.9875Q394.03436 188.59688 392.70624 188.58125L390.925 188.58125Z" fill-rule="nonzero"/><path fill="#757575" d="M22.528126 22.121876Q22.528126 23.79375 21.965626 25.04375Q21.403126 26.29375 20.371876 26.95Q19.340626 27.60625 17.965626 27.60625Q16.621876 27.60625 15.575 26.95Q14.54375 26.278126 13.965625 25.059376Q13.3875 23.840626 13.371875 22.23125L13.371875 21.403126Q13.371875 19.7625 13.934375 18.5125Q14.5125 17.246876 15.559375 16.590626Q16.60625 15.918751 17.95 15.918751Q19.309376 15.918751 20.35625 16.575Q21.403126 17.23125 21.965626 18.496876Q22.528126 19.746876 22.528126 21.403126L22.528126 22.121876ZM21.028126 21.3875Q21.028126 19.371876 20.215626 18.29375Q19.403126 17.2 17.95 17.2Q16.528126 17.2 15.7 18.29375Q14.8875 19.371876 14.871875 21.29375L14.871875 22.121876Q14.871875 24.090626 15.684375 25.215626Q16.5125 26.325 17.965626 26.325Q19.41875 26.325 20.215626 25.278126Q21.0125 24.215626 21.028126 22.23125L21.028126 21.3875ZM29.7625 26.60625Q28.91875 27.60625 27.29375 27.60625Q25.934376 27.60625 25.23125 26.825Q24.528126 26.028126 24.5125 24.496876L24.5125 18.996876L25.965626 18.996876L25.965626 24.45Q25.965626 26.371876 27.528126 26.371876Q29.184376 26.371876 29.73125 25.1375L29.73125 18.996876L31.16875 18.996876L31.16875 27.45L29.79375 27.45L29.7625 26.60625ZM35.5125 16.95L35.5125 18.996876L37.090626 18.996876L37.090626 20.10625L35.5125 20.10625L35.5125 25.35625Q35.5125 25.85625 35.715626 26.121876Q35.934376 26.371876 36.434376 26.371876Q36.684376 26.371876 37.121876 26.278126L37.121876 27.45Q36.559376 27.60625 36.0125 27.60625Q35.04375 27.60625 34.54375 27.028126Q34.059376 26.434376 34.059376 25.35625L34.059376 20.10625L32.528126 20.10625L32.528126 18.996876L34.059376 18.996876L34.059376 16.95L35.5125 16.95ZM45.684376 23.309376Q45.684376 25.246876 44.79375 26.434376Q43.91875 27.60625 42.41875 27.60625Q40.871876 27.60625 39.996876 26.621876L39.996876 30.7L38.54375 30.7L38.54375 18.996876L39.871876 18.996876L39.934376 19.934376Q40.825 18.840626 42.3875 18.840626Q43.91875 18.840626 44.79375 19.996876Q45.684376 21.1375 45.684376 23.184376L45.684376 23.309376ZM44.246876 23.153126Q44.246876 21.715626 43.6375 20.8875Q43.028126 20.059376 41.965626 20.059376Q40.653126 20.059376 39.996876 21.23125L39.996876 25.2625Q40.6375 26.41875 41.98125 26.41875Q43.0125 26.41875 43.621876 25.60625Q44.246876 24.778126 44.246876 23.153126ZM52.7625 26.60625Q51.91875 27.60625 50.29375 27.60625Q48.934376 27.60625 48.23125 26.825Q47.528126 26.028126 47.5125 24.496876L47.5125 18.996876L48.965626 18.996876L48.965626 24.45Q48.965626 26.371876 50.528126 26.371876Q52.184376 26.371876 52.73125 25.1375L52.73125 18.996876L54.16875 18.996876L54.16875 27.45L52.79375 27.45L52.7625 26.60625ZM58.5125 16.95L58.5125 18.996876L60.090626 18.996876L60.090626 20.10625L58.5125 20.10625L58.5125 25.35625Q58.5125 25.85625 58.715626 26.121876Q58.934376 26.371876 59.434376 26.371876Q59.684376 26.371876 60.121876 26.278126L60.121876 27.45Q59.559376 27.60625 59.0125 27.60625Q58.04375 27.60625 57.54375 27.028126Q57.059376 26.434376 57.059376 25.35625L57.059376 20.10625L55.528126 20.10625L55.528126 18.996876L57.059376 18.996876L57.059376 16.95L58.5125 16.95ZM74.1375 23.840626Q73.93437 25.6375 72.80937 26.621876Q71.68437 27.60625 69.825 27.60625Q67.80937 27.60625 66.59062 26.16875Q65.3875 24.715626 65.3875 22.29375L65.3875 21.2Q65.3875 19.60625 65.95 18.403126Q66.5125 17.2 67.54375 16.559376Q68.59062 15.918751 69.96562 15.918751Q71.77812 15.918751 72.87187 16.934376Q73.96562 17.934376 74.1375 19.73125L72.6375 19.73125Q72.43437 18.371876 71.77812 17.7625Q71.1375 17.153126 69.96562 17.153126Q68.52812 17.153126 67.7 18.215626Q66.8875 19.278126 66.8875 21.23125L66.8875 22.340626Q66.8875 24.184376 67.65312 25.278126Q68.43437 26.371876 69.825 26.371876Q71.075 26.371876 71.74687 25.809376Q72.41875 25.246876 72.6375 23.840626L74.1375 23.840626ZM80.7625 26.60625Q79.91875 27.60625 78.29375 27.60625Q76.93437 27.60625 76.23125 26.825Q75.52812 26.028126 75.5125 24.496876L75.5125 18.996876L76.96562 18.996876L76.96562 24.45Q76.96562 26.371876 78.52812 26.371876Q80.18437 26.371876 80.73125 25.1375L80.73125 18.996876L82.16875 18.996876L82.16875 27.45L80.79375 27.45L80.7625 26.60625ZM88.6375 20.29375Q88.30937 20.23125 87.91875 20.23125Q86.49687 20.23125 85.99687 21.45L85.99687 27.45L84.54375 27.45L84.54375 18.996876L85.95 18.996876L85.98125 19.965626Q86.68437 18.840626 87.99687 18.840626Q88.41875 18.840626 88.6375 18.95L88.6375 20.29375ZM93.6375 20.29375Q93.30937 20.23125 92.91875 20.23125Q91.49687 20.23125 90.99687 21.45L90.99687 27.45L89.54375 27.45L89.54375 18.996876L90.95 18.996876L90.98125 19.965626Q91.68437 18.840626 92.99687 18.840626Q93.41875 18.840626 93.6375 18.95L93.6375 20.29375ZM98.05937 27.60625Q96.34062 27.60625 95.2625 26.48125Q94.18437 25.340626 94.18437 23.45L94.18437 23.184376Q94.18437 21.934376 94.65312 20.95Q95.1375 19.95 95.99687 19.403126Q96.87187 18.840626 97.87187 18.840626Q99.52812 18.840626 100.43437 19.934376Q101.35625 21.0125 101.35625 23.028126L101.35625 23.6375L95.62187 23.6375Q95.65312 24.8875 96.35625 25.653126Q97.05937 26.41875 98.1375 26.41875Q98.90312 26.41875 99.43437 26.10625Q99.96562 25.79375 100.35625 25.278126L101.24687 25.965626Q100.18437 27.60625 98.05937 27.60625ZM97.87187 20.028126Q96.99687 20.028126 96.40312 20.66875Q95.80937 21.29375 95.66875 22.45L99.90312 22.45L99.90312 22.340626Q99.84062 21.23125 99.30937 20.6375Q98.77812 20.028126 97.87187 20.028126ZM103.91875 18.996876L103.96562 20.059376Q104.93437 18.840626 106.49687 18.840626Q109.16875 18.840626 109.2 21.85625L109.2 27.45L107.74687 27.45L107.74687 21.85625Q107.74687 20.934376 107.325 20.496876Q106.91875 20.059376 106.05937 20.059376Q105.35625 20.059376 104.825 20.434376Q104.29375 20.809376 103.99687 21.41875L103.99687 27.45L102.54375 27.45L102.54375 18.996876L103.91875 18.996876ZM113.5125 16.95L113.5125 18.996876L115.09062 18.996876L115.09062 20.10625L113.5125 20.10625L113.5125 25.35625Q113.5125 25.85625 113.71562 26.121876Q113.93437 26.371876 114.43437 26.371876Q114.68437 26.371876 115.12187 26.278126L115.12187 27.45Q114.55937 27.60625 114.0125 27.60625Q113.04375 27.60625 112.54375 27.028126Q112.05937 26.434376 112.05937 25.35625L112.05937 20.10625L110.52812 20.10625L110.52812 18.996876L112.05937 18.996876L112.05937 16.95L113.5125 16.95ZM123.34062 25.48125L125.43437 18.996876L126.90312 18.996876L123.87187 27.45L122.77812 27.45L119.71562 18.996876L121.18437 18.996876L123.34062 25.48125ZM133.46562 25.2Q133.46562 24.621876 133.02812 24.29375Q132.59062 23.965626 131.48125 23.73125Q130.3875 23.496876 129.74687 23.16875Q129.10625 22.840626 128.79375 22.3875Q128.48125 21.934376 128.48125 21.309376Q128.48125 20.278126 129.35625 19.559376Q130.24687 18.840626 131.60625 18.840626Q133.04375 18.840626 133.93437 19.590626Q134.84062 20.325 134.84062 21.48125L133.3875 21.48125Q133.3875 20.8875 132.87187 20.465626Q132.37187 20.028126 131.60625 20.028126Q130.825 20.028126 130.37187 20.371876Q129.93437 20.715626 129.93437 21.2625Q129.93437 21.79375 130.34062 22.059376Q130.7625 22.325 131.84062 22.575Q132.91875 22.809376 133.59062 23.153126Q134.2625 23.48125 134.59062 23.95Q134.91875 24.41875 134.91875 25.10625Q134.91875 26.23125 134.0125 26.91875Q133.10625 27.60625 131.65312 27.60625Q130.6375 27.60625 129.85625 27.246876Q129.075 26.8875 128.6375 26.246876Q128.2 25.590626 128.2 24.840626L129.6375 24.840626Q129.68437 25.575 130.21562 25.996876Q130.7625 26.41875 131.65312 26.41875Q132.48125 26.41875 132.96562 26.090626Q133.46562 25.7625 133.46562 25.2ZM136.575 26.684376Q136.575 26.309376 136.79375 26.059376Q137.02812 25.809376 137.46562 25.809376Q137.91875 25.809376 138.1375 26.059376Q138.37187 26.309376 138.37187 26.684376Q138.37187 27.04375 138.1375 27.29375Q137.91875 27.54375 137.46562 27.54375Q137.02812 27.54375 136.79375 27.29375Q136.575 27.04375 136.575 26.684376ZM153.52812 22.121876Q153.52812 23.79375 152.96562 25.04375Q152.40312 26.29375 151.37187 26.95Q150.34062 27.60625 148.96562 27.60625Q147.62187 27.60625 146.575 26.95Q145.54375 26.278126 144.96562 25.059376Q144.3875 23.840626 144.37187 22.23125L144.37187 21.403126Q144.37187 19.7625 144.93437 18.5125Q145.5125 17.246876 146.55937 16.590626Q147.60625 15.918751 148.95 15.918751Q150.30937 15.918751 151.35625 16.575Q152.40312 17.23125 152.96562 18.496876Q153.52812 19.746876 153.52812 21.403126L153.52812 22.121876ZM152.02812 21.3875Q152.02812 19.371876 151.21562 18.29375Q150.40312 17.2 148.95 17.2Q147.52812 17.2 146.7 18.29375Q145.8875 19.371876 145.87187 21.29375L145.87187 22.121876Q145.87187 24.090626 146.68437 25.215626Q147.5125 26.325 148.96562 26.325Q150.41875 26.325 151.21562 25.278126Q152.0125 24.215626 152.02812 22.23125L152.02812 21.3875ZM160.7625 26.60625Q159.91875 27.60625 158.29375 27.60625Q156.93437 27.60625 156.23125 26.825Q155.52812 26.028126 155.5125 24.496876L155.5125 18.996876L156.96562 18.996876L156.96562 24.45Q156.96562 26.371876 158.52812 26.371876Q160.18437 26.371876 160.73125 25.1375L160.73125 18.996876L162.16875 18.996876L162.16875 27.45L160.79375 27.45L160.7625 26.60625ZM166.5125 16.95L166.5125 18.996876L168.09062 18.996876L168.09062 20.10625L166.5125 20.10625L166.5125 25.35625Q166.5125 25.85625 166.71562 26.121876Q166.93437 26.371876 167.43437 26.371876Q167.68437 26.371876 168.12187 26.278126L168.12187 27.45Q167.55937 27.60625 167.0125 27.60625Q166.04375 27.60625 165.54375 27.028126Q165.05937 26.434376 165.05937 25.35625L165.05937 20.10625L163.52812 20.10625L163.52812 18.996876L165.05937 18.996876L165.05937 16.95L166.5125 16.95ZM176.68437 23.309376Q176.68437 25.246876 175.79375 26.434376Q174.91875 27.60625 173.41875 27.60625Q171.87187 27.60625 170.99687 26.621876L170.99687 30.7L169.54375 30.7L169.54375 18.996876L170.87187 18.996876L170.93437 19.934376Q171.825 18.840626 173.3875 18.840626Q174.91875 18.840626 175.79375 19.996876Q176.68437 21.1375 176.68437 23.184376L176.68437 23.309376ZM175.24687 23.153126Q175.24687 21.715626 174.6375 20.8875Q174.02812 20.059376 172.96562 20.059376Q171.65312 20.059376 170.99687 21.23125L170.99687 25.2625Q171.6375 26.41875 172.98125 26.41875Q174.0125 26.41875 174.62187 25.60625Q175.24687 24.778126 175.24687 23.153126ZM183.7625 26.60625Q182.91875 27.60625 181.29375 27.60625Q179.93437 27.60625 179.23125 26.825Q178.52812 26.028126 178.5125 24.496876L178.5125 18.996876L179.96562 18.996876L179.96562 24.45Q179.96562 26.371876 181.52812 26.371876Q183.18437 26.371876 183.73125 25.1375L183.73125 18.996876L185.16875 18.996876L185.16875 27.45L183.79375 27.45L183.7625 26.60625ZM189.5125 16.95L189.5125 18.996876L191.09062 18.996876L191.09062 20.10625L189.5125 20.10625L189.5125 25.35625Q189.5125 25.85625 189.71562 26.121876Q189.93437 26.371876 190.43437 26.371876Q190.68437 26.371876 191.12187 26.278126L191.12187 27.45Q190.55937 27.60625 190.0125 27.60625Q189.04375 27.60625 188.54375 27.028126Q188.05937 26.434376 188.05937 25.35625L188.05937 20.10625L186.52812 20.10625L186.52812 18.996876L188.05937 18.996876L188.05937 16.95L189.5125 16.95ZM198.3875 27.45L196.8875 27.45L196.8875 16.075L198.3875 16.075L198.3875 27.45ZM201.90312 18.996876L201.95 19.934376Q202.87187 18.840626 204.45 18.840626Q206.23125 18.840626 206.87187 20.2Q207.29375 19.590626 207.96562 19.215626Q208.6375 18.840626 209.55937 18.840626Q212.34062 18.840626 212.3875 21.778126L212.3875 27.45L210.95 27.45L210.95 21.871876Q210.95 20.965626 210.52812 20.5125Q210.12187 20.059376 209.1375 20.059376Q208.34062 20.059376 207.80937 20.54375Q207.27812 21.028126 207.18437 21.840626L207.18437 27.45L205.73125 27.45L205.73125 21.903126Q205.73125 20.059376 203.93437 20.059376Q202.5125 20.059376 201.98125 21.278126L201.98125 27.45L200.54375 27.45L200.54375 18.996876L201.90312 18.996876ZM221.68437 23.309376Q221.68437 25.246876 220.79375 26.434376Q219.91875 27.60625 218.41875 27.60625Q216.87187 27.60625 215.99687 26.621876L215.99687 30.7L214.54375 30.7L214.54375 18.996876L215.87187 18.996876L215.93437 19.934376Q216.825 18.840626 218.3875 18.840626Q219.91875 18.840626 220.79375 19.996876Q221.68437 21.1375 221.68437 23.184376L221.68437 23.309376ZM220.24687 23.153126Q220.24687 21.715626 219.6375 20.8875Q219.02812 20.059376 217.96562 20.059376Q216.65312 20.059376 215.99687 21.23125L215.99687 25.2625Q216.6375 26.41875 217.98125 26.41875Q219.0125 26.41875 219.62187 25.60625Q220.24687 24.778126 220.24687 23.153126ZM227.05937 27.60625Q225.34062 27.60625 224.2625 26.48125Q223.18437 25.340626 223.18437 23.45L223.18437 23.184376Q223.18437 21.934376 223.65312 20.95Q224.1375 19.95 224.99687 19.403126Q225.87187 18.840626 226.87187 18.840626Q228.52812 18.840626 229.43437 19.934376Q230.35625 21.0125 230.35625 23.028126L230.35625 23.6375L224.62187 23.6375Q224.65312 24.8875 225.35625 25.653126Q226.05937 26.41875 227.1375 26.41875Q227.90312 26.41875 228.43437 26.10625Q228.96562 25.79375 229.35625 25.278126L230.24687 25.965626Q229.18437 27.60625 227.05937 27.60625ZM226.87187 20.028126Q225.99687 20.028126 225.40312 20.66875Q224.80937 21.29375 224.66875 22.45L228.90312 22.45L228.90312 22.340626Q228.84062 21.23125 228.30937 20.6375Q227.77812 20.028126 226.87187 20.028126ZM231.2 23.153126Q231.2 21.2 232.12187 20.028126Q233.04375 18.840626 234.52812 18.840626Q236.0125 18.840626 236.8875 19.85625L236.8875 15.450001L238.325 15.450001L238.325 27.45L236.99687 27.45L236.93437 26.54375Q236.05937 27.60625 234.5125 27.60625Q233.04375 27.60625 232.12187 26.403126Q231.2 25.2 231.2 23.2625L231.2 23.153126ZM232.6375 23.309376Q232.6375 24.746876 233.23125 25.559376Q233.825 26.371876 234.87187 26.371876Q236.24687 26.371876 236.8875 25.1375L236.8875 21.2625Q236.23125 20.059376 234.8875 20.059376Q233.825 20.059376 233.23125 20.8875Q232.6375 21.7 232.6375 23.309376ZM245.7625 27.45Q245.6375 27.2 245.55937 26.559376Q244.55937 27.60625 243.15312 27.60625Q241.90312 27.60625 241.10625 26.903126Q240.30937 26.184376 240.30937 25.10625Q240.30937 23.778126 241.30937 23.059376Q242.30937 22.325 244.1375 22.325L245.54375 22.325L245.54375 21.653126Q245.54375 20.903126 245.09062 20.45Q244.6375 19.996876 243.74687 19.996876Q242.98125 19.996876 242.45 20.3875Q241.93437 20.778126 241.93437 21.340626L240.48125 21.340626Q240.48125 20.7 240.91875 20.121876Q241.37187 19.528126 242.1375 19.184376Q242.91875 18.840626 243.84062 18.840626Q245.29375 18.840626 246.12187 19.575Q246.95 20.29375 246.98125 21.575L246.98125 25.465626Q246.98125 26.6375 247.27812 27.325L247.27812 27.45L245.7625 27.45ZM243.37187 26.340626Q244.04375 26.340626 244.65312 25.996876Q245.2625 25.6375 245.54375 25.075L245.54375 23.340626L244.40312 23.340626Q241.74687 23.340626 241.74687 24.903126Q241.74687 25.575 242.2 25.965626Q242.65312 26.340626 243.37187 26.340626ZM250.91875 18.996876L250.96562 20.059376Q251.93437 18.840626 253.49687 18.840626Q256.16876 18.840626 256.2 21.85625L256.2 27.45L254.74687 27.45L254.74687 21.85625Q254.74687 20.934376 254.325 20.496876Q253.91875 20.059376 253.05937 20.059376Q252.35625 20.059376 251.825 20.434376Q251.29375 20.809376 250.99687 21.41875L250.99687 27.45L249.54375 27.45L249.54375 18.996876L250.91875 18.996876ZM261.9344 26.41875Q262.71564 26.41875 263.29376 25.95Q263.8719 25.48125 263.9344 24.778126L265.29376 24.778126Q265.2625 25.5125 264.79376 26.16875Q264.34064 26.825 263.5594 27.215626Q262.79376 27.60625 261.9344 27.60625Q260.21564 27.60625 259.1844 26.45Q258.16876 25.29375 258.16876 23.29375L258.16876 23.059376Q258.16876 21.825 258.6219 20.871876Q259.075 19.903126 259.91876 19.371876Q260.77814 18.840626 261.9344 18.840626Q263.35626 18.840626 264.29376 19.7Q265.23126 20.54375 265.29376 21.903126L263.9344 21.903126Q263.8719 21.075 263.3094 20.559376Q262.7469 20.028126 261.9344 20.028126Q260.825 20.028126 260.21564 20.825Q259.6219 21.60625 259.6219 23.10625L259.6219 23.3875Q259.6219 24.840626 260.21564 25.6375Q260.825 26.41875 261.9344 26.41875ZM270.0594 27.60625Q268.34064 27.60625 267.2625 26.48125Q266.1844 25.340626 266.1844 23.45L266.1844 23.184376Q266.1844 21.934376 266.65314 20.95Q267.1375 19.95 267.9969 19.403126Q268.8719 18.840626 269.8719 18.840626Q271.52814 18.840626 272.4344 19.934376Q273.35626 21.0125 273.35626 23.028126L273.35626 23.6375L267.6219 23.6375Q267.65314 24.8875 268.35626 25.653126Q269.0594 26.41875 270.1375 26.41875Q270.90314 26.41875 271.4344 26.10625Q271.96564 25.79375 272.35626 25.278126L273.2469 25.965626Q272.1844 27.60625 270.0594 27.60625ZM269.8719 20.028126Q268.9969 20.028126 268.40314 20.66875Q267.8094 21.29375 267.66876 22.45L271.90314 22.45L271.90314 22.340626Q271.84064 21.23125 271.3094 20.6375Q270.77814 20.028126 269.8719 20.028126ZM278.4969 22.825Q278.4969 21.059376 278.96564 19.434376Q279.4344 17.809376 280.3719 16.48125Q281.3094 15.153126 282.325 14.606251L282.6219 15.559376Q281.48126 16.434376 280.7469 18.23125Q280.0125 20.028126 279.95 22.2625L279.9344 22.91875Q279.9344 25.934376 281.04376 28.16875Q281.7 29.496876 282.6219 30.246876L282.325 31.121876Q281.27814 30.54375 280.34064 29.184376Q278.4969 26.528126 278.4969 22.825ZM290.6844 23.309376Q290.6844 25.246876 289.79376 26.434376Q288.91876 27.60625 287.41876 27.60625Q285.8719 27.60625 284.9969 26.621876L284.9969 30.7L283.54376 30.7L283.54376 18.996876L284.8719 18.996876L284.9344 19.934376Q285.825 18.840626 287.3875 18.840626Q288.91876 18.840626 289.79376 19.996876Q290.6844 21.1375 290.6844 23.184376L290.6844 23.309376ZM289.2469 23.153126Q289.2469 21.715626 288.6375 20.8875Q288.02814 20.059376 286.96564 20.059376Q285.65314 20.059376 284.9969 21.23125L284.9969 25.2625Q285.6375 26.41875 286.98126 26.41875Q288.0125 26.41875 288.6219 25.60625Q289.2469 24.778126 289.2469 23.153126ZM296.0594 27.60625Q294.34064 27.60625 293.2625 26.48125Q292.1844 25.340626 292.1844 23.45L292.1844 23.184376Q292.1844 21.934376 292.65314 20.95Q293.1375 19.95 293.9969 19.403126Q294.8719 18.840626 295.8719 18.840626Q297.52814 18.840626 298.4344 19.934376Q299.35626 21.0125 299.35626 23.028126L299.35626 23.6375L293.6219 23.6375Q293.65314 24.8875 294.35626 25.653126Q295.0594 26.41875 296.1375 26.41875Q296.90314 26.41875 297.4344 26.10625Q297.96564 25.79375 298.35626 25.278126L299.2469 25.965626Q298.1844 27.60625 296.0594 27.60625ZM295.8719 20.028126Q294.9969 20.028126 294.40314 20.66875Q293.8094 21.29375 293.66876 22.45L297.90314 22.45L297.90314 22.340626Q297.84064 21.23125 297.3094 20.6375Q296.77814 20.028126 295.8719 20.028126ZM304.6375 20.29375Q304.3094 20.23125 303.91876 20.23125Q302.4969 20.23125 301.9969 21.45L301.9969 27.45L300.54376 27.45L300.54376 18.996876L301.95 18.996876L301.98126 19.965626Q302.6844 18.840626 303.9969 18.840626Q304.41876 18.840626 304.6375 18.95L304.6375 20.29375ZM313.6375 20.29375Q313.3094 20.23125 312.91876 20.23125Q311.4969 20.23125 310.9969 21.45L310.9969 27.45L309.54376 27.45L309.54376 18.996876L310.95 18.996876L310.98126 19.965626Q311.6844 18.840626 312.9969 18.840626Q313.41876 18.840626 313.6375 18.95L313.6375 20.29375ZM319.7625 27.45Q319.6375 27.2 319.5594 26.559376Q318.5594 27.60625 317.15314 27.60625Q315.90314 27.60625 315.10626 26.903126Q314.3094 26.184376 314.3094 25.10625Q314.3094 23.778126 315.3094 23.059376Q316.3094 22.325 318.1375 22.325L319.54376 22.325L319.54376 21.653126Q319.54376 20.903126 319.09064 20.45Q318.6375 19.996876 317.7469 19.996876Q316.98126 19.996876 316.45 20.3875Q315.9344 20.778126 315.9344 21.340626L314.48126 21.340626Q314.48126 20.7 314.91876 20.121876Q315.3719 19.528126 316.1375 19.184376Q316.91876 18.840626 317.84064 18.840626Q319.29376 18.840626 320.1219 19.575Q320.95 20.29375 320.98126 21.575L320.98126 25.465626Q320.98126 26.6375 321.27814 27.325L321.27814 27.45L319.7625 27.45ZM317.3719 26.340626Q318.04376 26.340626 318.65314 25.996876Q319.2625 25.6375 319.54376 25.075L319.54376 23.340626L318.40314 23.340626Q315.7469 23.340626 315.7469 24.903126Q315.7469 25.575 316.2 25.965626Q316.65314 26.340626 317.3719 26.340626ZM325.1219 27.45L323.66876 27.45L323.66876 18.996876L325.1219 18.996876L325.1219 27.45ZM323.5594 16.746876Q323.5594 16.403126 323.7625 16.16875Q323.98126 15.918751 324.40314 15.918751Q324.825 15.918751 325.04376 16.16875Q325.2625 16.403126 325.2625 16.7625Q325.2625 17.10625 325.04376 17.340626Q324.825 17.575 324.40314 17.575Q323.98126 17.575 323.7625 17.340626Q323.5594 17.10625 323.5594 16.746876ZM329.1219 27.45L327.66876 27.45L327.66876 15.450001L329.1219 15.450001L329.1219 27.45ZM334.8875 22.903126Q334.8875 24.653126 334.41876 26.2625Q333.96564 27.85625 333.02814 29.2Q332.09064 30.559376 331.0594 31.121876L330.7469 30.246876Q331.95 29.325 332.6844 27.3875Q333.41876 25.434376 333.4344 23.059376L333.4344 22.809376Q333.4344 21.16875 333.09064 19.7625Q332.7469 18.35625 332.1219 17.246876Q331.5125 16.121876 330.7469 15.496876L331.0594 14.606251Q332.09064 15.184376 333.0125 16.528126Q333.95 17.85625 334.41876 19.465626Q334.8875 21.075 334.8875 22.903126Z" fill-rule="nonzero"/></svg>