<svg version="1.1" viewBox="0.0 0.0 403.0 249.0" fill="none" stroke="none" stroke-linecap="square" stroke-miterlimit="10" width="403" height="249" xmlns:xlink="http://www.w3.org/1999/xlink" xmlns="http://www.w3.org/2000/svg"><path fill="#ffffff" d="M0 0L403.0 0L403.0 249.0L0 249.0L0 0Z" fill-rule="nonzero"/><path fill="#ffffff" d="M0 0L403.0 0L403.0 249.0L0 249.0L0 0Z" fill-rule="nonzero"/><path stroke="#cccccc" stroke-width="1.0" stroke-linecap="butt" d="M109.5 47.5L109.5 182.5" fill-rule="nonzero"/><path stroke="#cccccc" stroke-width="1.0" stroke-linecap="butt" d="M159.5 47.5L159.5 182.5" fill-rule="nonzero"/><path stroke="#cccccc" stroke-width="1.0" stroke-linecap="butt" d="M209.5 47.5L209.5 182.5" fill-rule="nonzero"/><path stroke="#cccccc" stroke-width="1.0" stroke-linecap="butt" d="M260.5 47.5L260.5 182.5" fill-rule="nonzero"/><path stroke="#cccccc" stroke-width="1.0" stroke-linecap="butt" d="M310.5 47.5L310.5 182.5" fill-rule="nonzero"/><path stroke="#cccccc" stroke-width="1.0" stroke-linecap="butt" d="M360.5 47.5L360.5 182.5" fill-rule="nonzero"/><path stroke="#e6e6e6" stroke-width="1.0" stroke-linecap="butt" d="M99.5 47.5L99.5 182.5" fill-rule="nonzero"/><path stroke="#e6e6e6" stroke-width="1.0" stroke-linecap="butt" d="M89.5 47.5L89.5 182.5" fill-rule="nonzero"/><path stroke="#e6e6e6" stroke-width="1.0" stroke-linecap="butt" d="M79.5 47.5L79.5 182.5" fill-rule="nonzero"/><path stroke="#e6e6e6" stroke-width="1.0" stroke-linecap="butt" d="M149.5 47.5L149.5 182.5" fill-rule="nonzero"/><path stroke="#e6e6e6" stroke-width="1.0" stroke-linecap="butt" d="M139.5 47.5L139.5 182.5" fill-rule="nonzero"/><path stroke="#e6e6e6" stroke-width="1.0" stroke-linecap="butt" d="M129.5 47.5L129.5 182.5" fill-rule="nonzero"/><path stroke="#e6e6e6" stroke-width="1.0" stroke-linecap="butt" d="M119.5 47.5L119.5 182.5" fill-rule="nonzero"/><path stroke="#e6e6e6" stroke-width="1.0" stroke-linecap="butt" d="M199.5 47.5L199.5 182.5" fill-rule="nonzero"/><path stroke="#e6e6e6" stroke-width="1.0" stroke-linecap="butt" d="M189.5 47.5L189.5 182.5" fill-rule="nonzero"/><path stroke="#e6e6e6" stroke-width="1.0" stroke-linecap="butt" d="M179.5 47.5L179.5 182.5" fill-rule="nonzero"/><path stroke="#e6e6e6" stroke-width="1.0" stroke-linecap="butt" d="M169.5 47.5L169.5 182.5" fill-rule="nonzero"/><path stroke="#e6e6e6" stroke-width="1.0" stroke-linecap="butt" d="M250.5 47.5L250.5 182.5" fill-rule="nonzero"/><path stroke="#e6e6e6" stroke-width="1.0" stroke-linecap="butt" d="M239.5 47.5L239.5 182.5" fill-rule="nonzero"/><path stroke="#e6e6e6" stroke-width="1.0" stroke-linecap="butt" d="M229.5 47.5L229.5 182.5" fill-rule="nonzero"/><path stroke="#e6e6e6" stroke-width="1.0" stroke-linecap="butt" d="M219.5 47.5L219.5 182.5" fill-rule="nonzero"/><path stroke="#e6e6e6" stroke-width="1.0" stroke-linecap="butt" d="M300.5 47.5L300.5 182.5" fill-rule="nonzero"/><path stroke="#e6e6e6" stroke-width="1.0" stroke-linecap="butt" d="M290.5 47.5L290.5 182.5" fill-rule="nonzero"/><path stroke="#e6e6e6" stroke-width="1.0" stroke-linecap="butt" d="M280.5 47.5L280.5 182.5" fill-rule="nonzero"/><path stroke="#e6e6e6" stroke-width="1.0" stroke-linecap="butt" d="M270.5 47.5L270.5 182.5" fill-rule="nonzero"/><path stroke="#e6e6e6" stroke-width="1.0" stroke-linecap="butt" d="M350.5 47.5L350.5 182.5" fill-rule="nonzero"/><path stroke="#e6e6e6" stroke-width="1.0" stroke-linecap="butt" d="M340.5 47.5L340.5 182.5" fill-rule="nonzero"/><path stroke="#e6e6e6" stroke-width="1.0" stroke-linecap="butt" d="M330.5 47.5L330.5 182.5" fill-rule="nonzero"/><path stroke="#e6e6e6" stroke-width="1.0" stroke-linecap="butt" d="M320.5 47.5L320.5 182.5" fill-rule="nonzero"/><path stroke="#e6e6e6" stroke-width="1.0" stroke-linecap="butt" d="M380.5 47.5L380.5 182.5" fill-rule="nonzero"/><path stroke="#e6e6e6" stroke-width="1.0" stroke-linecap="butt" d="M370.5 47.5L370.5 182.5" fill-rule="nonzero"/><path stroke="#cccccc" stroke-width="1.0" stroke-linecap="butt" d="M72.5 182.5L390.5 182.5" fill-rule="nonzero"/><path stroke="#cccccc" stroke-width="1.0" stroke-linecap="butt" d="M72.5 137.5L390.5 137.5" fill-rule="nonzero"/><path stroke="#cccccc" stroke-width="1.0" stroke-linecap="butt" d="M72.5 92.5L390.5 92.5" fill-rule="nonzero"/><path stroke="#cccccc" stroke-width="1.0" stroke-linecap="butt" d="M72.5 47.5L390.5 47.5" fill-rule="nonzero"/><path stroke="#e6e6e6" stroke-width="1.0" stroke-linecap="butt" d="M72.5 146.5L390.5 146.5" fill-rule="nonzero"/><path stroke="#e6e6e6" stroke-width="1.0" stroke-linecap="butt" d="M72.5 155.5L390.5 155.5" fill-rule="nonzero"/><path stroke="#e6e6e6" stroke-width="1.0" stroke-linecap="butt" d="M72.5 164.5L390.5 164.5" fill-rule="nonzero"/><path stroke="#e6e6e6" stroke-width="1.0" stroke-linecap="butt" d="M72.5 173.5L390.5 173.5" fill-rule="nonzero"/><path stroke="#e6e6e6" stroke-width="1.0" stroke-linecap="butt" d="M72.5 101.5L390.5 101.5" fill-rule="nonzero"/><path stroke="#e6e6e6" stroke-width="1.0" stroke-linecap="butt" d="M72.5 110.5L390.5 110.5" fill-rule="nonzero"/><path stroke="#e6e6e6" stroke-width="1.0" stroke-linecap="butt" d="M72.5 119.5L390.5 119.5" fill-rule="nonzero"/><path stroke="#e6e6e6" stroke-width="1.0" stroke-linecap="butt" d="M72.5 128.5L390.5 128.5" fill-rule="nonzero"/><path stroke="#e6e6e6" stroke-width="1.0" stroke-linecap="butt" d="M72.5 56.5L390.5 56.5" fill-rule="nonzero"/><path stroke="#e6e6e6" stroke-width="1.0" stroke-linecap="butt" d="M72.5 65.5L390.5 65.5" fill-rule="nonzero"/><path stroke="#e6e6e6" stroke-width="1.0" stroke-linecap="butt" d="M72.5 74.5L390.5 74.5" fill-rule="nonzero"/><path stroke="#e6e6e6" stroke-width="1.0" stroke-linecap="butt" d="M72.5 83.5L390.5 83.5" fill-rule="nonzero"/><clipPath id="id_0"><path d="M72.45 47.25L390.55 47.25L390.55 182.55L72.45 182.55L72.45 47.25Z" clip-rule="nonzero"/></clipPath><path stroke="#4285f4" stroke-width="2.0" stroke-linecap="butt" clip-path="url(#id_0)" d="M72.45 62.584L104.02638 63.937L135.35156 65.741L166.60136 67.094L197.70045 68.447L228.47299 70.251L259.44647 71.153L287.83255 77.016L311.79745 89.644L331.0397 107.684L348.2723 125.724L365.45468 141.058L379.8738 157.745L390.55 176.687" fill-rule="nonzero"/><path fill="#424242" d="M191.04688 229.56563Q191.04688 230.81563 190.625 231.75313Q190.20312 232.675 189.42188 233.175Q188.65625 233.675 187.625 233.675Q186.625 233.675 185.84375 233.175Q185.0625 232.675 184.625 231.76875Q184.20312 230.84688 184.1875 229.62813L184.1875 229.01875Q184.1875 227.78438 184.60938 226.84688Q185.04688 225.90938 185.82812 225.40938Q186.60938 224.89375 187.625 224.89375Q188.64062 224.89375 189.42188 225.39375Q190.20312 225.89375 190.625 226.83125Q191.04688 227.76875 191.04688 229.01875L191.04688 229.56563ZM189.9375 229.00313Q189.9375 227.4875 189.32812 226.675Q188.71875 225.8625 187.625 225.8625Q186.54688 225.8625 185.9375 226.675Q185.32812 227.4875 185.3125 228.925L185.3125 229.56563Q185.3125 231.03438 185.92188 231.87813Q186.54688 232.70625 187.625 232.70625Q188.71875 232.70625 189.3125 231.925Q189.92188 231.12813 189.9375 229.64375L189.9375 229.00313ZM196.23438 232.925Q195.60938 233.675 194.375 233.675Q193.35938 233.675 192.82812 233.08125Q192.29688 232.4875 192.29688 231.33125L192.29688 227.20625L193.375 227.20625L193.375 231.3Q193.375 232.75313 194.54688 232.75313Q195.79688 232.75313 196.20312 231.81563L196.20312 227.20625L197.29688 227.20625L197.29688 233.55L196.26562 233.55L196.23438 232.925ZM200.79688 225.675L200.79688 227.20625L201.96875 227.20625L201.96875 228.05L200.79688 228.05L200.79688 231.97188Q200.79688 232.3625 200.95312 232.55Q201.10938 232.7375 201.48438 232.7375Q201.67188 232.7375 202.0 232.675L202.0 233.55Q201.57812 233.675 201.17188 233.675Q200.45312 233.675 200.07812 233.2375Q199.70312 232.78438 199.70312 231.97188L199.70312 228.05L198.54688 228.05L198.54688 227.20625L199.70312 227.20625L199.70312 225.675L200.79688 225.675ZM208.67188 230.45625Q208.67188 231.89375 208.01562 232.78438Q207.35938 233.675 206.21875 233.675Q205.0625 233.675 204.40625 232.94063L204.40625 235.9875L203.32812 235.9875L203.32812 227.20625L204.3125 227.20625L204.35938 227.90938Q205.03125 227.09688 206.20312 227.09688Q207.34375 227.09688 208.0 227.95625Q208.67188 228.81563 208.67188 230.34688L208.67188 230.45625ZM207.59375 230.33125Q207.59375 229.25313 207.125 228.64375Q206.67188 228.01875 205.875 228.01875Q204.89062 228.01875 204.40625 228.87813L204.40625 231.90938Q204.89062 232.78438 205.89062 232.78438Q206.67188 232.78438 207.125 232.175Q207.59375 231.55 207.59375 230.33125ZM214.23438 232.925Q213.60938 233.675 212.375 233.675Q211.35938 233.675 210.82812 233.08125Q210.29688 232.4875 210.29688 231.33125L210.29688 227.20625L211.375 227.20625L211.375 231.3Q211.375 232.75313 212.54688 232.75313Q213.79688 232.75313 214.20312 231.81563L214.20312 227.20625L215.29688 227.20625L215.29688 233.55L214.26562 233.55L214.23438 232.925ZM218.79688 225.675L218.79688 227.20625L219.96875 227.20625L219.96875 228.05L218.79688 228.05L218.79688 231.97188Q218.79688 232.3625 218.95312 232.55Q219.10938 232.7375 219.48438 232.7375Q219.67188 232.7375 220.0 232.675L220.0 233.55Q219.57812 233.675 219.17188 233.675Q218.45312 233.675 218.07812 233.2375Q217.70312 232.78438 217.70312 231.97188L217.70312 228.05L216.54688 228.05L216.54688 227.20625L217.70312 227.20625L217.70312 225.675L218.79688 225.675ZM225.60938 230.20625L225.60938 233.55L224.48438 233.55L224.48438 225.01875L227.64062 225.01875Q229.03125 225.01875 229.82812 225.7375Q230.625 226.44063 230.625 227.62813Q230.625 228.8625 229.84375 229.53438Q229.07812 230.20625 227.625 230.20625L225.60938 230.20625ZM225.60938 229.28438L227.64062 229.28438Q228.54688 229.28438 229.01562 228.8625Q229.5 228.44063 229.5 227.64375Q229.5 226.87813 229.01562 226.425Q228.54688 225.95625 227.70312 225.94063L225.60938 225.94063L225.60938 229.28438ZM232.03125 230.31563Q232.03125 229.39375 232.39062 228.64375Q232.76562 227.89375 233.42188 227.50313Q234.07812 227.09688 234.90625 227.09688Q236.20312 227.09688 237.0 227.9875Q237.8125 228.87813 237.8125 230.37813L237.8125 230.45625Q237.8125 231.37813 237.45312 232.1125Q237.09375 232.84688 236.4375 233.26875Q235.78125 233.675 234.92188 233.675Q233.64062 233.675 232.82812 232.78438Q232.03125 231.87813 232.03125 230.39375L232.03125 230.31563ZM233.125 230.45625Q233.125 231.50313 233.60938 232.14375Q234.10938 232.78438 234.92188 232.78438Q235.75 232.78438 236.23438 232.14375Q236.71875 231.4875 236.71875 230.31563Q236.71875 229.28438 236.21875 228.64375Q235.73438 227.9875 234.90625 227.9875Q234.10938 227.9875 233.60938 228.62813Q233.125 229.25313 233.125 230.45625ZM244.9375 232.05L246.15625 227.20625L247.23438 227.20625L245.39062 233.55L244.51562 233.55L242.96875 228.7375L241.46875 233.55L240.59375 233.55L238.75 227.20625L239.82812 227.20625L241.07812 231.95625L242.5625 227.20625L243.42188 227.20625L244.9375 232.05ZM250.95312 233.675Q249.65625 233.675 248.84375 232.83125Q248.04688 231.97188 248.04688 230.55L248.04688 230.3625Q248.04688 229.40938 248.40625 228.675Q248.76562 227.925 249.40625 227.51875Q250.0625 227.09688 250.8125 227.09688Q252.04688 227.09688 252.73438 227.90938Q253.42188 228.72188 253.42188 230.2375L253.42188 230.69063L249.125 230.69063Q249.15625 231.62813 249.67188 232.20625Q250.20312 232.78438 251.01562 232.78438Q251.57812 232.78438 251.96875 232.55Q252.375 232.31563 252.6875 231.925L253.34375 232.44063Q252.54688 233.675 250.95312 233.675ZM250.8125 227.9875Q250.15625 227.9875 249.70312 228.47188Q249.26562 228.94063 249.17188 229.8L252.34375 229.8L252.34375 229.72188Q252.29688 228.89375 251.89062 228.44063Q251.5 227.9875 250.8125 227.9875ZM257.39062 228.175Q257.14062 228.14375 256.85938 228.14375Q255.78125 228.14375 255.40625 229.05L255.40625 233.55L254.32812 233.55L254.32812 227.20625L255.375 227.20625L255.39062 227.94063Q255.92188 227.09688 256.90625 227.09688Q257.21875 227.09688 257.39062 227.175L257.39062 228.175ZM261.28125 230.08125Q261.28125 228.76875 261.625 227.55Q261.98438 226.33125 262.6875 225.33125Q263.39062 224.33125 264.15625 223.925L264.375 224.64375Q263.51562 225.3 262.96875 226.64375Q262.42188 227.9875 262.375 229.65938L262.35938 230.15938Q262.35938 232.425 263.1875 234.08125Q263.6875 235.08125 264.375 235.64375L264.15625 236.3Q263.375 235.87813 262.65625 234.84688Q261.28125 232.8625 261.28125 230.08125ZM267.32812 230.8625L267.5 231.9875L267.73438 230.97188L269.42188 225.01875L270.375 225.01875L272.01562 230.97188L272.25 232.00313L272.4375 230.84688L273.76562 225.01875L274.89062 225.01875L272.82812 233.55L271.79688 233.55L270.03125 227.33125L269.90625 226.675L269.76562 227.33125L267.95312 233.55L266.92188 233.55L264.85938 225.01875L265.98438 225.01875L267.32812 230.8625ZM278.82812 230.14375Q278.82812 231.45625 278.48438 232.65938Q278.14062 233.84688 277.42188 234.8625Q276.71875 235.87813 275.95312 236.3L275.71875 235.64375Q276.625 234.95625 277.17188 233.50313Q277.71875 232.03438 277.73438 230.26875L277.73438 230.08125Q277.73438 228.84688 277.46875 227.78438Q277.21875 226.72188 276.75 225.89375Q276.29688 225.05 275.71875 224.58125L275.95312 223.925Q276.71875 224.34688 277.42188 225.34688Q278.125 226.34688 278.46875 227.56563Q278.82812 228.76875 278.82812 230.14375Z" fill-rule="nonzero"/><path fill="#424242" d="M20.465628 188.60312Q21.715628 188.60312 22.653128 189.025Q23.575003 189.44687 24.075003 190.22812Q24.575003 190.99374 24.575003 192.025Q24.575003 193.025 24.075003 193.80624Q23.575003 194.5875 22.668753 195.025Q21.746878 195.44687 20.528128 195.4625L19.918753 195.4625Q18.684378 195.4625 17.746878 195.04062Q16.809378 194.60312 16.309378 193.82187Q15.793753 193.04062 15.793753 192.025Q15.793753 191.00937 16.293753 190.22812Q16.793753 189.44687 17.731253 189.025Q18.668753 188.60312 19.918753 188.60312L20.465628 188.60312ZM19.903128 189.7125Q18.387503 189.7125 17.575003 190.32187Q16.762503 190.93124 16.762503 192.025Q16.762503 193.10312 17.575003 193.7125Q18.387503 194.32187 19.825003 194.3375L20.465628 194.3375Q21.934378 194.3375 22.778128 193.72812Q23.606253 193.10312 23.606253 192.025Q23.606253 190.93124 22.825003 190.3375Q22.028128 189.72812 20.543753 189.7125L19.903128 189.7125ZM18.106253 186.30624L18.903128 186.275Q17.996878 185.54062 17.996878 184.36874Q17.996878 182.35312 20.262503 182.3375L24.450003 182.3375L24.450003 183.43124L20.246878 183.43124Q19.575003 183.43124 19.246878 183.74374Q18.918753 184.04062 18.918753 184.69687Q18.918753 185.22812 19.200003 185.63437Q19.481253 186.025 19.934378 186.24374L24.450003 186.24374L24.450003 187.32187L18.106253 187.32187L18.106253 186.30624ZM21.262503 178.07187L21.262503 180.93124L20.387503 180.93124L20.387503 178.07187L21.262503 178.07187ZM23.528128 176.025L23.528128 171.97812L24.450003 171.97812L24.450003 177.16562L15.918753 177.16562L15.918753 176.025L23.528128 176.025ZM21.215628 171.61874Q20.293753 171.61874 19.543753 171.25937Q18.793753 170.88437 18.403128 170.22812Q17.996878 169.57187 17.996878 168.74374Q17.996878 167.44687 18.887503 166.65Q19.778128 165.8375 21.278128 165.8375L21.356253 165.8375Q22.278128 165.8375 23.012503 166.19687Q23.746878 166.55624 24.168753 167.2125Q24.575003 167.86874 24.575003 168.72812Q24.575003 170.00937 23.684378 170.82187Q22.778128 171.61874 21.293753 171.61874L21.215628 171.61874ZM21.356253 170.525Q22.403128 170.525 23.043753 170.04062Q23.684378 169.54062 23.684378 168.72812Q23.684378 167.9 23.043753 167.41562Q22.387503 166.93124 21.215628 166.93124Q20.184378 166.93124 19.543753 167.43124Q18.887503 167.91562 18.887503 168.74374Q18.887503 169.54062 19.528128 170.04062Q20.153128 170.525 21.356253 170.525ZM24.450003 160.41562Q24.262503 160.50937 23.778128 160.57187Q24.575003 161.32187 24.575003 162.36874Q24.575003 163.30624 24.043753 163.91562Q23.512503 164.50937 22.684378 164.50937Q21.700003 164.50937 21.153128 163.75937Q20.606253 163.00937 20.606253 161.63437L20.606253 160.5875L20.106253 160.5875Q19.543753 160.5875 19.215628 160.93124Q18.871878 161.25937 18.871878 161.93124Q18.871878 162.50937 19.168753 162.9Q19.450003 163.29062 19.871878 163.29062L19.871878 164.38437Q19.387503 164.38437 18.950003 164.05624Q18.512503 163.7125 18.262503 163.13437Q17.996878 162.55624 17.996878 161.86874Q17.996878 160.75937 18.543753 160.15Q19.090628 159.525 20.043753 159.49374L22.965628 159.49374Q23.840628 159.49374 24.356253 159.275L24.450003 159.275L24.450003 160.41562ZM23.621878 162.2125Q23.621878 161.69687 23.356253 161.24374Q23.090628 160.79062 22.668753 160.5875L21.371878 160.5875L21.371878 161.43124Q21.371878 163.43124 22.543753 163.43124Q23.043753 163.43124 23.340628 163.0875Q23.621878 162.74374 23.621878 162.2125ZM21.231253 157.5875Q19.762503 157.5875 18.887503 156.9Q17.996878 156.2125 17.996878 155.0875Q17.996878 153.97812 18.746878 153.32187L15.450003 153.32187L15.450003 152.24374L24.450003 152.24374L24.450003 153.24374L23.762503 153.29062Q24.575003 153.94687 24.575003 155.10312Q24.575003 156.19687 23.668753 156.9Q22.762503 157.5875 21.309378 157.5875L21.231253 157.5875ZM21.356253 156.50937Q22.434378 156.50937 23.043753 156.07187Q23.653128 155.61874 23.653128 154.8375Q23.653128 153.80624 22.715628 153.32187L19.809378 153.32187Q18.918753 153.80624 18.918753 154.82187Q18.918753 155.61874 19.528128 156.07187Q20.137503 156.50937 21.356253 156.50937ZM20.465628 140.60312Q21.715628 140.60312 22.653128 141.025Q23.575003 141.44687 24.075003 142.22812Q24.575003 142.99374 24.575003 144.025Q24.575003 145.025 24.075003 145.80624Q23.575003 146.5875 22.668753 147.025Q21.746878 147.44687 20.528128 147.4625L19.918753 147.4625Q18.684378 147.4625 17.746878 147.04062Q16.809378 146.60312 16.309378 145.82187Q15.793753 145.04062 15.793753 144.025Q15.793753 143.00937 16.293753 142.22812Q16.793753 141.44687 17.731253 141.025Q18.668753 140.60312 19.918753 140.60312L20.465628 140.60312ZM19.903128 141.7125Q18.387503 141.7125 17.575003 142.32187Q16.762503 142.93124 16.762503 144.025Q16.762503 145.10312 17.575003 145.7125Q18.387503 146.32187 19.825003 146.3375L20.465628 146.3375Q21.934378 146.3375 22.778128 145.72812Q23.606253 145.10312 23.606253 144.025Q23.606253 142.93124 22.825003 142.3375Q22.028128 141.72812 20.543753 141.7125L19.903128 141.7125ZM23.825003 135.41562Q24.575003 136.04062 24.575003 137.275Q24.575003 138.29062 23.981253 138.82187Q23.387503 139.35312 22.231253 139.35312L18.106253 139.35312L18.106253 138.275L22.200003 138.275Q23.653128 138.275 23.653128 137.10312Q23.653128 135.85312 22.715628 135.44687L18.106253 135.44687L18.106253 134.35312L24.450003 134.35312L24.450003 135.38437L23.825003 135.41562ZM16.575003 130.85312L18.106253 130.85312L18.106253 129.68124L18.950003 129.68124L18.950003 130.85312L22.871878 130.85312Q23.262503 130.85312 23.450003 130.69687Q23.637503 130.54062 23.637503 130.16562Q23.637503 129.97812 23.575003 129.65L24.450003 129.65Q24.575003 130.07187 24.575003 130.47812Q24.575003 131.19687 24.137503 131.57187Q23.684378 131.94687 22.871878 131.94687L18.950003 131.94687L18.950003 133.10312L18.106253 133.10312L18.106253 131.94687L16.575003 131.94687L16.575003 130.85312ZM21.356253 122.97813Q22.793753 122.97813 23.684378 123.63438Q24.575003 124.29063 24.575003 125.43125Q24.575003 126.5875 23.840628 127.24375L26.887503 127.24375L26.887503 128.32187L18.106253 128.32187L18.106253 127.3375L18.809378 127.29063Q17.996878 126.61875 17.996878 125.44688Q17.996878 124.30625 18.856253 123.65Q19.715628 122.97813 21.246878 122.97813L21.356253 122.97813ZM21.231253 124.05625Q20.153128 124.05625 19.543753 124.525Q18.918753 124.97813 18.918753 125.775Q18.918753 126.75938 19.778128 127.24375L22.809378 127.24375Q23.684378 126.75938 23.684378 125.75938Q23.684378 124.97813 23.075003 124.525Q22.450003 124.05625 21.231253 124.05625ZM23.825003 117.41563Q24.575003 118.04063 24.575003 119.275Q24.575003 120.29063 23.981253 120.82188Q23.387503 121.35313 22.231253 121.35313L18.106253 121.35313L18.106253 120.275L22.200003 120.275Q23.653128 120.275 23.653128 119.10313Q23.653128 117.85313 22.715628 117.44688L18.106253 117.44688L18.106253 116.35313L24.450003 116.35313L24.450003 117.38438L23.825003 117.41563ZM16.575003 112.85313L18.106253 112.85313L18.106253 111.68125L18.950003 111.68125L18.950003 112.85313L22.871878 112.85313Q23.262503 112.85313 23.450003 112.69688Q23.637503 112.54063 23.637503 112.16563Q23.637503 111.97813 23.575003 111.65L24.450003 111.65Q24.575003 112.07188 24.575003 112.47813Q24.575003 113.19688 24.137503 113.57188Q23.684378 113.94688 22.871878 113.94688L18.950003 113.94688L18.950003 115.10313L18.106253 115.10313L18.106253 113.94688L16.575003 113.94688L16.575003 112.85313ZM22.950003 104.3375L15.918753 101.9L15.918753 100.66563L24.450003 103.8375L24.450003 104.82188L15.918753 107.97813L15.918753 106.75938L22.950003 104.3375ZM21.215628 99.61875Q20.293753 99.61875 19.543753 99.25938Q18.793753 98.88438 18.403128 98.22813Q17.996878 97.57188 17.996878 96.74375Q17.996878 95.44688 18.887503 94.65Q19.778128 93.8375 21.278128 93.8375L21.356253 93.8375Q22.278128 93.8375 23.012503 94.19688Q23.746878 94.55625 24.168753 95.2125Q24.575003 95.86875 24.575003 96.72813Q24.575003 98.00938 23.684378 98.82188Q22.778128 99.61875 21.293753 99.61875L21.215628 99.61875ZM21.356253 98.525Q22.403128 98.525 23.043753 98.04063Q23.684378 97.54063 23.684378 96.72813Q23.684378 95.9 23.043753 95.41563Q22.387503 94.93125 21.215628 94.93125Q20.184378 94.93125 19.543753 95.43125Q18.887503 95.91563 18.887503 96.74375Q18.887503 97.54063 19.528128 98.04063Q20.153128 98.525 21.356253 98.525ZM24.450003 91.15L24.450003 92.22813L15.450003 92.22813L15.450003 91.15L24.450003 91.15ZM16.575003 87.85312L18.106253 87.85312L18.106253 86.681244L18.950003 86.681244L18.950003 87.85312L22.871878 87.85312Q23.262503 87.85312 23.450003 87.69687Q23.637503 87.54062 23.637503 87.16562Q23.637503 86.97812 23.575003 86.649994L24.450003 86.649994Q24.575003 87.07187 24.575003 87.47812Q24.575003 88.19688 24.137503 88.57188Q23.684378 88.94688 22.871878 88.94688L18.950003 88.94688L18.950003 90.10313L18.106253 90.10313L18.106253 88.94688L16.575003 88.94688L16.575003 87.85312ZM24.450003 81.41562Q24.262503 81.50937 23.778128 81.57187Q24.575003 82.32187 24.575003 83.368744Q24.575003 84.306244 24.043753 84.91562Q23.512503 85.50937 22.684378 85.50937Q21.700003 85.50937 21.153128 84.75937Q20.606253 84.00937 20.606253 82.63437L20.606253 81.587494L20.106253 81.587494Q19.543753 81.587494 19.215628 81.931244Q18.871878 82.25937 18.871878 82.931244Q18.871878 83.50937 19.168753 83.899994Q19.450003 84.29062 19.871878 84.29062L19.871878 85.38437Q19.387503 85.38437 18.950003 85.056244Q18.512503 84.712494 18.262503 84.13437Q17.996878 83.556244 17.996878 82.868744Q17.996878 81.75937 18.543753 81.149994Q19.090628 80.524994 20.043753 80.493744L22.965628 80.493744Q23.840628 80.493744 24.356253 80.274994L24.450003 80.274994L24.450003 81.41562ZM23.621878 83.212494Q23.621878 82.69687 23.356253 82.243744Q23.090628 81.79062 22.668753 81.587494L21.371878 81.587494L21.371878 82.431244Q21.371878 84.431244 22.543753 84.431244Q23.043753 84.431244 23.340628 84.087494Q23.621878 83.743744 23.621878 83.212494ZM21.231253 78.587494Q19.746878 78.587494 18.871878 77.899994Q17.996878 77.212494 17.996878 76.087494Q17.996878 74.931244 18.809378 74.274994L18.106253 74.22812L18.106253 73.22812L24.293753 73.22812Q25.528128 73.22812 26.231253 73.962494Q26.950003 74.69687 26.950003 75.91562Q26.950003 76.60312 26.653128 77.25937Q26.356253 77.91562 25.856253 78.25937L25.200003 77.69687Q26.059378 77.00937 26.059378 75.993744Q26.059378 75.212494 25.606253 74.774994Q25.168753 74.32187 24.356253 74.32187L23.809378 74.32187Q24.575003 74.97812 24.575003 76.10312Q24.575003 77.212494 23.684378 77.899994Q22.778128 78.587494 21.231253 78.587494ZM21.356253 77.493744Q22.418753 77.493744 23.043753 77.056244Q23.653128 76.618744 23.653128 75.82187Q23.653128 74.806244 22.715628 74.32187L19.825003 74.32187Q18.918753 74.82187 18.918753 75.82187Q18.918753 76.60312 19.528128 77.056244Q20.137503 77.493744 21.356253 77.493744ZM24.575003 68.69687Q24.575003 69.993744 23.731253 70.806244Q22.871878 71.60312 21.450003 71.60312L21.262503 71.60312Q20.309378 71.60312 19.575003 71.243744Q18.825003 70.88437 18.418753 70.243744Q17.996878 69.587494 17.996878 68.837494Q17.996878 67.60312 18.809378 66.91562Q19.621878 66.22812 21.137503 66.22812L21.590628 66.22812L21.590628 70.524994Q22.528128 70.493744 23.106253 69.97812Q23.684378 69.44687 23.684378 68.63437Q23.684378 68.07187 23.450003 67.681244Q23.215628 67.274994 22.825003 66.962494L23.340628 66.306244Q24.575003 67.10312 24.575003 68.69687ZM18.887503 68.837494Q18.887503 69.493744 19.371878 69.94687Q19.840628 70.38437 20.700003 70.47812L20.700003 67.306244L20.621878 67.306244Q19.793753 67.35312 19.340628 67.75937Q18.887503 68.149994 18.887503 68.837494ZM20.981253 62.368744Q19.668753 62.368744 18.450003 62.024994Q17.231253 61.66562 16.231253 60.962494Q15.231253 60.25937 14.825003 59.493744L15.543753 59.274994Q16.200003 60.13437 17.543753 60.681244Q18.887503 61.22812 20.559378 61.274994L21.059378 61.29062Q23.325003 61.29062 24.981253 60.462494Q25.981253 59.962494 26.543753 59.274994L27.200003 59.493744Q26.778128 60.274994 25.746878 60.993744Q23.762503 62.368744 20.981253 62.368744ZM22.950003 55.337494L15.918753 52.899994L15.918753 51.66562L24.450003 54.837494L24.450003 55.82187L15.918753 58.97812L15.918753 57.75937L22.950003 55.337494ZM21.043753 47.82187Q22.356253 47.82187 23.559378 48.16562Q24.746878 48.50937 25.762503 49.22812Q26.778128 49.931244 27.200003 50.69687L26.543753 50.931244Q25.856253 50.024994 24.403128 49.47812Q22.934378 48.931244 21.168753 48.91562L20.981253 48.91562Q19.746878 48.91562 18.684378 49.181244Q17.621878 49.431244 16.793753 49.899994Q15.950003 50.35312 15.481253 50.931244L14.825003 50.69687Q15.246878 49.931244 16.246878 49.22812Q17.246878 48.524994 18.465628 48.181244Q19.668753 47.82187 21.043753 47.82187Z" fill-rule="nonzero"/><path fill="#757575" d="M56.715626 187.05L55.6375 187.05L55.6375 179.83125L53.45 180.62813L53.45 179.64375L56.559376 178.47188L56.715626 178.47188L56.715626 187.05ZM65.5125 183.40938Q65.5125 185.31563 64.85625 186.25313Q64.21562 187.175 62.825 187.175Q61.465626 187.175 60.809376 186.26875Q60.153126 185.3625 60.121876 183.55L60.121876 182.1125Q60.121876 180.22188 60.7625 179.31563Q61.41875 178.39375 62.809376 178.39375Q64.18437 178.39375 64.84062 179.28438Q65.49687 180.15938 65.5125 182.00313L65.5125 183.40938ZM64.41875 181.925Q64.41875 180.55 64.02812 179.925Q63.653126 179.28438 62.809376 179.28438Q61.98125 179.28438 61.590626 179.925Q61.215626 180.55 61.215626 181.84688L61.215626 183.58125Q61.215626 184.95625 61.60625 185.62813Q62.0125 186.28438 62.825 186.28438Q63.621876 186.28438 64.0125 185.65938Q64.40312 185.03438 64.41875 183.70625L64.41875 181.925Z" fill-rule="nonzero"/><path fill="#757575" d="M56.715626 141.95L55.6375 141.95L55.6375 134.73125L53.45 135.52812L53.45 134.54375L56.559376 133.37187L56.715626 133.37187L56.715626 141.95ZM63.715626 141.95L62.6375 141.95L62.6375 134.73125L60.45 135.52812L60.45 134.54375L63.559376 133.37187L63.715626 133.37187L63.715626 141.95Z" fill-rule="nonzero"/><path fill="#757575" d="M56.715626 96.85L55.6375 96.85L55.6375 89.63125L53.45 90.42812L53.45 89.44375L56.559376 88.27187L56.715626 88.27187L56.715626 96.85ZM65.74687 96.85L60.153126 96.85L60.153126 96.06875L63.10625 92.7875Q63.7625 92.0375 64.0125 91.58437Q64.2625 91.11562 64.2625 90.61562Q64.2625 89.94375 63.85625 89.52187Q63.465626 89.08437 62.778126 89.08437Q61.98125 89.08437 61.528126 89.55312Q61.075 90.00625 61.075 90.83437L59.996876 90.83437Q59.996876 89.64687 60.746876 88.92812Q61.5125 88.19375 62.778126 88.19375Q63.98125 88.19375 64.66875 88.81875Q65.35625 89.44375 65.35625 90.49062Q65.35625 91.74062 63.746876 93.49062L61.465626 95.95937L65.74687 95.95937L65.74687 96.85Z" fill-rule="nonzero"/><path fill="#757575" d="M56.715626 51.75L55.6375 51.75L55.6375 44.53125L53.45 45.328125L53.45 44.34375L56.559376 43.171875L56.715626 43.171875L56.715626 51.75ZM61.73125 46.953125L62.54375 46.953125Q63.325 46.9375 63.7625 46.546875Q64.2 46.15625 64.2 45.484375Q64.2 43.984375 62.7 43.984375Q61.996876 43.984375 61.575 44.390625Q61.16875 44.796875 61.16875 45.453125L60.075 45.453125Q60.075 44.4375 60.809376 43.765625Q61.559376 43.09375 62.7 43.09375Q63.903126 43.09375 64.59062 43.734375Q65.27812 44.375 65.27812 45.515625Q65.27812 46.078125 64.91875 46.59375Q64.55937 47.109375 63.934376 47.375Q64.6375 47.59375 65.0125 48.109375Q65.40312 48.625 65.40312 49.375Q65.40312 50.515625 64.65312 51.203125Q63.903126 51.875 62.7 51.875Q61.5125 51.875 60.746876 51.21875Q59.996876 50.5625 59.996876 49.5L61.090626 49.5Q61.090626 50.171875 61.528126 50.578125Q61.965626 50.984375 62.715626 50.984375Q63.496876 50.984375 63.903126 50.578125Q64.325 50.15625 64.325 49.390625Q64.325 48.65625 63.871876 48.265625Q63.41875 47.859375 62.54375 47.84375L61.73125 47.84375L61.73125 46.953125Z" fill-rule="nonzero"/><path fill="#757575" d="M111.10804 197.69063L112.29554 197.69063L112.29554 198.56563L111.10804 198.56563L111.10804 200.55L110.029915 200.55L110.029915 198.56563L106.13929 198.56563L106.13929 197.925L109.95179 192.01875L111.10804 192.01875L111.10804 197.69063ZM107.373665 197.69063L110.029915 197.69063L110.029915 193.50313L109.88929 193.7375L107.373665 197.69063Z" fill-rule="nonzero"/><path fill="#757575" d="M161.0364 192.01875L161.0364 192.925L160.83328 192.925Q159.56766 192.95625 158.81766 193.69063Q158.06766 194.40938 157.94266 195.72188Q158.63016 194.95625 159.7864 194.95625Q160.89578 194.95625 161.56766 195.7375Q162.23953 196.51875 162.23953 197.76875Q162.23953 199.08125 161.52078 199.87813Q160.80203 200.675 159.58328 200.675Q158.36453 200.675 157.5989 199.7375Q156.8489 198.78438 156.8489 197.3L156.8489 196.89375Q156.8489 194.53438 157.8489 193.28438Q158.8489 192.03438 160.83328 192.01875L161.0364 192.01875ZM159.61453 195.8625Q159.05203 195.8625 158.58328 196.19063Q158.11453 196.51875 157.92703 197.03438L157.92703 197.425Q157.92703 198.4875 158.39578 199.12813Q158.88016 199.76875 159.58328 199.76875Q160.31766 199.76875 160.73953 199.2375Q161.1614 198.69063 161.1614 197.81563Q161.1614 196.94063 160.73953 196.40938Q160.31766 195.8625 159.61453 195.8625Z" fill-rule="nonzero"/><path fill="#757575" d="M212.19913 194.2375Q212.19913 194.87813 211.85538 195.37813Q211.51163 195.87813 210.94913 196.15938Q211.60538 196.44063 211.996 197.00313Q212.38663 197.55 212.38663 198.25313Q212.38663 199.34688 211.63663 200.01875Q210.90225 200.675 209.6835 200.675Q208.44913 200.675 207.69913 200.01875Q206.96475 199.34688 206.96475 198.25313Q206.96475 197.55 207.33975 197.00313Q207.71475 196.44063 208.38663 196.15938Q207.82413 195.87813 207.496 195.37813Q207.16788 194.87813 207.16788 194.2375Q207.16788 193.15938 207.85538 192.53438Q208.54288 191.89375 209.6835 191.89375Q210.8085 191.89375 211.496 192.53438Q212.19913 193.15938 212.19913 194.2375ZM211.3085 198.22188Q211.3085 197.50313 210.85538 197.06563Q210.40225 196.6125 209.66788 196.6125Q208.9335 196.6125 208.48038 197.06563Q208.04288 197.50313 208.04288 198.2375Q208.04288 198.95625 208.48038 199.37813Q208.91788 199.78438 209.6835 199.78438Q210.4335 199.78438 210.871 199.3625Q211.3085 198.94063 211.3085 198.22188ZM209.6835 192.78438Q209.04288 192.78438 208.63663 193.19063Q208.246 193.58125 208.246 194.26875Q208.246 194.90938 208.63663 195.31563Q209.02725 195.72188 209.66788 195.72188Q210.32413 195.72188 210.71475 195.31563Q211.10538 194.90938 211.10538 194.26875Q211.10538 193.6125 210.69913 193.20625Q210.29288 192.78438 209.6835 192.78438Z" fill-rule="nonzero"/><path fill="#757575" d="M257.315 200.55L256.23688 200.55L256.23688 193.33125L254.04936 194.12813L254.04936 193.14375L257.15875 191.97188L257.315 191.97188L257.315 200.55ZM266.11188 196.90938Q266.11188 198.81563 265.45563 199.75313Q264.815 200.675 263.42438 200.675Q262.065 200.675 261.40875 199.76875Q260.7525 198.8625 260.72125 197.05L260.72125 195.6125Q260.72125 193.72188 261.36188 192.81563Q262.01813 191.89375 263.40875 191.89375Q264.78375 191.89375 265.44 192.78438Q266.09625 193.65938 266.11188 195.50313L266.11188 196.90938ZM265.01813 195.425Q265.01813 194.05 264.6275 193.425Q264.2525 192.78438 263.40875 192.78438Q262.58063 192.78438 262.19 193.425Q261.815 194.05 261.815 195.34688L261.815 197.08125Q261.815 198.45625 262.20563 199.12813Q262.61188 199.78438 263.42438 199.78438Q264.22125 199.78438 264.61188 199.15938Q265.0025 198.53438 265.01813 197.20625L265.01813 195.425Z" fill-rule="nonzero"/><path fill="#757575" d="M307.55585 200.55L306.47772 200.55L306.47772 193.33125L304.29022 194.12813L304.29022 193.14375L307.3996 191.97188L307.55585 191.97188L307.55585 200.55ZM316.5871 200.55L310.99335 200.55L310.99335 199.76875L313.94647 196.4875Q314.60272 195.7375 314.85272 195.28438Q315.10272 194.81563 315.10272 194.31563Q315.10272 193.64375 314.69647 193.22188Q314.30585 192.78438 313.61835 192.78438Q312.82147 192.78438 312.36835 193.25313Q311.91522 193.70625 311.91522 194.53438L310.8371 194.53438Q310.8371 193.34688 311.5871 192.62813Q312.35272 191.89375 313.61835 191.89375Q314.82147 191.89375 315.50897 192.51875Q316.19647 193.14375 316.19647 194.19063Q316.19647 195.44063 314.5871 197.19063L312.30585 199.65938L316.5871 199.65938L316.5871 200.55Z" fill-rule="nonzero"/><path fill="#757575" d="M357.79672 200.55L356.7186 200.55L356.7186 193.33125L354.5311 194.12813L354.5311 193.14375L357.64047 191.97188L357.79672 191.97188L357.79672 200.55ZM365.81235 197.69063L366.99985 197.69063L366.99985 198.56563L365.81235 198.56563L365.81235 200.55L364.73422 200.55L364.73422 198.56563L360.8436 198.56563L360.8436 197.925L364.6561 192.01875L365.81235 192.01875L365.81235 197.69063ZM362.07797 197.69063L364.73422 197.69063L364.73422 193.50313L364.5936 193.7375L362.07797 197.69063Z" fill-rule="nonzero"/><path fill="#757575" d="M22.528126 22.121876Q22.528126 23.79375 21.965626 25.04375Q21.403126 26.29375 20.371876 26.95Q19.340626 27.60625 17.965626 27.60625Q16.621876 27.60625 15.575 26.95Q14.54375 26.278126 13.965625 25.059376Q13.3875 23.840626 13.371875 22.23125L13.371875 21.403126Q13.371875 19.7625 13.934375 18.5125Q14.5125 17.246876 15.559375 16.590626Q16.60625 15.918751 17.95 15.918751Q19.309376 15.918751 20.35625 16.575Q21.403126 17.23125 21.965626 18.496876Q22.528126 19.746876 22.528126 21.403126L22.528126 22.121876ZM21.028126 21.3875Q21.028126 19.371876 20.215626 18.29375Q19.403126 17.2 17.95 17.2Q16.528126 17.2 15.7 18.29375Q14.8875 19.371876 14.871875 21.29375L14.871875 22.121876Q14.871875 24.090626 15.684375 25.215626Q16.5125 26.325 17.965626 26.325Q19.41875 26.325 20.215626 25.278126Q21.0125 24.215626 21.028126 22.23125L21.028126 21.3875ZM29.7625 26.60625Q28.91875 27.60625 27.29375 27.60625Q25.934376 27.60625 25.23125 26.825Q24.528126 26.028126 24.5125 24.496876L24.5125 18.996876L25.965626 18.996876L25.965626 24.45Q25.965626 26.371876 27.528126 26.371876Q29.184376 26.371876 29.73125 25.1375L29.73125 18.996876L31.16875 18.996876L31.16875 27.45L29.79375 27.45L29.7625 26.60625ZM35.5125 16.95L35.5125 18.996876L37.090626 18.996876L37.090626 20.10625L35.5125 20.10625L35.5125 25.35625Q35.5125 25.85625 35.715626 26.121876Q35.934376 26.371876 36.434376 26.371876Q36.684376 26.371876 37.121876 26.278126L37.121876 27.45Q36.559376 27.60625 36.0125 27.60625Q35.04375 27.60625 34.54375 27.028126Q34.059376 26.434376 34.059376 25.35625L34.059376 20.10625L32.528126 20.10625L32.528126 18.996876L34.059376 18.996876L34.059376 16.95L35.5125 16.95ZM45.684376 23.309376Q45.684376 25.246876 44.79375 26.434376Q43.91875 27.60625 42.41875 27.60625Q40.871876 27.60625 39.996876 26.621876L39.996876 30.7L38.54375 30.7L38.54375 18.996876L39.871876 18.996876L39.934376 19.934376Q40.825 18.840626 42.3875 18.840626Q43.91875 18.840626 44.79375 19.996876Q45.684376 21.1375 45.684376 23.184376L45.684376 23.309376ZM44.246876 23.153126Q44.246876 21.715626 43.6375 20.8875Q43.028126 20.059376 41.965626 20.059376Q40.653126 20.059376 39.996876 21.23125L39.996876 25.2625Q40.6375 26.41875 41.98125 26.41875Q43.0125 26.41875 43.621876 25.60625Q44.246876 24.778126 44.246876 23.153126ZM52.7625 26.60625Q51.91875 27.60625 50.29375 27.60625Q48.934376 27.60625 48.23125 26.825Q47.528126 26.028126 47.5125 24.496876L47.5125 18.996876L48.965626 18.996876L48.965626 24.45Q48.965626 26.371876 50.528126 26.371876Q52.184376 26.371876 52.73125 25.1375L52.73125 18.996876L54.16875 18.996876L54.16875 27.45L52.79375 27.45L52.7625 26.60625ZM58.5125 16.95L58.5125 18.996876L60.090626 18.996876L60.090626 20.10625L58.5125 20.10625L58.5125 25.35625Q58.5125 25.85625 58.715626 26.121876Q58.934376 26.371876 59.434376 26.371876Q59.684376 26.371876 60.121876 26.278126L60.121876 27.45Q59.559376 27.60625 59.0125 27.60625Q58.04375 27.60625 57.54375 27.028126Q57.059376 26.434376 57.059376 25.35625L57.059376 20.10625L55.528126 20.10625L55.528126 18.996876L57.059376 18.996876L57.059376 16.95L58.5125 16.95ZM67.27812 22.996876L67.27812 27.45L65.77812 27.45L65.77812 16.075L69.96562 16.075Q71.84062 16.075 72.8875 17.028126Q73.95 17.98125 73.95 19.54375Q73.95 21.2 72.91875 22.10625Q71.8875 22.996876 69.95 22.996876L67.27812 22.996876ZM67.27812 21.7625L69.96562 21.7625Q71.16875 21.7625 71.80937 21.2Q72.45 20.6375 72.45 19.559376Q72.45 18.54375 71.80937 17.934376Q71.16875 17.325 70.05937 17.309376L67.27812 17.309376L67.27812 21.7625ZM75.16875 23.1375Q75.16875 21.903126 75.65312 20.91875Q76.1375 19.91875 77.0125 19.3875Q77.8875 18.840626 78.99687 18.840626Q80.73125 18.840626 81.79375 20.04375Q82.85625 21.23125 82.85625 23.215626L82.85625 23.309376Q82.85625 24.54375 82.3875 25.528126Q81.91875 26.5125 81.02812 27.059376Q80.15312 27.60625 79.0125 27.60625Q77.29375 27.60625 76.23125 26.41875Q75.16875 25.215626 75.16875 23.246876L75.16875 23.1375ZM76.62187 23.309376Q76.62187 24.715626 77.2625 25.575Q77.91875 26.41875 79.0125 26.41875Q80.12187 26.41875 80.7625 25.559376Q81.41875 24.7 81.41875 23.1375Q81.41875 21.746876 80.74687 20.8875Q80.09062 20.028126 78.99687 20.028126Q77.93437 20.028126 77.27812 20.8875Q76.62187 21.73125 76.62187 23.309376ZM92.02812 25.45L93.65312 18.996876L95.10625 18.996876L92.6375 27.45L91.46562 27.45L89.41875 21.04375L87.41875 27.45L86.24687 27.45L83.79375 18.996876L85.23125 18.996876L86.8875 25.325L88.85625 18.996876L90.02812 18.996876L92.02812 25.45ZM100.05937 27.60625Q98.34062 27.60625 97.2625 26.48125Q96.18437 25.340626 96.18437 23.45L96.18437 23.184376Q96.18437 21.934376 96.65312 20.95Q97.1375 19.95 97.99687 19.403126Q98.87187 18.840626 99.87187 18.840626Q101.52812 18.840626 102.43437 19.934376Q103.35625 21.0125 103.35625 23.028126L103.35625 23.6375L97.62187 23.6375Q97.65312 24.8875 98.35625 25.653126Q99.05937 26.41875 100.1375 26.41875Q100.90312 26.41875 101.43437 26.10625Q101.96562 25.79375 102.35625 25.278126L103.24687 25.965626Q102.18437 27.60625 100.05937 27.60625ZM99.87187 20.028126Q98.99687 20.028126 98.40312 20.66875Q97.80937 21.29375 97.66875 22.45L101.90312 22.45L101.90312 22.340626Q101.84062 21.23125 101.30937 20.6375Q100.77812 20.028126 99.87187 20.028126ZM108.6375 20.29375Q108.30937 20.23125 107.91875 20.23125Q106.49687 20.23125 105.99687 21.45L105.99687 27.45L104.54375 27.45L104.54375 18.996876L105.95 18.996876L105.98125 19.965626Q106.68437 18.840626 107.99687 18.840626Q108.41875 18.840626 108.6375 18.95L108.6375 20.29375ZM116.34062 25.48125L118.43437 18.996876L119.90312 18.996876L116.87187 27.45L115.77812 27.45L112.71562 18.996876L114.18437 18.996876L116.34062 25.48125ZM126.46562 25.2Q126.46562 24.621876 126.02812 24.29375Q125.59062 23.965626 124.48125 23.73125Q123.3875 23.496876 122.74687 23.16875Q122.10625 22.840626 121.79375 22.3875Q121.48125 21.934376 121.48125 21.309376Q121.48125 20.278126 122.35625 19.559376Q123.24687 18.840626 124.60625 18.840626Q126.04375 18.840626 126.93437 19.590626Q127.84062 20.325 127.84062 21.48125L126.3875 21.48125Q126.3875 20.8875 125.87187 20.465626Q125.37187 20.028126 124.60625 20.028126Q123.825 20.028126 123.37187 20.371876Q122.93437 20.715626 122.93437 21.2625Q122.93437 21.79375 123.34062 22.059376Q123.7625 22.325 124.84062 22.575Q125.91875 22.809376 126.59062 23.153126Q127.2625 23.48125 127.59062 23.95Q127.91875 24.41875 127.91875 25.10625Q127.91875 26.23125 127.0125 26.91875Q126.10625 27.60625 124.65312 27.60625Q123.6375 27.60625 122.85625 27.246876Q122.075 26.8875 121.6375 26.246876Q121.2 25.590626 121.2 24.840626L122.6375 24.840626Q122.68437 25.575 123.21562 25.996876Q123.7625 26.41875 124.65312 26.41875Q125.48125 26.41875 125.96562 26.090626Q126.46562 25.7625 126.46562 25.2ZM129.575 26.684376Q129.575 26.309376 129.79375 26.059376Q130.02812 25.809376 130.46562 25.809376Q130.91875 25.809376 131.1375 26.059376Q131.37187 26.309376 131.37187 26.684376Q131.37187 27.04375 131.1375 27.29375Q130.91875 27.54375 130.46562 27.54375Q130.02812 27.54375 129.79375 27.29375Q129.575 27.04375 129.575 26.684376ZM146.52812 22.121876Q146.52812 23.79375 145.96562 25.04375Q145.40312 26.29375 144.37187 26.95Q143.34062 27.60625 141.96562 27.60625Q140.62187 27.60625 139.575 26.95Q138.54375 26.278126 137.96562 25.059376Q137.3875 23.840626 137.37187 22.23125L137.37187 21.403126Q137.37187 19.7625 137.93437 18.5125Q138.5125 17.246876 139.55937 16.590626Q140.60625 15.918751 141.95 15.918751Q143.30937 15.918751 144.35625 16.575Q145.40312 17.23125 145.96562 18.496876Q146.52812 19.746876 146.52812 21.403126L146.52812 22.121876ZM145.02812 21.3875Q145.02812 19.371876 144.21562 18.29375Q143.40312 17.2 141.95 17.2Q140.52812 17.2 139.7 18.29375Q138.8875 19.371876 138.87187 21.29375L138.87187 22.121876Q138.87187 24.090626 139.68437 25.215626Q140.5125 26.325 141.96562 26.325Q143.41875 26.325 144.21562 25.278126Q145.0125 24.215626 145.02812 22.23125L145.02812 21.3875ZM149.91875 18.996876L149.96562 20.059376Q150.93437 18.840626 152.49687 18.840626Q155.16875 18.840626 155.2 21.85625L155.2 27.45L153.74687 27.45L153.74687 21.85625Q153.74687 20.934376 153.325 20.496876Q152.91875 20.059376 152.05937 20.059376Q151.35625 20.059376 150.825 20.434376Q150.29375 20.809376 149.99687 21.41875L149.99687 27.45L148.54375 27.45L148.54375 18.996876L149.91875 18.996876ZM160.55937 23.2L156.74687 23.2L156.74687 22.028126L160.55937 22.028126L160.55937 23.2ZM163.27812 26.215626L168.66875 26.215626L168.66875 27.45L161.77812 27.45L161.77812 16.075L163.27812 16.075L163.27812 26.215626ZM170.16875 23.1375Q170.16875 21.903126 170.65312 20.91875Q171.1375 19.91875 172.0125 19.3875Q172.8875 18.840626 173.99687 18.840626Q175.73125 18.840626 176.79375 20.04375Q177.85625 21.23125 177.85625 23.215626L177.85625 23.309376Q177.85625 24.54375 177.3875 25.528126Q176.91875 26.5125 176.02812 27.059376Q175.15312 27.60625 174.0125 27.60625Q172.29375 27.60625 171.23125 26.41875Q170.16875 25.215626 170.16875 23.246876L170.16875 23.1375ZM171.62187 23.309376Q171.62187 24.715626 172.2625 25.575Q172.91875 26.41875 174.0125 26.41875Q175.12187 26.41875 175.7625 25.559376Q176.41875 24.7 176.41875 23.1375Q176.41875 21.746876 175.74687 20.8875Q175.09062 20.028126 173.99687 20.028126Q172.93437 20.028126 172.27812 20.8875Q171.62187 21.73125 171.62187 23.309376ZM184.7625 27.45Q184.6375 27.2 184.55937 26.559376Q183.55937 27.60625 182.15312 27.60625Q180.90312 27.60625 180.10625 26.903126Q179.30937 26.184376 179.30937 25.10625Q179.30937 23.778126 180.30937 23.059376Q181.30937 22.325 183.1375 22.325L184.54375 22.325L184.54375 21.653126Q184.54375 20.903126 184.09062 20.45Q183.6375 19.996876 182.74687 19.996876Q181.98125 19.996876 181.45 20.3875Q180.93437 20.778126 180.93437 21.340626L179.48125 21.340626Q179.48125 20.7 179.91875 20.121876Q180.37187 19.528126 181.1375 19.184376Q181.91875 18.840626 182.84062 18.840626Q184.29375 18.840626 185.12187 19.575Q185.95 20.29375 185.98125 21.575L185.98125 25.465626Q185.98125 26.6375 186.27812 27.325L186.27812 27.45L184.7625 27.45ZM182.37187 26.340626Q183.04375 26.340626 183.65312 25.996876Q184.2625 25.6375 184.54375 25.075L184.54375 23.340626L183.40312 23.340626Q180.74687 23.340626 180.74687 24.903126Q180.74687 25.575 181.2 25.965626Q181.65312 26.340626 182.37187 26.340626ZM188.2 23.153126Q188.2 21.2 189.12187 20.028126Q190.04375 18.840626 191.52812 18.840626Q193.0125 18.840626 193.8875 19.85625L193.8875 15.450001L195.325 15.450001L195.325 27.45L193.99687 27.45L193.93437 26.54375Q193.05937 27.60625 191.5125 27.60625Q190.04375 27.60625 189.12187 26.403126Q188.2 25.2 188.2 23.2625L188.2 23.153126ZM189.6375 23.309376Q189.6375 24.746876 190.23125 25.559376Q190.825 26.371876 191.87187 26.371876Q193.24687 26.371876 193.8875 25.1375L193.8875 21.2625Q193.23125 20.059376 191.8875 20.059376Q190.825 20.059376 190.23125 20.8875Q189.6375 21.7 189.6375 23.309376ZM210.52812 22.121876Q210.52812 23.79375 209.96562 25.04375Q209.40312 26.29375 208.37187 26.95Q207.34062 27.60625 205.96562 27.60625Q204.62187 27.60625 203.575 26.95Q202.54375 26.278126 201.96562 25.059376Q201.3875 23.840626 201.37187 22.23125L201.37187 21.403126Q201.37187 19.7625 201.93437 18.5125Q202.5125 17.246876 203.55937 16.590626Q204.60625 15.918751 205.95 15.918751Q207.30937 15.918751 208.35625 16.575Q209.40312 17.23125 209.96562 18.496876Q210.52812 19.746876 210.52812 21.403126L210.52812 22.121876ZM209.02812 21.3875Q209.02812 19.371876 208.21562 18.29375Q207.40312 17.2 205.95 17.2Q204.52812 17.2 203.7 18.29375Q202.8875 19.371876 202.87187 21.29375L202.87187 22.121876Q202.87187 24.090626 203.68437 25.215626Q204.5125 26.325 205.96562 26.325Q207.41875 26.325 208.21562 25.278126Q209.0125 24.215626 209.02812 22.23125L209.02812 21.3875ZM217.7625 26.60625Q216.91875 27.60625 215.29375 27.60625Q213.93437 27.60625 213.23125 26.825Q212.52812 26.028126 212.5125 24.496876L212.5125 18.996876L213.96562 18.996876L213.96562 24.45Q213.96562 26.371876 215.52812 26.371876Q217.18437 26.371876 217.73125 25.1375L217.73125 18.996876L219.16875 18.996876L219.16875 27.45L217.79375 27.45L217.7625 26.60625ZM223.5125 16.95L223.5125 18.996876L225.09062 18.996876L225.09062 20.10625L223.5125 20.10625L223.5125 25.35625Q223.5125 25.85625 223.71562 26.121876Q223.93437 26.371876 224.43437 26.371876Q224.68437 26.371876 225.12187 26.278126L225.12187 27.45Q224.55937 27.60625 224.0125 27.60625Q223.04375 27.60625 222.54375 27.028126Q222.05937 26.434376 222.05937 25.35625L222.05937 20.10625L220.52812 20.10625L220.52812 18.996876L222.05937 18.996876L222.05937 16.95L223.5125 16.95ZM233.68437 23.309376Q233.68437 25.246876 232.79375 26.434376Q231.91875 27.60625 230.41875 27.60625Q228.87187 27.60625 227.99687 26.621876L227.99687 30.7L226.54375 30.7L226.54375 18.996876L227.87187 18.996876L227.93437 19.934376Q228.825 18.840626 230.3875 18.840626Q231.91875 18.840626 232.79375 19.996876Q233.68437 21.1375 233.68437 23.184376L233.68437 23.309376ZM232.24687 23.153126Q232.24687 21.715626 231.6375 20.8875Q231.02812 20.059376 229.96562 20.059376Q228.65312 20.059376 227.99687 21.23125L227.99687 25.2625Q228.6375 26.41875 229.98125 26.41875Q231.0125 26.41875 231.62187 25.60625Q232.24687 24.778126 232.24687 23.153126ZM240.7625 26.60625Q239.91875 27.60625 238.29375 27.60625Q236.93437 27.60625 236.23125 26.825Q235.52812 26.028126 235.5125 24.496876L235.5125 18.996876L236.96562 18.996876L236.96562 24.45Q236.96562 26.371876 238.52812 26.371876Q240.18437 26.371876 240.73125 25.1375L240.73125 18.996876L242.16875 18.996876L242.16875 27.45L240.79375 27.45L240.7625 26.60625ZM246.5125 16.95L246.5125 18.996876L248.09062 18.996876L248.09062 20.10625L246.5125 20.10625L246.5125 25.35625Q246.5125 25.85625 246.71562 26.121876Q246.93437 26.371876 247.43437 26.371876Q247.68437 26.371876 248.12187 26.278126L248.12187 27.45Q247.55937 27.60625 247.0125 27.60625Q246.04375 27.60625 245.54375 27.028126Q245.05937 26.434376 245.05937 25.35625L245.05937 20.10625L243.52812 20.10625L243.52812 18.996876L245.05937 18.996876L245.05937 16.95L246.5125 16.95ZM257.54376 25.45L260.79376 16.075L262.4344 16.075L258.21564 27.45L256.8875 27.45L252.66875 16.075L254.30937 16.075L257.54376 25.45ZM263.16876 23.1375Q263.16876 21.903126 263.65314 20.91875Q264.1375 19.91875 265.0125 19.3875Q265.8875 18.840626 266.9969 18.840626Q268.73126 18.840626 269.79376 20.04375Q270.85626 21.23125 270.85626 23.215626L270.85626 23.309376Q270.85626 24.54375 270.3875 25.528126Q269.91876 26.5125 269.02814 27.059376Q268.15314 27.60625 267.0125 27.60625Q265.29376 27.60625 264.23126 26.41875Q263.16876 25.215626 263.16876 23.246876L263.16876 23.1375ZM264.6219 23.309376Q264.6219 24.715626 265.2625 25.575Q265.91876 26.41875 267.0125 26.41875Q268.1219 26.41875 268.7625 25.559376Q269.41876 24.7 269.41876 23.1375Q269.41876 21.746876 268.7469 20.8875Q268.09064 20.028126 266.9969 20.028126Q265.9344 20.028126 265.27814 20.8875Q264.6219 21.73125 264.6219 23.309376ZM274.1219 27.45L272.66876 27.45L272.66876 15.450001L274.1219 15.450001L274.1219 27.45ZM278.5125 16.95L278.5125 18.996876L280.09064 18.996876L280.09064 20.10625L278.5125 20.10625L278.5125 25.35625Q278.5125 25.85625 278.71564 26.121876Q278.9344 26.371876 279.4344 26.371876Q279.6844 26.371876 280.1219 26.278126L280.1219 27.45Q279.5594 27.60625 279.0125 27.60625Q278.04376 27.60625 277.54376 27.028126Q277.0594 26.434376 277.0594 25.35625L277.0594 20.10625L275.52814 20.10625L275.52814 18.996876L277.0594 18.996876L277.0594 16.95L278.5125 16.95ZM286.7625 27.45Q286.6375 27.2 286.5594 26.559376Q285.5594 27.60625 284.15314 27.60625Q282.90314 27.60625 282.10626 26.903126Q281.3094 26.184376 281.3094 25.10625Q281.3094 23.778126 282.3094 23.059376Q283.3094 22.325 285.1375 22.325L286.54376 22.325L286.54376 21.653126Q286.54376 20.903126 286.09064 20.45Q285.6375 19.996876 284.7469 19.996876Q283.98126 19.996876 283.45 20.3875Q282.9344 20.778126 282.9344 21.340626L281.48126 21.340626Q281.48126 20.7 281.91876 20.121876Q282.3719 19.528126 283.1375 19.184376Q283.91876 18.840626 284.84064 18.840626Q286.29376 18.840626 287.1219 19.575Q287.95 20.29375 287.98126 21.575L287.98126 25.465626Q287.98126 26.6375 288.27814 27.325L288.27814 27.45L286.7625 27.45ZM284.3719 26.340626Q285.04376 26.340626 285.65314 25.996876Q286.2625 25.6375 286.54376 25.075L286.54376 23.340626L285.40314 23.340626Q282.7469 23.340626 282.7469 24.903126Q282.7469 25.575 283.2 25.965626Q283.65314 26.340626 284.3719 26.340626ZM290.2 23.153126Q290.2 21.16875 291.10626 20.0125Q292.02814 18.840626 293.54376 18.840626Q295.09064 18.840626 295.95 19.934376L296.02814 18.996876L297.34064 18.996876L297.34064 27.246876Q297.34064 28.8875 296.3719 29.825Q295.40314 30.778126 293.7625 30.778126Q292.84064 30.778126 291.96564 30.3875Q291.09064 29.996876 290.6375 29.325L291.3875 28.45Q292.3094 29.60625 293.65314 29.60625Q294.71564 29.60625 295.29376 29.0125Q295.8875 28.41875 295.8875 27.325L295.8875 26.60625Q295.02814 27.60625 293.52814 27.60625Q292.04376 27.60625 291.1219 26.41875Q290.2 25.215626 290.2 23.153126ZM291.65314 23.309376Q291.65314 24.746876 292.23126 25.559376Q292.825 26.371876 293.8875 26.371876Q295.2469 26.371876 295.8875 25.1375L295.8875 21.278126Q295.23126 20.059376 293.90314 20.059376Q292.84064 20.059376 292.2469 20.8875Q291.65314 21.7 291.65314 23.309376ZM303.0594 27.60625Q301.34064 27.60625 300.2625 26.48125Q299.1844 25.340626 299.1844 23.45L299.1844 23.184376Q299.1844 21.934376 299.65314 20.95Q300.1375 19.95 300.9969 19.403126Q301.8719 18.840626 302.8719 18.840626Q304.52814 18.840626 305.4344 19.934376Q306.35626 21.0125 306.35626 23.028126L306.35626 23.6375L300.6219 23.6375Q300.65314 24.8875 301.35626 25.653126Q302.0594 26.41875 303.1375 26.41875Q303.90314 26.41875 304.4344 26.10625Q304.96564 25.79375 305.35626 25.278126L306.2469 25.965626Q305.1844 27.60625 303.0594 27.60625ZM302.8719 20.028126Q301.9969 20.028126 301.40314 20.66875Q300.8094 21.29375 300.66876 22.45L304.90314 22.45L304.90314 22.340626Q304.84064 21.23125 304.3094 20.6375Q303.77814 20.028126 302.8719 20.028126Z" fill-rule="nonzero"/></svg>