<svg version="1.1" viewBox="0.0 0.0 407.0 251.0" fill="none" stroke="none" stroke-linecap="square" stroke-miterlimit="10" width="407" height="251" xmlns:xlink="http://www.w3.org/1999/xlink" xmlns="http://www.w3.org/2000/svg"><path fill="#ffffff" d="M0 0L407.0 0L407.0 251.0L0 251.0L0 0Z" fill-rule="nonzero"/><path fill="#ffffff" d="M0 0L407.0 0L407.0 251.0L0 251.0L0 0Z" fill-rule="nonzero"/><path stroke="#cccccc" stroke-width="1.0" stroke-linecap="butt" d="M110.5 47.5L110.5 184.5" fill-rule="nonzero"/><path stroke="#cccccc" stroke-width="1.0" stroke-linecap="butt" d="M170.5 47.5L170.5 184.5" fill-rule="nonzero"/><path stroke="#cccccc" stroke-width="1.0" stroke-linecap="butt" d="M231.5 47.5L231.5 184.5" fill-rule="nonzero"/><path stroke="#cccccc" stroke-width="1.0" stroke-linecap="butt" d="M292.5 47.5L292.5 184.5" fill-rule="nonzero"/><path stroke="#cccccc" stroke-width="1.0" stroke-linecap="butt" d="M353.5 47.5L353.5 184.5" fill-rule="nonzero"/><path stroke="#e6e6e6" stroke-width="1.0" stroke-linecap="butt" d="M79.5 47.5L79.5 184.5" fill-rule="nonzero"/><path stroke="#e6e6e6" stroke-width="1.0" stroke-linecap="butt" d="M140.5 47.5L140.5 184.5" fill-rule="nonzero"/><path stroke="#e6e6e6" stroke-width="1.0" stroke-linecap="butt" d="M201.5 47.5L201.5 184.5" fill-rule="nonzero"/><path stroke="#e6e6e6" stroke-width="1.0" stroke-linecap="butt" d="M262.5 47.5L262.5 184.5" fill-rule="nonzero"/><path stroke="#e6e6e6" stroke-width="1.0" stroke-linecap="butt" d="M322.5 47.5L322.5 184.5" fill-rule="nonzero"/><path stroke="#e6e6e6" stroke-width="1.0" stroke-linecap="butt" d="M383.5 47.5L383.5 184.5" fill-rule="nonzero"/><path stroke="#333333" stroke-width="1.0" stroke-linecap="butt" d="M72.5 184.5L394.5 184.5" fill-rule="nonzero"/><path stroke="#cccccc" stroke-width="1.0" stroke-linecap="butt" d="M72.5 150.5L394.5 150.5" fill-rule="nonzero"/><path stroke="#cccccc" stroke-width="1.0" stroke-linecap="butt" d="M72.5 115.5L394.5 115.5" fill-rule="nonzero"/><path stroke="#cccccc" stroke-width="1.0" stroke-linecap="butt" d="M72.5 81.5L394.5 81.5" fill-rule="nonzero"/><path stroke="#cccccc" stroke-width="1.0" stroke-linecap="butt" d="M72.5 47.5L394.5 47.5" fill-rule="nonzero"/><path stroke="#e6e6e6" stroke-width="1.0" stroke-linecap="butt" d="M72.5 157.5L394.5 157.5" fill-rule="nonzero"/><path stroke="#e6e6e6" stroke-width="1.0" stroke-linecap="butt" d="M72.5 163.5L394.5 163.5" fill-rule="nonzero"/><path stroke="#e6e6e6" stroke-width="1.0" stroke-linecap="butt" d="M72.5 170.5L394.5 170.5" fill-rule="nonzero"/><path stroke="#e6e6e6" stroke-width="1.0" stroke-linecap="butt" d="M72.5 177.5L394.5 177.5" fill-rule="nonzero"/><path stroke="#e6e6e6" stroke-width="1.0" stroke-linecap="butt" d="M72.5 122.5L394.5 122.5" fill-rule="nonzero"/><path stroke="#e6e6e6" stroke-width="1.0" stroke-linecap="butt" d="M72.5 129.5L394.5 129.5" fill-rule="nonzero"/><path stroke="#e6e6e6" stroke-width="1.0" stroke-linecap="butt" d="M72.5 136.5L394.5 136.5" fill-rule="nonzero"/><path stroke="#e6e6e6" stroke-width="1.0" stroke-linecap="butt" d="M72.5 143.5L394.5 143.5" fill-rule="nonzero"/><path stroke="#e6e6e6" stroke-width="1.0" stroke-linecap="butt" d="M72.5 88.5L394.5 88.5" fill-rule="nonzero"/><path stroke="#e6e6e6" stroke-width="1.0" stroke-linecap="butt" d="M72.5 95.5L394.5 95.5" fill-rule="nonzero"/><path stroke="#e6e6e6" stroke-width="1.0" stroke-linecap="butt" d="M72.5 102.5L394.5 102.5" fill-rule="nonzero"/><path stroke="#e6e6e6" stroke-width="1.0" stroke-linecap="butt" d="M72.5 109.5L394.5 109.5" fill-rule="nonzero"/><path stroke="#e6e6e6" stroke-width="1.0" stroke-linecap="butt" d="M72.5 54.5L394.5 54.5" fill-rule="nonzero"/><path stroke="#e6e6e6" stroke-width="1.0" stroke-linecap="butt" d="M72.5 61.5L394.5 61.5" fill-rule="nonzero"/><path stroke="#e6e6e6" stroke-width="1.0" stroke-linecap="butt" d="M72.5 67.5L394.5 67.5" fill-rule="nonzero"/><path stroke="#e6e6e6" stroke-width="1.0" stroke-linecap="butt" d="M72.5 74.5L394.5 74.5" fill-rule="nonzero"/><clipPath id="id_0"><path d="M72.55 47.416668L394.45 47.416668L394.45 184.45L72.55 184.45L72.55 47.416668Z" clip-rule="nonzero"/></clipPath><path stroke="#4285f4" stroke-width="2.0" stroke-linecap="butt" clip-path="url(#id_0)" d="M72.55 175.76208L95.542854 167.10158L118.53571 158.48903L141.52856 149.945L164.52142 141.42154L187.51428 132.93916L210.50714 124.545876L233.5 116.09777L256.49286 108.35539L279.48572 101.8189L302.47858 96.570526L325.47144 91.87028L348.4643 87.18374L371.45715 83.250885L394.45 80.33893" fill-rule="nonzero"/><path fill="#424242" d="M204.625 231.99687L202.60938 231.99687L202.60938 235.45L201.48438 235.45L201.48438 226.91875L204.3125 226.91875Q205.75 226.91875 206.51562 227.575Q207.29688 228.23125 207.29688 229.48125Q207.29688 230.27812 206.85938 230.87187Q206.4375 231.46562 205.67188 231.7625L207.67188 235.37187L207.67188 235.45L206.46875 235.45L204.625 231.99687ZM202.60938 231.075L204.34375 231.075Q205.1875 231.075 205.67188 230.65312Q206.17188 230.21562 206.17188 229.48125Q206.17188 228.7 205.70312 228.27812Q205.23438 227.85625 204.34375 227.84062L202.60938 227.84062L202.60938 231.075ZM209.5 235.45L208.42188 235.45L208.42188 229.10625L209.5 229.10625L209.5 235.45ZM208.32812 227.43437Q208.32812 227.16875 208.48438 226.98125Q208.65625 226.79375 208.96875 226.79375Q209.28125 226.79375 209.4375 226.98125Q209.60938 227.16875 209.60938 227.43437Q209.60938 227.68437 209.4375 227.87187Q209.28125 228.04375 208.96875 228.04375Q208.65625 228.04375 208.48438 227.87187Q208.32812 227.68437 208.32812 227.43437ZM216.67188 232.35625Q216.67188 233.79375 216.01562 234.68437Q215.35938 235.575 214.21875 235.575Q213.0625 235.575 212.40625 234.84062L212.40625 237.8875L211.32812 237.8875L211.32812 229.10625L212.3125 229.10625L212.35938 229.80937Q213.03125 228.99687 214.20312 228.99687Q215.34375 228.99687 216.0 229.85625Q216.67188 230.71562 216.67188 232.24687L216.67188 232.35625ZM215.59375 232.23125Q215.59375 231.15312 215.125 230.54375Q214.67188 229.91875 213.875 229.91875Q212.89062 229.91875 212.40625 230.77812L212.40625 233.80937Q212.89062 234.68437 213.89062 234.68437Q214.67188 234.68437 215.125 234.075Q215.59375 233.45 215.59375 232.23125ZM223.67188 232.35625Q223.67188 233.79375 223.01562 234.68437Q222.35938 235.575 221.21875 235.575Q220.0625 235.575 219.40625 234.84062L219.40625 237.8875L218.32812 237.8875L218.32812 229.10625L219.3125 229.10625L219.35938 229.80937Q220.03125 228.99687 221.20312 228.99687Q222.34375 228.99687 223.0 229.85625Q223.67188 230.71562 223.67188 232.24687L223.67188 232.35625ZM222.59375 232.23125Q222.59375 231.15312 222.125 230.54375Q221.67188 229.91875 220.875 229.91875Q219.89062 229.91875 219.40625 230.77812L219.40625 233.80937Q219.89062 234.68437 220.89062 234.68437Q221.67188 234.68437 222.125 234.075Q222.59375 233.45 222.59375 232.23125ZM226.5 235.45L225.42188 235.45L225.42188 226.45L226.5 226.45L226.5 235.45ZM230.95312 235.575Q229.65625 235.575 228.84375 234.73125Q228.04688 233.87187 228.04688 232.45L228.04688 232.2625Q228.04688 231.30937 228.40625 230.575Q228.76562 229.825 229.40625 229.41875Q230.0625 228.99687 230.8125 228.99687Q232.04688 228.99687 232.73438 229.80937Q233.42188 230.62187 233.42188 232.1375L233.42188 232.59062L229.125 232.59062Q229.15625 233.52812 229.67188 234.10625Q230.20312 234.68437 231.01562 234.68437Q231.57812 234.68437 231.96875 234.45Q232.375 234.21562 232.6875 233.825L233.34375 234.34062Q232.54688 235.575 230.95312 235.575ZM230.8125 229.8875Q230.15625 229.8875 229.70312 230.37187Q229.26562 230.84062 229.17188 231.7L232.34375 231.7L232.34375 231.62187Q232.29688 230.79375 231.89062 230.34062Q231.5 229.8875 230.8125 229.8875ZM237.28125 231.98125Q237.28125 230.66875 237.625 229.45Q237.98438 228.23125 238.6875 227.23125Q239.39062 226.23125 240.15625 225.825L240.375 226.54375Q239.51562 227.2 238.96875 228.54375Q238.42188 229.8875 238.375 231.55937L238.35938 232.05937Q238.35938 234.325 239.1875 235.98125Q239.6875 236.98125 240.375 237.54375L240.15625 238.2Q239.375 237.77812 238.65625 236.74687Q237.28125 234.7625 237.28125 231.98125ZM244.3125 233.95L246.75 226.91875L247.98438 226.91875L244.8125 235.45L243.82812 235.45L240.67188 226.91875L241.89062 226.91875L244.3125 233.95ZM254.67188 232.35625Q254.67188 233.79375 254.01562 234.68437Q253.35938 235.575 252.21875 235.575Q251.0625 235.575 250.40625 234.84062L250.40625 237.8875L249.32812 237.8875L249.32812 229.10625L250.3125 229.10625L250.35938 229.80937Q251.03125 228.99687 252.20312 228.99687Q253.34375 228.99687 254.0 229.85625Q254.67188 230.71562 254.67188 232.24687L254.67188 232.35625ZM253.59375 232.23125Q253.59375 231.15312 253.125 230.54375Q252.67188 229.91875 251.875 229.91875Q250.89062 229.91875 250.40625 230.77812L250.40625 233.80937Q250.89062 234.68437 251.89062 234.68437Q252.67188 234.68437 253.125 234.075Q253.59375 233.45 253.59375 232.23125ZM261.67188 232.35625Q261.67188 233.79375 261.01562 234.68437Q260.35938 235.575 259.21875 235.575Q258.0625 235.575 257.40625 234.84062L257.40625 237.8875L256.32812 237.8875L256.32812 229.10625L257.3125 229.10625L257.35938 229.80937Q258.03125 228.99687 259.20312 228.99687Q260.34375 228.99687 261.0 229.85625Q261.67188 230.71562 261.67188 232.24687L261.67188 232.35625ZM260.59375 232.23125Q260.59375 231.15312 260.125 230.54375Q259.67188 229.91875 258.875 229.91875Q257.89062 229.91875 257.40625 230.77812L257.40625 233.80937Q257.89062 234.68437 258.89062 234.68437Q259.67188 234.68437 260.125 234.075Q260.59375 233.45 260.59375 232.23125ZM265.82812 232.04375Q265.82812 233.35625 265.48438 234.55937Q265.14062 235.74687 264.42188 236.7625Q263.71875 237.77812 262.95312 238.2L262.71875 237.54375Q263.625 236.85625 264.17188 235.40312Q264.71875 233.93437 264.73438 232.16875L264.73438 231.98125Q264.73438 230.74687 264.46875 229.68437Q264.21875 228.62187 263.75 227.79375Q263.29688 226.95 262.71875 226.48125L262.95312 225.825Q263.71875 226.24687 264.42188 227.24687Q265.125 228.24687 265.46875 229.46562Q265.82812 230.66875 265.82812 232.04375Z" fill-rule="nonzero"/><path fill="#424242" d="M20.565622 162.13646Q21.815622 162.13646 22.753122 162.55833Q23.674997 162.98021 24.174997 163.76146Q24.674997 164.52708 24.674997 165.55833Q24.674997 166.55833 24.174997 167.33958Q23.674997 168.12083 22.768747 168.55833Q21.846872 168.98021 20.628122 168.99583L20.018747 168.99583Q18.784372 168.99583 17.846872 168.57396Q16.909372 168.13646 16.409372 167.35521Q15.893747 166.57396 15.893747 165.55833Q15.893747 164.54271 16.393747 163.76146Q16.893747 162.98021 17.831247 162.55833Q18.768747 162.13646 20.018747 162.13646L20.565622 162.13646ZM20.003122 163.24583Q18.487497 163.24583 17.674997 163.85521Q16.862497 164.46458 16.862497 165.55833Q16.862497 166.63646 17.674997 167.24583Q18.487497 167.85521 19.924997 167.87083L20.565622 167.87083Q22.034372 167.87083 22.878122 167.26146Q23.706247 166.63646 23.706247 165.55833Q23.706247 164.46458 22.924997 163.87083Q22.128122 163.26146 20.643747 163.24583L20.003122 163.24583ZM23.924997 156.94896Q24.674997 157.57396 24.674997 158.80833Q24.674997 159.82396 24.081247 160.35521Q23.487497 160.88646 22.331247 160.88646L18.206247 160.88646L18.206247 159.80833L22.299997 159.80833Q23.753122 159.80833 23.753122 158.63646Q23.753122 157.38646 22.815622 156.98021L18.206247 156.98021L18.206247 155.88646L24.549997 155.88646L24.549997 156.91771L23.924997 156.94896ZM16.674997 152.38646L18.206247 152.38646L18.206247 151.21458L19.049997 151.21458L19.049997 152.38646L22.971872 152.38646Q23.362497 152.38646 23.549997 152.23021Q23.737497 152.07396 23.737497 151.69896Q23.737497 151.51146 23.674997 151.18333L24.549997 151.18333Q24.674997 151.60521 24.674997 152.01146Q24.674997 152.73021 24.237497 153.10521Q23.784372 153.48021 22.971872 153.48021L19.049997 153.48021L19.049997 154.63646L18.206247 154.63646L18.206247 153.48021L16.674997 153.48021L16.674997 152.38646ZM21.456247 144.51146Q22.893747 144.51146 23.784372 145.16771Q24.674997 145.82396 24.674997 146.96458Q24.674997 148.12083 23.940622 148.77708L26.987497 148.77708L26.987497 149.85521L18.206247 149.85521L18.206247 148.87083L18.909372 148.82396Q18.096872 148.15208 18.096872 146.98021Q18.096872 145.83958 18.956247 145.18333Q19.815622 144.51146 21.346872 144.51146L21.456247 144.51146ZM21.331247 145.58958Q20.253122 145.58958 19.643747 146.05833Q19.018747 146.51146 19.018747 147.30833Q19.018747 148.29271 19.878122 148.77708L22.909372 148.77708Q23.784372 148.29271 23.784372 147.29271Q23.784372 146.51146 23.174997 146.05833Q22.549997 145.58958 21.331247 145.58958ZM23.924997 138.94896Q24.674997 139.57396 24.674997 140.80833Q24.674997 141.82396 24.081247 142.35521Q23.487497 142.88646 22.331247 142.88646L18.206247 142.88646L18.206247 141.80833L22.299997 141.80833Q23.753122 141.80833 23.753122 140.63646Q23.753122 139.38646 22.815622 138.98021L18.206247 138.98021L18.206247 137.88646L24.549997 137.88646L24.549997 138.91771L23.924997 138.94896ZM16.674997 134.38646L18.206247 134.38646L18.206247 133.21458L19.049997 133.21458L19.049997 134.38646L22.971872 134.38646Q23.362497 134.38646 23.549997 134.23021Q23.737497 134.07396 23.737497 133.69896Q23.737497 133.51146 23.674997 133.18333L24.549997 133.18333Q24.674997 133.60521 24.674997 134.01146Q24.674997 134.73021 24.237497 135.10521Q23.784372 135.48021 22.971872 135.48021L19.049997 135.48021L19.049997 136.63646L18.206247 136.63646L18.206247 135.48021L16.674997 135.48021L16.674997 134.38646ZM21.206247 127.57396L24.549997 127.57396L24.549997 128.69896L16.018747 128.69896L16.018747 125.54271Q16.018747 124.152084 16.737497 123.35521Q17.440622 122.558334 18.628122 122.558334Q19.862497 122.558334 20.534372 123.339584Q21.206247 124.10521 21.206247 125.558334L21.206247 127.57396ZM20.284372 127.57396L20.284372 125.54271Q20.284372 124.63646 19.862497 124.16771Q19.440622 123.683334 18.643747 123.683334Q17.878122 123.683334 17.424997 124.16771Q16.956247 124.63646 16.940622 125.48021L16.940622 127.57396L20.284372 127.57396ZM21.315622 121.152084Q20.393747 121.152084 19.643747 120.79271Q18.893747 120.41771 18.503122 119.76146Q18.096872 119.10521 18.096872 118.277084Q18.096872 116.98021 18.987497 116.183334Q19.878122 115.370834 21.378122 115.370834L21.456247 115.370834Q22.378122 115.370834 23.112497 115.73021Q23.846872 116.089584 24.268747 116.745834Q24.674997 117.402084 24.674997 118.26146Q24.674997 119.54271 23.784372 120.35521Q22.878122 121.152084 21.393747 121.152084L21.315622 121.152084ZM21.456247 120.058334Q22.503122 120.058334 23.143747 119.57396Q23.784372 119.07396 23.784372 118.26146Q23.784372 117.433334 23.143747 116.94896Q22.487497 116.464584 21.315622 116.464584Q20.284372 116.464584 19.643747 116.964584Q18.987497 117.44896 18.987497 118.277084Q18.987497 119.07396 19.628122 119.57396Q20.253122 120.058334 21.456247 120.058334ZM23.049997 108.245834L18.206247 107.027084L18.206247 105.94896L24.549997 107.79271L24.549997 108.66771L19.737497 110.214584L24.549997 111.714584L24.549997 112.589584L18.206247 114.433334L18.206247 113.35521L22.956247 112.10521L18.206247 110.620834L18.206247 109.76146L23.049997 108.245834ZM24.674997 102.23021Q24.674997 103.527084 23.831247 104.339584Q22.971872 105.13646 21.549997 105.13646L21.362497 105.13646Q20.409372 105.13646 19.674997 104.777084Q18.924997 104.41771 18.518747 103.777084Q18.096872 103.120834 18.096872 102.370834Q18.096872 101.13646 18.909372 100.44896Q19.721872 99.76146 21.237497 99.76146L21.690622 99.76146L21.690622 104.058334Q22.628122 104.027084 23.206247 103.51146Q23.784372 102.98021 23.784372 102.16771Q23.784372 101.60521 23.549997 101.214584Q23.315622 100.808334 22.924997 100.495834L23.440622 99.839584Q24.674997 100.63646 24.674997 102.23021ZM18.987497 102.370834Q18.987497 103.027084 19.471872 103.48021Q19.940622 103.91771 20.799997 104.01146L20.799997 100.839584L20.721872 100.839584Q19.893747 100.88646 19.440622 101.29271Q18.987497 101.683334 18.987497 102.370834ZM19.174997 95.79271Q19.143747 96.04271 19.143747 96.32396Q19.143747 97.402084 20.049997 97.777084L24.549997 97.777084L24.549997 98.85521L18.206247 98.85521L18.206247 97.808334L18.940622 97.79271Q18.096872 97.26146 18.096872 96.277084Q18.096872 95.964584 18.174997 95.79271L19.174997 95.79271ZM21.081247 91.902084Q19.768747 91.902084 18.549997 91.558334Q17.331247 91.19896 16.331247 90.495834Q15.331247 89.79271 14.924997 89.027084L15.643747 88.808334Q16.299997 89.66771 17.643747 90.214584Q18.987497 90.76146 20.659372 90.808334L21.159372 90.82396Q23.424997 90.82396 25.081247 89.995834Q26.081247 89.495834 26.643747 88.808334L27.299997 89.027084Q26.878122 89.808334 25.846872 90.527084Q23.862497 91.902084 21.081247 91.902084ZM23.049997 82.245834L18.206247 81.027084L18.206247 79.94896L24.549997 81.79271L24.549997 82.66771L19.737497 84.214584L24.549997 85.714584L24.549997 86.589584L18.206247 88.433334L18.206247 87.35521L22.956247 86.10521L18.206247 84.620834L18.206247 83.76146L23.049997 82.245834ZM21.143747 76.35521Q22.456247 76.35521 23.659372 76.69896Q24.846872 77.04271 25.862497 77.76146Q26.878122 78.464584 27.299997 79.23021L26.643747 79.464584Q25.956247 78.558334 24.503122 78.01146Q23.034372 77.464584 21.268747 77.44896L21.081247 77.44896Q19.846872 77.44896 18.784372 77.714584Q17.721872 77.964584 16.893747 78.433334Q16.049997 78.88646 15.581247 79.464584L14.924997 79.23021Q15.346872 78.464584 16.346872 77.76146Q17.346872 77.058334 18.565622 76.714584Q19.768747 76.35521 21.143747 76.35521Z" fill-rule="nonzero"/><path fill="#757575" d="M65.6125 185.30937Q65.6125 187.21562 64.95625 188.15312Q64.31563 189.075 62.925 189.075Q61.565624 189.075 60.909374 188.16875Q60.253124 187.2625 60.221874 185.45L60.221874 184.0125Q60.221874 182.12187 60.8625 181.21562Q61.51875 180.29375 62.909374 180.29375Q64.28438 180.29375 64.94063 181.18437Q65.59688 182.05937 65.6125 183.90312L65.6125 185.30937ZM64.51875 183.825Q64.51875 182.45 64.12813 181.825Q63.753124 181.18437 62.909374 181.18437Q62.08125 181.18437 61.690624 181.825Q61.315624 182.45 61.315624 183.74687L61.315624 185.48125Q61.315624 186.85625 61.70625 187.52812Q62.1125 188.18437 62.925 188.18437Q63.721874 188.18437 64.1125 187.55937Q64.50313 186.93437 64.51875 185.60625L64.51875 183.825Z" fill-rule="nonzero"/><path fill="#757575" d="M60.753124 150.41042L61.190624 146.16042L65.56563 146.16042L65.56563 147.16042L62.1125 147.16042L61.846874 149.48854Q62.4875 149.11354 63.284374 149.11354Q64.44063 149.11354 65.12813 149.89479Q65.81563 150.66042 65.81563 151.97292Q65.81563 153.28542 65.09688 154.05104Q64.39375 154.81667 63.1125 154.81667Q61.9875 154.81667 61.26875 154.19167Q60.55 153.55104 60.45625 152.44167L61.471874 152.44167Q61.58125 153.17604 62.003124 153.55104Q62.425 153.92604 63.1125 153.92604Q63.8625 153.92604 64.3 153.41042Q64.7375 152.89479 64.7375 151.98854Q64.7375 151.12917 64.26875 150.61354Q63.8 150.09792 63.01875 150.09792Q62.315624 150.09792 61.909374 150.39479L61.628124 150.62917L60.753124 150.41042Z" fill-rule="nonzero"/><path fill="#757575" d="M56.815624 120.433334L55.7375 120.433334L55.7375 113.214584L53.55 114.01146L53.55 113.027084L56.659374 111.85521L56.815624 111.85521L56.815624 120.433334ZM65.6125 116.79271Q65.6125 118.69896 64.95625 119.63646Q64.31563 120.558334 62.925 120.558334Q61.565624 120.558334 60.909374 119.652084Q60.253124 118.745834 60.221874 116.933334L60.221874 115.495834Q60.221874 113.60521 60.8625 112.69896Q61.51875 111.777084 62.909374 111.777084Q64.28438 111.777084 64.94063 112.66771Q65.59688 113.54271 65.6125 115.38646L65.6125 116.79271ZM64.51875 115.308334Q64.51875 113.933334 64.12813 113.308334Q63.753124 112.66771 62.909374 112.66771Q62.08125 112.66771 61.690624 113.308334Q61.315624 113.933334 61.315624 115.23021L61.315624 116.964584Q61.315624 118.339584 61.70625 119.01146Q62.1125 119.66771 62.925 119.66771Q63.721874 119.66771 64.1125 119.04271Q64.50313 118.41771 64.51875 117.089584L64.51875 115.308334Z" fill-rule="nonzero"/><path fill="#757575" d="M56.815624 86.175L55.7375 86.175L55.7375 78.95625L53.55 79.75313L53.55 78.76875L56.659374 77.59688L56.815624 77.59688L56.815624 86.175ZM60.753124 81.89375L61.190624 77.64375L65.56563 77.64375L65.56563 78.64375L62.1125 78.64375L61.846874 80.97188Q62.4875 80.59688 63.284374 80.59688Q64.44063 80.59688 65.12813 81.37813Q65.81563 82.14375 65.81563 83.45625Q65.81563 84.76875 65.09688 85.53438Q64.39375 86.3 63.1125 86.3Q61.9875 86.3 61.26875 85.675Q60.55 85.03438 60.45625 83.925L61.471874 83.925Q61.58125 84.65938 62.003124 85.03438Q62.425 85.40938 63.1125 85.40938Q63.8625 85.40938 64.3 84.89375Q64.7375 84.37813 64.7375 83.47188Q64.7375 82.6125 64.26875 82.09688Q63.8 81.58125 63.01875 81.58125Q62.315624 81.58125 61.909374 81.87813L61.628124 82.1125L60.753124 81.89375Z" fill-rule="nonzero"/><path fill="#757575" d="M58.846874 51.916668L53.253124 51.916668L53.253124 51.135418L56.20625 47.854168Q56.8625 47.104168 57.1125 46.651043Q57.3625 46.182293 57.3625 45.682293Q57.3625 45.010418 56.95625 44.588543Q56.565624 44.151043 55.878124 44.151043Q55.08125 44.151043 54.628124 44.619793Q54.175 45.072918 54.175 45.901043L53.096874 45.901043Q53.096874 44.713543 53.846874 43.994793Q54.6125 43.260418 55.878124 43.260418Q57.08125 43.260418 57.76875 43.885418Q58.45625 44.510418 58.45625 45.557293Q58.45625 46.807293 56.846874 48.557293L54.565624 51.026043L58.846874 51.026043L58.846874 51.916668ZM65.6125 48.276043Q65.6125 50.182293 64.95625 51.119793Q64.31563 52.041668 62.925 52.041668Q61.565624 52.041668 60.909374 51.135418Q60.253124 50.229168 60.221874 48.416668L60.221874 46.979168Q60.221874 45.088543 60.8625 44.182293Q61.51875 43.260418 62.909374 43.260418Q64.28438 43.260418 64.94063 44.151043Q65.59688 45.026043 65.6125 46.869793L65.6125 48.276043ZM64.51875 46.791668Q64.51875 45.416668 64.12813 44.791668Q63.753124 44.151043 62.909374 44.151043Q62.08125 44.151043 61.690624 44.791668Q61.315624 45.416668 61.315624 46.713543L61.315624 48.447918Q61.315624 49.822918 61.70625 50.494793Q62.1125 51.151043 62.925 51.151043Q63.721874 51.151043 64.1125 50.526043Q64.50313 49.901043 64.51875 48.572918L64.51875 46.791668Z" fill-rule="nonzero"/><path fill="#757575" d="M107.820786 198.80937Q107.820786 200.71562 107.164536 201.65312Q106.52391 202.575 105.133286 202.575Q103.77391 202.575 103.11766 201.66875Q102.46141 200.7625 102.43016 198.95L102.43016 197.5125Q102.43016 195.62187 103.070786 194.71562Q103.727036 193.79375 105.11766 193.79375Q106.49266 193.79375 107.14891 194.68437Q107.80516 195.55937 107.820786 197.40312L107.820786 198.80937ZM106.727036 197.325Q106.727036 195.95 106.33641 195.325Q105.96141 194.68437 105.11766 194.68437Q104.289536 194.68437 103.89891 195.325Q103.52391 195.95 103.52391 197.24687L103.52391 198.98125Q103.52391 200.35625 103.914536 201.02812Q104.320786 201.68437 105.133286 201.68437Q105.93016 201.68437 106.320786 201.05937Q106.71141 200.43437 106.727036 199.10625L106.727036 197.325ZM109.602036 201.8875Q109.602036 201.60625 109.758286 201.41875Q109.93016 201.23125 110.258286 201.23125Q110.602036 201.23125 110.77391 201.41875Q110.945786 201.60625 110.945786 201.8875Q110.945786 202.15312 110.77391 202.34062Q110.602036 202.5125 110.258286 202.5125Q109.93016 202.5125 109.758286 202.34062Q109.602036 202.15312 109.602036 201.8875ZM118.05516 202.45L112.46141 202.45L112.46141 201.66875L115.414536 198.3875Q116.070786 197.6375 116.320786 197.18437Q116.570786 196.71562 116.570786 196.21562Q116.570786 195.54375 116.164536 195.12187Q115.77391 194.68437 115.08641 194.68437Q114.289536 194.68437 113.83641 195.15312Q113.383286 195.60625 113.383286 196.43437L112.30516 196.43437Q112.30516 195.24687 113.05516 194.52812Q113.820786 193.79375 115.08641 193.79375Q116.289536 193.79375 116.977036 194.41875Q117.664536 195.04375 117.664536 196.09062Q117.664536 197.34062 116.05516 199.09062L113.77391 201.55937L118.05516 201.55937L118.05516 202.45Z" fill-rule="nonzero"/><path fill="#757575" d="M168.52193 198.80937Q168.52193 200.71562 167.86568 201.65312Q167.22505 202.575 165.83443 202.575Q164.47505 202.575 163.8188 201.66875Q163.16255 200.7625 163.1313 198.95L163.1313 197.5125Q163.1313 195.62187 163.77193 194.71562Q164.42818 193.79375 165.8188 193.79375Q167.1938 193.79375 167.85005 194.68437Q168.5063 195.55937 168.52193 197.40312L168.52193 198.80937ZM167.42818 197.325Q167.42818 195.95 167.03755 195.325Q166.66255 194.68437 165.8188 194.68437Q164.99068 194.68437 164.60005 195.325Q164.22505 195.95 164.22505 197.24687L164.22505 198.98125Q164.22505 200.35625 164.61568 201.02812Q165.02193 201.68437 165.83443 201.68437Q166.6313 201.68437 167.02193 201.05937Q167.41255 200.43437 167.42818 199.10625L167.42818 197.325ZM170.30318 201.8875Q170.30318 201.60625 170.45943 201.41875Q170.6313 201.23125 170.95943 201.23125Q171.30318 201.23125 171.47505 201.41875Q171.64693 201.60625 171.64693 201.8875Q171.64693 202.15312 171.47505 202.34062Q171.30318 202.5125 170.95943 202.5125Q170.6313 202.5125 170.45943 202.34062Q170.30318 202.15312 170.30318 201.8875ZM177.74068 199.59062L178.92818 199.59062L178.92818 200.46562L177.74068 200.46562L177.74068 202.45L176.66255 202.45L176.66255 200.46562L172.77193 200.46562L172.77193 199.825L176.58443 193.91875L177.74068 193.91875L177.74068 199.59062ZM174.0063 199.59062L176.66255 199.59062L176.66255 195.40312L176.52193 195.6375L174.0063 199.59062Z" fill-rule="nonzero"/><path fill="#757575" d="M229.22307 198.80937Q229.22307 200.71562 228.56682 201.65312Q227.9262 202.575 226.53557 202.575Q225.1762 202.575 224.51994 201.66875Q223.8637 200.7625 223.83244 198.95L223.83244 197.5125Q223.83244 195.62187 224.47307 194.71562Q225.12932 193.79375 226.51994 193.79375Q227.89494 193.79375 228.5512 194.68437Q229.20744 195.55937 229.22307 197.40312L229.22307 198.80937ZM228.12932 197.325Q228.12932 195.95 227.7387 195.325Q227.3637 194.68437 226.51994 194.68437Q225.69182 194.68437 225.3012 195.325Q224.9262 195.95 224.9262 197.24687L224.9262 198.98125Q224.9262 200.35625 225.31682 201.02812Q225.72307 201.68437 226.53557 201.68437Q227.33244 201.68437 227.72307 201.05937Q228.1137 200.43437 228.12932 199.10625L228.12932 197.325ZM231.00432 201.8875Q231.00432 201.60625 231.16057 201.41875Q231.33244 201.23125 231.66057 201.23125Q232.00432 201.23125 232.1762 201.41875Q232.34807 201.60625 232.34807 201.8875Q232.34807 202.15312 232.1762 202.34062Q232.00432 202.5125 231.66057 202.5125Q231.33244 202.5125 231.16057 202.34062Q231.00432 202.15312 231.00432 201.8875ZM238.12932 193.91875L238.12932 194.825L237.9262 194.825Q236.66057 194.85625 235.91057 195.59062Q235.16057 196.30937 235.03557 197.62187Q235.72307 196.85625 236.87932 196.85625Q237.9887 196.85625 238.66057 197.6375Q239.33244 198.41875 239.33244 199.66875Q239.33244 200.98125 238.6137 201.77812Q237.89494 202.575 236.6762 202.575Q235.45744 202.575 234.69182 201.6375Q233.94182 200.68437 233.94182 199.2L233.94182 198.79375Q233.94182 196.43437 234.94182 195.18437Q235.94182 193.93437 237.9262 193.91875L238.12932 193.91875ZM236.70744 197.7625Q236.14494 197.7625 235.6762 198.09062Q235.20744 198.41875 235.01994 198.93437L235.01994 199.325Q235.01994 200.3875 235.4887 201.02812Q235.97307 201.66875 236.6762 201.66875Q237.41057 201.66875 237.83244 201.1375Q238.25432 200.59062 238.25432 199.71562Q238.25432 198.84062 237.83244 198.30937Q237.41057 197.7625 236.70744 197.7625Z" fill-rule="nonzero"/><path fill="#757575" d="M289.92422 198.80937Q289.92422 200.71562 289.26797 201.65312Q288.62735 202.575 287.23672 202.575Q285.87735 202.575 285.2211 201.66875Q284.56485 200.7625 284.5336 198.95L284.5336 197.5125Q284.5336 195.62187 285.17422 194.71562Q285.83047 193.79375 287.2211 193.79375Q288.5961 193.79375 289.25235 194.68437Q289.9086 195.55937 289.92422 197.40312L289.92422 198.80937ZM288.83047 197.325Q288.83047 195.95 288.43985 195.325Q288.06485 194.68437 287.2211 194.68437Q286.39297 194.68437 286.00235 195.325Q285.62735 195.95 285.62735 197.24687L285.62735 198.98125Q285.62735 200.35625 286.01797 201.02812Q286.42422 201.68437 287.23672 201.68437Q288.0336 201.68437 288.42422 201.05937Q288.81485 200.43437 288.83047 199.10625L288.83047 197.325ZM291.70547 201.8875Q291.70547 201.60625 291.86172 201.41875Q292.0336 201.23125 292.36172 201.23125Q292.70547 201.23125 292.87735 201.41875Q293.04922 201.60625 293.04922 201.8875Q293.04922 202.15312 292.87735 202.34062Q292.70547 202.5125 292.36172 202.5125Q292.0336 202.5125 291.86172 202.34062Q291.70547 202.15312 291.70547 201.8875ZM299.75235 196.1375Q299.75235 196.77812 299.4086 197.27812Q299.06485 197.77812 298.50235 198.05937Q299.1586 198.34062 299.54922 198.90312Q299.93985 199.45 299.93985 200.15312Q299.93985 201.24687 299.18985 201.91875Q298.45547 202.575 297.23672 202.575Q296.00235 202.575 295.25235 201.91875Q294.51797 201.24687 294.51797 200.15312Q294.51797 199.45 294.89297 198.90312Q295.26797 198.34062 295.93985 198.05937Q295.37735 197.77812 295.04922 197.27812Q294.7211 196.77812 294.7211 196.1375Q294.7211 195.05937 295.4086 194.43437Q296.0961 193.79375 297.23672 193.79375Q298.36172 193.79375 299.04922 194.43437Q299.75235 195.05937 299.75235 196.1375ZM298.86172 200.12187Q298.86172 199.40312 298.4086 198.96562Q297.95547 198.5125 297.2211 198.5125Q296.48672 198.5125 296.0336 198.96562Q295.5961 199.40312 295.5961 200.1375Q295.5961 200.85625 296.0336 201.27812Q296.4711 201.68437 297.23672 201.68437Q297.98672 201.68437 298.42422 201.2625Q298.86172 200.84062 298.86172 200.12187ZM297.23672 194.68437Q296.5961 194.68437 296.18985 195.09062Q295.79922 195.48125 295.79922 196.16875Q295.79922 196.80937 296.18985 197.21562Q296.58047 197.62187 297.2211 197.62187Q297.87735 197.62187 298.26797 197.21562Q298.6586 196.80937 298.6586 196.16875Q298.6586 195.5125 298.25235 195.10625Q297.8461 194.68437 297.23672 194.68437Z" fill-rule="nonzero"/><path fill="#757575" d="M348.8285 202.45L347.75037 202.45L347.75037 195.23125L345.56287 196.02812L345.56287 195.04375L348.67224 193.87187L348.8285 193.87187L348.8285 202.45ZM352.40662 201.8875Q352.40662 201.60625 352.56287 201.41875Q352.73474 201.23125 353.06287 201.23125Q353.40662 201.23125 353.5785 201.41875Q353.75037 201.60625 353.75037 201.8875Q353.75037 202.15312 353.5785 202.34062Q353.40662 202.5125 353.06287 202.5125Q352.73474 202.5125 352.56287 202.34062Q352.40662 202.15312 352.40662 201.8875ZM360.62537 198.80937Q360.62537 200.71562 359.96912 201.65312Q359.3285 202.575 357.93787 202.575Q356.5785 202.575 355.92224 201.66875Q355.266 200.7625 355.23474 198.95L355.23474 197.5125Q355.23474 195.62187 355.87537 194.71562Q356.53162 193.79375 357.92224 193.79375Q359.29724 193.79375 359.9535 194.68437Q360.60974 195.55937 360.62537 197.40312L360.62537 198.80937ZM359.53162 197.325Q359.53162 195.95 359.141 195.325Q358.766 194.68437 357.92224 194.68437Q357.09412 194.68437 356.7035 195.325Q356.3285 195.95 356.3285 197.24687L356.3285 198.98125Q356.3285 200.35625 356.71912 201.02812Q357.12537 201.68437 357.93787 201.68437Q358.73474 201.68437 359.12537 201.05937Q359.516 200.43437 359.53162 199.10625L359.53162 197.325Z" fill-rule="nonzero"/><path fill="#757575" d="M15.378125 23.096874L15.378125 27.55L13.878125 27.55L13.878125 16.175L18.065624 16.175Q19.940624 16.175 20.9875 17.128124Q22.05 18.08125 22.05 19.64375Q22.05 21.3 21.01875 22.20625Q19.9875 23.096874 18.05 23.096874L15.378125 23.096874ZM15.378125 21.8625L18.065624 21.8625Q19.26875 21.8625 19.909374 21.3Q20.55 20.7375 20.55 19.659374Q20.55 18.64375 19.909374 18.034374Q19.26875 17.425 18.159374 17.409374L15.378125 17.409374L15.378125 21.8625ZM23.26875 23.2375Q23.26875 22.003124 23.753124 21.01875Q24.2375 20.01875 25.1125 19.4875Q25.9875 18.940624 27.096874 18.940624Q28.83125 18.940624 29.89375 20.14375Q30.95625 21.33125 30.95625 23.315624L30.95625 23.409374Q30.95625 24.64375 30.4875 25.628124Q30.01875 26.6125 29.128124 27.159374Q28.253124 27.70625 27.1125 27.70625Q25.39375 27.70625 24.33125 26.51875Q23.26875 25.315624 23.26875 23.346874L23.26875 23.2375ZM24.721874 23.409374Q24.721874 24.815624 25.3625 25.675Q26.01875 26.51875 27.1125 26.51875Q28.221874 26.51875 28.8625 25.659374Q29.51875 24.8 29.51875 23.2375Q29.51875 21.846874 28.846874 20.9875Q28.190624 20.128124 27.096874 20.128124Q26.034374 20.128124 25.378124 20.9875Q24.721874 21.83125 24.721874 23.409374ZM40.128124 25.55L41.753124 19.096874L43.20625 19.096874L40.7375 27.55L39.565624 27.55L37.51875 21.14375L35.51875 27.55L34.346874 27.55L31.89375 19.096874L33.33125 19.096874L34.9875 25.425L36.95625 19.096874L38.128124 19.096874L40.128124 25.55ZM48.159374 27.70625Q46.440624 27.70625 45.3625 26.58125Q44.284374 25.440624 44.284374 23.55L44.284374 23.284374Q44.284374 22.034374 44.753124 21.05Q45.2375 20.05 46.096874 19.503124Q46.971874 18.940624 47.971874 18.940624Q49.628124 18.940624 50.534374 20.034374Q51.45625 21.1125 51.45625 23.128124L51.45625 23.7375L45.721874 23.7375Q45.753124 24.9875 46.45625 25.753124Q47.159374 26.51875 48.2375 26.51875Q49.003124 26.51875 49.534374 26.20625Q50.065624 25.89375 50.45625 25.378124L51.346874 26.065624Q50.284374 27.70625 48.159374 27.70625ZM47.971874 20.128124Q47.096874 20.128124 46.503124 20.76875Q45.909374 21.39375 45.76875 22.55L50.003124 22.55L50.003124 22.440624Q49.940624 21.33125 49.409374 20.7375Q48.878124 20.128124 47.971874 20.128124ZM56.7375 20.39375Q56.409374 20.33125 56.01875 20.33125Q54.596874 20.33125 54.096874 21.55L54.096874 27.55L52.64375 27.55L52.64375 19.096874L54.05 19.096874L54.08125 20.065624Q54.784374 18.940624 56.096874 18.940624Q56.51875 18.940624 56.7375 19.05L56.7375 20.39375ZM61.26875 23.2375Q61.26875 22.003124 61.753124 21.01875Q62.2375 20.01875 63.1125 19.4875Q63.9875 18.940624 65.09688 18.940624Q66.83125 18.940624 67.89375 20.14375Q68.95625 21.33125 68.95625 23.315624L68.95625 23.409374Q68.95625 24.64375 68.4875 25.628124Q68.01875 26.6125 67.12813 27.159374Q66.25313 27.70625 65.1125 27.70625Q63.39375 27.70625 62.33125 26.51875Q61.26875 25.315624 61.26875 23.346874L61.26875 23.2375ZM62.721874 23.409374Q62.721874 24.815624 63.3625 25.675Q64.01875 26.51875 65.1125 26.51875Q66.22188 26.51875 66.8625 25.659374Q67.51875 24.8 67.51875 23.2375Q67.51875 21.846874 66.84688 20.9875Q66.19063 20.128124 65.09688 20.128124Q64.03438 20.128124 63.378124 20.9875Q62.721874 21.83125 62.721874 23.409374ZM75.8625 26.70625Q75.01875 27.70625 73.39375 27.70625Q72.03438 27.70625 71.33125 26.925Q70.62813 26.128124 70.6125 24.596874L70.6125 19.096874L72.06563 19.096874L72.06563 24.55Q72.06563 26.471874 73.62813 26.471874Q75.28438 26.471874 75.83125 25.2375L75.83125 19.096874L77.26875 19.096874L77.26875 27.55L75.89375 27.55L75.8625 26.70625ZM81.6125 17.05L81.6125 19.096874L83.19063 19.096874L83.19063 20.20625L81.6125 20.20625L81.6125 25.45625Q81.6125 25.95625 81.81563 26.221874Q82.03438 26.471874 82.53438 26.471874Q82.78438 26.471874 83.22188 26.378124L83.22188 27.55Q82.65938 27.70625 82.1125 27.70625Q81.14375 27.70625 80.64375 27.128124Q80.15938 26.534374 80.15938 25.45625L80.15938 20.20625L78.62813 20.20625L78.62813 19.096874L80.15938 19.096874L80.15938 17.05L81.6125 17.05ZM91.78438 23.409374Q91.78438 25.346874 90.89375 26.534374Q90.01875 27.70625 88.51875 27.70625Q86.97188 27.70625 86.09688 26.721874L86.09688 30.8L84.64375 30.8L84.64375 19.096874L85.97188 19.096874L86.03438 20.034374Q86.925 18.940624 88.4875 18.940624Q90.01875 18.940624 90.89375 20.096874Q91.78438 21.2375 91.78438 23.284374L91.78438 23.409374ZM90.34688 23.253124Q90.34688 21.815624 89.7375 20.9875Q89.12813 20.159374 88.06563 20.159374Q86.75313 20.159374 86.09688 21.33125L86.09688 25.3625Q86.7375 26.51875 88.08125 26.51875Q89.1125 26.51875 89.72188 25.70625Q90.34688 24.878124 90.34688 23.253124ZM98.8625 26.70625Q98.01875 27.70625 96.39375 27.70625Q95.03438 27.70625 94.33125 26.925Q93.62813 26.128124 93.6125 24.596874L93.6125 19.096874L95.06563 19.096874L95.06563 24.55Q95.06563 26.471874 96.62813 26.471874Q98.28438 26.471874 98.83125 25.2375L98.83125 19.096874L100.26875 19.096874L100.26875 27.55L98.89375 27.55L98.8625 26.70625ZM104.6125 17.05L104.6125 19.096874L106.19063 19.096874L106.19063 20.20625L104.6125 20.20625L104.6125 25.45625Q104.6125 25.95625 104.81563 26.221874Q105.03438 26.471874 105.53438 26.471874Q105.78438 26.471874 106.22188 26.378124L106.22188 27.55Q105.65938 27.70625 105.1125 27.70625Q104.14375 27.70625 103.64375 27.128124Q103.15938 26.534374 103.15938 25.45625L103.15938 20.20625L101.62813 20.20625L101.62813 19.096874L103.15938 19.096874L103.15938 17.05L104.6125 17.05ZM114.44063 25.58125L116.53438 19.096874L118.00313 19.096874L114.97188 27.55L113.87813 27.55L110.81563 19.096874L112.28438 19.096874L114.44063 25.58125ZM124.56563 25.3Q124.56563 24.721874 124.12813 24.39375Q123.69063 24.065624 122.58125 23.83125Q121.4875 23.596874 120.84688 23.26875Q120.20625 22.940624 119.89375 22.4875Q119.58125 22.034374 119.58125 21.409374Q119.58125 20.378124 120.45625 19.659374Q121.34688 18.940624 122.70625 18.940624Q124.14375 18.940624 125.03438 19.690624Q125.94063 20.425 125.94063 21.58125L124.4875 21.58125Q124.4875 20.9875 123.97188 20.565624Q123.47188 20.128124 122.70625 20.128124Q121.925 20.128124 121.47188 20.471874Q121.03438 20.815624 121.03438 21.3625Q121.03438 21.89375 121.44063 22.159374Q121.8625 22.425 122.94063 22.675Q124.01875 22.909374 124.69063 23.253124Q125.3625 23.58125 125.69063 24.05Q126.01875 24.51875 126.01875 25.20625Q126.01875 26.33125 125.1125 27.01875Q124.20625 27.70625 122.75313 27.70625Q121.7375 27.70625 120.95625 27.346874Q120.175 26.9875 119.7375 26.346874Q119.3 25.690624 119.3 24.940624L120.7375 24.940624Q120.78438 25.675 121.31563 26.096874Q121.8625 26.51875 122.75313 26.51875Q123.58125 26.51875 124.06563 26.190624Q124.56563 25.8625 124.56563 25.3ZM127.675 26.784374Q127.675 26.409374 127.89375 26.159374Q128.12813 25.909374 128.56563 25.909374Q129.01875 25.909374 129.2375 26.159374Q129.47188 26.409374 129.47188 26.784374Q129.47188 27.14375 129.2375 27.39375Q129.01875 27.64375 128.56563 27.64375Q128.12813 27.64375 127.89375 27.39375Q127.675 27.14375 127.675 26.784374ZM140.05 22.940624L137.37813 22.940624L137.37813 27.55L135.8625 27.55L135.8625 16.175L139.62813 16.175Q141.55 16.175 142.58125 17.05Q143.62813 17.925 143.62813 19.596874Q143.62813 20.659374 143.05 21.45625Q142.47188 22.2375 141.45625 22.628124L144.12813 27.45625L144.12813 27.55L142.51875 27.55L140.05 22.940624ZM137.37813 21.721874L139.675 21.721874Q140.8 21.721874 141.45625 21.14375Q142.1125 20.565624 142.1125 19.596874Q142.1125 18.534374 141.4875 17.971874Q140.8625 17.409374 139.675 17.409374L137.37813 17.409374L137.37813 21.721874ZM147.22188 27.55L145.76875 27.55L145.76875 19.096874L147.22188 19.096874L147.22188 27.55ZM145.65938 16.846874Q145.65938 16.503124 145.8625 16.26875Q146.08125 16.01875 146.50313 16.01875Q146.925 16.01875 147.14375 16.26875Q147.3625 16.503124 147.3625 16.8625Q147.3625 17.20625 147.14375 17.440624Q146.925 17.675 146.50313 17.675Q146.08125 17.675 145.8625 17.440624Q145.65938 17.20625 145.65938 16.846874ZM156.78438 23.409374Q156.78438 25.346874 155.89375 26.534374Q155.01875 27.70625 153.51875 27.70625Q151.97188 27.70625 151.09688 26.721874L151.09688 30.8L149.64375 30.8L149.64375 19.096874L150.97188 19.096874L151.03438 20.034374Q151.925 18.940624 153.4875 18.940624Q155.01875 18.940624 155.89375 20.096874Q156.78438 21.2375 156.78438 23.284374L156.78438 23.409374ZM155.34688 23.253124Q155.34688 21.815624 154.7375 20.9875Q154.12813 20.159374 153.06563 20.159374Q151.75313 20.159374 151.09688 21.33125L151.09688 25.3625Q151.7375 26.51875 153.08125 26.51875Q154.1125 26.51875 154.72188 25.70625Q155.34688 24.878124 155.34688 23.253124ZM165.78438 23.409374Q165.78438 25.346874 164.89375 26.534374Q164.01875 27.70625 162.51875 27.70625Q160.97188 27.70625 160.09688 26.721874L160.09688 30.8L158.64375 30.8L158.64375 19.096874L159.97188 19.096874L160.03438 20.034374Q160.925 18.940624 162.4875 18.940624Q164.01875 18.940624 164.89375 20.096874Q165.78438 21.2375 165.78438 23.284374L165.78438 23.409374ZM164.34688 23.253124Q164.34688 21.815624 163.7375 20.9875Q163.12813 20.159374 162.06563 20.159374Q160.75313 20.159374 160.09688 21.33125L160.09688 25.3625Q160.7375 26.51875 162.08125 26.51875Q163.1125 26.51875 163.72188 25.70625Q164.34688 24.878124 164.34688 23.253124ZM169.22188 27.55L167.76875 27.55L167.76875 15.549999L169.22188 15.549999L169.22188 27.55ZM175.15938 27.70625Q173.44063 27.70625 172.3625 26.58125Q171.28438 25.440624 171.28438 23.55L171.28438 23.284374Q171.28438 22.034374 171.75313 21.05Q172.2375 20.05 173.09688 19.503124Q173.97188 18.940624 174.97188 18.940624Q176.62813 18.940624 177.53438 20.034374Q178.45625 21.1125 178.45625 23.128124L178.45625 23.7375L172.72188 23.7375Q172.75313 24.9875 173.45625 25.753124Q174.15938 26.51875 175.2375 26.51875Q176.00313 26.51875 176.53438 26.20625Q177.06563 25.89375 177.45625 25.378124L178.34688 26.065624Q177.28438 27.70625 175.15938 27.70625ZM174.97188 20.128124Q174.09688 20.128124 173.50313 20.76875Q172.90938 21.39375 172.76875 22.55L177.00313 22.55L177.00313 22.440624Q176.94063 21.33125 176.40938 20.7375Q175.87813 20.128124 174.97188 20.128124ZM183.59688 22.925Q183.59688 21.159374 184.06563 19.534374Q184.53438 17.909374 185.47188 16.58125Q186.40938 15.253124 187.425 14.706249L187.72188 15.659374Q186.58125 16.534374 185.84688 18.33125Q185.1125 20.128124 185.05 22.3625L185.03438 23.01875Q185.03438 26.034374 186.14375 28.26875Q186.8 29.596874 187.72188 30.346874L187.425 31.221874Q186.37813 30.64375 185.44063 29.284374Q183.59688 26.628124 183.59688 22.925ZM195.78438 23.409374Q195.78438 25.346874 194.89375 26.534374Q194.01875 27.70625 192.51875 27.70625Q190.97188 27.70625 190.09688 26.721874L190.09688 30.8L188.64375 30.8L188.64375 19.096874L189.97188 19.096874L190.03438 20.034374Q190.925 18.940624 192.4875 18.940624Q194.01875 18.940624 194.89375 20.096874Q195.78438 21.2375 195.78438 23.284374L195.78438 23.409374ZM194.34688 23.253124Q194.34688 21.815624 193.7375 20.9875Q193.12813 20.159374 192.06563 20.159374Q190.75313 20.159374 190.09688 21.33125L190.09688 25.3625Q190.7375 26.51875 192.08125 26.51875Q193.1125 26.51875 193.72188 25.70625Q194.34688 24.878124 194.34688 23.253124ZM201.15938 27.70625Q199.44063 27.70625 198.3625 26.58125Q197.28438 25.440624 197.28438 23.55L197.28438 23.284374Q197.28438 22.034374 197.75313 21.05Q198.2375 20.05 199.09688 19.503124Q199.97188 18.940624 200.97188 18.940624Q202.62813 18.940624 203.53438 20.034374Q204.45625 21.1125 204.45625 23.128124L204.45625 23.7375L198.72188 23.7375Q198.75313 24.9875 199.45625 25.753124Q200.15938 26.51875 201.2375 26.51875Q202.00313 26.51875 202.53438 26.20625Q203.06563 25.89375 203.45625 25.378124L204.34688 26.065624Q203.28438 27.70625 201.15938 27.70625ZM200.97188 20.128124Q200.09688 20.128124 199.50313 20.76875Q198.90938 21.39375 198.76875 22.55L203.00313 22.55L203.00313 22.440624Q202.94063 21.33125 202.40938 20.7375Q201.87813 20.128124 200.97188 20.128124ZM209.7375 20.39375Q209.40938 20.33125 209.01875 20.33125Q207.59688 20.33125 207.09688 21.55L207.09688 27.55L205.64375 27.55L205.64375 19.096874L207.05 19.096874L207.08125 20.065624Q207.78438 18.940624 209.09688 18.940624Q209.51875 18.940624 209.7375 19.05L209.7375 20.39375ZM218.7375 20.39375Q218.40938 20.33125 218.01875 20.33125Q216.59688 20.33125 216.09688 21.55L216.09688 27.55L214.64375 27.55L214.64375 19.096874L216.05 19.096874L216.08125 20.065624Q216.78438 18.940624 218.09688 18.940624Q218.51875 18.940624 218.7375 19.05L218.7375 20.39375ZM224.8625 27.55Q224.7375 27.3 224.65938 26.659374Q223.65938 27.70625 222.25313 27.70625Q221.00313 27.70625 220.20625 27.003124Q219.40938 26.284374 219.40938 25.20625Q219.40938 23.878124 220.40938 23.159374Q221.40938 22.425 223.2375 22.425L224.64375 22.425L224.64375 21.753124Q224.64375 21.003124 224.19063 20.55Q223.7375 20.096874 222.84688 20.096874Q222.08125 20.096874 221.55 20.4875Q221.03438 20.878124 221.03438 21.440624L219.58125 21.440624Q219.58125 20.8 220.01875 20.221874Q220.47188 19.628124 221.2375 19.284374Q222.01875 18.940624 222.94063 18.940624Q224.39375 18.940624 225.22188 19.675Q226.05 20.39375 226.08125 21.675L226.08125 25.565624Q226.08125 26.7375 226.37813 27.425L226.37813 27.55L224.8625 27.55ZM222.47188 26.440624Q223.14375 26.440624 223.75313 26.096874Q224.3625 25.7375 224.64375 25.175L224.64375 23.440624L223.50313 23.440624Q220.84688 23.440624 220.84688 25.003124Q220.84688 25.675 221.3 26.065624Q221.75313 26.440624 222.47188 26.440624ZM230.22188 27.55L228.76875 27.55L228.76875 19.096874L230.22188 19.096874L230.22188 27.55ZM228.65938 16.846874Q228.65938 16.503124 228.8625 16.26875Q229.08125 16.01875 229.50313 16.01875Q229.925 16.01875 230.14375 16.26875Q230.3625 16.503124 230.3625 16.8625Q230.3625 17.20625 230.14375 17.440624Q229.925 17.675 229.50313 17.675Q229.08125 17.675 228.8625 17.440624Q228.65938 17.20625 228.65938 16.846874ZM234.22188 27.55L232.76875 27.55L232.76875 15.549999L234.22188 15.549999L234.22188 27.55ZM239.9875 23.003124Q239.9875 24.753124 239.51875 26.3625Q239.06563 27.95625 238.12813 29.3Q237.19063 30.659374 236.15938 31.221874L235.84688 30.346874Q237.05 29.425 237.78438 27.4875Q238.51875 25.534374 238.53438 23.159374L238.53438 22.909374Q238.53438 21.26875 238.19063 19.8625Q237.84688 18.45625 237.22188 17.346874Q236.6125 16.221874 235.84688 15.596874L236.15938 14.706249Q237.19063 15.284374 238.1125 16.628124Q239.05 17.95625 239.51875 19.565624Q239.9875 21.175 239.9875 23.003124Z" fill-rule="nonzero"/></svg>